M48
;GenerationSoftware,Autodesk,EAGLE,9.6.2*%
;CreationDate,2021-04-17T05:37:21Z*%
FMAT,2
ICI,OFF
METRIC,TZ,000.000
T7C0.254
T6C0.305
T5C0.350
T4C0.635
T3C0.889
T2C1.000
T1C2.900
%
G90
M71
T1
X-26242Y16682
X18208Y16682
X18208Y-17608
X-26242Y-17608
T2
X13233Y6159
X15773Y8700
X13233Y8700
X13233Y-9081
X15773Y-9081
X15773Y-6540
X13233Y-4000
X13233Y-6540
X15773Y-4000
X15773Y-1460
X13233Y-1460
X15773Y1080
X13233Y1080
X15773Y3619
X13233Y3619
X15773Y6159
T3
X-1130Y-17374
X3950Y-17374
X1410Y-17374
X-3670Y-17374
X3175Y15875
X635Y15875
X-1905Y15875
T4
X-2146Y-9208
X-3646Y-9208
T5
X6693Y12827
T6
X-11722Y7874
X7836Y11684
X-4610Y6350
X-800Y2540
X-1054Y7747
X6883Y0
X2629Y-3429
X19012Y3556
X-1562Y-127
X-9665Y14148
X-5499Y7493
X724Y10795
X-2832Y4699
X3988Y-3391
X-6515Y6350
X10630Y8509
X6693Y10287
X16345Y9792
X-5639Y-10097
X-10198Y8763
X7417Y-2019
X-2705Y-5588
X20028Y-762
X-1562Y-1143
X-13500Y14199
T7
X10351Y-9271
X-5626Y-4572
X-1435Y-2413
X89Y7874
X6490Y7836
X5398Y7849
X4293Y7849
X3429Y7874
X1232Y7874
X-18326Y-9652
X2375Y7874
X-13462Y1448
X-20485Y-5461
X6231Y-4483
X-1435Y-3810
X-10833Y2667
X-13437Y-4407
X5677Y-5702
X-4382Y-1905
X-5575Y495
X-24193Y-4229
X-13475Y-2413
X8611Y-4775
X7010Y-9246
X9741Y-4801
M30