M48
;GenerationSoftware,Autodesk,EAGLE,9.6.2*%
;CreationDate,2021-04-25T19:10:24Z*%
FMAT,2
ICI,OFF
METRIC,TZ,000.000
T6C0.254
T5C0.305
T4C0.350
T3C0.889
T2C1.000
T1C2.900
%
G90
M71
T1
X6270Y16682
X6270Y-17227
X-26242Y16682
X-26242Y-17227
T2
X3835Y-9081
X1295Y8700
X3835Y8700
X1295Y6159
X3835Y6159
X1295Y3619
X3835Y3619
X1295Y1080
X3835Y1080
X1295Y-1460
X3835Y-1460
X1295Y-4000
X3835Y-4000
X1295Y-6540
X3835Y-6540
X1295Y-9081
T3
X-15608Y-17374
X-7988Y-17374
X-10528Y-17374
X-13068Y-17374
T4
X-12294Y4394
X-2515Y-10782
X-23685Y-3734
X-15684Y787
X-14300Y-1930
T5
X-13551Y-1410
X-14643Y-5588
T6
X-18021Y-10490
X-11938Y-5804
X-13538Y-2680
X-11849Y7874
X-5448Y7836
X-6540Y7849
X-7645Y7849
X-8509Y7874
X-10706Y7874
X-9563Y7874
M30