M48
;GenerationSoftware,Autodesk,EAGLE,9.6.2*%
;CreationDate,2021-04-26T14:15:48Z*%
FMAT,2
ICI,OFF
METRIC,TZ,000.000
T4C0.350
T3C0.889
T2C1.000
T1C2.900
%
G90
M71
T1
X-26242Y16682
X-26242Y-17227
X6270Y-17227
X6270Y16682
T2
X6947Y-1626
X4407Y8534
X6947Y8534
X4407Y5994
X6947Y5994
X4407Y3454
X6947Y3454
X4407Y914
X6947Y914
X4407Y-1626
X4407Y-4166
X6947Y-4166
X4407Y-6706
X6947Y-6706
X4407Y-9246
X6947Y-9246
T3
X-10185Y17247
X-12725Y17247
X-7645Y17247
X-5105Y17247
T4
X-3581Y-7595
X-18745Y952
X-13081Y3823
X-15786Y546
X-11493Y3175
X-10686Y3188
X-15926Y-4420
X-23241Y3150
X-4737Y-7595
X-5880Y-7607
X-15443Y-2184
X-19355Y-4648
X-19746Y-3007
X-7061Y-7607
X-8242Y-7620
X-9411Y-7620
X-10579Y-7620
X-11747Y-7620
X-14097Y-7620
X-12929Y-7620
X-8470Y5753
X-1499Y2108
X-18745Y-508
X-7633Y2184
X-19749Y2489
M30