G04 EAGLE Gerber RS-274X export*
G75*
%MOMM*%
%FSLAX34Y34*%
%LPD*%
%INSilkscreen Top*%
%IPPOS*%
%AMOC8*
5,1,8,0,0,1.08239X$1,22.5*%
G01*
%ADD10C,0.076200*%
%ADD11C,0.101600*%
%ADD12C,0.152400*%
%ADD13C,0.254000*%
%ADD14C,0.127000*%
%ADD15C,0.762000*%
%ADD16R,0.635000X1.270000*%

G36*
X92776Y150507D02*
X92776Y150507D01*
X92841Y150509D01*
X92885Y150527D01*
X92932Y150536D01*
X92988Y150569D01*
X93048Y150594D01*
X93084Y150626D01*
X93125Y150651D01*
X93166Y150701D01*
X93214Y150745D01*
X93236Y150788D01*
X93266Y150825D01*
X93287Y150887D01*
X93317Y150945D01*
X93325Y151000D01*
X93338Y151038D01*
X93336Y151077D01*
X93344Y151130D01*
X93344Y166370D01*
X93333Y166434D01*
X93331Y166499D01*
X93313Y166543D01*
X93305Y166591D01*
X93272Y166647D01*
X93247Y166707D01*
X93215Y166743D01*
X93190Y166784D01*
X93140Y166825D01*
X93096Y166873D01*
X93054Y166895D01*
X93016Y166925D01*
X92955Y166946D01*
X92897Y166976D01*
X92849Y166982D01*
X92804Y166997D01*
X92739Y166995D01*
X92674Y167003D01*
X92627Y166992D01*
X92579Y166991D01*
X92519Y166966D01*
X92456Y166951D01*
X92408Y166921D01*
X92372Y166906D01*
X92343Y166880D01*
X92297Y166852D01*
X90795Y165564D01*
X88575Y163661D01*
X86355Y161759D01*
X86355Y161758D01*
X84136Y159856D01*
X84135Y159856D01*
X83407Y159232D01*
X83406Y159230D01*
X83405Y159229D01*
X83333Y159141D01*
X83265Y159058D01*
X83265Y159056D01*
X83264Y159055D01*
X83228Y158947D01*
X83193Y158845D01*
X83193Y158844D01*
X83192Y158842D01*
X83196Y158731D01*
X83199Y158621D01*
X83200Y158620D01*
X83200Y158618D01*
X83241Y158516D01*
X83283Y158413D01*
X83284Y158412D01*
X83285Y158410D01*
X83407Y158268D01*
X92297Y150648D01*
X92353Y150616D01*
X92404Y150575D01*
X92449Y150559D01*
X92491Y150535D01*
X92555Y150524D01*
X92616Y150503D01*
X92664Y150504D01*
X92712Y150496D01*
X92776Y150507D01*
G37*
D10*
X-42756Y-193754D02*
X-44112Y-192398D01*
X-46824Y-192398D01*
X-48179Y-193754D01*
X-48179Y-199177D01*
X-46824Y-200533D01*
X-44112Y-200533D01*
X-42756Y-199177D01*
X-42756Y-196466D01*
X-45468Y-196466D01*
X-39994Y-200533D02*
X-39994Y-192398D01*
X-34570Y-200533D01*
X-34570Y-192398D01*
X-31808Y-192398D02*
X-31808Y-200533D01*
X-27740Y-200533D01*
X-26385Y-199177D01*
X-26385Y-193754D01*
X-27740Y-192398D01*
X-31808Y-192398D01*
X11318Y-192398D02*
X12674Y-193754D01*
X11318Y-192398D02*
X8606Y-192398D01*
X7250Y-193754D01*
X7250Y-195110D01*
X8606Y-196466D01*
X11318Y-196466D01*
X12674Y-197821D01*
X12674Y-199177D01*
X11318Y-200533D01*
X8606Y-200533D01*
X7250Y-199177D01*
X15436Y-200533D02*
X15436Y-192398D01*
X15436Y-197821D02*
X20860Y-192398D01*
X16792Y-196466D02*
X20860Y-200533D01*
X35956Y-192271D02*
X37312Y-193627D01*
X35956Y-192271D02*
X33244Y-192271D01*
X31888Y-193627D01*
X31888Y-194983D01*
X33244Y-196339D01*
X35956Y-196339D01*
X37312Y-197694D01*
X37312Y-199050D01*
X35956Y-200406D01*
X33244Y-200406D01*
X31888Y-199050D01*
X41430Y-192271D02*
X44142Y-192271D01*
X41430Y-192271D02*
X40074Y-193627D01*
X40074Y-199050D01*
X41430Y-200406D01*
X44142Y-200406D01*
X45498Y-199050D01*
X45498Y-193627D01*
X44142Y-192271D01*
X-18884Y-192398D02*
X-20239Y-193754D01*
X-18884Y-192398D02*
X-16172Y-192398D01*
X-14816Y-193754D01*
X-14816Y-195110D01*
X-16172Y-196466D01*
X-17528Y-196466D01*
X-16172Y-196466D02*
X-14816Y-197821D01*
X-14816Y-199177D01*
X-16172Y-200533D01*
X-18884Y-200533D01*
X-20239Y-199177D01*
X-12054Y-197821D02*
X-12054Y-192398D01*
X-12054Y-197821D02*
X-9342Y-200533D01*
X-6630Y-197821D01*
X-6630Y-192398D01*
X-3868Y-193754D02*
X-2512Y-192398D01*
X200Y-192398D01*
X1555Y-193754D01*
X1555Y-195110D01*
X200Y-196466D01*
X-1156Y-196466D01*
X200Y-196466D02*
X1555Y-197821D01*
X1555Y-199177D01*
X200Y-200533D01*
X-2512Y-200533D01*
X-3868Y-199177D01*
D11*
X-89067Y-48006D02*
X-89067Y-40125D01*
X-91694Y-40125D02*
X-86440Y-40125D01*
X-83508Y-40125D02*
X-78254Y-48006D01*
X-83508Y-48006D02*
X-78254Y-40125D01*
X-90043Y-27940D02*
X-90043Y-20059D01*
X-86103Y-20059D01*
X-84789Y-21373D01*
X-84789Y-24000D01*
X-86103Y-25313D01*
X-90043Y-25313D01*
X-87416Y-25313D02*
X-84789Y-27940D01*
X-76603Y-27940D02*
X-81857Y-20059D01*
X-76603Y-20059D02*
X-81857Y-27940D01*
X-91567Y-4866D02*
X-91567Y388D01*
X-91567Y-4866D02*
X-88940Y-7493D01*
X-86313Y-4866D01*
X-86313Y388D01*
X-79441Y388D02*
X-78127Y-926D01*
X-79441Y388D02*
X-82068Y388D01*
X-83381Y-926D01*
X-83381Y-6180D01*
X-82068Y-7493D01*
X-79441Y-7493D01*
X-78127Y-6180D01*
X-71255Y388D02*
X-69942Y-926D01*
X-71255Y388D02*
X-73882Y388D01*
X-75195Y-926D01*
X-75195Y-6180D01*
X-73882Y-7493D01*
X-71255Y-7493D01*
X-69942Y-6180D01*
X-87075Y19775D02*
X-88389Y21089D01*
X-91016Y21089D01*
X-92329Y19775D01*
X-92329Y14521D01*
X-91016Y13208D01*
X-88389Y13208D01*
X-87075Y14521D01*
X-87075Y17148D01*
X-89702Y17148D01*
X-84143Y13208D02*
X-84143Y21089D01*
X-78889Y13208D01*
X-78889Y21089D01*
X-75957Y21089D02*
X-75957Y13208D01*
X-72017Y13208D01*
X-70704Y14521D01*
X-70704Y19775D01*
X-72017Y21089D01*
X-75957Y21089D01*
D10*
X-38107Y95631D02*
X-29972Y95631D01*
X-38107Y95631D02*
X-38107Y99698D01*
X-36751Y101054D01*
X-34039Y101054D01*
X-32684Y99698D01*
X-32684Y95631D01*
X-32684Y98343D02*
X-29972Y101054D01*
X-38107Y107884D02*
X-36751Y109240D01*
X-38107Y107884D02*
X-38107Y105173D01*
X-36751Y103817D01*
X-35395Y103817D01*
X-34039Y105173D01*
X-34039Y107884D01*
X-32684Y109240D01*
X-31328Y109240D01*
X-29972Y107884D01*
X-29972Y105173D01*
X-31328Y103817D01*
X-29972Y114714D02*
X-38107Y114714D01*
X-38107Y112003D02*
X-38107Y117426D01*
D11*
X22479Y180978D02*
X22479Y187079D01*
X22479Y180978D02*
X25530Y177927D01*
X28580Y180978D01*
X28580Y187079D01*
X36410Y187079D02*
X37935Y185554D01*
X36410Y187079D02*
X33359Y187079D01*
X31834Y185554D01*
X31834Y179452D01*
X33359Y177927D01*
X36410Y177927D01*
X37935Y179452D01*
X45765Y187079D02*
X47291Y185554D01*
X45765Y187079D02*
X42715Y187079D01*
X41189Y185554D01*
X41189Y179452D01*
X42715Y177927D01*
X45765Y177927D01*
X47291Y179452D01*
X2667Y177800D02*
X2667Y186952D01*
X2667Y177800D02*
X7243Y177800D01*
X8768Y179325D01*
X8768Y185427D01*
X7243Y186952D01*
X2667Y186952D01*
X12022Y177800D02*
X15073Y177800D01*
X13547Y177800D02*
X13547Y186952D01*
X12022Y186952D02*
X15073Y186952D01*
X-25903Y185427D02*
X-27428Y186952D01*
X-30479Y186952D01*
X-32004Y185427D01*
X-32004Y179325D01*
X-30479Y177800D01*
X-27428Y177800D01*
X-25903Y179325D01*
X-25903Y182376D01*
X-28953Y182376D01*
X-22649Y177800D02*
X-22649Y186952D01*
X-16548Y177800D01*
X-16548Y186952D01*
X-13294Y186952D02*
X-13294Y177800D01*
X-8718Y177800D01*
X-7192Y179325D01*
X-7192Y185427D01*
X-8718Y186952D01*
X-13294Y186952D01*
X-78018Y-129788D02*
X-80391Y-132161D01*
X-78018Y-129788D02*
X-78018Y-136906D01*
X-75646Y-136906D02*
X-80391Y-136906D01*
X-156083Y-134196D02*
X-156083Y-129450D01*
X-154897Y-128264D01*
X-152524Y-128264D01*
X-151338Y-129450D01*
X-151338Y-134196D01*
X-152524Y-135382D01*
X-154897Y-135382D01*
X-156083Y-134196D01*
X-151338Y-129450D01*
D12*
X-268478Y126080D02*
X-265766Y128792D01*
X-260343Y128792D01*
X-257631Y126080D01*
X-257631Y123369D01*
X-260343Y120657D01*
X-263055Y120657D01*
X-260343Y120657D02*
X-257631Y117945D01*
X-257631Y115234D01*
X-260343Y112522D01*
X-265766Y112522D01*
X-268478Y115234D01*
X-252106Y117945D02*
X-252106Y128792D01*
X-252106Y117945D02*
X-246683Y112522D01*
X-241260Y117945D01*
X-241260Y128792D01*
X-235735Y126080D02*
X-233023Y128792D01*
X-227600Y128792D01*
X-224888Y126080D01*
X-224888Y123369D01*
X-227600Y120657D01*
X-230312Y120657D01*
X-227600Y120657D02*
X-224888Y117945D01*
X-224888Y115234D01*
X-227600Y112522D01*
X-233023Y112522D01*
X-235735Y115234D01*
X-268306Y-120128D02*
X-271018Y-122840D01*
X-268306Y-120128D02*
X-262883Y-120128D01*
X-260171Y-122840D01*
X-260171Y-125551D01*
X-262883Y-128263D01*
X-265595Y-128263D01*
X-262883Y-128263D02*
X-260171Y-130975D01*
X-260171Y-133686D01*
X-262883Y-136398D01*
X-268306Y-136398D01*
X-271018Y-133686D01*
X-254646Y-130975D02*
X-254646Y-120128D01*
X-254646Y-130975D02*
X-249223Y-136398D01*
X-243800Y-130975D01*
X-243800Y-120128D01*
X-238275Y-122840D02*
X-235563Y-120128D01*
X-230140Y-120128D01*
X-227428Y-122840D01*
X-227428Y-125551D01*
X-230140Y-128263D01*
X-232852Y-128263D01*
X-230140Y-128263D02*
X-227428Y-130975D01*
X-227428Y-133686D01*
X-230140Y-136398D01*
X-235563Y-136398D01*
X-238275Y-133686D01*
X-368636Y-179818D02*
X-371348Y-182530D01*
X-368636Y-179818D02*
X-363213Y-179818D01*
X-360501Y-182530D01*
X-360501Y-185241D01*
X-363213Y-187953D01*
X-365925Y-187953D01*
X-363213Y-187953D02*
X-360501Y-190665D01*
X-360501Y-193376D01*
X-363213Y-196088D01*
X-368636Y-196088D01*
X-371348Y-193376D01*
X-354976Y-190665D02*
X-354976Y-179818D01*
X-354976Y-190665D02*
X-349553Y-196088D01*
X-344130Y-190665D01*
X-344130Y-179818D01*
X-338605Y-182530D02*
X-335893Y-179818D01*
X-330470Y-179818D01*
X-327758Y-182530D01*
X-327758Y-185241D01*
X-330470Y-187953D01*
X-333182Y-187953D01*
X-330470Y-187953D02*
X-327758Y-190665D01*
X-327758Y-193376D01*
X-330470Y-196088D01*
X-335893Y-196088D01*
X-338605Y-193376D01*
X-371348Y185770D02*
X-368636Y188482D01*
X-363213Y188482D01*
X-360501Y185770D01*
X-360501Y183059D01*
X-363213Y180347D01*
X-365925Y180347D01*
X-363213Y180347D02*
X-360501Y177635D01*
X-360501Y174924D01*
X-363213Y172212D01*
X-368636Y172212D01*
X-371348Y174924D01*
X-354976Y177635D02*
X-354976Y188482D01*
X-354976Y177635D02*
X-349553Y172212D01*
X-344130Y177635D01*
X-344130Y188482D01*
X-338605Y185770D02*
X-335893Y188482D01*
X-330470Y188482D01*
X-327758Y185770D01*
X-327758Y183059D01*
X-330470Y180347D01*
X-333182Y180347D01*
X-330470Y180347D02*
X-327758Y177635D01*
X-327758Y174924D01*
X-330470Y172212D01*
X-335893Y172212D01*
X-338605Y174924D01*
D10*
X73406Y-43180D02*
X73408Y-43249D01*
X73413Y-43317D01*
X73423Y-43385D01*
X73436Y-43453D01*
X73452Y-43520D01*
X73472Y-43586D01*
X73496Y-43650D01*
X73523Y-43713D01*
X73554Y-43775D01*
X73588Y-43835D01*
X73625Y-43893D01*
X73665Y-43949D01*
X73708Y-44002D01*
X73754Y-44053D01*
X73803Y-44102D01*
X73854Y-44148D01*
X73907Y-44191D01*
X73963Y-44231D01*
X74021Y-44268D01*
X74081Y-44302D01*
X74143Y-44333D01*
X74206Y-44360D01*
X74270Y-44384D01*
X74336Y-44404D01*
X74403Y-44420D01*
X74471Y-44433D01*
X74539Y-44443D01*
X74607Y-44448D01*
X74676Y-44450D01*
X73406Y-43180D02*
X73406Y-36830D01*
X73408Y-36761D01*
X73413Y-36693D01*
X73423Y-36625D01*
X73436Y-36557D01*
X73452Y-36490D01*
X73472Y-36424D01*
X73496Y-36360D01*
X73523Y-36297D01*
X73554Y-36235D01*
X73588Y-36175D01*
X73625Y-36117D01*
X73665Y-36061D01*
X73708Y-36008D01*
X73754Y-35957D01*
X73803Y-35908D01*
X73854Y-35862D01*
X73907Y-35819D01*
X73963Y-35779D01*
X74021Y-35742D01*
X74081Y-35708D01*
X74143Y-35677D01*
X74206Y-35650D01*
X74270Y-35626D01*
X74336Y-35606D01*
X74403Y-35590D01*
X74471Y-35577D01*
X74539Y-35567D01*
X74607Y-35562D01*
X74676Y-35560D01*
X89916Y-35560D01*
X89985Y-35562D01*
X90053Y-35567D01*
X90121Y-35577D01*
X90189Y-35590D01*
X90256Y-35606D01*
X90322Y-35626D01*
X90386Y-35650D01*
X90449Y-35677D01*
X90511Y-35708D01*
X90571Y-35742D01*
X90629Y-35779D01*
X90685Y-35819D01*
X90738Y-35862D01*
X90789Y-35908D01*
X90838Y-35957D01*
X90884Y-36008D01*
X90927Y-36061D01*
X90967Y-36117D01*
X91004Y-36175D01*
X91038Y-36235D01*
X91069Y-36297D01*
X91096Y-36360D01*
X91120Y-36424D01*
X91140Y-36490D01*
X91156Y-36557D01*
X91169Y-36625D01*
X91179Y-36693D01*
X91184Y-36761D01*
X91186Y-36830D01*
X91186Y-43180D01*
X91184Y-43249D01*
X91179Y-43317D01*
X91169Y-43385D01*
X91156Y-43453D01*
X91140Y-43520D01*
X91120Y-43586D01*
X91096Y-43650D01*
X91069Y-43713D01*
X91038Y-43775D01*
X91004Y-43835D01*
X90967Y-43893D01*
X90927Y-43949D01*
X90884Y-44002D01*
X90838Y-44053D01*
X90789Y-44102D01*
X90738Y-44148D01*
X90685Y-44191D01*
X90629Y-44231D01*
X90571Y-44268D01*
X90511Y-44302D01*
X90449Y-44333D01*
X90386Y-44360D01*
X90322Y-44384D01*
X90256Y-44404D01*
X90189Y-44420D01*
X90121Y-44433D01*
X90053Y-44443D01*
X89985Y-44448D01*
X89916Y-44450D01*
X74676Y-44450D01*
X78819Y-45334D02*
X79709Y-46224D01*
X78819Y-45334D02*
X77040Y-45334D01*
X76150Y-46224D01*
X76150Y-49783D01*
X77040Y-50673D01*
X78819Y-50673D01*
X79709Y-49783D01*
X81763Y-47114D02*
X83542Y-45334D01*
X83542Y-50673D01*
X81763Y-50673D02*
X85322Y-50673D01*
X80518Y-5207D02*
X80587Y-5205D01*
X80655Y-5200D01*
X80723Y-5190D01*
X80791Y-5177D01*
X80858Y-5161D01*
X80924Y-5141D01*
X80988Y-5117D01*
X81051Y-5090D01*
X81113Y-5059D01*
X81173Y-5025D01*
X81231Y-4988D01*
X81287Y-4948D01*
X81340Y-4905D01*
X81391Y-4859D01*
X81440Y-4810D01*
X81486Y-4759D01*
X81529Y-4706D01*
X81569Y-4650D01*
X81606Y-4592D01*
X81640Y-4532D01*
X81671Y-4470D01*
X81698Y-4407D01*
X81722Y-4343D01*
X81742Y-4277D01*
X81758Y-4210D01*
X81771Y-4142D01*
X81781Y-4074D01*
X81786Y-4006D01*
X81788Y-3937D01*
X80518Y-5207D02*
X74168Y-5207D01*
X74099Y-5205D01*
X74031Y-5200D01*
X73963Y-5190D01*
X73895Y-5177D01*
X73828Y-5161D01*
X73762Y-5141D01*
X73698Y-5117D01*
X73635Y-5090D01*
X73573Y-5059D01*
X73513Y-5025D01*
X73455Y-4988D01*
X73399Y-4948D01*
X73346Y-4905D01*
X73295Y-4859D01*
X73246Y-4810D01*
X73200Y-4759D01*
X73157Y-4706D01*
X73117Y-4650D01*
X73080Y-4592D01*
X73046Y-4532D01*
X73015Y-4470D01*
X72988Y-4407D01*
X72964Y-4343D01*
X72944Y-4277D01*
X72928Y-4210D01*
X72915Y-4142D01*
X72905Y-4074D01*
X72900Y-4006D01*
X72898Y-3937D01*
X72898Y11303D01*
X72900Y11372D01*
X72905Y11440D01*
X72915Y11508D01*
X72928Y11576D01*
X72944Y11643D01*
X72964Y11709D01*
X72988Y11773D01*
X73015Y11836D01*
X73046Y11898D01*
X73080Y11958D01*
X73117Y12016D01*
X73157Y12072D01*
X73200Y12125D01*
X73246Y12176D01*
X73295Y12225D01*
X73346Y12271D01*
X73399Y12314D01*
X73455Y12354D01*
X73513Y12391D01*
X73573Y12425D01*
X73635Y12456D01*
X73698Y12483D01*
X73762Y12507D01*
X73828Y12527D01*
X73895Y12543D01*
X73963Y12556D01*
X74031Y12566D01*
X74099Y12571D01*
X74168Y12573D01*
X80518Y12573D01*
X80587Y12571D01*
X80655Y12566D01*
X80723Y12556D01*
X80791Y12543D01*
X80858Y12527D01*
X80924Y12507D01*
X80988Y12483D01*
X81051Y12456D01*
X81113Y12425D01*
X81173Y12391D01*
X81231Y12354D01*
X81287Y12314D01*
X81340Y12271D01*
X81391Y12225D01*
X81440Y12176D01*
X81486Y12125D01*
X81529Y12072D01*
X81569Y12016D01*
X81606Y11958D01*
X81640Y11898D01*
X81671Y11836D01*
X81698Y11773D01*
X81722Y11709D01*
X81742Y11643D01*
X81758Y11576D01*
X81771Y11508D01*
X81781Y11440D01*
X81786Y11372D01*
X81788Y11303D01*
X81788Y-3937D01*
X66925Y3D02*
X66035Y-887D01*
X66035Y-2666D01*
X66925Y-3556D01*
X70484Y-3556D01*
X71374Y-2666D01*
X71374Y-887D01*
X70484Y3D01*
X67815Y2057D02*
X66035Y3837D01*
X71374Y3837D01*
X71374Y5616D02*
X71374Y2057D01*
X71374Y7670D02*
X71374Y11229D01*
X71374Y7670D02*
X67815Y11229D01*
X66925Y11229D01*
X66035Y10339D01*
X66035Y8560D01*
X66925Y7670D01*
X-40386Y74930D02*
X-40455Y74928D01*
X-40523Y74923D01*
X-40591Y74913D01*
X-40659Y74900D01*
X-40726Y74884D01*
X-40792Y74864D01*
X-40856Y74840D01*
X-40919Y74813D01*
X-40981Y74782D01*
X-41041Y74748D01*
X-41099Y74711D01*
X-41155Y74671D01*
X-41208Y74628D01*
X-41259Y74582D01*
X-41308Y74533D01*
X-41354Y74482D01*
X-41397Y74429D01*
X-41437Y74373D01*
X-41474Y74315D01*
X-41508Y74255D01*
X-41539Y74193D01*
X-41566Y74130D01*
X-41590Y74066D01*
X-41610Y74000D01*
X-41626Y73933D01*
X-41639Y73865D01*
X-41649Y73797D01*
X-41654Y73729D01*
X-41656Y73660D01*
X-40386Y74930D02*
X-34036Y74930D01*
X-33967Y74928D01*
X-33899Y74923D01*
X-33831Y74913D01*
X-33763Y74900D01*
X-33696Y74884D01*
X-33630Y74864D01*
X-33566Y74840D01*
X-33503Y74813D01*
X-33441Y74782D01*
X-33381Y74748D01*
X-33323Y74711D01*
X-33267Y74671D01*
X-33214Y74628D01*
X-33163Y74582D01*
X-33114Y74533D01*
X-33068Y74482D01*
X-33025Y74429D01*
X-32985Y74373D01*
X-32948Y74315D01*
X-32914Y74255D01*
X-32883Y74193D01*
X-32856Y74130D01*
X-32832Y74066D01*
X-32812Y74000D01*
X-32796Y73933D01*
X-32783Y73865D01*
X-32773Y73797D01*
X-32768Y73729D01*
X-32766Y73660D01*
X-32766Y58420D01*
X-32768Y58351D01*
X-32773Y58283D01*
X-32783Y58215D01*
X-32796Y58147D01*
X-32812Y58080D01*
X-32832Y58014D01*
X-32856Y57950D01*
X-32883Y57887D01*
X-32914Y57825D01*
X-32948Y57765D01*
X-32985Y57707D01*
X-33025Y57651D01*
X-33068Y57598D01*
X-33114Y57547D01*
X-33163Y57498D01*
X-33214Y57452D01*
X-33267Y57409D01*
X-33323Y57369D01*
X-33381Y57332D01*
X-33441Y57298D01*
X-33503Y57267D01*
X-33566Y57240D01*
X-33630Y57216D01*
X-33696Y57196D01*
X-33763Y57180D01*
X-33831Y57167D01*
X-33899Y57157D01*
X-33967Y57152D01*
X-34036Y57150D01*
X-40386Y57150D01*
X-40455Y57152D01*
X-40523Y57157D01*
X-40591Y57167D01*
X-40659Y57180D01*
X-40726Y57196D01*
X-40792Y57216D01*
X-40856Y57240D01*
X-40919Y57267D01*
X-40981Y57298D01*
X-41041Y57332D01*
X-41099Y57369D01*
X-41155Y57409D01*
X-41208Y57452D01*
X-41259Y57498D01*
X-41308Y57547D01*
X-41354Y57598D01*
X-41397Y57651D01*
X-41437Y57707D01*
X-41474Y57765D01*
X-41508Y57825D01*
X-41539Y57887D01*
X-41566Y57950D01*
X-41590Y58014D01*
X-41610Y58080D01*
X-41626Y58147D01*
X-41639Y58215D01*
X-41649Y58283D01*
X-41654Y58351D01*
X-41656Y58420D01*
X-41656Y73660D01*
X-48010Y63249D02*
X-48900Y62359D01*
X-48900Y60580D01*
X-48010Y59690D01*
X-44451Y59690D01*
X-43561Y60580D01*
X-43561Y62359D01*
X-44451Y63249D01*
X-47120Y65303D02*
X-48900Y67083D01*
X-43561Y67083D01*
X-43561Y68862D02*
X-43561Y65303D01*
X-48010Y70916D02*
X-48900Y71806D01*
X-48900Y73585D01*
X-48010Y74475D01*
X-47120Y74475D01*
X-46230Y73585D01*
X-46230Y72696D01*
X-46230Y73585D02*
X-45341Y74475D01*
X-44451Y74475D01*
X-43561Y73585D01*
X-43561Y71806D01*
X-44451Y70916D01*
X61214Y-87630D02*
X61212Y-87699D01*
X61207Y-87767D01*
X61197Y-87835D01*
X61184Y-87903D01*
X61168Y-87970D01*
X61148Y-88036D01*
X61124Y-88100D01*
X61097Y-88163D01*
X61066Y-88225D01*
X61032Y-88285D01*
X60995Y-88343D01*
X60955Y-88399D01*
X60912Y-88452D01*
X60866Y-88503D01*
X60817Y-88552D01*
X60766Y-88598D01*
X60713Y-88641D01*
X60657Y-88681D01*
X60599Y-88718D01*
X60539Y-88752D01*
X60477Y-88783D01*
X60414Y-88810D01*
X60350Y-88834D01*
X60284Y-88854D01*
X60217Y-88870D01*
X60149Y-88883D01*
X60081Y-88893D01*
X60013Y-88898D01*
X59944Y-88900D01*
X53594Y-88900D01*
X53525Y-88898D01*
X53457Y-88893D01*
X53389Y-88883D01*
X53321Y-88870D01*
X53254Y-88854D01*
X53188Y-88834D01*
X53124Y-88810D01*
X53061Y-88783D01*
X52999Y-88752D01*
X52939Y-88718D01*
X52881Y-88681D01*
X52825Y-88641D01*
X52772Y-88598D01*
X52721Y-88552D01*
X52672Y-88503D01*
X52626Y-88452D01*
X52583Y-88399D01*
X52543Y-88343D01*
X52506Y-88285D01*
X52472Y-88225D01*
X52441Y-88163D01*
X52414Y-88100D01*
X52390Y-88036D01*
X52370Y-87970D01*
X52354Y-87903D01*
X52341Y-87835D01*
X52331Y-87767D01*
X52326Y-87699D01*
X52324Y-87630D01*
X52324Y-72390D01*
X52326Y-72321D01*
X52331Y-72253D01*
X52341Y-72185D01*
X52354Y-72117D01*
X52370Y-72050D01*
X52390Y-71984D01*
X52414Y-71920D01*
X52441Y-71857D01*
X52472Y-71795D01*
X52506Y-71735D01*
X52543Y-71677D01*
X52583Y-71621D01*
X52626Y-71568D01*
X52672Y-71517D01*
X52721Y-71468D01*
X52772Y-71422D01*
X52825Y-71379D01*
X52881Y-71339D01*
X52939Y-71302D01*
X52999Y-71268D01*
X53061Y-71237D01*
X53124Y-71210D01*
X53188Y-71186D01*
X53254Y-71166D01*
X53321Y-71150D01*
X53389Y-71137D01*
X53457Y-71127D01*
X53525Y-71122D01*
X53594Y-71120D01*
X59944Y-71120D01*
X60013Y-71122D01*
X60081Y-71127D01*
X60149Y-71137D01*
X60217Y-71150D01*
X60284Y-71166D01*
X60350Y-71186D01*
X60414Y-71210D01*
X60477Y-71237D01*
X60539Y-71268D01*
X60599Y-71302D01*
X60657Y-71339D01*
X60713Y-71379D01*
X60766Y-71422D01*
X60817Y-71468D01*
X60866Y-71517D01*
X60912Y-71568D01*
X60955Y-71621D01*
X60995Y-71677D01*
X61032Y-71735D01*
X61066Y-71795D01*
X61097Y-71857D01*
X61124Y-71920D01*
X61148Y-71984D01*
X61168Y-72050D01*
X61184Y-72117D01*
X61197Y-72185D01*
X61207Y-72253D01*
X61212Y-72321D01*
X61214Y-72390D01*
X61214Y-87630D01*
X63368Y-85798D02*
X64258Y-84908D01*
X63368Y-85798D02*
X63368Y-87578D01*
X64258Y-88467D01*
X67817Y-88467D01*
X68707Y-87578D01*
X68707Y-85798D01*
X67817Y-84908D01*
X65148Y-82854D02*
X63368Y-81075D01*
X68707Y-81075D01*
X68707Y-82854D02*
X68707Y-79295D01*
X68707Y-74572D02*
X63368Y-74572D01*
X66038Y-77241D01*
X66038Y-73682D01*
X48514Y-87630D02*
X48512Y-87699D01*
X48507Y-87767D01*
X48497Y-87835D01*
X48484Y-87903D01*
X48468Y-87970D01*
X48448Y-88036D01*
X48424Y-88100D01*
X48397Y-88163D01*
X48366Y-88225D01*
X48332Y-88285D01*
X48295Y-88343D01*
X48255Y-88399D01*
X48212Y-88452D01*
X48166Y-88503D01*
X48117Y-88552D01*
X48066Y-88598D01*
X48013Y-88641D01*
X47957Y-88681D01*
X47899Y-88718D01*
X47839Y-88752D01*
X47777Y-88783D01*
X47714Y-88810D01*
X47650Y-88834D01*
X47584Y-88854D01*
X47517Y-88870D01*
X47449Y-88883D01*
X47381Y-88893D01*
X47313Y-88898D01*
X47244Y-88900D01*
X40894Y-88900D01*
X40825Y-88898D01*
X40757Y-88893D01*
X40689Y-88883D01*
X40621Y-88870D01*
X40554Y-88854D01*
X40488Y-88834D01*
X40424Y-88810D01*
X40361Y-88783D01*
X40299Y-88752D01*
X40239Y-88718D01*
X40181Y-88681D01*
X40125Y-88641D01*
X40072Y-88598D01*
X40021Y-88552D01*
X39972Y-88503D01*
X39926Y-88452D01*
X39883Y-88399D01*
X39843Y-88343D01*
X39806Y-88285D01*
X39772Y-88225D01*
X39741Y-88163D01*
X39714Y-88100D01*
X39690Y-88036D01*
X39670Y-87970D01*
X39654Y-87903D01*
X39641Y-87835D01*
X39631Y-87767D01*
X39626Y-87699D01*
X39624Y-87630D01*
X39624Y-72390D01*
X39626Y-72321D01*
X39631Y-72253D01*
X39641Y-72185D01*
X39654Y-72117D01*
X39670Y-72050D01*
X39690Y-71984D01*
X39714Y-71920D01*
X39741Y-71857D01*
X39772Y-71795D01*
X39806Y-71735D01*
X39843Y-71677D01*
X39883Y-71621D01*
X39926Y-71568D01*
X39972Y-71517D01*
X40021Y-71468D01*
X40072Y-71422D01*
X40125Y-71379D01*
X40181Y-71339D01*
X40239Y-71302D01*
X40299Y-71268D01*
X40361Y-71237D01*
X40424Y-71210D01*
X40488Y-71186D01*
X40554Y-71166D01*
X40621Y-71150D01*
X40689Y-71137D01*
X40757Y-71127D01*
X40825Y-71122D01*
X40894Y-71120D01*
X47244Y-71120D01*
X47313Y-71122D01*
X47381Y-71127D01*
X47449Y-71137D01*
X47517Y-71150D01*
X47584Y-71166D01*
X47650Y-71186D01*
X47714Y-71210D01*
X47777Y-71237D01*
X47839Y-71268D01*
X47899Y-71302D01*
X47957Y-71339D01*
X48013Y-71379D01*
X48066Y-71422D01*
X48117Y-71468D01*
X48166Y-71517D01*
X48212Y-71568D01*
X48255Y-71621D01*
X48295Y-71677D01*
X48332Y-71735D01*
X48366Y-71795D01*
X48397Y-71857D01*
X48424Y-71920D01*
X48448Y-71984D01*
X48468Y-72050D01*
X48484Y-72117D01*
X48497Y-72185D01*
X48507Y-72253D01*
X48512Y-72321D01*
X48514Y-72390D01*
X48514Y-87630D01*
X33524Y-83817D02*
X32634Y-84707D01*
X32634Y-86486D01*
X33524Y-87376D01*
X37083Y-87376D01*
X37973Y-86486D01*
X37973Y-84707D01*
X37083Y-83817D01*
X34414Y-81763D02*
X32634Y-79983D01*
X37973Y-79983D01*
X37973Y-78204D02*
X37973Y-81763D01*
X32634Y-76150D02*
X32634Y-72591D01*
X32634Y-76150D02*
X35304Y-76150D01*
X34414Y-74370D01*
X34414Y-73481D01*
X35304Y-72591D01*
X37083Y-72591D01*
X37973Y-73481D01*
X37973Y-75260D01*
X37083Y-76150D01*
X-40386Y-63500D02*
X-40388Y-63569D01*
X-40393Y-63637D01*
X-40403Y-63705D01*
X-40416Y-63773D01*
X-40432Y-63840D01*
X-40452Y-63906D01*
X-40476Y-63970D01*
X-40503Y-64033D01*
X-40534Y-64095D01*
X-40568Y-64155D01*
X-40605Y-64213D01*
X-40645Y-64269D01*
X-40688Y-64322D01*
X-40734Y-64373D01*
X-40783Y-64422D01*
X-40834Y-64468D01*
X-40887Y-64511D01*
X-40943Y-64551D01*
X-41001Y-64588D01*
X-41061Y-64622D01*
X-41123Y-64653D01*
X-41186Y-64680D01*
X-41250Y-64704D01*
X-41316Y-64724D01*
X-41383Y-64740D01*
X-41451Y-64753D01*
X-41519Y-64763D01*
X-41587Y-64768D01*
X-41656Y-64770D01*
X-48006Y-64770D01*
X-48075Y-64768D01*
X-48143Y-64763D01*
X-48211Y-64753D01*
X-48279Y-64740D01*
X-48346Y-64724D01*
X-48412Y-64704D01*
X-48476Y-64680D01*
X-48539Y-64653D01*
X-48601Y-64622D01*
X-48661Y-64588D01*
X-48719Y-64551D01*
X-48775Y-64511D01*
X-48828Y-64468D01*
X-48879Y-64422D01*
X-48928Y-64373D01*
X-48974Y-64322D01*
X-49017Y-64269D01*
X-49057Y-64213D01*
X-49094Y-64155D01*
X-49128Y-64095D01*
X-49159Y-64033D01*
X-49186Y-63970D01*
X-49210Y-63906D01*
X-49230Y-63840D01*
X-49246Y-63773D01*
X-49259Y-63705D01*
X-49269Y-63637D01*
X-49274Y-63569D01*
X-49276Y-63500D01*
X-49276Y-48260D01*
X-49274Y-48191D01*
X-49269Y-48123D01*
X-49259Y-48055D01*
X-49246Y-47987D01*
X-49230Y-47920D01*
X-49210Y-47854D01*
X-49186Y-47790D01*
X-49159Y-47727D01*
X-49128Y-47665D01*
X-49094Y-47605D01*
X-49057Y-47547D01*
X-49017Y-47491D01*
X-48974Y-47438D01*
X-48928Y-47387D01*
X-48879Y-47338D01*
X-48828Y-47292D01*
X-48775Y-47249D01*
X-48719Y-47209D01*
X-48661Y-47172D01*
X-48601Y-47138D01*
X-48539Y-47107D01*
X-48476Y-47080D01*
X-48412Y-47056D01*
X-48346Y-47036D01*
X-48279Y-47020D01*
X-48211Y-47007D01*
X-48143Y-46997D01*
X-48075Y-46992D01*
X-48006Y-46990D01*
X-41656Y-46990D01*
X-41587Y-46992D01*
X-41519Y-46997D01*
X-41451Y-47007D01*
X-41383Y-47020D01*
X-41316Y-47036D01*
X-41250Y-47056D01*
X-41186Y-47080D01*
X-41123Y-47107D01*
X-41061Y-47138D01*
X-41001Y-47172D01*
X-40943Y-47209D01*
X-40887Y-47249D01*
X-40834Y-47292D01*
X-40783Y-47338D01*
X-40734Y-47387D01*
X-40688Y-47438D01*
X-40645Y-47491D01*
X-40605Y-47547D01*
X-40568Y-47605D01*
X-40534Y-47665D01*
X-40503Y-47727D01*
X-40476Y-47790D01*
X-40452Y-47854D01*
X-40432Y-47920D01*
X-40416Y-47987D01*
X-40403Y-48055D01*
X-40393Y-48123D01*
X-40388Y-48191D01*
X-40386Y-48260D01*
X-40386Y-63500D01*
X-38232Y-61668D02*
X-37342Y-60778D01*
X-38232Y-61668D02*
X-38232Y-63448D01*
X-37342Y-64337D01*
X-33783Y-64337D01*
X-32893Y-63448D01*
X-32893Y-61668D01*
X-33783Y-60778D01*
X-36452Y-58724D02*
X-38232Y-56945D01*
X-32893Y-56945D01*
X-32893Y-58724D02*
X-32893Y-55165D01*
X-37342Y-51332D02*
X-38232Y-49552D01*
X-37342Y-51332D02*
X-35562Y-53111D01*
X-33783Y-53111D01*
X-32893Y-52221D01*
X-32893Y-50442D01*
X-33783Y-49552D01*
X-34673Y-49552D01*
X-35562Y-50442D01*
X-35562Y-53111D01*
X109855Y-35433D02*
X109924Y-35435D01*
X109992Y-35440D01*
X110060Y-35450D01*
X110128Y-35463D01*
X110195Y-35479D01*
X110261Y-35499D01*
X110325Y-35523D01*
X110388Y-35550D01*
X110450Y-35581D01*
X110510Y-35615D01*
X110568Y-35652D01*
X110624Y-35692D01*
X110677Y-35735D01*
X110728Y-35781D01*
X110777Y-35830D01*
X110823Y-35881D01*
X110866Y-35934D01*
X110906Y-35990D01*
X110943Y-36048D01*
X110977Y-36108D01*
X111008Y-36170D01*
X111035Y-36233D01*
X111059Y-36297D01*
X111079Y-36363D01*
X111095Y-36430D01*
X111108Y-36498D01*
X111118Y-36566D01*
X111123Y-36634D01*
X111125Y-36703D01*
X111125Y-43053D01*
X111123Y-43122D01*
X111118Y-43190D01*
X111108Y-43258D01*
X111095Y-43326D01*
X111079Y-43393D01*
X111059Y-43459D01*
X111035Y-43523D01*
X111008Y-43586D01*
X110977Y-43648D01*
X110943Y-43708D01*
X110906Y-43766D01*
X110866Y-43822D01*
X110823Y-43875D01*
X110777Y-43926D01*
X110728Y-43975D01*
X110677Y-44021D01*
X110624Y-44064D01*
X110568Y-44104D01*
X110510Y-44141D01*
X110450Y-44175D01*
X110388Y-44206D01*
X110325Y-44233D01*
X110261Y-44257D01*
X110195Y-44277D01*
X110128Y-44293D01*
X110060Y-44306D01*
X109992Y-44316D01*
X109924Y-44321D01*
X109855Y-44323D01*
X94615Y-44323D01*
X94546Y-44321D01*
X94478Y-44316D01*
X94410Y-44306D01*
X94342Y-44293D01*
X94275Y-44277D01*
X94209Y-44257D01*
X94145Y-44233D01*
X94082Y-44206D01*
X94020Y-44175D01*
X93960Y-44141D01*
X93902Y-44104D01*
X93846Y-44064D01*
X93793Y-44021D01*
X93742Y-43975D01*
X93693Y-43926D01*
X93647Y-43875D01*
X93604Y-43822D01*
X93564Y-43766D01*
X93527Y-43708D01*
X93493Y-43648D01*
X93462Y-43586D01*
X93435Y-43523D01*
X93411Y-43459D01*
X93391Y-43393D01*
X93375Y-43326D01*
X93362Y-43258D01*
X93352Y-43190D01*
X93347Y-43122D01*
X93345Y-43053D01*
X93345Y-36703D01*
X93347Y-36634D01*
X93352Y-36566D01*
X93362Y-36498D01*
X93375Y-36430D01*
X93391Y-36363D01*
X93411Y-36297D01*
X93435Y-36233D01*
X93462Y-36170D01*
X93493Y-36108D01*
X93527Y-36048D01*
X93564Y-35990D01*
X93604Y-35934D01*
X93647Y-35881D01*
X93693Y-35830D01*
X93742Y-35781D01*
X93793Y-35735D01*
X93846Y-35692D01*
X93902Y-35652D01*
X93960Y-35615D01*
X94020Y-35581D01*
X94082Y-35550D01*
X94145Y-35523D01*
X94209Y-35499D01*
X94275Y-35479D01*
X94342Y-35463D01*
X94410Y-35450D01*
X94478Y-35440D01*
X94546Y-35435D01*
X94615Y-35433D01*
X109855Y-35433D01*
X99902Y-46224D02*
X99012Y-45334D01*
X97233Y-45334D01*
X96343Y-46224D01*
X96343Y-49783D01*
X97233Y-50673D01*
X99012Y-50673D01*
X99902Y-49783D01*
X101956Y-50673D02*
X105515Y-50673D01*
X101956Y-50673D02*
X105515Y-47114D01*
X105515Y-46224D01*
X104625Y-45334D01*
X102846Y-45334D01*
X101956Y-46224D01*
X101219Y-3175D02*
X101217Y-3106D01*
X101212Y-3038D01*
X101202Y-2970D01*
X101189Y-2902D01*
X101173Y-2835D01*
X101153Y-2769D01*
X101129Y-2705D01*
X101102Y-2642D01*
X101071Y-2580D01*
X101037Y-2520D01*
X101000Y-2462D01*
X100960Y-2406D01*
X100917Y-2353D01*
X100871Y-2302D01*
X100822Y-2253D01*
X100771Y-2207D01*
X100718Y-2164D01*
X100662Y-2124D01*
X100604Y-2087D01*
X100544Y-2053D01*
X100482Y-2022D01*
X100419Y-1995D01*
X100355Y-1971D01*
X100289Y-1951D01*
X100222Y-1935D01*
X100154Y-1922D01*
X100086Y-1912D01*
X100018Y-1907D01*
X99949Y-1905D01*
X101219Y-3175D02*
X101219Y-9525D01*
X101217Y-9594D01*
X101212Y-9662D01*
X101202Y-9730D01*
X101189Y-9798D01*
X101173Y-9865D01*
X101153Y-9931D01*
X101129Y-9995D01*
X101102Y-10058D01*
X101071Y-10120D01*
X101037Y-10180D01*
X101000Y-10238D01*
X100960Y-10294D01*
X100917Y-10347D01*
X100871Y-10398D01*
X100822Y-10447D01*
X100771Y-10493D01*
X100718Y-10536D01*
X100662Y-10576D01*
X100604Y-10613D01*
X100544Y-10647D01*
X100482Y-10678D01*
X100419Y-10705D01*
X100355Y-10729D01*
X100289Y-10749D01*
X100222Y-10765D01*
X100154Y-10778D01*
X100086Y-10788D01*
X100018Y-10793D01*
X99949Y-10795D01*
X84709Y-10795D01*
X84640Y-10793D01*
X84572Y-10788D01*
X84504Y-10778D01*
X84436Y-10765D01*
X84369Y-10749D01*
X84303Y-10729D01*
X84239Y-10705D01*
X84176Y-10678D01*
X84114Y-10647D01*
X84054Y-10613D01*
X83996Y-10576D01*
X83940Y-10536D01*
X83887Y-10493D01*
X83836Y-10447D01*
X83787Y-10398D01*
X83741Y-10347D01*
X83698Y-10294D01*
X83658Y-10238D01*
X83621Y-10180D01*
X83587Y-10120D01*
X83556Y-10058D01*
X83529Y-9995D01*
X83505Y-9931D01*
X83485Y-9865D01*
X83469Y-9798D01*
X83456Y-9730D01*
X83446Y-9662D01*
X83441Y-9594D01*
X83439Y-9525D01*
X83439Y-3175D01*
X83441Y-3106D01*
X83446Y-3038D01*
X83456Y-2970D01*
X83469Y-2902D01*
X83485Y-2835D01*
X83505Y-2769D01*
X83529Y-2705D01*
X83556Y-2642D01*
X83587Y-2580D01*
X83621Y-2520D01*
X83658Y-2462D01*
X83698Y-2406D01*
X83741Y-2353D01*
X83787Y-2302D01*
X83836Y-2253D01*
X83887Y-2207D01*
X83940Y-2164D01*
X83996Y-2124D01*
X84054Y-2087D01*
X84114Y-2053D01*
X84176Y-2022D01*
X84239Y-1995D01*
X84303Y-1971D01*
X84369Y-1951D01*
X84436Y-1935D01*
X84504Y-1922D01*
X84572Y-1912D01*
X84640Y-1907D01*
X84709Y-1905D01*
X99949Y-1905D01*
X105539Y-3297D02*
X106429Y-4187D01*
X105539Y-3297D02*
X103760Y-3297D01*
X102870Y-4187D01*
X102870Y-7746D01*
X103760Y-8636D01*
X105539Y-8636D01*
X106429Y-7746D01*
X108483Y-4187D02*
X109373Y-3297D01*
X111152Y-3297D01*
X112042Y-4187D01*
X112042Y-5077D01*
X111152Y-5967D01*
X110263Y-5967D01*
X111152Y-5967D02*
X112042Y-6857D01*
X112042Y-7746D01*
X111152Y-8636D01*
X109373Y-8636D01*
X108483Y-7746D01*
X125984Y118745D02*
X125982Y118814D01*
X125977Y118882D01*
X125967Y118950D01*
X125954Y119018D01*
X125938Y119085D01*
X125918Y119151D01*
X125894Y119215D01*
X125867Y119278D01*
X125836Y119340D01*
X125802Y119400D01*
X125765Y119458D01*
X125725Y119514D01*
X125682Y119567D01*
X125636Y119618D01*
X125587Y119667D01*
X125536Y119713D01*
X125483Y119756D01*
X125427Y119796D01*
X125369Y119833D01*
X125309Y119867D01*
X125247Y119898D01*
X125184Y119925D01*
X125120Y119949D01*
X125054Y119969D01*
X124987Y119985D01*
X124919Y119998D01*
X124851Y120008D01*
X124783Y120013D01*
X124714Y120015D01*
X125984Y118745D02*
X125984Y112395D01*
X125982Y112326D01*
X125977Y112258D01*
X125967Y112190D01*
X125954Y112122D01*
X125938Y112055D01*
X125918Y111989D01*
X125894Y111925D01*
X125867Y111862D01*
X125836Y111800D01*
X125802Y111740D01*
X125765Y111682D01*
X125725Y111626D01*
X125682Y111573D01*
X125636Y111522D01*
X125587Y111473D01*
X125536Y111427D01*
X125483Y111384D01*
X125427Y111344D01*
X125369Y111307D01*
X125309Y111273D01*
X125247Y111242D01*
X125184Y111215D01*
X125120Y111191D01*
X125054Y111171D01*
X124987Y111155D01*
X124919Y111142D01*
X124851Y111132D01*
X124783Y111127D01*
X124714Y111125D01*
X109474Y111125D01*
X109405Y111127D01*
X109337Y111132D01*
X109269Y111142D01*
X109201Y111155D01*
X109134Y111171D01*
X109068Y111191D01*
X109004Y111215D01*
X108941Y111242D01*
X108879Y111273D01*
X108819Y111307D01*
X108761Y111344D01*
X108705Y111384D01*
X108652Y111427D01*
X108601Y111473D01*
X108552Y111522D01*
X108506Y111573D01*
X108463Y111626D01*
X108423Y111682D01*
X108386Y111740D01*
X108352Y111800D01*
X108321Y111862D01*
X108294Y111925D01*
X108270Y111989D01*
X108250Y112055D01*
X108234Y112122D01*
X108221Y112190D01*
X108211Y112258D01*
X108206Y112326D01*
X108204Y112395D01*
X108204Y118745D01*
X108206Y118814D01*
X108211Y118882D01*
X108221Y118950D01*
X108234Y119018D01*
X108250Y119085D01*
X108270Y119151D01*
X108294Y119215D01*
X108321Y119278D01*
X108352Y119340D01*
X108386Y119400D01*
X108423Y119458D01*
X108463Y119514D01*
X108506Y119567D01*
X108552Y119618D01*
X108601Y119667D01*
X108652Y119713D01*
X108705Y119756D01*
X108761Y119796D01*
X108819Y119833D01*
X108879Y119867D01*
X108941Y119898D01*
X109004Y119925D01*
X109068Y119949D01*
X109134Y119969D01*
X109201Y119985D01*
X109269Y119998D01*
X109337Y120008D01*
X109405Y120013D01*
X109474Y120015D01*
X124714Y120015D01*
X125984Y130175D02*
X125982Y130244D01*
X125977Y130312D01*
X125967Y130380D01*
X125954Y130448D01*
X125938Y130515D01*
X125918Y130581D01*
X125894Y130645D01*
X125867Y130708D01*
X125836Y130770D01*
X125802Y130830D01*
X125765Y130888D01*
X125725Y130944D01*
X125682Y130997D01*
X125636Y131048D01*
X125587Y131097D01*
X125536Y131143D01*
X125483Y131186D01*
X125427Y131226D01*
X125369Y131263D01*
X125309Y131297D01*
X125247Y131328D01*
X125184Y131355D01*
X125120Y131379D01*
X125054Y131399D01*
X124987Y131415D01*
X124919Y131428D01*
X124851Y131438D01*
X124783Y131443D01*
X124714Y131445D01*
X125984Y130175D02*
X125984Y123825D01*
X125982Y123756D01*
X125977Y123688D01*
X125967Y123620D01*
X125954Y123552D01*
X125938Y123485D01*
X125918Y123419D01*
X125894Y123355D01*
X125867Y123292D01*
X125836Y123230D01*
X125802Y123170D01*
X125765Y123112D01*
X125725Y123056D01*
X125682Y123003D01*
X125636Y122952D01*
X125587Y122903D01*
X125536Y122857D01*
X125483Y122814D01*
X125427Y122774D01*
X125369Y122737D01*
X125309Y122703D01*
X125247Y122672D01*
X125184Y122645D01*
X125120Y122621D01*
X125054Y122601D01*
X124987Y122585D01*
X124919Y122572D01*
X124851Y122562D01*
X124783Y122557D01*
X124714Y122555D01*
X109474Y122555D01*
X109405Y122557D01*
X109337Y122562D01*
X109269Y122572D01*
X109201Y122585D01*
X109134Y122601D01*
X109068Y122621D01*
X109004Y122645D01*
X108941Y122672D01*
X108879Y122703D01*
X108819Y122737D01*
X108761Y122774D01*
X108705Y122814D01*
X108652Y122857D01*
X108601Y122903D01*
X108552Y122952D01*
X108506Y123003D01*
X108463Y123056D01*
X108423Y123112D01*
X108386Y123170D01*
X108352Y123230D01*
X108321Y123292D01*
X108294Y123355D01*
X108270Y123419D01*
X108250Y123485D01*
X108234Y123552D01*
X108221Y123620D01*
X108211Y123688D01*
X108206Y123756D01*
X108204Y123825D01*
X108204Y130175D01*
X108206Y130244D01*
X108211Y130312D01*
X108221Y130380D01*
X108234Y130448D01*
X108250Y130515D01*
X108270Y130581D01*
X108294Y130645D01*
X108321Y130708D01*
X108352Y130770D01*
X108386Y130830D01*
X108423Y130888D01*
X108463Y130944D01*
X108506Y130997D01*
X108552Y131048D01*
X108601Y131097D01*
X108652Y131143D01*
X108705Y131186D01*
X108761Y131226D01*
X108819Y131263D01*
X108879Y131297D01*
X108941Y131328D01*
X109004Y131355D01*
X109068Y131379D01*
X109134Y131399D01*
X109201Y131415D01*
X109269Y131428D01*
X109337Y131438D01*
X109405Y131443D01*
X109474Y131445D01*
X124714Y131445D01*
X83439Y66675D02*
X83441Y66606D01*
X83446Y66538D01*
X83456Y66470D01*
X83469Y66402D01*
X83485Y66335D01*
X83505Y66269D01*
X83529Y66205D01*
X83556Y66142D01*
X83587Y66080D01*
X83621Y66020D01*
X83658Y65962D01*
X83698Y65906D01*
X83741Y65853D01*
X83787Y65802D01*
X83836Y65753D01*
X83887Y65707D01*
X83940Y65664D01*
X83996Y65624D01*
X84054Y65587D01*
X84114Y65553D01*
X84176Y65522D01*
X84239Y65495D01*
X84303Y65471D01*
X84369Y65451D01*
X84436Y65435D01*
X84504Y65422D01*
X84572Y65412D01*
X84640Y65407D01*
X84709Y65405D01*
X83439Y66675D02*
X83439Y73025D01*
X83441Y73094D01*
X83446Y73162D01*
X83456Y73230D01*
X83469Y73298D01*
X83485Y73365D01*
X83505Y73431D01*
X83529Y73495D01*
X83556Y73558D01*
X83587Y73620D01*
X83621Y73680D01*
X83658Y73738D01*
X83698Y73794D01*
X83741Y73847D01*
X83787Y73898D01*
X83836Y73947D01*
X83887Y73993D01*
X83940Y74036D01*
X83996Y74076D01*
X84054Y74113D01*
X84114Y74147D01*
X84176Y74178D01*
X84239Y74205D01*
X84303Y74229D01*
X84369Y74249D01*
X84436Y74265D01*
X84504Y74278D01*
X84572Y74288D01*
X84640Y74293D01*
X84709Y74295D01*
X99949Y74295D01*
X100018Y74293D01*
X100086Y74288D01*
X100154Y74278D01*
X100222Y74265D01*
X100289Y74249D01*
X100355Y74229D01*
X100419Y74205D01*
X100482Y74178D01*
X100544Y74147D01*
X100604Y74113D01*
X100662Y74076D01*
X100718Y74036D01*
X100771Y73993D01*
X100822Y73947D01*
X100871Y73898D01*
X100917Y73847D01*
X100960Y73794D01*
X101000Y73738D01*
X101037Y73680D01*
X101071Y73620D01*
X101102Y73558D01*
X101129Y73495D01*
X101153Y73431D01*
X101173Y73365D01*
X101189Y73298D01*
X101202Y73230D01*
X101212Y73162D01*
X101217Y73094D01*
X101219Y73025D01*
X101219Y66675D01*
X101217Y66606D01*
X101212Y66538D01*
X101202Y66470D01*
X101189Y66402D01*
X101173Y66335D01*
X101153Y66269D01*
X101129Y66205D01*
X101102Y66142D01*
X101071Y66080D01*
X101037Y66020D01*
X101000Y65962D01*
X100960Y65906D01*
X100917Y65853D01*
X100871Y65802D01*
X100822Y65753D01*
X100771Y65707D01*
X100718Y65664D01*
X100662Y65624D01*
X100604Y65587D01*
X100544Y65553D01*
X100482Y65522D01*
X100419Y65495D01*
X100355Y65471D01*
X100289Y65451D01*
X100222Y65435D01*
X100154Y65422D01*
X100086Y65412D01*
X100018Y65407D01*
X99949Y65405D01*
X84709Y65405D01*
X105539Y72903D02*
X106429Y72013D01*
X105539Y72903D02*
X103760Y72903D01*
X102870Y72013D01*
X102870Y68454D01*
X103760Y67564D01*
X105539Y67564D01*
X106429Y68454D01*
X110263Y72013D02*
X112042Y72903D01*
X110263Y72013D02*
X108483Y70233D01*
X108483Y68454D01*
X109373Y67564D01*
X111152Y67564D01*
X112042Y68454D01*
X112042Y69344D01*
X111152Y70233D01*
X108483Y70233D01*
X84709Y76835D02*
X84640Y76837D01*
X84572Y76842D01*
X84504Y76852D01*
X84436Y76865D01*
X84369Y76881D01*
X84303Y76901D01*
X84239Y76925D01*
X84176Y76952D01*
X84114Y76983D01*
X84054Y77017D01*
X83996Y77054D01*
X83940Y77094D01*
X83887Y77137D01*
X83836Y77183D01*
X83787Y77232D01*
X83741Y77283D01*
X83698Y77336D01*
X83658Y77392D01*
X83621Y77450D01*
X83587Y77510D01*
X83556Y77572D01*
X83529Y77635D01*
X83505Y77699D01*
X83485Y77765D01*
X83469Y77832D01*
X83456Y77900D01*
X83446Y77968D01*
X83441Y78036D01*
X83439Y78105D01*
X83439Y84455D01*
X83441Y84524D01*
X83446Y84592D01*
X83456Y84660D01*
X83469Y84728D01*
X83485Y84795D01*
X83505Y84861D01*
X83529Y84925D01*
X83556Y84988D01*
X83587Y85050D01*
X83621Y85110D01*
X83658Y85168D01*
X83698Y85224D01*
X83741Y85277D01*
X83787Y85328D01*
X83836Y85377D01*
X83887Y85423D01*
X83940Y85466D01*
X83996Y85506D01*
X84054Y85543D01*
X84114Y85577D01*
X84176Y85608D01*
X84239Y85635D01*
X84303Y85659D01*
X84369Y85679D01*
X84436Y85695D01*
X84504Y85708D01*
X84572Y85718D01*
X84640Y85723D01*
X84709Y85725D01*
X99949Y85725D01*
X100018Y85723D01*
X100086Y85718D01*
X100154Y85708D01*
X100222Y85695D01*
X100289Y85679D01*
X100355Y85659D01*
X100419Y85635D01*
X100482Y85608D01*
X100544Y85577D01*
X100604Y85543D01*
X100662Y85506D01*
X100718Y85466D01*
X100771Y85423D01*
X100822Y85377D01*
X100871Y85328D01*
X100917Y85277D01*
X100960Y85224D01*
X101000Y85168D01*
X101037Y85110D01*
X101071Y85050D01*
X101102Y84988D01*
X101129Y84925D01*
X101153Y84861D01*
X101173Y84795D01*
X101189Y84728D01*
X101202Y84660D01*
X101212Y84592D01*
X101217Y84524D01*
X101219Y84455D01*
X101219Y78105D01*
X101217Y78036D01*
X101212Y77968D01*
X101202Y77900D01*
X101189Y77832D01*
X101173Y77765D01*
X101153Y77699D01*
X101129Y77635D01*
X101102Y77572D01*
X101071Y77510D01*
X101037Y77450D01*
X101000Y77392D01*
X100960Y77336D01*
X100917Y77283D01*
X100871Y77232D01*
X100822Y77183D01*
X100771Y77137D01*
X100718Y77094D01*
X100662Y77054D01*
X100604Y77017D01*
X100544Y76983D01*
X100482Y76952D01*
X100419Y76925D01*
X100355Y76901D01*
X100289Y76881D01*
X100222Y76865D01*
X100154Y76852D01*
X100086Y76842D01*
X100018Y76837D01*
X99949Y76835D01*
X84709Y76835D01*
X105158Y84206D02*
X106048Y83316D01*
X105158Y84206D02*
X103379Y84206D01*
X102489Y83316D01*
X102489Y79757D01*
X103379Y78867D01*
X105158Y78867D01*
X106048Y79757D01*
X108102Y84206D02*
X111661Y84206D01*
X111661Y83316D01*
X108102Y79757D01*
X108102Y78867D01*
X-1524Y-114046D02*
X-1455Y-114048D01*
X-1387Y-114053D01*
X-1319Y-114063D01*
X-1251Y-114076D01*
X-1184Y-114092D01*
X-1118Y-114112D01*
X-1054Y-114136D01*
X-991Y-114163D01*
X-929Y-114194D01*
X-869Y-114228D01*
X-811Y-114265D01*
X-755Y-114305D01*
X-702Y-114348D01*
X-651Y-114394D01*
X-602Y-114443D01*
X-556Y-114494D01*
X-513Y-114547D01*
X-473Y-114603D01*
X-436Y-114661D01*
X-402Y-114721D01*
X-371Y-114783D01*
X-344Y-114846D01*
X-320Y-114910D01*
X-300Y-114976D01*
X-284Y-115043D01*
X-271Y-115111D01*
X-261Y-115179D01*
X-256Y-115247D01*
X-254Y-115316D01*
X-254Y-121666D01*
X-256Y-121735D01*
X-261Y-121803D01*
X-271Y-121871D01*
X-284Y-121939D01*
X-300Y-122006D01*
X-320Y-122072D01*
X-344Y-122136D01*
X-371Y-122199D01*
X-402Y-122261D01*
X-436Y-122321D01*
X-473Y-122379D01*
X-513Y-122435D01*
X-556Y-122488D01*
X-602Y-122539D01*
X-651Y-122588D01*
X-702Y-122634D01*
X-755Y-122677D01*
X-811Y-122717D01*
X-869Y-122754D01*
X-929Y-122788D01*
X-991Y-122819D01*
X-1054Y-122846D01*
X-1118Y-122870D01*
X-1184Y-122890D01*
X-1251Y-122906D01*
X-1319Y-122919D01*
X-1387Y-122929D01*
X-1455Y-122934D01*
X-1524Y-122936D01*
X-14859Y-122936D01*
X-18034Y-119761D01*
X-18034Y-117221D01*
X-14859Y-114046D01*
X-1524Y-114046D01*
X-31292Y-114930D02*
X-31292Y-120269D01*
X-28623Y-120269D01*
X-27733Y-119379D01*
X-27733Y-115820D01*
X-28623Y-114930D01*
X-31292Y-114930D01*
X-25679Y-116710D02*
X-23900Y-114930D01*
X-23900Y-120269D01*
X-25679Y-120269D02*
X-22120Y-120269D01*
X-1651Y-102235D02*
X-1582Y-102237D01*
X-1514Y-102242D01*
X-1446Y-102252D01*
X-1378Y-102265D01*
X-1311Y-102281D01*
X-1245Y-102301D01*
X-1181Y-102325D01*
X-1118Y-102352D01*
X-1056Y-102383D01*
X-996Y-102417D01*
X-938Y-102454D01*
X-882Y-102494D01*
X-829Y-102537D01*
X-778Y-102583D01*
X-729Y-102632D01*
X-683Y-102683D01*
X-640Y-102736D01*
X-600Y-102792D01*
X-563Y-102850D01*
X-529Y-102910D01*
X-498Y-102972D01*
X-471Y-103035D01*
X-447Y-103099D01*
X-427Y-103165D01*
X-411Y-103232D01*
X-398Y-103300D01*
X-388Y-103368D01*
X-383Y-103436D01*
X-381Y-103505D01*
X-381Y-109855D01*
X-383Y-109924D01*
X-388Y-109992D01*
X-398Y-110060D01*
X-411Y-110128D01*
X-427Y-110195D01*
X-447Y-110261D01*
X-471Y-110325D01*
X-498Y-110388D01*
X-529Y-110450D01*
X-563Y-110510D01*
X-600Y-110568D01*
X-640Y-110624D01*
X-683Y-110677D01*
X-729Y-110728D01*
X-778Y-110777D01*
X-829Y-110823D01*
X-882Y-110866D01*
X-938Y-110906D01*
X-996Y-110943D01*
X-1056Y-110977D01*
X-1118Y-111008D01*
X-1181Y-111035D01*
X-1245Y-111059D01*
X-1311Y-111079D01*
X-1378Y-111095D01*
X-1446Y-111108D01*
X-1514Y-111118D01*
X-1582Y-111123D01*
X-1651Y-111125D01*
X-14986Y-111125D01*
X-18161Y-107950D01*
X-18161Y-105410D01*
X-14986Y-102235D01*
X-1651Y-102235D01*
X-31419Y-104008D02*
X-31419Y-109347D01*
X-28750Y-109347D01*
X-27860Y-108457D01*
X-27860Y-104898D01*
X-28750Y-104008D01*
X-31419Y-104008D01*
X-25806Y-109347D02*
X-22247Y-109347D01*
X-25806Y-109347D02*
X-22247Y-105788D01*
X-22247Y-104898D01*
X-23137Y-104008D01*
X-24916Y-104008D01*
X-25806Y-104898D01*
D13*
X-125109Y-63286D02*
X-125109Y-52286D01*
X-125109Y47714D02*
X-125109Y58714D01*
X-202109Y-36286D02*
X-202109Y-63286D01*
X-202109Y31714D02*
X-202109Y58714D01*
X-125109Y-63286D02*
X-110109Y-63286D01*
X-110109Y-52286D01*
X-125109Y-52286D01*
X-125109Y47714D01*
X-110109Y47714D01*
X-110109Y58714D01*
X-125109Y58714D01*
X-125109Y-63286D02*
X-164759Y-63286D01*
X-164759Y58714D02*
X-125109Y58714D01*
X-192109Y-36286D02*
X-202109Y-36286D01*
X-192109Y-36286D02*
X-192109Y31714D01*
X-202109Y31714D01*
D10*
X-172720Y-8635D02*
X-173610Y-9525D01*
X-172720Y-8635D02*
X-172720Y-7746D01*
X-173610Y-6856D01*
X-178059Y-6856D01*
X-178059Y-7746D02*
X-178059Y-5966D01*
X-176279Y-3912D02*
X-178059Y-2132D01*
X-172720Y-2132D01*
X-172720Y-353D02*
X-172720Y-3912D01*
D14*
X-134366Y101600D02*
X-130556Y101600D01*
X-117856Y105410D02*
X-117856Y114300D01*
X-125476Y114300D01*
X-139446Y114300D02*
X-147066Y114300D01*
X-147066Y105410D01*
D10*
X-159004Y108967D02*
X-159004Y112526D01*
X-158114Y113416D01*
X-156335Y113416D01*
X-155445Y112526D01*
X-155445Y108967D01*
X-156335Y108077D01*
X-158114Y108077D01*
X-159004Y108967D01*
X-157225Y109857D02*
X-155445Y108077D01*
X-153391Y111636D02*
X-151611Y113416D01*
X-151611Y108077D01*
X-149832Y108077D02*
X-153391Y108077D01*
D14*
X-94996Y101600D02*
X-91186Y101600D01*
X-78486Y105410D02*
X-78486Y114300D01*
X-86106Y114300D01*
X-100076Y114300D02*
X-107696Y114300D01*
X-107696Y105410D01*
D10*
X-75819Y108967D02*
X-75819Y112526D01*
X-74929Y113416D01*
X-73150Y113416D01*
X-72260Y112526D01*
X-72260Y108967D01*
X-73150Y108077D01*
X-74929Y108077D01*
X-75819Y108967D01*
X-74040Y109857D02*
X-72260Y108077D01*
X-70206Y108077D02*
X-66647Y108077D01*
X-70206Y108077D02*
X-66647Y111636D01*
X-66647Y112526D01*
X-67537Y113416D01*
X-69316Y113416D01*
X-70206Y112526D01*
X-121539Y136144D02*
X-121541Y136213D01*
X-121546Y136281D01*
X-121556Y136349D01*
X-121569Y136417D01*
X-121585Y136484D01*
X-121605Y136550D01*
X-121629Y136614D01*
X-121656Y136677D01*
X-121687Y136739D01*
X-121721Y136799D01*
X-121758Y136857D01*
X-121798Y136913D01*
X-121841Y136966D01*
X-121887Y137017D01*
X-121936Y137066D01*
X-121987Y137112D01*
X-122040Y137155D01*
X-122096Y137195D01*
X-122154Y137232D01*
X-122214Y137266D01*
X-122276Y137297D01*
X-122339Y137324D01*
X-122403Y137348D01*
X-122469Y137368D01*
X-122536Y137384D01*
X-122604Y137397D01*
X-122672Y137407D01*
X-122740Y137412D01*
X-122809Y137414D01*
X-121539Y136144D02*
X-121539Y129794D01*
X-121541Y129725D01*
X-121546Y129657D01*
X-121556Y129589D01*
X-121569Y129521D01*
X-121585Y129454D01*
X-121605Y129388D01*
X-121629Y129324D01*
X-121656Y129261D01*
X-121687Y129199D01*
X-121721Y129139D01*
X-121758Y129081D01*
X-121798Y129025D01*
X-121841Y128972D01*
X-121887Y128921D01*
X-121936Y128872D01*
X-121987Y128826D01*
X-122040Y128783D01*
X-122096Y128743D01*
X-122154Y128706D01*
X-122214Y128672D01*
X-122276Y128641D01*
X-122339Y128614D01*
X-122403Y128590D01*
X-122469Y128570D01*
X-122536Y128554D01*
X-122604Y128541D01*
X-122672Y128531D01*
X-122740Y128526D01*
X-122809Y128524D01*
X-138049Y128524D01*
X-138118Y128526D01*
X-138186Y128531D01*
X-138254Y128541D01*
X-138322Y128554D01*
X-138389Y128570D01*
X-138455Y128590D01*
X-138519Y128614D01*
X-138582Y128641D01*
X-138644Y128672D01*
X-138704Y128706D01*
X-138762Y128743D01*
X-138818Y128783D01*
X-138871Y128826D01*
X-138922Y128872D01*
X-138971Y128921D01*
X-139017Y128972D01*
X-139060Y129025D01*
X-139100Y129081D01*
X-139137Y129139D01*
X-139171Y129199D01*
X-139202Y129261D01*
X-139229Y129324D01*
X-139253Y129388D01*
X-139273Y129454D01*
X-139289Y129521D01*
X-139302Y129589D01*
X-139312Y129657D01*
X-139317Y129725D01*
X-139319Y129794D01*
X-139319Y136144D01*
X-139317Y136213D01*
X-139312Y136281D01*
X-139302Y136349D01*
X-139289Y136417D01*
X-139273Y136484D01*
X-139253Y136550D01*
X-139229Y136614D01*
X-139202Y136677D01*
X-139171Y136739D01*
X-139137Y136799D01*
X-139100Y136857D01*
X-139060Y136913D01*
X-139017Y136966D01*
X-138971Y137017D01*
X-138922Y137066D01*
X-138871Y137112D01*
X-138818Y137155D01*
X-138762Y137195D01*
X-138704Y137232D01*
X-138644Y137266D01*
X-138582Y137297D01*
X-138519Y137324D01*
X-138455Y137348D01*
X-138389Y137368D01*
X-138322Y137384D01*
X-138254Y137397D01*
X-138186Y137407D01*
X-138118Y137412D01*
X-138049Y137414D01*
X-122809Y137414D01*
X-120777Y136530D02*
X-120777Y131191D01*
X-120777Y136530D02*
X-118108Y136530D01*
X-117218Y135640D01*
X-117218Y133860D01*
X-118108Y132971D01*
X-120777Y132971D01*
X-118998Y132971D02*
X-117218Y131191D01*
X-115164Y134750D02*
X-113384Y136530D01*
X-113384Y131191D01*
X-111605Y131191D02*
X-115164Y131191D01*
X4826Y-121666D02*
X4828Y-121735D01*
X4833Y-121803D01*
X4843Y-121871D01*
X4856Y-121939D01*
X4872Y-122006D01*
X4892Y-122072D01*
X4916Y-122136D01*
X4943Y-122199D01*
X4974Y-122261D01*
X5008Y-122321D01*
X5045Y-122379D01*
X5085Y-122435D01*
X5128Y-122488D01*
X5174Y-122539D01*
X5223Y-122588D01*
X5274Y-122634D01*
X5327Y-122677D01*
X5383Y-122717D01*
X5441Y-122754D01*
X5501Y-122788D01*
X5563Y-122819D01*
X5626Y-122846D01*
X5690Y-122870D01*
X5756Y-122890D01*
X5823Y-122906D01*
X5891Y-122919D01*
X5959Y-122929D01*
X6027Y-122934D01*
X6096Y-122936D01*
X4826Y-121666D02*
X4826Y-115316D01*
X4828Y-115247D01*
X4833Y-115179D01*
X4843Y-115111D01*
X4856Y-115043D01*
X4872Y-114976D01*
X4892Y-114910D01*
X4916Y-114846D01*
X4943Y-114783D01*
X4974Y-114721D01*
X5008Y-114661D01*
X5045Y-114603D01*
X5085Y-114547D01*
X5128Y-114494D01*
X5174Y-114443D01*
X5223Y-114394D01*
X5274Y-114348D01*
X5327Y-114305D01*
X5383Y-114265D01*
X5441Y-114228D01*
X5501Y-114194D01*
X5563Y-114163D01*
X5626Y-114136D01*
X5690Y-114112D01*
X5756Y-114092D01*
X5823Y-114076D01*
X5891Y-114063D01*
X5959Y-114053D01*
X6027Y-114048D01*
X6096Y-114046D01*
X21336Y-114046D01*
X21405Y-114048D01*
X21473Y-114053D01*
X21541Y-114063D01*
X21609Y-114076D01*
X21676Y-114092D01*
X21742Y-114112D01*
X21806Y-114136D01*
X21869Y-114163D01*
X21931Y-114194D01*
X21991Y-114228D01*
X22049Y-114265D01*
X22105Y-114305D01*
X22158Y-114348D01*
X22209Y-114394D01*
X22258Y-114443D01*
X22304Y-114494D01*
X22347Y-114547D01*
X22387Y-114603D01*
X22424Y-114661D01*
X22458Y-114721D01*
X22489Y-114783D01*
X22516Y-114846D01*
X22540Y-114910D01*
X22560Y-114976D01*
X22576Y-115043D01*
X22589Y-115111D01*
X22599Y-115179D01*
X22604Y-115247D01*
X22606Y-115316D01*
X22606Y-121666D01*
X22604Y-121735D01*
X22599Y-121803D01*
X22589Y-121871D01*
X22576Y-121939D01*
X22560Y-122006D01*
X22540Y-122072D01*
X22516Y-122136D01*
X22489Y-122199D01*
X22458Y-122261D01*
X22424Y-122321D01*
X22387Y-122379D01*
X22347Y-122435D01*
X22304Y-122488D01*
X22258Y-122539D01*
X22209Y-122588D01*
X22158Y-122634D01*
X22105Y-122677D01*
X22049Y-122717D01*
X21991Y-122754D01*
X21931Y-122788D01*
X21869Y-122819D01*
X21806Y-122846D01*
X21742Y-122870D01*
X21676Y-122890D01*
X21609Y-122906D01*
X21541Y-122919D01*
X21473Y-122929D01*
X21405Y-122934D01*
X21336Y-122936D01*
X6096Y-122936D01*
X24130Y-120523D02*
X24130Y-115184D01*
X26799Y-115184D01*
X27689Y-116074D01*
X27689Y-117854D01*
X26799Y-118744D01*
X24130Y-118744D01*
X25910Y-118744D02*
X27689Y-120523D01*
X29743Y-116964D02*
X31523Y-115184D01*
X31523Y-120523D01*
X33302Y-120523D02*
X29743Y-120523D01*
X35356Y-116964D02*
X37136Y-115184D01*
X37136Y-120523D01*
X38915Y-120523D02*
X35356Y-120523D01*
X101219Y-26035D02*
X101217Y-25966D01*
X101212Y-25898D01*
X101202Y-25830D01*
X101189Y-25762D01*
X101173Y-25695D01*
X101153Y-25629D01*
X101129Y-25565D01*
X101102Y-25502D01*
X101071Y-25440D01*
X101037Y-25380D01*
X101000Y-25322D01*
X100960Y-25266D01*
X100917Y-25213D01*
X100871Y-25162D01*
X100822Y-25113D01*
X100771Y-25067D01*
X100718Y-25024D01*
X100662Y-24984D01*
X100604Y-24947D01*
X100544Y-24913D01*
X100482Y-24882D01*
X100419Y-24855D01*
X100355Y-24831D01*
X100289Y-24811D01*
X100222Y-24795D01*
X100154Y-24782D01*
X100086Y-24772D01*
X100018Y-24767D01*
X99949Y-24765D01*
X101219Y-26035D02*
X101219Y-32385D01*
X101217Y-32454D01*
X101212Y-32522D01*
X101202Y-32590D01*
X101189Y-32658D01*
X101173Y-32725D01*
X101153Y-32791D01*
X101129Y-32855D01*
X101102Y-32918D01*
X101071Y-32980D01*
X101037Y-33040D01*
X101000Y-33098D01*
X100960Y-33154D01*
X100917Y-33207D01*
X100871Y-33258D01*
X100822Y-33307D01*
X100771Y-33353D01*
X100718Y-33396D01*
X100662Y-33436D01*
X100604Y-33473D01*
X100544Y-33507D01*
X100482Y-33538D01*
X100419Y-33565D01*
X100355Y-33589D01*
X100289Y-33609D01*
X100222Y-33625D01*
X100154Y-33638D01*
X100086Y-33648D01*
X100018Y-33653D01*
X99949Y-33655D01*
X84709Y-33655D01*
X84640Y-33653D01*
X84572Y-33648D01*
X84504Y-33638D01*
X84436Y-33625D01*
X84369Y-33609D01*
X84303Y-33589D01*
X84239Y-33565D01*
X84176Y-33538D01*
X84114Y-33507D01*
X84054Y-33473D01*
X83996Y-33436D01*
X83940Y-33396D01*
X83887Y-33353D01*
X83836Y-33307D01*
X83787Y-33258D01*
X83741Y-33207D01*
X83698Y-33154D01*
X83658Y-33098D01*
X83621Y-33040D01*
X83587Y-32980D01*
X83556Y-32918D01*
X83529Y-32855D01*
X83505Y-32791D01*
X83485Y-32725D01*
X83469Y-32658D01*
X83456Y-32590D01*
X83446Y-32522D01*
X83441Y-32454D01*
X83439Y-32385D01*
X83439Y-26035D01*
X83441Y-25966D01*
X83446Y-25898D01*
X83456Y-25830D01*
X83469Y-25762D01*
X83485Y-25695D01*
X83505Y-25629D01*
X83529Y-25565D01*
X83556Y-25502D01*
X83587Y-25440D01*
X83621Y-25380D01*
X83658Y-25322D01*
X83698Y-25266D01*
X83741Y-25213D01*
X83787Y-25162D01*
X83836Y-25113D01*
X83887Y-25067D01*
X83940Y-25024D01*
X83996Y-24984D01*
X84054Y-24947D01*
X84114Y-24913D01*
X84176Y-24882D01*
X84239Y-24855D01*
X84303Y-24831D01*
X84369Y-24811D01*
X84436Y-24795D01*
X84504Y-24782D01*
X84572Y-24772D01*
X84640Y-24767D01*
X84709Y-24765D01*
X99949Y-24765D01*
X102235Y-26157D02*
X102235Y-31496D01*
X102235Y-26157D02*
X104904Y-26157D01*
X105794Y-27047D01*
X105794Y-28827D01*
X104904Y-29717D01*
X102235Y-29717D01*
X104015Y-29717D02*
X105794Y-31496D01*
X107848Y-27937D02*
X109628Y-26157D01*
X109628Y-31496D01*
X111407Y-31496D02*
X107848Y-31496D01*
X113461Y-31496D02*
X117020Y-31496D01*
X113461Y-31496D02*
X117020Y-27937D01*
X117020Y-27047D01*
X116130Y-26157D01*
X114351Y-26157D01*
X113461Y-27047D01*
X-13716Y74930D02*
X-13785Y74928D01*
X-13853Y74923D01*
X-13921Y74913D01*
X-13989Y74900D01*
X-14056Y74884D01*
X-14122Y74864D01*
X-14186Y74840D01*
X-14249Y74813D01*
X-14311Y74782D01*
X-14371Y74748D01*
X-14429Y74711D01*
X-14485Y74671D01*
X-14538Y74628D01*
X-14589Y74582D01*
X-14638Y74533D01*
X-14684Y74482D01*
X-14727Y74429D01*
X-14767Y74373D01*
X-14804Y74315D01*
X-14838Y74255D01*
X-14869Y74193D01*
X-14896Y74130D01*
X-14920Y74066D01*
X-14940Y74000D01*
X-14956Y73933D01*
X-14969Y73865D01*
X-14979Y73797D01*
X-14984Y73729D01*
X-14986Y73660D01*
X-13716Y74930D02*
X-7366Y74930D01*
X-7297Y74928D01*
X-7229Y74923D01*
X-7161Y74913D01*
X-7093Y74900D01*
X-7026Y74884D01*
X-6960Y74864D01*
X-6896Y74840D01*
X-6833Y74813D01*
X-6771Y74782D01*
X-6711Y74748D01*
X-6653Y74711D01*
X-6597Y74671D01*
X-6544Y74628D01*
X-6493Y74582D01*
X-6444Y74533D01*
X-6398Y74482D01*
X-6355Y74429D01*
X-6315Y74373D01*
X-6278Y74315D01*
X-6244Y74255D01*
X-6213Y74193D01*
X-6186Y74130D01*
X-6162Y74066D01*
X-6142Y74000D01*
X-6126Y73933D01*
X-6113Y73865D01*
X-6103Y73797D01*
X-6098Y73729D01*
X-6096Y73660D01*
X-6096Y58420D01*
X-6098Y58351D01*
X-6103Y58283D01*
X-6113Y58215D01*
X-6126Y58147D01*
X-6142Y58080D01*
X-6162Y58014D01*
X-6186Y57950D01*
X-6213Y57887D01*
X-6244Y57825D01*
X-6278Y57765D01*
X-6315Y57707D01*
X-6355Y57651D01*
X-6398Y57598D01*
X-6444Y57547D01*
X-6493Y57498D01*
X-6544Y57452D01*
X-6597Y57409D01*
X-6653Y57369D01*
X-6711Y57332D01*
X-6771Y57298D01*
X-6833Y57267D01*
X-6896Y57240D01*
X-6960Y57216D01*
X-7026Y57196D01*
X-7093Y57180D01*
X-7161Y57167D01*
X-7229Y57157D01*
X-7297Y57152D01*
X-7366Y57150D01*
X-13716Y57150D01*
X-13785Y57152D01*
X-13853Y57157D01*
X-13921Y57167D01*
X-13989Y57180D01*
X-14056Y57196D01*
X-14122Y57216D01*
X-14186Y57240D01*
X-14249Y57267D01*
X-14311Y57298D01*
X-14371Y57332D01*
X-14429Y57369D01*
X-14485Y57409D01*
X-14538Y57452D01*
X-14589Y57498D01*
X-14638Y57547D01*
X-14684Y57598D01*
X-14727Y57651D01*
X-14767Y57707D01*
X-14804Y57765D01*
X-14838Y57825D01*
X-14869Y57887D01*
X-14896Y57950D01*
X-14920Y58014D01*
X-14940Y58080D01*
X-14956Y58147D01*
X-14969Y58215D01*
X-14979Y58283D01*
X-14984Y58351D01*
X-14986Y58420D01*
X-14986Y73660D01*
X-13086Y58801D02*
X-7747Y58801D01*
X-13086Y58801D02*
X-13086Y61470D01*
X-12196Y62360D01*
X-10416Y62360D01*
X-9527Y61470D01*
X-9527Y58801D01*
X-9527Y60581D02*
X-7747Y62360D01*
X-11306Y64414D02*
X-13086Y66194D01*
X-7747Y66194D01*
X-7747Y67973D02*
X-7747Y64414D01*
X-12196Y70027D02*
X-13086Y70917D01*
X-13086Y72696D01*
X-12196Y73586D01*
X-11306Y73586D01*
X-10416Y72696D01*
X-10416Y71807D01*
X-10416Y72696D02*
X-9527Y73586D01*
X-8637Y73586D01*
X-7747Y72696D01*
X-7747Y70917D01*
X-8637Y70027D01*
X4699Y-109855D02*
X4701Y-109924D01*
X4706Y-109992D01*
X4716Y-110060D01*
X4729Y-110128D01*
X4745Y-110195D01*
X4765Y-110261D01*
X4789Y-110325D01*
X4816Y-110388D01*
X4847Y-110450D01*
X4881Y-110510D01*
X4918Y-110568D01*
X4958Y-110624D01*
X5001Y-110677D01*
X5047Y-110728D01*
X5096Y-110777D01*
X5147Y-110823D01*
X5200Y-110866D01*
X5256Y-110906D01*
X5314Y-110943D01*
X5374Y-110977D01*
X5436Y-111008D01*
X5499Y-111035D01*
X5563Y-111059D01*
X5629Y-111079D01*
X5696Y-111095D01*
X5764Y-111108D01*
X5832Y-111118D01*
X5900Y-111123D01*
X5969Y-111125D01*
X4699Y-109855D02*
X4699Y-103505D01*
X4701Y-103436D01*
X4706Y-103368D01*
X4716Y-103300D01*
X4729Y-103232D01*
X4745Y-103165D01*
X4765Y-103099D01*
X4789Y-103035D01*
X4816Y-102972D01*
X4847Y-102910D01*
X4881Y-102850D01*
X4918Y-102792D01*
X4958Y-102736D01*
X5001Y-102683D01*
X5047Y-102632D01*
X5096Y-102583D01*
X5147Y-102537D01*
X5200Y-102494D01*
X5256Y-102454D01*
X5314Y-102417D01*
X5374Y-102383D01*
X5436Y-102352D01*
X5499Y-102325D01*
X5563Y-102301D01*
X5629Y-102281D01*
X5696Y-102265D01*
X5764Y-102252D01*
X5832Y-102242D01*
X5900Y-102237D01*
X5969Y-102235D01*
X21209Y-102235D01*
X21278Y-102237D01*
X21346Y-102242D01*
X21414Y-102252D01*
X21482Y-102265D01*
X21549Y-102281D01*
X21615Y-102301D01*
X21679Y-102325D01*
X21742Y-102352D01*
X21804Y-102383D01*
X21864Y-102417D01*
X21922Y-102454D01*
X21978Y-102494D01*
X22031Y-102537D01*
X22082Y-102583D01*
X22131Y-102632D01*
X22177Y-102683D01*
X22220Y-102736D01*
X22260Y-102792D01*
X22297Y-102850D01*
X22331Y-102910D01*
X22362Y-102972D01*
X22389Y-103035D01*
X22413Y-103099D01*
X22433Y-103165D01*
X22449Y-103232D01*
X22462Y-103300D01*
X22472Y-103368D01*
X22477Y-103436D01*
X22479Y-103505D01*
X22479Y-109855D01*
X22477Y-109924D01*
X22472Y-109992D01*
X22462Y-110060D01*
X22449Y-110128D01*
X22433Y-110195D01*
X22413Y-110261D01*
X22389Y-110325D01*
X22362Y-110388D01*
X22331Y-110450D01*
X22297Y-110510D01*
X22260Y-110568D01*
X22220Y-110624D01*
X22177Y-110677D01*
X22131Y-110728D01*
X22082Y-110777D01*
X22031Y-110823D01*
X21978Y-110866D01*
X21922Y-110906D01*
X21864Y-110943D01*
X21804Y-110977D01*
X21742Y-111008D01*
X21679Y-111035D01*
X21615Y-111059D01*
X21549Y-111079D01*
X21482Y-111095D01*
X21414Y-111108D01*
X21346Y-111118D01*
X21278Y-111123D01*
X21209Y-111125D01*
X5969Y-111125D01*
X23876Y-108966D02*
X23876Y-103627D01*
X26545Y-103627D01*
X27435Y-104517D01*
X27435Y-106297D01*
X26545Y-107187D01*
X23876Y-107187D01*
X25656Y-107187D02*
X27435Y-108966D01*
X29489Y-105407D02*
X31269Y-103627D01*
X31269Y-108966D01*
X33048Y-108966D02*
X29489Y-108966D01*
X35102Y-103627D02*
X38661Y-103627D01*
X35102Y-103627D02*
X35102Y-106297D01*
X36882Y-105407D01*
X37771Y-105407D01*
X38661Y-106297D01*
X38661Y-108076D01*
X37771Y-108966D01*
X35992Y-108966D01*
X35102Y-108076D01*
X-138811Y74295D02*
X-138880Y74297D01*
X-138948Y74302D01*
X-139016Y74312D01*
X-139084Y74325D01*
X-139151Y74341D01*
X-139217Y74361D01*
X-139281Y74385D01*
X-139344Y74412D01*
X-139406Y74443D01*
X-139466Y74477D01*
X-139524Y74514D01*
X-139580Y74554D01*
X-139633Y74597D01*
X-139684Y74643D01*
X-139733Y74692D01*
X-139779Y74743D01*
X-139822Y74796D01*
X-139862Y74852D01*
X-139899Y74910D01*
X-139933Y74970D01*
X-139964Y75032D01*
X-139991Y75095D01*
X-140015Y75159D01*
X-140035Y75225D01*
X-140051Y75292D01*
X-140064Y75360D01*
X-140074Y75428D01*
X-140079Y75496D01*
X-140081Y75565D01*
X-140081Y81915D01*
X-140079Y81984D01*
X-140074Y82052D01*
X-140064Y82120D01*
X-140051Y82188D01*
X-140035Y82255D01*
X-140015Y82321D01*
X-139991Y82385D01*
X-139964Y82448D01*
X-139933Y82510D01*
X-139899Y82570D01*
X-139862Y82628D01*
X-139822Y82684D01*
X-139779Y82737D01*
X-139733Y82788D01*
X-139684Y82837D01*
X-139633Y82883D01*
X-139580Y82926D01*
X-139524Y82966D01*
X-139466Y83003D01*
X-139406Y83037D01*
X-139344Y83068D01*
X-139281Y83095D01*
X-139217Y83119D01*
X-139151Y83139D01*
X-139084Y83155D01*
X-139016Y83168D01*
X-138948Y83178D01*
X-138880Y83183D01*
X-138811Y83185D01*
X-123571Y83185D01*
X-123502Y83183D01*
X-123434Y83178D01*
X-123366Y83168D01*
X-123298Y83155D01*
X-123231Y83139D01*
X-123165Y83119D01*
X-123101Y83095D01*
X-123038Y83068D01*
X-122976Y83037D01*
X-122916Y83003D01*
X-122858Y82966D01*
X-122802Y82926D01*
X-122749Y82883D01*
X-122698Y82837D01*
X-122649Y82788D01*
X-122603Y82737D01*
X-122560Y82684D01*
X-122520Y82628D01*
X-122483Y82570D01*
X-122449Y82510D01*
X-122418Y82448D01*
X-122391Y82385D01*
X-122367Y82321D01*
X-122347Y82255D01*
X-122331Y82188D01*
X-122318Y82120D01*
X-122308Y82052D01*
X-122303Y81984D01*
X-122301Y81915D01*
X-122301Y75565D01*
X-122303Y75496D01*
X-122308Y75428D01*
X-122318Y75360D01*
X-122331Y75292D01*
X-122347Y75225D01*
X-122367Y75159D01*
X-122391Y75095D01*
X-122418Y75032D01*
X-122449Y74970D01*
X-122483Y74910D01*
X-122520Y74852D01*
X-122560Y74796D01*
X-122603Y74743D01*
X-122649Y74692D01*
X-122698Y74643D01*
X-122749Y74597D01*
X-122802Y74554D01*
X-122858Y74514D01*
X-122916Y74477D01*
X-122976Y74443D01*
X-123038Y74412D01*
X-123101Y74385D01*
X-123165Y74361D01*
X-123231Y74341D01*
X-123298Y74325D01*
X-123366Y74312D01*
X-123434Y74302D01*
X-123502Y74297D01*
X-123571Y74295D01*
X-138811Y74295D01*
X-151942Y75438D02*
X-151942Y80777D01*
X-149273Y80777D01*
X-148383Y79887D01*
X-148383Y78107D01*
X-149273Y77218D01*
X-151942Y77218D01*
X-150163Y77218D02*
X-148383Y75438D01*
X-146329Y75438D02*
X-142770Y75438D01*
X-146329Y75438D02*
X-142770Y78997D01*
X-142770Y79887D01*
X-143660Y80777D01*
X-145439Y80777D01*
X-146329Y79887D01*
X-84582Y137287D02*
X-84513Y137285D01*
X-84445Y137280D01*
X-84377Y137270D01*
X-84309Y137257D01*
X-84242Y137241D01*
X-84176Y137221D01*
X-84112Y137197D01*
X-84049Y137170D01*
X-83987Y137139D01*
X-83927Y137105D01*
X-83869Y137068D01*
X-83813Y137028D01*
X-83760Y136985D01*
X-83709Y136939D01*
X-83660Y136890D01*
X-83614Y136839D01*
X-83571Y136786D01*
X-83531Y136730D01*
X-83494Y136672D01*
X-83460Y136612D01*
X-83429Y136550D01*
X-83402Y136487D01*
X-83378Y136423D01*
X-83358Y136357D01*
X-83342Y136290D01*
X-83329Y136222D01*
X-83319Y136154D01*
X-83314Y136086D01*
X-83312Y136017D01*
X-83312Y129667D01*
X-83314Y129598D01*
X-83319Y129530D01*
X-83329Y129462D01*
X-83342Y129394D01*
X-83358Y129327D01*
X-83378Y129261D01*
X-83402Y129197D01*
X-83429Y129134D01*
X-83460Y129072D01*
X-83494Y129012D01*
X-83531Y128954D01*
X-83571Y128898D01*
X-83614Y128845D01*
X-83660Y128794D01*
X-83709Y128745D01*
X-83760Y128699D01*
X-83813Y128656D01*
X-83869Y128616D01*
X-83927Y128579D01*
X-83987Y128545D01*
X-84049Y128514D01*
X-84112Y128487D01*
X-84176Y128463D01*
X-84242Y128443D01*
X-84309Y128427D01*
X-84377Y128414D01*
X-84445Y128404D01*
X-84513Y128399D01*
X-84582Y128397D01*
X-99822Y128397D01*
X-99891Y128399D01*
X-99959Y128404D01*
X-100027Y128414D01*
X-100095Y128427D01*
X-100162Y128443D01*
X-100228Y128463D01*
X-100292Y128487D01*
X-100355Y128514D01*
X-100417Y128545D01*
X-100477Y128579D01*
X-100535Y128616D01*
X-100591Y128656D01*
X-100644Y128699D01*
X-100695Y128745D01*
X-100744Y128794D01*
X-100790Y128845D01*
X-100833Y128898D01*
X-100873Y128954D01*
X-100910Y129012D01*
X-100944Y129072D01*
X-100975Y129134D01*
X-101002Y129197D01*
X-101026Y129261D01*
X-101046Y129327D01*
X-101062Y129394D01*
X-101075Y129462D01*
X-101085Y129530D01*
X-101090Y129598D01*
X-101092Y129667D01*
X-101092Y136017D01*
X-101090Y136086D01*
X-101085Y136154D01*
X-101075Y136222D01*
X-101062Y136290D01*
X-101046Y136357D01*
X-101026Y136423D01*
X-101002Y136487D01*
X-100975Y136550D01*
X-100944Y136612D01*
X-100910Y136672D01*
X-100873Y136730D01*
X-100833Y136786D01*
X-100790Y136839D01*
X-100744Y136890D01*
X-100695Y136939D01*
X-100644Y136985D01*
X-100591Y137028D01*
X-100535Y137068D01*
X-100477Y137105D01*
X-100417Y137139D01*
X-100355Y137170D01*
X-100292Y137197D01*
X-100228Y137221D01*
X-100162Y137241D01*
X-100095Y137257D01*
X-100027Y137270D01*
X-99959Y137280D01*
X-99891Y137285D01*
X-99822Y137287D01*
X-84582Y137287D01*
X-82296Y136403D02*
X-82296Y131064D01*
X-82296Y136403D02*
X-79627Y136403D01*
X-78737Y135513D01*
X-78737Y133733D01*
X-79627Y132844D01*
X-82296Y132844D01*
X-80517Y132844D02*
X-78737Y131064D01*
X-76683Y135513D02*
X-75793Y136403D01*
X-74014Y136403D01*
X-73124Y135513D01*
X-73124Y134623D01*
X-74014Y133733D01*
X-74903Y133733D01*
X-74014Y133733D02*
X-73124Y132844D01*
X-73124Y131954D01*
X-74014Y131064D01*
X-75793Y131064D01*
X-76683Y131954D01*
X83439Y4953D02*
X83441Y4884D01*
X83446Y4816D01*
X83456Y4748D01*
X83469Y4680D01*
X83485Y4613D01*
X83505Y4547D01*
X83529Y4483D01*
X83556Y4420D01*
X83587Y4358D01*
X83621Y4298D01*
X83658Y4240D01*
X83698Y4184D01*
X83741Y4131D01*
X83787Y4080D01*
X83836Y4031D01*
X83887Y3985D01*
X83940Y3942D01*
X83996Y3902D01*
X84054Y3865D01*
X84114Y3831D01*
X84176Y3800D01*
X84239Y3773D01*
X84303Y3749D01*
X84369Y3729D01*
X84436Y3713D01*
X84504Y3700D01*
X84572Y3690D01*
X84640Y3685D01*
X84709Y3683D01*
X83439Y4953D02*
X83439Y11303D01*
X83441Y11372D01*
X83446Y11440D01*
X83456Y11508D01*
X83469Y11576D01*
X83485Y11643D01*
X83505Y11709D01*
X83529Y11773D01*
X83556Y11836D01*
X83587Y11898D01*
X83621Y11958D01*
X83658Y12016D01*
X83698Y12072D01*
X83741Y12125D01*
X83787Y12176D01*
X83836Y12225D01*
X83887Y12271D01*
X83940Y12314D01*
X83996Y12354D01*
X84054Y12391D01*
X84114Y12425D01*
X84176Y12456D01*
X84239Y12483D01*
X84303Y12507D01*
X84369Y12527D01*
X84436Y12543D01*
X84504Y12556D01*
X84572Y12566D01*
X84640Y12571D01*
X84709Y12573D01*
X99949Y12573D01*
X100018Y12571D01*
X100086Y12566D01*
X100154Y12556D01*
X100222Y12543D01*
X100289Y12527D01*
X100355Y12507D01*
X100419Y12483D01*
X100482Y12456D01*
X100544Y12425D01*
X100604Y12391D01*
X100662Y12354D01*
X100718Y12314D01*
X100771Y12271D01*
X100822Y12225D01*
X100871Y12176D01*
X100917Y12125D01*
X100960Y12072D01*
X101000Y12016D01*
X101037Y11958D01*
X101071Y11898D01*
X101102Y11836D01*
X101129Y11773D01*
X101153Y11709D01*
X101173Y11643D01*
X101189Y11576D01*
X101202Y11508D01*
X101212Y11440D01*
X101217Y11372D01*
X101219Y11303D01*
X101219Y4953D01*
X101217Y4884D01*
X101212Y4816D01*
X101202Y4748D01*
X101189Y4680D01*
X101173Y4613D01*
X101153Y4547D01*
X101129Y4483D01*
X101102Y4420D01*
X101071Y4358D01*
X101037Y4298D01*
X101000Y4240D01*
X100960Y4184D01*
X100917Y4131D01*
X100871Y4080D01*
X100822Y4031D01*
X100771Y3985D01*
X100718Y3942D01*
X100662Y3902D01*
X100604Y3865D01*
X100544Y3831D01*
X100482Y3800D01*
X100419Y3773D01*
X100355Y3749D01*
X100289Y3729D01*
X100222Y3713D01*
X100154Y3700D01*
X100086Y3690D01*
X100018Y3685D01*
X99949Y3683D01*
X84709Y3683D01*
X102743Y5969D02*
X102743Y11308D01*
X105412Y11308D01*
X106302Y10418D01*
X106302Y8638D01*
X105412Y7749D01*
X102743Y7749D01*
X104523Y7749D02*
X106302Y5969D01*
X111025Y5969D02*
X111025Y11308D01*
X108356Y8638D01*
X111915Y8638D01*
X-86741Y81915D02*
X-86743Y81984D01*
X-86748Y82052D01*
X-86758Y82120D01*
X-86771Y82188D01*
X-86787Y82255D01*
X-86807Y82321D01*
X-86831Y82385D01*
X-86858Y82448D01*
X-86889Y82510D01*
X-86923Y82570D01*
X-86960Y82628D01*
X-87000Y82684D01*
X-87043Y82737D01*
X-87089Y82788D01*
X-87138Y82837D01*
X-87189Y82883D01*
X-87242Y82926D01*
X-87298Y82966D01*
X-87356Y83003D01*
X-87416Y83037D01*
X-87478Y83068D01*
X-87541Y83095D01*
X-87605Y83119D01*
X-87671Y83139D01*
X-87738Y83155D01*
X-87806Y83168D01*
X-87874Y83178D01*
X-87942Y83183D01*
X-88011Y83185D01*
X-86741Y81915D02*
X-86741Y75565D01*
X-86743Y75496D01*
X-86748Y75428D01*
X-86758Y75360D01*
X-86771Y75292D01*
X-86787Y75225D01*
X-86807Y75159D01*
X-86831Y75095D01*
X-86858Y75032D01*
X-86889Y74970D01*
X-86923Y74910D01*
X-86960Y74852D01*
X-87000Y74796D01*
X-87043Y74743D01*
X-87089Y74692D01*
X-87138Y74643D01*
X-87189Y74597D01*
X-87242Y74554D01*
X-87298Y74514D01*
X-87356Y74477D01*
X-87416Y74443D01*
X-87478Y74412D01*
X-87541Y74385D01*
X-87605Y74361D01*
X-87671Y74341D01*
X-87738Y74325D01*
X-87806Y74312D01*
X-87874Y74302D01*
X-87942Y74297D01*
X-88011Y74295D01*
X-103251Y74295D01*
X-103320Y74297D01*
X-103388Y74302D01*
X-103456Y74312D01*
X-103524Y74325D01*
X-103591Y74341D01*
X-103657Y74361D01*
X-103721Y74385D01*
X-103784Y74412D01*
X-103846Y74443D01*
X-103906Y74477D01*
X-103964Y74514D01*
X-104020Y74554D01*
X-104073Y74597D01*
X-104124Y74643D01*
X-104173Y74692D01*
X-104219Y74743D01*
X-104262Y74796D01*
X-104302Y74852D01*
X-104339Y74910D01*
X-104373Y74970D01*
X-104404Y75032D01*
X-104431Y75095D01*
X-104455Y75159D01*
X-104475Y75225D01*
X-104491Y75292D01*
X-104504Y75360D01*
X-104514Y75428D01*
X-104519Y75496D01*
X-104521Y75565D01*
X-104521Y81915D01*
X-104519Y81984D01*
X-104514Y82052D01*
X-104504Y82120D01*
X-104491Y82188D01*
X-104475Y82255D01*
X-104455Y82321D01*
X-104431Y82385D01*
X-104404Y82448D01*
X-104373Y82510D01*
X-104339Y82570D01*
X-104302Y82628D01*
X-104262Y82684D01*
X-104219Y82737D01*
X-104173Y82788D01*
X-104124Y82837D01*
X-104073Y82883D01*
X-104020Y82926D01*
X-103964Y82966D01*
X-103906Y83003D01*
X-103846Y83037D01*
X-103784Y83068D01*
X-103721Y83095D01*
X-103657Y83119D01*
X-103591Y83139D01*
X-103524Y83155D01*
X-103456Y83168D01*
X-103388Y83178D01*
X-103320Y83183D01*
X-103251Y83185D01*
X-88011Y83185D01*
X-85344Y81920D02*
X-85344Y76581D01*
X-85344Y81920D02*
X-82675Y81920D01*
X-81785Y81030D01*
X-81785Y79250D01*
X-82675Y78361D01*
X-85344Y78361D01*
X-83565Y78361D02*
X-81785Y76581D01*
X-79731Y81920D02*
X-76172Y81920D01*
X-79731Y81920D02*
X-79731Y79250D01*
X-77951Y80140D01*
X-77062Y80140D01*
X-76172Y79250D01*
X-76172Y77471D01*
X-77062Y76581D01*
X-78841Y76581D01*
X-79731Y77471D01*
X19812Y-97790D02*
X19810Y-97859D01*
X19805Y-97927D01*
X19795Y-97995D01*
X19782Y-98063D01*
X19766Y-98130D01*
X19746Y-98196D01*
X19722Y-98260D01*
X19695Y-98323D01*
X19664Y-98385D01*
X19630Y-98445D01*
X19593Y-98503D01*
X19553Y-98559D01*
X19510Y-98612D01*
X19464Y-98663D01*
X19415Y-98712D01*
X19364Y-98758D01*
X19311Y-98801D01*
X19255Y-98841D01*
X19197Y-98878D01*
X19137Y-98912D01*
X19075Y-98943D01*
X19012Y-98970D01*
X18948Y-98994D01*
X18882Y-99014D01*
X18815Y-99030D01*
X18747Y-99043D01*
X18679Y-99053D01*
X18611Y-99058D01*
X18542Y-99060D01*
X12192Y-99060D01*
X12123Y-99058D01*
X12055Y-99053D01*
X11987Y-99043D01*
X11919Y-99030D01*
X11852Y-99014D01*
X11786Y-98994D01*
X11722Y-98970D01*
X11659Y-98943D01*
X11597Y-98912D01*
X11537Y-98878D01*
X11479Y-98841D01*
X11423Y-98801D01*
X11370Y-98758D01*
X11319Y-98712D01*
X11270Y-98663D01*
X11224Y-98612D01*
X11181Y-98559D01*
X11141Y-98503D01*
X11104Y-98445D01*
X11070Y-98385D01*
X11039Y-98323D01*
X11012Y-98260D01*
X10988Y-98196D01*
X10968Y-98130D01*
X10952Y-98063D01*
X10939Y-97995D01*
X10929Y-97927D01*
X10924Y-97859D01*
X10922Y-97790D01*
X10922Y-82550D01*
X10924Y-82481D01*
X10929Y-82413D01*
X10939Y-82345D01*
X10952Y-82277D01*
X10968Y-82210D01*
X10988Y-82144D01*
X11012Y-82080D01*
X11039Y-82017D01*
X11070Y-81955D01*
X11104Y-81895D01*
X11141Y-81837D01*
X11181Y-81781D01*
X11224Y-81728D01*
X11270Y-81677D01*
X11319Y-81628D01*
X11370Y-81582D01*
X11423Y-81539D01*
X11479Y-81499D01*
X11537Y-81462D01*
X11597Y-81428D01*
X11659Y-81397D01*
X11722Y-81370D01*
X11786Y-81346D01*
X11852Y-81326D01*
X11919Y-81310D01*
X11987Y-81297D01*
X12055Y-81287D01*
X12123Y-81282D01*
X12192Y-81280D01*
X18542Y-81280D01*
X18611Y-81282D01*
X18679Y-81287D01*
X18747Y-81297D01*
X18815Y-81310D01*
X18882Y-81326D01*
X18948Y-81346D01*
X19012Y-81370D01*
X19075Y-81397D01*
X19137Y-81428D01*
X19197Y-81462D01*
X19255Y-81499D01*
X19311Y-81539D01*
X19364Y-81582D01*
X19415Y-81628D01*
X19464Y-81677D01*
X19510Y-81728D01*
X19553Y-81781D01*
X19593Y-81837D01*
X19630Y-81895D01*
X19664Y-81955D01*
X19695Y-82017D01*
X19722Y-82080D01*
X19746Y-82144D01*
X19766Y-82210D01*
X19782Y-82277D01*
X19795Y-82345D01*
X19805Y-82413D01*
X19810Y-82481D01*
X19812Y-82550D01*
X19812Y-97790D01*
X9525Y-95631D02*
X4186Y-95631D01*
X4186Y-92962D01*
X5076Y-92072D01*
X6856Y-92072D01*
X7746Y-92962D01*
X7746Y-95631D01*
X7746Y-93852D02*
X9525Y-92072D01*
X5076Y-88238D02*
X4186Y-86459D01*
X5076Y-88238D02*
X6856Y-90018D01*
X8635Y-90018D01*
X9525Y-89128D01*
X9525Y-87349D01*
X8635Y-86459D01*
X7746Y-86459D01*
X6856Y-87349D01*
X6856Y-90018D01*
D15*
X50619Y-44650D03*
D14*
X47319Y-35760D02*
X47319Y28650D01*
X47319Y-35760D02*
X41729Y-41350D01*
X-22681Y-41350D01*
X-22681Y28650D01*
X47319Y28650D01*
D10*
X45974Y35293D02*
X45974Y39742D01*
X45974Y35293D02*
X46864Y34403D01*
X48643Y34403D01*
X49533Y35293D01*
X49533Y39742D01*
X51587Y37962D02*
X53367Y39742D01*
X53367Y34403D01*
X55146Y34403D02*
X51587Y34403D01*
D14*
X87884Y101600D02*
X91694Y101600D01*
X104394Y105410D02*
X104394Y114300D01*
X96774Y114300D01*
X82804Y114300D02*
X75184Y114300D01*
X75184Y105410D01*
D10*
X84455Y106046D02*
X84455Y110495D01*
X84455Y106046D02*
X85345Y105156D01*
X87124Y105156D01*
X88014Y106046D01*
X88014Y110495D01*
X90068Y105156D02*
X93627Y105156D01*
X90068Y105156D02*
X93627Y108715D01*
X93627Y109605D01*
X92737Y110495D01*
X90958Y110495D01*
X90068Y109605D01*
X5334Y58420D02*
X5332Y58351D01*
X5327Y58283D01*
X5317Y58215D01*
X5304Y58147D01*
X5288Y58080D01*
X5268Y58014D01*
X5244Y57950D01*
X5217Y57887D01*
X5186Y57825D01*
X5152Y57765D01*
X5115Y57707D01*
X5075Y57651D01*
X5032Y57598D01*
X4986Y57547D01*
X4937Y57498D01*
X4886Y57452D01*
X4833Y57409D01*
X4777Y57369D01*
X4719Y57332D01*
X4659Y57298D01*
X4597Y57267D01*
X4534Y57240D01*
X4470Y57216D01*
X4404Y57196D01*
X4337Y57180D01*
X4269Y57167D01*
X4201Y57157D01*
X4133Y57152D01*
X4064Y57150D01*
X-2286Y57150D01*
X-2355Y57152D01*
X-2423Y57157D01*
X-2491Y57167D01*
X-2559Y57180D01*
X-2626Y57196D01*
X-2692Y57216D01*
X-2756Y57240D01*
X-2819Y57267D01*
X-2881Y57298D01*
X-2941Y57332D01*
X-2999Y57369D01*
X-3055Y57409D01*
X-3108Y57452D01*
X-3159Y57498D01*
X-3208Y57547D01*
X-3254Y57598D01*
X-3297Y57651D01*
X-3337Y57707D01*
X-3374Y57765D01*
X-3408Y57825D01*
X-3439Y57887D01*
X-3466Y57950D01*
X-3490Y58014D01*
X-3510Y58080D01*
X-3526Y58147D01*
X-3539Y58215D01*
X-3549Y58283D01*
X-3554Y58351D01*
X-3556Y58420D01*
X-3556Y73660D01*
X-3554Y73729D01*
X-3549Y73797D01*
X-3539Y73865D01*
X-3526Y73933D01*
X-3510Y74000D01*
X-3490Y74066D01*
X-3466Y74130D01*
X-3439Y74193D01*
X-3408Y74255D01*
X-3374Y74315D01*
X-3337Y74373D01*
X-3297Y74429D01*
X-3254Y74482D01*
X-3208Y74533D01*
X-3159Y74582D01*
X-3108Y74628D01*
X-3055Y74671D01*
X-2999Y74711D01*
X-2941Y74748D01*
X-2881Y74782D01*
X-2819Y74813D01*
X-2756Y74840D01*
X-2692Y74864D01*
X-2626Y74884D01*
X-2559Y74900D01*
X-2491Y74913D01*
X-2423Y74923D01*
X-2355Y74928D01*
X-2286Y74930D01*
X4064Y74930D01*
X4133Y74928D01*
X4201Y74923D01*
X4269Y74913D01*
X4337Y74900D01*
X4404Y74884D01*
X4470Y74864D01*
X4534Y74840D01*
X4597Y74813D01*
X4659Y74782D01*
X4719Y74748D01*
X4777Y74711D01*
X4833Y74671D01*
X4886Y74628D01*
X4937Y74582D01*
X4986Y74533D01*
X5032Y74482D01*
X5075Y74429D01*
X5115Y74373D01*
X5152Y74315D01*
X5186Y74255D01*
X5217Y74193D01*
X5244Y74130D01*
X5268Y74066D01*
X5288Y74000D01*
X5304Y73933D01*
X5317Y73865D01*
X5327Y73797D01*
X5332Y73729D01*
X5334Y73660D01*
X5334Y58420D01*
X3429Y59309D02*
X-1910Y59309D01*
X-1910Y61978D01*
X-1020Y62868D01*
X760Y62868D01*
X1650Y61978D01*
X1650Y59309D01*
X1650Y61089D02*
X3429Y62868D01*
X-1910Y64922D02*
X-1910Y68481D01*
X-1020Y68481D01*
X2539Y64922D01*
X3429Y64922D01*
X99949Y23495D02*
X100018Y23493D01*
X100086Y23488D01*
X100154Y23478D01*
X100222Y23465D01*
X100289Y23449D01*
X100355Y23429D01*
X100419Y23405D01*
X100482Y23378D01*
X100544Y23347D01*
X100604Y23313D01*
X100662Y23276D01*
X100718Y23236D01*
X100771Y23193D01*
X100822Y23147D01*
X100871Y23098D01*
X100917Y23047D01*
X100960Y22994D01*
X101000Y22938D01*
X101037Y22880D01*
X101071Y22820D01*
X101102Y22758D01*
X101129Y22695D01*
X101153Y22631D01*
X101173Y22565D01*
X101189Y22498D01*
X101202Y22430D01*
X101212Y22362D01*
X101217Y22294D01*
X101219Y22225D01*
X101219Y15875D01*
X101217Y15806D01*
X101212Y15738D01*
X101202Y15670D01*
X101189Y15602D01*
X101173Y15535D01*
X101153Y15469D01*
X101129Y15405D01*
X101102Y15342D01*
X101071Y15280D01*
X101037Y15220D01*
X101000Y15162D01*
X100960Y15106D01*
X100917Y15053D01*
X100871Y15002D01*
X100822Y14953D01*
X100771Y14907D01*
X100718Y14864D01*
X100662Y14824D01*
X100604Y14787D01*
X100544Y14753D01*
X100482Y14722D01*
X100419Y14695D01*
X100355Y14671D01*
X100289Y14651D01*
X100222Y14635D01*
X100154Y14622D01*
X100086Y14612D01*
X100018Y14607D01*
X99949Y14605D01*
X84709Y14605D01*
X84640Y14607D01*
X84572Y14612D01*
X84504Y14622D01*
X84436Y14635D01*
X84369Y14651D01*
X84303Y14671D01*
X84239Y14695D01*
X84176Y14722D01*
X84114Y14753D01*
X84054Y14787D01*
X83996Y14824D01*
X83940Y14864D01*
X83887Y14907D01*
X83836Y14953D01*
X83787Y15002D01*
X83741Y15053D01*
X83698Y15106D01*
X83658Y15162D01*
X83621Y15220D01*
X83587Y15280D01*
X83556Y15342D01*
X83529Y15405D01*
X83505Y15469D01*
X83485Y15535D01*
X83469Y15602D01*
X83456Y15670D01*
X83446Y15738D01*
X83441Y15806D01*
X83439Y15875D01*
X83439Y22225D01*
X83441Y22294D01*
X83446Y22362D01*
X83456Y22430D01*
X83469Y22498D01*
X83485Y22565D01*
X83505Y22631D01*
X83529Y22695D01*
X83556Y22758D01*
X83587Y22820D01*
X83621Y22880D01*
X83658Y22938D01*
X83698Y22994D01*
X83741Y23047D01*
X83787Y23098D01*
X83836Y23147D01*
X83887Y23193D01*
X83940Y23236D01*
X83996Y23276D01*
X84054Y23313D01*
X84114Y23347D01*
X84176Y23378D01*
X84239Y23405D01*
X84303Y23429D01*
X84369Y23449D01*
X84436Y23465D01*
X84504Y23478D01*
X84572Y23488D01*
X84640Y23493D01*
X84709Y23495D01*
X99949Y23495D01*
X102489Y22103D02*
X102489Y16764D01*
X102489Y22103D02*
X105158Y22103D01*
X106048Y21213D01*
X106048Y19433D01*
X105158Y18544D01*
X102489Y18544D01*
X104269Y18544D02*
X106048Y16764D01*
X108102Y21213D02*
X108992Y22103D01*
X110771Y22103D01*
X111661Y21213D01*
X111661Y20323D01*
X110771Y19433D01*
X111661Y18544D01*
X111661Y17654D01*
X110771Y16764D01*
X108992Y16764D01*
X108102Y17654D01*
X108102Y18544D01*
X108992Y19433D01*
X108102Y20323D01*
X108102Y21213D01*
X108992Y19433D02*
X110771Y19433D01*
X101219Y33655D02*
X101217Y33724D01*
X101212Y33792D01*
X101202Y33860D01*
X101189Y33928D01*
X101173Y33995D01*
X101153Y34061D01*
X101129Y34125D01*
X101102Y34188D01*
X101071Y34250D01*
X101037Y34310D01*
X101000Y34368D01*
X100960Y34424D01*
X100917Y34477D01*
X100871Y34528D01*
X100822Y34577D01*
X100771Y34623D01*
X100718Y34666D01*
X100662Y34706D01*
X100604Y34743D01*
X100544Y34777D01*
X100482Y34808D01*
X100419Y34835D01*
X100355Y34859D01*
X100289Y34879D01*
X100222Y34895D01*
X100154Y34908D01*
X100086Y34918D01*
X100018Y34923D01*
X99949Y34925D01*
X101219Y33655D02*
X101219Y27305D01*
X101217Y27236D01*
X101212Y27168D01*
X101202Y27100D01*
X101189Y27032D01*
X101173Y26965D01*
X101153Y26899D01*
X101129Y26835D01*
X101102Y26772D01*
X101071Y26710D01*
X101037Y26650D01*
X101000Y26592D01*
X100960Y26536D01*
X100917Y26483D01*
X100871Y26432D01*
X100822Y26383D01*
X100771Y26337D01*
X100718Y26294D01*
X100662Y26254D01*
X100604Y26217D01*
X100544Y26183D01*
X100482Y26152D01*
X100419Y26125D01*
X100355Y26101D01*
X100289Y26081D01*
X100222Y26065D01*
X100154Y26052D01*
X100086Y26042D01*
X100018Y26037D01*
X99949Y26035D01*
X84709Y26035D01*
X84640Y26037D01*
X84572Y26042D01*
X84504Y26052D01*
X84436Y26065D01*
X84369Y26081D01*
X84303Y26101D01*
X84239Y26125D01*
X84176Y26152D01*
X84114Y26183D01*
X84054Y26217D01*
X83996Y26254D01*
X83940Y26294D01*
X83887Y26337D01*
X83836Y26383D01*
X83787Y26432D01*
X83741Y26483D01*
X83698Y26536D01*
X83658Y26592D01*
X83621Y26650D01*
X83587Y26710D01*
X83556Y26772D01*
X83529Y26835D01*
X83505Y26899D01*
X83485Y26965D01*
X83469Y27032D01*
X83456Y27100D01*
X83446Y27168D01*
X83441Y27236D01*
X83439Y27305D01*
X83439Y33655D01*
X83441Y33724D01*
X83446Y33792D01*
X83456Y33860D01*
X83469Y33928D01*
X83485Y33995D01*
X83505Y34061D01*
X83529Y34125D01*
X83556Y34188D01*
X83587Y34250D01*
X83621Y34310D01*
X83658Y34368D01*
X83698Y34424D01*
X83741Y34477D01*
X83787Y34528D01*
X83836Y34577D01*
X83887Y34623D01*
X83940Y34666D01*
X83996Y34706D01*
X84054Y34743D01*
X84114Y34777D01*
X84176Y34808D01*
X84239Y34835D01*
X84303Y34859D01*
X84369Y34879D01*
X84436Y34895D01*
X84504Y34908D01*
X84572Y34918D01*
X84640Y34923D01*
X84709Y34925D01*
X99949Y34925D01*
X102743Y33279D02*
X102743Y27940D01*
X102743Y33279D02*
X105412Y33279D01*
X106302Y32389D01*
X106302Y30609D01*
X105412Y29720D01*
X102743Y29720D01*
X104523Y29720D02*
X106302Y27940D01*
X108356Y28830D02*
X109246Y27940D01*
X111025Y27940D01*
X111915Y28830D01*
X111915Y32389D01*
X111025Y33279D01*
X109246Y33279D01*
X108356Y32389D01*
X108356Y31499D01*
X109246Y30609D01*
X111915Y30609D01*
X101219Y45085D02*
X101217Y45154D01*
X101212Y45222D01*
X101202Y45290D01*
X101189Y45358D01*
X101173Y45425D01*
X101153Y45491D01*
X101129Y45555D01*
X101102Y45618D01*
X101071Y45680D01*
X101037Y45740D01*
X101000Y45798D01*
X100960Y45854D01*
X100917Y45907D01*
X100871Y45958D01*
X100822Y46007D01*
X100771Y46053D01*
X100718Y46096D01*
X100662Y46136D01*
X100604Y46173D01*
X100544Y46207D01*
X100482Y46238D01*
X100419Y46265D01*
X100355Y46289D01*
X100289Y46309D01*
X100222Y46325D01*
X100154Y46338D01*
X100086Y46348D01*
X100018Y46353D01*
X99949Y46355D01*
X101219Y45085D02*
X101219Y38735D01*
X101217Y38666D01*
X101212Y38598D01*
X101202Y38530D01*
X101189Y38462D01*
X101173Y38395D01*
X101153Y38329D01*
X101129Y38265D01*
X101102Y38202D01*
X101071Y38140D01*
X101037Y38080D01*
X101000Y38022D01*
X100960Y37966D01*
X100917Y37913D01*
X100871Y37862D01*
X100822Y37813D01*
X100771Y37767D01*
X100718Y37724D01*
X100662Y37684D01*
X100604Y37647D01*
X100544Y37613D01*
X100482Y37582D01*
X100419Y37555D01*
X100355Y37531D01*
X100289Y37511D01*
X100222Y37495D01*
X100154Y37482D01*
X100086Y37472D01*
X100018Y37467D01*
X99949Y37465D01*
X84709Y37465D01*
X84640Y37467D01*
X84572Y37472D01*
X84504Y37482D01*
X84436Y37495D01*
X84369Y37511D01*
X84303Y37531D01*
X84239Y37555D01*
X84176Y37582D01*
X84114Y37613D01*
X84054Y37647D01*
X83996Y37684D01*
X83940Y37724D01*
X83887Y37767D01*
X83836Y37813D01*
X83787Y37862D01*
X83741Y37913D01*
X83698Y37966D01*
X83658Y38022D01*
X83621Y38080D01*
X83587Y38140D01*
X83556Y38202D01*
X83529Y38265D01*
X83505Y38329D01*
X83485Y38395D01*
X83469Y38462D01*
X83456Y38530D01*
X83446Y38598D01*
X83441Y38666D01*
X83439Y38735D01*
X83439Y45085D01*
X83441Y45154D01*
X83446Y45222D01*
X83456Y45290D01*
X83469Y45358D01*
X83485Y45425D01*
X83505Y45491D01*
X83529Y45555D01*
X83556Y45618D01*
X83587Y45680D01*
X83621Y45740D01*
X83658Y45798D01*
X83698Y45854D01*
X83741Y45907D01*
X83787Y45958D01*
X83836Y46007D01*
X83887Y46053D01*
X83940Y46096D01*
X83996Y46136D01*
X84054Y46173D01*
X84114Y46207D01*
X84176Y46238D01*
X84239Y46265D01*
X84303Y46289D01*
X84369Y46309D01*
X84436Y46325D01*
X84504Y46338D01*
X84572Y46348D01*
X84640Y46353D01*
X84709Y46355D01*
X99949Y46355D01*
X102362Y45217D02*
X102362Y39878D01*
X102362Y45217D02*
X105031Y45217D01*
X105921Y44327D01*
X105921Y42547D01*
X105031Y41658D01*
X102362Y41658D01*
X104142Y41658D02*
X105921Y39878D01*
X107975Y43437D02*
X109755Y45217D01*
X109755Y39878D01*
X111534Y39878D02*
X107975Y39878D01*
X113588Y40768D02*
X113588Y44327D01*
X114478Y45217D01*
X116257Y45217D01*
X117147Y44327D01*
X117147Y40768D01*
X116257Y39878D01*
X114478Y39878D01*
X113588Y40768D01*
X117147Y44327D01*
X65659Y74930D02*
X65590Y74928D01*
X65522Y74923D01*
X65454Y74913D01*
X65386Y74900D01*
X65319Y74884D01*
X65253Y74864D01*
X65189Y74840D01*
X65126Y74813D01*
X65064Y74782D01*
X65004Y74748D01*
X64946Y74711D01*
X64890Y74671D01*
X64837Y74628D01*
X64786Y74582D01*
X64737Y74533D01*
X64691Y74482D01*
X64648Y74429D01*
X64608Y74373D01*
X64571Y74315D01*
X64537Y74255D01*
X64506Y74193D01*
X64479Y74130D01*
X64455Y74066D01*
X64435Y74000D01*
X64419Y73933D01*
X64406Y73865D01*
X64396Y73797D01*
X64391Y73729D01*
X64389Y73660D01*
X65659Y74930D02*
X72009Y74930D01*
X72078Y74928D01*
X72146Y74923D01*
X72214Y74913D01*
X72282Y74900D01*
X72349Y74884D01*
X72415Y74864D01*
X72479Y74840D01*
X72542Y74813D01*
X72604Y74782D01*
X72664Y74748D01*
X72722Y74711D01*
X72778Y74671D01*
X72831Y74628D01*
X72882Y74582D01*
X72931Y74533D01*
X72977Y74482D01*
X73020Y74429D01*
X73060Y74373D01*
X73097Y74315D01*
X73131Y74255D01*
X73162Y74193D01*
X73189Y74130D01*
X73213Y74066D01*
X73233Y74000D01*
X73249Y73933D01*
X73262Y73865D01*
X73272Y73797D01*
X73277Y73729D01*
X73279Y73660D01*
X73279Y58420D01*
X73277Y58351D01*
X73272Y58283D01*
X73262Y58215D01*
X73249Y58147D01*
X73233Y58080D01*
X73213Y58014D01*
X73189Y57950D01*
X73162Y57887D01*
X73131Y57825D01*
X73097Y57765D01*
X73060Y57707D01*
X73020Y57651D01*
X72977Y57598D01*
X72931Y57547D01*
X72882Y57498D01*
X72831Y57452D01*
X72778Y57409D01*
X72722Y57369D01*
X72664Y57332D01*
X72604Y57298D01*
X72542Y57267D01*
X72479Y57240D01*
X72415Y57216D01*
X72349Y57196D01*
X72282Y57180D01*
X72214Y57167D01*
X72146Y57157D01*
X72078Y57152D01*
X72009Y57150D01*
X65659Y57150D01*
X65590Y57152D01*
X65522Y57157D01*
X65454Y57167D01*
X65386Y57180D01*
X65319Y57196D01*
X65253Y57216D01*
X65189Y57240D01*
X65126Y57267D01*
X65064Y57298D01*
X65004Y57332D01*
X64946Y57369D01*
X64890Y57409D01*
X64837Y57452D01*
X64786Y57498D01*
X64737Y57547D01*
X64691Y57598D01*
X64648Y57651D01*
X64608Y57707D01*
X64571Y57765D01*
X64537Y57825D01*
X64506Y57887D01*
X64479Y57950D01*
X64455Y58014D01*
X64435Y58080D01*
X64419Y58147D01*
X64406Y58215D01*
X64396Y58283D01*
X64391Y58351D01*
X64389Y58420D01*
X64389Y73660D01*
X66035Y58472D02*
X71374Y58472D01*
X66035Y58472D02*
X66035Y61141D01*
X66925Y62031D01*
X68705Y62031D01*
X69595Y61141D01*
X69595Y58472D01*
X69595Y60251D02*
X71374Y62031D01*
X67815Y64085D02*
X66035Y65864D01*
X71374Y65864D01*
X71374Y64085D02*
X71374Y67644D01*
X71374Y72367D02*
X66035Y72367D01*
X68705Y69698D01*
X68705Y73257D01*
X54737Y74930D02*
X54668Y74928D01*
X54600Y74923D01*
X54532Y74913D01*
X54464Y74900D01*
X54397Y74884D01*
X54331Y74864D01*
X54267Y74840D01*
X54204Y74813D01*
X54142Y74782D01*
X54082Y74748D01*
X54024Y74711D01*
X53968Y74671D01*
X53915Y74628D01*
X53864Y74582D01*
X53815Y74533D01*
X53769Y74482D01*
X53726Y74429D01*
X53686Y74373D01*
X53649Y74315D01*
X53615Y74255D01*
X53584Y74193D01*
X53557Y74130D01*
X53533Y74066D01*
X53513Y74000D01*
X53497Y73933D01*
X53484Y73865D01*
X53474Y73797D01*
X53469Y73729D01*
X53467Y73660D01*
X54737Y74930D02*
X61087Y74930D01*
X61156Y74928D01*
X61224Y74923D01*
X61292Y74913D01*
X61360Y74900D01*
X61427Y74884D01*
X61493Y74864D01*
X61557Y74840D01*
X61620Y74813D01*
X61682Y74782D01*
X61742Y74748D01*
X61800Y74711D01*
X61856Y74671D01*
X61909Y74628D01*
X61960Y74582D01*
X62009Y74533D01*
X62055Y74482D01*
X62098Y74429D01*
X62138Y74373D01*
X62175Y74315D01*
X62209Y74255D01*
X62240Y74193D01*
X62267Y74130D01*
X62291Y74066D01*
X62311Y74000D01*
X62327Y73933D01*
X62340Y73865D01*
X62350Y73797D01*
X62355Y73729D01*
X62357Y73660D01*
X62357Y58420D01*
X62355Y58351D01*
X62350Y58283D01*
X62340Y58215D01*
X62327Y58147D01*
X62311Y58080D01*
X62291Y58014D01*
X62267Y57950D01*
X62240Y57887D01*
X62209Y57825D01*
X62175Y57765D01*
X62138Y57707D01*
X62098Y57651D01*
X62055Y57598D01*
X62009Y57547D01*
X61960Y57498D01*
X61909Y57452D01*
X61856Y57409D01*
X61800Y57369D01*
X61742Y57332D01*
X61682Y57298D01*
X61620Y57267D01*
X61557Y57240D01*
X61493Y57216D01*
X61427Y57196D01*
X61360Y57180D01*
X61292Y57167D01*
X61224Y57157D01*
X61156Y57152D01*
X61087Y57150D01*
X54737Y57150D01*
X54668Y57152D01*
X54600Y57157D01*
X54532Y57167D01*
X54464Y57180D01*
X54397Y57196D01*
X54331Y57216D01*
X54267Y57240D01*
X54204Y57267D01*
X54142Y57298D01*
X54082Y57332D01*
X54024Y57369D01*
X53968Y57409D01*
X53915Y57452D01*
X53864Y57498D01*
X53815Y57547D01*
X53769Y57598D01*
X53726Y57651D01*
X53686Y57707D01*
X53649Y57765D01*
X53615Y57825D01*
X53584Y57887D01*
X53557Y57950D01*
X53533Y58014D01*
X53513Y58080D01*
X53497Y58147D01*
X53484Y58215D01*
X53474Y58283D01*
X53469Y58351D01*
X53467Y58420D01*
X53467Y73660D01*
X55113Y58472D02*
X60452Y58472D01*
X55113Y58472D02*
X55113Y61141D01*
X56003Y62031D01*
X57783Y62031D01*
X58673Y61141D01*
X58673Y58472D01*
X58673Y60251D02*
X60452Y62031D01*
X56893Y64085D02*
X55113Y65864D01*
X60452Y65864D01*
X60452Y64085D02*
X60452Y67644D01*
X56003Y71477D02*
X55113Y73257D01*
X56003Y71477D02*
X57783Y69698D01*
X59562Y69698D01*
X60452Y70588D01*
X60452Y72367D01*
X59562Y73257D01*
X58673Y73257D01*
X57783Y72367D01*
X57783Y69698D01*
X43434Y74930D02*
X43365Y74928D01*
X43297Y74923D01*
X43229Y74913D01*
X43161Y74900D01*
X43094Y74884D01*
X43028Y74864D01*
X42964Y74840D01*
X42901Y74813D01*
X42839Y74782D01*
X42779Y74748D01*
X42721Y74711D01*
X42665Y74671D01*
X42612Y74628D01*
X42561Y74582D01*
X42512Y74533D01*
X42466Y74482D01*
X42423Y74429D01*
X42383Y74373D01*
X42346Y74315D01*
X42312Y74255D01*
X42281Y74193D01*
X42254Y74130D01*
X42230Y74066D01*
X42210Y74000D01*
X42194Y73933D01*
X42181Y73865D01*
X42171Y73797D01*
X42166Y73729D01*
X42164Y73660D01*
X43434Y74930D02*
X49784Y74930D01*
X49853Y74928D01*
X49921Y74923D01*
X49989Y74913D01*
X50057Y74900D01*
X50124Y74884D01*
X50190Y74864D01*
X50254Y74840D01*
X50317Y74813D01*
X50379Y74782D01*
X50439Y74748D01*
X50497Y74711D01*
X50553Y74671D01*
X50606Y74628D01*
X50657Y74582D01*
X50706Y74533D01*
X50752Y74482D01*
X50795Y74429D01*
X50835Y74373D01*
X50872Y74315D01*
X50906Y74255D01*
X50937Y74193D01*
X50964Y74130D01*
X50988Y74066D01*
X51008Y74000D01*
X51024Y73933D01*
X51037Y73865D01*
X51047Y73797D01*
X51052Y73729D01*
X51054Y73660D01*
X51054Y58420D01*
X51052Y58351D01*
X51047Y58283D01*
X51037Y58215D01*
X51024Y58147D01*
X51008Y58080D01*
X50988Y58014D01*
X50964Y57950D01*
X50937Y57887D01*
X50906Y57825D01*
X50872Y57765D01*
X50835Y57707D01*
X50795Y57651D01*
X50752Y57598D01*
X50706Y57547D01*
X50657Y57498D01*
X50606Y57452D01*
X50553Y57409D01*
X50497Y57369D01*
X50439Y57332D01*
X50379Y57298D01*
X50317Y57267D01*
X50254Y57240D01*
X50190Y57216D01*
X50124Y57196D01*
X50057Y57180D01*
X49989Y57167D01*
X49921Y57157D01*
X49853Y57152D01*
X49784Y57150D01*
X43434Y57150D01*
X43365Y57152D01*
X43297Y57157D01*
X43229Y57167D01*
X43161Y57180D01*
X43094Y57196D01*
X43028Y57216D01*
X42964Y57240D01*
X42901Y57267D01*
X42839Y57298D01*
X42779Y57332D01*
X42721Y57369D01*
X42665Y57409D01*
X42612Y57452D01*
X42561Y57498D01*
X42512Y57547D01*
X42466Y57598D01*
X42423Y57651D01*
X42383Y57707D01*
X42346Y57765D01*
X42312Y57825D01*
X42281Y57887D01*
X42254Y57950D01*
X42230Y58014D01*
X42210Y58080D01*
X42194Y58147D01*
X42181Y58215D01*
X42171Y58283D01*
X42166Y58351D01*
X42164Y58420D01*
X42164Y73660D01*
X43810Y58472D02*
X49149Y58472D01*
X43810Y58472D02*
X43810Y61141D01*
X44700Y62031D01*
X46480Y62031D01*
X47370Y61141D01*
X47370Y58472D01*
X47370Y60251D02*
X49149Y62031D01*
X45590Y64085D02*
X43810Y65864D01*
X49149Y65864D01*
X49149Y64085D02*
X49149Y67644D01*
X43810Y69698D02*
X43810Y73257D01*
X44700Y73257D01*
X48259Y69698D01*
X49149Y69698D01*
X32004Y74930D02*
X31935Y74928D01*
X31867Y74923D01*
X31799Y74913D01*
X31731Y74900D01*
X31664Y74884D01*
X31598Y74864D01*
X31534Y74840D01*
X31471Y74813D01*
X31409Y74782D01*
X31349Y74748D01*
X31291Y74711D01*
X31235Y74671D01*
X31182Y74628D01*
X31131Y74582D01*
X31082Y74533D01*
X31036Y74482D01*
X30993Y74429D01*
X30953Y74373D01*
X30916Y74315D01*
X30882Y74255D01*
X30851Y74193D01*
X30824Y74130D01*
X30800Y74066D01*
X30780Y74000D01*
X30764Y73933D01*
X30751Y73865D01*
X30741Y73797D01*
X30736Y73729D01*
X30734Y73660D01*
X32004Y74930D02*
X38354Y74930D01*
X38423Y74928D01*
X38491Y74923D01*
X38559Y74913D01*
X38627Y74900D01*
X38694Y74884D01*
X38760Y74864D01*
X38824Y74840D01*
X38887Y74813D01*
X38949Y74782D01*
X39009Y74748D01*
X39067Y74711D01*
X39123Y74671D01*
X39176Y74628D01*
X39227Y74582D01*
X39276Y74533D01*
X39322Y74482D01*
X39365Y74429D01*
X39405Y74373D01*
X39442Y74315D01*
X39476Y74255D01*
X39507Y74193D01*
X39534Y74130D01*
X39558Y74066D01*
X39578Y74000D01*
X39594Y73933D01*
X39607Y73865D01*
X39617Y73797D01*
X39622Y73729D01*
X39624Y73660D01*
X39624Y58420D01*
X39622Y58351D01*
X39617Y58283D01*
X39607Y58215D01*
X39594Y58147D01*
X39578Y58080D01*
X39558Y58014D01*
X39534Y57950D01*
X39507Y57887D01*
X39476Y57825D01*
X39442Y57765D01*
X39405Y57707D01*
X39365Y57651D01*
X39322Y57598D01*
X39276Y57547D01*
X39227Y57498D01*
X39176Y57452D01*
X39123Y57409D01*
X39067Y57369D01*
X39009Y57332D01*
X38949Y57298D01*
X38887Y57267D01*
X38824Y57240D01*
X38760Y57216D01*
X38694Y57196D01*
X38627Y57180D01*
X38559Y57167D01*
X38491Y57157D01*
X38423Y57152D01*
X38354Y57150D01*
X32004Y57150D01*
X31935Y57152D01*
X31867Y57157D01*
X31799Y57167D01*
X31731Y57180D01*
X31664Y57196D01*
X31598Y57216D01*
X31534Y57240D01*
X31471Y57267D01*
X31409Y57298D01*
X31349Y57332D01*
X31291Y57369D01*
X31235Y57409D01*
X31182Y57452D01*
X31131Y57498D01*
X31082Y57547D01*
X31036Y57598D01*
X30993Y57651D01*
X30953Y57707D01*
X30916Y57765D01*
X30882Y57825D01*
X30851Y57887D01*
X30824Y57950D01*
X30800Y58014D01*
X30780Y58080D01*
X30764Y58147D01*
X30751Y58215D01*
X30741Y58283D01*
X30736Y58351D01*
X30734Y58420D01*
X30734Y73660D01*
X32380Y58472D02*
X37719Y58472D01*
X32380Y58472D02*
X32380Y61141D01*
X33270Y62031D01*
X35050Y62031D01*
X35940Y61141D01*
X35940Y58472D01*
X35940Y60251D02*
X37719Y62031D01*
X34160Y64085D02*
X32380Y65864D01*
X37719Y65864D01*
X37719Y64085D02*
X37719Y67644D01*
X33270Y69698D02*
X32380Y70588D01*
X32380Y72367D01*
X33270Y73257D01*
X34160Y73257D01*
X35050Y72367D01*
X35940Y73257D01*
X36829Y73257D01*
X37719Y72367D01*
X37719Y70588D01*
X36829Y69698D01*
X35940Y69698D01*
X35050Y70588D01*
X34160Y69698D01*
X33270Y69698D01*
X35050Y70588D02*
X35050Y72367D01*
X16764Y58420D02*
X16762Y58351D01*
X16757Y58283D01*
X16747Y58215D01*
X16734Y58147D01*
X16718Y58080D01*
X16698Y58014D01*
X16674Y57950D01*
X16647Y57887D01*
X16616Y57825D01*
X16582Y57765D01*
X16545Y57707D01*
X16505Y57651D01*
X16462Y57598D01*
X16416Y57547D01*
X16367Y57498D01*
X16316Y57452D01*
X16263Y57409D01*
X16207Y57369D01*
X16149Y57332D01*
X16089Y57298D01*
X16027Y57267D01*
X15964Y57240D01*
X15900Y57216D01*
X15834Y57196D01*
X15767Y57180D01*
X15699Y57167D01*
X15631Y57157D01*
X15563Y57152D01*
X15494Y57150D01*
X9144Y57150D01*
X9075Y57152D01*
X9007Y57157D01*
X8939Y57167D01*
X8871Y57180D01*
X8804Y57196D01*
X8738Y57216D01*
X8674Y57240D01*
X8611Y57267D01*
X8549Y57298D01*
X8489Y57332D01*
X8431Y57369D01*
X8375Y57409D01*
X8322Y57452D01*
X8271Y57498D01*
X8222Y57547D01*
X8176Y57598D01*
X8133Y57651D01*
X8093Y57707D01*
X8056Y57765D01*
X8022Y57825D01*
X7991Y57887D01*
X7964Y57950D01*
X7940Y58014D01*
X7920Y58080D01*
X7904Y58147D01*
X7891Y58215D01*
X7881Y58283D01*
X7876Y58351D01*
X7874Y58420D01*
X7874Y73660D01*
X7876Y73729D01*
X7881Y73797D01*
X7891Y73865D01*
X7904Y73933D01*
X7920Y74000D01*
X7940Y74066D01*
X7964Y74130D01*
X7991Y74193D01*
X8022Y74255D01*
X8056Y74315D01*
X8093Y74373D01*
X8133Y74429D01*
X8176Y74482D01*
X8222Y74533D01*
X8271Y74582D01*
X8322Y74628D01*
X8375Y74671D01*
X8431Y74711D01*
X8489Y74748D01*
X8549Y74782D01*
X8611Y74813D01*
X8674Y74840D01*
X8738Y74864D01*
X8804Y74884D01*
X8871Y74900D01*
X8939Y74913D01*
X9007Y74923D01*
X9075Y74928D01*
X9144Y74930D01*
X15494Y74930D01*
X15563Y74928D01*
X15631Y74923D01*
X15699Y74913D01*
X15767Y74900D01*
X15834Y74884D01*
X15900Y74864D01*
X15964Y74840D01*
X16027Y74813D01*
X16089Y74782D01*
X16149Y74748D01*
X16207Y74711D01*
X16263Y74671D01*
X16316Y74628D01*
X16367Y74582D01*
X16416Y74533D01*
X16462Y74482D01*
X16505Y74429D01*
X16545Y74373D01*
X16582Y74315D01*
X16616Y74255D01*
X16647Y74193D01*
X16674Y74130D01*
X16698Y74066D01*
X16718Y74000D01*
X16734Y73933D01*
X16747Y73865D01*
X16757Y73797D01*
X16762Y73729D01*
X16764Y73660D01*
X16764Y58420D01*
X15113Y58801D02*
X9774Y58801D01*
X9774Y61470D01*
X10664Y62360D01*
X12444Y62360D01*
X13334Y61470D01*
X13334Y58801D01*
X13334Y60581D02*
X15113Y62360D01*
X11554Y64414D02*
X9774Y66194D01*
X15113Y66194D01*
X15113Y67973D02*
X15113Y64414D01*
X14223Y70027D02*
X15113Y70917D01*
X15113Y72696D01*
X14223Y73586D01*
X10664Y73586D01*
X9774Y72696D01*
X9774Y70917D01*
X10664Y70027D01*
X11554Y70027D01*
X12444Y70917D01*
X12444Y73586D01*
X28194Y58420D02*
X28192Y58351D01*
X28187Y58283D01*
X28177Y58215D01*
X28164Y58147D01*
X28148Y58080D01*
X28128Y58014D01*
X28104Y57950D01*
X28077Y57887D01*
X28046Y57825D01*
X28012Y57765D01*
X27975Y57707D01*
X27935Y57651D01*
X27892Y57598D01*
X27846Y57547D01*
X27797Y57498D01*
X27746Y57452D01*
X27693Y57409D01*
X27637Y57369D01*
X27579Y57332D01*
X27519Y57298D01*
X27457Y57267D01*
X27394Y57240D01*
X27330Y57216D01*
X27264Y57196D01*
X27197Y57180D01*
X27129Y57167D01*
X27061Y57157D01*
X26993Y57152D01*
X26924Y57150D01*
X20574Y57150D01*
X20505Y57152D01*
X20437Y57157D01*
X20369Y57167D01*
X20301Y57180D01*
X20234Y57196D01*
X20168Y57216D01*
X20104Y57240D01*
X20041Y57267D01*
X19979Y57298D01*
X19919Y57332D01*
X19861Y57369D01*
X19805Y57409D01*
X19752Y57452D01*
X19701Y57498D01*
X19652Y57547D01*
X19606Y57598D01*
X19563Y57651D01*
X19523Y57707D01*
X19486Y57765D01*
X19452Y57825D01*
X19421Y57887D01*
X19394Y57950D01*
X19370Y58014D01*
X19350Y58080D01*
X19334Y58147D01*
X19321Y58215D01*
X19311Y58283D01*
X19306Y58351D01*
X19304Y58420D01*
X19304Y73660D01*
X19306Y73729D01*
X19311Y73797D01*
X19321Y73865D01*
X19334Y73933D01*
X19350Y74000D01*
X19370Y74066D01*
X19394Y74130D01*
X19421Y74193D01*
X19452Y74255D01*
X19486Y74315D01*
X19523Y74373D01*
X19563Y74429D01*
X19606Y74482D01*
X19652Y74533D01*
X19701Y74582D01*
X19752Y74628D01*
X19805Y74671D01*
X19861Y74711D01*
X19919Y74748D01*
X19979Y74782D01*
X20041Y74813D01*
X20104Y74840D01*
X20168Y74864D01*
X20234Y74884D01*
X20301Y74900D01*
X20369Y74913D01*
X20437Y74923D01*
X20505Y74928D01*
X20574Y74930D01*
X26924Y74930D01*
X26993Y74928D01*
X27061Y74923D01*
X27129Y74913D01*
X27197Y74900D01*
X27264Y74884D01*
X27330Y74864D01*
X27394Y74840D01*
X27457Y74813D01*
X27519Y74782D01*
X27579Y74748D01*
X27637Y74711D01*
X27693Y74671D01*
X27746Y74628D01*
X27797Y74582D01*
X27846Y74533D01*
X27892Y74482D01*
X27935Y74429D01*
X27975Y74373D01*
X28012Y74315D01*
X28046Y74255D01*
X28077Y74193D01*
X28104Y74130D01*
X28128Y74066D01*
X28148Y74000D01*
X28164Y73933D01*
X28177Y73865D01*
X28187Y73797D01*
X28192Y73729D01*
X28194Y73660D01*
X28194Y58420D01*
X26543Y58801D02*
X21204Y58801D01*
X21204Y61470D01*
X22094Y62360D01*
X23874Y62360D01*
X24764Y61470D01*
X24764Y58801D01*
X24764Y60581D02*
X26543Y62360D01*
X26543Y64414D02*
X26543Y67973D01*
X26543Y64414D02*
X22984Y67973D01*
X22094Y67973D01*
X21204Y67083D01*
X21204Y65304D01*
X22094Y64414D01*
X22094Y70027D02*
X25653Y70027D01*
X22094Y70027D02*
X21204Y70917D01*
X21204Y72696D01*
X22094Y73586D01*
X25653Y73586D01*
X26543Y72696D01*
X26543Y70917D01*
X25653Y70027D01*
X22094Y73586D01*
D14*
X52197Y-161036D02*
X52197Y-186436D01*
X-49403Y-186436D01*
X-49403Y-161036D01*
X52197Y-161036D01*
D10*
X-46987Y-152142D02*
X-47877Y-151252D01*
X-49656Y-151252D01*
X-50546Y-152142D01*
X-50546Y-153032D01*
X-49656Y-153922D01*
X-47877Y-153922D01*
X-46987Y-154812D01*
X-46987Y-155701D01*
X-47877Y-156591D01*
X-49656Y-156591D01*
X-50546Y-155701D01*
X-44933Y-156591D02*
X-44933Y-151252D01*
X-43153Y-154812D02*
X-44933Y-156591D01*
X-43153Y-154812D02*
X-41374Y-156591D01*
X-41374Y-151252D01*
X-39320Y-151252D02*
X-39320Y-156591D01*
X-36651Y-156591D01*
X-35761Y-155701D01*
X-35761Y-152142D01*
X-36651Y-151252D01*
X-39320Y-151252D01*
D14*
X-173228Y-147701D02*
X-173228Y-96901D01*
X-104648Y-96901D01*
X-104648Y-147701D01*
X-173228Y-147701D01*
X-119263Y-135633D02*
X-115450Y-139446D01*
X-119263Y-135633D02*
X-107823Y-135633D01*
X-107823Y-139446D02*
X-107823Y-131820D01*
X-107823Y-114046D02*
X-107823Y-106420D01*
X-107823Y-114046D02*
X-115450Y-106420D01*
X-117356Y-106420D01*
X-119263Y-108326D01*
X-119263Y-112139D01*
X-117356Y-114046D01*
X-170063Y-128646D02*
X-170063Y-132459D01*
X-168156Y-134366D01*
X-160530Y-134366D01*
X-158623Y-132459D01*
X-158623Y-128646D01*
X-160530Y-126740D01*
X-168156Y-126740D01*
X-170063Y-128646D01*
X-170063Y-122672D02*
X-158623Y-122672D01*
X-158623Y-115046D02*
X-170063Y-122672D01*
X-170063Y-115046D02*
X-158623Y-115046D01*
X-151638Y-128651D02*
X-151638Y-141351D01*
X-151638Y-128651D02*
X-138938Y-128651D01*
X-132588Y-128651D02*
X-126238Y-128651D01*
X-126238Y-141351D01*
X-132588Y-141351D01*
X-138938Y-141351D02*
X-151638Y-141351D01*
X-138938Y-141351D02*
X-138938Y-128651D01*
X-132588Y-128651D01*
X-132588Y-141351D01*
X-138938Y-141351D01*
D16*
X-135763Y-135001D03*
D14*
X-151638Y-115951D02*
X-151638Y-103251D01*
X-138938Y-103251D01*
X-132588Y-103251D02*
X-126238Y-103251D01*
X-126238Y-115951D01*
X-132588Y-115951D01*
X-138938Y-115951D02*
X-151638Y-115951D01*
X-138938Y-115951D02*
X-138938Y-103251D01*
X-132588Y-103251D01*
X-132588Y-115951D01*
X-138938Y-115951D01*
D16*
X-135763Y-109601D03*
D10*
X-107569Y-84328D02*
X-107500Y-84330D01*
X-107432Y-84335D01*
X-107364Y-84345D01*
X-107296Y-84358D01*
X-107229Y-84374D01*
X-107163Y-84394D01*
X-107099Y-84418D01*
X-107036Y-84445D01*
X-106974Y-84476D01*
X-106914Y-84510D01*
X-106856Y-84547D01*
X-106800Y-84587D01*
X-106747Y-84630D01*
X-106696Y-84676D01*
X-106647Y-84725D01*
X-106601Y-84776D01*
X-106558Y-84829D01*
X-106518Y-84885D01*
X-106481Y-84943D01*
X-106447Y-85003D01*
X-106416Y-85065D01*
X-106389Y-85128D01*
X-106365Y-85192D01*
X-106345Y-85258D01*
X-106329Y-85325D01*
X-106316Y-85393D01*
X-106306Y-85461D01*
X-106301Y-85529D01*
X-106299Y-85598D01*
X-106299Y-91948D01*
X-106301Y-92017D01*
X-106306Y-92085D01*
X-106316Y-92153D01*
X-106329Y-92221D01*
X-106345Y-92288D01*
X-106365Y-92354D01*
X-106389Y-92418D01*
X-106416Y-92481D01*
X-106447Y-92543D01*
X-106481Y-92603D01*
X-106518Y-92661D01*
X-106558Y-92717D01*
X-106601Y-92770D01*
X-106647Y-92821D01*
X-106696Y-92870D01*
X-106747Y-92916D01*
X-106800Y-92959D01*
X-106856Y-92999D01*
X-106914Y-93036D01*
X-106974Y-93070D01*
X-107036Y-93101D01*
X-107099Y-93128D01*
X-107163Y-93152D01*
X-107229Y-93172D01*
X-107296Y-93188D01*
X-107364Y-93201D01*
X-107432Y-93211D01*
X-107500Y-93216D01*
X-107569Y-93218D01*
X-122809Y-93218D01*
X-122878Y-93216D01*
X-122946Y-93211D01*
X-123014Y-93201D01*
X-123082Y-93188D01*
X-123149Y-93172D01*
X-123215Y-93152D01*
X-123279Y-93128D01*
X-123342Y-93101D01*
X-123404Y-93070D01*
X-123464Y-93036D01*
X-123522Y-92999D01*
X-123578Y-92959D01*
X-123631Y-92916D01*
X-123682Y-92870D01*
X-123731Y-92821D01*
X-123777Y-92770D01*
X-123820Y-92717D01*
X-123860Y-92661D01*
X-123897Y-92603D01*
X-123931Y-92543D01*
X-123962Y-92481D01*
X-123989Y-92418D01*
X-124013Y-92354D01*
X-124033Y-92288D01*
X-124049Y-92221D01*
X-124062Y-92153D01*
X-124072Y-92085D01*
X-124077Y-92017D01*
X-124079Y-91948D01*
X-124079Y-85598D01*
X-124077Y-85529D01*
X-124072Y-85461D01*
X-124062Y-85393D01*
X-124049Y-85325D01*
X-124033Y-85258D01*
X-124013Y-85192D01*
X-123989Y-85128D01*
X-123962Y-85065D01*
X-123931Y-85003D01*
X-123897Y-84943D01*
X-123860Y-84885D01*
X-123820Y-84829D01*
X-123777Y-84776D01*
X-123731Y-84725D01*
X-123682Y-84676D01*
X-123631Y-84630D01*
X-123578Y-84587D01*
X-123522Y-84547D01*
X-123464Y-84510D01*
X-123404Y-84476D01*
X-123342Y-84445D01*
X-123279Y-84418D01*
X-123215Y-84394D01*
X-123149Y-84374D01*
X-123082Y-84358D01*
X-123014Y-84345D01*
X-122946Y-84335D01*
X-122878Y-84330D01*
X-122809Y-84328D01*
X-107569Y-84328D01*
X-104902Y-85593D02*
X-104902Y-90932D01*
X-104902Y-85593D02*
X-102233Y-85593D01*
X-101343Y-86483D01*
X-101343Y-88263D01*
X-102233Y-89153D01*
X-104902Y-89153D01*
X-103123Y-89153D02*
X-101343Y-90932D01*
X-99289Y-90932D02*
X-95730Y-90932D01*
X-99289Y-90932D02*
X-95730Y-87373D01*
X-95730Y-86483D01*
X-96620Y-85593D01*
X-98399Y-85593D01*
X-99289Y-86483D01*
X-91007Y-85593D02*
X-91007Y-90932D01*
X-93676Y-88263D02*
X-91007Y-85593D01*
X-90117Y-88263D02*
X-93676Y-88263D01*
X-65024Y-94869D02*
X-65022Y-94938D01*
X-65017Y-95006D01*
X-65007Y-95074D01*
X-64994Y-95142D01*
X-64978Y-95209D01*
X-64958Y-95275D01*
X-64934Y-95339D01*
X-64907Y-95402D01*
X-64876Y-95464D01*
X-64842Y-95524D01*
X-64805Y-95582D01*
X-64765Y-95638D01*
X-64722Y-95691D01*
X-64676Y-95742D01*
X-64627Y-95791D01*
X-64576Y-95837D01*
X-64523Y-95880D01*
X-64467Y-95920D01*
X-64409Y-95957D01*
X-64349Y-95991D01*
X-64287Y-96022D01*
X-64224Y-96049D01*
X-64160Y-96073D01*
X-64094Y-96093D01*
X-64027Y-96109D01*
X-63959Y-96122D01*
X-63891Y-96132D01*
X-63823Y-96137D01*
X-63754Y-96139D01*
X-65024Y-94869D02*
X-65024Y-88519D01*
X-65022Y-88450D01*
X-65017Y-88382D01*
X-65007Y-88314D01*
X-64994Y-88246D01*
X-64978Y-88179D01*
X-64958Y-88113D01*
X-64934Y-88049D01*
X-64907Y-87986D01*
X-64876Y-87924D01*
X-64842Y-87864D01*
X-64805Y-87806D01*
X-64765Y-87750D01*
X-64722Y-87697D01*
X-64676Y-87646D01*
X-64627Y-87597D01*
X-64576Y-87551D01*
X-64523Y-87508D01*
X-64467Y-87468D01*
X-64409Y-87431D01*
X-64349Y-87397D01*
X-64287Y-87366D01*
X-64224Y-87339D01*
X-64160Y-87315D01*
X-64094Y-87295D01*
X-64027Y-87279D01*
X-63959Y-87266D01*
X-63891Y-87256D01*
X-63823Y-87251D01*
X-63754Y-87249D01*
X-48514Y-87249D01*
X-48445Y-87251D01*
X-48377Y-87256D01*
X-48309Y-87266D01*
X-48241Y-87279D01*
X-48174Y-87295D01*
X-48108Y-87315D01*
X-48044Y-87339D01*
X-47981Y-87366D01*
X-47919Y-87397D01*
X-47859Y-87431D01*
X-47801Y-87468D01*
X-47745Y-87508D01*
X-47692Y-87551D01*
X-47641Y-87597D01*
X-47592Y-87646D01*
X-47546Y-87697D01*
X-47503Y-87750D01*
X-47463Y-87806D01*
X-47426Y-87864D01*
X-47392Y-87924D01*
X-47361Y-87986D01*
X-47334Y-88049D01*
X-47310Y-88113D01*
X-47290Y-88179D01*
X-47274Y-88246D01*
X-47261Y-88314D01*
X-47251Y-88382D01*
X-47246Y-88450D01*
X-47244Y-88519D01*
X-47244Y-94869D01*
X-47246Y-94938D01*
X-47251Y-95006D01*
X-47261Y-95074D01*
X-47274Y-95142D01*
X-47290Y-95209D01*
X-47310Y-95275D01*
X-47334Y-95339D01*
X-47361Y-95402D01*
X-47392Y-95464D01*
X-47426Y-95524D01*
X-47463Y-95582D01*
X-47503Y-95638D01*
X-47546Y-95691D01*
X-47592Y-95742D01*
X-47641Y-95791D01*
X-47692Y-95837D01*
X-47745Y-95880D01*
X-47801Y-95920D01*
X-47859Y-95957D01*
X-47919Y-95991D01*
X-47981Y-96022D01*
X-48044Y-96049D01*
X-48108Y-96073D01*
X-48174Y-96093D01*
X-48241Y-96109D01*
X-48309Y-96122D01*
X-48377Y-96132D01*
X-48445Y-96137D01*
X-48514Y-96139D01*
X-63754Y-96139D01*
X-63119Y-85344D02*
X-63119Y-80005D01*
X-60450Y-80005D01*
X-59560Y-80895D01*
X-59560Y-82675D01*
X-60450Y-83565D01*
X-63119Y-83565D01*
X-61340Y-83565D02*
X-59560Y-85344D01*
X-57506Y-85344D02*
X-53947Y-85344D01*
X-57506Y-85344D02*
X-53947Y-81785D01*
X-53947Y-80895D01*
X-54837Y-80005D01*
X-56616Y-80005D01*
X-57506Y-80895D01*
X-51893Y-80005D02*
X-48334Y-80005D01*
X-51893Y-80005D02*
X-51893Y-82675D01*
X-50113Y-81785D01*
X-49224Y-81785D01*
X-48334Y-82675D01*
X-48334Y-84454D01*
X-49224Y-85344D01*
X-51003Y-85344D01*
X-51893Y-84454D01*
D14*
X-11811Y124460D02*
X49149Y124460D01*
X49149Y86360D01*
X-11811Y86360D01*
X-11811Y124460D01*
D10*
X-11811Y127000D02*
X-11811Y132339D01*
X-11811Y128780D02*
X-8252Y132339D01*
X-10921Y129669D02*
X-8252Y127000D01*
X-6198Y130559D02*
X-4418Y132339D01*
X-4418Y127000D01*
X-2639Y127000D02*
X-6198Y127000D01*
X99949Y-13335D02*
X100018Y-13337D01*
X100086Y-13342D01*
X100154Y-13352D01*
X100222Y-13365D01*
X100289Y-13381D01*
X100355Y-13401D01*
X100419Y-13425D01*
X100482Y-13452D01*
X100544Y-13483D01*
X100604Y-13517D01*
X100662Y-13554D01*
X100718Y-13594D01*
X100771Y-13637D01*
X100822Y-13683D01*
X100871Y-13732D01*
X100917Y-13783D01*
X100960Y-13836D01*
X101000Y-13892D01*
X101037Y-13950D01*
X101071Y-14010D01*
X101102Y-14072D01*
X101129Y-14135D01*
X101153Y-14199D01*
X101173Y-14265D01*
X101189Y-14332D01*
X101202Y-14400D01*
X101212Y-14468D01*
X101217Y-14536D01*
X101219Y-14605D01*
X101219Y-20955D01*
X101217Y-21024D01*
X101212Y-21092D01*
X101202Y-21160D01*
X101189Y-21228D01*
X101173Y-21295D01*
X101153Y-21361D01*
X101129Y-21425D01*
X101102Y-21488D01*
X101071Y-21550D01*
X101037Y-21610D01*
X101000Y-21668D01*
X100960Y-21724D01*
X100917Y-21777D01*
X100871Y-21828D01*
X100822Y-21877D01*
X100771Y-21923D01*
X100718Y-21966D01*
X100662Y-22006D01*
X100604Y-22043D01*
X100544Y-22077D01*
X100482Y-22108D01*
X100419Y-22135D01*
X100355Y-22159D01*
X100289Y-22179D01*
X100222Y-22195D01*
X100154Y-22208D01*
X100086Y-22218D01*
X100018Y-22223D01*
X99949Y-22225D01*
X84709Y-22225D01*
X84640Y-22223D01*
X84572Y-22218D01*
X84504Y-22208D01*
X84436Y-22195D01*
X84369Y-22179D01*
X84303Y-22159D01*
X84239Y-22135D01*
X84176Y-22108D01*
X84114Y-22077D01*
X84054Y-22043D01*
X83996Y-22006D01*
X83940Y-21966D01*
X83887Y-21923D01*
X83836Y-21877D01*
X83787Y-21828D01*
X83741Y-21777D01*
X83698Y-21724D01*
X83658Y-21668D01*
X83621Y-21610D01*
X83587Y-21550D01*
X83556Y-21488D01*
X83529Y-21425D01*
X83505Y-21361D01*
X83485Y-21295D01*
X83469Y-21228D01*
X83456Y-21160D01*
X83446Y-21092D01*
X83441Y-21024D01*
X83439Y-20955D01*
X83439Y-14605D01*
X83441Y-14536D01*
X83446Y-14468D01*
X83456Y-14400D01*
X83469Y-14332D01*
X83485Y-14265D01*
X83505Y-14199D01*
X83529Y-14135D01*
X83556Y-14072D01*
X83587Y-14010D01*
X83621Y-13950D01*
X83658Y-13892D01*
X83698Y-13836D01*
X83741Y-13783D01*
X83787Y-13732D01*
X83836Y-13683D01*
X83887Y-13637D01*
X83940Y-13594D01*
X83996Y-13554D01*
X84054Y-13517D01*
X84114Y-13483D01*
X84176Y-13452D01*
X84239Y-13425D01*
X84303Y-13401D01*
X84369Y-13381D01*
X84436Y-13365D01*
X84504Y-13352D01*
X84572Y-13342D01*
X84640Y-13337D01*
X84709Y-13335D01*
X99949Y-13335D01*
X102743Y-14981D02*
X102743Y-20320D01*
X102743Y-14981D02*
X105412Y-14981D01*
X106302Y-15871D01*
X106302Y-17651D01*
X105412Y-18541D01*
X102743Y-18541D01*
X104523Y-18541D02*
X106302Y-20320D01*
X108356Y-20320D02*
X111915Y-20320D01*
X108356Y-20320D02*
X111915Y-16761D01*
X111915Y-15871D01*
X111025Y-14981D01*
X109246Y-14981D01*
X108356Y-15871D01*
X115749Y-15871D02*
X117528Y-14981D01*
X115749Y-15871D02*
X113969Y-17651D01*
X113969Y-19430D01*
X114859Y-20320D01*
X116638Y-20320D01*
X117528Y-19430D01*
X117528Y-18541D01*
X116638Y-17651D01*
X113969Y-17651D01*
D14*
X120084Y-103485D02*
X120084Y99675D01*
X169984Y99675D01*
X169984Y-103485D01*
X120084Y-103485D01*
X178504Y137795D02*
X266504Y137795D01*
X266504Y-141605D01*
X178504Y-141605D01*
X178504Y137795D01*
X178689Y99695D02*
X169164Y99695D01*
X169164Y-103505D02*
X178689Y-103505D01*
D11*
X149683Y-189765D02*
X141802Y-189765D01*
X149683Y-189765D02*
X149683Y-184511D01*
X141802Y-181580D02*
X141802Y-176326D01*
X141802Y-181580D02*
X149683Y-181580D01*
X149683Y-176326D01*
X145743Y-178953D02*
X145743Y-181580D01*
X149683Y-173394D02*
X141802Y-173394D01*
X149683Y-173394D02*
X149683Y-169453D01*
X148370Y-168140D01*
X143116Y-168140D01*
X141802Y-169453D01*
X141802Y-173394D01*
X150997Y-165208D02*
X150997Y-159954D01*
X149683Y-157022D02*
X141802Y-157022D01*
X144429Y-154395D01*
X141802Y-151768D01*
X149683Y-151768D01*
X149683Y-148836D02*
X144429Y-148836D01*
X141802Y-146209D01*
X144429Y-143583D01*
X149683Y-143583D01*
X145743Y-143583D02*
X145743Y-148836D01*
X149683Y-138024D02*
X141802Y-138024D01*
X141802Y-140651D02*
X141802Y-135397D01*
X141802Y-132465D02*
X149683Y-132465D01*
X141802Y-132465D02*
X141802Y-128524D01*
X143116Y-127211D01*
X145743Y-127211D01*
X147056Y-128524D01*
X147056Y-132465D01*
X147056Y-129838D02*
X149683Y-127211D01*
X149683Y-124279D02*
X149683Y-121652D01*
X149683Y-122966D02*
X141802Y-122966D01*
X141802Y-124279D02*
X141802Y-121652D01*
X141802Y-118822D02*
X149683Y-113568D01*
X149683Y-118822D02*
X141802Y-113568D01*
D14*
X44450Y146050D02*
X44450Y171450D01*
X44450Y146050D02*
X-31750Y146050D01*
X-31750Y171450D01*
X44450Y171450D01*
D11*
X-27432Y143009D02*
X-27432Y135128D01*
X-22178Y135128D01*
X-19246Y143009D02*
X-13992Y143009D01*
X-19246Y143009D02*
X-19246Y135128D01*
X-13992Y135128D01*
X-16619Y139068D02*
X-19246Y139068D01*
X-11060Y135128D02*
X-11060Y143009D01*
X-11060Y135128D02*
X-7120Y135128D01*
X-5807Y136441D01*
X-5807Y141695D01*
X-7120Y143009D01*
X-11060Y143009D01*
X-2875Y133815D02*
X2379Y133815D01*
X10565Y141695D02*
X9251Y143009D01*
X6625Y143009D01*
X5311Y141695D01*
X5311Y140382D01*
X6625Y139068D01*
X9251Y139068D01*
X10565Y137755D01*
X10565Y136441D01*
X9251Y135128D01*
X6625Y135128D01*
X5311Y136441D01*
X16124Y135128D02*
X16124Y143009D01*
X13497Y143009D02*
X18751Y143009D01*
X21683Y143009D02*
X21683Y135128D01*
X21683Y143009D02*
X25623Y143009D01*
X26937Y141695D01*
X26937Y139068D01*
X25623Y137755D01*
X21683Y137755D01*
X24310Y137755D02*
X26937Y135128D01*
X29868Y135128D02*
X32495Y135128D01*
X31182Y135128D02*
X31182Y143009D01*
X32495Y143009D02*
X29868Y143009D01*
X35326Y143009D02*
X35326Y135128D01*
X35326Y143009D02*
X39266Y143009D01*
X40579Y141695D01*
X40579Y139068D01*
X39266Y137755D01*
X35326Y137755D01*
D14*
X67450Y145250D02*
X110350Y145250D01*
X67450Y145250D02*
X67450Y172250D01*
X110350Y172250D01*
X110350Y145250D01*
D10*
X122174Y158242D02*
X122174Y163581D01*
X122174Y158242D02*
X124843Y158242D01*
X125733Y159132D01*
X125733Y162691D01*
X124843Y163581D01*
X122174Y163581D01*
X130456Y163581D02*
X130456Y158242D01*
X127787Y160911D02*
X130456Y163581D01*
X131346Y160911D02*
X127787Y160911D01*
X-44196Y38100D02*
X-44198Y38031D01*
X-44203Y37963D01*
X-44213Y37895D01*
X-44226Y37827D01*
X-44242Y37760D01*
X-44262Y37694D01*
X-44286Y37630D01*
X-44313Y37567D01*
X-44344Y37505D01*
X-44378Y37445D01*
X-44415Y37387D01*
X-44455Y37331D01*
X-44498Y37278D01*
X-44544Y37227D01*
X-44593Y37178D01*
X-44644Y37132D01*
X-44697Y37089D01*
X-44753Y37049D01*
X-44811Y37012D01*
X-44871Y36978D01*
X-44933Y36947D01*
X-44996Y36920D01*
X-45060Y36896D01*
X-45126Y36876D01*
X-45193Y36860D01*
X-45261Y36847D01*
X-45329Y36837D01*
X-45397Y36832D01*
X-45466Y36830D01*
X-51816Y36830D01*
X-51885Y36832D01*
X-51953Y36837D01*
X-52021Y36847D01*
X-52089Y36860D01*
X-52156Y36876D01*
X-52222Y36896D01*
X-52286Y36920D01*
X-52349Y36947D01*
X-52411Y36978D01*
X-52471Y37012D01*
X-52529Y37049D01*
X-52585Y37089D01*
X-52638Y37132D01*
X-52689Y37178D01*
X-52738Y37227D01*
X-52784Y37278D01*
X-52827Y37331D01*
X-52867Y37387D01*
X-52904Y37445D01*
X-52938Y37505D01*
X-52969Y37567D01*
X-52996Y37630D01*
X-53020Y37694D01*
X-53040Y37760D01*
X-53056Y37827D01*
X-53069Y37895D01*
X-53079Y37963D01*
X-53084Y38031D01*
X-53086Y38100D01*
X-53086Y53340D01*
X-53084Y53409D01*
X-53079Y53477D01*
X-53069Y53545D01*
X-53056Y53613D01*
X-53040Y53680D01*
X-53020Y53746D01*
X-52996Y53810D01*
X-52969Y53873D01*
X-52938Y53935D01*
X-52904Y53995D01*
X-52867Y54053D01*
X-52827Y54109D01*
X-52784Y54162D01*
X-52738Y54213D01*
X-52689Y54262D01*
X-52638Y54308D01*
X-52585Y54351D01*
X-52529Y54391D01*
X-52471Y54428D01*
X-52411Y54462D01*
X-52349Y54493D01*
X-52286Y54520D01*
X-52222Y54544D01*
X-52156Y54564D01*
X-52089Y54580D01*
X-52021Y54593D01*
X-51953Y54603D01*
X-51885Y54608D01*
X-51816Y54610D01*
X-45466Y54610D01*
X-45397Y54608D01*
X-45329Y54603D01*
X-45261Y54593D01*
X-45193Y54580D01*
X-45126Y54564D01*
X-45060Y54544D01*
X-44996Y54520D01*
X-44933Y54493D01*
X-44871Y54462D01*
X-44811Y54428D01*
X-44753Y54391D01*
X-44697Y54351D01*
X-44644Y54308D01*
X-44593Y54262D01*
X-44544Y54213D01*
X-44498Y54162D01*
X-44455Y54109D01*
X-44415Y54053D01*
X-44378Y53995D01*
X-44344Y53935D01*
X-44313Y53873D01*
X-44286Y53810D01*
X-44262Y53746D01*
X-44242Y53680D01*
X-44226Y53613D01*
X-44213Y53545D01*
X-44203Y53477D01*
X-44198Y53409D01*
X-44196Y53340D01*
X-44196Y38100D01*
X-54991Y38354D02*
X-60330Y38354D01*
X-60330Y41023D01*
X-59440Y41913D01*
X-57660Y41913D01*
X-56771Y41023D01*
X-56771Y38354D01*
X-56771Y40134D02*
X-54991Y41913D01*
X-54991Y43967D02*
X-54991Y47526D01*
X-54991Y43967D02*
X-58550Y47526D01*
X-59440Y47526D01*
X-60330Y46636D01*
X-60330Y44857D01*
X-59440Y43967D01*
X-58550Y49580D02*
X-60330Y51360D01*
X-54991Y51360D01*
X-54991Y53139D02*
X-54991Y49580D01*
X-34036Y36830D02*
X-33967Y36832D01*
X-33899Y36837D01*
X-33831Y36847D01*
X-33763Y36860D01*
X-33696Y36876D01*
X-33630Y36896D01*
X-33566Y36920D01*
X-33503Y36947D01*
X-33441Y36978D01*
X-33381Y37012D01*
X-33323Y37049D01*
X-33267Y37089D01*
X-33214Y37132D01*
X-33163Y37178D01*
X-33114Y37227D01*
X-33068Y37278D01*
X-33025Y37331D01*
X-32985Y37387D01*
X-32948Y37445D01*
X-32914Y37505D01*
X-32883Y37567D01*
X-32856Y37630D01*
X-32832Y37694D01*
X-32812Y37760D01*
X-32796Y37827D01*
X-32783Y37895D01*
X-32773Y37963D01*
X-32768Y38031D01*
X-32766Y38100D01*
X-34036Y36830D02*
X-40386Y36830D01*
X-40455Y36832D01*
X-40523Y36837D01*
X-40591Y36847D01*
X-40659Y36860D01*
X-40726Y36876D01*
X-40792Y36896D01*
X-40856Y36920D01*
X-40919Y36947D01*
X-40981Y36978D01*
X-41041Y37012D01*
X-41099Y37049D01*
X-41155Y37089D01*
X-41208Y37132D01*
X-41259Y37178D01*
X-41308Y37227D01*
X-41354Y37278D01*
X-41397Y37331D01*
X-41437Y37387D01*
X-41474Y37445D01*
X-41508Y37505D01*
X-41539Y37567D01*
X-41566Y37630D01*
X-41590Y37694D01*
X-41610Y37760D01*
X-41626Y37827D01*
X-41639Y37895D01*
X-41649Y37963D01*
X-41654Y38031D01*
X-41656Y38100D01*
X-41656Y53340D01*
X-41654Y53409D01*
X-41649Y53477D01*
X-41639Y53545D01*
X-41626Y53613D01*
X-41610Y53680D01*
X-41590Y53746D01*
X-41566Y53810D01*
X-41539Y53873D01*
X-41508Y53935D01*
X-41474Y53995D01*
X-41437Y54053D01*
X-41397Y54109D01*
X-41354Y54162D01*
X-41308Y54213D01*
X-41259Y54262D01*
X-41208Y54308D01*
X-41155Y54351D01*
X-41099Y54391D01*
X-41041Y54428D01*
X-40981Y54462D01*
X-40919Y54493D01*
X-40856Y54520D01*
X-40792Y54544D01*
X-40726Y54564D01*
X-40659Y54580D01*
X-40591Y54593D01*
X-40523Y54603D01*
X-40455Y54608D01*
X-40386Y54610D01*
X-34036Y54610D01*
X-33967Y54608D01*
X-33899Y54603D01*
X-33831Y54593D01*
X-33763Y54580D01*
X-33696Y54564D01*
X-33630Y54544D01*
X-33566Y54520D01*
X-33503Y54493D01*
X-33441Y54462D01*
X-33381Y54428D01*
X-33323Y54391D01*
X-33267Y54351D01*
X-33214Y54308D01*
X-33163Y54262D01*
X-33114Y54213D01*
X-33068Y54162D01*
X-33025Y54109D01*
X-32985Y54053D01*
X-32948Y53995D01*
X-32914Y53935D01*
X-32883Y53873D01*
X-32856Y53810D01*
X-32832Y53746D01*
X-32812Y53680D01*
X-32796Y53613D01*
X-32783Y53545D01*
X-32773Y53477D01*
X-32768Y53409D01*
X-32766Y53340D01*
X-32766Y38100D01*
X-30739Y38152D02*
X-25400Y38152D01*
X-30739Y38152D02*
X-30739Y40821D01*
X-29849Y41711D01*
X-28069Y41711D01*
X-27180Y40821D01*
X-27180Y38152D01*
X-27180Y39931D02*
X-25400Y41711D01*
X-25400Y43765D02*
X-25400Y47324D01*
X-25400Y43765D02*
X-28959Y47324D01*
X-29849Y47324D01*
X-30739Y46434D01*
X-30739Y44655D01*
X-29849Y43765D01*
X-25400Y49378D02*
X-25400Y52937D01*
X-25400Y49378D02*
X-28959Y52937D01*
X-29849Y52937D01*
X-30739Y52047D01*
X-30739Y50268D01*
X-29849Y49378D01*
D14*
X110090Y-127570D02*
X110090Y-131570D01*
X110090Y-103570D02*
X110090Y-99570D01*
X60090Y-99570D01*
X60090Y-103570D01*
X60090Y-127570D02*
X60090Y-131570D01*
X110090Y-131570D01*
X87630Y-125730D02*
X87630Y-105410D01*
X82550Y-105410D01*
X82550Y-125730D01*
X87630Y-125730D01*
X91440Y-128270D02*
X91440Y-115570D01*
X91440Y-102870D01*
X78740Y-115570D02*
X78740Y-128270D01*
X78740Y-115570D02*
X78740Y-102870D01*
X91440Y-115570D02*
X96520Y-115570D01*
X78740Y-115570D02*
X73660Y-115570D01*
D10*
X61672Y-133599D02*
X65231Y-138938D01*
X61672Y-138938D02*
X65231Y-133599D01*
X67285Y-138938D02*
X70844Y-138938D01*
X67285Y-138938D02*
X70844Y-135379D01*
X70844Y-134489D01*
X69954Y-133599D01*
X68175Y-133599D01*
X67285Y-134489D01*
D14*
X-13716Y-99695D02*
X-13716Y-84455D01*
X-13716Y-99695D02*
X-44196Y-99695D01*
X-44196Y-84455D01*
X-13716Y-84455D01*
D10*
X-41275Y-81534D02*
X-41275Y-76195D01*
X-38606Y-76195D01*
X-37716Y-77085D01*
X-37716Y-77975D01*
X-38606Y-78865D01*
X-37716Y-79755D01*
X-37716Y-80644D01*
X-38606Y-81534D01*
X-41275Y-81534D01*
X-41275Y-78865D02*
X-38606Y-78865D01*
X-34772Y-76195D02*
X-32993Y-76195D01*
X-34772Y-76195D02*
X-35662Y-77085D01*
X-35662Y-80644D01*
X-34772Y-81534D01*
X-32993Y-81534D01*
X-32103Y-80644D01*
X-32103Y-77085D01*
X-32993Y-76195D01*
X-29159Y-76195D02*
X-27380Y-76195D01*
X-29159Y-76195D02*
X-30049Y-77085D01*
X-30049Y-80644D01*
X-29159Y-81534D01*
X-27380Y-81534D01*
X-26490Y-80644D01*
X-26490Y-77085D01*
X-27380Y-76195D01*
X-22656Y-76195D02*
X-22656Y-81534D01*
X-24436Y-76195D02*
X-20877Y-76195D01*
X-18823Y-77085D02*
X-18823Y-80644D01*
X-18823Y-77085D02*
X-17933Y-76195D01*
X-16153Y-76195D01*
X-15264Y-77085D01*
X-15264Y-80644D01*
X-16153Y-81534D01*
X-17933Y-81534D01*
X-18823Y-80644D01*
X-15264Y-77085D01*
D12*
X-50107Y-34574D02*
X-53073Y-31608D01*
X-59005Y-31608D01*
X-61971Y-34574D01*
X-61971Y-46437D01*
X-59005Y-49403D01*
X-53073Y-49403D01*
X-50107Y-46437D01*
X-61468Y5334D02*
X-61468Y23129D01*
X-61468Y5334D02*
X-52570Y5334D01*
X-49605Y8300D01*
X-49605Y20163D01*
X-52570Y23129D01*
X-61468Y23129D01*
X62992Y123952D02*
X62992Y141747D01*
X71890Y141747D01*
X74855Y138781D01*
X74855Y132850D01*
X71890Y129884D01*
X62992Y129884D01*
X68924Y129884D02*
X74855Y123952D01*
M02*
