G04 EAGLE Gerber RS-274X export*
G75*
%MOMM*%
%FSLAX34Y34*%
%LPD*%
%INSolderpaste Top*%
%IPPOS*%
%AMOC8*
5,1,8,0,0,1.08239X$1,22.5*%
G01*
%ADD10C,0.317500*%
%ADD11C,0.290000*%
%ADD12R,2.740000X1.010000*%
%ADD13R,3.000000X1.500000*%
%ADD14R,1.016000X1.143000*%
%ADD15R,1.300000X0.300000*%
%ADD16R,0.300000X1.300000*%
%ADD17R,2.032000X1.016000*%
%ADD18R,1.524000X1.016000*%
%ADD19R,1.800000X1.770000*%
%ADD20R,1.778000X2.032000*%


D10*
X79439Y-41593D02*
X76263Y-41593D01*
X76263Y-38417D01*
X79439Y-38417D01*
X79439Y-41593D01*
X79439Y-38577D02*
X76263Y-38577D01*
X85153Y-41593D02*
X88329Y-41593D01*
X85153Y-41593D02*
X85153Y-38417D01*
X88329Y-38417D01*
X88329Y-41593D01*
X88329Y-38577D02*
X85153Y-38577D01*
X78931Y-2350D02*
X78931Y826D01*
X78931Y-2350D02*
X75755Y-2350D01*
X75755Y826D01*
X78931Y826D01*
X78931Y666D02*
X75755Y666D01*
X78931Y6540D02*
X78931Y9716D01*
X78931Y6540D02*
X75755Y6540D01*
X75755Y9716D01*
X78931Y9716D01*
X78931Y9556D02*
X75755Y9556D01*
X-38799Y68897D02*
X-38799Y72073D01*
X-35623Y72073D01*
X-35623Y68897D01*
X-38799Y68897D01*
X-38799Y71913D02*
X-35623Y71913D01*
X-38799Y63183D02*
X-38799Y60007D01*
X-38799Y63183D02*
X-35623Y63183D01*
X-35623Y60007D01*
X-38799Y60007D01*
X-38799Y63023D02*
X-35623Y63023D01*
X58357Y-82867D02*
X58357Y-86043D01*
X55181Y-86043D01*
X55181Y-82867D01*
X58357Y-82867D01*
X58357Y-83027D02*
X55181Y-83027D01*
X58357Y-77153D02*
X58357Y-73977D01*
X58357Y-77153D02*
X55181Y-77153D01*
X55181Y-73977D01*
X58357Y-73977D01*
X58357Y-74137D02*
X55181Y-74137D01*
X45657Y-82867D02*
X45657Y-86043D01*
X42481Y-86043D01*
X42481Y-82867D01*
X45657Y-82867D01*
X45657Y-83027D02*
X42481Y-83027D01*
X45657Y-77153D02*
X45657Y-73977D01*
X45657Y-77153D02*
X42481Y-77153D01*
X42481Y-73977D01*
X45657Y-73977D01*
X45657Y-74137D02*
X42481Y-74137D01*
X-43243Y-61913D02*
X-43243Y-58737D01*
X-43243Y-61913D02*
X-46419Y-61913D01*
X-46419Y-58737D01*
X-43243Y-58737D01*
X-43243Y-58897D02*
X-46419Y-58897D01*
X-43243Y-53023D02*
X-43243Y-49847D01*
X-43243Y-53023D02*
X-46419Y-53023D01*
X-46419Y-49847D01*
X-43243Y-49847D01*
X-43243Y-50007D02*
X-46419Y-50007D01*
X105092Y-38290D02*
X108268Y-38290D01*
X108268Y-41466D01*
X105092Y-41466D01*
X105092Y-38290D01*
X105092Y-38450D02*
X108268Y-38450D01*
X99378Y-38290D02*
X96202Y-38290D01*
X99378Y-38290D02*
X99378Y-41466D01*
X96202Y-41466D01*
X96202Y-38290D01*
X96202Y-38450D02*
X99378Y-38450D01*
X98362Y-4762D02*
X95186Y-4762D01*
X98362Y-4762D02*
X98362Y-7938D01*
X95186Y-7938D01*
X95186Y-4762D01*
X95186Y-4922D02*
X98362Y-4922D01*
X89472Y-4762D02*
X86296Y-4762D01*
X89472Y-4762D02*
X89472Y-7938D01*
X86296Y-7938D01*
X86296Y-4762D01*
X86296Y-4922D02*
X89472Y-4922D01*
X119951Y117158D02*
X123127Y117158D01*
X123127Y113982D01*
X119951Y113982D01*
X119951Y117158D01*
X119951Y116998D02*
X123127Y116998D01*
X114237Y117158D02*
X111061Y117158D01*
X114237Y117158D02*
X114237Y113982D01*
X111061Y113982D01*
X111061Y117158D01*
X111061Y116998D02*
X114237Y116998D01*
X119951Y128588D02*
X123127Y128588D01*
X123127Y125412D01*
X119951Y125412D01*
X119951Y128588D01*
X119951Y128428D02*
X123127Y128428D01*
X114237Y128588D02*
X111061Y128588D01*
X114237Y128588D02*
X114237Y125412D01*
X111061Y125412D01*
X111061Y128588D01*
X111061Y128428D02*
X114237Y128428D01*
X89472Y68262D02*
X86296Y68262D01*
X86296Y71438D01*
X89472Y71438D01*
X89472Y68262D01*
X89472Y71278D02*
X86296Y71278D01*
X95186Y68262D02*
X98362Y68262D01*
X95186Y68262D02*
X95186Y71438D01*
X98362Y71438D01*
X98362Y68262D01*
X98362Y71278D02*
X95186Y71278D01*
X89472Y79692D02*
X86296Y79692D01*
X86296Y82868D01*
X89472Y82868D01*
X89472Y79692D01*
X89472Y82708D02*
X86296Y82708D01*
X95186Y79692D02*
X98362Y79692D01*
X95186Y79692D02*
X95186Y82868D01*
X98362Y82868D01*
X98362Y79692D01*
X98362Y82708D02*
X95186Y82708D01*
D11*
X-5919Y-117041D02*
X-5919Y-119941D01*
X-5919Y-117041D02*
X-3019Y-117041D01*
X-3019Y-119941D01*
X-5919Y-119941D01*
X-5919Y-117186D02*
X-3019Y-117186D01*
X-15269Y-117041D02*
X-15269Y-119941D01*
X-15269Y-117041D02*
X-12369Y-117041D01*
X-12369Y-119941D01*
X-15269Y-119941D01*
X-15269Y-117186D02*
X-12369Y-117186D01*
X-6046Y-108130D02*
X-6046Y-105230D01*
X-3146Y-105230D01*
X-3146Y-108130D01*
X-6046Y-108130D01*
X-6046Y-105375D02*
X-3146Y-105375D01*
X-15396Y-105230D02*
X-15396Y-108130D01*
X-15396Y-105230D02*
X-12496Y-105230D01*
X-12496Y-108130D01*
X-15396Y-108130D01*
X-15396Y-105375D02*
X-12496Y-105375D01*
D12*
X-109109Y-32286D03*
X-109109Y-12286D03*
X-109109Y7714D03*
X-109109Y27714D03*
D13*
X-184109Y-56286D03*
X-184109Y51714D03*
D14*
X-132461Y118110D03*
X-123571Y97790D03*
X-141351Y97790D03*
X-93091Y118110D03*
X-84201Y97790D03*
X-101981Y97790D03*
D10*
X-124396Y134557D02*
X-127572Y134557D01*
X-124396Y134557D02*
X-124396Y131381D01*
X-127572Y131381D01*
X-127572Y134557D01*
X-127572Y134397D02*
X-124396Y134397D01*
X-133286Y134557D02*
X-136462Y134557D01*
X-133286Y134557D02*
X-133286Y131381D01*
X-136462Y131381D01*
X-136462Y134557D01*
X-136462Y134397D02*
X-133286Y134397D01*
X7683Y-120079D02*
X10859Y-120079D01*
X7683Y-120079D02*
X7683Y-116903D01*
X10859Y-116903D01*
X10859Y-120079D01*
X10859Y-117063D02*
X7683Y-117063D01*
X16573Y-120079D02*
X19749Y-120079D01*
X16573Y-120079D02*
X16573Y-116903D01*
X19749Y-116903D01*
X19749Y-120079D01*
X19749Y-117063D02*
X16573Y-117063D01*
X95186Y-27622D02*
X98362Y-27622D01*
X98362Y-30798D01*
X95186Y-30798D01*
X95186Y-27622D01*
X95186Y-27782D02*
X98362Y-27782D01*
X89472Y-27622D02*
X86296Y-27622D01*
X89472Y-27622D02*
X89472Y-30798D01*
X86296Y-30798D01*
X86296Y-27622D01*
X86296Y-27782D02*
X89472Y-27782D01*
X-12129Y68897D02*
X-12129Y72073D01*
X-8953Y72073D01*
X-8953Y68897D01*
X-12129Y68897D01*
X-12129Y71913D02*
X-8953Y71913D01*
X-12129Y63183D02*
X-12129Y60007D01*
X-12129Y63183D02*
X-8953Y63183D01*
X-8953Y60007D01*
X-12129Y60007D01*
X-12129Y63023D02*
X-8953Y63023D01*
X7556Y-108268D02*
X10732Y-108268D01*
X7556Y-108268D02*
X7556Y-105092D01*
X10732Y-105092D01*
X10732Y-108268D01*
X10732Y-105252D02*
X7556Y-105252D01*
X16446Y-108268D02*
X19622Y-108268D01*
X16446Y-108268D02*
X16446Y-105092D01*
X19622Y-105092D01*
X19622Y-108268D01*
X19622Y-105252D02*
X16446Y-105252D01*
X-134048Y77152D02*
X-137224Y77152D01*
X-137224Y80328D01*
X-134048Y80328D01*
X-134048Y77152D01*
X-134048Y80168D02*
X-137224Y80168D01*
X-128334Y77152D02*
X-125158Y77152D01*
X-128334Y77152D02*
X-128334Y80328D01*
X-125158Y80328D01*
X-125158Y77152D01*
X-125158Y80168D02*
X-128334Y80168D01*
X-89345Y134430D02*
X-86169Y134430D01*
X-86169Y131254D01*
X-89345Y131254D01*
X-89345Y134430D01*
X-89345Y134270D02*
X-86169Y134270D01*
X-95059Y134430D02*
X-98235Y134430D01*
X-95059Y134430D02*
X-95059Y131254D01*
X-98235Y131254D01*
X-98235Y134430D01*
X-98235Y134270D02*
X-95059Y134270D01*
X86296Y6540D02*
X89472Y6540D01*
X86296Y6540D02*
X86296Y9716D01*
X89472Y9716D01*
X89472Y6540D01*
X89472Y9556D02*
X86296Y9556D01*
X95186Y6540D02*
X98362Y6540D01*
X95186Y6540D02*
X95186Y9716D01*
X98362Y9716D01*
X98362Y6540D01*
X98362Y9556D02*
X95186Y9556D01*
X-89598Y80328D02*
X-92774Y80328D01*
X-89598Y80328D02*
X-89598Y77152D01*
X-92774Y77152D01*
X-92774Y80328D01*
X-92774Y80168D02*
X-89598Y80168D01*
X-98488Y80328D02*
X-101664Y80328D01*
X-98488Y80328D02*
X-98488Y77152D01*
X-101664Y77152D01*
X-101664Y80328D01*
X-101664Y80168D02*
X-98488Y80168D01*
X16955Y-93027D02*
X16955Y-96203D01*
X13779Y-96203D01*
X13779Y-93027D01*
X16955Y-93027D01*
X16955Y-93187D02*
X13779Y-93187D01*
X16955Y-87313D02*
X16955Y-84137D01*
X16955Y-87313D02*
X13779Y-87313D01*
X13779Y-84137D01*
X16955Y-84137D01*
X16955Y-84297D02*
X13779Y-84297D01*
D15*
X56319Y-33850D03*
X56319Y-28850D03*
X56319Y-23850D03*
X56319Y-18850D03*
X56319Y-13850D03*
X56319Y-8850D03*
X56319Y-3850D03*
X56319Y1150D03*
X56319Y6150D03*
X56319Y11150D03*
X56319Y16150D03*
X56319Y21150D03*
D16*
X39819Y37650D03*
X34819Y37650D03*
X29819Y37650D03*
X24819Y37650D03*
X19819Y37650D03*
X14819Y37650D03*
X9819Y37650D03*
X4819Y37650D03*
X-181Y37650D03*
X-5181Y37650D03*
X-10181Y37650D03*
X-15181Y37650D03*
D15*
X-31681Y21150D03*
X-31681Y16150D03*
X-31681Y11150D03*
X-31681Y6150D03*
X-31681Y1150D03*
X-31681Y-3850D03*
X-31681Y-8850D03*
X-31681Y-13850D03*
X-31681Y-18850D03*
X-31681Y-23850D03*
X-31681Y-28850D03*
X-31681Y-33850D03*
D16*
X-15181Y-50350D03*
X-10181Y-50350D03*
X-5181Y-50350D03*
X-181Y-50350D03*
X4819Y-50350D03*
X9819Y-50350D03*
X14819Y-50350D03*
X19819Y-50350D03*
X24819Y-50350D03*
X29819Y-50350D03*
X34819Y-50350D03*
X39819Y-50350D03*
D14*
X89789Y118110D03*
X98679Y97790D03*
X80899Y97790D03*
D10*
X2477Y63183D02*
X2477Y60007D01*
X-699Y60007D01*
X-699Y63183D01*
X2477Y63183D01*
X2477Y63023D02*
X-699Y63023D01*
X2477Y68897D02*
X2477Y72073D01*
X2477Y68897D02*
X-699Y68897D01*
X-699Y72073D01*
X2477Y72073D01*
X2477Y71913D02*
X-699Y71913D01*
X95186Y20638D02*
X98362Y20638D01*
X98362Y17462D01*
X95186Y17462D01*
X95186Y20638D01*
X95186Y20478D02*
X98362Y20478D01*
X89472Y20638D02*
X86296Y20638D01*
X89472Y20638D02*
X89472Y17462D01*
X86296Y17462D01*
X86296Y20638D01*
X86296Y20478D02*
X89472Y20478D01*
X95186Y32068D02*
X98362Y32068D01*
X98362Y28892D01*
X95186Y28892D01*
X95186Y32068D01*
X95186Y31908D02*
X98362Y31908D01*
X89472Y32068D02*
X86296Y32068D01*
X89472Y32068D02*
X89472Y28892D01*
X86296Y28892D01*
X86296Y32068D01*
X86296Y31908D02*
X89472Y31908D01*
X95186Y43498D02*
X98362Y43498D01*
X98362Y40322D01*
X95186Y40322D01*
X95186Y43498D01*
X95186Y43338D02*
X98362Y43338D01*
X89472Y43498D02*
X86296Y43498D01*
X89472Y43498D02*
X89472Y40322D01*
X86296Y40322D01*
X86296Y43498D01*
X86296Y43338D02*
X89472Y43338D01*
X67246Y68897D02*
X67246Y72073D01*
X70422Y72073D01*
X70422Y68897D01*
X67246Y68897D01*
X67246Y71913D02*
X70422Y71913D01*
X67246Y63183D02*
X67246Y60007D01*
X67246Y63183D02*
X70422Y63183D01*
X70422Y60007D01*
X67246Y60007D01*
X67246Y63023D02*
X70422Y63023D01*
X56324Y68897D02*
X56324Y72073D01*
X59500Y72073D01*
X59500Y68897D01*
X56324Y68897D01*
X56324Y71913D02*
X59500Y71913D01*
X56324Y63183D02*
X56324Y60007D01*
X56324Y63183D02*
X59500Y63183D01*
X59500Y60007D01*
X56324Y60007D01*
X56324Y63023D02*
X59500Y63023D01*
X45021Y68897D02*
X45021Y72073D01*
X48197Y72073D01*
X48197Y68897D01*
X45021Y68897D01*
X45021Y71913D02*
X48197Y71913D01*
X45021Y63183D02*
X45021Y60007D01*
X45021Y63183D02*
X48197Y63183D01*
X48197Y60007D01*
X45021Y60007D01*
X45021Y63023D02*
X48197Y63023D01*
X33591Y68897D02*
X33591Y72073D01*
X36767Y72073D01*
X36767Y68897D01*
X33591Y68897D01*
X33591Y71913D02*
X36767Y71913D01*
X33591Y63183D02*
X33591Y60007D01*
X33591Y63183D02*
X36767Y63183D01*
X36767Y60007D01*
X33591Y60007D01*
X33591Y63023D02*
X36767Y63023D01*
X13907Y63183D02*
X13907Y60007D01*
X10731Y60007D01*
X10731Y63183D01*
X13907Y63183D01*
X13907Y63023D02*
X10731Y63023D01*
X13907Y68897D02*
X13907Y72073D01*
X13907Y68897D02*
X10731Y68897D01*
X10731Y72073D01*
X13907Y72073D01*
X13907Y71913D02*
X10731Y71913D01*
X25337Y63183D02*
X25337Y60007D01*
X22161Y60007D01*
X22161Y63183D01*
X25337Y63183D01*
X25337Y63023D02*
X22161Y63023D01*
X25337Y68897D02*
X25337Y72073D01*
X25337Y68897D02*
X22161Y68897D01*
X22161Y72073D01*
X25337Y72073D01*
X25337Y71913D02*
X22161Y71913D01*
D17*
X-94488Y-135001D03*
X-94488Y-109601D03*
X-183388Y-109601D03*
X-183388Y-135001D03*
D10*
X-112332Y-87185D02*
X-109156Y-87185D01*
X-109156Y-90361D01*
X-112332Y-90361D01*
X-112332Y-87185D01*
X-112332Y-87345D02*
X-109156Y-87345D01*
X-118046Y-87185D02*
X-121222Y-87185D01*
X-118046Y-87185D02*
X-118046Y-90361D01*
X-121222Y-90361D01*
X-121222Y-87185D01*
X-121222Y-87345D02*
X-118046Y-87345D01*
X-62167Y-93282D02*
X-58991Y-93282D01*
X-62167Y-93282D02*
X-62167Y-90106D01*
X-58991Y-90106D01*
X-58991Y-93282D01*
X-58991Y-90266D02*
X-62167Y-90266D01*
X-53277Y-93282D02*
X-50101Y-93282D01*
X-53277Y-93282D02*
X-53277Y-90106D01*
X-50101Y-90106D01*
X-50101Y-93282D01*
X-50101Y-90266D02*
X-53277Y-90266D01*
D18*
X-16891Y105410D03*
X54229Y105410D03*
D10*
X95186Y-16192D02*
X98362Y-16192D01*
X98362Y-19368D01*
X95186Y-19368D01*
X95186Y-16192D01*
X95186Y-16352D02*
X98362Y-16352D01*
X89472Y-16192D02*
X86296Y-16192D01*
X89472Y-16192D02*
X89472Y-19368D01*
X86296Y-19368D01*
X86296Y-16192D01*
X86296Y-16352D02*
X89472Y-16352D01*
D19*
X109320Y158750D03*
X68480Y158750D03*
D10*
X-47053Y42863D02*
X-47053Y39687D01*
X-50229Y39687D01*
X-50229Y42863D01*
X-47053Y42863D01*
X-47053Y42703D02*
X-50229Y42703D01*
X-47053Y48577D02*
X-47053Y51753D01*
X-47053Y48577D02*
X-50229Y48577D01*
X-50229Y51753D01*
X-47053Y51753D01*
X-47053Y51593D02*
X-50229Y51593D01*
X-35623Y42863D02*
X-35623Y39687D01*
X-38799Y39687D01*
X-38799Y42863D01*
X-35623Y42863D01*
X-35623Y42703D02*
X-38799Y42703D01*
X-35623Y48577D02*
X-35623Y51753D01*
X-35623Y48577D02*
X-38799Y48577D01*
X-38799Y51753D01*
X-35623Y51753D01*
X-35623Y51593D02*
X-38799Y51593D01*
D20*
X106680Y-115570D03*
X63500Y-115570D03*
M02*
