G04 EAGLE Gerber RS-274X export*
G75*
%MOMM*%
%FSLAX34Y34*%
%LPD*%
%INBottom Copper*%
%IPPOS*%
%AMOC8*
5,1,8,0,0,1.08239X$1,22.5*%
G01*
%ADD10R,1.651000X1.651000*%
%ADD11C,1.651000*%
%ADD12R,1.508000X1.508000*%
%ADD13C,1.508000*%
%ADD14C,0.499997*%
%ADD15C,1.000000*%
%ADD16C,0.609600*%
%ADD17C,0.558800*%
%ADD18C,0.654800*%
%ADD19C,0.203200*%
%ADD20C,0.254000*%

G36*
X-391872Y-197317D02*
X-391872Y-197317D01*
X-391840Y-197311D01*
X-391749Y-197305D01*
X-388960Y-196805D01*
X-388929Y-196794D01*
X-388840Y-196773D01*
X-386170Y-195825D01*
X-386141Y-195809D01*
X-386057Y-195774D01*
X-383577Y-194405D01*
X-383551Y-194385D01*
X-383473Y-194336D01*
X-381249Y-192581D01*
X-381227Y-192557D01*
X-381158Y-192497D01*
X-379249Y-190403D01*
X-379231Y-190376D01*
X-379173Y-190305D01*
X-377630Y-187929D01*
X-377617Y-187899D01*
X-377571Y-187820D01*
X-376435Y-185224D01*
X-376427Y-185192D01*
X-376395Y-185107D01*
X-375915Y-183221D01*
X-373256Y-183221D01*
X-373364Y-183902D01*
X-373757Y-185207D01*
X-374167Y-186569D01*
X-374816Y-187995D01*
X-375320Y-189103D01*
X-376231Y-190551D01*
X-376802Y-191460D01*
X-378588Y-193597D01*
X-379338Y-194282D01*
X-379348Y-194295D01*
X-379360Y-194304D01*
X-379406Y-194375D01*
X-379456Y-194443D01*
X-379459Y-194458D01*
X-379468Y-194471D01*
X-379482Y-194554D01*
X-379501Y-194636D01*
X-379498Y-194652D01*
X-379501Y-194667D01*
X-379481Y-194749D01*
X-379467Y-194832D01*
X-379458Y-194845D01*
X-379455Y-194861D01*
X-379405Y-194929D01*
X-379359Y-194999D01*
X-379346Y-195008D01*
X-379337Y-195021D01*
X-379264Y-195064D01*
X-379195Y-195111D01*
X-379179Y-195114D01*
X-379166Y-195122D01*
X-379002Y-195150D01*
X58608Y-195272D01*
X58611Y-195271D01*
X58615Y-195272D01*
X58708Y-195252D01*
X58802Y-195232D01*
X58806Y-195230D01*
X58810Y-195229D01*
X60046Y-195272D01*
X60054Y-195271D01*
X60064Y-195272D01*
X60194Y-195272D01*
X60201Y-195271D01*
X60209Y-195272D01*
X65820Y-195100D01*
X65858Y-195091D01*
X65917Y-195087D01*
X76965Y-192536D01*
X77006Y-192517D01*
X77087Y-192490D01*
X87099Y-187165D01*
X87133Y-187137D01*
X87205Y-187090D01*
X95497Y-179355D01*
X95523Y-179319D01*
X95580Y-179255D01*
X101588Y-169638D01*
X101603Y-169596D01*
X101642Y-169519D01*
X104956Y-158675D01*
X104960Y-158636D01*
X104975Y-158579D01*
X105542Y-152947D01*
X105540Y-152925D01*
X105544Y-152897D01*
X105544Y159047D01*
X105538Y159079D01*
X105539Y159122D01*
X104893Y163366D01*
X104879Y163403D01*
X104869Y163461D01*
X101895Y171677D01*
X101872Y171715D01*
X101835Y171792D01*
X96836Y178958D01*
X96803Y178990D01*
X96782Y179014D01*
X96766Y179036D01*
X96761Y179039D01*
X96748Y179055D01*
X90064Y184683D01*
X90025Y184704D01*
X89954Y184753D01*
X82042Y188460D01*
X81998Y188470D01*
X81918Y188499D01*
X73315Y190031D01*
X73276Y190030D01*
X73218Y190039D01*
X70041Y189975D01*
X70034Y189974D01*
X70026Y189975D01*
X69937Y189952D01*
X69875Y189938D01*
X68699Y189938D01*
X68681Y189934D01*
X68656Y189936D01*
X67542Y189841D01*
X67498Y189865D01*
X67420Y189911D01*
X67410Y189913D01*
X67403Y189916D01*
X67364Y189920D01*
X67256Y189939D01*
X-379094Y190061D01*
X-379114Y190056D01*
X-379134Y190059D01*
X-379211Y190037D01*
X-379289Y190021D01*
X-379306Y190009D01*
X-379325Y190004D01*
X-379387Y189954D01*
X-379453Y189908D01*
X-379464Y189891D01*
X-379480Y189878D01*
X-379517Y189808D01*
X-379560Y189741D01*
X-379563Y189721D01*
X-379573Y189703D01*
X-379580Y189623D01*
X-379593Y189545D01*
X-379589Y189525D01*
X-379590Y189505D01*
X-379566Y189429D01*
X-379547Y189351D01*
X-379535Y189335D01*
X-379529Y189316D01*
X-379444Y189211D01*
X-379429Y189191D01*
X-379427Y189190D01*
X-379424Y189186D01*
X-378904Y188729D01*
X-377092Y186640D01*
X-375577Y184327D01*
X-374386Y181831D01*
X-373976Y180554D01*
X-376679Y180554D01*
X-377804Y183002D01*
X-377822Y183029D01*
X-377865Y183110D01*
X-379438Y185438D01*
X-379461Y185462D01*
X-379516Y185535D01*
X-381447Y187576D01*
X-381473Y187596D01*
X-381539Y187659D01*
X-383777Y189358D01*
X-383806Y189374D01*
X-383882Y189425D01*
X-386366Y190738D01*
X-386397Y190748D01*
X-386480Y190787D01*
X-389145Y191678D01*
X-389177Y191683D01*
X-389266Y191707D01*
X-392040Y192153D01*
X-392072Y192153D01*
X-392164Y192162D01*
X-394973Y192150D01*
X-394991Y192147D01*
X-395009Y192149D01*
X-395112Y192127D01*
X-395216Y192109D01*
X-395232Y192101D01*
X-395250Y192097D01*
X-395340Y192043D01*
X-395433Y191993D01*
X-395445Y191980D01*
X-395461Y191971D01*
X-395529Y191891D01*
X-395601Y191814D01*
X-395609Y191798D01*
X-395621Y191784D01*
X-395660Y191686D01*
X-395704Y191591D01*
X-395706Y191573D01*
X-395713Y191556D01*
X-395731Y191389D01*
X-395731Y172974D01*
X-395720Y172908D01*
X-395719Y172840D01*
X-395701Y172787D01*
X-395692Y172731D01*
X-395660Y172672D01*
X-395638Y172608D01*
X-395603Y172564D01*
X-395576Y172514D01*
X-395528Y172468D01*
X-395486Y172415D01*
X-395422Y172367D01*
X-395398Y172345D01*
X-395379Y172336D01*
X-395351Y172315D01*
X-379984Y163425D01*
X-379975Y163421D01*
X-379967Y163415D01*
X-379860Y163378D01*
X-379754Y163338D01*
X-379744Y163338D01*
X-379734Y163334D01*
X-379621Y163333D01*
X-379508Y163329D01*
X-379499Y163332D01*
X-379488Y163331D01*
X-379381Y163366D01*
X-379272Y163398D01*
X-379264Y163404D01*
X-379254Y163407D01*
X-379163Y163475D01*
X-379071Y163539D01*
X-379065Y163548D01*
X-379057Y163554D01*
X-378954Y163686D01*
X-377486Y166082D01*
X-377473Y166112D01*
X-377430Y166193D01*
X-376371Y168795D01*
X-376364Y168827D01*
X-376334Y168914D01*
X-375712Y171654D01*
X-375711Y171687D01*
X-375695Y171777D01*
X-375528Y174582D01*
X-375531Y174614D01*
X-375531Y174706D01*
X-375822Y177500D01*
X-375831Y177532D01*
X-375845Y177623D01*
X-376101Y178556D01*
X-373426Y178556D01*
X-373056Y176476D01*
X-372941Y173713D01*
X-373198Y170960D01*
X-373823Y168266D01*
X-374803Y165681D01*
X-374954Y165402D01*
X-375658Y164104D01*
X-375659Y164101D01*
X-375660Y164099D01*
X-375688Y164006D01*
X-375716Y163914D01*
X-375716Y163911D01*
X-375716Y163909D01*
X-375705Y163812D01*
X-375695Y163716D01*
X-375694Y163714D01*
X-375694Y163711D01*
X-375646Y163628D01*
X-375599Y163542D01*
X-375597Y163540D01*
X-375595Y163538D01*
X-375467Y163433D01*
X-345116Y146084D01*
X-345032Y146057D01*
X-344950Y146025D01*
X-344938Y146026D01*
X-344927Y146022D01*
X-344839Y146029D01*
X-344751Y146032D01*
X-344741Y146037D01*
X-344729Y146038D01*
X-344651Y146079D01*
X-344571Y146116D01*
X-344562Y146126D01*
X-344553Y146131D01*
X-344526Y146163D01*
X-344456Y146236D01*
X-343848Y147126D01*
X-343819Y147195D01*
X-343783Y147261D01*
X-343780Y147289D01*
X-343771Y147309D01*
X-343771Y147353D01*
X-343762Y147426D01*
X-343762Y147434D01*
X-343320Y147910D01*
X-343303Y147937D01*
X-343273Y147968D01*
X-342907Y148505D01*
X-342899Y148506D01*
X-342830Y148534D01*
X-342758Y148556D01*
X-342735Y148573D01*
X-342715Y148581D01*
X-342684Y148612D01*
X-342626Y148657D01*
X-341013Y150393D01*
X-340974Y150457D01*
X-340928Y150517D01*
X-340920Y150544D01*
X-340909Y150563D01*
X-340903Y150607D01*
X-340882Y150677D01*
X-340881Y150685D01*
X-340373Y151090D01*
X-340353Y151114D01*
X-340319Y151140D01*
X-339877Y151616D01*
X-339868Y151617D01*
X-339795Y151634D01*
X-339721Y151644D01*
X-339697Y151658D01*
X-339675Y151663D01*
X-339640Y151690D01*
X-339576Y151725D01*
X-337722Y153202D01*
X-337674Y153259D01*
X-337620Y153311D01*
X-337608Y153337D01*
X-337594Y153354D01*
X-337581Y153396D01*
X-337551Y153463D01*
X-337549Y153470D01*
X-336986Y153795D01*
X-336962Y153816D01*
X-336924Y153837D01*
X-336416Y154242D01*
X-336408Y154241D01*
X-336333Y154247D01*
X-336258Y154246D01*
X-336232Y154256D01*
X-336210Y154258D01*
X-336171Y154279D01*
X-336102Y154304D01*
X-334049Y155488D01*
X-333993Y155538D01*
X-333932Y155581D01*
X-333917Y155605D01*
X-333900Y155620D01*
X-333881Y155659D01*
X-333841Y155721D01*
X-333838Y155728D01*
X-333233Y155965D01*
X-333206Y155982D01*
X-333166Y155997D01*
X-332603Y156322D01*
X-332595Y156320D01*
X-332520Y156315D01*
X-332446Y156303D01*
X-332419Y156309D01*
X-332397Y156307D01*
X-332355Y156322D01*
X-332284Y156337D01*
X-330077Y157201D01*
X-330014Y157242D01*
X-329947Y157276D01*
X-329928Y157297D01*
X-329910Y157309D01*
X-329885Y157346D01*
X-329882Y157349D01*
X-329880Y157350D01*
X-329879Y157353D01*
X-329836Y157400D01*
X-329832Y157407D01*
X-329199Y157551D01*
X-329170Y157565D01*
X-329127Y157573D01*
X-328523Y157810D01*
X-328515Y157807D01*
X-328442Y157791D01*
X-328371Y157768D01*
X-328342Y157770D01*
X-328321Y157765D01*
X-328278Y157774D01*
X-328204Y157778D01*
X-325893Y158304D01*
X-325825Y158335D01*
X-325754Y158359D01*
X-325732Y158377D01*
X-325712Y158386D01*
X-325682Y158418D01*
X-325626Y158465D01*
X-325621Y158471D01*
X-324973Y158519D01*
X-324942Y158528D01*
X-324899Y158530D01*
X-324266Y158674D01*
X-324259Y158670D01*
X-324189Y158643D01*
X-324122Y158610D01*
X-324094Y158607D01*
X-324073Y158600D01*
X-324029Y158601D01*
X-323956Y158595D01*
X-321592Y158770D01*
X-321520Y158791D01*
X-321446Y158804D01*
X-321422Y158818D01*
X-321401Y158824D01*
X-321367Y158852D01*
X-321304Y158890D01*
X-321298Y158895D01*
X-320650Y158846D01*
X-320619Y158850D01*
X-320576Y158846D01*
X-319928Y158894D01*
X-319922Y158889D01*
X-319856Y158852D01*
X-319795Y158809D01*
X-319768Y158802D01*
X-319748Y158792D01*
X-319705Y158787D01*
X-319633Y158769D01*
X-317270Y158591D01*
X-317196Y158600D01*
X-317121Y158602D01*
X-317095Y158613D01*
X-317073Y158615D01*
X-317035Y158637D01*
X-316967Y158665D01*
X-316960Y158670D01*
X-316327Y158525D01*
X-316295Y158524D01*
X-316253Y158514D01*
X-315606Y158465D01*
X-315600Y158459D01*
X-315541Y158413D01*
X-315487Y158361D01*
X-315461Y158350D01*
X-315443Y158337D01*
X-315401Y158325D01*
X-315333Y158297D01*
X-313023Y157769D01*
X-312948Y157767D01*
X-312873Y157757D01*
X-312846Y157764D01*
X-312824Y157764D01*
X-312783Y157780D01*
X-312712Y157798D01*
X-312704Y157801D01*
X-312100Y157563D01*
X-312069Y157558D01*
X-312029Y157541D01*
X-311396Y157396D01*
X-311391Y157389D01*
X-311340Y157335D01*
X-311294Y157276D01*
X-311269Y157261D01*
X-311254Y157245D01*
X-311214Y157228D01*
X-311151Y157190D01*
X-308945Y156323D01*
X-308872Y156310D01*
X-308799Y156289D01*
X-308771Y156292D01*
X-308749Y156288D01*
X-308707Y156298D01*
X-308634Y156305D01*
X-308626Y156307D01*
X-308063Y155982D01*
X-308033Y155972D01*
X-307996Y155950D01*
X-307392Y155712D01*
X-307389Y155705D01*
X-307346Y155643D01*
X-307309Y155578D01*
X-307287Y155560D01*
X-307274Y155542D01*
X-307237Y155518D01*
X-307181Y155472D01*
X-305129Y154285D01*
X-305058Y154262D01*
X-304989Y154231D01*
X-304961Y154229D01*
X-304940Y154222D01*
X-304896Y154226D01*
X-304823Y154221D01*
X-304815Y154222D01*
X-304308Y153817D01*
X-304280Y153803D01*
X-304246Y153775D01*
X-303684Y153450D01*
X-303682Y153442D01*
X-303648Y153375D01*
X-303622Y153305D01*
X-303603Y153284D01*
X-303593Y153264D01*
X-303560Y153235D01*
X-303511Y153181D01*
X-301659Y151702D01*
X-301592Y151668D01*
X-301529Y151627D01*
X-301501Y151621D01*
X-301482Y151611D01*
X-301438Y151608D01*
X-301366Y151593D01*
X-301358Y151593D01*
X-300917Y151117D01*
X-300891Y151098D01*
X-300862Y151066D01*
X-300354Y150660D01*
X-300354Y150652D01*
X-300330Y150581D01*
X-300315Y150508D01*
X-300311Y150503D01*
X-300310Y150498D01*
X-300299Y150482D01*
X-300292Y150463D01*
X-300264Y150430D01*
X-300224Y150369D01*
X-298612Y148630D01*
X-298552Y148586D01*
X-298495Y148537D01*
X-298469Y148527D01*
X-298451Y148514D01*
X-298408Y148504D01*
X-298339Y148479D01*
X-298331Y148478D01*
X-297966Y147941D01*
X-297943Y147919D01*
X-297919Y147882D01*
X-297478Y147406D01*
X-297478Y147398D01*
X-297466Y147324D01*
X-297461Y147249D01*
X-297450Y147223D01*
X-297446Y147202D01*
X-297422Y147164D01*
X-297392Y147098D01*
X-296058Y145139D01*
X-296004Y145086D01*
X-295956Y145029D01*
X-295931Y145015D01*
X-295916Y145000D01*
X-295874Y144984D01*
X-295810Y144949D01*
X-295803Y144946D01*
X-295521Y144361D01*
X-295502Y144335D01*
X-295484Y144296D01*
X-295119Y143759D01*
X-295120Y143751D01*
X-295119Y143676D01*
X-295126Y143601D01*
X-295118Y143574D01*
X-295118Y143552D01*
X-295100Y143512D01*
X-295080Y143442D01*
X-294052Y141306D01*
X-294007Y141246D01*
X-293968Y141182D01*
X-293946Y141165D01*
X-293932Y141147D01*
X-293894Y141125D01*
X-293836Y141081D01*
X-293829Y141077D01*
X-293638Y140456D01*
X-293623Y140428D01*
X-293611Y140387D01*
X-293329Y139801D01*
X-293332Y139794D01*
X-293342Y139719D01*
X-293360Y139646D01*
X-293356Y139618D01*
X-293359Y139597D01*
X-293347Y139554D01*
X-293338Y139482D01*
X-292641Y137216D01*
X-292605Y137150D01*
X-292576Y137081D01*
X-292556Y137061D01*
X-292545Y137042D01*
X-292511Y137014D01*
X-292460Y136962D01*
X-292454Y136957D01*
X-292357Y136315D01*
X-292346Y136285D01*
X-292341Y136242D01*
X-292150Y135621D01*
X-292153Y135614D01*
X-292175Y135542D01*
X-292203Y135472D01*
X-292203Y135444D01*
X-292210Y135423D01*
X-292204Y135379D01*
X-292206Y135306D01*
X-291854Y132962D01*
X-291828Y132892D01*
X-291810Y132819D01*
X-291793Y132796D01*
X-291786Y132775D01*
X-291756Y132743D01*
X-291714Y132683D01*
X-291708Y132678D01*
X-291708Y132028D01*
X-291702Y131997D01*
X-291703Y131954D01*
X-291606Y131312D01*
X-291611Y131305D01*
X-291643Y131237D01*
X-291681Y131173D01*
X-291686Y131145D01*
X-291695Y131125D01*
X-291697Y131081D01*
X-291709Y131009D01*
X-291710Y128638D01*
X-291695Y128565D01*
X-291688Y128490D01*
X-291675Y128465D01*
X-291671Y128444D01*
X-291646Y128407D01*
X-291613Y128342D01*
X-291608Y128335D01*
X-291705Y127693D01*
X-291704Y127661D01*
X-291711Y127619D01*
X-291711Y126969D01*
X-291717Y126963D01*
X-291759Y126901D01*
X-291806Y126843D01*
X-291815Y126816D01*
X-291827Y126798D01*
X-291835Y126754D01*
X-291858Y126685D01*
X-292212Y124342D01*
X-292209Y124267D01*
X-292212Y124192D01*
X-292204Y124165D01*
X-292202Y124143D01*
X-292183Y124103D01*
X-292160Y124034D01*
X-292157Y124027D01*
X-292348Y123406D01*
X-292352Y123374D01*
X-292365Y123333D01*
X-292462Y122691D01*
X-292469Y122686D01*
X-292519Y122631D01*
X-292575Y122580D01*
X-292587Y122555D01*
X-292602Y122539D01*
X-292617Y122497D01*
X-292650Y122432D01*
X-293350Y120167D01*
X-293357Y120093D01*
X-293372Y120019D01*
X-293367Y119991D01*
X-293369Y119970D01*
X-293356Y119928D01*
X-293344Y119855D01*
X-293341Y119848D01*
X-293623Y119263D01*
X-293631Y119232D01*
X-293651Y119193D01*
X-293842Y118573D01*
X-293850Y118569D01*
X-293908Y118521D01*
X-293970Y118480D01*
X-293986Y118457D01*
X-294004Y118443D01*
X-294024Y118404D01*
X-294066Y118344D01*
X-294408Y117635D01*
X-294431Y117547D01*
X-294456Y117461D01*
X-294455Y117451D01*
X-294457Y117442D01*
X-294444Y117353D01*
X-294433Y117263D01*
X-294429Y117255D01*
X-294427Y117246D01*
X-294380Y117169D01*
X-294335Y117090D01*
X-294327Y117084D01*
X-294323Y117077D01*
X-294291Y117054D01*
X-294207Y116985D01*
X-262507Y98866D01*
X-262437Y98842D01*
X-262368Y98812D01*
X-262343Y98811D01*
X-262319Y98803D01*
X-262244Y98809D01*
X-262169Y98808D01*
X-262146Y98817D01*
X-262120Y98820D01*
X-262054Y98854D01*
X-261985Y98882D01*
X-261964Y98902D01*
X-261944Y98912D01*
X-261916Y98946D01*
X-261863Y98996D01*
X-261709Y99197D01*
X-260589Y100661D01*
X-258547Y102707D01*
X-256256Y104470D01*
X-253754Y105918D01*
X-251084Y107028D01*
X-248292Y107779D01*
X-245427Y108160D01*
X-242536Y108164D01*
X-239669Y107790D01*
X-238031Y107353D01*
X-238031Y104676D01*
X-238298Y104781D01*
X-238332Y104787D01*
X-238378Y104805D01*
X-241491Y105463D01*
X-241526Y105463D01*
X-241574Y105473D01*
X-244753Y105603D01*
X-244788Y105597D01*
X-244837Y105599D01*
X-247993Y105196D01*
X-248026Y105185D01*
X-248075Y105179D01*
X-251120Y104256D01*
X-251151Y104239D01*
X-251198Y104225D01*
X-254046Y102806D01*
X-254074Y102785D01*
X-254117Y102763D01*
X-256690Y100890D01*
X-256713Y100864D01*
X-256753Y100835D01*
X-258976Y98559D01*
X-258995Y98529D01*
X-259029Y98494D01*
X-260842Y95879D01*
X-260854Y95852D01*
X-260873Y95830D01*
X-260893Y95762D01*
X-260921Y95697D01*
X-260921Y95667D01*
X-260929Y95639D01*
X-260921Y95569D01*
X-260922Y95498D01*
X-260910Y95471D01*
X-260907Y95441D01*
X-260872Y95380D01*
X-260845Y95314D01*
X-260824Y95294D01*
X-260809Y95268D01*
X-260734Y95206D01*
X-260703Y95176D01*
X-260692Y95171D01*
X-260681Y95162D01*
X-244431Y85806D01*
X-244431Y67095D01*
X-244425Y67066D01*
X-244428Y67036D01*
X-244406Y66969D01*
X-244392Y66900D01*
X-244375Y66876D01*
X-244366Y66847D01*
X-244319Y66794D01*
X-244279Y66736D01*
X-244254Y66720D01*
X-244234Y66698D01*
X-244171Y66667D01*
X-244112Y66629D01*
X-244082Y66624D01*
X-244055Y66611D01*
X-243958Y66603D01*
X-243915Y66596D01*
X-243904Y66599D01*
X-243890Y66598D01*
X-240719Y66868D01*
X-240686Y66878D01*
X-240637Y66882D01*
X-238031Y67554D01*
X-238031Y64864D01*
X-239617Y64437D01*
X-241565Y64178D01*
X-241636Y64153D01*
X-241709Y64136D01*
X-241729Y64121D01*
X-241753Y64113D01*
X-241809Y64063D01*
X-241869Y64018D01*
X-241882Y63997D01*
X-241900Y63980D01*
X-241932Y63912D01*
X-241971Y63847D01*
X-241975Y63820D01*
X-241984Y63800D01*
X-241986Y63756D01*
X-241998Y63683D01*
X-241998Y27444D01*
X-241980Y27356D01*
X-241966Y27268D01*
X-241961Y27259D01*
X-241959Y27249D01*
X-241908Y27175D01*
X-241861Y27100D01*
X-241852Y27094D01*
X-241846Y27085D01*
X-241771Y27037D01*
X-241698Y26986D01*
X-241687Y26983D01*
X-241679Y26978D01*
X-241639Y26971D01*
X-241536Y26946D01*
X-240585Y26875D01*
X-240510Y26884D01*
X-240435Y26886D01*
X-240409Y26897D01*
X-240387Y26899D01*
X-240349Y26922D01*
X-240322Y26933D01*
X-240319Y26934D01*
X-240318Y26935D01*
X-240282Y26950D01*
X-240275Y26954D01*
X-239642Y26809D01*
X-239610Y26809D01*
X-239568Y26798D01*
X-238920Y26750D01*
X-238915Y26744D01*
X-238856Y26698D01*
X-238801Y26646D01*
X-238775Y26635D01*
X-238758Y26622D01*
X-238715Y26611D01*
X-238648Y26583D01*
X-236333Y26054D01*
X-236258Y26052D01*
X-236183Y26043D01*
X-236156Y26050D01*
X-236134Y26049D01*
X-236093Y26066D01*
X-236022Y26083D01*
X-236015Y26087D01*
X-235410Y25849D01*
X-235379Y25844D01*
X-235339Y25827D01*
X-234705Y25683D01*
X-234701Y25676D01*
X-234649Y25622D01*
X-234603Y25563D01*
X-234579Y25548D01*
X-234564Y25532D01*
X-234524Y25515D01*
X-234461Y25477D01*
X-232251Y24609D01*
X-232177Y24596D01*
X-232104Y24576D01*
X-232076Y24579D01*
X-232055Y24575D01*
X-232012Y24585D01*
X-231939Y24592D01*
X-231931Y24594D01*
X-231369Y24269D01*
X-231338Y24259D01*
X-231301Y24237D01*
X-230697Y24000D01*
X-230693Y23992D01*
X-230650Y23931D01*
X-230614Y23865D01*
X-230592Y23847D01*
X-230579Y23829D01*
X-230542Y23806D01*
X-230485Y23759D01*
X-228429Y22572D01*
X-228358Y22548D01*
X-228290Y22518D01*
X-228262Y22516D01*
X-228241Y22509D01*
X-228197Y22512D01*
X-228124Y22508D01*
X-228116Y22509D01*
X-227608Y22104D01*
X-227580Y22090D01*
X-227546Y22062D01*
X-226984Y21738D01*
X-226982Y21730D01*
X-226965Y21696D01*
X-226964Y21691D01*
X-226960Y21687D01*
X-226948Y21663D01*
X-226922Y21593D01*
X-226903Y21572D01*
X-226893Y21552D01*
X-226859Y21523D01*
X-226811Y21469D01*
X-224954Y19988D01*
X-224887Y19954D01*
X-224825Y19914D01*
X-224797Y19908D01*
X-224777Y19898D01*
X-224733Y19895D01*
X-224662Y19880D01*
X-224653Y19879D01*
X-224212Y19403D01*
X-224186Y19385D01*
X-224157Y19352D01*
X-223649Y18948D01*
X-223648Y18940D01*
X-223625Y18868D01*
X-223609Y18795D01*
X-223594Y18771D01*
X-223587Y18750D01*
X-223558Y18717D01*
X-223518Y18656D01*
X-221903Y16915D01*
X-221842Y16872D01*
X-221786Y16822D01*
X-221760Y16812D01*
X-221742Y16799D01*
X-221699Y16790D01*
X-221630Y16764D01*
X-221622Y16763D01*
X-221256Y16226D01*
X-221233Y16204D01*
X-221210Y16168D01*
X-220768Y15692D01*
X-220768Y15683D01*
X-220756Y15610D01*
X-220751Y15535D01*
X-220739Y15509D01*
X-220736Y15487D01*
X-220712Y15450D01*
X-220682Y15384D01*
X-219344Y13422D01*
X-219291Y13369D01*
X-219242Y13312D01*
X-219218Y13298D01*
X-219202Y13283D01*
X-219161Y13267D01*
X-219097Y13232D01*
X-219089Y13229D01*
X-218807Y12644D01*
X-218788Y12619D01*
X-218770Y12579D01*
X-218404Y12043D01*
X-218405Y12035D01*
X-218404Y11960D01*
X-218411Y11885D01*
X-218403Y11858D01*
X-218403Y11836D01*
X-218385Y11795D01*
X-218365Y11725D01*
X-217335Y9586D01*
X-217289Y9526D01*
X-217250Y9462D01*
X-217228Y9445D01*
X-217214Y9428D01*
X-217176Y9406D01*
X-217118Y9361D01*
X-217111Y9357D01*
X-216919Y8737D01*
X-216908Y8715D01*
X-216907Y8711D01*
X-216904Y8707D01*
X-216892Y8667D01*
X-216610Y8082D01*
X-216613Y8075D01*
X-216623Y8000D01*
X-216641Y7927D01*
X-216637Y7899D01*
X-216640Y7878D01*
X-216628Y7835D01*
X-216619Y7762D01*
X-215919Y5494D01*
X-215883Y5428D01*
X-215854Y5359D01*
X-215834Y5338D01*
X-215824Y5319D01*
X-215789Y5292D01*
X-215738Y5239D01*
X-215732Y5234D01*
X-215635Y4592D01*
X-215624Y4562D01*
X-215618Y4519D01*
X-215427Y3898D01*
X-215431Y3891D01*
X-215452Y3819D01*
X-215480Y3750D01*
X-215481Y3722D01*
X-215487Y3701D01*
X-215482Y3657D01*
X-215483Y3584D01*
X-215129Y1236D01*
X-215103Y1165D01*
X-215085Y1093D01*
X-215069Y1070D01*
X-215061Y1049D01*
X-215031Y1017D01*
X-214989Y957D01*
X-214983Y951D01*
X-214983Y302D01*
X-214976Y271D01*
X-214977Y227D01*
X-214880Y-415D01*
X-214885Y-421D01*
X-214917Y-489D01*
X-214955Y-554D01*
X-214960Y-582D01*
X-214969Y-602D01*
X-214971Y-646D01*
X-214983Y-718D01*
X-214983Y-3092D01*
X-214968Y-3166D01*
X-214960Y-3240D01*
X-214948Y-3265D01*
X-214943Y-3287D01*
X-214918Y-3323D01*
X-214885Y-3389D01*
X-214880Y-3395D01*
X-214977Y-4037D01*
X-214976Y-4069D01*
X-214983Y-4112D01*
X-214983Y-4761D01*
X-214989Y-4767D01*
X-215030Y-4830D01*
X-215077Y-4888D01*
X-215086Y-4915D01*
X-215098Y-4933D01*
X-215106Y-4976D01*
X-215129Y-5046D01*
X-215483Y-7394D01*
X-215479Y-7469D01*
X-215483Y-7543D01*
X-215474Y-7570D01*
X-215473Y-7592D01*
X-215454Y-7632D01*
X-215431Y-7701D01*
X-215427Y-7708D01*
X-215618Y-8329D01*
X-215622Y-8361D01*
X-215635Y-8402D01*
X-215732Y-9044D01*
X-215738Y-9049D01*
X-215789Y-9105D01*
X-215844Y-9155D01*
X-215857Y-9180D01*
X-215872Y-9197D01*
X-215886Y-9238D01*
X-215919Y-9304D01*
X-216619Y-11572D01*
X-216626Y-11647D01*
X-216641Y-11720D01*
X-216636Y-11748D01*
X-216638Y-11770D01*
X-216625Y-11812D01*
X-216613Y-11884D01*
X-216610Y-11892D01*
X-216892Y-12477D01*
X-216900Y-12508D01*
X-216919Y-12547D01*
X-217111Y-13167D01*
X-217118Y-13171D01*
X-217176Y-13219D01*
X-217238Y-13260D01*
X-217255Y-13283D01*
X-217272Y-13297D01*
X-217292Y-13336D01*
X-217335Y-13396D01*
X-218365Y-15535D01*
X-218383Y-15608D01*
X-218409Y-15678D01*
X-218408Y-15707D01*
X-218414Y-15728D01*
X-218407Y-15772D01*
X-218405Y-15845D01*
X-218404Y-15853D01*
X-218770Y-16389D01*
X-218782Y-16419D01*
X-218807Y-16454D01*
X-219089Y-17039D01*
X-219097Y-17042D01*
X-219161Y-17080D01*
X-219229Y-17112D01*
X-219248Y-17132D01*
X-219267Y-17143D01*
X-219294Y-17179D01*
X-219302Y-17188D01*
X-219309Y-17192D01*
X-219313Y-17199D01*
X-219344Y-17232D01*
X-220682Y-19194D01*
X-220711Y-19263D01*
X-220747Y-19328D01*
X-220750Y-19357D01*
X-220759Y-19377D01*
X-220759Y-19421D01*
X-220768Y-19493D01*
X-220768Y-19502D01*
X-221210Y-19978D01*
X-221226Y-20005D01*
X-221256Y-20036D01*
X-221622Y-20573D01*
X-221630Y-20574D01*
X-221699Y-20603D01*
X-221771Y-20624D01*
X-221794Y-20641D01*
X-221814Y-20649D01*
X-221845Y-20681D01*
X-221903Y-20725D01*
X-223518Y-22466D01*
X-223557Y-22530D01*
X-223602Y-22590D01*
X-223610Y-22617D01*
X-223622Y-22636D01*
X-223628Y-22679D01*
X-223648Y-22749D01*
X-223649Y-22757D01*
X-224157Y-23162D01*
X-224172Y-23180D01*
X-224176Y-23183D01*
X-224180Y-23189D01*
X-224212Y-23213D01*
X-224653Y-23689D01*
X-224662Y-23690D01*
X-224735Y-23707D01*
X-224809Y-23718D01*
X-224833Y-23731D01*
X-224855Y-23737D01*
X-224890Y-23763D01*
X-224954Y-23798D01*
X-226811Y-25279D01*
X-226859Y-25336D01*
X-226912Y-25388D01*
X-226924Y-25414D01*
X-226938Y-25431D01*
X-226951Y-25473D01*
X-226982Y-25540D01*
X-226984Y-25548D01*
X-227546Y-25872D01*
X-227570Y-25894D01*
X-227608Y-25914D01*
X-228116Y-26319D01*
X-228124Y-26318D01*
X-228198Y-26325D01*
X-228273Y-26324D01*
X-228300Y-26334D01*
X-228322Y-26336D01*
X-228361Y-26357D01*
X-228429Y-26382D01*
X-230485Y-27569D01*
X-230542Y-27619D01*
X-230602Y-27663D01*
X-230618Y-27686D01*
X-230634Y-27701D01*
X-230653Y-27741D01*
X-230693Y-27802D01*
X-230697Y-27810D01*
X-231301Y-28047D01*
X-231323Y-28061D01*
X-231333Y-28063D01*
X-231343Y-28070D01*
X-231369Y-28079D01*
X-231931Y-28404D01*
X-231939Y-28402D01*
X-232014Y-28397D01*
X-232088Y-28385D01*
X-232115Y-28391D01*
X-232137Y-28390D01*
X-232179Y-28404D01*
X-232251Y-28419D01*
X-233743Y-29005D01*
X-233756Y-29014D01*
X-233771Y-29017D01*
X-233839Y-29067D01*
X-233910Y-29113D01*
X-233919Y-29126D01*
X-233931Y-29135D01*
X-233974Y-29208D01*
X-234022Y-29278D01*
X-234025Y-29293D01*
X-234033Y-29306D01*
X-234060Y-29470D01*
X-234060Y-33140D01*
X-234058Y-33152D01*
X-234060Y-33164D01*
X-234038Y-33249D01*
X-234021Y-33334D01*
X-234014Y-33345D01*
X-234010Y-33357D01*
X-233914Y-33493D01*
X-232056Y-35350D01*
X-232056Y-39326D01*
X-234867Y-42137D01*
X-238843Y-42137D01*
X-241146Y-39833D01*
X-241150Y-39831D01*
X-241152Y-39828D01*
X-241232Y-39777D01*
X-241312Y-39724D01*
X-241316Y-39723D01*
X-241319Y-39721D01*
X-241413Y-39705D01*
X-241507Y-39687D01*
X-241511Y-39688D01*
X-241516Y-39687D01*
X-241607Y-39709D01*
X-241701Y-39730D01*
X-241705Y-39733D01*
X-241709Y-39734D01*
X-241785Y-39790D01*
X-241864Y-39845D01*
X-241866Y-39849D01*
X-241869Y-39851D01*
X-241918Y-39933D01*
X-241968Y-40015D01*
X-241968Y-40019D01*
X-241971Y-40022D01*
X-241998Y-40186D01*
X-241998Y-67495D01*
X-241983Y-67570D01*
X-241975Y-67645D01*
X-241963Y-67666D01*
X-241959Y-67690D01*
X-241916Y-67753D01*
X-241879Y-67819D01*
X-241860Y-67834D01*
X-241846Y-67854D01*
X-241782Y-67895D01*
X-241722Y-67942D01*
X-241696Y-67949D01*
X-241679Y-67961D01*
X-241635Y-67968D01*
X-241563Y-67990D01*
X-241511Y-67997D01*
X-239747Y-68224D01*
X-238031Y-68671D01*
X-238031Y-71364D01*
X-240637Y-70692D01*
X-240672Y-70690D01*
X-240719Y-70678D01*
X-243890Y-70408D01*
X-243919Y-70411D01*
X-243949Y-70406D01*
X-244017Y-70422D01*
X-244087Y-70430D01*
X-244113Y-70445D01*
X-244142Y-70452D01*
X-244199Y-70494D01*
X-244260Y-70529D01*
X-244278Y-70552D01*
X-244302Y-70570D01*
X-244338Y-70630D01*
X-244381Y-70687D01*
X-244388Y-70715D01*
X-244404Y-70741D01*
X-244420Y-70837D01*
X-244431Y-70879D01*
X-244429Y-70891D01*
X-244431Y-70905D01*
X-244431Y-89616D01*
X-260681Y-98972D01*
X-260703Y-98992D01*
X-260730Y-99004D01*
X-260777Y-99057D01*
X-260830Y-99104D01*
X-260843Y-99130D01*
X-260863Y-99152D01*
X-260886Y-99219D01*
X-260916Y-99283D01*
X-260918Y-99313D01*
X-260927Y-99340D01*
X-260922Y-99411D01*
X-260925Y-99482D01*
X-260915Y-99510D01*
X-260913Y-99539D01*
X-260872Y-99627D01*
X-260869Y-99638D01*
X-260866Y-99642D01*
X-260856Y-99668D01*
X-260848Y-99677D01*
X-260842Y-99689D01*
X-259029Y-102304D01*
X-259004Y-102329D01*
X-258976Y-102369D01*
X-256753Y-104645D01*
X-256724Y-104665D01*
X-256690Y-104700D01*
X-254117Y-106573D01*
X-254086Y-106588D01*
X-254046Y-106616D01*
X-251198Y-108035D01*
X-251164Y-108044D01*
X-251120Y-108066D01*
X-248075Y-108989D01*
X-248040Y-108992D01*
X-247993Y-109006D01*
X-244837Y-109409D01*
X-244802Y-109406D01*
X-244753Y-109413D01*
X-241574Y-109283D01*
X-241540Y-109275D01*
X-241491Y-109273D01*
X-238378Y-108615D01*
X-238346Y-108601D01*
X-238298Y-108591D01*
X-238031Y-108486D01*
X-238031Y-111191D01*
X-240489Y-111743D01*
X-243280Y-112006D01*
X-246082Y-111914D01*
X-248849Y-111468D01*
X-251538Y-110675D01*
X-254104Y-109548D01*
X-256508Y-108105D01*
X-258709Y-106370D01*
X-260673Y-104370D01*
X-261847Y-102823D01*
X-261905Y-102772D01*
X-261957Y-102717D01*
X-261979Y-102707D01*
X-261996Y-102692D01*
X-262069Y-102668D01*
X-262140Y-102637D01*
X-262163Y-102637D01*
X-262185Y-102629D01*
X-262262Y-102636D01*
X-262339Y-102635D01*
X-262363Y-102644D01*
X-262383Y-102646D01*
X-262422Y-102666D01*
X-262494Y-102693D01*
X-293758Y-120781D01*
X-293824Y-120840D01*
X-293893Y-120896D01*
X-293898Y-120906D01*
X-293906Y-120913D01*
X-293945Y-120993D01*
X-293986Y-121072D01*
X-293987Y-121083D01*
X-293992Y-121092D01*
X-293996Y-121181D01*
X-294004Y-121270D01*
X-294000Y-121281D01*
X-294001Y-121291D01*
X-293986Y-121329D01*
X-293957Y-121430D01*
X-293485Y-122408D01*
X-293440Y-122468D01*
X-293401Y-122532D01*
X-293378Y-122549D01*
X-293365Y-122567D01*
X-293327Y-122588D01*
X-293269Y-122633D01*
X-293261Y-122637D01*
X-293070Y-123257D01*
X-293054Y-123285D01*
X-293042Y-123327D01*
X-292760Y-123912D01*
X-292763Y-123919D01*
X-292773Y-123994D01*
X-292790Y-124067D01*
X-292787Y-124095D01*
X-292790Y-124116D01*
X-292778Y-124159D01*
X-292769Y-124231D01*
X-292069Y-126496D01*
X-292033Y-126561D01*
X-292003Y-126631D01*
X-291984Y-126651D01*
X-291973Y-126670D01*
X-291939Y-126698D01*
X-291888Y-126750D01*
X-291881Y-126755D01*
X-291784Y-127397D01*
X-291773Y-127427D01*
X-291767Y-127470D01*
X-291576Y-128091D01*
X-291579Y-128098D01*
X-291600Y-128170D01*
X-291629Y-128239D01*
X-291629Y-128267D01*
X-291635Y-128289D01*
X-291630Y-128332D01*
X-291631Y-128406D01*
X-291277Y-130749D01*
X-291251Y-130819D01*
X-291232Y-130892D01*
X-291216Y-130915D01*
X-291208Y-130936D01*
X-291178Y-130968D01*
X-291136Y-131027D01*
X-291130Y-131033D01*
X-291130Y-131683D01*
X-291123Y-131714D01*
X-291124Y-131757D01*
X-291027Y-132399D01*
X-291032Y-132406D01*
X-291063Y-132474D01*
X-291102Y-132538D01*
X-291106Y-132566D01*
X-291116Y-132586D01*
X-291117Y-132630D01*
X-291129Y-132702D01*
X-291128Y-135073D01*
X-291113Y-135146D01*
X-291105Y-135221D01*
X-291092Y-135246D01*
X-291088Y-135267D01*
X-291063Y-135304D01*
X-291030Y-135369D01*
X-291025Y-135375D01*
X-291122Y-136018D01*
X-291120Y-136050D01*
X-291127Y-136092D01*
X-291127Y-136742D01*
X-291133Y-136747D01*
X-291174Y-136810D01*
X-291221Y-136868D01*
X-291230Y-136895D01*
X-291242Y-136913D01*
X-291250Y-136957D01*
X-291273Y-137026D01*
X-291625Y-139370D01*
X-291621Y-139445D01*
X-291625Y-139520D01*
X-291616Y-139547D01*
X-291615Y-139569D01*
X-291595Y-139608D01*
X-291572Y-139678D01*
X-291569Y-139685D01*
X-291760Y-140306D01*
X-291763Y-140337D01*
X-291776Y-140379D01*
X-291873Y-141021D01*
X-291879Y-141026D01*
X-291929Y-141081D01*
X-291985Y-141132D01*
X-291998Y-141157D01*
X-292012Y-141173D01*
X-292027Y-141215D01*
X-292060Y-141280D01*
X-292757Y-143546D01*
X-292764Y-143620D01*
X-292779Y-143694D01*
X-292774Y-143722D01*
X-292776Y-143743D01*
X-292763Y-143785D01*
X-292751Y-143858D01*
X-292748Y-143865D01*
X-293030Y-144451D01*
X-293037Y-144481D01*
X-293057Y-144520D01*
X-293248Y-145141D01*
X-293255Y-145145D01*
X-293313Y-145192D01*
X-293375Y-145234D01*
X-293392Y-145257D01*
X-293409Y-145271D01*
X-293429Y-145310D01*
X-293471Y-145370D01*
X-294499Y-147506D01*
X-294517Y-147578D01*
X-294542Y-147649D01*
X-294542Y-147677D01*
X-294547Y-147698D01*
X-294541Y-147742D01*
X-294539Y-147815D01*
X-294538Y-147823D01*
X-294903Y-148360D01*
X-294915Y-148389D01*
X-294940Y-148425D01*
X-295222Y-149010D01*
X-295229Y-149013D01*
X-295294Y-149051D01*
X-295362Y-149083D01*
X-295381Y-149103D01*
X-295400Y-149114D01*
X-295426Y-149150D01*
X-295477Y-149203D01*
X-296811Y-151162D01*
X-296840Y-151231D01*
X-296876Y-151297D01*
X-296879Y-151325D01*
X-296888Y-151345D01*
X-296888Y-151389D01*
X-296897Y-151462D01*
X-296897Y-151470D01*
X-297338Y-151946D01*
X-297355Y-151974D01*
X-297385Y-152005D01*
X-297750Y-152542D01*
X-297758Y-152543D01*
X-297828Y-152571D01*
X-297900Y-152593D01*
X-297922Y-152610D01*
X-297942Y-152618D01*
X-297973Y-152650D01*
X-298031Y-152694D01*
X-299643Y-154433D01*
X-299682Y-154497D01*
X-299727Y-154556D01*
X-299734Y-154584D01*
X-299746Y-154602D01*
X-299752Y-154646D01*
X-299772Y-154716D01*
X-299773Y-154724D01*
X-300281Y-155130D01*
X-300301Y-155154D01*
X-300336Y-155181D01*
X-300777Y-155657D01*
X-300785Y-155657D01*
X-300858Y-155675D01*
X-300932Y-155685D01*
X-300957Y-155699D01*
X-300978Y-155704D01*
X-301014Y-155730D01*
X-301078Y-155766D01*
X-302930Y-157245D01*
X-302978Y-157302D01*
X-303032Y-157355D01*
X-303043Y-157380D01*
X-303057Y-157397D01*
X-303070Y-157440D01*
X-303101Y-157506D01*
X-303103Y-157514D01*
X-303665Y-157839D01*
X-303689Y-157860D01*
X-303727Y-157881D01*
X-304234Y-158286D01*
X-304242Y-158285D01*
X-304317Y-158292D01*
X-304392Y-158291D01*
X-304418Y-158301D01*
X-304440Y-158303D01*
X-304479Y-158324D01*
X-304548Y-158349D01*
X-306600Y-159536D01*
X-306656Y-159585D01*
X-306717Y-159629D01*
X-306732Y-159653D01*
X-306749Y-159668D01*
X-306768Y-159707D01*
X-306808Y-159769D01*
X-306811Y-159776D01*
X-307415Y-160014D01*
X-307442Y-160031D01*
X-307482Y-160046D01*
X-308045Y-160371D01*
X-308053Y-160369D01*
X-308128Y-160365D01*
X-308201Y-160353D01*
X-308229Y-160358D01*
X-308251Y-160357D01*
X-308293Y-160372D01*
X-308364Y-160387D01*
X-310570Y-161254D01*
X-310633Y-161295D01*
X-310700Y-161329D01*
X-310718Y-161350D01*
X-310737Y-161362D01*
X-310762Y-161399D01*
X-310810Y-161453D01*
X-310815Y-161460D01*
X-311448Y-161605D01*
X-311477Y-161618D01*
X-311519Y-161627D01*
X-312124Y-161865D01*
X-312131Y-161862D01*
X-312147Y-161858D01*
X-312160Y-161850D01*
X-312224Y-161840D01*
X-312276Y-161823D01*
X-312304Y-161825D01*
X-312325Y-161820D01*
X-312339Y-161823D01*
X-312342Y-161823D01*
X-312371Y-161829D01*
X-312442Y-161833D01*
X-314752Y-162361D01*
X-314820Y-162392D01*
X-314891Y-162416D01*
X-314913Y-162434D01*
X-314933Y-162443D01*
X-314963Y-162476D01*
X-315019Y-162523D01*
X-315025Y-162529D01*
X-315672Y-162578D01*
X-315703Y-162586D01*
X-315746Y-162589D01*
X-316379Y-162734D01*
X-316386Y-162729D01*
X-316456Y-162703D01*
X-316523Y-162670D01*
X-316552Y-162667D01*
X-316572Y-162659D01*
X-316616Y-162661D01*
X-316689Y-162655D01*
X-319052Y-162833D01*
X-319125Y-162854D01*
X-319198Y-162867D01*
X-319223Y-162881D01*
X-319244Y-162887D01*
X-319278Y-162915D01*
X-319341Y-162953D01*
X-319347Y-162958D01*
X-319995Y-162910D01*
X-320026Y-162914D01*
X-320069Y-162910D01*
X-320717Y-162959D01*
X-320723Y-162954D01*
X-320789Y-162917D01*
X-320850Y-162874D01*
X-320877Y-162867D01*
X-320897Y-162857D01*
X-320941Y-162852D01*
X-321011Y-162834D01*
X-323375Y-162659D01*
X-323449Y-162668D01*
X-323524Y-162670D01*
X-323550Y-162681D01*
X-323572Y-162684D01*
X-323610Y-162706D01*
X-323678Y-162734D01*
X-323685Y-162738D01*
X-324318Y-162594D01*
X-324350Y-162593D01*
X-324392Y-162583D01*
X-325040Y-162535D01*
X-325045Y-162529D01*
X-325104Y-162483D01*
X-325159Y-162431D01*
X-325185Y-162420D01*
X-325202Y-162407D01*
X-325245Y-162396D01*
X-325312Y-162368D01*
X-327623Y-161842D01*
X-327699Y-161840D01*
X-327773Y-161831D01*
X-327800Y-161838D01*
X-327822Y-161837D01*
X-327863Y-161853D01*
X-327934Y-161871D01*
X-327942Y-161874D01*
X-328546Y-161637D01*
X-328578Y-161632D01*
X-328618Y-161615D01*
X-329251Y-161471D01*
X-329255Y-161464D01*
X-329307Y-161410D01*
X-329353Y-161351D01*
X-329377Y-161337D01*
X-329393Y-161321D01*
X-329433Y-161303D01*
X-329496Y-161265D01*
X-331703Y-160401D01*
X-331776Y-160388D01*
X-331849Y-160368D01*
X-331877Y-160371D01*
X-331898Y-160367D01*
X-331941Y-160377D01*
X-332014Y-160384D01*
X-332022Y-160386D01*
X-332585Y-160061D01*
X-332615Y-160051D01*
X-332652Y-160029D01*
X-333257Y-159792D01*
X-333260Y-159785D01*
X-333303Y-159723D01*
X-333340Y-159658D01*
X-333362Y-159640D01*
X-333374Y-159622D01*
X-333412Y-159599D01*
X-333468Y-159552D01*
X-335521Y-158368D01*
X-335593Y-158344D01*
X-335661Y-158314D01*
X-335689Y-158312D01*
X-335710Y-158305D01*
X-335754Y-158309D01*
X-335827Y-158305D01*
X-335835Y-158306D01*
X-336343Y-157901D01*
X-336372Y-157886D01*
X-336405Y-157859D01*
X-336968Y-157534D01*
X-336970Y-157527D01*
X-337003Y-157460D01*
X-337030Y-157389D01*
X-337049Y-157368D01*
X-337058Y-157349D01*
X-337092Y-157320D01*
X-337141Y-157266D01*
X-338995Y-155789D01*
X-339061Y-155755D01*
X-339124Y-155714D01*
X-339152Y-155709D01*
X-339172Y-155699D01*
X-339216Y-155695D01*
X-339287Y-155681D01*
X-339296Y-155680D01*
X-339738Y-155204D01*
X-339764Y-155186D01*
X-339792Y-155154D01*
X-340300Y-154749D01*
X-340301Y-154741D01*
X-340324Y-154670D01*
X-340340Y-154596D01*
X-340356Y-154573D01*
X-340363Y-154552D01*
X-340391Y-154519D01*
X-340432Y-154457D01*
X-342045Y-152721D01*
X-342106Y-152677D01*
X-342162Y-152628D01*
X-342189Y-152618D01*
X-342206Y-152605D01*
X-342249Y-152595D01*
X-342318Y-152570D01*
X-342326Y-152569D01*
X-342692Y-152032D01*
X-342715Y-152010D01*
X-342739Y-151974D01*
X-343181Y-151498D01*
X-343181Y-151490D01*
X-343193Y-151416D01*
X-343198Y-151341D01*
X-343209Y-151315D01*
X-343213Y-151294D01*
X-343236Y-151257D01*
X-343267Y-151190D01*
X-343869Y-150308D01*
X-343933Y-150245D01*
X-343995Y-150181D01*
X-344005Y-150176D01*
X-344012Y-150169D01*
X-344095Y-150137D01*
X-344177Y-150101D01*
X-344188Y-150101D01*
X-344197Y-150097D01*
X-344287Y-150100D01*
X-344376Y-150099D01*
X-344387Y-150103D01*
X-344396Y-150103D01*
X-344433Y-150120D01*
X-344532Y-150157D01*
X-375565Y-168112D01*
X-375570Y-168116D01*
X-375576Y-168118D01*
X-375644Y-168182D01*
X-375714Y-168244D01*
X-375717Y-168249D01*
X-375721Y-168253D01*
X-375760Y-168341D01*
X-375800Y-168423D01*
X-375800Y-168429D01*
X-375803Y-168435D01*
X-375804Y-168529D01*
X-375809Y-168622D01*
X-375806Y-168628D01*
X-375807Y-168634D01*
X-375750Y-168790D01*
X-374886Y-170316D01*
X-373851Y-172900D01*
X-373173Y-175601D01*
X-372863Y-178368D01*
X-372927Y-181152D01*
X-372938Y-181223D01*
X-375589Y-181223D01*
X-375434Y-179416D01*
X-375436Y-179383D01*
X-375433Y-179291D01*
X-375654Y-176467D01*
X-375661Y-176435D01*
X-375673Y-176344D01*
X-376351Y-173593D01*
X-376363Y-173563D01*
X-376389Y-173480D01*
X-376389Y-173479D01*
X-376389Y-173478D01*
X-376390Y-173475D01*
X-377506Y-170871D01*
X-377523Y-170844D01*
X-377564Y-170761D01*
X-379088Y-168373D01*
X-379092Y-168370D01*
X-379094Y-168365D01*
X-379174Y-168278D01*
X-379253Y-168190D01*
X-379257Y-168188D01*
X-379260Y-168184D01*
X-379363Y-168128D01*
X-379466Y-168069D01*
X-379471Y-168068D01*
X-379476Y-168066D01*
X-379591Y-168045D01*
X-379708Y-168022D01*
X-379713Y-168023D01*
X-379718Y-168022D01*
X-379834Y-168039D01*
X-379952Y-168055D01*
X-379956Y-168057D01*
X-379961Y-168058D01*
X-380114Y-168126D01*
X-395100Y-176889D01*
X-395151Y-176931D01*
X-395207Y-176964D01*
X-395245Y-177009D01*
X-395290Y-177046D01*
X-395324Y-177101D01*
X-395367Y-177151D01*
X-395389Y-177205D01*
X-395419Y-177255D01*
X-395434Y-177319D01*
X-395459Y-177379D01*
X-395468Y-177462D01*
X-395476Y-177494D01*
X-395474Y-177514D01*
X-395477Y-177546D01*
X-395477Y-196596D01*
X-395473Y-196621D01*
X-395476Y-196646D01*
X-395453Y-196742D01*
X-395438Y-196839D01*
X-395426Y-196861D01*
X-395420Y-196886D01*
X-395368Y-196970D01*
X-395322Y-197056D01*
X-395304Y-197074D01*
X-395291Y-197095D01*
X-395215Y-197158D01*
X-395144Y-197226D01*
X-395121Y-197236D01*
X-395102Y-197252D01*
X-395010Y-197288D01*
X-394921Y-197329D01*
X-394896Y-197332D01*
X-394872Y-197341D01*
X-394705Y-197357D01*
X-391872Y-197317D01*
G37*
%LPC*%
G36*
X-9794Y-108205D02*
X-9794Y-108205D01*
X-35434Y-82565D01*
X-35434Y26703D01*
X-35436Y26715D01*
X-35434Y26727D01*
X-35456Y26812D01*
X-35473Y26897D01*
X-35480Y26908D01*
X-35484Y26920D01*
X-35580Y27056D01*
X-55240Y46716D01*
X-55251Y46723D01*
X-55258Y46733D01*
X-55333Y46778D01*
X-55406Y46826D01*
X-55419Y46828D01*
X-55429Y46835D01*
X-55593Y46862D01*
X-90566Y46862D01*
X-117978Y74275D01*
X-117989Y74282D01*
X-117996Y74292D01*
X-118071Y74337D01*
X-118144Y74385D01*
X-118157Y74387D01*
X-118167Y74394D01*
X-118331Y74421D01*
X-120280Y74421D01*
X-122810Y76951D01*
X-122810Y80529D01*
X-121896Y81443D01*
X-121893Y81447D01*
X-121890Y81449D01*
X-121839Y81529D01*
X-121786Y81609D01*
X-121785Y81613D01*
X-121783Y81616D01*
X-121767Y81709D01*
X-121749Y81804D01*
X-121750Y81808D01*
X-121750Y81813D01*
X-121771Y81904D01*
X-121792Y81998D01*
X-121795Y82002D01*
X-121796Y82006D01*
X-121852Y82082D01*
X-121907Y82161D01*
X-121911Y82163D01*
X-121914Y82166D01*
X-121995Y82215D01*
X-122077Y82265D01*
X-122081Y82265D01*
X-122085Y82268D01*
X-122249Y82295D01*
X-134907Y82295D01*
X-134919Y82293D01*
X-134931Y82295D01*
X-135016Y82273D01*
X-135101Y82256D01*
X-135112Y82249D01*
X-135124Y82245D01*
X-135260Y82149D01*
X-138410Y78999D01*
X-138417Y78988D01*
X-138427Y78981D01*
X-138472Y78906D01*
X-138520Y78833D01*
X-138522Y78820D01*
X-138529Y78810D01*
X-138556Y78646D01*
X-138556Y-9472D01*
X-138555Y-9476D01*
X-138556Y-9480D01*
X-138536Y-9573D01*
X-138517Y-9667D01*
X-138514Y-9671D01*
X-138513Y-9675D01*
X-138458Y-9752D01*
X-138404Y-9831D01*
X-138401Y-9833D01*
X-138398Y-9837D01*
X-138317Y-9887D01*
X-138237Y-9938D01*
X-138232Y-9939D01*
X-138229Y-9941D01*
X-138135Y-9955D01*
X-138040Y-9971D01*
X-138036Y-9970D01*
X-138032Y-9971D01*
X-137940Y-9947D01*
X-137847Y-9925D01*
X-137844Y-9923D01*
X-137840Y-9922D01*
X-137704Y-9825D01*
X-137403Y-9524D01*
X-133615Y-9524D01*
X-130936Y-12203D01*
X-130936Y-15991D01*
X-133615Y-18670D01*
X-137429Y-18670D01*
X-137437Y-18665D01*
X-137517Y-18612D01*
X-137521Y-18611D01*
X-137524Y-18609D01*
X-137618Y-18593D01*
X-137712Y-18576D01*
X-137716Y-18577D01*
X-137721Y-18576D01*
X-137812Y-18598D01*
X-137906Y-18618D01*
X-137910Y-18621D01*
X-137914Y-18622D01*
X-137990Y-18678D01*
X-138068Y-18734D01*
X-138071Y-18737D01*
X-138074Y-18740D01*
X-138123Y-18822D01*
X-138173Y-18903D01*
X-138173Y-18907D01*
X-138176Y-18911D01*
X-138203Y-19075D01*
X-138203Y-21292D01*
X-141014Y-24103D01*
X-143642Y-24103D01*
X-143654Y-24105D01*
X-143666Y-24103D01*
X-143751Y-24125D01*
X-143836Y-24142D01*
X-143847Y-24149D01*
X-143859Y-24153D01*
X-143995Y-24249D01*
X-144257Y-24512D01*
X-146694Y-24512D01*
X-146702Y-24513D01*
X-146711Y-24512D01*
X-146799Y-24533D01*
X-146889Y-24551D01*
X-146896Y-24556D01*
X-146904Y-24558D01*
X-146977Y-24612D01*
X-147053Y-24664D01*
X-147057Y-24671D01*
X-147064Y-24676D01*
X-147111Y-24754D01*
X-147160Y-24831D01*
X-147161Y-24840D01*
X-147166Y-24847D01*
X-147193Y-25011D01*
X-147193Y-26519D01*
X-149551Y-28877D01*
X-163885Y-28877D01*
X-166243Y-26519D01*
X-166243Y-18185D01*
X-163885Y-15827D01*
X-149551Y-15827D01*
X-148284Y-17094D01*
X-148277Y-17099D01*
X-148272Y-17105D01*
X-148195Y-17153D01*
X-148119Y-17204D01*
X-148110Y-17205D01*
X-148103Y-17210D01*
X-148013Y-17223D01*
X-147923Y-17240D01*
X-147915Y-17238D01*
X-147907Y-17239D01*
X-147818Y-17217D01*
X-147729Y-17197D01*
X-147722Y-17192D01*
X-147714Y-17190D01*
X-147578Y-17094D01*
X-144990Y-14505D01*
X-144068Y-14505D01*
X-144064Y-14504D01*
X-144060Y-14505D01*
X-143967Y-14485D01*
X-143873Y-14466D01*
X-143870Y-14463D01*
X-143866Y-14462D01*
X-143788Y-14407D01*
X-143710Y-14353D01*
X-143707Y-14350D01*
X-143704Y-14347D01*
X-143654Y-14266D01*
X-143603Y-14186D01*
X-143602Y-14181D01*
X-143600Y-14178D01*
X-143585Y-14084D01*
X-143569Y-13989D01*
X-143570Y-13985D01*
X-143570Y-13981D01*
X-143593Y-13889D01*
X-143615Y-13796D01*
X-143618Y-13793D01*
X-143619Y-13789D01*
X-143715Y-13653D01*
X-144146Y-13223D01*
X-144146Y81168D01*
X-137429Y87885D01*
X-28941Y87885D01*
X-27158Y86101D01*
X-259Y59202D01*
X1525Y57419D01*
X1525Y15588D01*
X1527Y15576D01*
X1525Y15564D01*
X1547Y15479D01*
X1564Y15394D01*
X1571Y15383D01*
X1575Y15371D01*
X1671Y15235D01*
X3170Y13736D01*
X3181Y13729D01*
X3188Y13719D01*
X3263Y13674D01*
X3336Y13626D01*
X3349Y13624D01*
X3359Y13617D01*
X3523Y13590D01*
X3966Y13590D01*
X3977Y13592D01*
X3987Y13590D01*
X4073Y13611D01*
X4161Y13629D01*
X4170Y13635D01*
X4180Y13638D01*
X4252Y13691D01*
X4325Y13742D01*
X4331Y13751D01*
X4339Y13757D01*
X4428Y13898D01*
X5269Y15930D01*
X7819Y18480D01*
X11151Y19860D01*
X14757Y19860D01*
X18089Y18480D01*
X20639Y15930D01*
X22019Y12598D01*
X22019Y8992D01*
X20639Y5660D01*
X18089Y3110D01*
X16580Y2485D01*
X16578Y2484D01*
X16576Y2484D01*
X16496Y2429D01*
X16415Y2374D01*
X16414Y2372D01*
X16412Y2371D01*
X16360Y2290D01*
X16306Y2207D01*
X16306Y2205D01*
X16305Y2204D01*
X16289Y2107D01*
X16272Y2012D01*
X16272Y2010D01*
X16272Y2007D01*
X16294Y1914D01*
X16316Y1818D01*
X16317Y1816D01*
X16318Y1814D01*
X16375Y1737D01*
X16433Y1657D01*
X16434Y1656D01*
X16436Y1654D01*
X16519Y1605D01*
X16603Y1554D01*
X16605Y1554D01*
X16607Y1552D01*
X16771Y1525D01*
X24925Y1525D01*
X24937Y1527D01*
X24949Y1525D01*
X25034Y1547D01*
X25119Y1564D01*
X25130Y1571D01*
X25142Y1575D01*
X25278Y1671D01*
X30023Y6416D01*
X30028Y6425D01*
X30037Y6431D01*
X30083Y6507D01*
X30132Y6582D01*
X30134Y6592D01*
X30140Y6601D01*
X30152Y6689D01*
X30169Y6777D01*
X30167Y6788D01*
X30168Y6798D01*
X30131Y6960D01*
X29289Y8992D01*
X29289Y12598D01*
X30669Y15930D01*
X33219Y18480D01*
X36551Y19860D01*
X40157Y19860D01*
X43489Y18480D01*
X46039Y15930D01*
X47419Y12598D01*
X47419Y8992D01*
X46039Y5660D01*
X43489Y3110D01*
X40157Y1730D01*
X36551Y1730D01*
X34519Y2572D01*
X34509Y2574D01*
X34500Y2579D01*
X34412Y2593D01*
X34324Y2610D01*
X34314Y2608D01*
X34303Y2609D01*
X34217Y2587D01*
X34129Y2569D01*
X34121Y2563D01*
X34111Y2560D01*
X33975Y2464D01*
X27447Y-4065D01*
X112Y-4065D01*
X-6472Y2520D01*
X-8164Y4212D01*
X-8168Y4214D01*
X-8170Y4217D01*
X-8250Y4268D01*
X-8330Y4321D01*
X-8334Y4322D01*
X-8337Y4324D01*
X-8431Y4340D01*
X-8525Y4358D01*
X-8529Y4357D01*
X-8534Y4358D01*
X-8625Y4336D01*
X-8719Y4315D01*
X-8723Y4313D01*
X-8727Y4312D01*
X-8803Y4256D01*
X-8882Y4200D01*
X-8884Y4196D01*
X-8887Y4194D01*
X-8936Y4112D01*
X-8986Y4030D01*
X-8986Y4026D01*
X-8989Y4023D01*
X-9016Y3859D01*
X-9016Y-7907D01*
X-9014Y-7919D01*
X-9016Y-7931D01*
X-8994Y-8016D01*
X-8977Y-8101D01*
X-8970Y-8112D01*
X-8966Y-8124D01*
X-8870Y-8260D01*
X-5466Y-11664D01*
X-5455Y-11671D01*
X-5448Y-11681D01*
X-5373Y-11726D01*
X-5300Y-11774D01*
X-5287Y-11776D01*
X-5277Y-11783D01*
X-5113Y-11810D01*
X3966Y-11810D01*
X3977Y-11808D01*
X3987Y-11810D01*
X4073Y-11789D01*
X4161Y-11771D01*
X4170Y-11765D01*
X4180Y-11762D01*
X4252Y-11709D01*
X4325Y-11658D01*
X4331Y-11649D01*
X4339Y-11643D01*
X4428Y-11502D01*
X5269Y-9470D01*
X7819Y-6920D01*
X11151Y-5540D01*
X14757Y-5540D01*
X18089Y-6920D01*
X20639Y-9470D01*
X22019Y-12802D01*
X22019Y-16408D01*
X20639Y-19740D01*
X18089Y-22290D01*
X15966Y-23169D01*
X15965Y-23170D01*
X15963Y-23170D01*
X15883Y-23225D01*
X15802Y-23280D01*
X15800Y-23282D01*
X15799Y-23283D01*
X15747Y-23364D01*
X15693Y-23447D01*
X15693Y-23449D01*
X15692Y-23450D01*
X15675Y-23547D01*
X15658Y-23642D01*
X15659Y-23644D01*
X15659Y-23647D01*
X15681Y-23740D01*
X15703Y-23836D01*
X15704Y-23838D01*
X15705Y-23840D01*
X15761Y-23917D01*
X15819Y-23997D01*
X15821Y-23998D01*
X15822Y-24000D01*
X15906Y-24049D01*
X15990Y-24100D01*
X15992Y-24100D01*
X15993Y-24102D01*
X16158Y-24129D01*
X24671Y-24129D01*
X24683Y-24127D01*
X24695Y-24129D01*
X24780Y-24107D01*
X24865Y-24090D01*
X24876Y-24083D01*
X24888Y-24079D01*
X25024Y-23983D01*
X30023Y-18984D01*
X30028Y-18975D01*
X30037Y-18969D01*
X30083Y-18893D01*
X30132Y-18818D01*
X30134Y-18808D01*
X30140Y-18799D01*
X30152Y-18711D01*
X30169Y-18623D01*
X30167Y-18612D01*
X30168Y-18602D01*
X30131Y-18440D01*
X29289Y-16408D01*
X29289Y-12802D01*
X30669Y-9470D01*
X33219Y-6920D01*
X36551Y-5540D01*
X40157Y-5540D01*
X43489Y-6920D01*
X46039Y-9470D01*
X47419Y-12802D01*
X47419Y-16408D01*
X46039Y-19740D01*
X43489Y-22290D01*
X40157Y-23670D01*
X36551Y-23670D01*
X34519Y-22828D01*
X34509Y-22826D01*
X34500Y-22821D01*
X34412Y-22807D01*
X34324Y-22790D01*
X34314Y-22792D01*
X34303Y-22791D01*
X34217Y-22813D01*
X34129Y-22831D01*
X34121Y-22837D01*
X34111Y-22840D01*
X33975Y-22936D01*
X27193Y-29719D01*
X-3324Y-29719D01*
X-5107Y-27935D01*
X-16419Y-16624D01*
X-16423Y-16621D01*
X-16425Y-16618D01*
X-16505Y-16567D01*
X-16585Y-16514D01*
X-16589Y-16513D01*
X-16592Y-16511D01*
X-16686Y-16495D01*
X-16780Y-16478D01*
X-16784Y-16479D01*
X-16789Y-16478D01*
X-16880Y-16500D01*
X-16974Y-16520D01*
X-16978Y-16523D01*
X-16982Y-16524D01*
X-17058Y-16580D01*
X-17137Y-16636D01*
X-17139Y-16639D01*
X-17142Y-16642D01*
X-17191Y-16724D01*
X-17241Y-16805D01*
X-17241Y-16809D01*
X-17244Y-16813D01*
X-17271Y-16977D01*
X-17271Y-19972D01*
X-17269Y-19984D01*
X-17271Y-19996D01*
X-17249Y-20081D01*
X-17232Y-20166D01*
X-17225Y-20177D01*
X-17221Y-20189D01*
X-17125Y-20325D01*
X-386Y-37064D01*
X-375Y-37071D01*
X-368Y-37081D01*
X-293Y-37126D01*
X-220Y-37174D01*
X-207Y-37176D01*
X-197Y-37183D01*
X-33Y-37210D01*
X3966Y-37210D01*
X3977Y-37208D01*
X3987Y-37210D01*
X4073Y-37189D01*
X4161Y-37171D01*
X4170Y-37165D01*
X4180Y-37162D01*
X4252Y-37109D01*
X4325Y-37058D01*
X4331Y-37049D01*
X4339Y-37043D01*
X4428Y-36902D01*
X5269Y-34870D01*
X7819Y-32320D01*
X11151Y-30940D01*
X14757Y-30940D01*
X18089Y-32320D01*
X20639Y-34870D01*
X22019Y-38202D01*
X22019Y-41808D01*
X20639Y-45140D01*
X18089Y-47690D01*
X15660Y-48696D01*
X15658Y-48697D01*
X15656Y-48697D01*
X15576Y-48752D01*
X15495Y-48807D01*
X15494Y-48809D01*
X15492Y-48810D01*
X15440Y-48891D01*
X15387Y-48974D01*
X15386Y-48976D01*
X15385Y-48977D01*
X15369Y-49073D01*
X15352Y-49169D01*
X15352Y-49171D01*
X15352Y-49174D01*
X15374Y-49267D01*
X15396Y-49363D01*
X15398Y-49365D01*
X15398Y-49367D01*
X15454Y-49444D01*
X15513Y-49524D01*
X15515Y-49525D01*
X15516Y-49527D01*
X15599Y-49576D01*
X15683Y-49627D01*
X15685Y-49627D01*
X15687Y-49629D01*
X15851Y-49656D01*
X24544Y-49656D01*
X24556Y-49654D01*
X24568Y-49656D01*
X24653Y-49634D01*
X24738Y-49617D01*
X24749Y-49610D01*
X24761Y-49606D01*
X24897Y-49510D01*
X30023Y-44384D01*
X30028Y-44375D01*
X30037Y-44369D01*
X30083Y-44293D01*
X30132Y-44218D01*
X30134Y-44208D01*
X30140Y-44199D01*
X30152Y-44111D01*
X30169Y-44023D01*
X30167Y-44012D01*
X30168Y-44002D01*
X30131Y-43840D01*
X29289Y-41808D01*
X29289Y-38202D01*
X30669Y-34870D01*
X33219Y-32320D01*
X36551Y-30940D01*
X40157Y-30940D01*
X43489Y-32320D01*
X46039Y-34870D01*
X47419Y-38202D01*
X47419Y-41808D01*
X46039Y-45140D01*
X43489Y-47690D01*
X40157Y-49070D01*
X36551Y-49070D01*
X34519Y-48228D01*
X34509Y-48226D01*
X34500Y-48221D01*
X34412Y-48207D01*
X34324Y-48190D01*
X34314Y-48192D01*
X34303Y-48191D01*
X34217Y-48213D01*
X34129Y-48231D01*
X34121Y-48237D01*
X34111Y-48240D01*
X33975Y-48336D01*
X28849Y-53462D01*
X27066Y-55246D01*
X17300Y-55246D01*
X17219Y-55262D01*
X17137Y-55273D01*
X17122Y-55282D01*
X17105Y-55285D01*
X17037Y-55332D01*
X16966Y-55374D01*
X16955Y-55388D01*
X16941Y-55398D01*
X16897Y-55467D01*
X16847Y-55533D01*
X16843Y-55550D01*
X16834Y-55565D01*
X16820Y-55646D01*
X16801Y-55726D01*
X16804Y-55744D01*
X16801Y-55762D01*
X16820Y-55841D01*
X16833Y-55923D01*
X16843Y-55938D01*
X16847Y-55955D01*
X16895Y-56021D01*
X16939Y-56091D01*
X16955Y-56102D01*
X16965Y-56115D01*
X17003Y-56138D01*
X17073Y-56190D01*
X18237Y-56783D01*
X19521Y-57716D01*
X20643Y-58838D01*
X21576Y-60122D01*
X22296Y-61535D01*
X22787Y-63044D01*
X23002Y-64406D01*
X13454Y-64406D01*
X13446Y-64407D01*
X13438Y-64406D01*
X13349Y-64427D01*
X13259Y-64445D01*
X13252Y-64450D01*
X13244Y-64452D01*
X13171Y-64506D01*
X13095Y-64558D01*
X13091Y-64565D01*
X13084Y-64570D01*
X13038Y-64648D01*
X12988Y-64725D01*
X12987Y-64734D01*
X12983Y-64741D01*
X12955Y-64905D01*
X12955Y-65905D01*
X12957Y-65913D01*
X12955Y-65921D01*
X12976Y-66010D01*
X12994Y-66100D01*
X12999Y-66107D01*
X13001Y-66115D01*
X13055Y-66188D01*
X13107Y-66264D01*
X13114Y-66268D01*
X13119Y-66275D01*
X13197Y-66321D01*
X13275Y-66371D01*
X13283Y-66372D01*
X13290Y-66376D01*
X13454Y-66404D01*
X23002Y-66404D01*
X22787Y-67766D01*
X22296Y-69275D01*
X21576Y-70688D01*
X20643Y-71972D01*
X19521Y-73094D01*
X18237Y-74027D01*
X16824Y-74747D01*
X16759Y-74798D01*
X16691Y-74845D01*
X16682Y-74860D01*
X16668Y-74871D01*
X16629Y-74943D01*
X16584Y-75012D01*
X16581Y-75030D01*
X16573Y-75046D01*
X16565Y-75128D01*
X16551Y-75209D01*
X16555Y-75226D01*
X16554Y-75244D01*
X16578Y-75322D01*
X16597Y-75402D01*
X16608Y-75416D01*
X16613Y-75433D01*
X16667Y-75496D01*
X16715Y-75562D01*
X16730Y-75571D01*
X16742Y-75585D01*
X16816Y-75622D01*
X16886Y-75664D01*
X16906Y-75667D01*
X16920Y-75674D01*
X16964Y-75677D01*
X17050Y-75691D01*
X19718Y-75691D01*
X19730Y-75689D01*
X19742Y-75691D01*
X19827Y-75669D01*
X19912Y-75652D01*
X19923Y-75645D01*
X19935Y-75641D01*
X20071Y-75545D01*
X29143Y-66473D01*
X29150Y-66462D01*
X29160Y-66455D01*
X29205Y-66380D01*
X29253Y-66307D01*
X29255Y-66294D01*
X29262Y-66284D01*
X29289Y-66120D01*
X29289Y-63602D01*
X30669Y-60270D01*
X33219Y-57720D01*
X36551Y-56340D01*
X40157Y-56340D01*
X43489Y-57720D01*
X46039Y-60270D01*
X47419Y-63602D01*
X47419Y-67208D01*
X46039Y-70540D01*
X43489Y-73090D01*
X40157Y-74470D01*
X36551Y-74470D01*
X33219Y-73090D01*
X32178Y-72048D01*
X32171Y-72044D01*
X32166Y-72037D01*
X32088Y-71989D01*
X32012Y-71939D01*
X32004Y-71937D01*
X31997Y-71933D01*
X31907Y-71919D01*
X31817Y-71902D01*
X31808Y-71904D01*
X31800Y-71903D01*
X31712Y-71925D01*
X31622Y-71945D01*
X31616Y-71950D01*
X31607Y-71952D01*
X31472Y-72048D01*
X22494Y-81027D01*
X20178Y-81027D01*
X20071Y-80919D01*
X20060Y-80912D01*
X20053Y-80902D01*
X19978Y-80857D01*
X19905Y-80809D01*
X19892Y-80807D01*
X19882Y-80800D01*
X19718Y-80773D01*
X17549Y-80773D01*
X17468Y-80789D01*
X17387Y-80800D01*
X17371Y-80809D01*
X17354Y-80812D01*
X17286Y-80859D01*
X17215Y-80901D01*
X17205Y-80915D01*
X17190Y-80925D01*
X17146Y-80994D01*
X17097Y-81060D01*
X17093Y-81077D01*
X17083Y-81092D01*
X17069Y-81173D01*
X17050Y-81253D01*
X17053Y-81271D01*
X17050Y-81289D01*
X17069Y-81368D01*
X17082Y-81450D01*
X17092Y-81465D01*
X17096Y-81482D01*
X17145Y-81548D01*
X17189Y-81618D01*
X17204Y-81629D01*
X17214Y-81642D01*
X17252Y-81665D01*
X17322Y-81717D01*
X18237Y-82183D01*
X19521Y-83116D01*
X20643Y-84238D01*
X21576Y-85522D01*
X22296Y-86935D01*
X22787Y-88444D01*
X23002Y-89806D01*
X13454Y-89806D01*
X13446Y-89807D01*
X13438Y-89806D01*
X13349Y-89827D01*
X13259Y-89845D01*
X13252Y-89850D01*
X13244Y-89852D01*
X13171Y-89906D01*
X13095Y-89958D01*
X13091Y-89965D01*
X13084Y-89970D01*
X13038Y-90048D01*
X12988Y-90125D01*
X12987Y-90134D01*
X12983Y-90141D01*
X12955Y-90305D01*
X12955Y-90806D01*
X12953Y-90806D01*
X12953Y-90305D01*
X12951Y-90297D01*
X12953Y-90288D01*
X12932Y-90200D01*
X12914Y-90110D01*
X12909Y-90103D01*
X12907Y-90095D01*
X12853Y-90022D01*
X12801Y-89946D01*
X12794Y-89942D01*
X12789Y-89935D01*
X12711Y-89888D01*
X12633Y-89839D01*
X12625Y-89838D01*
X12618Y-89833D01*
X12454Y-89806D01*
X2906Y-89806D01*
X3121Y-88444D01*
X3612Y-86935D01*
X4332Y-85522D01*
X5265Y-84238D01*
X6387Y-83116D01*
X7671Y-82183D01*
X8586Y-81717D01*
X8650Y-81666D01*
X8718Y-81619D01*
X8728Y-81604D01*
X8741Y-81593D01*
X8781Y-81521D01*
X8825Y-81452D01*
X8828Y-81434D01*
X8836Y-81418D01*
X8844Y-81336D01*
X8858Y-81255D01*
X8854Y-81238D01*
X8856Y-81220D01*
X8831Y-81142D01*
X8812Y-81062D01*
X8802Y-81048D01*
X8796Y-81031D01*
X8743Y-80968D01*
X8694Y-80902D01*
X8679Y-80893D01*
X8667Y-80879D01*
X8594Y-80842D01*
X8523Y-80800D01*
X8504Y-80797D01*
X8490Y-80790D01*
X8445Y-80787D01*
X8359Y-80773D01*
X-10066Y-80773D01*
X-10078Y-80775D01*
X-10090Y-80773D01*
X-10175Y-80795D01*
X-10260Y-80812D01*
X-10271Y-80819D01*
X-10283Y-80823D01*
X-10419Y-80919D01*
X-10526Y-81027D01*
X-12842Y-81027D01*
X-28992Y-64876D01*
X-28996Y-64874D01*
X-28998Y-64871D01*
X-29078Y-64819D01*
X-29158Y-64767D01*
X-29162Y-64766D01*
X-29165Y-64764D01*
X-29259Y-64748D01*
X-29353Y-64730D01*
X-29357Y-64731D01*
X-29362Y-64730D01*
X-29453Y-64752D01*
X-29547Y-64773D01*
X-29551Y-64775D01*
X-29555Y-64776D01*
X-29631Y-64832D01*
X-29710Y-64888D01*
X-29712Y-64892D01*
X-29715Y-64894D01*
X-29764Y-64976D01*
X-29814Y-65058D01*
X-29814Y-65062D01*
X-29817Y-65065D01*
X-29844Y-65229D01*
X-29844Y-80043D01*
X-29842Y-80055D01*
X-29844Y-80067D01*
X-29822Y-80152D01*
X-29805Y-80237D01*
X-29798Y-80248D01*
X-29794Y-80260D01*
X-29698Y-80396D01*
X-7625Y-102469D01*
X-7614Y-102476D01*
X-7607Y-102486D01*
X-7532Y-102531D01*
X-7459Y-102579D01*
X-7446Y-102581D01*
X-7436Y-102588D01*
X-7272Y-102615D01*
X22385Y-102615D01*
X22397Y-102613D01*
X22409Y-102615D01*
X22494Y-102593D01*
X22579Y-102576D01*
X22590Y-102569D01*
X22602Y-102565D01*
X22738Y-102469D01*
X30023Y-95184D01*
X30028Y-95175D01*
X30037Y-95169D01*
X30083Y-95093D01*
X30132Y-95018D01*
X30134Y-95008D01*
X30140Y-94999D01*
X30152Y-94911D01*
X30169Y-94823D01*
X30167Y-94812D01*
X30168Y-94802D01*
X30131Y-94640D01*
X29289Y-92608D01*
X29289Y-89002D01*
X30669Y-85670D01*
X33219Y-83120D01*
X36551Y-81740D01*
X40157Y-81740D01*
X43489Y-83120D01*
X46039Y-85670D01*
X47419Y-89002D01*
X47419Y-92608D01*
X46039Y-95940D01*
X43489Y-98490D01*
X40157Y-99870D01*
X36551Y-99870D01*
X34519Y-99028D01*
X34509Y-99026D01*
X34500Y-99021D01*
X34412Y-99007D01*
X34324Y-98990D01*
X34314Y-98992D01*
X34303Y-98991D01*
X34217Y-99013D01*
X34129Y-99031D01*
X34121Y-99037D01*
X34111Y-99040D01*
X33975Y-99136D01*
X24907Y-108205D01*
X-9794Y-108205D01*
G37*
%LPD*%
%LPC*%
G36*
X-107228Y-183516D02*
X-107228Y-183516D01*
X-110823Y-182027D01*
X-113574Y-179276D01*
X-115063Y-175681D01*
X-115063Y-171791D01*
X-113948Y-169100D01*
X-113946Y-169089D01*
X-113941Y-169081D01*
X-113927Y-168992D01*
X-113910Y-168905D01*
X-113912Y-168894D01*
X-113911Y-168884D01*
X-113933Y-168798D01*
X-113951Y-168710D01*
X-113957Y-168701D01*
X-113960Y-168691D01*
X-114056Y-168556D01*
X-120286Y-162326D01*
X-121921Y-160691D01*
X-121921Y-61813D01*
X-121923Y-61800D01*
X-121921Y-61788D01*
X-121943Y-61704D01*
X-121960Y-61618D01*
X-121967Y-61607D01*
X-121971Y-61595D01*
X-122067Y-61460D01*
X-123699Y-59828D01*
X-123699Y-56250D01*
X-121169Y-53720D01*
X-119099Y-53720D01*
X-119095Y-53719D01*
X-119091Y-53720D01*
X-118998Y-53700D01*
X-118904Y-53681D01*
X-118901Y-53678D01*
X-118897Y-53677D01*
X-118819Y-53622D01*
X-118740Y-53568D01*
X-118738Y-53565D01*
X-118735Y-53562D01*
X-118685Y-53481D01*
X-118633Y-53401D01*
X-118633Y-53396D01*
X-118630Y-53393D01*
X-118616Y-53299D01*
X-118600Y-53204D01*
X-118601Y-53200D01*
X-118601Y-53196D01*
X-118624Y-53104D01*
X-118646Y-53011D01*
X-118649Y-53008D01*
X-118650Y-53004D01*
X-118746Y-52868D01*
X-136288Y-35326D01*
X-137923Y-33691D01*
X-137923Y-30571D01*
X-137925Y-30558D01*
X-137923Y-30546D01*
X-137945Y-30462D01*
X-137962Y-30376D01*
X-137969Y-30365D01*
X-137973Y-30353D01*
X-138069Y-30218D01*
X-139701Y-28586D01*
X-139701Y-25008D01*
X-137171Y-22478D01*
X-133593Y-22478D01*
X-131063Y-25008D01*
X-131063Y-28586D01*
X-132695Y-30218D01*
X-132702Y-30228D01*
X-132712Y-30236D01*
X-132756Y-30310D01*
X-132805Y-30383D01*
X-132807Y-30396D01*
X-132814Y-30407D01*
X-132841Y-30571D01*
X-132841Y-31380D01*
X-132839Y-31392D01*
X-132841Y-31405D01*
X-132819Y-31489D01*
X-132802Y-31575D01*
X-132795Y-31585D01*
X-132791Y-31597D01*
X-132695Y-31733D01*
X-108330Y-56098D01*
X-108330Y-141743D01*
X-108328Y-141755D01*
X-108330Y-141768D01*
X-108308Y-141852D01*
X-108291Y-141938D01*
X-108284Y-141948D01*
X-108280Y-141960D01*
X-108184Y-142096D01*
X-86470Y-163810D01*
X-86459Y-163817D01*
X-86452Y-163827D01*
X-86377Y-163872D01*
X-86304Y-163920D01*
X-86292Y-163922D01*
X-86281Y-163929D01*
X-86117Y-163956D01*
X-70996Y-163956D01*
X-70103Y-164849D01*
X-70103Y-182623D01*
X-70996Y-183516D01*
X-88770Y-183516D01*
X-89663Y-182623D01*
X-89663Y-168010D01*
X-89665Y-167998D01*
X-89663Y-167985D01*
X-89685Y-167901D01*
X-89702Y-167815D01*
X-89709Y-167805D01*
X-89713Y-167793D01*
X-89809Y-167657D01*
X-111777Y-145689D01*
X-113412Y-144054D01*
X-113412Y-58409D01*
X-113414Y-58397D01*
X-113412Y-58384D01*
X-113434Y-58300D01*
X-113451Y-58214D01*
X-113458Y-58204D01*
X-113462Y-58192D01*
X-113558Y-58056D01*
X-114209Y-57405D01*
X-114212Y-57403D01*
X-114215Y-57399D01*
X-114295Y-57348D01*
X-114375Y-57295D01*
X-114379Y-57295D01*
X-114382Y-57292D01*
X-114476Y-57277D01*
X-114570Y-57259D01*
X-114574Y-57260D01*
X-114579Y-57259D01*
X-114670Y-57281D01*
X-114764Y-57302D01*
X-114768Y-57304D01*
X-114772Y-57305D01*
X-114848Y-57361D01*
X-114927Y-57417D01*
X-114929Y-57421D01*
X-114932Y-57423D01*
X-114980Y-57504D01*
X-115031Y-57586D01*
X-115031Y-57590D01*
X-115034Y-57594D01*
X-115061Y-57758D01*
X-115061Y-59828D01*
X-116693Y-61460D01*
X-116700Y-61470D01*
X-116710Y-61478D01*
X-116755Y-61552D01*
X-116803Y-61625D01*
X-116805Y-61638D01*
X-116812Y-61649D01*
X-116839Y-61813D01*
X-116839Y-158380D01*
X-116837Y-158392D01*
X-116839Y-158405D01*
X-116817Y-158489D01*
X-116800Y-158575D01*
X-116793Y-158585D01*
X-116789Y-158597D01*
X-116693Y-158733D01*
X-110463Y-164963D01*
X-110454Y-164968D01*
X-110448Y-164977D01*
X-110372Y-165023D01*
X-110297Y-165072D01*
X-110287Y-165074D01*
X-110278Y-165080D01*
X-110190Y-165092D01*
X-110102Y-165109D01*
X-110092Y-165107D01*
X-110081Y-165108D01*
X-109919Y-165071D01*
X-107228Y-163956D01*
X-103338Y-163956D01*
X-99743Y-165445D01*
X-96992Y-168196D01*
X-95503Y-171791D01*
X-95503Y-175681D01*
X-96992Y-179276D01*
X-99743Y-182027D01*
X-103338Y-183516D01*
X-107228Y-183516D01*
G37*
%LPD*%
%LPC*%
G36*
X52456Y-190021D02*
X52456Y-190021D01*
X46102Y-184299D01*
X42624Y-176487D01*
X42624Y-167937D01*
X46102Y-160125D01*
X52456Y-154403D01*
X60589Y-151761D01*
X69092Y-152655D01*
X76498Y-156930D01*
X81524Y-163848D01*
X83302Y-172212D01*
X81524Y-180576D01*
X76498Y-187494D01*
X69092Y-191769D01*
X60589Y-192663D01*
X52456Y-190021D01*
G37*
%LPD*%
%LPC*%
G36*
X-272664Y-189894D02*
X-272664Y-189894D01*
X-279018Y-184172D01*
X-282496Y-176360D01*
X-282496Y-167810D01*
X-279018Y-159998D01*
X-272664Y-154276D01*
X-264531Y-151634D01*
X-256028Y-152528D01*
X-248622Y-156803D01*
X-243596Y-163721D01*
X-241818Y-172085D01*
X-243596Y-180449D01*
X-248622Y-187367D01*
X-256028Y-191642D01*
X-264531Y-192536D01*
X-272664Y-189894D01*
G37*
%LPD*%
%LPC*%
G36*
X-272537Y148942D02*
X-272537Y148942D01*
X-278891Y154664D01*
X-282369Y162476D01*
X-282369Y171026D01*
X-278891Y178838D01*
X-272537Y184560D01*
X-264404Y187202D01*
X-255901Y186308D01*
X-248495Y182033D01*
X-243469Y175115D01*
X-241691Y166751D01*
X-243469Y158387D01*
X-248495Y151469D01*
X-255901Y147194D01*
X-264404Y146300D01*
X-272537Y148942D01*
G37*
%LPD*%
%LPC*%
G36*
X52202Y149069D02*
X52202Y149069D01*
X45848Y154791D01*
X42370Y162603D01*
X42370Y171153D01*
X45848Y178965D01*
X52202Y184687D01*
X60335Y187329D01*
X68838Y186435D01*
X76244Y182160D01*
X81270Y175242D01*
X83048Y166878D01*
X81270Y158514D01*
X76244Y151596D01*
X68838Y147321D01*
X60335Y146427D01*
X52202Y149069D01*
G37*
%LPD*%
G36*
X-243906Y-29402D02*
X-243906Y-29402D01*
X-243895Y-29403D01*
X-239871Y-29101D01*
X-239840Y-29093D01*
X-239797Y-29090D01*
X-235863Y-28192D01*
X-235834Y-28179D01*
X-235791Y-28170D01*
X-232035Y-26696D01*
X-232008Y-26679D01*
X-231968Y-26664D01*
X-228473Y-24646D01*
X-228449Y-24625D01*
X-228411Y-24604D01*
X-225256Y-22088D01*
X-225236Y-22063D01*
X-225201Y-22037D01*
X-222457Y-19079D01*
X-222440Y-19052D01*
X-222410Y-19020D01*
X-220137Y-15686D01*
X-220124Y-15657D01*
X-220100Y-15622D01*
X-218349Y-11986D01*
X-218341Y-11955D01*
X-218321Y-11916D01*
X-217132Y-8060D01*
X-217129Y-8029D01*
X-217115Y-7987D01*
X-216514Y-3997D01*
X-216515Y-3965D01*
X-216508Y-3923D01*
X-216508Y113D01*
X-216515Y144D01*
X-216514Y187D01*
X-217115Y4177D01*
X-217126Y4207D01*
X-217132Y4250D01*
X-218321Y8106D01*
X-218337Y8134D01*
X-218349Y8176D01*
X-220100Y11812D01*
X-220119Y11837D01*
X-220137Y11876D01*
X-222410Y15210D01*
X-222433Y15233D01*
X-222457Y15269D01*
X-225201Y18227D01*
X-225227Y18246D01*
X-225256Y18278D01*
X-228411Y20794D01*
X-228439Y20808D01*
X-228473Y20836D01*
X-231968Y22854D01*
X-231998Y22864D01*
X-232035Y22886D01*
X-235791Y24360D01*
X-235823Y24366D01*
X-235863Y24382D01*
X-239797Y25280D01*
X-239829Y25281D01*
X-239871Y25291D01*
X-243895Y25593D01*
X-243922Y25589D01*
X-243949Y25594D01*
X-244019Y25577D01*
X-244092Y25568D01*
X-244116Y25554D01*
X-244142Y25548D01*
X-244201Y25505D01*
X-244264Y25468D01*
X-244280Y25446D01*
X-244302Y25430D01*
X-244339Y25367D01*
X-244383Y25309D01*
X-244390Y25282D01*
X-244404Y25259D01*
X-244421Y25155D01*
X-244431Y25116D01*
X-244429Y25106D01*
X-244431Y25095D01*
X-244431Y-28905D01*
X-244426Y-28932D01*
X-244428Y-28959D01*
X-244406Y-29028D01*
X-244392Y-29100D01*
X-244376Y-29122D01*
X-244368Y-29148D01*
X-244320Y-29204D01*
X-244279Y-29264D01*
X-244256Y-29278D01*
X-244238Y-29299D01*
X-244173Y-29332D01*
X-244112Y-29371D01*
X-244085Y-29375D01*
X-244060Y-29387D01*
X-243956Y-29397D01*
X-243915Y-29404D01*
X-243906Y-29402D01*
G37*
G36*
X-320039Y-161371D02*
X-320039Y-161371D01*
X-319996Y-161375D01*
X-315976Y-161071D01*
X-315945Y-161062D01*
X-315902Y-161060D01*
X-311972Y-160160D01*
X-311943Y-160147D01*
X-311901Y-160138D01*
X-308150Y-158663D01*
X-308123Y-158646D01*
X-308082Y-158631D01*
X-304592Y-156613D01*
X-304569Y-156592D01*
X-304531Y-156571D01*
X-301381Y-154056D01*
X-301360Y-154031D01*
X-301326Y-154005D01*
X-298586Y-151048D01*
X-298569Y-151021D01*
X-298539Y-150990D01*
X-296271Y-147658D01*
X-296258Y-147628D01*
X-296233Y-147593D01*
X-294486Y-143960D01*
X-294479Y-143929D01*
X-294459Y-143891D01*
X-293273Y-140038D01*
X-293270Y-140006D01*
X-293257Y-139965D01*
X-292658Y-135978D01*
X-292660Y-135947D01*
X-292653Y-135904D01*
X-292655Y-131873D01*
X-292662Y-131842D01*
X-292661Y-131798D01*
X-293264Y-127813D01*
X-293275Y-127783D01*
X-293281Y-127740D01*
X-294471Y-123888D01*
X-294486Y-123861D01*
X-294499Y-123819D01*
X-296250Y-120188D01*
X-296266Y-120166D01*
X-296276Y-120141D01*
X-296326Y-120088D01*
X-296370Y-120030D01*
X-296394Y-120016D01*
X-296412Y-119997D01*
X-296479Y-119967D01*
X-296543Y-119931D01*
X-296570Y-119928D01*
X-296595Y-119917D01*
X-296668Y-119916D01*
X-296740Y-119907D01*
X-296766Y-119915D01*
X-296794Y-119915D01*
X-296892Y-119951D01*
X-296931Y-119963D01*
X-296939Y-119969D01*
X-296949Y-119973D01*
X-343649Y-146973D01*
X-343670Y-146991D01*
X-343694Y-147002D01*
X-343727Y-147038D01*
X-343744Y-147050D01*
X-343755Y-147066D01*
X-343798Y-147105D01*
X-343810Y-147129D01*
X-343828Y-147149D01*
X-343852Y-147218D01*
X-343884Y-147284D01*
X-343885Y-147311D01*
X-343894Y-147337D01*
X-343889Y-147410D01*
X-343893Y-147483D01*
X-343883Y-147508D01*
X-343881Y-147535D01*
X-343837Y-147631D01*
X-343823Y-147669D01*
X-343817Y-147676D01*
X-343812Y-147687D01*
X-341539Y-151016D01*
X-341516Y-151038D01*
X-341492Y-151074D01*
X-338749Y-154028D01*
X-338723Y-154046D01*
X-338694Y-154078D01*
X-335541Y-156590D01*
X-335512Y-156604D01*
X-335479Y-156632D01*
X-331987Y-158645D01*
X-331957Y-158655D01*
X-331919Y-158678D01*
X-328166Y-160148D01*
X-328135Y-160154D01*
X-328095Y-160170D01*
X-324164Y-161065D01*
X-324132Y-161065D01*
X-324090Y-161076D01*
X-320070Y-161375D01*
X-320039Y-161371D01*
G37*
G36*
X-297216Y115855D02*
X-297216Y115855D01*
X-297144Y115861D01*
X-297119Y115873D01*
X-297093Y115878D01*
X-297032Y115919D01*
X-296967Y115952D01*
X-296950Y115973D01*
X-296927Y115988D01*
X-296866Y116074D01*
X-296840Y116106D01*
X-296838Y116115D01*
X-296831Y116124D01*
X-295080Y119755D01*
X-295072Y119786D01*
X-295052Y119824D01*
X-293862Y123676D01*
X-293859Y123708D01*
X-293845Y123749D01*
X-293242Y127734D01*
X-293243Y127766D01*
X-293236Y127809D01*
X-293234Y131840D01*
X-293240Y131871D01*
X-293239Y131914D01*
X-293838Y135901D01*
X-293849Y135931D01*
X-293854Y135974D01*
X-295040Y139827D01*
X-295055Y139855D01*
X-295067Y139896D01*
X-296814Y143529D01*
X-296833Y143554D01*
X-296852Y143594D01*
X-299120Y146926D01*
X-299143Y146948D01*
X-299167Y146984D01*
X-301907Y149941D01*
X-301933Y149959D01*
X-301962Y149992D01*
X-305112Y152507D01*
X-305140Y152522D01*
X-305173Y152549D01*
X-308663Y154567D01*
X-308694Y154577D01*
X-308731Y154599D01*
X-312482Y156074D01*
X-312514Y156080D01*
X-312553Y156096D01*
X-316483Y156996D01*
X-316515Y156996D01*
X-316557Y157007D01*
X-320577Y157311D01*
X-320608Y157307D01*
X-320651Y157311D01*
X-324671Y157012D01*
X-324702Y157003D01*
X-324745Y157001D01*
X-328676Y156106D01*
X-328705Y156093D01*
X-328747Y156084D01*
X-332500Y154614D01*
X-332527Y154596D01*
X-332568Y154581D01*
X-336060Y152568D01*
X-336084Y152547D01*
X-336122Y152526D01*
X-339275Y150014D01*
X-339295Y149990D01*
X-339330Y149964D01*
X-342073Y147010D01*
X-342090Y146983D01*
X-342120Y146952D01*
X-344393Y143623D01*
X-344403Y143597D01*
X-344421Y143576D01*
X-344442Y143507D01*
X-344470Y143439D01*
X-344470Y143412D01*
X-344478Y143386D01*
X-344470Y143313D01*
X-344470Y143240D01*
X-344459Y143215D01*
X-344456Y143188D01*
X-344420Y143125D01*
X-344391Y143058D01*
X-344372Y143039D01*
X-344359Y143015D01*
X-344277Y142948D01*
X-344248Y142920D01*
X-344239Y142916D01*
X-344230Y142909D01*
X-297530Y115909D01*
X-297505Y115900D01*
X-297482Y115884D01*
X-297411Y115869D01*
X-297342Y115846D01*
X-297315Y115848D01*
X-297288Y115842D01*
X-297216Y115855D01*
G37*
G36*
X8938Y-75675D02*
X8938Y-75675D01*
X9020Y-75664D01*
X9035Y-75655D01*
X9053Y-75652D01*
X9120Y-75605D01*
X9191Y-75563D01*
X9202Y-75549D01*
X9217Y-75539D01*
X9261Y-75470D01*
X9310Y-75404D01*
X9314Y-75387D01*
X9324Y-75372D01*
X9337Y-75291D01*
X9357Y-75211D01*
X9354Y-75193D01*
X9357Y-75175D01*
X9338Y-75096D01*
X9324Y-75014D01*
X9315Y-74999D01*
X9311Y-74982D01*
X9262Y-74916D01*
X9218Y-74846D01*
X9202Y-74835D01*
X9193Y-74822D01*
X9154Y-74799D01*
X9084Y-74747D01*
X7671Y-74027D01*
X6387Y-73094D01*
X5265Y-71972D01*
X4332Y-70688D01*
X3612Y-69275D01*
X3121Y-67766D01*
X2906Y-66404D01*
X12454Y-66404D01*
X12462Y-66403D01*
X12470Y-66404D01*
X12559Y-66383D01*
X12649Y-66365D01*
X12656Y-66360D01*
X12664Y-66358D01*
X12737Y-66304D01*
X12813Y-66252D01*
X12817Y-66245D01*
X12824Y-66240D01*
X12870Y-66162D01*
X12920Y-66085D01*
X12921Y-66076D01*
X12925Y-66069D01*
X12953Y-65905D01*
X12953Y-64905D01*
X12951Y-64897D01*
X12953Y-64888D01*
X12932Y-64800D01*
X12914Y-64710D01*
X12909Y-64703D01*
X12907Y-64695D01*
X12853Y-64622D01*
X12801Y-64546D01*
X12794Y-64542D01*
X12789Y-64535D01*
X12711Y-64488D01*
X12633Y-64439D01*
X12625Y-64438D01*
X12618Y-64433D01*
X12454Y-64406D01*
X2906Y-64406D01*
X3121Y-63044D01*
X3612Y-61535D01*
X4332Y-60122D01*
X5265Y-58838D01*
X6387Y-57716D01*
X7671Y-56783D01*
X8835Y-56190D01*
X8900Y-56139D01*
X8967Y-56092D01*
X8977Y-56077D01*
X8991Y-56066D01*
X9030Y-55994D01*
X9074Y-55925D01*
X9077Y-55907D01*
X9086Y-55891D01*
X9094Y-55809D01*
X9107Y-55728D01*
X9103Y-55711D01*
X9105Y-55693D01*
X9080Y-55615D01*
X9061Y-55535D01*
X9051Y-55521D01*
X9046Y-55504D01*
X8992Y-55441D01*
X8943Y-55375D01*
X8928Y-55366D01*
X8917Y-55352D01*
X8843Y-55315D01*
X8772Y-55273D01*
X8753Y-55270D01*
X8739Y-55263D01*
X8694Y-55260D01*
X8608Y-55246D01*
X-14112Y-55246D01*
X-15895Y-53462D01*
X-24674Y-44683D01*
X-24678Y-44681D01*
X-24680Y-44678D01*
X-24760Y-44626D01*
X-24840Y-44574D01*
X-24844Y-44573D01*
X-24847Y-44571D01*
X-24941Y-44555D01*
X-25035Y-44537D01*
X-25039Y-44538D01*
X-25044Y-44537D01*
X-25135Y-44559D01*
X-25229Y-44580D01*
X-25233Y-44582D01*
X-25237Y-44583D01*
X-25313Y-44639D01*
X-25392Y-44695D01*
X-25394Y-44699D01*
X-25397Y-44701D01*
X-25446Y-44783D01*
X-25496Y-44865D01*
X-25496Y-44869D01*
X-25499Y-44872D01*
X-25526Y-45036D01*
X-25526Y-60231D01*
X-25524Y-60243D01*
X-25526Y-60255D01*
X-25504Y-60340D01*
X-25487Y-60425D01*
X-25480Y-60436D01*
X-25476Y-60448D01*
X-25380Y-60584D01*
X-10419Y-75545D01*
X-10408Y-75552D01*
X-10401Y-75562D01*
X-10326Y-75607D01*
X-10253Y-75655D01*
X-10240Y-75657D01*
X-10230Y-75664D01*
X-10066Y-75691D01*
X8858Y-75691D01*
X8938Y-75675D01*
G37*
%LPC*%
G36*
X-164012Y-10970D02*
X-164012Y-10970D01*
X-166370Y-8612D01*
X-166370Y-278D01*
X-164012Y2080D01*
X-160139Y2080D01*
X-160131Y2081D01*
X-160122Y2080D01*
X-160034Y2101D01*
X-159944Y2119D01*
X-159937Y2124D01*
X-159929Y2126D01*
X-159856Y2180D01*
X-159780Y2232D01*
X-159776Y2239D01*
X-159769Y2244D01*
X-159722Y2322D01*
X-159673Y2399D01*
X-159672Y2408D01*
X-159667Y2415D01*
X-159640Y2579D01*
X-159640Y3675D01*
X-159642Y3688D01*
X-159640Y3700D01*
X-159662Y3785D01*
X-159679Y3870D01*
X-159686Y3881D01*
X-159690Y3893D01*
X-159786Y4029D01*
X-161644Y5886D01*
X-161644Y9862D01*
X-158833Y12673D01*
X-154857Y12673D01*
X-152046Y9862D01*
X-152046Y5886D01*
X-153904Y4029D01*
X-153911Y4018D01*
X-153921Y4011D01*
X-153966Y3936D01*
X-154014Y3863D01*
X-154016Y3850D01*
X-154023Y3840D01*
X-154050Y3675D01*
X-154050Y2579D01*
X-154049Y2571D01*
X-154050Y2562D01*
X-154029Y2474D01*
X-154011Y2384D01*
X-154006Y2377D01*
X-154004Y2369D01*
X-153950Y2296D01*
X-153898Y2220D01*
X-153891Y2216D01*
X-153886Y2209D01*
X-153808Y2162D01*
X-153731Y2113D01*
X-153722Y2112D01*
X-153715Y2107D01*
X-153551Y2080D01*
X-149678Y2080D01*
X-147320Y-278D01*
X-147320Y-8612D01*
X-149678Y-10970D01*
X-164012Y-10970D01*
G37*
%LPD*%
%LPC*%
G36*
X-45902Y-114348D02*
X-45902Y-114348D01*
X-48260Y-111990D01*
X-48260Y-103656D01*
X-45902Y-101298D01*
X-31568Y-101298D01*
X-29210Y-103656D01*
X-29210Y-103896D01*
X-29209Y-103900D01*
X-29210Y-103904D01*
X-29190Y-103997D01*
X-29171Y-104090D01*
X-29168Y-104094D01*
X-29167Y-104098D01*
X-29112Y-104176D01*
X-29058Y-104254D01*
X-29055Y-104257D01*
X-29052Y-104260D01*
X-28971Y-104310D01*
X-28891Y-104361D01*
X-28886Y-104362D01*
X-28883Y-104364D01*
X-28789Y-104379D01*
X-28695Y-104395D01*
X-28690Y-104394D01*
X-28686Y-104394D01*
X-28594Y-104371D01*
X-28501Y-104349D01*
X-28498Y-104346D01*
X-28494Y-104345D01*
X-28358Y-104249D01*
X-27134Y-103024D01*
X-23158Y-103024D01*
X-20347Y-105835D01*
X-20347Y-109811D01*
X-23158Y-112622D01*
X-27134Y-112622D01*
X-28358Y-111397D01*
X-28362Y-111395D01*
X-28364Y-111392D01*
X-28444Y-111341D01*
X-28524Y-111288D01*
X-28528Y-111287D01*
X-28531Y-111285D01*
X-28625Y-111269D01*
X-28719Y-111251D01*
X-28723Y-111252D01*
X-28728Y-111251D01*
X-28819Y-111273D01*
X-28913Y-111294D01*
X-28917Y-111297D01*
X-28921Y-111297D01*
X-28997Y-111353D01*
X-29076Y-111409D01*
X-29078Y-111413D01*
X-29081Y-111415D01*
X-29130Y-111497D01*
X-29180Y-111579D01*
X-29180Y-111583D01*
X-29183Y-111586D01*
X-29210Y-111750D01*
X-29210Y-111990D01*
X-31568Y-114348D01*
X-45902Y-114348D01*
G37*
%LPD*%
%LPC*%
G36*
X-132628Y-183516D02*
X-132628Y-183516D01*
X-136223Y-182027D01*
X-138974Y-179276D01*
X-140463Y-175681D01*
X-140463Y-171791D01*
X-138974Y-168196D01*
X-136223Y-165445D01*
X-132628Y-163956D01*
X-128738Y-163956D01*
X-125143Y-165445D01*
X-122392Y-168196D01*
X-120903Y-171791D01*
X-120903Y-175681D01*
X-122392Y-179276D01*
X-125143Y-182027D01*
X-128738Y-183516D01*
X-132628Y-183516D01*
G37*
%LPD*%
%LPC*%
G36*
X36551Y27130D02*
X36551Y27130D01*
X33219Y28510D01*
X30669Y31060D01*
X29289Y34392D01*
X29289Y37998D01*
X30669Y41330D01*
X33219Y43880D01*
X36551Y45260D01*
X40157Y45260D01*
X43489Y43880D01*
X46039Y41330D01*
X47419Y37998D01*
X47419Y34392D01*
X46039Y31060D01*
X43489Y28510D01*
X40157Y27130D01*
X36551Y27130D01*
G37*
%LPD*%
%LPC*%
G36*
X36551Y77930D02*
X36551Y77930D01*
X33219Y79310D01*
X30669Y81860D01*
X29289Y85192D01*
X29289Y88798D01*
X30669Y92130D01*
X33219Y94680D01*
X36551Y96060D01*
X40157Y96060D01*
X43489Y94680D01*
X46039Y92130D01*
X47419Y88798D01*
X47419Y85192D01*
X46039Y81860D01*
X43489Y79310D01*
X40157Y77930D01*
X36551Y77930D01*
G37*
%LPD*%
%LPC*%
G36*
X36551Y52530D02*
X36551Y52530D01*
X33219Y53910D01*
X30669Y56460D01*
X29289Y59792D01*
X29289Y63398D01*
X30669Y66730D01*
X33219Y69280D01*
X36551Y70660D01*
X40157Y70660D01*
X43489Y69280D01*
X46039Y66730D01*
X47419Y63398D01*
X47419Y59792D01*
X46039Y56460D01*
X43489Y53910D01*
X40157Y52530D01*
X36551Y52530D01*
G37*
%LPD*%
%LPC*%
G36*
X13953Y87994D02*
X13953Y87994D01*
X13953Y97076D01*
X20828Y97076D01*
X21475Y96903D01*
X22054Y96568D01*
X22527Y96095D01*
X22862Y95516D01*
X23035Y94869D01*
X23035Y87994D01*
X13953Y87994D01*
G37*
%LPD*%
%LPC*%
G36*
X2873Y87994D02*
X2873Y87994D01*
X2873Y94869D01*
X3046Y95516D01*
X3381Y96095D01*
X3854Y96568D01*
X4433Y96903D01*
X5080Y97076D01*
X11955Y97076D01*
X11955Y87994D01*
X2873Y87994D01*
G37*
%LPD*%
%LPC*%
G36*
X13953Y76914D02*
X13953Y76914D01*
X13953Y85996D01*
X23035Y85996D01*
X23035Y79121D01*
X22862Y78474D01*
X22527Y77895D01*
X22054Y77422D01*
X21475Y77087D01*
X20828Y76914D01*
X13953Y76914D01*
G37*
%LPD*%
%LPC*%
G36*
X5080Y76914D02*
X5080Y76914D01*
X4433Y77087D01*
X3854Y77422D01*
X3381Y77895D01*
X3046Y78474D01*
X2873Y79121D01*
X2873Y85996D01*
X11955Y85996D01*
X11955Y76914D01*
X5080Y76914D01*
G37*
%LPD*%
%LPC*%
G36*
X-236033Y68349D02*
X-236033Y68349D01*
X-234572Y69002D01*
X-234543Y69022D01*
X-234498Y69042D01*
X-231850Y70806D01*
X-231825Y70831D01*
X-231785Y70858D01*
X-229468Y73039D01*
X-229448Y73068D01*
X-229412Y73101D01*
X-227491Y75638D01*
X-227476Y75670D01*
X-227447Y75709D01*
X-225976Y78530D01*
X-225966Y78564D01*
X-225943Y78608D01*
X-224964Y81635D01*
X-224960Y81670D01*
X-224945Y81716D01*
X-224484Y84865D01*
X-224486Y84900D01*
X-224479Y84948D01*
X-224549Y88129D01*
X-224557Y88164D01*
X-224558Y88212D01*
X-224728Y89096D01*
X-222104Y89096D01*
X-221903Y87580D01*
X-221899Y84689D01*
X-222273Y81822D01*
X-223018Y79029D01*
X-224121Y76357D01*
X-225564Y73851D01*
X-227312Y71567D01*
X-227321Y71556D01*
X-229362Y69509D01*
X-231654Y67746D01*
X-234156Y66298D01*
X-236033Y65518D01*
X-236033Y68349D01*
G37*
%LPD*%
%LPC*%
G36*
X-224728Y-92906D02*
X-224728Y-92906D01*
X-224558Y-92022D01*
X-224558Y-91987D01*
X-224549Y-91939D01*
X-224479Y-88758D01*
X-224485Y-88724D01*
X-224484Y-88675D01*
X-224945Y-85526D01*
X-224957Y-85493D01*
X-224964Y-85445D01*
X-225943Y-82418D01*
X-225961Y-82387D01*
X-225976Y-82340D01*
X-227447Y-79519D01*
X-227469Y-79492D01*
X-227491Y-79448D01*
X-229412Y-76911D01*
X-229438Y-76888D01*
X-229468Y-76849D01*
X-231785Y-74668D01*
X-231815Y-74650D01*
X-231850Y-74616D01*
X-234498Y-72852D01*
X-234531Y-72839D01*
X-234572Y-72812D01*
X-236033Y-72159D01*
X-236033Y-69334D01*
X-234433Y-69976D01*
X-232713Y-70936D01*
X-231985Y-71342D01*
X-230323Y-72569D01*
X-229730Y-73007D01*
X-227704Y-74943D01*
X-225939Y-77121D01*
X-224464Y-79505D01*
X-223302Y-82056D01*
X-222473Y-84734D01*
X-221990Y-87495D01*
X-221860Y-90295D01*
X-222070Y-92906D01*
X-224728Y-92906D01*
G37*
%LPD*%
%LPC*%
G36*
X-158611Y-184266D02*
X-158611Y-184266D01*
X-160227Y-183741D01*
X-161741Y-182969D01*
X-163116Y-181971D01*
X-164318Y-180769D01*
X-165316Y-179394D01*
X-166088Y-177880D01*
X-166613Y-176264D01*
X-166855Y-174735D01*
X-157082Y-174735D01*
X-157082Y-184508D01*
X-158611Y-184266D01*
G37*
%LPD*%
%LPC*%
G36*
X-166855Y-172737D02*
X-166855Y-172737D01*
X-166613Y-171208D01*
X-166088Y-169592D01*
X-165316Y-168078D01*
X-164318Y-166703D01*
X-163116Y-165501D01*
X-161741Y-164503D01*
X-160227Y-163731D01*
X-158611Y-163206D01*
X-157082Y-162964D01*
X-157082Y-172737D01*
X-166855Y-172737D01*
G37*
%LPD*%
%LPC*%
G36*
X-155084Y-174735D02*
X-155084Y-174735D01*
X-145311Y-174735D01*
X-145553Y-176264D01*
X-146078Y-177880D01*
X-146850Y-179394D01*
X-147848Y-180769D01*
X-149050Y-181971D01*
X-150425Y-182969D01*
X-151939Y-183741D01*
X-153555Y-184266D01*
X-155084Y-184508D01*
X-155084Y-174735D01*
G37*
%LPD*%
%LPC*%
G36*
X-155084Y-172737D02*
X-155084Y-172737D01*
X-155084Y-162964D01*
X-153555Y-163206D01*
X-151939Y-163731D01*
X-150425Y-164503D01*
X-149050Y-165501D01*
X-147848Y-166703D01*
X-146850Y-168078D01*
X-146078Y-169592D01*
X-145553Y-171208D01*
X-145311Y-172737D01*
X-155084Y-172737D01*
G37*
%LPD*%
%LPC*%
G36*
X13953Y37194D02*
X13953Y37194D01*
X13953Y46243D01*
X15315Y46028D01*
X16824Y45537D01*
X18237Y44817D01*
X19521Y43884D01*
X20643Y42762D01*
X21576Y41478D01*
X22296Y40065D01*
X22787Y38556D01*
X23002Y37194D01*
X13953Y37194D01*
G37*
%LPD*%
%LPC*%
G36*
X13953Y-91804D02*
X13953Y-91804D01*
X23002Y-91804D01*
X22787Y-93166D01*
X22296Y-94675D01*
X21576Y-96088D01*
X20643Y-97372D01*
X19521Y-98494D01*
X18237Y-99427D01*
X16824Y-100147D01*
X15315Y-100638D01*
X13953Y-100853D01*
X13953Y-91804D01*
G37*
%LPD*%
%LPC*%
G36*
X13953Y62594D02*
X13953Y62594D01*
X13953Y71643D01*
X15315Y71428D01*
X16824Y70937D01*
X18237Y70217D01*
X19521Y69284D01*
X20643Y68162D01*
X21576Y66878D01*
X22296Y65465D01*
X22787Y63956D01*
X23002Y62594D01*
X13953Y62594D01*
G37*
%LPD*%
%LPC*%
G36*
X13953Y35196D02*
X13953Y35196D01*
X23002Y35196D01*
X22787Y33834D01*
X22296Y32325D01*
X21576Y30912D01*
X20643Y29628D01*
X19521Y28506D01*
X18237Y27573D01*
X16824Y26853D01*
X15315Y26362D01*
X13953Y26147D01*
X13953Y35196D01*
G37*
%LPD*%
%LPC*%
G36*
X2906Y37194D02*
X2906Y37194D01*
X3121Y38556D01*
X3612Y40065D01*
X4332Y41478D01*
X5265Y42762D01*
X6387Y43884D01*
X7671Y44817D01*
X9084Y45537D01*
X10593Y46028D01*
X11955Y46243D01*
X11955Y37194D01*
X2906Y37194D01*
G37*
%LPD*%
%LPC*%
G36*
X13953Y60596D02*
X13953Y60596D01*
X23002Y60596D01*
X22787Y59234D01*
X22296Y57725D01*
X21576Y56312D01*
X20643Y55028D01*
X19521Y53906D01*
X18237Y52973D01*
X16824Y52253D01*
X15315Y51762D01*
X13953Y51547D01*
X13953Y60596D01*
G37*
%LPD*%
%LPC*%
G36*
X10593Y-100638D02*
X10593Y-100638D01*
X9084Y-100147D01*
X7671Y-99427D01*
X6387Y-98494D01*
X5265Y-97372D01*
X4332Y-96088D01*
X3612Y-94675D01*
X3121Y-93166D01*
X2906Y-91804D01*
X11955Y-91804D01*
X11955Y-100853D01*
X10593Y-100638D01*
G37*
%LPD*%
%LPC*%
G36*
X2906Y62594D02*
X2906Y62594D01*
X3121Y63956D01*
X3612Y65465D01*
X4332Y66878D01*
X5265Y68162D01*
X6387Y69284D01*
X7671Y70217D01*
X9084Y70937D01*
X10593Y71428D01*
X11955Y71643D01*
X11955Y62594D01*
X2906Y62594D01*
G37*
%LPD*%
%LPC*%
G36*
X10593Y26362D02*
X10593Y26362D01*
X9084Y26853D01*
X7671Y27573D01*
X6387Y28506D01*
X5265Y29628D01*
X4332Y30912D01*
X3612Y32325D01*
X3121Y33834D01*
X2906Y35196D01*
X11955Y35196D01*
X11955Y26147D01*
X10593Y26362D01*
G37*
%LPD*%
%LPC*%
G36*
X10593Y51762D02*
X10593Y51762D01*
X9084Y52253D01*
X7671Y52973D01*
X6387Y53906D01*
X5265Y55028D01*
X4332Y56312D01*
X3612Y57725D01*
X3121Y59234D01*
X2906Y60596D01*
X11955Y60596D01*
X11955Y51547D01*
X10593Y51762D01*
G37*
%LPD*%
%LPC*%
G36*
X-236033Y-107697D02*
X-236033Y-107697D01*
X-235338Y-107423D01*
X-235309Y-107404D01*
X-235263Y-107386D01*
X-232539Y-105741D01*
X-232514Y-105717D01*
X-232472Y-105692D01*
X-230061Y-103616D01*
X-230039Y-103588D01*
X-230002Y-103556D01*
X-227971Y-101107D01*
X-227954Y-101076D01*
X-227923Y-101038D01*
X-226329Y-98284D01*
X-226318Y-98251D01*
X-226293Y-98209D01*
X-225180Y-95228D01*
X-225175Y-95193D01*
X-225158Y-95147D01*
X-225111Y-94904D01*
X-222467Y-94904D01*
X-222662Y-95832D01*
X-223582Y-98480D01*
X-224302Y-99928D01*
X-224830Y-100990D01*
X-225795Y-102436D01*
X-226386Y-103322D01*
X-227584Y-104701D01*
X-227584Y-104702D01*
X-228224Y-105438D01*
X-230315Y-107305D01*
X-232626Y-108892D01*
X-235119Y-110173D01*
X-236033Y-110505D01*
X-236033Y-107697D01*
G37*
%LPD*%
%LPC*%
G36*
X-225111Y91094D02*
X-225111Y91094D01*
X-225158Y91337D01*
X-225171Y91370D01*
X-225180Y91418D01*
X-226293Y94399D01*
X-226312Y94428D01*
X-226329Y94474D01*
X-227923Y97228D01*
X-227946Y97254D01*
X-227971Y97297D01*
X-230002Y99746D01*
X-230029Y99768D01*
X-230061Y99806D01*
X-232472Y101882D01*
X-232502Y101899D01*
X-232539Y101931D01*
X-235263Y103576D01*
X-235296Y103588D01*
X-235338Y103613D01*
X-236033Y103887D01*
X-236033Y106697D01*
X-234203Y105942D01*
X-231997Y104671D01*
X-231698Y104499D01*
X-229635Y102920D01*
X-229402Y102742D01*
X-227356Y100701D01*
X-225593Y98409D01*
X-224145Y95907D01*
X-223035Y93238D01*
X-222458Y91094D01*
X-225111Y91094D01*
G37*
%LPD*%
%LPC*%
G36*
X12953Y86994D02*
X12953Y86994D01*
X12953Y86996D01*
X12955Y86996D01*
X12955Y86994D01*
X12953Y86994D01*
G37*
%LPD*%
%LPC*%
G36*
X12953Y36194D02*
X12953Y36194D01*
X12953Y36196D01*
X12955Y36196D01*
X12955Y36194D01*
X12953Y36194D01*
G37*
%LPD*%
%LPC*%
G36*
X12953Y61594D02*
X12953Y61594D01*
X12953Y61596D01*
X12955Y61596D01*
X12955Y61594D01*
X12953Y61594D01*
G37*
%LPD*%
%LPC*%
G36*
X-156084Y-173737D02*
X-156084Y-173737D01*
X-156084Y-173735D01*
X-156082Y-173735D01*
X-156082Y-173737D01*
X-156084Y-173737D01*
G37*
%LPD*%
D10*
X-79883Y-173736D03*
D11*
X-105283Y-173736D03*
X-130683Y-173736D03*
X-156083Y-173736D03*
D12*
X12954Y86995D03*
D13*
X38354Y86995D03*
X12954Y61595D03*
X38354Y61595D03*
X12954Y36195D03*
X38354Y36195D03*
X12954Y10795D03*
X38354Y10795D03*
X12954Y-14605D03*
X38354Y-14605D03*
X12954Y-40005D03*
X38354Y-40005D03*
X12954Y-65405D03*
X38354Y-65405D03*
X12954Y-90805D03*
X38354Y-90805D03*
D14*
X-151218Y-19852D02*
X-162218Y-19852D01*
X-151218Y-19852D02*
X-151218Y-24852D01*
X-162218Y-24852D01*
X-162218Y-19852D01*
X-162218Y-20102D02*
X-151218Y-20102D01*
X-151345Y-1945D02*
X-162345Y-1945D01*
X-151345Y-1945D02*
X-151345Y-6945D01*
X-162345Y-6945D01*
X-162345Y-1945D01*
X-162345Y-2195D02*
X-151345Y-2195D01*
X-44235Y-105323D02*
X-33235Y-105323D01*
X-33235Y-110323D01*
X-44235Y-110323D01*
X-44235Y-105323D01*
X-44235Y-105573D02*
X-33235Y-105573D01*
D15*
X-387477Y179555D03*
X-237032Y90095D03*
X-237032Y-93905D03*
X-387350Y-182222D03*
X-316800Y136095D03*
X-237032Y-1905D03*
X-316600Y-139905D03*
D16*
X-146431Y-55880D03*
D17*
X-180213Y-104902D03*
D18*
X-122936Y43942D03*
D19*
X-38735Y-107823D02*
X-25146Y-107823D01*
D18*
X-25146Y-107823D03*
D17*
X-119380Y-58039D03*
D19*
X-119380Y-159639D02*
X-105283Y-173736D01*
X-119380Y-159639D02*
X-119380Y-58039D01*
D17*
X-135382Y-26797D03*
D19*
X-80137Y-173736D02*
X-79883Y-173736D01*
X-80137Y-173736D02*
X-110871Y-143002D01*
X-110871Y-57150D01*
X-135382Y-32639D01*
X-135382Y-26797D01*
D20*
X-54229Y49657D02*
X-32639Y28067D01*
X-54229Y49657D02*
X-89408Y49657D01*
D17*
X-118491Y78740D03*
D20*
X-89408Y49657D01*
X-32639Y28067D02*
X-32639Y-81407D01*
X-8636Y-105410D01*
X23749Y-105410D01*
X38354Y-90805D01*
X26289Y-1270D02*
X38354Y10795D01*
X26289Y-1270D02*
X1270Y-1270D01*
X-5461Y5461D01*
X-5461Y52578D01*
X-31242Y78359D01*
X-54483Y78359D01*
D17*
X-54483Y78359D03*
X-65405Y78486D03*
D20*
X-59182Y72263D01*
X-6477Y-14605D02*
X12954Y-14605D01*
X-6477Y-14605D02*
X-11811Y-9271D01*
X-46108Y72263D02*
X-59182Y72263D01*
X-46108Y72263D02*
X-11811Y37966D01*
X-11811Y-9271D01*
D17*
X-76454Y78486D03*
D20*
X-65278Y67310D01*
X-16002Y35814D02*
X-16002Y-13088D01*
X26035Y-26924D02*
X38354Y-14605D01*
X-47498Y67310D02*
X-65278Y67310D01*
X-47498Y67310D02*
X-16002Y35814D01*
X-16002Y-13088D02*
X-2166Y-26924D01*
X26035Y-26924D01*
X-20066Y33782D02*
X-49403Y63119D01*
X-69469Y63119D01*
X-85090Y78740D01*
D17*
X-85090Y78740D03*
D20*
X-20066Y33782D02*
X-20066Y-21336D01*
X-1397Y-40005D02*
X12954Y-40005D01*
X-1397Y-40005D02*
X-20066Y-21336D01*
X-52324Y53721D02*
X-82042Y53721D01*
D17*
X-107061Y78740D03*
D20*
X-52324Y53721D02*
X-28321Y29718D01*
X-82042Y53721D02*
X-107061Y78740D01*
X-28321Y-61595D02*
X-11684Y-78232D01*
D19*
X21336Y-78232D01*
D20*
X34163Y-65405D02*
X38354Y-65405D01*
X-28321Y-61595D02*
X-28321Y29718D01*
X34163Y-65405D02*
X21336Y-78232D01*
X-1270Y56261D02*
X-30099Y85090D01*
X-136271Y85090D01*
X-141351Y80010D01*
X-141351Y-12065D01*
X-139319Y-14097D01*
X-135509Y-14097D01*
D16*
X-135509Y-14097D03*
D20*
X-1270Y14224D02*
X-1270Y56261D01*
X-1270Y14224D02*
X2159Y10795D01*
X12954Y10795D01*
D17*
X-95631Y78740D03*
D19*
X-95631Y77470D01*
D20*
X-77089Y58928D01*
X-51562Y58928D01*
X-24257Y31623D01*
X-24257Y-41148D01*
X-12954Y-52451D01*
X25908Y-52451D01*
X38354Y-40005D01*
D18*
X-236855Y-37338D03*
D20*
X-236855Y-2082D01*
D19*
X-237032Y-1905D01*
D20*
X-156845Y-4445D02*
X-156845Y7874D01*
D18*
X-156845Y7874D03*
D20*
X-143002Y-19304D02*
X-145415Y-21717D01*
D19*
X-156083Y-21717D02*
X-156718Y-22352D01*
D20*
X-156083Y-21717D02*
X-145415Y-21717D01*
D18*
X-143002Y-19304D03*
M02*
