G04 EAGLE Gerber RS-274X export*
G75*
%MOMM*%
%FSLAX34Y34*%
%LPD*%
%INBottom Copper*%
%IPPOS*%
%AMOC8*
5,1,8,0,0,1.08239X$1,22.5*%
G01*
%ADD10C,1.143000*%
%ADD11R,1.651000X1.651000*%
%ADD12C,1.651000*%
%ADD13R,1.508000X1.508000*%
%ADD14C,1.508000*%
%ADD15R,1.143000X1.143000*%
%ADD16C,1.000000*%
%ADD17C,0.499997*%
%ADD18C,0.609600*%
%ADD19C,0.609600*%
%ADD20C,0.558800*%
%ADD21C,0.203200*%
%ADD22C,0.254000*%
%ADD23C,0.654800*%
%ADD24C,0.152400*%
%ADD25C,0.406400*%

G36*
X-398783Y-204283D02*
X-398783Y-204283D01*
X-398750Y-204274D01*
X-398703Y-204270D01*
X-395884Y-203573D01*
X-395853Y-203558D01*
X-395807Y-203547D01*
X-393138Y-202402D01*
X-393110Y-202383D01*
X-393066Y-202364D01*
X-390618Y-200801D01*
X-390594Y-200778D01*
X-390554Y-200752D01*
X-388391Y-198813D01*
X-388371Y-198786D01*
X-388336Y-198754D01*
X-386517Y-196490D01*
X-386501Y-196460D01*
X-386471Y-196423D01*
X-385043Y-193894D01*
X-385033Y-193862D01*
X-385009Y-193820D01*
X-384267Y-191793D01*
X-381556Y-191793D01*
X-381746Y-192561D01*
X-382307Y-193975D01*
X-382795Y-195201D01*
X-383623Y-196668D01*
X-384191Y-197674D01*
X-385281Y-199109D01*
X-385906Y-199932D01*
X-385937Y-199995D01*
X-385975Y-200054D01*
X-385980Y-200084D01*
X-385993Y-200111D01*
X-385996Y-200181D01*
X-386008Y-200251D01*
X-386001Y-200280D01*
X-386002Y-200310D01*
X-385978Y-200376D01*
X-385962Y-200444D01*
X-385944Y-200468D01*
X-385934Y-200496D01*
X-385885Y-200548D01*
X-385844Y-200604D01*
X-385818Y-200619D01*
X-385797Y-200641D01*
X-385733Y-200670D01*
X-385673Y-200706D01*
X-385639Y-200711D01*
X-385616Y-200722D01*
X-385573Y-200722D01*
X-385509Y-200733D01*
X177464Y-200733D01*
X177545Y-200717D01*
X177626Y-200706D01*
X177644Y-200697D01*
X177659Y-200694D01*
X177696Y-200668D01*
X177773Y-200626D01*
X177800Y-200605D01*
X178841Y-200730D01*
X178866Y-200728D01*
X178900Y-200733D01*
X179979Y-200733D01*
X180052Y-200782D01*
X180053Y-200782D01*
X180054Y-200783D01*
X180063Y-200784D01*
X180214Y-200818D01*
X184380Y-201042D01*
X184419Y-201036D01*
X184478Y-201037D01*
X194958Y-199531D01*
X195000Y-199516D01*
X195083Y-199496D01*
X196228Y-199006D01*
X197394Y-198507D01*
X198560Y-198007D01*
X199726Y-197508D01*
X200892Y-197009D01*
X202058Y-196510D01*
X203224Y-196010D01*
X204390Y-195511D01*
X204816Y-195329D01*
X204853Y-195303D01*
X204928Y-195262D01*
X213251Y-188718D01*
X213280Y-188684D01*
X213342Y-188625D01*
X219687Y-180150D01*
X219706Y-180109D01*
X219751Y-180036D01*
X223686Y-170207D01*
X223693Y-170168D01*
X223714Y-170113D01*
X224662Y-165032D01*
X224661Y-164995D01*
X224670Y-164941D01*
X224670Y160565D01*
X224664Y160596D01*
X224665Y160640D01*
X223994Y165046D01*
X223981Y165084D01*
X223970Y165141D01*
X220884Y173667D01*
X220861Y173705D01*
X220824Y173783D01*
X215636Y181219D01*
X215604Y181250D01*
X215548Y181315D01*
X208613Y187156D01*
X208573Y187177D01*
X208503Y187226D01*
X200292Y191072D01*
X200249Y191083D01*
X200168Y191112D01*
X191241Y192702D01*
X191202Y192701D01*
X191144Y192709D01*
X187802Y192642D01*
X187795Y192641D01*
X187787Y192642D01*
X187698Y192619D01*
X187637Y192605D01*
X186460Y192605D01*
X186442Y192601D01*
X186418Y192603D01*
X185302Y192508D01*
X185259Y192531D01*
X185181Y192578D01*
X185171Y192579D01*
X185164Y192583D01*
X185126Y192587D01*
X185017Y192605D01*
X-385509Y192605D01*
X-385578Y192591D01*
X-385648Y192586D01*
X-385674Y192572D01*
X-385704Y192566D01*
X-385762Y192526D01*
X-385824Y192493D01*
X-385843Y192470D01*
X-385868Y192453D01*
X-385905Y192394D01*
X-385950Y192340D01*
X-385958Y192311D01*
X-385975Y192286D01*
X-385986Y192216D01*
X-386006Y192149D01*
X-386003Y192119D01*
X-386008Y192089D01*
X-385992Y192021D01*
X-385983Y191951D01*
X-385968Y191921D01*
X-385962Y191896D01*
X-385937Y191862D01*
X-385906Y191804D01*
X-384191Y189546D01*
X-382795Y187073D01*
X-381746Y184433D01*
X-381064Y181676D01*
X-381005Y181125D01*
X-383654Y181125D01*
X-383989Y182887D01*
X-384002Y182919D01*
X-384011Y182965D01*
X-385009Y185692D01*
X-385027Y185722D01*
X-385043Y185766D01*
X-386471Y188295D01*
X-386494Y188321D01*
X-386517Y188362D01*
X-388336Y190626D01*
X-388362Y190648D01*
X-388391Y190685D01*
X-390554Y192624D01*
X-390583Y192642D01*
X-390618Y192673D01*
X-393066Y194236D01*
X-393098Y194248D01*
X-393138Y194274D01*
X-395807Y195419D01*
X-395840Y195426D01*
X-395884Y195445D01*
X-398703Y196142D01*
X-398737Y196144D01*
X-398783Y196155D01*
X-401678Y196386D01*
X-401712Y196382D01*
X-401760Y196385D01*
X-404654Y196144D01*
X-404737Y196119D01*
X-404822Y196099D01*
X-404832Y196091D01*
X-404844Y196088D01*
X-404912Y196033D01*
X-404982Y195981D01*
X-404989Y195970D01*
X-404999Y195962D01*
X-405039Y195885D01*
X-405083Y195810D01*
X-405086Y195796D01*
X-405091Y195786D01*
X-405095Y195743D01*
X-405111Y195646D01*
X-405121Y175936D01*
X-405106Y175860D01*
X-405097Y175782D01*
X-405086Y175763D01*
X-405082Y175741D01*
X-405038Y175677D01*
X-404999Y175609D01*
X-404980Y175593D01*
X-404969Y175577D01*
X-404935Y175556D01*
X-404932Y175552D01*
X-404923Y175546D01*
X-404871Y175503D01*
X-388371Y166003D01*
X-388294Y165977D01*
X-388217Y165946D01*
X-388199Y165946D01*
X-388182Y165940D01*
X-388101Y165947D01*
X-388019Y165948D01*
X-388002Y165955D01*
X-387984Y165956D01*
X-387911Y165994D01*
X-387836Y166027D01*
X-387822Y166041D01*
X-387808Y166048D01*
X-387779Y166083D01*
X-387718Y166143D01*
X-386015Y168496D01*
X-386001Y168527D01*
X-385973Y168566D01*
X-384675Y171164D01*
X-384666Y171197D01*
X-384644Y171239D01*
X-383785Y174013D01*
X-383781Y174047D01*
X-383767Y174092D01*
X-383369Y176969D01*
X-383371Y177003D01*
X-383364Y177050D01*
X-383416Y179127D01*
X-380791Y179127D01*
X-380762Y178852D01*
X-380844Y176014D01*
X-381310Y173212D01*
X-382151Y170499D01*
X-383351Y167926D01*
X-383423Y167814D01*
X-383431Y167794D01*
X-383444Y167778D01*
X-383467Y167702D01*
X-383495Y167628D01*
X-383495Y167608D01*
X-383501Y167588D01*
X-383492Y167509D01*
X-383490Y167430D01*
X-383481Y167411D01*
X-383479Y167390D01*
X-383440Y167321D01*
X-383407Y167249D01*
X-383391Y167235D01*
X-383381Y167217D01*
X-383278Y167132D01*
X-383260Y167115D01*
X-383256Y167114D01*
X-383253Y167111D01*
X-350653Y148291D01*
X-350604Y148275D01*
X-350558Y148249D01*
X-350511Y148244D01*
X-350465Y148228D01*
X-350413Y148232D01*
X-350361Y148226D01*
X-350315Y148240D01*
X-350267Y148244D01*
X-350220Y148268D01*
X-350170Y148283D01*
X-350125Y148317D01*
X-350090Y148335D01*
X-350071Y148359D01*
X-350038Y148384D01*
X-349461Y149005D01*
X-349445Y149032D01*
X-349415Y149063D01*
X-349049Y149600D01*
X-349041Y149601D01*
X-348971Y149629D01*
X-348899Y149651D01*
X-348877Y149668D01*
X-348856Y149676D01*
X-348825Y149707D01*
X-348767Y149752D01*
X-347154Y151488D01*
X-347115Y151552D01*
X-347070Y151612D01*
X-347062Y151639D01*
X-347050Y151658D01*
X-347044Y151702D01*
X-347024Y151772D01*
X-347023Y151780D01*
X-346515Y152185D01*
X-346494Y152209D01*
X-346460Y152235D01*
X-346018Y152711D01*
X-346010Y152712D01*
X-345937Y152729D01*
X-345863Y152739D01*
X-345838Y152753D01*
X-345817Y152758D01*
X-345781Y152785D01*
X-345717Y152820D01*
X-343863Y154297D01*
X-343815Y154354D01*
X-343761Y154406D01*
X-343750Y154432D01*
X-343736Y154449D01*
X-343723Y154491D01*
X-343692Y154558D01*
X-343690Y154565D01*
X-343127Y154890D01*
X-343103Y154911D01*
X-343066Y154932D01*
X-342558Y155337D01*
X-342550Y155336D01*
X-342475Y155342D01*
X-342400Y155341D01*
X-342374Y155351D01*
X-342352Y155353D01*
X-342313Y155374D01*
X-342244Y155399D01*
X-340191Y156583D01*
X-340134Y156633D01*
X-340074Y156676D01*
X-340058Y156700D01*
X-340042Y156715D01*
X-340023Y156754D01*
X-339982Y156816D01*
X-339979Y156823D01*
X-339375Y157060D01*
X-339348Y157077D01*
X-339307Y157092D01*
X-338745Y157417D01*
X-338737Y157415D01*
X-338662Y157410D01*
X-338588Y157398D01*
X-338560Y157404D01*
X-338538Y157402D01*
X-338497Y157417D01*
X-338425Y157432D01*
X-336218Y158296D01*
X-336155Y158337D01*
X-336089Y158371D01*
X-336070Y158392D01*
X-336051Y158404D01*
X-336027Y158441D01*
X-335978Y158495D01*
X-335974Y158502D01*
X-335340Y158646D01*
X-335311Y158660D01*
X-335269Y158668D01*
X-334664Y158905D01*
X-334657Y158902D01*
X-334583Y158886D01*
X-334512Y158863D01*
X-334484Y158865D01*
X-334462Y158860D01*
X-334419Y158869D01*
X-334346Y158873D01*
X-332035Y159399D01*
X-331967Y159430D01*
X-331896Y159454D01*
X-331874Y159472D01*
X-331854Y159481D01*
X-331824Y159513D01*
X-331768Y159560D01*
X-331762Y159566D01*
X-331115Y159614D01*
X-331084Y159623D01*
X-331041Y159625D01*
X-330407Y159769D01*
X-330400Y159765D01*
X-330330Y159738D01*
X-330263Y159705D01*
X-330235Y159702D01*
X-330214Y159695D01*
X-330171Y159696D01*
X-330098Y159690D01*
X-327734Y159865D01*
X-327662Y159886D01*
X-327588Y159899D01*
X-327564Y159913D01*
X-327543Y159919D01*
X-327508Y159947D01*
X-327446Y159985D01*
X-327439Y159990D01*
X-326792Y159941D01*
X-326760Y159945D01*
X-326717Y159941D01*
X-326069Y159989D01*
X-326063Y159984D01*
X-325998Y159947D01*
X-325936Y159904D01*
X-325909Y159897D01*
X-325890Y159887D01*
X-325846Y159882D01*
X-325775Y159864D01*
X-323412Y159686D01*
X-323337Y159695D01*
X-323262Y159697D01*
X-323236Y159708D01*
X-323214Y159710D01*
X-323176Y159732D01*
X-323109Y159760D01*
X-323102Y159765D01*
X-322469Y159620D01*
X-322437Y159619D01*
X-322395Y159609D01*
X-321747Y159560D01*
X-321742Y159554D01*
X-321683Y159508D01*
X-321628Y159456D01*
X-321602Y159445D01*
X-321585Y159432D01*
X-321542Y159420D01*
X-321475Y159392D01*
X-319164Y158864D01*
X-319089Y158862D01*
X-319015Y158852D01*
X-318987Y158859D01*
X-318965Y158859D01*
X-318925Y158875D01*
X-318853Y158893D01*
X-318846Y158896D01*
X-318242Y158658D01*
X-318210Y158653D01*
X-318170Y158636D01*
X-317537Y158491D01*
X-317533Y158484D01*
X-317481Y158430D01*
X-317435Y158371D01*
X-317411Y158356D01*
X-317396Y158340D01*
X-317355Y158323D01*
X-317293Y158285D01*
X-315087Y157418D01*
X-315013Y157405D01*
X-314941Y157385D01*
X-314913Y157387D01*
X-314891Y157383D01*
X-314848Y157393D01*
X-314775Y157400D01*
X-314767Y157402D01*
X-314205Y157077D01*
X-314175Y157067D01*
X-314138Y157045D01*
X-313533Y156807D01*
X-313530Y156800D01*
X-313487Y156738D01*
X-313450Y156673D01*
X-313429Y156655D01*
X-313416Y156637D01*
X-313379Y156613D01*
X-313322Y156567D01*
X-311270Y155380D01*
X-311199Y155357D01*
X-311131Y155326D01*
X-311103Y155324D01*
X-311082Y155317D01*
X-311038Y155321D01*
X-310965Y155316D01*
X-310957Y155317D01*
X-310449Y154912D01*
X-310421Y154898D01*
X-310388Y154870D01*
X-309825Y154545D01*
X-309823Y154537D01*
X-309790Y154470D01*
X-309763Y154400D01*
X-309744Y154379D01*
X-309735Y154359D01*
X-309701Y154330D01*
X-309652Y154276D01*
X-307800Y152797D01*
X-307734Y152763D01*
X-307671Y152722D01*
X-307643Y152716D01*
X-307623Y152706D01*
X-307579Y152703D01*
X-307508Y152688D01*
X-307500Y152688D01*
X-307058Y152212D01*
X-307032Y152193D01*
X-307003Y152161D01*
X-306496Y151755D01*
X-306495Y151747D01*
X-306472Y151676D01*
X-306456Y151603D01*
X-306441Y151579D01*
X-306434Y151558D01*
X-306405Y151525D01*
X-306365Y151464D01*
X-304754Y149725D01*
X-304693Y149681D01*
X-304637Y149632D01*
X-304610Y149622D01*
X-304592Y149609D01*
X-304549Y149599D01*
X-304481Y149574D01*
X-304473Y149573D01*
X-304107Y149036D01*
X-304085Y149014D01*
X-304061Y148977D01*
X-303619Y148501D01*
X-303620Y148493D01*
X-303608Y148419D01*
X-303603Y148344D01*
X-303591Y148318D01*
X-303588Y148297D01*
X-303564Y148259D01*
X-303533Y148193D01*
X-302200Y146234D01*
X-302146Y146181D01*
X-302098Y146124D01*
X-302073Y146110D01*
X-302057Y146095D01*
X-302016Y146079D01*
X-301952Y146044D01*
X-301944Y146041D01*
X-301663Y145456D01*
X-301644Y145430D01*
X-301626Y145391D01*
X-301260Y144854D01*
X-301262Y144846D01*
X-301261Y144771D01*
X-301267Y144696D01*
X-301259Y144669D01*
X-301259Y144647D01*
X-301241Y144607D01*
X-301221Y144537D01*
X-300194Y142401D01*
X-300149Y142341D01*
X-300110Y142277D01*
X-300087Y142260D01*
X-300074Y142242D01*
X-300036Y142220D01*
X-299978Y142176D01*
X-299970Y142172D01*
X-299779Y141551D01*
X-299764Y141523D01*
X-299752Y141482D01*
X-299471Y140896D01*
X-299473Y140889D01*
X-299484Y140814D01*
X-299501Y140741D01*
X-299497Y140713D01*
X-299500Y140692D01*
X-299489Y140649D01*
X-299479Y140577D01*
X-298782Y138311D01*
X-298746Y138245D01*
X-298744Y138241D01*
X-298743Y138238D01*
X-298742Y138236D01*
X-298717Y138176D01*
X-298698Y138156D01*
X-298687Y138137D01*
X-298652Y138109D01*
X-298638Y138095D01*
X-298626Y138077D01*
X-298616Y138072D01*
X-298602Y138057D01*
X-298595Y138052D01*
X-298499Y137410D01*
X-298488Y137380D01*
X-298482Y137337D01*
X-298291Y136716D01*
X-298295Y136709D01*
X-298316Y136637D01*
X-298344Y136567D01*
X-298345Y136539D01*
X-298351Y136518D01*
X-298346Y136474D01*
X-298346Y136448D01*
X-298349Y136434D01*
X-298347Y136426D01*
X-298347Y136401D01*
X-297996Y134057D01*
X-297970Y133987D01*
X-297951Y133914D01*
X-297935Y133891D01*
X-297927Y133870D01*
X-297897Y133838D01*
X-297855Y133778D01*
X-297849Y133773D01*
X-297850Y133123D01*
X-297843Y133092D01*
X-297844Y133049D01*
X-297748Y132406D01*
X-297753Y132400D01*
X-297784Y132332D01*
X-297822Y132268D01*
X-297827Y132240D01*
X-297836Y132220D01*
X-297838Y132176D01*
X-297850Y132104D01*
X-297852Y129733D01*
X-297837Y129660D01*
X-297829Y129585D01*
X-297817Y129560D01*
X-297812Y129539D01*
X-297787Y129502D01*
X-297754Y129437D01*
X-297750Y129430D01*
X-297847Y128788D01*
X-297845Y128756D01*
X-297852Y128714D01*
X-297853Y128064D01*
X-297858Y128058D01*
X-297900Y127996D01*
X-297947Y127938D01*
X-297956Y127911D01*
X-297968Y127893D01*
X-297976Y127849D01*
X-297999Y127780D01*
X-298354Y125437D01*
X-298350Y125362D01*
X-298354Y125287D01*
X-298345Y125260D01*
X-298344Y125238D01*
X-298325Y125198D01*
X-298302Y125129D01*
X-298298Y125122D01*
X-298490Y124501D01*
X-298493Y124469D01*
X-298507Y124428D01*
X-298604Y123786D01*
X-298610Y123781D01*
X-298661Y123726D01*
X-298716Y123675D01*
X-298729Y123650D01*
X-298744Y123634D01*
X-298758Y123592D01*
X-298791Y123527D01*
X-299491Y121262D01*
X-299498Y121188D01*
X-299513Y121114D01*
X-299509Y121086D01*
X-299511Y121065D01*
X-299498Y121023D01*
X-299485Y120950D01*
X-299483Y120943D01*
X-299765Y120358D01*
X-299773Y120327D01*
X-299792Y120288D01*
X-300031Y119516D01*
X-300036Y119464D01*
X-300051Y119413D01*
X-300046Y119366D01*
X-300051Y119318D01*
X-300035Y119268D01*
X-300029Y119215D01*
X-300006Y119174D01*
X-299992Y119128D01*
X-299958Y119088D01*
X-299932Y119042D01*
X-299888Y119006D01*
X-299863Y118976D01*
X-299836Y118963D01*
X-299804Y118936D01*
X-266522Y99723D01*
X-266450Y99699D01*
X-266381Y99668D01*
X-266357Y99668D01*
X-266334Y99660D01*
X-266258Y99666D01*
X-266182Y99664D01*
X-266160Y99673D01*
X-266135Y99675D01*
X-266068Y99710D01*
X-265998Y99738D01*
X-265978Y99757D01*
X-265959Y99767D01*
X-265931Y99801D01*
X-265876Y99852D01*
X-265379Y100502D01*
X-263337Y102548D01*
X-261046Y104311D01*
X-258544Y105759D01*
X-255874Y106869D01*
X-253082Y107620D01*
X-250217Y108001D01*
X-247326Y108005D01*
X-244459Y107631D01*
X-242821Y107194D01*
X-242821Y104517D01*
X-243088Y104622D01*
X-243122Y104628D01*
X-243168Y104646D01*
X-246281Y105304D01*
X-246316Y105304D01*
X-246364Y105314D01*
X-249543Y105444D01*
X-249578Y105438D01*
X-249627Y105440D01*
X-252783Y105037D01*
X-252816Y105026D01*
X-252865Y105020D01*
X-255910Y104097D01*
X-255941Y104080D01*
X-255988Y104066D01*
X-258836Y102647D01*
X-258864Y102626D01*
X-258907Y102604D01*
X-261480Y100731D01*
X-261503Y100705D01*
X-261543Y100676D01*
X-263766Y98400D01*
X-263785Y98370D01*
X-263819Y98335D01*
X-265632Y95720D01*
X-265644Y95693D01*
X-265663Y95671D01*
X-265683Y95603D01*
X-265711Y95538D01*
X-265711Y95508D01*
X-265719Y95480D01*
X-265711Y95410D01*
X-265712Y95339D01*
X-265700Y95312D01*
X-265697Y95282D01*
X-265662Y95221D01*
X-265635Y95155D01*
X-265614Y95135D01*
X-265599Y95109D01*
X-265524Y95047D01*
X-265493Y95017D01*
X-265482Y95012D01*
X-265471Y95003D01*
X-249221Y85647D01*
X-249221Y66936D01*
X-249215Y66907D01*
X-249218Y66877D01*
X-249196Y66810D01*
X-249182Y66741D01*
X-249165Y66717D01*
X-249156Y66688D01*
X-249109Y66635D01*
X-249069Y66577D01*
X-249044Y66561D01*
X-249024Y66539D01*
X-248961Y66508D01*
X-248902Y66470D01*
X-248872Y66465D01*
X-248845Y66452D01*
X-248748Y66444D01*
X-248705Y66437D01*
X-248694Y66440D01*
X-248680Y66439D01*
X-245509Y66709D01*
X-245476Y66719D01*
X-245427Y66723D01*
X-242821Y67395D01*
X-242821Y64705D01*
X-244407Y64278D01*
X-245248Y64166D01*
X-245319Y64141D01*
X-245392Y64124D01*
X-245412Y64109D01*
X-245436Y64101D01*
X-245492Y64051D01*
X-245552Y64006D01*
X-245565Y63985D01*
X-245583Y63968D01*
X-245615Y63900D01*
X-245654Y63835D01*
X-245658Y63808D01*
X-245667Y63788D01*
X-245669Y63744D01*
X-245681Y63671D01*
X-245681Y25311D01*
X-245672Y25263D01*
X-245672Y25215D01*
X-245652Y25167D01*
X-245642Y25116D01*
X-245614Y25076D01*
X-245596Y25031D01*
X-245558Y24995D01*
X-245529Y24952D01*
X-245488Y24926D01*
X-245454Y24892D01*
X-245405Y24873D01*
X-245362Y24845D01*
X-245314Y24837D01*
X-245268Y24819D01*
X-245217Y24821D01*
X-245165Y24812D01*
X-245153Y24815D01*
X-244432Y24650D01*
X-244400Y24650D01*
X-244358Y24639D01*
X-243710Y24591D01*
X-243705Y24585D01*
X-243646Y24539D01*
X-243591Y24487D01*
X-243565Y24476D01*
X-243548Y24463D01*
X-243505Y24452D01*
X-243438Y24424D01*
X-241123Y23895D01*
X-241048Y23893D01*
X-240973Y23884D01*
X-240946Y23891D01*
X-240924Y23890D01*
X-240883Y23907D01*
X-240812Y23924D01*
X-240805Y23928D01*
X-240200Y23690D01*
X-240169Y23685D01*
X-240129Y23668D01*
X-239495Y23524D01*
X-239491Y23517D01*
X-239439Y23463D01*
X-239393Y23404D01*
X-239369Y23389D01*
X-239354Y23373D01*
X-239313Y23355D01*
X-239251Y23318D01*
X-237041Y22450D01*
X-236967Y22437D01*
X-236895Y22417D01*
X-236866Y22420D01*
X-236845Y22416D01*
X-236802Y22426D01*
X-236729Y22433D01*
X-236721Y22435D01*
X-236159Y22110D01*
X-236128Y22100D01*
X-236091Y22078D01*
X-235487Y21841D01*
X-235483Y21833D01*
X-235440Y21772D01*
X-235404Y21706D01*
X-235382Y21688D01*
X-235369Y21670D01*
X-235332Y21647D01*
X-235275Y21600D01*
X-233219Y20413D01*
X-233148Y20389D01*
X-233080Y20359D01*
X-233052Y20357D01*
X-233031Y20350D01*
X-232987Y20353D01*
X-232914Y20349D01*
X-232906Y20350D01*
X-232398Y19945D01*
X-232370Y19931D01*
X-232336Y19903D01*
X-231774Y19579D01*
X-231772Y19571D01*
X-231738Y19504D01*
X-231712Y19434D01*
X-231693Y19413D01*
X-231683Y19393D01*
X-231649Y19364D01*
X-231601Y19310D01*
X-229744Y17829D01*
X-229677Y17795D01*
X-229615Y17755D01*
X-229587Y17749D01*
X-229567Y17739D01*
X-229523Y17736D01*
X-229452Y17721D01*
X-229443Y17720D01*
X-229002Y17244D01*
X-228976Y17226D01*
X-228947Y17193D01*
X-228439Y16788D01*
X-228438Y16780D01*
X-228415Y16709D01*
X-228399Y16636D01*
X-228384Y16612D01*
X-228377Y16591D01*
X-228348Y16558D01*
X-228308Y16497D01*
X-226693Y14756D01*
X-226632Y14713D01*
X-226576Y14663D01*
X-226550Y14653D01*
X-226532Y14640D01*
X-226489Y14631D01*
X-226420Y14605D01*
X-226412Y14604D01*
X-226046Y14067D01*
X-226023Y14045D01*
X-226000Y14009D01*
X-225558Y13533D01*
X-225558Y13524D01*
X-225546Y13450D01*
X-225541Y13376D01*
X-225529Y13350D01*
X-225526Y13328D01*
X-225502Y13291D01*
X-225472Y13225D01*
X-224134Y11263D01*
X-224081Y11210D01*
X-224032Y11153D01*
X-224008Y11139D01*
X-223992Y11124D01*
X-223951Y11108D01*
X-223887Y11073D01*
X-223879Y11070D01*
X-223597Y10485D01*
X-223578Y10460D01*
X-223560Y10420D01*
X-223194Y9884D01*
X-223195Y9876D01*
X-223194Y9801D01*
X-223201Y9726D01*
X-223193Y9699D01*
X-223193Y9677D01*
X-223175Y9636D01*
X-223155Y9566D01*
X-222125Y7427D01*
X-222079Y7367D01*
X-222040Y7303D01*
X-222021Y7289D01*
X-222010Y7274D01*
X-222007Y7272D01*
X-222004Y7269D01*
X-221966Y7247D01*
X-221908Y7202D01*
X-221901Y7198D01*
X-221709Y6578D01*
X-221694Y6550D01*
X-221682Y6508D01*
X-221400Y5923D01*
X-221403Y5915D01*
X-221413Y5841D01*
X-221431Y5768D01*
X-221427Y5740D01*
X-221430Y5718D01*
X-221418Y5676D01*
X-221409Y5603D01*
X-220709Y3335D01*
X-220673Y3269D01*
X-220644Y3200D01*
X-220624Y3179D01*
X-220614Y3160D01*
X-220579Y3133D01*
X-220528Y3080D01*
X-220522Y3075D01*
X-220425Y2433D01*
X-220414Y2403D01*
X-220408Y2360D01*
X-220217Y1739D01*
X-220221Y1732D01*
X-220242Y1660D01*
X-220270Y1591D01*
X-220271Y1563D01*
X-220277Y1542D01*
X-220272Y1498D01*
X-220273Y1425D01*
X-219919Y-923D01*
X-219893Y-994D01*
X-219893Y-995D01*
X-219879Y-1053D01*
X-219878Y-1055D01*
X-219875Y-1066D01*
X-219859Y-1089D01*
X-219851Y-1110D01*
X-219821Y-1142D01*
X-219779Y-1202D01*
X-219773Y-1208D01*
X-219773Y-1857D01*
X-219766Y-1888D01*
X-219767Y-1932D01*
X-219670Y-2574D01*
X-219675Y-2580D01*
X-219707Y-2648D01*
X-219745Y-2713D01*
X-219750Y-2741D01*
X-219759Y-2761D01*
X-219761Y-2805D01*
X-219773Y-2877D01*
X-219773Y-5251D01*
X-219758Y-5325D01*
X-219750Y-5399D01*
X-219738Y-5424D01*
X-219733Y-5446D01*
X-219708Y-5482D01*
X-219675Y-5548D01*
X-219670Y-5554D01*
X-219767Y-6196D01*
X-219766Y-6228D01*
X-219773Y-6271D01*
X-219773Y-6920D01*
X-219779Y-6926D01*
X-219820Y-6989D01*
X-219867Y-7047D01*
X-219876Y-7074D01*
X-219888Y-7092D01*
X-219896Y-7135D01*
X-219919Y-7205D01*
X-220273Y-9553D01*
X-220269Y-9628D01*
X-220273Y-9702D01*
X-220264Y-9729D01*
X-220263Y-9751D01*
X-220244Y-9791D01*
X-220221Y-9860D01*
X-220217Y-9867D01*
X-220408Y-10488D01*
X-220412Y-10520D01*
X-220425Y-10561D01*
X-220522Y-11203D01*
X-220528Y-11208D01*
X-220579Y-11264D01*
X-220634Y-11314D01*
X-220647Y-11339D01*
X-220662Y-11356D01*
X-220676Y-11397D01*
X-220709Y-11463D01*
X-221409Y-13731D01*
X-221416Y-13806D01*
X-221431Y-13879D01*
X-221426Y-13907D01*
X-221428Y-13929D01*
X-221415Y-13971D01*
X-221403Y-14043D01*
X-221400Y-14051D01*
X-221682Y-14636D01*
X-221690Y-14667D01*
X-221709Y-14706D01*
X-221901Y-15326D01*
X-221908Y-15330D01*
X-221966Y-15378D01*
X-222028Y-15419D01*
X-222045Y-15442D01*
X-222062Y-15456D01*
X-222082Y-15495D01*
X-222125Y-15555D01*
X-223155Y-17694D01*
X-223173Y-17767D01*
X-223199Y-17837D01*
X-223198Y-17866D01*
X-223204Y-17887D01*
X-223197Y-17931D01*
X-223195Y-18004D01*
X-223194Y-18012D01*
X-223560Y-18548D01*
X-223572Y-18578D01*
X-223597Y-18613D01*
X-223879Y-19198D01*
X-223887Y-19201D01*
X-223951Y-19239D01*
X-224019Y-19271D01*
X-224038Y-19291D01*
X-224057Y-19302D01*
X-224084Y-19338D01*
X-224134Y-19391D01*
X-225472Y-21353D01*
X-225501Y-21422D01*
X-225537Y-21488D01*
X-225540Y-21515D01*
X-225549Y-21536D01*
X-225549Y-21580D01*
X-225558Y-21653D01*
X-225558Y-21661D01*
X-226000Y-22137D01*
X-226016Y-22164D01*
X-226046Y-22195D01*
X-226412Y-22732D01*
X-226420Y-22733D01*
X-226489Y-22762D01*
X-226561Y-22783D01*
X-226584Y-22800D01*
X-226604Y-22808D01*
X-226635Y-22840D01*
X-226693Y-22884D01*
X-228308Y-24625D01*
X-228347Y-24689D01*
X-228392Y-24749D01*
X-228400Y-24776D01*
X-228412Y-24795D01*
X-228418Y-24838D01*
X-228438Y-24908D01*
X-228439Y-24916D01*
X-228947Y-25321D01*
X-228967Y-25346D01*
X-229002Y-25372D01*
X-229443Y-25848D01*
X-229452Y-25849D01*
X-229525Y-25866D01*
X-229599Y-25877D01*
X-229623Y-25890D01*
X-229645Y-25896D01*
X-229680Y-25922D01*
X-229744Y-25957D01*
X-231601Y-27438D01*
X-231615Y-27454D01*
X-231617Y-27456D01*
X-231619Y-27460D01*
X-231649Y-27495D01*
X-231702Y-27547D01*
X-231714Y-27573D01*
X-231728Y-27590D01*
X-231741Y-27632D01*
X-231772Y-27699D01*
X-231774Y-27707D01*
X-232336Y-28031D01*
X-232360Y-28053D01*
X-232398Y-28073D01*
X-232906Y-28478D01*
X-232914Y-28477D01*
X-232988Y-28484D01*
X-233063Y-28483D01*
X-233090Y-28493D01*
X-233112Y-28495D01*
X-233151Y-28516D01*
X-233219Y-28541D01*
X-235275Y-29728D01*
X-235332Y-29778D01*
X-235392Y-29822D01*
X-235408Y-29845D01*
X-235424Y-29860D01*
X-235443Y-29900D01*
X-235483Y-29961D01*
X-235487Y-29969D01*
X-236091Y-30206D01*
X-236118Y-30223D01*
X-236159Y-30238D01*
X-236721Y-30563D01*
X-236729Y-30561D01*
X-236804Y-30556D01*
X-236878Y-30544D01*
X-236905Y-30550D01*
X-236927Y-30549D01*
X-236969Y-30563D01*
X-237041Y-30578D01*
X-238710Y-31234D01*
X-238723Y-31242D01*
X-238738Y-31246D01*
X-238806Y-31296D01*
X-238877Y-31342D01*
X-238886Y-31354D01*
X-238898Y-31363D01*
X-238941Y-31436D01*
X-238989Y-31506D01*
X-238992Y-31521D01*
X-239000Y-31534D01*
X-239027Y-31698D01*
X-239027Y-38884D01*
X-239025Y-38897D01*
X-239027Y-38909D01*
X-239005Y-38993D01*
X-238988Y-39079D01*
X-238981Y-39090D01*
X-238977Y-39102D01*
X-238881Y-39237D01*
X-237616Y-40502D01*
X-237616Y-44080D01*
X-240146Y-46610D01*
X-243724Y-46610D01*
X-244829Y-45505D01*
X-244833Y-45502D01*
X-244835Y-45499D01*
X-244915Y-45448D01*
X-244995Y-45395D01*
X-244999Y-45394D01*
X-245002Y-45392D01*
X-245096Y-45376D01*
X-245190Y-45358D01*
X-245194Y-45359D01*
X-245199Y-45359D01*
X-245290Y-45380D01*
X-245384Y-45401D01*
X-245388Y-45404D01*
X-245392Y-45405D01*
X-245468Y-45461D01*
X-245547Y-45516D01*
X-245549Y-45520D01*
X-245552Y-45523D01*
X-245601Y-45604D01*
X-245651Y-45686D01*
X-245651Y-45690D01*
X-245654Y-45694D01*
X-245681Y-45858D01*
X-245681Y-71797D01*
X-245666Y-71871D01*
X-245658Y-71947D01*
X-245646Y-71968D01*
X-245642Y-71991D01*
X-245599Y-72054D01*
X-245562Y-72121D01*
X-245543Y-72136D01*
X-245529Y-72155D01*
X-245465Y-72196D01*
X-245405Y-72243D01*
X-245379Y-72251D01*
X-245362Y-72262D01*
X-245318Y-72270D01*
X-245246Y-72292D01*
X-244778Y-72352D01*
X-244537Y-72383D01*
X-242821Y-72830D01*
X-242821Y-75523D01*
X-245427Y-74851D01*
X-245462Y-74849D01*
X-245509Y-74837D01*
X-248680Y-74567D01*
X-248709Y-74570D01*
X-248739Y-74565D01*
X-248807Y-74581D01*
X-248877Y-74589D01*
X-248903Y-74604D01*
X-248932Y-74611D01*
X-248989Y-74653D01*
X-249050Y-74688D01*
X-249068Y-74711D01*
X-249092Y-74729D01*
X-249128Y-74789D01*
X-249171Y-74846D01*
X-249178Y-74874D01*
X-249194Y-74900D01*
X-249210Y-74996D01*
X-249221Y-75038D01*
X-249219Y-75050D01*
X-249221Y-75064D01*
X-249221Y-93775D01*
X-265471Y-103131D01*
X-265493Y-103151D01*
X-265520Y-103163D01*
X-265567Y-103216D01*
X-265620Y-103263D01*
X-265633Y-103289D01*
X-265653Y-103311D01*
X-265676Y-103378D01*
X-265706Y-103442D01*
X-265708Y-103472D01*
X-265717Y-103499D01*
X-265712Y-103570D01*
X-265715Y-103641D01*
X-265705Y-103669D01*
X-265703Y-103698D01*
X-265662Y-103786D01*
X-265659Y-103797D01*
X-265656Y-103801D01*
X-265646Y-103827D01*
X-265638Y-103836D01*
X-265632Y-103848D01*
X-263819Y-106463D01*
X-263794Y-106488D01*
X-263766Y-106528D01*
X-261543Y-108804D01*
X-261514Y-108824D01*
X-261480Y-108859D01*
X-258907Y-110732D01*
X-258876Y-110747D01*
X-258836Y-110775D01*
X-255988Y-112194D01*
X-255954Y-112203D01*
X-255910Y-112225D01*
X-252865Y-113148D01*
X-252830Y-113151D01*
X-252783Y-113165D01*
X-249627Y-113568D01*
X-249592Y-113565D01*
X-249543Y-113572D01*
X-246364Y-113442D01*
X-246330Y-113434D01*
X-246281Y-113432D01*
X-243168Y-112774D01*
X-243136Y-112760D01*
X-243088Y-112750D01*
X-242821Y-112645D01*
X-242821Y-115350D01*
X-245279Y-115902D01*
X-248070Y-116165D01*
X-250872Y-116073D01*
X-253639Y-115627D01*
X-256328Y-114834D01*
X-258894Y-113707D01*
X-261298Y-112264D01*
X-263499Y-110529D01*
X-265463Y-108529D01*
X-265877Y-107983D01*
X-265935Y-107932D01*
X-265987Y-107876D01*
X-266009Y-107867D01*
X-266027Y-107852D01*
X-266099Y-107827D01*
X-266170Y-107797D01*
X-266193Y-107796D01*
X-266215Y-107789D01*
X-266292Y-107795D01*
X-266368Y-107794D01*
X-266393Y-107803D01*
X-266413Y-107805D01*
X-266453Y-107826D01*
X-266524Y-107852D01*
X-299673Y-126989D01*
X-299710Y-127021D01*
X-299752Y-127045D01*
X-299783Y-127086D01*
X-299822Y-127121D01*
X-299843Y-127165D01*
X-299873Y-127203D01*
X-299886Y-127253D01*
X-299908Y-127300D01*
X-299910Y-127349D01*
X-299922Y-127396D01*
X-299915Y-127447D01*
X-299917Y-127499D01*
X-299900Y-127544D01*
X-299893Y-127592D01*
X-299866Y-127636D01*
X-299848Y-127685D01*
X-299814Y-127720D01*
X-299800Y-127743D01*
X-299592Y-128416D01*
X-299577Y-128444D01*
X-299565Y-128486D01*
X-299283Y-129071D01*
X-299285Y-129078D01*
X-299296Y-129153D01*
X-299313Y-129226D01*
X-299309Y-129254D01*
X-299312Y-129275D01*
X-299301Y-129318D01*
X-299291Y-129390D01*
X-298591Y-131655D01*
X-298555Y-131720D01*
X-298526Y-131790D01*
X-298506Y-131810D01*
X-298496Y-131829D01*
X-298461Y-131857D01*
X-298410Y-131909D01*
X-298404Y-131914D01*
X-298307Y-132556D01*
X-298296Y-132586D01*
X-298290Y-132629D01*
X-298098Y-133250D01*
X-298102Y-133257D01*
X-298123Y-133329D01*
X-298151Y-133398D01*
X-298152Y-133426D01*
X-298158Y-133448D01*
X-298153Y-133491D01*
X-298154Y-133565D01*
X-297799Y-135908D01*
X-297774Y-135978D01*
X-297755Y-136051D01*
X-297739Y-136074D01*
X-297731Y-136095D01*
X-297701Y-136127D01*
X-297658Y-136186D01*
X-297653Y-136192D01*
X-297652Y-136842D01*
X-297646Y-136873D01*
X-297647Y-136916D01*
X-297550Y-137558D01*
X-297554Y-137565D01*
X-297586Y-137633D01*
X-297624Y-137697D01*
X-297629Y-137725D01*
X-297638Y-137745D01*
X-297640Y-137789D01*
X-297652Y-137861D01*
X-297650Y-140232D01*
X-297635Y-140305D01*
X-297628Y-140380D01*
X-297615Y-140405D01*
X-297611Y-140426D01*
X-297586Y-140463D01*
X-297553Y-140528D01*
X-297548Y-140534D01*
X-297644Y-141177D01*
X-297643Y-141209D01*
X-297650Y-141251D01*
X-297649Y-141901D01*
X-297655Y-141906D01*
X-297696Y-141969D01*
X-297744Y-142027D01*
X-297753Y-142054D01*
X-297765Y-142072D01*
X-297773Y-142116D01*
X-297796Y-142185D01*
X-298147Y-144529D01*
X-298143Y-144604D01*
X-298147Y-144679D01*
X-298138Y-144706D01*
X-298137Y-144728D01*
X-298118Y-144767D01*
X-298095Y-144837D01*
X-298091Y-144844D01*
X-298282Y-145465D01*
X-298285Y-145496D01*
X-298299Y-145538D01*
X-298395Y-146180D01*
X-298402Y-146185D01*
X-298452Y-146240D01*
X-298507Y-146291D01*
X-298520Y-146316D01*
X-298535Y-146332D01*
X-298549Y-146374D01*
X-298582Y-146439D01*
X-299279Y-148705D01*
X-299287Y-148779D01*
X-299301Y-148853D01*
X-299297Y-148881D01*
X-299299Y-148902D01*
X-299286Y-148944D01*
X-299273Y-149017D01*
X-299271Y-149024D01*
X-299552Y-149610D01*
X-299560Y-149640D01*
X-299579Y-149679D01*
X-299770Y-150300D01*
X-299778Y-150304D01*
X-299836Y-150351D01*
X-299898Y-150393D01*
X-299914Y-150416D01*
X-299931Y-150430D01*
X-299952Y-150469D01*
X-299994Y-150529D01*
X-301021Y-152665D01*
X-301039Y-152737D01*
X-301065Y-152808D01*
X-301064Y-152836D01*
X-301070Y-152857D01*
X-301063Y-152901D01*
X-301062Y-152974D01*
X-301060Y-152982D01*
X-301426Y-153519D01*
X-301438Y-153548D01*
X-301463Y-153584D01*
X-301744Y-154169D01*
X-301752Y-154172D01*
X-301816Y-154210D01*
X-301884Y-154242D01*
X-301904Y-154262D01*
X-301923Y-154273D01*
X-301949Y-154309D01*
X-302000Y-154362D01*
X-303333Y-156321D01*
X-303362Y-156390D01*
X-303371Y-156406D01*
X-303386Y-156430D01*
X-303387Y-156436D01*
X-303398Y-156456D01*
X-303402Y-156484D01*
X-303410Y-156504D01*
X-303410Y-156548D01*
X-303420Y-156621D01*
X-303419Y-156629D01*
X-303861Y-157105D01*
X-303878Y-157133D01*
X-303907Y-157164D01*
X-304273Y-157701D01*
X-304281Y-157702D01*
X-304350Y-157730D01*
X-304422Y-157752D01*
X-304445Y-157769D01*
X-304465Y-157777D01*
X-304496Y-157809D01*
X-304554Y-157853D01*
X-306165Y-159592D01*
X-306204Y-159656D01*
X-306249Y-159716D01*
X-306257Y-159743D01*
X-306268Y-159761D01*
X-306275Y-159805D01*
X-306295Y-159875D01*
X-306296Y-159883D01*
X-306803Y-160289D01*
X-306824Y-160313D01*
X-306858Y-160340D01*
X-307300Y-160816D01*
X-307308Y-160816D01*
X-307381Y-160834D01*
X-307455Y-160844D01*
X-307480Y-160858D01*
X-307501Y-160863D01*
X-307536Y-160890D01*
X-307600Y-160925D01*
X-309452Y-162404D01*
X-309500Y-162461D01*
X-309554Y-162514D01*
X-309566Y-162539D01*
X-309580Y-162556D01*
X-309593Y-162599D01*
X-309623Y-162665D01*
X-309625Y-162673D01*
X-310188Y-162998D01*
X-310212Y-163019D01*
X-310249Y-163040D01*
X-310757Y-163445D01*
X-310765Y-163444D01*
X-310840Y-163451D01*
X-310914Y-163450D01*
X-310941Y-163460D01*
X-310963Y-163462D01*
X-311002Y-163483D01*
X-311070Y-163508D01*
X-313122Y-164695D01*
X-313178Y-164744D01*
X-313239Y-164788D01*
X-313255Y-164812D01*
X-313271Y-164827D01*
X-313290Y-164866D01*
X-313330Y-164928D01*
X-313333Y-164935D01*
X-313938Y-165173D01*
X-313964Y-165190D01*
X-314005Y-165205D01*
X-314567Y-165530D01*
X-314575Y-165528D01*
X-314650Y-165524D01*
X-314724Y-165512D01*
X-314752Y-165517D01*
X-314774Y-165516D01*
X-314815Y-165531D01*
X-314887Y-165546D01*
X-317093Y-166413D01*
X-317156Y-166454D01*
X-317222Y-166488D01*
X-317241Y-166509D01*
X-317259Y-166521D01*
X-317284Y-166558D01*
X-317333Y-166612D01*
X-317337Y-166619D01*
X-317970Y-166764D01*
X-317999Y-166777D01*
X-318042Y-166786D01*
X-318646Y-167024D01*
X-318653Y-167021D01*
X-318727Y-167005D01*
X-318798Y-166982D01*
X-318826Y-166984D01*
X-318848Y-166979D01*
X-318891Y-166987D01*
X-318964Y-166992D01*
X-321275Y-167520D01*
X-321343Y-167551D01*
X-321414Y-167575D01*
X-321436Y-167593D01*
X-321456Y-167602D01*
X-321486Y-167635D01*
X-321542Y-167682D01*
X-321547Y-167688D01*
X-322195Y-167737D01*
X-322225Y-167745D01*
X-322269Y-167748D01*
X-322902Y-167893D01*
X-322909Y-167888D01*
X-322979Y-167862D01*
X-323046Y-167829D01*
X-323074Y-167826D01*
X-323095Y-167818D01*
X-323139Y-167820D01*
X-323212Y-167814D01*
X-325575Y-167992D01*
X-325647Y-168013D01*
X-325721Y-168026D01*
X-325745Y-168040D01*
X-325766Y-168046D01*
X-325801Y-168074D01*
X-325863Y-168112D01*
X-325869Y-168117D01*
X-326517Y-168069D01*
X-326549Y-168073D01*
X-326592Y-168069D01*
X-327239Y-168118D01*
X-327246Y-168113D01*
X-327311Y-168076D01*
X-327372Y-168033D01*
X-327400Y-168026D01*
X-327419Y-168016D01*
X-327463Y-168011D01*
X-327534Y-167993D01*
X-329898Y-167818D01*
X-329972Y-167827D01*
X-330047Y-167829D01*
X-330073Y-167840D01*
X-330095Y-167843D01*
X-330133Y-167865D01*
X-330200Y-167893D01*
X-330207Y-167897D01*
X-330841Y-167753D01*
X-330873Y-167752D01*
X-330915Y-167742D01*
X-331562Y-167694D01*
X-331567Y-167688D01*
X-331627Y-167642D01*
X-331681Y-167590D01*
X-331707Y-167579D01*
X-331725Y-167566D01*
X-331767Y-167555D01*
X-331835Y-167527D01*
X-334146Y-167001D01*
X-334221Y-166999D01*
X-334295Y-166990D01*
X-334323Y-166997D01*
X-334345Y-166996D01*
X-334386Y-167012D01*
X-334457Y-167030D01*
X-334464Y-167033D01*
X-335069Y-166796D01*
X-335100Y-166791D01*
X-335140Y-166774D01*
X-335774Y-166630D01*
X-335778Y-166623D01*
X-335829Y-166569D01*
X-335876Y-166510D01*
X-335900Y-166496D01*
X-335915Y-166480D01*
X-335956Y-166462D01*
X-336018Y-166424D01*
X-338225Y-165560D01*
X-338299Y-165547D01*
X-338371Y-165527D01*
X-338399Y-165530D01*
X-338421Y-165526D01*
X-338464Y-165536D01*
X-338537Y-165543D01*
X-338545Y-165545D01*
X-339107Y-165220D01*
X-339138Y-165210D01*
X-339175Y-165188D01*
X-339779Y-164951D01*
X-339782Y-164944D01*
X-339826Y-164882D01*
X-339862Y-164817D01*
X-339884Y-164799D01*
X-339897Y-164781D01*
X-339934Y-164758D01*
X-339991Y-164711D01*
X-342044Y-163527D01*
X-342115Y-163503D01*
X-342183Y-163473D01*
X-342212Y-163471D01*
X-342233Y-163464D01*
X-342277Y-163468D01*
X-342350Y-163464D01*
X-342358Y-163465D01*
X-342866Y-163060D01*
X-342894Y-163045D01*
X-342927Y-163018D01*
X-343490Y-162693D01*
X-343492Y-162686D01*
X-343526Y-162619D01*
X-343552Y-162548D01*
X-343571Y-162527D01*
X-343581Y-162508D01*
X-343614Y-162479D01*
X-343663Y-162425D01*
X-345517Y-160948D01*
X-345584Y-160914D01*
X-345647Y-160873D01*
X-345675Y-160868D01*
X-345694Y-160858D01*
X-345738Y-160854D01*
X-345810Y-160840D01*
X-345818Y-160839D01*
X-346260Y-160363D01*
X-346286Y-160345D01*
X-346315Y-160313D01*
X-346823Y-159908D01*
X-346824Y-159900D01*
X-346847Y-159829D01*
X-346863Y-159755D01*
X-346878Y-159732D01*
X-346885Y-159711D01*
X-346914Y-159678D01*
X-346954Y-159616D01*
X-348567Y-157880D01*
X-348628Y-157836D01*
X-348684Y-157787D01*
X-348711Y-157777D01*
X-348729Y-157764D01*
X-348772Y-157754D01*
X-348841Y-157729D01*
X-348849Y-157728D01*
X-349215Y-157191D01*
X-349238Y-157169D01*
X-349261Y-157133D01*
X-349721Y-156638D01*
X-349731Y-156611D01*
X-349739Y-156560D01*
X-349765Y-156519D01*
X-349782Y-156474D01*
X-349818Y-156436D01*
X-349846Y-156392D01*
X-349885Y-156364D01*
X-349919Y-156329D01*
X-349966Y-156308D01*
X-350009Y-156279D01*
X-350057Y-156269D01*
X-350101Y-156249D01*
X-350153Y-156249D01*
X-350204Y-156238D01*
X-350251Y-156248D01*
X-350300Y-156247D01*
X-350358Y-156269D01*
X-350399Y-156277D01*
X-350422Y-156293D01*
X-350455Y-156305D01*
X-383253Y-175239D01*
X-383268Y-175253D01*
X-383287Y-175261D01*
X-383343Y-175318D01*
X-383402Y-175371D01*
X-383411Y-175389D01*
X-383425Y-175404D01*
X-383453Y-175478D01*
X-383488Y-175550D01*
X-383489Y-175571D01*
X-383496Y-175590D01*
X-383493Y-175669D01*
X-383497Y-175749D01*
X-383489Y-175768D01*
X-383489Y-175789D01*
X-383436Y-175911D01*
X-383427Y-175935D01*
X-383425Y-175938D01*
X-383423Y-175942D01*
X-383351Y-176054D01*
X-382151Y-178627D01*
X-381310Y-181340D01*
X-380844Y-184142D01*
X-380762Y-186981D01*
X-381063Y-189795D01*
X-383757Y-189795D01*
X-383446Y-188162D01*
X-383446Y-188128D01*
X-383437Y-188081D01*
X-383364Y-185178D01*
X-383370Y-185144D01*
X-383369Y-185097D01*
X-383767Y-182220D01*
X-383778Y-182188D01*
X-383785Y-182141D01*
X-384644Y-179367D01*
X-384656Y-179346D01*
X-384657Y-179343D01*
X-384661Y-179337D01*
X-384675Y-179292D01*
X-385973Y-176694D01*
X-385994Y-176667D01*
X-386015Y-176624D01*
X-387718Y-174271D01*
X-387778Y-174216D01*
X-387834Y-174156D01*
X-387851Y-174149D01*
X-387864Y-174137D01*
X-387941Y-174109D01*
X-388016Y-174076D01*
X-388034Y-174076D01*
X-388051Y-174070D01*
X-388133Y-174075D01*
X-388215Y-174074D01*
X-388234Y-174080D01*
X-388250Y-174081D01*
X-388290Y-174101D01*
X-388371Y-174131D01*
X-404871Y-183631D01*
X-404930Y-183683D01*
X-404992Y-183729D01*
X-405004Y-183748D01*
X-405020Y-183763D01*
X-405054Y-183833D01*
X-405094Y-183900D01*
X-405098Y-183925D01*
X-405106Y-183942D01*
X-405108Y-183987D01*
X-405121Y-184064D01*
X-405111Y-203774D01*
X-405094Y-203859D01*
X-405081Y-203946D01*
X-405074Y-203956D01*
X-405072Y-203969D01*
X-405022Y-204041D01*
X-404977Y-204115D01*
X-404966Y-204122D01*
X-404959Y-204133D01*
X-404886Y-204180D01*
X-404815Y-204230D01*
X-404801Y-204234D01*
X-404791Y-204240D01*
X-404749Y-204247D01*
X-404654Y-204272D01*
X-401760Y-204513D01*
X-401726Y-204509D01*
X-401678Y-204514D01*
X-398783Y-204283D01*
G37*
%LPC*%
G36*
X188679Y-26290D02*
X188679Y-26290D01*
X186018Y-25188D01*
X183981Y-23151D01*
X182879Y-20490D01*
X182879Y-18484D01*
X182877Y-18471D01*
X182879Y-18459D01*
X182857Y-18375D01*
X182840Y-18289D01*
X182833Y-18279D01*
X182829Y-18266D01*
X182733Y-18131D01*
X170306Y-5704D01*
X170306Y96705D01*
X170304Y96717D01*
X170306Y96730D01*
X170284Y96814D01*
X170267Y96900D01*
X170260Y96910D01*
X170256Y96923D01*
X170160Y97058D01*
X168874Y98344D01*
X168870Y98347D01*
X168868Y98350D01*
X168788Y98401D01*
X168708Y98454D01*
X168704Y98455D01*
X168701Y98457D01*
X168607Y98473D01*
X168513Y98490D01*
X168509Y98489D01*
X168504Y98490D01*
X168413Y98468D01*
X168319Y98448D01*
X168315Y98445D01*
X168311Y98444D01*
X168235Y98388D01*
X168156Y98332D01*
X168154Y98329D01*
X168151Y98326D01*
X168102Y98244D01*
X168052Y98163D01*
X168052Y98159D01*
X168049Y98155D01*
X168022Y97991D01*
X168022Y96023D01*
X165327Y93328D01*
X165308Y93324D01*
X165215Y93305D01*
X165211Y93302D01*
X165207Y93301D01*
X165130Y93246D01*
X165051Y93192D01*
X165048Y93189D01*
X165045Y93186D01*
X164995Y93105D01*
X164944Y93025D01*
X164943Y93020D01*
X164941Y93017D01*
X164926Y92923D01*
X164911Y92828D01*
X164911Y92824D01*
X164911Y92820D01*
X164934Y92728D01*
X164957Y92635D01*
X164959Y92632D01*
X164960Y92628D01*
X165056Y92492D01*
X165419Y92130D01*
X166799Y88798D01*
X166799Y85192D01*
X165419Y81860D01*
X162869Y79310D01*
X159537Y77930D01*
X155931Y77930D01*
X152599Y79310D01*
X150049Y81860D01*
X148669Y85192D01*
X148669Y88798D01*
X150049Y92130D01*
X152599Y94680D01*
X155931Y96060D01*
X158377Y96060D01*
X158385Y96061D01*
X158394Y96060D01*
X158482Y96081D01*
X158572Y96099D01*
X158579Y96104D01*
X158587Y96106D01*
X158660Y96160D01*
X158736Y96212D01*
X158740Y96219D01*
X158747Y96224D01*
X158794Y96302D01*
X158843Y96379D01*
X158844Y96388D01*
X158849Y96395D01*
X158876Y96559D01*
X158876Y98690D01*
X158874Y98702D01*
X158876Y98715D01*
X158854Y98799D01*
X158837Y98885D01*
X158830Y98895D01*
X158826Y98907D01*
X158730Y99043D01*
X155050Y102723D01*
X155039Y102730D01*
X155032Y102740D01*
X154957Y102785D01*
X154884Y102833D01*
X154872Y102835D01*
X154861Y102842D01*
X154697Y102869D01*
X72001Y102869D01*
X71993Y102868D01*
X71984Y102869D01*
X71896Y102848D01*
X71806Y102830D01*
X71799Y102825D01*
X71791Y102823D01*
X71718Y102769D01*
X71642Y102717D01*
X71638Y102710D01*
X71631Y102705D01*
X71584Y102627D01*
X71535Y102550D01*
X71534Y102541D01*
X71529Y102534D01*
X71502Y102370D01*
X71502Y100976D01*
X69931Y99405D01*
X69928Y99401D01*
X69925Y99399D01*
X69874Y99319D01*
X69821Y99239D01*
X69820Y99235D01*
X69818Y99232D01*
X69802Y99138D01*
X69785Y99044D01*
X69786Y99040D01*
X69785Y99035D01*
X69807Y98944D01*
X69827Y98850D01*
X69830Y98846D01*
X69831Y98842D01*
X69887Y98766D01*
X69943Y98687D01*
X69946Y98685D01*
X69949Y98682D01*
X70031Y98633D01*
X70112Y98583D01*
X70116Y98583D01*
X70120Y98580D01*
X70284Y98553D01*
X99303Y98553D01*
X110872Y86984D01*
X110872Y83196D01*
X108193Y80517D01*
X104405Y80517D01*
X95661Y89261D01*
X95651Y89268D01*
X95643Y89278D01*
X95568Y89323D01*
X95495Y89371D01*
X95483Y89373D01*
X95472Y89380D01*
X95308Y89407D01*
X5345Y89407D01*
X2520Y92232D01*
X-859Y95611D01*
X-869Y95618D01*
X-877Y95628D01*
X-952Y95672D01*
X-1025Y95721D01*
X-1037Y95723D01*
X-1048Y95730D01*
X-1212Y95757D01*
X-30030Y95757D01*
X-30042Y95755D01*
X-30055Y95757D01*
X-30139Y95735D01*
X-30225Y95718D01*
X-30235Y95711D01*
X-30248Y95707D01*
X-30383Y95611D01*
X-41382Y84612D01*
X-41389Y84602D01*
X-41399Y84594D01*
X-41444Y84519D01*
X-41492Y84446D01*
X-41494Y84434D01*
X-41501Y84423D01*
X-41528Y84259D01*
X-41528Y61606D01*
X-44207Y58927D01*
X-92445Y58927D01*
X-106554Y73036D01*
X-106554Y89355D01*
X-106555Y89359D01*
X-106554Y89363D01*
X-106574Y89457D01*
X-106593Y89550D01*
X-106596Y89554D01*
X-106597Y89558D01*
X-106652Y89635D01*
X-106706Y89714D01*
X-106709Y89716D01*
X-106712Y89720D01*
X-106793Y89770D01*
X-106873Y89821D01*
X-106878Y89822D01*
X-106881Y89824D01*
X-106975Y89838D01*
X-107070Y89854D01*
X-107074Y89853D01*
X-107078Y89854D01*
X-107170Y89830D01*
X-107263Y89808D01*
X-107266Y89806D01*
X-107270Y89805D01*
X-107406Y89708D01*
X-112502Y84612D01*
X-112509Y84602D01*
X-112519Y84594D01*
X-112564Y84519D01*
X-112612Y84446D01*
X-112614Y84434D01*
X-112621Y84423D01*
X-112648Y84259D01*
X-112648Y52970D01*
X-115473Y50145D01*
X-129901Y35717D01*
X-129908Y35707D01*
X-129918Y35699D01*
X-129963Y35624D01*
X-130011Y35551D01*
X-130013Y35539D01*
X-130020Y35528D01*
X-130047Y35364D01*
X-130047Y12584D01*
X-132726Y9905D01*
X-151823Y9905D01*
X-151835Y9903D01*
X-151848Y9905D01*
X-151932Y9883D01*
X-152018Y9866D01*
X-152028Y9859D01*
X-152041Y9855D01*
X-152176Y9759D01*
X-167620Y-5685D01*
X-170445Y-8510D01*
X-174721Y-8510D01*
X-174734Y-8512D01*
X-174746Y-8510D01*
X-174830Y-8532D01*
X-174916Y-8549D01*
X-174927Y-8556D01*
X-174939Y-8560D01*
X-175074Y-8656D01*
X-176493Y-10075D01*
X-179154Y-11177D01*
X-182034Y-11177D01*
X-184695Y-10075D01*
X-186732Y-8038D01*
X-187834Y-5377D01*
X-187834Y-2497D01*
X-186732Y164D01*
X-184695Y2201D01*
X-182034Y3303D01*
X-179154Y3303D01*
X-176493Y2201D01*
X-175074Y782D01*
X-175064Y775D01*
X-175056Y765D01*
X-174982Y720D01*
X-174909Y672D01*
X-174896Y670D01*
X-174885Y663D01*
X-174721Y636D01*
X-174440Y636D01*
X-174427Y638D01*
X-174415Y636D01*
X-174331Y658D01*
X-174245Y675D01*
X-174235Y682D01*
X-174222Y686D01*
X-174087Y782D01*
X-155818Y19051D01*
X-139692Y19051D01*
X-139684Y19052D01*
X-139675Y19051D01*
X-139587Y19072D01*
X-139497Y19090D01*
X-139490Y19095D01*
X-139482Y19097D01*
X-139409Y19151D01*
X-139333Y19203D01*
X-139329Y19210D01*
X-139322Y19215D01*
X-139275Y19293D01*
X-139226Y19370D01*
X-139225Y19379D01*
X-139220Y19386D01*
X-139193Y19550D01*
X-139193Y39359D01*
X-121940Y56612D01*
X-121933Y56622D01*
X-121923Y56630D01*
X-121878Y56705D01*
X-121830Y56778D01*
X-121828Y56790D01*
X-121821Y56801D01*
X-121794Y56965D01*
X-121794Y88254D01*
X-88635Y121413D01*
X158739Y121413D01*
X161564Y118588D01*
X179452Y100700D01*
X179452Y-1709D01*
X179454Y-1721D01*
X179452Y-1734D01*
X179474Y-1818D01*
X179491Y-1904D01*
X179498Y-1914D01*
X179502Y-1927D01*
X179598Y-2062D01*
X189200Y-11664D01*
X189210Y-11671D01*
X189218Y-11681D01*
X189293Y-11726D01*
X189366Y-11774D01*
X189378Y-11776D01*
X189389Y-11783D01*
X189553Y-11810D01*
X191559Y-11810D01*
X194220Y-12912D01*
X196257Y-14949D01*
X197359Y-17610D01*
X197359Y-20490D01*
X196257Y-23151D01*
X194220Y-25188D01*
X191559Y-26290D01*
X188679Y-26290D01*
G37*
%LPD*%
%LPC*%
G36*
X155931Y-99870D02*
X155931Y-99870D01*
X152599Y-98490D01*
X150049Y-95940D01*
X149102Y-93654D01*
X149097Y-93645D01*
X149094Y-93635D01*
X149041Y-93563D01*
X148991Y-93489D01*
X148982Y-93483D01*
X148976Y-93475D01*
X148900Y-93430D01*
X148825Y-93381D01*
X148814Y-93379D01*
X148805Y-93373D01*
X148641Y-93346D01*
X146522Y-93346D01*
X143128Y-89952D01*
X143117Y-89945D01*
X143110Y-89935D01*
X143035Y-89891D01*
X142962Y-89842D01*
X142950Y-89840D01*
X142939Y-89833D01*
X142775Y-89806D01*
X132834Y-89806D01*
X132826Y-89807D01*
X132818Y-89806D01*
X132729Y-89827D01*
X132639Y-89845D01*
X132632Y-89850D01*
X132624Y-89852D01*
X132551Y-89906D01*
X132475Y-89958D01*
X132471Y-89965D01*
X132464Y-89970D01*
X132418Y-90048D01*
X132368Y-90125D01*
X132367Y-90134D01*
X132363Y-90141D01*
X132335Y-90305D01*
X132335Y-90806D01*
X132333Y-90806D01*
X132333Y-90305D01*
X132331Y-90297D01*
X132333Y-90288D01*
X132312Y-90201D01*
X132294Y-90110D01*
X132289Y-90103D01*
X132287Y-90095D01*
X132233Y-90022D01*
X132181Y-89946D01*
X132174Y-89942D01*
X132169Y-89935D01*
X132091Y-89888D01*
X132013Y-89839D01*
X132005Y-89838D01*
X131998Y-89833D01*
X131834Y-89806D01*
X122286Y-89806D01*
X122501Y-88444D01*
X122992Y-86935D01*
X123712Y-85522D01*
X124645Y-84238D01*
X125767Y-83116D01*
X127051Y-82183D01*
X127483Y-81963D01*
X127551Y-81909D01*
X127621Y-81859D01*
X127628Y-81847D01*
X127639Y-81839D01*
X127680Y-81763D01*
X127725Y-81690D01*
X127727Y-81676D01*
X127734Y-81664D01*
X127742Y-81578D01*
X127755Y-81493D01*
X127752Y-81480D01*
X127753Y-81466D01*
X127727Y-81384D01*
X127706Y-81300D01*
X127697Y-81288D01*
X127694Y-81277D01*
X127666Y-81244D01*
X127610Y-81165D01*
X119363Y-72918D01*
X117728Y-71283D01*
X117728Y-64378D01*
X117726Y-64366D01*
X117728Y-64353D01*
X117706Y-64269D01*
X117689Y-64183D01*
X117682Y-64173D01*
X117678Y-64161D01*
X117582Y-64025D01*
X106898Y-53341D01*
X106894Y-53339D01*
X106892Y-53335D01*
X106812Y-53284D01*
X106732Y-53231D01*
X106728Y-53231D01*
X106725Y-53228D01*
X106631Y-53212D01*
X106537Y-53195D01*
X106533Y-53196D01*
X106528Y-53195D01*
X106437Y-53217D01*
X106343Y-53238D01*
X106339Y-53240D01*
X106335Y-53241D01*
X106259Y-53297D01*
X106180Y-53353D01*
X106178Y-53357D01*
X106175Y-53359D01*
X106126Y-53441D01*
X106076Y-53522D01*
X106076Y-53526D01*
X106073Y-53530D01*
X106046Y-53694D01*
X106046Y-88936D01*
X106048Y-88949D01*
X106046Y-88961D01*
X106068Y-89045D01*
X106085Y-89131D01*
X106092Y-89142D01*
X106096Y-89154D01*
X106192Y-89289D01*
X107824Y-90921D01*
X107824Y-94499D01*
X105294Y-97029D01*
X101716Y-97029D01*
X99186Y-94499D01*
X99186Y-90921D01*
X100818Y-89289D01*
X100825Y-89279D01*
X100835Y-89271D01*
X100880Y-89197D01*
X100928Y-89124D01*
X100930Y-89111D01*
X100937Y-89100D01*
X100964Y-88936D01*
X100964Y-55361D01*
X100962Y-55349D01*
X100964Y-55336D01*
X100942Y-55252D01*
X100925Y-55166D01*
X100918Y-55156D01*
X100914Y-55144D01*
X100818Y-55008D01*
X98281Y-52471D01*
X98270Y-52464D01*
X98263Y-52454D01*
X98188Y-52409D01*
X98115Y-52361D01*
X98103Y-52359D01*
X98092Y-52352D01*
X97928Y-52325D01*
X95620Y-52325D01*
X93090Y-49795D01*
X93090Y-46217D01*
X95620Y-43687D01*
X96039Y-43687D01*
X96043Y-43686D01*
X96047Y-43687D01*
X96140Y-43667D01*
X96234Y-43648D01*
X96237Y-43645D01*
X96241Y-43644D01*
X96319Y-43589D01*
X96398Y-43535D01*
X96400Y-43532D01*
X96403Y-43529D01*
X96453Y-43448D01*
X96505Y-43368D01*
X96505Y-43363D01*
X96508Y-43360D01*
X96522Y-43266D01*
X96538Y-43171D01*
X96537Y-43167D01*
X96537Y-43163D01*
X96514Y-43071D01*
X96492Y-42978D01*
X96489Y-42975D01*
X96488Y-42971D01*
X96392Y-42835D01*
X85835Y-32278D01*
X84200Y-30643D01*
X84200Y29729D01*
X84198Y29741D01*
X84200Y29754D01*
X84178Y29838D01*
X84161Y29924D01*
X84154Y29934D01*
X84150Y29946D01*
X84054Y30082D01*
X66023Y48113D01*
X66012Y48120D01*
X66005Y48130D01*
X65930Y48175D01*
X65857Y48223D01*
X65845Y48225D01*
X65834Y48232D01*
X65670Y48259D01*
X27777Y48259D01*
X26142Y49894D01*
X1761Y74275D01*
X1750Y74282D01*
X1743Y74292D01*
X1668Y74337D01*
X1595Y74385D01*
X1583Y74387D01*
X1572Y74394D01*
X1408Y74421D01*
X-900Y74421D01*
X-3430Y76951D01*
X-3430Y80529D01*
X-2262Y81697D01*
X-2259Y81701D01*
X-2256Y81703D01*
X-2205Y81783D01*
X-2152Y81863D01*
X-2151Y81867D01*
X-2149Y81870D01*
X-2133Y81964D01*
X-2115Y82058D01*
X-2116Y82062D01*
X-2116Y82067D01*
X-2137Y82158D01*
X-2158Y82252D01*
X-2161Y82256D01*
X-2162Y82260D01*
X-2218Y82336D01*
X-2273Y82415D01*
X-2277Y82417D01*
X-2280Y82420D01*
X-2361Y82469D01*
X-2443Y82519D01*
X-2447Y82519D01*
X-2451Y82522D01*
X-2615Y82549D01*
X-15632Y82549D01*
X-15644Y82547D01*
X-15657Y82549D01*
X-15741Y82527D01*
X-15827Y82510D01*
X-15837Y82503D01*
X-15849Y82499D01*
X-15985Y82403D01*
X-19284Y79104D01*
X-19291Y79093D01*
X-19301Y79086D01*
X-19346Y79011D01*
X-19394Y78938D01*
X-19396Y78926D01*
X-19403Y78915D01*
X-19430Y78751D01*
X-19430Y52288D01*
X-23602Y48116D01*
X-23609Y48105D01*
X-23619Y48098D01*
X-23664Y48023D01*
X-23712Y47950D01*
X-23714Y47938D01*
X-23721Y47927D01*
X-23748Y47763D01*
X-23748Y45096D01*
X-26427Y42417D01*
X-30215Y42417D01*
X-32894Y45096D01*
X-32894Y48884D01*
X-30215Y51563D01*
X-27548Y51563D01*
X-27536Y51565D01*
X-27523Y51563D01*
X-27439Y51585D01*
X-27353Y51602D01*
X-27343Y51609D01*
X-27331Y51613D01*
X-27195Y51709D01*
X-24658Y54246D01*
X-24651Y54257D01*
X-24641Y54264D01*
X-24596Y54339D01*
X-24548Y54412D01*
X-24546Y54424D01*
X-24539Y54435D01*
X-24512Y54599D01*
X-24512Y81062D01*
X-17943Y87631D01*
X90333Y87631D01*
X91968Y85996D01*
X119016Y58948D01*
X120651Y57313D01*
X120651Y23964D01*
X120608Y23893D01*
X120560Y23820D01*
X120558Y23808D01*
X120551Y23797D01*
X120524Y23633D01*
X120524Y15610D01*
X120526Y15598D01*
X120524Y15585D01*
X120546Y15501D01*
X120563Y15415D01*
X120570Y15405D01*
X120574Y15393D01*
X120670Y15257D01*
X122445Y13482D01*
X122456Y13475D01*
X122463Y13465D01*
X122538Y13420D01*
X122611Y13372D01*
X122623Y13370D01*
X122634Y13363D01*
X122798Y13336D01*
X123241Y13336D01*
X123252Y13338D01*
X123262Y13336D01*
X123348Y13357D01*
X123436Y13375D01*
X123445Y13381D01*
X123455Y13384D01*
X123526Y13437D01*
X123600Y13488D01*
X123606Y13497D01*
X123614Y13503D01*
X123702Y13644D01*
X124649Y15930D01*
X127199Y18480D01*
X130531Y19860D01*
X134137Y19860D01*
X137469Y18480D01*
X140019Y15930D01*
X141399Y12598D01*
X141399Y8992D01*
X140019Y5660D01*
X137469Y3110D01*
X135346Y2231D01*
X135345Y2230D01*
X135343Y2230D01*
X135263Y2175D01*
X135182Y2120D01*
X135180Y2118D01*
X135179Y2117D01*
X135127Y2036D01*
X135073Y1953D01*
X135073Y1951D01*
X135072Y1950D01*
X135056Y1854D01*
X135038Y1758D01*
X135039Y1756D01*
X135039Y1753D01*
X135061Y1660D01*
X135083Y1564D01*
X135084Y1562D01*
X135085Y1560D01*
X135142Y1482D01*
X135199Y1403D01*
X135201Y1402D01*
X135202Y1400D01*
X135286Y1351D01*
X135370Y1300D01*
X135372Y1300D01*
X135374Y1298D01*
X135538Y1271D01*
X144410Y1271D01*
X144422Y1273D01*
X144435Y1271D01*
X144519Y1293D01*
X144605Y1310D01*
X144615Y1317D01*
X144627Y1321D01*
X144763Y1417D01*
X149508Y6162D01*
X149514Y6171D01*
X149522Y6177D01*
X149568Y6253D01*
X149618Y6328D01*
X149620Y6338D01*
X149625Y6347D01*
X149638Y6435D01*
X149654Y6523D01*
X149652Y6534D01*
X149653Y6544D01*
X149616Y6706D01*
X148669Y8992D01*
X148669Y12598D01*
X150049Y15930D01*
X152599Y18480D01*
X155931Y19860D01*
X159537Y19860D01*
X162869Y18480D01*
X165419Y15930D01*
X166799Y12598D01*
X166799Y8992D01*
X165419Y5660D01*
X162869Y3110D01*
X159537Y1730D01*
X155931Y1730D01*
X153645Y2677D01*
X153635Y2679D01*
X153626Y2685D01*
X153538Y2698D01*
X153450Y2715D01*
X153440Y2713D01*
X153429Y2714D01*
X153343Y2692D01*
X153255Y2674D01*
X153247Y2668D01*
X153237Y2665D01*
X153101Y2569D01*
X146721Y-3811D01*
X119598Y-3811D01*
X113394Y2393D01*
X111759Y4028D01*
X111759Y52970D01*
X111757Y52982D01*
X111759Y52995D01*
X111737Y53079D01*
X111720Y53165D01*
X111713Y53175D01*
X111709Y53187D01*
X111613Y53323D01*
X89264Y75672D01*
X89253Y75679D01*
X89246Y75689D01*
X89171Y75734D01*
X89098Y75782D01*
X89086Y75784D01*
X89075Y75791D01*
X88911Y75818D01*
X68671Y75818D01*
X68659Y75816D01*
X68646Y75818D01*
X68562Y75796D01*
X68476Y75779D01*
X68466Y75772D01*
X68454Y75769D01*
X68318Y75672D01*
X68302Y75656D01*
X68299Y75653D01*
X68296Y75650D01*
X68244Y75570D01*
X68192Y75491D01*
X68191Y75486D01*
X68189Y75483D01*
X68173Y75389D01*
X68155Y75295D01*
X68156Y75291D01*
X68156Y75286D01*
X68178Y75194D01*
X68198Y75101D01*
X68201Y75097D01*
X68202Y75093D01*
X68258Y75017D01*
X68313Y74939D01*
X68317Y74936D01*
X68320Y74933D01*
X68400Y74885D01*
X68482Y74834D01*
X68487Y74834D01*
X68491Y74831D01*
X68655Y74804D01*
X74324Y74804D01*
X110110Y39018D01*
X110110Y-8012D01*
X110112Y-8024D01*
X110110Y-8037D01*
X110132Y-8121D01*
X110149Y-8207D01*
X110156Y-8217D01*
X110160Y-8229D01*
X110256Y-8365D01*
X113809Y-11918D01*
X113820Y-11925D01*
X113827Y-11935D01*
X113902Y-11980D01*
X113975Y-12028D01*
X113987Y-12030D01*
X113998Y-12037D01*
X114162Y-12064D01*
X123241Y-12064D01*
X123252Y-12062D01*
X123262Y-12064D01*
X123348Y-12043D01*
X123436Y-12025D01*
X123445Y-12019D01*
X123455Y-12016D01*
X123526Y-11963D01*
X123600Y-11912D01*
X123606Y-11903D01*
X123614Y-11897D01*
X123702Y-11756D01*
X124649Y-9470D01*
X127199Y-6920D01*
X130531Y-5540D01*
X134137Y-5540D01*
X137469Y-6920D01*
X140019Y-9470D01*
X141399Y-12802D01*
X141399Y-16408D01*
X140019Y-19740D01*
X137469Y-22290D01*
X135960Y-22915D01*
X135958Y-22916D01*
X135956Y-22916D01*
X135876Y-22971D01*
X135795Y-23026D01*
X135794Y-23028D01*
X135792Y-23029D01*
X135740Y-23110D01*
X135686Y-23193D01*
X135686Y-23195D01*
X135685Y-23196D01*
X135669Y-23293D01*
X135652Y-23388D01*
X135652Y-23390D01*
X135652Y-23393D01*
X135674Y-23486D01*
X135696Y-23582D01*
X135697Y-23584D01*
X135698Y-23586D01*
X135754Y-23663D01*
X135813Y-23743D01*
X135814Y-23744D01*
X135816Y-23746D01*
X135899Y-23795D01*
X135983Y-23846D01*
X135985Y-23846D01*
X135987Y-23848D01*
X136151Y-23875D01*
X144664Y-23875D01*
X144676Y-23873D01*
X144689Y-23875D01*
X144773Y-23853D01*
X144859Y-23836D01*
X144869Y-23829D01*
X144881Y-23825D01*
X145017Y-23729D01*
X149508Y-19238D01*
X149514Y-19229D01*
X149522Y-19223D01*
X149568Y-19147D01*
X149618Y-19072D01*
X149620Y-19062D01*
X149625Y-19053D01*
X149638Y-18965D01*
X149654Y-18877D01*
X149652Y-18866D01*
X149653Y-18856D01*
X149616Y-18694D01*
X148669Y-16408D01*
X148669Y-12802D01*
X150049Y-9470D01*
X152599Y-6920D01*
X155931Y-5540D01*
X159537Y-5540D01*
X162869Y-6920D01*
X165419Y-9470D01*
X166799Y-12802D01*
X166799Y-16408D01*
X165419Y-19740D01*
X162869Y-22290D01*
X159537Y-23670D01*
X155931Y-23670D01*
X153645Y-22723D01*
X153635Y-22721D01*
X153626Y-22715D01*
X153538Y-22702D01*
X153450Y-22685D01*
X153440Y-22687D01*
X153429Y-22686D01*
X153343Y-22708D01*
X153255Y-22726D01*
X153247Y-22732D01*
X153237Y-22735D01*
X153101Y-22831D01*
X148610Y-27322D01*
X146975Y-28957D01*
X115653Y-28957D01*
X114019Y-27322D01*
X102707Y-16011D01*
X102703Y-16008D01*
X102701Y-16005D01*
X102621Y-15954D01*
X102541Y-15901D01*
X102537Y-15900D01*
X102534Y-15898D01*
X102440Y-15882D01*
X102346Y-15864D01*
X102342Y-15865D01*
X102337Y-15865D01*
X102246Y-15886D01*
X102152Y-15907D01*
X102148Y-15910D01*
X102144Y-15911D01*
X102068Y-15967D01*
X101989Y-16022D01*
X101987Y-16026D01*
X101984Y-16029D01*
X101935Y-16110D01*
X101885Y-16192D01*
X101885Y-16196D01*
X101882Y-16200D01*
X101855Y-16364D01*
X101855Y-20077D01*
X101857Y-20089D01*
X101855Y-20102D01*
X101877Y-20186D01*
X101894Y-20272D01*
X101901Y-20282D01*
X101905Y-20294D01*
X102001Y-20430D01*
X118889Y-37318D01*
X118900Y-37325D01*
X118907Y-37335D01*
X118982Y-37380D01*
X119055Y-37428D01*
X119067Y-37430D01*
X119078Y-37437D01*
X119242Y-37464D01*
X123241Y-37464D01*
X123252Y-37462D01*
X123262Y-37464D01*
X123348Y-37443D01*
X123436Y-37425D01*
X123445Y-37419D01*
X123455Y-37416D01*
X123526Y-37363D01*
X123600Y-37312D01*
X123606Y-37303D01*
X123614Y-37297D01*
X123702Y-37156D01*
X124649Y-34870D01*
X127199Y-32320D01*
X130531Y-30940D01*
X134137Y-30940D01*
X137469Y-32320D01*
X140019Y-34870D01*
X141399Y-38202D01*
X141399Y-41808D01*
X140019Y-45140D01*
X137497Y-47661D01*
X137495Y-47665D01*
X137492Y-47667D01*
X137441Y-47747D01*
X137388Y-47827D01*
X137387Y-47831D01*
X137385Y-47834D01*
X137369Y-47928D01*
X137351Y-48022D01*
X137352Y-48026D01*
X137352Y-48031D01*
X137373Y-48123D01*
X137394Y-48216D01*
X137397Y-48220D01*
X137398Y-48224D01*
X137454Y-48301D01*
X137509Y-48379D01*
X137513Y-48381D01*
X137515Y-48384D01*
X137597Y-48433D01*
X137679Y-48483D01*
X137683Y-48483D01*
X137686Y-48486D01*
X137850Y-48513D01*
X145426Y-48513D01*
X145438Y-48511D01*
X145451Y-48513D01*
X145535Y-48491D01*
X145621Y-48474D01*
X145631Y-48467D01*
X145643Y-48463D01*
X145779Y-48367D01*
X149508Y-44638D01*
X149514Y-44629D01*
X149522Y-44623D01*
X149568Y-44547D01*
X149618Y-44472D01*
X149620Y-44462D01*
X149625Y-44453D01*
X149638Y-44365D01*
X149654Y-44277D01*
X149652Y-44266D01*
X149653Y-44256D01*
X149616Y-44094D01*
X148669Y-41808D01*
X148669Y-38202D01*
X150049Y-34870D01*
X152599Y-32320D01*
X155931Y-30940D01*
X159537Y-30940D01*
X162869Y-32320D01*
X165419Y-34870D01*
X166799Y-38202D01*
X166799Y-41808D01*
X165419Y-45140D01*
X162869Y-47690D01*
X159537Y-49070D01*
X155931Y-49070D01*
X153645Y-48123D01*
X153635Y-48121D01*
X153626Y-48115D01*
X153538Y-48102D01*
X153450Y-48085D01*
X153440Y-48087D01*
X153429Y-48086D01*
X153343Y-48108D01*
X153255Y-48126D01*
X153247Y-48132D01*
X153237Y-48135D01*
X153101Y-48231D01*
X148980Y-52352D01*
X148975Y-52359D01*
X148969Y-52364D01*
X148921Y-52441D01*
X148870Y-52518D01*
X148869Y-52526D01*
X148864Y-52533D01*
X148851Y-52623D01*
X148834Y-52713D01*
X148836Y-52721D01*
X148835Y-52730D01*
X148857Y-52818D01*
X148877Y-52907D01*
X148882Y-52914D01*
X148884Y-52922D01*
X148980Y-53058D01*
X149753Y-53831D01*
X153101Y-57179D01*
X153110Y-57185D01*
X153116Y-57193D01*
X153192Y-57239D01*
X153267Y-57289D01*
X153277Y-57291D01*
X153286Y-57296D01*
X153374Y-57309D01*
X153462Y-57325D01*
X153473Y-57323D01*
X153483Y-57324D01*
X153645Y-57287D01*
X155931Y-56340D01*
X159537Y-56340D01*
X162869Y-57720D01*
X165419Y-60270D01*
X166799Y-63602D01*
X166799Y-67208D01*
X165419Y-70540D01*
X162869Y-73090D01*
X159537Y-74470D01*
X155931Y-74470D01*
X152599Y-73090D01*
X150049Y-70540D01*
X148669Y-67208D01*
X148669Y-63602D01*
X149616Y-61316D01*
X149618Y-61306D01*
X149624Y-61297D01*
X149637Y-61209D01*
X149654Y-61121D01*
X149652Y-61111D01*
X149653Y-61100D01*
X149631Y-61014D01*
X149613Y-60926D01*
X149607Y-60918D01*
X149604Y-60908D01*
X149508Y-60772D01*
X146160Y-57424D01*
X146149Y-57417D01*
X146142Y-57407D01*
X146067Y-57362D01*
X145994Y-57314D01*
X145982Y-57312D01*
X145971Y-57305D01*
X145807Y-57278D01*
X139668Y-57278D01*
X139664Y-57279D01*
X139660Y-57278D01*
X139567Y-57298D01*
X139473Y-57317D01*
X139470Y-57320D01*
X139466Y-57321D01*
X139388Y-57376D01*
X139309Y-57430D01*
X139307Y-57433D01*
X139304Y-57436D01*
X139253Y-57518D01*
X139202Y-57597D01*
X139202Y-57602D01*
X139200Y-57605D01*
X139185Y-57699D01*
X139169Y-57794D01*
X139170Y-57798D01*
X139170Y-57802D01*
X139193Y-57894D01*
X139215Y-57987D01*
X139218Y-57990D01*
X139219Y-57994D01*
X139315Y-58130D01*
X140023Y-58838D01*
X140956Y-60122D01*
X141676Y-61535D01*
X142167Y-63044D01*
X142382Y-64406D01*
X132834Y-64406D01*
X132826Y-64407D01*
X132818Y-64406D01*
X132729Y-64427D01*
X132639Y-64445D01*
X132632Y-64450D01*
X132624Y-64452D01*
X132551Y-64506D01*
X132475Y-64558D01*
X132471Y-64565D01*
X132464Y-64570D01*
X132418Y-64648D01*
X132368Y-64725D01*
X132367Y-64734D01*
X132363Y-64741D01*
X132335Y-64905D01*
X132335Y-65905D01*
X132337Y-65913D01*
X132335Y-65921D01*
X132356Y-66010D01*
X132374Y-66100D01*
X132379Y-66107D01*
X132381Y-66115D01*
X132435Y-66188D01*
X132487Y-66264D01*
X132494Y-66268D01*
X132499Y-66275D01*
X132577Y-66321D01*
X132655Y-66371D01*
X132663Y-66372D01*
X132670Y-66376D01*
X132834Y-66404D01*
X142382Y-66404D01*
X142167Y-67766D01*
X141676Y-69275D01*
X140956Y-70688D01*
X140023Y-71972D01*
X138901Y-73094D01*
X137617Y-74027D01*
X136204Y-74747D01*
X135514Y-74971D01*
X135495Y-74982D01*
X135474Y-74986D01*
X135409Y-75031D01*
X135341Y-75069D01*
X135328Y-75086D01*
X135310Y-75099D01*
X135268Y-75165D01*
X135220Y-75227D01*
X135214Y-75248D01*
X135203Y-75266D01*
X135190Y-75343D01*
X135170Y-75419D01*
X135173Y-75441D01*
X135169Y-75463D01*
X135188Y-75538D01*
X135199Y-75616D01*
X135210Y-75635D01*
X135216Y-75656D01*
X135262Y-75719D01*
X135303Y-75786D01*
X135320Y-75798D01*
X135333Y-75816D01*
X135400Y-75856D01*
X135464Y-75902D01*
X135486Y-75906D01*
X135504Y-75918D01*
X135629Y-75939D01*
X135658Y-75945D01*
X135663Y-75944D01*
X135668Y-75945D01*
X136307Y-75945D01*
X137942Y-77580D01*
X148344Y-87982D01*
X148350Y-87986D01*
X148353Y-87991D01*
X148432Y-88041D01*
X148510Y-88092D01*
X148516Y-88093D01*
X148522Y-88097D01*
X148614Y-88111D01*
X148706Y-88128D01*
X148712Y-88127D01*
X148718Y-88128D01*
X148808Y-88106D01*
X148900Y-88086D01*
X148905Y-88082D01*
X148911Y-88080D01*
X148986Y-88025D01*
X149062Y-87970D01*
X149065Y-87965D01*
X149070Y-87961D01*
X149159Y-87820D01*
X150049Y-85670D01*
X152599Y-83120D01*
X155931Y-81740D01*
X159537Y-81740D01*
X162869Y-83120D01*
X165419Y-85670D01*
X166799Y-89002D01*
X166799Y-92608D01*
X165419Y-95940D01*
X162869Y-98490D01*
X159537Y-99870D01*
X155931Y-99870D01*
G37*
%LPD*%
%LPC*%
G36*
X54980Y-61342D02*
X54980Y-61342D01*
X52450Y-58812D01*
X52450Y-55234D01*
X54082Y-53602D01*
X54089Y-53592D01*
X54099Y-53584D01*
X54144Y-53510D01*
X54192Y-53437D01*
X54194Y-53424D01*
X54201Y-53413D01*
X54228Y-53249D01*
X54228Y-21579D01*
X54226Y-21567D01*
X54228Y-21554D01*
X54206Y-21470D01*
X54189Y-21384D01*
X54182Y-21374D01*
X54178Y-21362D01*
X54082Y-21226D01*
X46973Y-14117D01*
X46962Y-14110D01*
X46955Y-14100D01*
X46880Y-14055D01*
X46807Y-14007D01*
X46795Y-14005D01*
X46784Y-13998D01*
X46620Y-13971D01*
X-11488Y-13971D01*
X-11501Y-13973D01*
X-11513Y-13971D01*
X-11597Y-13993D01*
X-11683Y-14010D01*
X-11693Y-14017D01*
X-11706Y-14021D01*
X-11841Y-14117D01*
X-13727Y-16003D01*
X-17515Y-16003D01*
X-20194Y-13324D01*
X-20194Y-9536D01*
X-17515Y-6857D01*
X-13727Y-6857D01*
X-11841Y-8743D01*
X-11831Y-8750D01*
X-11823Y-8760D01*
X-11748Y-8804D01*
X-11675Y-8853D01*
X-11663Y-8855D01*
X-11652Y-8862D01*
X-11488Y-8889D01*
X48931Y-8889D01*
X57675Y-17633D01*
X59310Y-19268D01*
X59310Y-40519D01*
X59311Y-40524D01*
X59310Y-40528D01*
X59330Y-40620D01*
X59349Y-40714D01*
X59352Y-40718D01*
X59353Y-40722D01*
X59408Y-40799D01*
X59462Y-40878D01*
X59465Y-40880D01*
X59468Y-40884D01*
X59549Y-40934D01*
X59629Y-40985D01*
X59634Y-40986D01*
X59637Y-40988D01*
X59731Y-41002D01*
X59826Y-41018D01*
X59830Y-41017D01*
X59834Y-41018D01*
X59927Y-40994D01*
X60019Y-40972D01*
X60022Y-40970D01*
X60026Y-40969D01*
X60162Y-40872D01*
X60432Y-40602D01*
X60439Y-40592D01*
X60449Y-40584D01*
X60494Y-40509D01*
X60542Y-40437D01*
X60544Y-40424D01*
X60551Y-40413D01*
X60578Y-40249D01*
X60578Y-11419D01*
X60576Y-11407D01*
X60578Y-11394D01*
X60556Y-11310D01*
X60539Y-11224D01*
X60532Y-11214D01*
X60528Y-11202D01*
X60432Y-11066D01*
X53323Y-3957D01*
X53312Y-3950D01*
X53305Y-3940D01*
X53230Y-3895D01*
X53157Y-3847D01*
X53145Y-3845D01*
X53134Y-3838D01*
X52970Y-3811D01*
X-11488Y-3811D01*
X-11500Y-3813D01*
X-11513Y-3811D01*
X-11597Y-3833D01*
X-11683Y-3850D01*
X-11693Y-3857D01*
X-11706Y-3861D01*
X-11841Y-3957D01*
X-13727Y-5843D01*
X-17515Y-5843D01*
X-20194Y-3164D01*
X-20194Y624D01*
X-17515Y3303D01*
X-13727Y3303D01*
X-11841Y1417D01*
X-11831Y1410D01*
X-11823Y1400D01*
X-11748Y1355D01*
X-11675Y1307D01*
X-11663Y1305D01*
X-11652Y1298D01*
X-11488Y1271D01*
X55281Y1271D01*
X64025Y-7473D01*
X65660Y-9108D01*
X65660Y-41865D01*
X65662Y-41878D01*
X65660Y-41890D01*
X65682Y-41974D01*
X65699Y-42060D01*
X65706Y-42071D01*
X65710Y-42083D01*
X65806Y-42218D01*
X66630Y-43042D01*
X66630Y-46620D01*
X64100Y-49150D01*
X60522Y-49150D01*
X60162Y-48790D01*
X60159Y-48787D01*
X60156Y-48784D01*
X60076Y-48732D01*
X59996Y-48680D01*
X59992Y-48679D01*
X59989Y-48677D01*
X59895Y-48661D01*
X59801Y-48643D01*
X59797Y-48644D01*
X59792Y-48644D01*
X59701Y-48665D01*
X59607Y-48686D01*
X59603Y-48689D01*
X59599Y-48690D01*
X59523Y-48746D01*
X59444Y-48801D01*
X59442Y-48805D01*
X59439Y-48808D01*
X59391Y-48889D01*
X59340Y-48971D01*
X59340Y-48975D01*
X59337Y-48979D01*
X59310Y-49143D01*
X59310Y-53249D01*
X59312Y-53262D01*
X59310Y-53274D01*
X59332Y-53358D01*
X59349Y-53444D01*
X59356Y-53455D01*
X59360Y-53467D01*
X59456Y-53602D01*
X61088Y-55234D01*
X61088Y-58812D01*
X58558Y-61342D01*
X54980Y-61342D01*
G37*
%LPD*%
%LPC*%
G36*
X171836Y-193831D02*
X171836Y-193831D01*
X165482Y-188109D01*
X162004Y-180297D01*
X162004Y-171747D01*
X165482Y-163935D01*
X171836Y-158213D01*
X179969Y-155571D01*
X188472Y-156465D01*
X195878Y-160740D01*
X200904Y-167658D01*
X202682Y-176022D01*
X200904Y-184386D01*
X195878Y-191304D01*
X188472Y-195579D01*
X179969Y-196473D01*
X171836Y-193831D01*
G37*
%LPD*%
%LPC*%
G36*
X-272664Y-193704D02*
X-272664Y-193704D01*
X-279018Y-187982D01*
X-282496Y-180170D01*
X-282496Y-171620D01*
X-279018Y-163808D01*
X-272664Y-158086D01*
X-264531Y-155444D01*
X-256028Y-156338D01*
X-248622Y-160613D01*
X-243596Y-167531D01*
X-241818Y-175895D01*
X-243596Y-184259D01*
X-248622Y-191177D01*
X-256028Y-195452D01*
X-264531Y-196346D01*
X-272664Y-193704D01*
G37*
%LPD*%
%LPC*%
G36*
X-272537Y148942D02*
X-272537Y148942D01*
X-278891Y154664D01*
X-282369Y162476D01*
X-282369Y171026D01*
X-278891Y178838D01*
X-272537Y184560D01*
X-264404Y187202D01*
X-255901Y186308D01*
X-248495Y182033D01*
X-243469Y175115D01*
X-241691Y166751D01*
X-243469Y158387D01*
X-248495Y151469D01*
X-255901Y147194D01*
X-264404Y146300D01*
X-272537Y148942D01*
G37*
%LPD*%
%LPC*%
G36*
X171582Y149069D02*
X171582Y149069D01*
X165228Y154791D01*
X161750Y162603D01*
X161750Y171153D01*
X165228Y178965D01*
X171582Y184687D01*
X179715Y187329D01*
X188218Y186435D01*
X195624Y182160D01*
X200650Y175242D01*
X202428Y166878D01*
X200650Y158514D01*
X195624Y151596D01*
X188218Y147321D01*
X179715Y146427D01*
X171582Y149069D01*
G37*
%LPD*%
%LPC*%
G36*
X30610Y-183516D02*
X30610Y-183516D01*
X29717Y-182623D01*
X29717Y-164849D01*
X30610Y-163956D01*
X36457Y-163956D01*
X36465Y-163955D01*
X36474Y-163956D01*
X36562Y-163935D01*
X36652Y-163917D01*
X36659Y-163912D01*
X36667Y-163910D01*
X36740Y-163856D01*
X36816Y-163804D01*
X36820Y-163797D01*
X36827Y-163792D01*
X36874Y-163714D01*
X36923Y-163637D01*
X36924Y-163628D01*
X36929Y-163621D01*
X36956Y-163457D01*
X36956Y-132577D01*
X36954Y-132565D01*
X36956Y-132552D01*
X36934Y-132468D01*
X36917Y-132382D01*
X36910Y-132372D01*
X36906Y-132360D01*
X36810Y-132224D01*
X23748Y-119162D01*
X23748Y-66029D01*
X23746Y-66017D01*
X23748Y-66004D01*
X23726Y-65920D01*
X23709Y-65834D01*
X23702Y-65824D01*
X23698Y-65812D01*
X23602Y-65676D01*
X-13479Y-28595D01*
X-13490Y-28588D01*
X-13497Y-28578D01*
X-13572Y-28533D01*
X-13645Y-28485D01*
X-13657Y-28483D01*
X-13668Y-28476D01*
X-13832Y-28449D01*
X-16140Y-28449D01*
X-18670Y-25919D01*
X-18670Y-22341D01*
X-16140Y-19811D01*
X-12562Y-19811D01*
X-10032Y-22341D01*
X-10032Y-24649D01*
X-10030Y-24661D01*
X-10032Y-24674D01*
X-10010Y-24758D01*
X-9993Y-24844D01*
X-9986Y-24854D01*
X-9982Y-24866D01*
X-9886Y-25002D01*
X28830Y-63718D01*
X28830Y-116851D01*
X28832Y-116863D01*
X28830Y-116876D01*
X28852Y-116960D01*
X28869Y-117046D01*
X28876Y-117056D01*
X28880Y-117068D01*
X28976Y-117204D01*
X42038Y-130266D01*
X42038Y-163457D01*
X42039Y-163465D01*
X42038Y-163474D01*
X42059Y-163562D01*
X42077Y-163652D01*
X42082Y-163659D01*
X42084Y-163667D01*
X42138Y-163740D01*
X42190Y-163816D01*
X42197Y-163820D01*
X42202Y-163827D01*
X42280Y-163874D01*
X42357Y-163923D01*
X42366Y-163924D01*
X42373Y-163929D01*
X42537Y-163956D01*
X48384Y-163956D01*
X49277Y-164849D01*
X49277Y-182623D01*
X48384Y-183516D01*
X30610Y-183516D01*
G37*
%LPD*%
G36*
X-248696Y-31561D02*
X-248696Y-31561D01*
X-248685Y-31562D01*
X-244661Y-31260D01*
X-244630Y-31252D01*
X-244587Y-31249D01*
X-240653Y-30351D01*
X-240624Y-30338D01*
X-240581Y-30329D01*
X-236825Y-28855D01*
X-236798Y-28838D01*
X-236758Y-28823D01*
X-233263Y-26805D01*
X-233239Y-26784D01*
X-233201Y-26763D01*
X-230046Y-24247D01*
X-230026Y-24222D01*
X-229991Y-24196D01*
X-227247Y-21238D01*
X-227230Y-21211D01*
X-227200Y-21179D01*
X-224927Y-17845D01*
X-224914Y-17816D01*
X-224890Y-17781D01*
X-223139Y-14145D01*
X-223131Y-14114D01*
X-223111Y-14075D01*
X-221922Y-10219D01*
X-221919Y-10188D01*
X-221905Y-10146D01*
X-221304Y-6156D01*
X-221305Y-6124D01*
X-221298Y-6082D01*
X-221298Y-2046D01*
X-221305Y-2015D01*
X-221304Y-1972D01*
X-221905Y2018D01*
X-221916Y2048D01*
X-221922Y2091D01*
X-223111Y5947D01*
X-223127Y5975D01*
X-223139Y6017D01*
X-224890Y9653D01*
X-224909Y9678D01*
X-224927Y9717D01*
X-227200Y13051D01*
X-227223Y13074D01*
X-227247Y13110D01*
X-229991Y16068D01*
X-230017Y16087D01*
X-230046Y16119D01*
X-233201Y18635D01*
X-233229Y18649D01*
X-233263Y18677D01*
X-236758Y20695D01*
X-236788Y20705D01*
X-236825Y20727D01*
X-240581Y22201D01*
X-240613Y22207D01*
X-240653Y22223D01*
X-244587Y23121D01*
X-244619Y23122D01*
X-244661Y23132D01*
X-248685Y23434D01*
X-248712Y23430D01*
X-248739Y23435D01*
X-248809Y23418D01*
X-248882Y23409D01*
X-248906Y23395D01*
X-248932Y23389D01*
X-248991Y23346D01*
X-249054Y23309D01*
X-249070Y23287D01*
X-249092Y23271D01*
X-249129Y23208D01*
X-249173Y23150D01*
X-249180Y23123D01*
X-249194Y23100D01*
X-249211Y22996D01*
X-249221Y22957D01*
X-249219Y22947D01*
X-249221Y22936D01*
X-249221Y-31064D01*
X-249216Y-31091D01*
X-249218Y-31118D01*
X-249196Y-31187D01*
X-249182Y-31259D01*
X-249166Y-31281D01*
X-249158Y-31307D01*
X-249110Y-31363D01*
X-249069Y-31423D01*
X-249046Y-31437D01*
X-249028Y-31458D01*
X-248963Y-31491D01*
X-248902Y-31530D01*
X-248875Y-31534D01*
X-248850Y-31546D01*
X-248746Y-31556D01*
X-248705Y-31563D01*
X-248696Y-31561D01*
G37*
G36*
X-326561Y-166530D02*
X-326561Y-166530D01*
X-326518Y-166534D01*
X-322498Y-166230D01*
X-322468Y-166221D01*
X-322425Y-166219D01*
X-318495Y-165319D01*
X-318466Y-165306D01*
X-318424Y-165297D01*
X-314672Y-163822D01*
X-314645Y-163805D01*
X-314605Y-163790D01*
X-311115Y-161772D01*
X-311091Y-161751D01*
X-311053Y-161730D01*
X-307903Y-159215D01*
X-307883Y-159190D01*
X-307848Y-159164D01*
X-305108Y-156207D01*
X-305092Y-156180D01*
X-305062Y-156149D01*
X-302793Y-152817D01*
X-302781Y-152787D01*
X-302756Y-152752D01*
X-301009Y-149119D01*
X-301001Y-149088D01*
X-300982Y-149050D01*
X-299796Y-145197D01*
X-299793Y-145165D01*
X-299779Y-145124D01*
X-299181Y-141137D01*
X-299182Y-141106D01*
X-299175Y-141063D01*
X-299178Y-137032D01*
X-299184Y-137001D01*
X-299183Y-136957D01*
X-299787Y-132972D01*
X-299798Y-132942D01*
X-299803Y-132899D01*
X-300994Y-129047D01*
X-301009Y-129020D01*
X-301021Y-128978D01*
X-302772Y-125347D01*
X-302789Y-125325D01*
X-302798Y-125300D01*
X-302849Y-125247D01*
X-302893Y-125189D01*
X-302916Y-125175D01*
X-302935Y-125156D01*
X-303002Y-125126D01*
X-303065Y-125090D01*
X-303092Y-125087D01*
X-303117Y-125076D01*
X-303190Y-125075D01*
X-303263Y-125066D01*
X-303289Y-125074D01*
X-303316Y-125074D01*
X-303415Y-125110D01*
X-303454Y-125122D01*
X-303461Y-125128D01*
X-303472Y-125132D01*
X-350172Y-152132D01*
X-350192Y-152150D01*
X-350217Y-152161D01*
X-350249Y-152197D01*
X-350267Y-152209D01*
X-350277Y-152225D01*
X-350321Y-152264D01*
X-350332Y-152288D01*
X-350351Y-152308D01*
X-350375Y-152377D01*
X-350406Y-152443D01*
X-350408Y-152470D01*
X-350417Y-152496D01*
X-350412Y-152569D01*
X-350415Y-152642D01*
X-350406Y-152667D01*
X-350404Y-152694D01*
X-350360Y-152790D01*
X-350346Y-152828D01*
X-350339Y-152835D01*
X-350334Y-152846D01*
X-348061Y-156175D01*
X-348039Y-156197D01*
X-348015Y-156233D01*
X-345271Y-159187D01*
X-345245Y-159205D01*
X-345216Y-159237D01*
X-342063Y-161749D01*
X-342035Y-161763D01*
X-342002Y-161791D01*
X-338509Y-163804D01*
X-338479Y-163814D01*
X-338442Y-163837D01*
X-334689Y-165307D01*
X-334657Y-165313D01*
X-334617Y-165329D01*
X-330687Y-166224D01*
X-330655Y-166224D01*
X-330613Y-166235D01*
X-326593Y-166534D01*
X-326561Y-166530D01*
G37*
G36*
X-303358Y116950D02*
X-303358Y116950D01*
X-303285Y116956D01*
X-303261Y116968D01*
X-303234Y116973D01*
X-303173Y117014D01*
X-303109Y117047D01*
X-303091Y117068D01*
X-303069Y117083D01*
X-303008Y117169D01*
X-302982Y117201D01*
X-302979Y117210D01*
X-302972Y117219D01*
X-301221Y120850D01*
X-301213Y120881D01*
X-301194Y120919D01*
X-300003Y124771D01*
X-300000Y124803D01*
X-299987Y124844D01*
X-299383Y128829D01*
X-299385Y128861D01*
X-299378Y128904D01*
X-299375Y132935D01*
X-299382Y132966D01*
X-299381Y133009D01*
X-299979Y136996D01*
X-299990Y137026D01*
X-299996Y137069D01*
X-301182Y140922D01*
X-301197Y140950D01*
X-301209Y140991D01*
X-302956Y144624D01*
X-302975Y144649D01*
X-302993Y144689D01*
X-305262Y148021D01*
X-305285Y148043D01*
X-305308Y148079D01*
X-308048Y151036D01*
X-308074Y151054D01*
X-308103Y151087D01*
X-311253Y153602D01*
X-311282Y153617D01*
X-311315Y153644D01*
X-314805Y155662D01*
X-314835Y155672D01*
X-314872Y155694D01*
X-318624Y157169D01*
X-318655Y157175D01*
X-318695Y157191D01*
X-322625Y158091D01*
X-322656Y158091D01*
X-322698Y158102D01*
X-326718Y158406D01*
X-326750Y158402D01*
X-326793Y158406D01*
X-330813Y158107D01*
X-330843Y158098D01*
X-330887Y158096D01*
X-334817Y157201D01*
X-334846Y157188D01*
X-334889Y157179D01*
X-338642Y155709D01*
X-338669Y155691D01*
X-338709Y155676D01*
X-342202Y153663D01*
X-342225Y153642D01*
X-342263Y153621D01*
X-345416Y151109D01*
X-345437Y151085D01*
X-345471Y151059D01*
X-348215Y148105D01*
X-348231Y148078D01*
X-348261Y148047D01*
X-350534Y144718D01*
X-350545Y144692D01*
X-350562Y144671D01*
X-350583Y144602D01*
X-350612Y144534D01*
X-350611Y144507D01*
X-350619Y144481D01*
X-350611Y144408D01*
X-350611Y144335D01*
X-350600Y144310D01*
X-350597Y144283D01*
X-350562Y144220D01*
X-350533Y144153D01*
X-350513Y144134D01*
X-350500Y144110D01*
X-350419Y144043D01*
X-350390Y144015D01*
X-350381Y144011D01*
X-350372Y144004D01*
X-303672Y117004D01*
X-303646Y116995D01*
X-303624Y116979D01*
X-303553Y116964D01*
X-303483Y116941D01*
X-303456Y116943D01*
X-303430Y116937D01*
X-303358Y116950D01*
G37*
%LPC*%
G36*
X12152Y-183516D02*
X12152Y-183516D01*
X8557Y-182027D01*
X5806Y-179276D01*
X4317Y-175681D01*
X4317Y-171791D01*
X5806Y-168196D01*
X8557Y-165445D01*
X11248Y-164331D01*
X11257Y-164325D01*
X11267Y-164322D01*
X11339Y-164270D01*
X11413Y-164219D01*
X11419Y-164211D01*
X11427Y-164204D01*
X11472Y-164128D01*
X11521Y-164053D01*
X11523Y-164042D01*
X11529Y-164033D01*
X11556Y-163869D01*
X11556Y-67807D01*
X11554Y-67795D01*
X11556Y-67782D01*
X11534Y-67698D01*
X11517Y-67612D01*
X11510Y-67602D01*
X11506Y-67590D01*
X11410Y-67454D01*
X-13479Y-42565D01*
X-13490Y-42558D01*
X-13497Y-42548D01*
X-13572Y-42503D01*
X-13645Y-42455D01*
X-13657Y-42453D01*
X-13668Y-42446D01*
X-13832Y-42419D01*
X-16140Y-42419D01*
X-18670Y-39889D01*
X-18670Y-36311D01*
X-16140Y-33781D01*
X-12562Y-33781D01*
X-10032Y-36311D01*
X-10032Y-38619D01*
X-10030Y-38631D01*
X-10032Y-38644D01*
X-10010Y-38728D01*
X-9993Y-38814D01*
X-9986Y-38824D01*
X-9982Y-38836D01*
X-9886Y-38972D01*
X16638Y-65496D01*
X16638Y-163869D01*
X16640Y-163880D01*
X16638Y-163890D01*
X16659Y-163976D01*
X16677Y-164064D01*
X16683Y-164073D01*
X16686Y-164083D01*
X16739Y-164154D01*
X16790Y-164228D01*
X16799Y-164234D01*
X16805Y-164242D01*
X16946Y-164331D01*
X19637Y-165445D01*
X22388Y-168196D01*
X23877Y-171791D01*
X23877Y-175681D01*
X22388Y-179276D01*
X19637Y-182027D01*
X16042Y-183516D01*
X12152Y-183516D01*
G37*
%LPD*%
%LPC*%
G36*
X-58282Y-105538D02*
X-58282Y-105538D01*
X-60961Y-102859D01*
X-60961Y-43953D01*
X-58155Y-41147D01*
X-54367Y-41147D01*
X-51688Y-43826D01*
X-51688Y-47616D01*
X-51731Y-47688D01*
X-51779Y-47761D01*
X-51781Y-47773D01*
X-51788Y-47784D01*
X-51815Y-47948D01*
X-51815Y-102859D01*
X-54494Y-105538D01*
X-58282Y-105538D01*
G37*
%LPD*%
%LPC*%
G36*
X-182034Y-51817D02*
X-182034Y-51817D01*
X-184695Y-50715D01*
X-186732Y-48678D01*
X-187834Y-46017D01*
X-187834Y-43137D01*
X-186732Y-40476D01*
X-184695Y-38439D01*
X-182034Y-37337D01*
X-179154Y-37337D01*
X-176493Y-38439D01*
X-174456Y-40476D01*
X-173938Y-41728D01*
X-173932Y-41737D01*
X-173930Y-41747D01*
X-173877Y-41819D01*
X-173827Y-41893D01*
X-173818Y-41899D01*
X-173812Y-41907D01*
X-173735Y-41952D01*
X-173660Y-42001D01*
X-173650Y-42003D01*
X-173641Y-42009D01*
X-173477Y-42036D01*
X-138648Y-42036D01*
X-138635Y-42034D01*
X-138623Y-42036D01*
X-138539Y-42014D01*
X-138453Y-41997D01*
X-138442Y-41990D01*
X-138430Y-41986D01*
X-138295Y-41890D01*
X-136155Y-39750D01*
X-132577Y-39750D01*
X-130047Y-42280D01*
X-130047Y-45858D01*
X-132577Y-48388D01*
X-136155Y-48388D01*
X-137279Y-47264D01*
X-137289Y-47257D01*
X-137297Y-47247D01*
X-137371Y-47202D01*
X-137444Y-47154D01*
X-137457Y-47152D01*
X-137468Y-47145D01*
X-137632Y-47118D01*
X-173477Y-47118D01*
X-173487Y-47120D01*
X-173497Y-47118D01*
X-173584Y-47139D01*
X-173671Y-47157D01*
X-173680Y-47163D01*
X-173690Y-47166D01*
X-173762Y-47219D01*
X-173835Y-47270D01*
X-173841Y-47279D01*
X-173849Y-47285D01*
X-173938Y-47426D01*
X-174456Y-48678D01*
X-176493Y-50715D01*
X-179154Y-51817D01*
X-182034Y-51817D01*
G37*
%LPD*%
%LPC*%
G36*
X-182034Y-31497D02*
X-182034Y-31497D01*
X-184695Y-30395D01*
X-186732Y-28358D01*
X-187834Y-25697D01*
X-187834Y-22817D01*
X-186732Y-20156D01*
X-184695Y-18119D01*
X-182034Y-17017D01*
X-179154Y-17017D01*
X-176493Y-18119D01*
X-174456Y-20156D01*
X-173938Y-21408D01*
X-173932Y-21417D01*
X-173930Y-21427D01*
X-173877Y-21499D01*
X-173827Y-21573D01*
X-173818Y-21579D01*
X-173812Y-21587D01*
X-173735Y-21632D01*
X-173660Y-21681D01*
X-173650Y-21683D01*
X-173641Y-21689D01*
X-173477Y-21716D01*
X-138648Y-21716D01*
X-138635Y-21714D01*
X-138623Y-21716D01*
X-138539Y-21694D01*
X-138453Y-21677D01*
X-138442Y-21670D01*
X-138430Y-21666D01*
X-138295Y-21570D01*
X-136536Y-19811D01*
X-132958Y-19811D01*
X-130428Y-22341D01*
X-130428Y-25919D01*
X-132958Y-28449D01*
X-136536Y-28449D01*
X-138041Y-26944D01*
X-138048Y-26939D01*
X-138052Y-26933D01*
X-138055Y-26932D01*
X-138059Y-26927D01*
X-138133Y-26882D01*
X-138206Y-26834D01*
X-138219Y-26832D01*
X-138230Y-26825D01*
X-138394Y-26798D01*
X-173477Y-26798D01*
X-173487Y-26800D01*
X-173497Y-26798D01*
X-173584Y-26819D01*
X-173671Y-26837D01*
X-173680Y-26843D01*
X-173690Y-26846D01*
X-173762Y-26899D01*
X-173835Y-26950D01*
X-173841Y-26959D01*
X-173849Y-26965D01*
X-173938Y-27106D01*
X-174456Y-28358D01*
X-176493Y-30395D01*
X-179154Y-31497D01*
X-182034Y-31497D01*
G37*
%LPD*%
%LPC*%
G36*
X22863Y148970D02*
X22863Y148970D01*
X21970Y149863D01*
X21970Y167637D01*
X22863Y168530D01*
X40637Y168530D01*
X41530Y167637D01*
X41530Y149863D01*
X40637Y148970D01*
X22863Y148970D01*
G37*
%LPD*%
%LPC*%
G36*
X-37896Y-99315D02*
X-37896Y-99315D01*
X-40557Y-98213D01*
X-42594Y-96176D01*
X-43696Y-93515D01*
X-43696Y-90635D01*
X-42594Y-87974D01*
X-40557Y-85937D01*
X-37896Y-84835D01*
X-35016Y-84835D01*
X-32355Y-85937D01*
X-30318Y-87974D01*
X-29656Y-89573D01*
X-29655Y-89575D01*
X-29655Y-89577D01*
X-29599Y-89657D01*
X-29545Y-89738D01*
X-29543Y-89739D01*
X-29542Y-89741D01*
X-29461Y-89793D01*
X-29378Y-89846D01*
X-29376Y-89846D01*
X-29375Y-89848D01*
X-29279Y-89864D01*
X-29183Y-89881D01*
X-29181Y-89880D01*
X-29178Y-89881D01*
X-29085Y-89858D01*
X-28989Y-89836D01*
X-28987Y-89835D01*
X-28985Y-89835D01*
X-28908Y-89778D01*
X-28828Y-89720D01*
X-28827Y-89718D01*
X-28825Y-89717D01*
X-28776Y-89634D01*
X-28725Y-89550D01*
X-28725Y-89548D01*
X-28723Y-89546D01*
X-28696Y-89382D01*
X-28696Y-85728D01*
X-27803Y-84835D01*
X-15109Y-84835D01*
X-14216Y-85728D01*
X-14216Y-98422D01*
X-15109Y-99315D01*
X-27803Y-99315D01*
X-28696Y-98422D01*
X-28696Y-94768D01*
X-28696Y-94766D01*
X-28696Y-94764D01*
X-28716Y-94670D01*
X-28735Y-94573D01*
X-28737Y-94572D01*
X-28737Y-94570D01*
X-28793Y-94489D01*
X-28848Y-94409D01*
X-28850Y-94408D01*
X-28851Y-94407D01*
X-28934Y-94354D01*
X-29015Y-94302D01*
X-29018Y-94302D01*
X-29019Y-94301D01*
X-29115Y-94286D01*
X-29212Y-94269D01*
X-29214Y-94270D01*
X-29216Y-94269D01*
X-29310Y-94293D01*
X-29405Y-94315D01*
X-29407Y-94317D01*
X-29409Y-94317D01*
X-29488Y-94377D01*
X-29565Y-94433D01*
X-29566Y-94435D01*
X-29568Y-94436D01*
X-29656Y-94577D01*
X-30318Y-96176D01*
X-32355Y-98213D01*
X-35016Y-99315D01*
X-37896Y-99315D01*
G37*
%LPD*%
%LPC*%
G36*
X-98541Y136905D02*
X-98541Y136905D01*
X-101253Y139617D01*
X-101259Y139649D01*
X-101264Y139656D01*
X-101266Y139664D01*
X-101320Y139737D01*
X-101372Y139813D01*
X-101379Y139817D01*
X-101384Y139824D01*
X-101462Y139871D01*
X-101539Y139920D01*
X-101548Y139921D01*
X-101555Y139926D01*
X-101719Y139953D01*
X-130360Y139953D01*
X-130372Y139951D01*
X-130385Y139953D01*
X-130469Y139931D01*
X-130555Y139914D01*
X-130565Y139907D01*
X-130578Y139903D01*
X-130713Y139807D01*
X-133107Y137413D01*
X-136895Y137413D01*
X-139574Y140092D01*
X-139574Y143880D01*
X-136895Y146559D01*
X-135665Y146559D01*
X-135653Y146561D01*
X-135640Y146559D01*
X-135556Y146581D01*
X-135470Y146598D01*
X-135460Y146605D01*
X-135448Y146609D01*
X-135312Y146705D01*
X-134950Y147067D01*
X-97206Y147067D01*
X-96336Y146197D01*
X-96325Y146190D01*
X-96318Y146180D01*
X-96243Y146135D01*
X-96170Y146087D01*
X-96158Y146085D01*
X-96147Y146078D01*
X-95983Y146051D01*
X-94753Y146051D01*
X-92074Y143372D01*
X-92074Y139584D01*
X-94753Y136905D01*
X-98541Y136905D01*
G37*
%LPD*%
%LPC*%
G36*
X68315Y-96775D02*
X68315Y-96775D01*
X65785Y-94245D01*
X65785Y-90667D01*
X67417Y-89035D01*
X67424Y-89025D01*
X67434Y-89017D01*
X67479Y-88943D01*
X67527Y-88870D01*
X67529Y-88857D01*
X67536Y-88846D01*
X67563Y-88682D01*
X67563Y-62702D01*
X81641Y-48624D01*
X81643Y-48621D01*
X81646Y-48619D01*
X81651Y-48611D01*
X81658Y-48606D01*
X81703Y-48531D01*
X81751Y-48458D01*
X81752Y-48453D01*
X81753Y-48452D01*
X81754Y-48445D01*
X81760Y-48435D01*
X81787Y-48271D01*
X81787Y-45963D01*
X84317Y-43433D01*
X87895Y-43433D01*
X90425Y-45963D01*
X90425Y-49541D01*
X87895Y-52071D01*
X85587Y-52071D01*
X85575Y-52073D01*
X85562Y-52071D01*
X85478Y-52093D01*
X85392Y-52110D01*
X85382Y-52117D01*
X85370Y-52121D01*
X85234Y-52217D01*
X72791Y-64660D01*
X72784Y-64671D01*
X72774Y-64678D01*
X72729Y-64753D01*
X72681Y-64826D01*
X72679Y-64838D01*
X72672Y-64849D01*
X72645Y-65013D01*
X72645Y-88682D01*
X72647Y-88695D01*
X72645Y-88707D01*
X72667Y-88791D01*
X72684Y-88877D01*
X72691Y-88888D01*
X72695Y-88900D01*
X72791Y-89035D01*
X74423Y-90667D01*
X74423Y-94245D01*
X71893Y-96775D01*
X68315Y-96775D01*
G37*
%LPD*%
%LPC*%
G36*
X64941Y123471D02*
X64941Y123471D01*
X62130Y126282D01*
X62130Y128910D01*
X62128Y128922D01*
X62130Y128934D01*
X62108Y129019D01*
X62091Y129104D01*
X62084Y129115D01*
X62080Y129127D01*
X61984Y129263D01*
X61177Y130070D01*
X61173Y130072D01*
X61171Y130075D01*
X61091Y130126D01*
X61011Y130179D01*
X61007Y130180D01*
X61004Y130183D01*
X60910Y130198D01*
X60816Y130216D01*
X60812Y130215D01*
X60807Y130216D01*
X60716Y130194D01*
X60622Y130173D01*
X60618Y130171D01*
X60614Y130170D01*
X60538Y130114D01*
X60459Y130058D01*
X60457Y130054D01*
X60454Y130052D01*
X60405Y129970D01*
X60355Y129888D01*
X60355Y129884D01*
X60352Y129881D01*
X60325Y129717D01*
X60325Y129183D01*
X57967Y126825D01*
X43633Y126825D01*
X41275Y129183D01*
X41275Y137517D01*
X43633Y139875D01*
X57967Y139875D01*
X60325Y137517D01*
X60325Y136644D01*
X60326Y136636D01*
X60325Y136627D01*
X60346Y136539D01*
X60364Y136449D01*
X60369Y136442D01*
X60371Y136434D01*
X60425Y136361D01*
X60477Y136285D01*
X60484Y136281D01*
X60489Y136274D01*
X60567Y136227D01*
X60644Y136178D01*
X60653Y136177D01*
X60660Y136172D01*
X60824Y136145D01*
X63007Y136145D01*
X65936Y133215D01*
X65947Y133208D01*
X65954Y133198D01*
X66029Y133153D01*
X66102Y133105D01*
X66115Y133103D01*
X66125Y133096D01*
X66289Y133069D01*
X68917Y133069D01*
X71728Y130258D01*
X71728Y126282D01*
X68917Y123471D01*
X64941Y123471D01*
G37*
%LPD*%
%LPC*%
G36*
X-13248Y-183516D02*
X-13248Y-183516D01*
X-16843Y-182027D01*
X-19594Y-179276D01*
X-21083Y-175681D01*
X-21083Y-171791D01*
X-19594Y-168196D01*
X-16843Y-165445D01*
X-13248Y-163956D01*
X-9358Y-163956D01*
X-5763Y-165445D01*
X-3012Y-168196D01*
X-1523Y-171791D01*
X-1523Y-175681D01*
X-3012Y-179276D01*
X-5763Y-182027D01*
X-9358Y-183516D01*
X-13248Y-183516D01*
G37*
%LPD*%
%LPC*%
G36*
X4405Y148970D02*
X4405Y148970D01*
X810Y150459D01*
X-1941Y153210D01*
X-3430Y156805D01*
X-3430Y160695D01*
X-1941Y164290D01*
X810Y167041D01*
X4405Y168530D01*
X8295Y168530D01*
X11890Y167041D01*
X14641Y164290D01*
X16130Y160695D01*
X16130Y156805D01*
X14641Y153210D01*
X11890Y150459D01*
X8295Y148970D01*
X4405Y148970D01*
G37*
%LPD*%
%LPC*%
G36*
X-62793Y-28623D02*
X-62793Y-28623D01*
X-65151Y-26265D01*
X-65151Y-17931D01*
X-62793Y-15573D01*
X-48459Y-15573D01*
X-47805Y-16227D01*
X-47798Y-16231D01*
X-47794Y-16238D01*
X-47716Y-16286D01*
X-47640Y-16337D01*
X-47631Y-16338D01*
X-47624Y-16343D01*
X-47534Y-16356D01*
X-47444Y-16373D01*
X-47436Y-16371D01*
X-47428Y-16372D01*
X-47340Y-16350D01*
X-47250Y-16330D01*
X-47243Y-16325D01*
X-47235Y-16323D01*
X-47099Y-16227D01*
X-45604Y-14731D01*
X-42026Y-14731D01*
X-39496Y-17261D01*
X-39496Y-20839D01*
X-42026Y-23369D01*
X-44334Y-23369D01*
X-44346Y-23371D01*
X-44359Y-23369D01*
X-44443Y-23391D01*
X-44529Y-23408D01*
X-44539Y-23415D01*
X-44551Y-23419D01*
X-44687Y-23515D01*
X-45955Y-24783D01*
X-45962Y-24794D01*
X-45972Y-24801D01*
X-46016Y-24876D01*
X-46065Y-24949D01*
X-46067Y-24961D01*
X-46074Y-24972D01*
X-46101Y-25136D01*
X-46101Y-26265D01*
X-48459Y-28623D01*
X-62793Y-28623D01*
G37*
%LPD*%
%LPC*%
G36*
X-62920Y-10716D02*
X-62920Y-10716D01*
X-65278Y-8358D01*
X-65278Y-24D01*
X-62920Y2334D01*
X-60447Y2334D01*
X-60442Y2335D01*
X-60438Y2334D01*
X-60345Y2354D01*
X-60252Y2373D01*
X-60248Y2376D01*
X-60244Y2377D01*
X-60166Y2432D01*
X-60088Y2486D01*
X-60085Y2489D01*
X-60082Y2492D01*
X-60032Y2573D01*
X-59981Y2653D01*
X-59980Y2658D01*
X-59978Y2661D01*
X-59963Y2756D01*
X-59948Y2849D01*
X-59949Y2854D01*
X-59948Y2858D01*
X-59972Y2950D01*
X-59994Y3043D01*
X-59996Y3046D01*
X-59997Y3050D01*
X-60072Y3155D01*
X-60072Y6742D01*
X-57542Y9272D01*
X-53964Y9272D01*
X-51434Y6742D01*
X-51434Y3155D01*
X-51470Y3099D01*
X-51522Y3020D01*
X-51523Y3016D01*
X-51525Y3013D01*
X-51541Y2919D01*
X-51559Y2825D01*
X-51558Y2821D01*
X-51558Y2816D01*
X-51536Y2724D01*
X-51516Y2631D01*
X-51513Y2627D01*
X-51512Y2623D01*
X-51456Y2546D01*
X-51401Y2468D01*
X-51397Y2466D01*
X-51394Y2463D01*
X-51313Y2414D01*
X-51231Y2364D01*
X-51227Y2364D01*
X-51223Y2361D01*
X-51059Y2334D01*
X-48586Y2334D01*
X-46228Y-24D01*
X-46228Y-8358D01*
X-48586Y-10716D01*
X-62920Y-10716D01*
G37*
%LPD*%
%LPC*%
G36*
X155931Y27130D02*
X155931Y27130D01*
X152599Y28510D01*
X150049Y31060D01*
X148669Y34392D01*
X148669Y37998D01*
X150049Y41330D01*
X152599Y43880D01*
X155931Y45260D01*
X159537Y45260D01*
X162869Y43880D01*
X165419Y41330D01*
X166799Y37998D01*
X166799Y34392D01*
X165419Y31060D01*
X162869Y28510D01*
X159537Y27130D01*
X155931Y27130D01*
G37*
%LPD*%
%LPC*%
G36*
X155931Y52530D02*
X155931Y52530D01*
X152599Y53910D01*
X150049Y56460D01*
X148669Y59792D01*
X148669Y63398D01*
X150049Y66730D01*
X152599Y69280D01*
X155931Y70660D01*
X159537Y70660D01*
X162869Y69280D01*
X165419Y66730D01*
X166799Y63398D01*
X166799Y59792D01*
X165419Y56460D01*
X162869Y53910D01*
X159537Y52530D01*
X155931Y52530D01*
G37*
%LPD*%
%LPC*%
G36*
X188679Y14350D02*
X188679Y14350D01*
X186018Y15452D01*
X183981Y17489D01*
X182879Y20150D01*
X182879Y23030D01*
X183981Y25691D01*
X186018Y27728D01*
X187270Y28246D01*
X187279Y28252D01*
X187289Y28254D01*
X187361Y28307D01*
X187435Y28357D01*
X187441Y28366D01*
X187449Y28372D01*
X187494Y28449D01*
X187543Y28524D01*
X187545Y28534D01*
X187551Y28543D01*
X187578Y28707D01*
X187578Y31427D01*
X187576Y31439D01*
X187578Y31452D01*
X187556Y31536D01*
X187539Y31622D01*
X187532Y31632D01*
X187528Y31645D01*
X187432Y31780D01*
X185546Y33666D01*
X185546Y37454D01*
X188225Y40133D01*
X192013Y40133D01*
X194692Y37454D01*
X194692Y33666D01*
X192806Y31780D01*
X192799Y31770D01*
X192789Y31762D01*
X192744Y31687D01*
X192696Y31614D01*
X192694Y31602D01*
X192687Y31591D01*
X192660Y31427D01*
X192660Y28707D01*
X192662Y28697D01*
X192660Y28687D01*
X192682Y28600D01*
X192699Y28513D01*
X192705Y28504D01*
X192708Y28494D01*
X192761Y28422D01*
X192812Y28349D01*
X192821Y28343D01*
X192827Y28335D01*
X192968Y28246D01*
X194220Y27728D01*
X196257Y25691D01*
X197359Y23030D01*
X197359Y20150D01*
X196257Y17489D01*
X194220Y15452D01*
X191559Y14350D01*
X188679Y14350D01*
G37*
%LPD*%
%LPC*%
G36*
X198385Y-12193D02*
X198385Y-12193D01*
X195706Y-9514D01*
X195706Y-8117D01*
X195704Y-8105D01*
X195706Y-8092D01*
X195684Y-8008D01*
X195667Y-7922D01*
X195660Y-7912D01*
X195656Y-7900D01*
X195560Y-7764D01*
X193355Y-5559D01*
X193346Y-5554D01*
X193340Y-5545D01*
X193264Y-5499D01*
X193189Y-5450D01*
X193179Y-5448D01*
X193170Y-5442D01*
X193082Y-5430D01*
X192994Y-5413D01*
X192984Y-5415D01*
X192973Y-5414D01*
X192811Y-5451D01*
X191559Y-5970D01*
X188679Y-5970D01*
X186018Y-4868D01*
X183981Y-2831D01*
X182879Y-170D01*
X182879Y2710D01*
X183981Y5371D01*
X186018Y7408D01*
X188679Y8510D01*
X191559Y8510D01*
X194220Y7408D01*
X196257Y5371D01*
X197359Y2710D01*
X197359Y-170D01*
X196840Y-1422D01*
X196838Y-1432D01*
X196833Y-1441D01*
X196819Y-1530D01*
X196802Y-1617D01*
X196804Y-1628D01*
X196803Y-1638D01*
X196825Y-1724D01*
X196843Y-1812D01*
X196849Y-1820D01*
X196852Y-1831D01*
X196948Y-1966D01*
X197883Y-2901D01*
X197894Y-2908D01*
X197901Y-2918D01*
X197976Y-2963D01*
X198049Y-3011D01*
X198061Y-3013D01*
X198072Y-3020D01*
X198236Y-3047D01*
X202173Y-3047D01*
X204852Y-5726D01*
X204852Y-9514D01*
X202173Y-12193D01*
X198385Y-12193D01*
G37*
%LPD*%
%LPC*%
G36*
X133333Y87994D02*
X133333Y87994D01*
X133333Y97076D01*
X140208Y97076D01*
X140855Y96903D01*
X141434Y96568D01*
X141907Y96095D01*
X142242Y95516D01*
X142415Y94869D01*
X142415Y87994D01*
X133333Y87994D01*
G37*
%LPD*%
%LPC*%
G36*
X133333Y76914D02*
X133333Y76914D01*
X133333Y85996D01*
X142415Y85996D01*
X142415Y79121D01*
X142242Y78474D01*
X141907Y77895D01*
X141434Y77422D01*
X140855Y77087D01*
X140208Y76914D01*
X133333Y76914D01*
G37*
%LPD*%
%LPC*%
G36*
X122253Y87994D02*
X122253Y87994D01*
X122253Y94869D01*
X122426Y95516D01*
X122761Y96095D01*
X123234Y96568D01*
X123813Y96903D01*
X124460Y97076D01*
X131335Y97076D01*
X131335Y87994D01*
X122253Y87994D01*
G37*
%LPD*%
%LPC*%
G36*
X124460Y76914D02*
X124460Y76914D01*
X123813Y77087D01*
X123234Y77422D01*
X122761Y77895D01*
X122426Y78474D01*
X122253Y79121D01*
X122253Y85996D01*
X131335Y85996D01*
X131335Y76914D01*
X124460Y76914D01*
G37*
%LPD*%
%LPC*%
G36*
X-240823Y68190D02*
X-240823Y68190D01*
X-239362Y68843D01*
X-239333Y68863D01*
X-239288Y68883D01*
X-236640Y70647D01*
X-236615Y70672D01*
X-236575Y70699D01*
X-234258Y72880D01*
X-234238Y72909D01*
X-234202Y72942D01*
X-232281Y75479D01*
X-232266Y75511D01*
X-232237Y75550D01*
X-230766Y78371D01*
X-230756Y78405D01*
X-230733Y78449D01*
X-229754Y81476D01*
X-229750Y81511D01*
X-229735Y81557D01*
X-229274Y84706D01*
X-229276Y84741D01*
X-229269Y84789D01*
X-229339Y87970D01*
X-229347Y88005D01*
X-229348Y88053D01*
X-229518Y88937D01*
X-226894Y88937D01*
X-226693Y87421D01*
X-226689Y84530D01*
X-227063Y81663D01*
X-227808Y78870D01*
X-228911Y76198D01*
X-230354Y73692D01*
X-232111Y71397D01*
X-234152Y69350D01*
X-236444Y67587D01*
X-238946Y66139D01*
X-240823Y65359D01*
X-240823Y68190D01*
G37*
%LPD*%
%LPC*%
G36*
X-229518Y-97065D02*
X-229518Y-97065D01*
X-229348Y-96181D01*
X-229348Y-96146D01*
X-229339Y-96098D01*
X-229269Y-92917D01*
X-229275Y-92883D01*
X-229274Y-92834D01*
X-229735Y-89685D01*
X-229747Y-89652D01*
X-229754Y-89604D01*
X-230733Y-86577D01*
X-230751Y-86546D01*
X-230766Y-86499D01*
X-232237Y-83678D01*
X-232259Y-83651D01*
X-232281Y-83607D01*
X-234202Y-81070D01*
X-234228Y-81047D01*
X-234258Y-81008D01*
X-236575Y-78827D01*
X-236605Y-78809D01*
X-236640Y-78775D01*
X-239288Y-77011D01*
X-239321Y-76998D01*
X-239362Y-76971D01*
X-240823Y-76318D01*
X-240823Y-73493D01*
X-239223Y-74135D01*
X-237650Y-75013D01*
X-236775Y-75501D01*
X-235242Y-76633D01*
X-234520Y-77166D01*
X-232494Y-79102D01*
X-230729Y-81280D01*
X-229254Y-83664D01*
X-228092Y-86215D01*
X-227263Y-88893D01*
X-226780Y-91654D01*
X-226650Y-94454D01*
X-226860Y-97065D01*
X-229518Y-97065D01*
G37*
%LPD*%
%LPC*%
G36*
X-29822Y159749D02*
X-29822Y159749D01*
X-29580Y161278D01*
X-29055Y162894D01*
X-28283Y164408D01*
X-27285Y165783D01*
X-26083Y166985D01*
X-24708Y167983D01*
X-23194Y168755D01*
X-21578Y169280D01*
X-20049Y169522D01*
X-20049Y159749D01*
X-29822Y159749D01*
G37*
%LPD*%
%LPC*%
G36*
X-39231Y-184266D02*
X-39231Y-184266D01*
X-40847Y-183741D01*
X-42361Y-182969D01*
X-43736Y-181971D01*
X-44938Y-180769D01*
X-45936Y-179394D01*
X-46708Y-177880D01*
X-47233Y-176264D01*
X-47475Y-174735D01*
X-37702Y-174735D01*
X-37702Y-184508D01*
X-39231Y-184266D01*
G37*
%LPD*%
%LPC*%
G36*
X-18051Y159749D02*
X-18051Y159749D01*
X-18051Y169522D01*
X-16522Y169280D01*
X-14906Y168755D01*
X-13392Y167983D01*
X-12017Y166985D01*
X-10815Y165783D01*
X-9817Y164408D01*
X-9045Y162894D01*
X-8520Y161278D01*
X-8278Y159749D01*
X-18051Y159749D01*
G37*
%LPD*%
%LPC*%
G36*
X-47475Y-172737D02*
X-47475Y-172737D01*
X-47233Y-171208D01*
X-46708Y-169592D01*
X-45936Y-168078D01*
X-44938Y-166703D01*
X-43736Y-165501D01*
X-42361Y-164503D01*
X-40847Y-163731D01*
X-39231Y-163206D01*
X-37702Y-162964D01*
X-37702Y-172737D01*
X-47475Y-172737D01*
G37*
%LPD*%
%LPC*%
G36*
X-21578Y148220D02*
X-21578Y148220D01*
X-23194Y148745D01*
X-24708Y149517D01*
X-26083Y150515D01*
X-27285Y151717D01*
X-28283Y153092D01*
X-29055Y154606D01*
X-29580Y156222D01*
X-29822Y157751D01*
X-20049Y157751D01*
X-20049Y147978D01*
X-21578Y148220D01*
G37*
%LPD*%
%LPC*%
G36*
X-35704Y-174735D02*
X-35704Y-174735D01*
X-25931Y-174735D01*
X-26173Y-176264D01*
X-26698Y-177880D01*
X-27470Y-179394D01*
X-28468Y-180769D01*
X-29670Y-181971D01*
X-31045Y-182969D01*
X-32559Y-183741D01*
X-34175Y-184266D01*
X-35704Y-184508D01*
X-35704Y-174735D01*
G37*
%LPD*%
%LPC*%
G36*
X-18051Y157751D02*
X-18051Y157751D01*
X-8278Y157751D01*
X-8520Y156222D01*
X-9045Y154606D01*
X-9817Y153092D01*
X-10815Y151717D01*
X-12017Y150515D01*
X-13392Y149517D01*
X-14906Y148745D01*
X-16522Y148220D01*
X-18051Y147978D01*
X-18051Y157751D01*
G37*
%LPD*%
%LPC*%
G36*
X-35704Y-172737D02*
X-35704Y-172737D01*
X-35704Y-162964D01*
X-34175Y-163206D01*
X-32559Y-163731D01*
X-31045Y-164503D01*
X-29670Y-165501D01*
X-28468Y-166703D01*
X-27470Y-168078D01*
X-26698Y-169592D01*
X-26173Y-171208D01*
X-25931Y-172737D01*
X-35704Y-172737D01*
G37*
%LPD*%
%LPC*%
G36*
X37984Y-38482D02*
X37984Y-38482D01*
X35305Y-35803D01*
X35305Y-32015D01*
X37984Y-29336D01*
X41772Y-29336D01*
X44451Y-32015D01*
X44451Y-35803D01*
X41772Y-38482D01*
X37984Y-38482D01*
G37*
%LPD*%
%LPC*%
G36*
X133333Y37194D02*
X133333Y37194D01*
X133333Y46243D01*
X134695Y46028D01*
X136204Y45537D01*
X137617Y44817D01*
X138901Y43884D01*
X140023Y42762D01*
X140956Y41478D01*
X141676Y40065D01*
X142167Y38556D01*
X142382Y37194D01*
X133333Y37194D01*
G37*
%LPD*%
%LPC*%
G36*
X133333Y62594D02*
X133333Y62594D01*
X133333Y71643D01*
X134695Y71428D01*
X136204Y70937D01*
X137617Y70217D01*
X138901Y69284D01*
X140023Y68162D01*
X140956Y66878D01*
X141676Y65465D01*
X142167Y63956D01*
X142382Y62594D01*
X133333Y62594D01*
G37*
%LPD*%
%LPC*%
G36*
X133333Y-91804D02*
X133333Y-91804D01*
X142382Y-91804D01*
X142167Y-93166D01*
X141676Y-94675D01*
X140956Y-96088D01*
X140023Y-97372D01*
X138901Y-98494D01*
X137617Y-99427D01*
X136204Y-100147D01*
X134695Y-100638D01*
X133333Y-100853D01*
X133333Y-91804D01*
G37*
%LPD*%
%LPC*%
G36*
X133333Y35196D02*
X133333Y35196D01*
X142382Y35196D01*
X142167Y33834D01*
X141676Y32325D01*
X140956Y30912D01*
X140023Y29628D01*
X138901Y28506D01*
X137617Y27573D01*
X136204Y26853D01*
X134695Y26362D01*
X133333Y26147D01*
X133333Y35196D01*
G37*
%LPD*%
%LPC*%
G36*
X122286Y37194D02*
X122286Y37194D01*
X122501Y38556D01*
X122992Y40065D01*
X123712Y41478D01*
X124645Y42762D01*
X125767Y43884D01*
X127051Y44817D01*
X128464Y45537D01*
X129973Y46028D01*
X131335Y46243D01*
X131335Y37194D01*
X122286Y37194D01*
G37*
%LPD*%
%LPC*%
G36*
X133333Y60596D02*
X133333Y60596D01*
X142382Y60596D01*
X142167Y59234D01*
X141676Y57725D01*
X140956Y56312D01*
X140023Y55028D01*
X138901Y53906D01*
X137617Y52973D01*
X136204Y52253D01*
X134695Y51762D01*
X133333Y51547D01*
X133333Y60596D01*
G37*
%LPD*%
%LPC*%
G36*
X122286Y62594D02*
X122286Y62594D01*
X122501Y63956D01*
X122992Y65465D01*
X123712Y66878D01*
X124645Y68162D01*
X125767Y69284D01*
X127051Y70217D01*
X128464Y70937D01*
X129973Y71428D01*
X131335Y71643D01*
X131335Y62594D01*
X122286Y62594D01*
G37*
%LPD*%
%LPC*%
G36*
X129973Y-100638D02*
X129973Y-100638D01*
X128464Y-100147D01*
X127051Y-99427D01*
X125767Y-98494D01*
X124645Y-97372D01*
X123712Y-96088D01*
X122992Y-94675D01*
X122501Y-93166D01*
X122286Y-91804D01*
X131335Y-91804D01*
X131335Y-100853D01*
X129973Y-100638D01*
G37*
%LPD*%
%LPC*%
G36*
X129973Y26362D02*
X129973Y26362D01*
X128464Y26853D01*
X127051Y27573D01*
X125767Y28506D01*
X124645Y29628D01*
X123712Y30912D01*
X122992Y32325D01*
X122501Y33834D01*
X122286Y35196D01*
X131335Y35196D01*
X131335Y26147D01*
X129973Y26362D01*
G37*
%LPD*%
%LPC*%
G36*
X129973Y51762D02*
X129973Y51762D01*
X128464Y52253D01*
X127051Y52973D01*
X125767Y53906D01*
X124645Y55028D01*
X123712Y56312D01*
X122992Y57725D01*
X122501Y59234D01*
X122286Y60596D01*
X131335Y60596D01*
X131335Y51547D01*
X129973Y51762D01*
G37*
%LPD*%
%LPC*%
G36*
X-240823Y-111856D02*
X-240823Y-111856D01*
X-240128Y-111582D01*
X-240099Y-111563D01*
X-240053Y-111545D01*
X-237329Y-109900D01*
X-237304Y-109876D01*
X-237262Y-109851D01*
X-234851Y-107775D01*
X-234829Y-107747D01*
X-234792Y-107715D01*
X-232761Y-105266D01*
X-232744Y-105235D01*
X-232713Y-105197D01*
X-231119Y-102443D01*
X-231108Y-102410D01*
X-231083Y-102368D01*
X-229970Y-99387D01*
X-229965Y-99352D01*
X-229948Y-99306D01*
X-229901Y-99063D01*
X-227257Y-99063D01*
X-227452Y-99991D01*
X-228332Y-102523D01*
X-228372Y-102639D01*
X-229580Y-105067D01*
X-229580Y-105068D01*
X-229620Y-105149D01*
X-231136Y-107422D01*
X-231176Y-107481D01*
X-232976Y-109553D01*
X-233014Y-109597D01*
X-235105Y-111464D01*
X-237416Y-113051D01*
X-239909Y-114332D01*
X-240823Y-114664D01*
X-240823Y-111856D01*
G37*
%LPD*%
%LPC*%
G36*
X-229901Y90935D02*
X-229901Y90935D01*
X-229948Y91178D01*
X-229961Y91211D01*
X-229970Y91259D01*
X-231083Y94240D01*
X-231102Y94269D01*
X-231119Y94315D01*
X-232713Y97069D01*
X-232736Y97095D01*
X-232761Y97138D01*
X-234792Y99587D01*
X-234819Y99609D01*
X-234851Y99647D01*
X-237262Y101723D01*
X-237292Y101740D01*
X-237329Y101772D01*
X-240053Y103417D01*
X-240086Y103429D01*
X-240128Y103454D01*
X-240823Y103728D01*
X-240823Y106538D01*
X-238993Y105783D01*
X-237458Y104899D01*
X-236488Y104340D01*
X-234993Y103196D01*
X-234192Y102583D01*
X-232146Y100542D01*
X-230383Y98250D01*
X-228935Y95748D01*
X-227825Y93079D01*
X-227248Y90935D01*
X-229901Y90935D01*
G37*
%LPD*%
%LPC*%
G36*
X132333Y36194D02*
X132333Y36194D01*
X132333Y36196D01*
X132335Y36196D01*
X132335Y36194D01*
X132333Y36194D01*
G37*
%LPD*%
%LPC*%
G36*
X132333Y61594D02*
X132333Y61594D01*
X132333Y61596D01*
X132335Y61596D01*
X132335Y61594D01*
X132333Y61594D01*
G37*
%LPD*%
%LPC*%
G36*
X132333Y86994D02*
X132333Y86994D01*
X132333Y86996D01*
X132335Y86996D01*
X132335Y86994D01*
X132333Y86994D01*
G37*
%LPD*%
%LPC*%
G36*
X-19051Y158749D02*
X-19051Y158749D01*
X-19051Y158751D01*
X-19049Y158751D01*
X-19049Y158749D01*
X-19051Y158749D01*
G37*
%LPD*%
%LPC*%
G36*
X-36704Y-173737D02*
X-36704Y-173737D01*
X-36704Y-173735D01*
X-36702Y-173735D01*
X-36702Y-173737D01*
X-36704Y-173737D01*
G37*
%LPD*%
D10*
X-180594Y16383D03*
X-180594Y-44577D03*
X-180594Y-24257D03*
X-180594Y-3937D03*
D11*
X39497Y-173736D03*
D12*
X14097Y-173736D03*
X-11303Y-173736D03*
X-36703Y-173736D03*
D13*
X132334Y86995D03*
D14*
X157734Y86995D03*
X132334Y61595D03*
X157734Y61595D03*
X132334Y36195D03*
X157734Y36195D03*
X132334Y10795D03*
X157734Y10795D03*
X132334Y-14605D03*
X157734Y-14605D03*
X132334Y-40005D03*
X157734Y-40005D03*
X132334Y-65405D03*
X157734Y-65405D03*
X132334Y-90805D03*
X157734Y-90805D03*
D11*
X31750Y158750D03*
D12*
X6350Y158750D03*
X-19050Y158750D03*
D10*
X190119Y21590D03*
X190119Y1270D03*
X190119Y-39370D03*
X190119Y-19050D03*
D15*
X-21456Y-92075D03*
D10*
X-36456Y-92075D03*
D16*
X-241822Y89936D03*
X-394462Y180126D03*
X-394462Y-190794D03*
X-241822Y-98064D03*
X-241822Y-4064D03*
D17*
X-61126Y-19598D02*
X-50126Y-19598D01*
X-50126Y-24598D01*
X-61126Y-24598D01*
X-61126Y-19598D01*
X-61126Y-19848D02*
X-50126Y-19848D01*
X-50253Y-1691D02*
X-61253Y-1691D01*
X-50253Y-1691D02*
X-50253Y-6691D01*
X-61253Y-6691D01*
X-61253Y-1691D01*
X-61253Y-1941D02*
X-50253Y-1941D01*
X45300Y135850D02*
X56300Y135850D01*
X56300Y130850D01*
X45300Y130850D01*
X45300Y135850D01*
X45300Y135600D02*
X56300Y135600D01*
D18*
X-172339Y-3937D02*
X-180594Y-3937D01*
X-117221Y54864D02*
X-117221Y78740D01*
D19*
X-117221Y78740D03*
D18*
X-117221Y86360D01*
X-86741Y116840D01*
D19*
X78359Y116840D03*
D18*
X-86741Y116840D01*
X174879Y98806D02*
X174879Y-3810D01*
X174879Y98806D02*
X156845Y116840D01*
X78359Y116840D01*
X174879Y-3810D02*
X190119Y-19050D01*
D20*
X-134620Y14478D03*
D18*
X-153924Y14478D01*
X-172339Y-3937D01*
X-134620Y14478D02*
X-134620Y37465D01*
X-117221Y54864D01*
D19*
X-8001Y25400D03*
X-10541Y77470D03*
X68834Y0D03*
X74168Y-20193D03*
X26289Y-34290D03*
X-27051Y-55880D03*
D20*
X-204851Y-54610D03*
X-183261Y-96520D03*
X-108331Y26670D03*
D19*
X163449Y97917D03*
D21*
X155956Y105410D01*
X69469Y105410D01*
X66929Y102870D01*
D19*
X66929Y102870D03*
D22*
X61849Y133350D02*
X50800Y133350D01*
X61849Y133350D02*
X66929Y128270D01*
D23*
X66929Y128270D03*
D20*
X-134366Y-44069D03*
D21*
X-134874Y-44577D02*
X-180594Y-44577D01*
D24*
X-134874Y-44577D02*
X-134366Y-44069D01*
D20*
X-134747Y-24130D03*
D24*
X-134874Y-24257D01*
D21*
X-180594Y-24257D01*
D20*
X86106Y-47752D03*
D21*
X70104Y-63754D01*
X70104Y-92456D01*
D20*
X70104Y-92456D03*
X97409Y-48006D03*
D21*
X103505Y-54102D01*
X103505Y-92710D01*
D20*
X103505Y-92710D03*
D19*
X-135001Y141986D03*
D25*
X-98679Y143510D02*
X-96647Y141478D01*
X-98679Y143510D02*
X-133477Y143510D01*
X-135001Y141986D01*
D19*
X-96647Y141478D03*
X-46101Y63500D03*
D18*
X-65151Y63500D02*
X-90551Y63500D01*
X-101981Y74930D01*
X-101981Y87630D01*
D19*
X-101981Y87630D03*
X-56388Y-100965D03*
D18*
X-46101Y63500D02*
X-46101Y86360D01*
D19*
X106299Y85090D03*
D18*
X-32131Y100330D02*
X-46101Y86360D01*
X-32131Y100330D02*
X889Y100330D01*
X7239Y93980D01*
X97409Y93980D02*
X106299Y85090D01*
D19*
X-65151Y63500D03*
D18*
X-46101Y63500D01*
X7239Y93980D02*
X97409Y93980D01*
D19*
X39878Y-33909D03*
D20*
X-56261Y-45720D03*
D18*
X-56388Y-45847D01*
X-56388Y-100965D01*
D20*
X-14351Y-38100D03*
D21*
X14097Y-66548D02*
X14097Y-173736D01*
X14097Y-66548D02*
X-14351Y-38100D01*
D20*
X-14351Y-24130D03*
D21*
X39497Y-131318D02*
X39497Y-173736D01*
X39497Y-131318D02*
X26289Y-118110D01*
X26289Y-64770D01*
X-14351Y-24130D01*
X147574Y-90805D02*
X157734Y-90805D01*
X147574Y-90805D02*
X135255Y-78486D01*
X128524Y-78486D01*
X120269Y-70231D01*
X120269Y-63119D01*
X86741Y-29591D02*
X86741Y30988D01*
X66929Y50800D01*
X28829Y50800D01*
D20*
X889Y78740D03*
D21*
X86741Y-29591D02*
X120269Y-63119D01*
X28829Y50800D02*
X889Y78740D01*
X145669Y-1270D02*
X157734Y10795D01*
X145669Y-1270D02*
X120650Y-1270D01*
X114300Y5080D01*
X114300Y54229D01*
X90170Y78359D01*
X64897Y78359D01*
D20*
X64897Y78359D03*
X53975Y78486D03*
D21*
X60198Y72263D01*
X112903Y-14605D02*
X132334Y-14605D01*
X112903Y-14605D02*
X107569Y-9271D01*
X73272Y72263D02*
X60198Y72263D01*
X73272Y72263D02*
X107569Y37966D01*
X107569Y-9271D01*
D20*
X42926Y78486D03*
D21*
X54102Y67310D01*
X103378Y36703D02*
X103378Y-13088D01*
X145923Y-26416D02*
X157734Y-14605D01*
X72771Y67310D02*
X54102Y67310D01*
X72771Y67310D02*
X103378Y36703D01*
X103378Y-13088D02*
X116706Y-26416D01*
X145923Y-26416D01*
X99314Y35560D02*
X71374Y63500D01*
X49530Y63500D01*
X34290Y78740D01*
D20*
X34290Y78740D03*
D21*
X99314Y35560D02*
X99314Y-21336D01*
X117983Y-40005D02*
X132334Y-40005D01*
X117983Y-40005D02*
X99314Y-21336D01*
X117856Y-54737D02*
X147066Y-54737D01*
X117856Y-54737D02*
X91059Y-27940D01*
X68961Y54610D02*
X36449Y54610D01*
D20*
X12319Y78740D03*
D21*
X91059Y32512D02*
X91059Y-27940D01*
X91059Y32512D02*
X68961Y54610D01*
X147066Y-54737D02*
X157734Y-65405D01*
X36449Y54610D02*
X12319Y78740D01*
X89281Y85090D02*
X118110Y56261D01*
X89281Y85090D02*
X-16891Y85090D01*
X-21971Y80010D01*
X-21971Y53340D01*
X-28321Y46990D01*
D19*
X-28321Y46990D03*
D21*
X118110Y56261D02*
X118110Y25019D01*
X117983Y24892D01*
X117983Y14351D01*
X121539Y10795D01*
X132334Y10795D01*
D19*
X-54991Y74930D03*
X7239Y107950D03*
D21*
X-37211Y107950D01*
X-54991Y90170D02*
X-54991Y74930D01*
X-54991Y90170D02*
X-37211Y107950D01*
D20*
X23749Y78740D03*
D21*
X23749Y77470D01*
X41529Y59690D01*
X69723Y59690D01*
X95377Y34036D01*
X95377Y-25908D01*
X120523Y-51054D01*
X146685Y-51054D01*
X157734Y-40005D01*
D19*
X-15621Y-1270D03*
D21*
X54229Y-1270D01*
X63119Y-10160D01*
D19*
X190119Y35560D03*
D21*
X190119Y21590D01*
D20*
X62311Y-44831D03*
D21*
X63119Y-44023D01*
X63119Y-10160D01*
D19*
X-15621Y-11430D03*
D21*
X47879Y-11430D01*
X56769Y-20320D01*
D19*
X200279Y-7620D03*
D21*
X199009Y-7620D01*
X190119Y1270D01*
D20*
X56769Y-57023D03*
D21*
X56769Y-20320D01*
X-46863Y-22098D02*
X-55626Y-22098D01*
X-46863Y-22098D02*
X-43815Y-19050D01*
D20*
X-43815Y-19050D03*
D21*
X-55753Y-4191D02*
X-55753Y4953D01*
D20*
X-55753Y4953D03*
X-241935Y-42291D03*
D22*
X-241822Y-42178D02*
X-241822Y-4064D01*
D24*
X-241822Y-42178D02*
X-241935Y-42291D01*
M02*
