G04 EAGLE Gerber RS-274X export*
G75*
%MOMM*%
%FSLAX34Y34*%
%LPD*%
%INTop Copper*%
%IPPOS*%
%AMOC8*
5,1,8,0,0,1.08239X$1,22.5*%
G01*
%ADD10C,0.317500*%
%ADD11R,1.651000X1.651000*%
%ADD12C,1.651000*%
%ADD13R,2.032000X1.016000*%
%ADD14R,1.508000X1.508000*%
%ADD15C,1.508000*%
%ADD16C,0.499997*%
%ADD17C,0.124994*%
%ADD18R,5.699988X5.699988*%
%ADD19C,1.000000*%
%ADD20R,1.399997X0.400000*%
%ADD21C,0.609600*%
%ADD22C,0.304800*%
%ADD23C,0.254000*%
%ADD24C,0.558800*%
%ADD25C,0.203200*%
%ADD26C,0.654800*%
%ADD27C,0.152400*%

G36*
X-391872Y-197317D02*
X-391872Y-197317D01*
X-391840Y-197311D01*
X-391749Y-197305D01*
X-388960Y-196805D01*
X-388929Y-196794D01*
X-388840Y-196773D01*
X-386170Y-195825D01*
X-386141Y-195809D01*
X-386057Y-195774D01*
X-383577Y-194405D01*
X-383551Y-194385D01*
X-383473Y-194336D01*
X-381249Y-192581D01*
X-381227Y-192557D01*
X-381158Y-192497D01*
X-379249Y-190403D01*
X-379231Y-190376D01*
X-379173Y-190305D01*
X-377630Y-187929D01*
X-377617Y-187899D01*
X-377571Y-187820D01*
X-376435Y-185224D01*
X-376427Y-185192D01*
X-376395Y-185107D01*
X-375915Y-183221D01*
X-373256Y-183221D01*
X-373364Y-183902D01*
X-373878Y-185610D01*
X-374167Y-186569D01*
X-374981Y-188360D01*
X-375320Y-189103D01*
X-376432Y-190871D01*
X-376802Y-191460D01*
X-378588Y-193597D01*
X-379338Y-194282D01*
X-379348Y-194295D01*
X-379360Y-194304D01*
X-379406Y-194375D01*
X-379456Y-194443D01*
X-379459Y-194458D01*
X-379468Y-194471D01*
X-379482Y-194554D01*
X-379501Y-194636D01*
X-379498Y-194652D01*
X-379501Y-194667D01*
X-379481Y-194749D01*
X-379467Y-194832D01*
X-379458Y-194845D01*
X-379455Y-194861D01*
X-379405Y-194929D01*
X-379359Y-194999D01*
X-379346Y-195008D01*
X-379337Y-195021D01*
X-379264Y-195064D01*
X-379195Y-195111D01*
X-379179Y-195114D01*
X-379166Y-195122D01*
X-379002Y-195150D01*
X58608Y-195272D01*
X58611Y-195271D01*
X58615Y-195272D01*
X58708Y-195252D01*
X58802Y-195232D01*
X58806Y-195230D01*
X58810Y-195229D01*
X60046Y-195272D01*
X60054Y-195271D01*
X60064Y-195272D01*
X60194Y-195272D01*
X60201Y-195271D01*
X60209Y-195272D01*
X65820Y-195100D01*
X65858Y-195091D01*
X65917Y-195087D01*
X76965Y-192536D01*
X77006Y-192517D01*
X77087Y-192490D01*
X87099Y-187165D01*
X87133Y-187137D01*
X87205Y-187090D01*
X95497Y-179355D01*
X95523Y-179319D01*
X95580Y-179255D01*
X101588Y-169638D01*
X101603Y-169596D01*
X101642Y-169519D01*
X104956Y-158675D01*
X104960Y-158636D01*
X104975Y-158579D01*
X105542Y-152947D01*
X105540Y-152925D01*
X105544Y-152897D01*
X105544Y159047D01*
X105538Y159079D01*
X105539Y159122D01*
X104893Y163366D01*
X104879Y163403D01*
X104869Y163461D01*
X101895Y171677D01*
X101872Y171715D01*
X101835Y171792D01*
X96836Y178958D01*
X96803Y178990D01*
X96782Y179014D01*
X96766Y179036D01*
X96761Y179039D01*
X96748Y179055D01*
X90064Y184683D01*
X90025Y184704D01*
X89954Y184753D01*
X82042Y188460D01*
X81998Y188470D01*
X81918Y188499D01*
X73315Y190031D01*
X73276Y190030D01*
X73218Y190039D01*
X70041Y189975D01*
X70034Y189974D01*
X70026Y189975D01*
X69937Y189952D01*
X69875Y189938D01*
X68699Y189938D01*
X68681Y189934D01*
X68656Y189936D01*
X67542Y189841D01*
X67498Y189865D01*
X67420Y189911D01*
X67410Y189913D01*
X67403Y189916D01*
X67364Y189920D01*
X67256Y189939D01*
X-379180Y190061D01*
X-379199Y190057D01*
X-379218Y190059D01*
X-379296Y190037D01*
X-379375Y190021D01*
X-379391Y190010D01*
X-379410Y190005D01*
X-379472Y189954D01*
X-379539Y189909D01*
X-379549Y189892D01*
X-379564Y189880D01*
X-379603Y189809D01*
X-379646Y189741D01*
X-379649Y189722D01*
X-379658Y189705D01*
X-379666Y189624D01*
X-379679Y189545D01*
X-379675Y189526D01*
X-379676Y189507D01*
X-379652Y189430D01*
X-379633Y189351D01*
X-379622Y189336D01*
X-379616Y189317D01*
X-379527Y189207D01*
X-379515Y189191D01*
X-379513Y189190D01*
X-379511Y189188D01*
X-378941Y188682D01*
X-377139Y186590D01*
X-375634Y184275D01*
X-374454Y181780D01*
X-374065Y180554D01*
X-376771Y180554D01*
X-377866Y182959D01*
X-377884Y182986D01*
X-377927Y183067D01*
X-379489Y185396D01*
X-379511Y185420D01*
X-379566Y185493D01*
X-381486Y187537D01*
X-381512Y187557D01*
X-381578Y187620D01*
X-383805Y189324D01*
X-383834Y189339D01*
X-383910Y189391D01*
X-386385Y190710D01*
X-386416Y190720D01*
X-386499Y190759D01*
X-389155Y191658D01*
X-389187Y191663D01*
X-389276Y191688D01*
X-392043Y192142D01*
X-392075Y192142D01*
X-392166Y192152D01*
X-394971Y192150D01*
X-394990Y192147D01*
X-395009Y192149D01*
X-395111Y192127D01*
X-395213Y192110D01*
X-395231Y192101D01*
X-395250Y192097D01*
X-395339Y192044D01*
X-395431Y191995D01*
X-395444Y191981D01*
X-395461Y191971D01*
X-395528Y191892D01*
X-395600Y191817D01*
X-395608Y191799D01*
X-395621Y191784D01*
X-395660Y191687D01*
X-395703Y191593D01*
X-395705Y191574D01*
X-395713Y191556D01*
X-395731Y191389D01*
X-395731Y173101D01*
X-395721Y173038D01*
X-395721Y172975D01*
X-395701Y172918D01*
X-395692Y172858D01*
X-395662Y172802D01*
X-395641Y172742D01*
X-395605Y172694D01*
X-395576Y172641D01*
X-395530Y172597D01*
X-395492Y172547D01*
X-395422Y172494D01*
X-395398Y172472D01*
X-395382Y172464D01*
X-395358Y172446D01*
X-380118Y163429D01*
X-380106Y163424D01*
X-380096Y163417D01*
X-379991Y163380D01*
X-379889Y163339D01*
X-379876Y163339D01*
X-379864Y163335D01*
X-379753Y163333D01*
X-379643Y163328D01*
X-379631Y163331D01*
X-379618Y163331D01*
X-379513Y163365D01*
X-379406Y163395D01*
X-379396Y163402D01*
X-379384Y163406D01*
X-379294Y163472D01*
X-379203Y163534D01*
X-379196Y163544D01*
X-379186Y163552D01*
X-379082Y163684D01*
X-377609Y166070D01*
X-377596Y166100D01*
X-377552Y166180D01*
X-376486Y168774D01*
X-376479Y168806D01*
X-376449Y168892D01*
X-375819Y171625D01*
X-375817Y171657D01*
X-375801Y171748D01*
X-375624Y174546D01*
X-375628Y174579D01*
X-375627Y174671D01*
X-375908Y177461D01*
X-375916Y177492D01*
X-375930Y177583D01*
X-376193Y178556D01*
X-373516Y178556D01*
X-373146Y176429D01*
X-373041Y173670D01*
X-373307Y170923D01*
X-373940Y168236D01*
X-374928Y165657D01*
X-375246Y165076D01*
X-375748Y164158D01*
X-375749Y164154D01*
X-375752Y164151D01*
X-375779Y164059D01*
X-375807Y163968D01*
X-375807Y163964D01*
X-375808Y163961D01*
X-375797Y163866D01*
X-375787Y163770D01*
X-375785Y163767D01*
X-375785Y163763D01*
X-375737Y163679D01*
X-375691Y163596D01*
X-375688Y163593D01*
X-375687Y163590D01*
X-375558Y163485D01*
X-344991Y146013D01*
X-344907Y145985D01*
X-344825Y145954D01*
X-344813Y145954D01*
X-344802Y145951D01*
X-344715Y145958D01*
X-344627Y145961D01*
X-344616Y145966D01*
X-344604Y145967D01*
X-344526Y146008D01*
X-344446Y146045D01*
X-344437Y146054D01*
X-344428Y146059D01*
X-344401Y146092D01*
X-344331Y146165D01*
X-343848Y146872D01*
X-343819Y146941D01*
X-343783Y147007D01*
X-343780Y147035D01*
X-343771Y147055D01*
X-343771Y147099D01*
X-343762Y147172D01*
X-343762Y147180D01*
X-343320Y147656D01*
X-343303Y147683D01*
X-343273Y147714D01*
X-342907Y148251D01*
X-342899Y148252D01*
X-342830Y148280D01*
X-342758Y148302D01*
X-342735Y148319D01*
X-342715Y148327D01*
X-342684Y148358D01*
X-342626Y148403D01*
X-341013Y150139D01*
X-340973Y150204D01*
X-340928Y150263D01*
X-340920Y150290D01*
X-340909Y150309D01*
X-340903Y150353D01*
X-340882Y150423D01*
X-340881Y150431D01*
X-340373Y150836D01*
X-340358Y150854D01*
X-340349Y150860D01*
X-340346Y150865D01*
X-340319Y150886D01*
X-339877Y151362D01*
X-339868Y151363D01*
X-339795Y151380D01*
X-339721Y151390D01*
X-339697Y151404D01*
X-339675Y151409D01*
X-339640Y151436D01*
X-339576Y151471D01*
X-337722Y152948D01*
X-337674Y153005D01*
X-337620Y153057D01*
X-337608Y153083D01*
X-337594Y153100D01*
X-337581Y153142D01*
X-337551Y153209D01*
X-337549Y153216D01*
X-336986Y153541D01*
X-336962Y153562D01*
X-336924Y153583D01*
X-336416Y153988D01*
X-336408Y153987D01*
X-336333Y153993D01*
X-336258Y153992D01*
X-336232Y154002D01*
X-336210Y154004D01*
X-336171Y154025D01*
X-336102Y154050D01*
X-334049Y155234D01*
X-333993Y155284D01*
X-333932Y155327D01*
X-333917Y155351D01*
X-333900Y155366D01*
X-333881Y155405D01*
X-333841Y155467D01*
X-333838Y155474D01*
X-333233Y155711D01*
X-333206Y155728D01*
X-333166Y155743D01*
X-332603Y156068D01*
X-332595Y156066D01*
X-332520Y156061D01*
X-332446Y156049D01*
X-332419Y156055D01*
X-332397Y156053D01*
X-332355Y156068D01*
X-332284Y156083D01*
X-330077Y156947D01*
X-330014Y156988D01*
X-329947Y157022D01*
X-329928Y157043D01*
X-329910Y157055D01*
X-329885Y157092D01*
X-329836Y157146D01*
X-329832Y157153D01*
X-329199Y157297D01*
X-329170Y157311D01*
X-329127Y157319D01*
X-328523Y157556D01*
X-328515Y157553D01*
X-328442Y157537D01*
X-328371Y157514D01*
X-328342Y157516D01*
X-328321Y157511D01*
X-328278Y157520D01*
X-328204Y157524D01*
X-325893Y158050D01*
X-325825Y158081D01*
X-325754Y158105D01*
X-325732Y158123D01*
X-325712Y158132D01*
X-325682Y158164D01*
X-325626Y158211D01*
X-325621Y158217D01*
X-324973Y158265D01*
X-324942Y158274D01*
X-324899Y158276D01*
X-324266Y158420D01*
X-324259Y158416D01*
X-324189Y158389D01*
X-324122Y158356D01*
X-324094Y158353D01*
X-324073Y158346D01*
X-324029Y158347D01*
X-323956Y158341D01*
X-321592Y158516D01*
X-321520Y158537D01*
X-321446Y158550D01*
X-321422Y158564D01*
X-321401Y158570D01*
X-321367Y158598D01*
X-321304Y158636D01*
X-321298Y158641D01*
X-320650Y158592D01*
X-320619Y158596D01*
X-320576Y158592D01*
X-319928Y158640D01*
X-319922Y158635D01*
X-319856Y158598D01*
X-319795Y158555D01*
X-319768Y158548D01*
X-319748Y158538D01*
X-319705Y158533D01*
X-319633Y158515D01*
X-317270Y158337D01*
X-317196Y158346D01*
X-317121Y158348D01*
X-317095Y158359D01*
X-317073Y158361D01*
X-317035Y158383D01*
X-316967Y158411D01*
X-316960Y158416D01*
X-316327Y158271D01*
X-316295Y158270D01*
X-316253Y158260D01*
X-315606Y158211D01*
X-315600Y158205D01*
X-315541Y158159D01*
X-315487Y158107D01*
X-315461Y158096D01*
X-315443Y158083D01*
X-315401Y158071D01*
X-315333Y158043D01*
X-313023Y157515D01*
X-312948Y157513D01*
X-312873Y157503D01*
X-312846Y157510D01*
X-312824Y157510D01*
X-312783Y157526D01*
X-312712Y157544D01*
X-312705Y157547D01*
X-312100Y157309D01*
X-312069Y157304D01*
X-312029Y157287D01*
X-311396Y157142D01*
X-311391Y157135D01*
X-311340Y157081D01*
X-311294Y157022D01*
X-311269Y157007D01*
X-311254Y156991D01*
X-311214Y156974D01*
X-311151Y156936D01*
X-308945Y156069D01*
X-308872Y156056D01*
X-308799Y156036D01*
X-308771Y156038D01*
X-308749Y156034D01*
X-308707Y156044D01*
X-308634Y156051D01*
X-308626Y156053D01*
X-308063Y155728D01*
X-308033Y155718D01*
X-307996Y155696D01*
X-307392Y155458D01*
X-307389Y155451D01*
X-307346Y155389D01*
X-307309Y155324D01*
X-307287Y155306D01*
X-307274Y155288D01*
X-307237Y155264D01*
X-307181Y155218D01*
X-305129Y154031D01*
X-305058Y154008D01*
X-304989Y153977D01*
X-304961Y153975D01*
X-304940Y153968D01*
X-304896Y153972D01*
X-304823Y153967D01*
X-304815Y153968D01*
X-304308Y153563D01*
X-304280Y153549D01*
X-304246Y153521D01*
X-303684Y153196D01*
X-303682Y153188D01*
X-303648Y153121D01*
X-303622Y153051D01*
X-303603Y153030D01*
X-303593Y153010D01*
X-303560Y152981D01*
X-303511Y152927D01*
X-301659Y151448D01*
X-301592Y151414D01*
X-301529Y151373D01*
X-301501Y151367D01*
X-301482Y151357D01*
X-301438Y151354D01*
X-301366Y151339D01*
X-301358Y151339D01*
X-300917Y150863D01*
X-300901Y150851D01*
X-300890Y150837D01*
X-300878Y150830D01*
X-300862Y150812D01*
X-300354Y150406D01*
X-300353Y150398D01*
X-300330Y150327D01*
X-300315Y150254D01*
X-300299Y150230D01*
X-300292Y150209D01*
X-300264Y150176D01*
X-300224Y150115D01*
X-298612Y148376D01*
X-298552Y148332D01*
X-298495Y148283D01*
X-298469Y148273D01*
X-298451Y148260D01*
X-298408Y148250D01*
X-298399Y148247D01*
X-298386Y148239D01*
X-298371Y148237D01*
X-298339Y148225D01*
X-298331Y148224D01*
X-297966Y147687D01*
X-297943Y147665D01*
X-297919Y147628D01*
X-297478Y147152D01*
X-297478Y147144D01*
X-297466Y147070D01*
X-297461Y146995D01*
X-297450Y146969D01*
X-297446Y146948D01*
X-297422Y146910D01*
X-297392Y146844D01*
X-296058Y144885D01*
X-296004Y144832D01*
X-295956Y144775D01*
X-295931Y144761D01*
X-295916Y144746D01*
X-295874Y144730D01*
X-295810Y144695D01*
X-295803Y144692D01*
X-295521Y144107D01*
X-295502Y144081D01*
X-295484Y144042D01*
X-295119Y143505D01*
X-295120Y143497D01*
X-295119Y143422D01*
X-295126Y143347D01*
X-295118Y143320D01*
X-295118Y143298D01*
X-295100Y143258D01*
X-295080Y143188D01*
X-294052Y141052D01*
X-294007Y140992D01*
X-293968Y140928D01*
X-293946Y140911D01*
X-293932Y140893D01*
X-293894Y140871D01*
X-293836Y140827D01*
X-293829Y140823D01*
X-293638Y140202D01*
X-293623Y140174D01*
X-293611Y140133D01*
X-293329Y139547D01*
X-293332Y139540D01*
X-293342Y139465D01*
X-293360Y139392D01*
X-293356Y139364D01*
X-293359Y139343D01*
X-293347Y139300D01*
X-293338Y139228D01*
X-292641Y136962D01*
X-292605Y136896D01*
X-292576Y136827D01*
X-292556Y136807D01*
X-292545Y136788D01*
X-292511Y136760D01*
X-292460Y136708D01*
X-292454Y136703D01*
X-292357Y136061D01*
X-292346Y136031D01*
X-292341Y135988D01*
X-292150Y135367D01*
X-292153Y135360D01*
X-292175Y135288D01*
X-292203Y135218D01*
X-292203Y135190D01*
X-292210Y135169D01*
X-292204Y135125D01*
X-292206Y135052D01*
X-291854Y132708D01*
X-291828Y132638D01*
X-291810Y132565D01*
X-291793Y132542D01*
X-291786Y132521D01*
X-291756Y132489D01*
X-291714Y132429D01*
X-291708Y132424D01*
X-291708Y131774D01*
X-291702Y131743D01*
X-291703Y131700D01*
X-291606Y131057D01*
X-291611Y131051D01*
X-291643Y130983D01*
X-291681Y130919D01*
X-291686Y130891D01*
X-291695Y130871D01*
X-291697Y130827D01*
X-291709Y130755D01*
X-291710Y128384D01*
X-291695Y128311D01*
X-291688Y128236D01*
X-291675Y128211D01*
X-291671Y128190D01*
X-291646Y128153D01*
X-291613Y128088D01*
X-291608Y128081D01*
X-291705Y127439D01*
X-291704Y127407D01*
X-291711Y127365D01*
X-291711Y126715D01*
X-291717Y126709D01*
X-291758Y126647D01*
X-291806Y126589D01*
X-291815Y126562D01*
X-291827Y126544D01*
X-291835Y126500D01*
X-291858Y126431D01*
X-292212Y124088D01*
X-292209Y124013D01*
X-292212Y123938D01*
X-292204Y123911D01*
X-292202Y123889D01*
X-292183Y123849D01*
X-292160Y123780D01*
X-292157Y123773D01*
X-292348Y123152D01*
X-292352Y123120D01*
X-292365Y123079D01*
X-292462Y122437D01*
X-292469Y122432D01*
X-292519Y122377D01*
X-292575Y122326D01*
X-292587Y122301D01*
X-292602Y122285D01*
X-292617Y122243D01*
X-292650Y122178D01*
X-293350Y119913D01*
X-293357Y119839D01*
X-293372Y119765D01*
X-293367Y119739D01*
X-293367Y119738D01*
X-293367Y119737D01*
X-293369Y119716D01*
X-293356Y119674D01*
X-293344Y119601D01*
X-293341Y119594D01*
X-293623Y119009D01*
X-293631Y118978D01*
X-293651Y118939D01*
X-293842Y118319D01*
X-293850Y118315D01*
X-293908Y118267D01*
X-293970Y118226D01*
X-293986Y118203D01*
X-294004Y118189D01*
X-294024Y118150D01*
X-294066Y118090D01*
X-294312Y117580D01*
X-294335Y117492D01*
X-294360Y117406D01*
X-294359Y117396D01*
X-294361Y117387D01*
X-294348Y117298D01*
X-294337Y117208D01*
X-294333Y117200D01*
X-294331Y117191D01*
X-294284Y117114D01*
X-294239Y117035D01*
X-294231Y117029D01*
X-294227Y117022D01*
X-294195Y116999D01*
X-294110Y116930D01*
X-262507Y98866D01*
X-262437Y98842D01*
X-262368Y98812D01*
X-262343Y98811D01*
X-262319Y98803D01*
X-262244Y98809D01*
X-262169Y98808D01*
X-262146Y98817D01*
X-262120Y98820D01*
X-262054Y98854D01*
X-261985Y98882D01*
X-261964Y98902D01*
X-261944Y98912D01*
X-261916Y98946D01*
X-261863Y98996D01*
X-260928Y100218D01*
X-260589Y100661D01*
X-258547Y102707D01*
X-256256Y104470D01*
X-253754Y105918D01*
X-251084Y107028D01*
X-248292Y107779D01*
X-245427Y108160D01*
X-242536Y108164D01*
X-239669Y107790D01*
X-238031Y107353D01*
X-238031Y104676D01*
X-238298Y104781D01*
X-238332Y104787D01*
X-238378Y104805D01*
X-241491Y105463D01*
X-241526Y105463D01*
X-241574Y105473D01*
X-244753Y105603D01*
X-244788Y105597D01*
X-244837Y105599D01*
X-247993Y105196D01*
X-248026Y105185D01*
X-248075Y105179D01*
X-251120Y104256D01*
X-251151Y104239D01*
X-251198Y104225D01*
X-254046Y102806D01*
X-254074Y102785D01*
X-254117Y102763D01*
X-256690Y100890D01*
X-256713Y100864D01*
X-256753Y100835D01*
X-258976Y98559D01*
X-258995Y98529D01*
X-259029Y98494D01*
X-260842Y95879D01*
X-260854Y95852D01*
X-260873Y95830D01*
X-260893Y95762D01*
X-260921Y95697D01*
X-260921Y95667D01*
X-260929Y95639D01*
X-260921Y95569D01*
X-260922Y95498D01*
X-260910Y95471D01*
X-260907Y95441D01*
X-260872Y95380D01*
X-260845Y95314D01*
X-260824Y95294D01*
X-260809Y95268D01*
X-260734Y95206D01*
X-260703Y95176D01*
X-260692Y95171D01*
X-260681Y95162D01*
X-244431Y85806D01*
X-244431Y67095D01*
X-244425Y67066D01*
X-244428Y67036D01*
X-244406Y66969D01*
X-244392Y66900D01*
X-244375Y66876D01*
X-244366Y66847D01*
X-244319Y66794D01*
X-244279Y66736D01*
X-244254Y66720D01*
X-244234Y66698D01*
X-244171Y66667D01*
X-244112Y66629D01*
X-244082Y66624D01*
X-244055Y66611D01*
X-243958Y66603D01*
X-243915Y66596D01*
X-243904Y66599D01*
X-243890Y66598D01*
X-240719Y66868D01*
X-240686Y66878D01*
X-240637Y66882D01*
X-238031Y67554D01*
X-238031Y64864D01*
X-239617Y64437D01*
X-241565Y64178D01*
X-241636Y64153D01*
X-241709Y64136D01*
X-241729Y64121D01*
X-241753Y64113D01*
X-241809Y64063D01*
X-241869Y64018D01*
X-241882Y63997D01*
X-241900Y63980D01*
X-241932Y63912D01*
X-241971Y63847D01*
X-241975Y63820D01*
X-241984Y63800D01*
X-241986Y63756D01*
X-241998Y63683D01*
X-241998Y27444D01*
X-241980Y27356D01*
X-241966Y27268D01*
X-241961Y27259D01*
X-241959Y27249D01*
X-241908Y27175D01*
X-241861Y27100D01*
X-241852Y27094D01*
X-241846Y27085D01*
X-241771Y27037D01*
X-241698Y26986D01*
X-241687Y26983D01*
X-241679Y26978D01*
X-241639Y26971D01*
X-241536Y26946D01*
X-240585Y26875D01*
X-240510Y26884D01*
X-240435Y26886D01*
X-240409Y26897D01*
X-240387Y26899D01*
X-240349Y26922D01*
X-240322Y26933D01*
X-240319Y26934D01*
X-240318Y26935D01*
X-240282Y26950D01*
X-240275Y26954D01*
X-239642Y26809D01*
X-239610Y26809D01*
X-239568Y26798D01*
X-238920Y26750D01*
X-238915Y26744D01*
X-238856Y26698D01*
X-238801Y26646D01*
X-238775Y26635D01*
X-238758Y26622D01*
X-238715Y26611D01*
X-238648Y26583D01*
X-236333Y26054D01*
X-236258Y26052D01*
X-236183Y26043D01*
X-236156Y26050D01*
X-236134Y26049D01*
X-236093Y26066D01*
X-236022Y26083D01*
X-236015Y26087D01*
X-235410Y25849D01*
X-235379Y25844D01*
X-235339Y25827D01*
X-234705Y25683D01*
X-234701Y25676D01*
X-234649Y25622D01*
X-234603Y25563D01*
X-234579Y25548D01*
X-234564Y25532D01*
X-234523Y25514D01*
X-234461Y25477D01*
X-232251Y24609D01*
X-232177Y24596D01*
X-232105Y24576D01*
X-232076Y24579D01*
X-232055Y24575D01*
X-232012Y24585D01*
X-231939Y24592D01*
X-231931Y24594D01*
X-231369Y24269D01*
X-231338Y24259D01*
X-231301Y24237D01*
X-230697Y24000D01*
X-230693Y23992D01*
X-230650Y23931D01*
X-230614Y23865D01*
X-230592Y23847D01*
X-230579Y23829D01*
X-230542Y23806D01*
X-230485Y23759D01*
X-228429Y22572D01*
X-228358Y22548D01*
X-228290Y22518D01*
X-228262Y22516D01*
X-228241Y22509D01*
X-228197Y22512D01*
X-228124Y22508D01*
X-228116Y22509D01*
X-227608Y22104D01*
X-227580Y22090D01*
X-227546Y22062D01*
X-226984Y21738D01*
X-226982Y21730D01*
X-226965Y21696D01*
X-226964Y21691D01*
X-226960Y21687D01*
X-226948Y21663D01*
X-226922Y21593D01*
X-226903Y21572D01*
X-226893Y21552D01*
X-226859Y21523D01*
X-226811Y21469D01*
X-224954Y19988D01*
X-224887Y19954D01*
X-224825Y19914D01*
X-224797Y19908D01*
X-224777Y19898D01*
X-224733Y19895D01*
X-224662Y19880D01*
X-224653Y19879D01*
X-224212Y19403D01*
X-224186Y19385D01*
X-224157Y19352D01*
X-223649Y18947D01*
X-223648Y18939D01*
X-223625Y18868D01*
X-223609Y18795D01*
X-223594Y18771D01*
X-223587Y18750D01*
X-223558Y18717D01*
X-223518Y18656D01*
X-221903Y16915D01*
X-221842Y16872D01*
X-221786Y16822D01*
X-221760Y16812D01*
X-221742Y16799D01*
X-221699Y16790D01*
X-221630Y16764D01*
X-221622Y16763D01*
X-221256Y16226D01*
X-221233Y16204D01*
X-221210Y16168D01*
X-220768Y15692D01*
X-220768Y15683D01*
X-220756Y15610D01*
X-220751Y15535D01*
X-220739Y15509D01*
X-220736Y15487D01*
X-220712Y15450D01*
X-220682Y15384D01*
X-219344Y13422D01*
X-219291Y13369D01*
X-219242Y13312D01*
X-219218Y13298D01*
X-219202Y13283D01*
X-219161Y13267D01*
X-219097Y13232D01*
X-219089Y13229D01*
X-218807Y12644D01*
X-218788Y12619D01*
X-218770Y12579D01*
X-218404Y12043D01*
X-218405Y12035D01*
X-218404Y11960D01*
X-218411Y11885D01*
X-218403Y11858D01*
X-218403Y11836D01*
X-218385Y11795D01*
X-218365Y11725D01*
X-217335Y9586D01*
X-217289Y9526D01*
X-217250Y9462D01*
X-217228Y9445D01*
X-217214Y9428D01*
X-217176Y9406D01*
X-217118Y9361D01*
X-217111Y9357D01*
X-216919Y8737D01*
X-216908Y8715D01*
X-216907Y8711D01*
X-216904Y8707D01*
X-216892Y8667D01*
X-216610Y8082D01*
X-216613Y8074D01*
X-216623Y8000D01*
X-216641Y7927D01*
X-216637Y7899D01*
X-216640Y7877D01*
X-216628Y7835D01*
X-216619Y7762D01*
X-215919Y5494D01*
X-215883Y5428D01*
X-215854Y5359D01*
X-215834Y5338D01*
X-215824Y5319D01*
X-215789Y5292D01*
X-215738Y5239D01*
X-215732Y5234D01*
X-215635Y4592D01*
X-215624Y4562D01*
X-215618Y4519D01*
X-215427Y3898D01*
X-215431Y3891D01*
X-215452Y3819D01*
X-215480Y3750D01*
X-215481Y3722D01*
X-215487Y3701D01*
X-215482Y3657D01*
X-215483Y3584D01*
X-215129Y1236D01*
X-215103Y1165D01*
X-215085Y1093D01*
X-215069Y1070D01*
X-215061Y1049D01*
X-215031Y1017D01*
X-214989Y957D01*
X-214983Y951D01*
X-214983Y302D01*
X-214976Y271D01*
X-214977Y227D01*
X-214880Y-415D01*
X-214885Y-421D01*
X-214917Y-489D01*
X-214955Y-554D01*
X-214960Y-582D01*
X-214969Y-602D01*
X-214971Y-646D01*
X-214983Y-718D01*
X-214983Y-3092D01*
X-214968Y-3166D01*
X-214960Y-3240D01*
X-214948Y-3265D01*
X-214943Y-3287D01*
X-214918Y-3323D01*
X-214885Y-3389D01*
X-214880Y-3395D01*
X-214977Y-4037D01*
X-214976Y-4069D01*
X-214983Y-4112D01*
X-214983Y-4761D01*
X-214989Y-4767D01*
X-215030Y-4830D01*
X-215077Y-4888D01*
X-215086Y-4915D01*
X-215098Y-4933D01*
X-215106Y-4976D01*
X-215129Y-5046D01*
X-215483Y-7394D01*
X-215479Y-7469D01*
X-215483Y-7543D01*
X-215474Y-7570D01*
X-215473Y-7592D01*
X-215454Y-7632D01*
X-215431Y-7701D01*
X-215427Y-7708D01*
X-215618Y-8329D01*
X-215622Y-8361D01*
X-215635Y-8402D01*
X-215732Y-9044D01*
X-215738Y-9049D01*
X-215789Y-9105D01*
X-215844Y-9155D01*
X-215857Y-9180D01*
X-215872Y-9197D01*
X-215886Y-9238D01*
X-215919Y-9304D01*
X-216619Y-11572D01*
X-216626Y-11647D01*
X-216641Y-11720D01*
X-216636Y-11748D01*
X-216638Y-11770D01*
X-216625Y-11812D01*
X-216613Y-11884D01*
X-216610Y-11892D01*
X-216892Y-12477D01*
X-216900Y-12508D01*
X-216919Y-12547D01*
X-217111Y-13167D01*
X-217118Y-13171D01*
X-217176Y-13219D01*
X-217238Y-13260D01*
X-217255Y-13283D01*
X-217272Y-13297D01*
X-217292Y-13336D01*
X-217335Y-13396D01*
X-218365Y-15535D01*
X-218383Y-15608D01*
X-218409Y-15678D01*
X-218408Y-15707D01*
X-218414Y-15728D01*
X-218407Y-15772D01*
X-218405Y-15845D01*
X-218404Y-15853D01*
X-218770Y-16389D01*
X-218782Y-16419D01*
X-218807Y-16454D01*
X-219089Y-17039D01*
X-219097Y-17042D01*
X-219161Y-17080D01*
X-219229Y-17112D01*
X-219248Y-17132D01*
X-219267Y-17143D01*
X-219294Y-17179D01*
X-219302Y-17188D01*
X-219309Y-17192D01*
X-219313Y-17199D01*
X-219344Y-17232D01*
X-220682Y-19194D01*
X-220711Y-19263D01*
X-220747Y-19329D01*
X-220750Y-19356D01*
X-220759Y-19377D01*
X-220759Y-19421D01*
X-220768Y-19493D01*
X-220768Y-19502D01*
X-221210Y-19978D01*
X-221226Y-20005D01*
X-221256Y-20036D01*
X-221622Y-20573D01*
X-221630Y-20574D01*
X-221699Y-20603D01*
X-221771Y-20624D01*
X-221794Y-20641D01*
X-221814Y-20649D01*
X-221845Y-20681D01*
X-221903Y-20725D01*
X-223518Y-22466D01*
X-223557Y-22530D01*
X-223602Y-22590D01*
X-223610Y-22617D01*
X-223622Y-22636D01*
X-223628Y-22679D01*
X-223648Y-22750D01*
X-223649Y-22758D01*
X-224157Y-23162D01*
X-224172Y-23180D01*
X-224176Y-23183D01*
X-224180Y-23189D01*
X-224212Y-23213D01*
X-224653Y-23689D01*
X-224662Y-23690D01*
X-224735Y-23707D01*
X-224809Y-23718D01*
X-224833Y-23731D01*
X-224855Y-23737D01*
X-224890Y-23763D01*
X-224954Y-23798D01*
X-226811Y-25279D01*
X-226859Y-25336D01*
X-226912Y-25388D01*
X-226924Y-25414D01*
X-226938Y-25431D01*
X-226951Y-25473D01*
X-226982Y-25540D01*
X-226984Y-25548D01*
X-227546Y-25872D01*
X-227570Y-25894D01*
X-227608Y-25914D01*
X-228116Y-26319D01*
X-228124Y-26318D01*
X-228198Y-26325D01*
X-228273Y-26324D01*
X-228300Y-26334D01*
X-228322Y-26336D01*
X-228361Y-26357D01*
X-228429Y-26382D01*
X-230485Y-27569D01*
X-230542Y-27619D01*
X-230602Y-27663D01*
X-230618Y-27686D01*
X-230634Y-27701D01*
X-230653Y-27741D01*
X-230693Y-27802D01*
X-230697Y-27810D01*
X-231301Y-28047D01*
X-231323Y-28061D01*
X-231333Y-28063D01*
X-231343Y-28070D01*
X-231369Y-28079D01*
X-231931Y-28404D01*
X-231986Y-28453D01*
X-232046Y-28495D01*
X-232060Y-28518D01*
X-232080Y-28536D01*
X-232112Y-28602D01*
X-232150Y-28664D01*
X-232154Y-28691D01*
X-232166Y-28715D01*
X-232169Y-28789D01*
X-232180Y-28861D01*
X-232173Y-28887D01*
X-232175Y-28914D01*
X-232149Y-28983D01*
X-232131Y-29054D01*
X-232113Y-29078D01*
X-232105Y-29100D01*
X-232075Y-29132D01*
X-232034Y-29189D01*
X-193692Y-67532D01*
X-193682Y-67539D01*
X-193674Y-67549D01*
X-193599Y-67593D01*
X-193526Y-67641D01*
X-193514Y-67644D01*
X-193503Y-67650D01*
X-193339Y-67678D01*
X-124059Y-67678D01*
X-124047Y-67675D01*
X-124034Y-67677D01*
X-123950Y-67656D01*
X-123864Y-67638D01*
X-123854Y-67631D01*
X-123841Y-67628D01*
X-123706Y-67532D01*
X-119384Y-63210D01*
X-119382Y-63206D01*
X-119379Y-63204D01*
X-119327Y-63124D01*
X-119275Y-63044D01*
X-119274Y-63040D01*
X-119272Y-63037D01*
X-119256Y-62943D01*
X-119238Y-62849D01*
X-119239Y-62845D01*
X-119238Y-62840D01*
X-119260Y-62749D01*
X-119281Y-62655D01*
X-119283Y-62651D01*
X-119284Y-62647D01*
X-119340Y-62571D01*
X-119396Y-62492D01*
X-119400Y-62490D01*
X-119402Y-62487D01*
X-119484Y-62438D01*
X-119566Y-62388D01*
X-119570Y-62388D01*
X-119573Y-62385D01*
X-119737Y-62358D01*
X-121169Y-62358D01*
X-123699Y-59828D01*
X-123699Y-56250D01*
X-122067Y-54618D01*
X-122060Y-54608D01*
X-122050Y-54600D01*
X-122005Y-54526D01*
X-121957Y-54453D01*
X-121955Y-54440D01*
X-121948Y-54429D01*
X-121921Y-54265D01*
X-121921Y-53147D01*
X-121898Y-53113D01*
X-121896Y-53101D01*
X-121889Y-53090D01*
X-121862Y-52926D01*
X-121862Y-37258D01*
X-120227Y-35623D01*
X-118017Y-33413D01*
X-118015Y-33409D01*
X-118011Y-33407D01*
X-117960Y-33327D01*
X-117907Y-33247D01*
X-117906Y-33243D01*
X-117904Y-33239D01*
X-117888Y-33146D01*
X-117871Y-33052D01*
X-117872Y-33048D01*
X-117871Y-33043D01*
X-117893Y-32952D01*
X-117914Y-32857D01*
X-117916Y-32854D01*
X-117917Y-32850D01*
X-117973Y-32774D01*
X-118029Y-32695D01*
X-118032Y-32693D01*
X-118035Y-32690D01*
X-118117Y-32641D01*
X-118198Y-32591D01*
X-118202Y-32591D01*
X-118206Y-32588D01*
X-118370Y-32561D01*
X-120617Y-32561D01*
X-120617Y-28895D01*
X-120618Y-28887D01*
X-120617Y-28879D01*
X-120638Y-28790D01*
X-120656Y-28700D01*
X-120661Y-28693D01*
X-120663Y-28685D01*
X-120717Y-28612D01*
X-120769Y-28536D01*
X-120776Y-28532D01*
X-120781Y-28525D01*
X-120859Y-28479D01*
X-120936Y-28429D01*
X-120945Y-28428D01*
X-120952Y-28424D01*
X-121116Y-28396D01*
X-121366Y-28396D01*
X-121374Y-28398D01*
X-121383Y-28396D01*
X-121471Y-28417D01*
X-121561Y-28436D01*
X-121568Y-28440D01*
X-121576Y-28442D01*
X-121649Y-28496D01*
X-121725Y-28548D01*
X-121729Y-28555D01*
X-121736Y-28560D01*
X-121783Y-28638D01*
X-121832Y-28716D01*
X-121833Y-28724D01*
X-121838Y-28731D01*
X-121865Y-28895D01*
X-121865Y-32561D01*
X-124533Y-32561D01*
X-125338Y-32345D01*
X-126060Y-31928D01*
X-126528Y-31460D01*
X-126531Y-31458D01*
X-126534Y-31454D01*
X-126614Y-31403D01*
X-126694Y-31350D01*
X-126698Y-31349D01*
X-126701Y-31347D01*
X-126795Y-31331D01*
X-126889Y-31314D01*
X-126893Y-31315D01*
X-126898Y-31314D01*
X-126989Y-31336D01*
X-127083Y-31357D01*
X-127087Y-31359D01*
X-127091Y-31360D01*
X-127167Y-31416D01*
X-127246Y-31472D01*
X-127248Y-31476D01*
X-127251Y-31478D01*
X-127299Y-31559D01*
X-127350Y-31641D01*
X-127350Y-31645D01*
X-127353Y-31649D01*
X-127380Y-31813D01*
X-127380Y-40422D01*
X-141712Y-54754D01*
X-141719Y-54765D01*
X-141729Y-54772D01*
X-141774Y-54847D01*
X-141822Y-54920D01*
X-141824Y-54932D01*
X-141831Y-54943D01*
X-141858Y-55107D01*
X-141858Y-57774D01*
X-144537Y-60453D01*
X-146485Y-60453D01*
X-146498Y-60455D01*
X-146510Y-60453D01*
X-146594Y-60475D01*
X-146680Y-60492D01*
X-146691Y-60499D01*
X-146703Y-60503D01*
X-146838Y-60599D01*
X-149613Y-63374D01*
X-152139Y-63374D01*
X-153925Y-61588D01*
X-153925Y-59062D01*
X-151150Y-56287D01*
X-151143Y-56277D01*
X-151133Y-56269D01*
X-151088Y-56195D01*
X-151040Y-56122D01*
X-151038Y-56109D01*
X-151031Y-56098D01*
X-151004Y-55934D01*
X-151004Y-53986D01*
X-148325Y-51307D01*
X-145658Y-51307D01*
X-145646Y-51305D01*
X-145633Y-51307D01*
X-145549Y-51285D01*
X-145463Y-51268D01*
X-145453Y-51261D01*
X-145441Y-51257D01*
X-145305Y-51161D01*
X-132608Y-38464D01*
X-132601Y-38453D01*
X-132591Y-38446D01*
X-132546Y-38371D01*
X-132498Y-38298D01*
X-132496Y-38286D01*
X-132489Y-38275D01*
X-132462Y-38111D01*
X-132462Y-31190D01*
X-132463Y-31185D01*
X-132462Y-31181D01*
X-132482Y-31089D01*
X-132501Y-30995D01*
X-132504Y-30991D01*
X-132505Y-30987D01*
X-132560Y-30910D01*
X-132614Y-30831D01*
X-132617Y-30829D01*
X-132620Y-30825D01*
X-132701Y-30775D01*
X-132781Y-30724D01*
X-132786Y-30723D01*
X-132789Y-30721D01*
X-132883Y-30707D01*
X-132978Y-30691D01*
X-132982Y-30692D01*
X-132986Y-30691D01*
X-133078Y-30715D01*
X-133171Y-30737D01*
X-133174Y-30739D01*
X-133178Y-30740D01*
X-133314Y-30837D01*
X-133593Y-31116D01*
X-137171Y-31116D01*
X-139701Y-28586D01*
X-139701Y-25008D01*
X-138069Y-23376D01*
X-138062Y-23366D01*
X-138052Y-23358D01*
X-138007Y-23284D01*
X-137959Y-23211D01*
X-137957Y-23198D01*
X-137950Y-23187D01*
X-137923Y-23023D01*
X-137923Y-22216D01*
X-137924Y-22212D01*
X-137923Y-22208D01*
X-137943Y-22115D01*
X-137962Y-22022D01*
X-137965Y-22018D01*
X-137966Y-22014D01*
X-138021Y-21936D01*
X-138075Y-21858D01*
X-138078Y-21855D01*
X-138081Y-21852D01*
X-138162Y-21802D01*
X-138242Y-21751D01*
X-138247Y-21750D01*
X-138250Y-21748D01*
X-138344Y-21733D01*
X-138439Y-21717D01*
X-138443Y-21718D01*
X-138447Y-21718D01*
X-138539Y-21741D01*
X-138632Y-21764D01*
X-138635Y-21766D01*
X-138639Y-21767D01*
X-138775Y-21863D01*
X-141014Y-24103D01*
X-143642Y-24103D01*
X-143654Y-24105D01*
X-143666Y-24103D01*
X-143751Y-24125D01*
X-143836Y-24142D01*
X-143847Y-24149D01*
X-143859Y-24153D01*
X-143995Y-24249D01*
X-144384Y-24639D01*
X-146694Y-24639D01*
X-146702Y-24640D01*
X-146711Y-24639D01*
X-146799Y-24660D01*
X-146889Y-24678D01*
X-146896Y-24683D01*
X-146904Y-24685D01*
X-146977Y-24739D01*
X-147053Y-24791D01*
X-147057Y-24798D01*
X-147064Y-24803D01*
X-147111Y-24881D01*
X-147160Y-24958D01*
X-147161Y-24967D01*
X-147166Y-24974D01*
X-147193Y-25138D01*
X-147193Y-26519D01*
X-149551Y-28877D01*
X-163885Y-28877D01*
X-166243Y-26519D01*
X-166243Y-18185D01*
X-163885Y-15827D01*
X-149551Y-15827D01*
X-148284Y-17094D01*
X-148277Y-17099D01*
X-148272Y-17105D01*
X-148195Y-17153D01*
X-148119Y-17204D01*
X-148110Y-17205D01*
X-148103Y-17210D01*
X-148013Y-17223D01*
X-147923Y-17240D01*
X-147915Y-17238D01*
X-147907Y-17239D01*
X-147818Y-17217D01*
X-147729Y-17197D01*
X-147722Y-17192D01*
X-147714Y-17190D01*
X-147578Y-17094D01*
X-145943Y-15459D01*
X-145936Y-15448D01*
X-145926Y-15441D01*
X-145881Y-15366D01*
X-145833Y-15293D01*
X-145831Y-15280D01*
X-145824Y-15270D01*
X-145797Y-15105D01*
X-145797Y7508D01*
X-136063Y17241D01*
X-135742Y17562D01*
X-135740Y17565D01*
X-135737Y17568D01*
X-135685Y17648D01*
X-135633Y17728D01*
X-135632Y17732D01*
X-135630Y17735D01*
X-135614Y17829D01*
X-135596Y17923D01*
X-135597Y17927D01*
X-135596Y17932D01*
X-135618Y18024D01*
X-135639Y18117D01*
X-135641Y18121D01*
X-135642Y18125D01*
X-135699Y18202D01*
X-135754Y18280D01*
X-135758Y18282D01*
X-135760Y18285D01*
X-135842Y18333D01*
X-135924Y18384D01*
X-135928Y18384D01*
X-135931Y18387D01*
X-136095Y18414D01*
X-146845Y18414D01*
X-146857Y18412D01*
X-146869Y18414D01*
X-146954Y18392D01*
X-147039Y18375D01*
X-147050Y18368D01*
X-147062Y18364D01*
X-147198Y18268D01*
X-153472Y11994D01*
X-153477Y11987D01*
X-153484Y11982D01*
X-153531Y11904D01*
X-153582Y11828D01*
X-153583Y11820D01*
X-153588Y11812D01*
X-153602Y11722D01*
X-153618Y11632D01*
X-153616Y11624D01*
X-153618Y11616D01*
X-153595Y11528D01*
X-153575Y11438D01*
X-153571Y11431D01*
X-153568Y11423D01*
X-153472Y11288D01*
X-152046Y9862D01*
X-152046Y5886D01*
X-153904Y4029D01*
X-153911Y4018D01*
X-153921Y4011D01*
X-153965Y3936D01*
X-154014Y3863D01*
X-154016Y3850D01*
X-154023Y3840D01*
X-154050Y3676D01*
X-154050Y2579D01*
X-154049Y2571D01*
X-154050Y2562D01*
X-154029Y2474D01*
X-154011Y2384D01*
X-154006Y2377D01*
X-154004Y2369D01*
X-153950Y2296D01*
X-153898Y2220D01*
X-153891Y2216D01*
X-153886Y2209D01*
X-153808Y2162D01*
X-153731Y2113D01*
X-153722Y2112D01*
X-153715Y2107D01*
X-153551Y2080D01*
X-149678Y2080D01*
X-147320Y-278D01*
X-147320Y-8612D01*
X-149678Y-10970D01*
X-164012Y-10970D01*
X-166370Y-8612D01*
X-166370Y-278D01*
X-164012Y2080D01*
X-160139Y2080D01*
X-160131Y2081D01*
X-160122Y2080D01*
X-160034Y2101D01*
X-159944Y2119D01*
X-159937Y2124D01*
X-159929Y2126D01*
X-159856Y2180D01*
X-159780Y2232D01*
X-159776Y2239D01*
X-159769Y2244D01*
X-159722Y2322D01*
X-159673Y2399D01*
X-159672Y2408D01*
X-159667Y2415D01*
X-159640Y2579D01*
X-159640Y3676D01*
X-159642Y3688D01*
X-159640Y3700D01*
X-159662Y3785D01*
X-159679Y3870D01*
X-159686Y3881D01*
X-159690Y3893D01*
X-159786Y4029D01*
X-161644Y5886D01*
X-161644Y9862D01*
X-159786Y11719D01*
X-159779Y11730D01*
X-159769Y11737D01*
X-159725Y11812D01*
X-159676Y11885D01*
X-159674Y11898D01*
X-159667Y11908D01*
X-159640Y12072D01*
X-159640Y13731D01*
X-149367Y24004D01*
X-126760Y24004D01*
X-126755Y24005D01*
X-126750Y24004D01*
X-126658Y24025D01*
X-126565Y24043D01*
X-126561Y24046D01*
X-126556Y24047D01*
X-126479Y24102D01*
X-126401Y24156D01*
X-126399Y24160D01*
X-126395Y24163D01*
X-126345Y24244D01*
X-126294Y24323D01*
X-126294Y24328D01*
X-126291Y24333D01*
X-126277Y24427D01*
X-126261Y24520D01*
X-126262Y24524D01*
X-126262Y24529D01*
X-126266Y24545D01*
X-126266Y27745D01*
X-125007Y29005D01*
X-118432Y29005D01*
X-118360Y29019D01*
X-118287Y29026D01*
X-118264Y29039D01*
X-118237Y29044D01*
X-118177Y29086D01*
X-118112Y29121D01*
X-118095Y29142D01*
X-118073Y29157D01*
X-118034Y29219D01*
X-117988Y29276D01*
X-117981Y29302D01*
X-117966Y29324D01*
X-117954Y29397D01*
X-117934Y29468D01*
X-117937Y29498D01*
X-117933Y29520D01*
X-117943Y29563D01*
X-117950Y29633D01*
X-118032Y29938D01*
X-118032Y32606D01*
X-114366Y32606D01*
X-114358Y32607D01*
X-114350Y32606D01*
X-114261Y32627D01*
X-114171Y32645D01*
X-114164Y32650D01*
X-114156Y32652D01*
X-114083Y32706D01*
X-114007Y32758D01*
X-114003Y32765D01*
X-113996Y32770D01*
X-113950Y32848D01*
X-113918Y32898D01*
X-113914Y32900D01*
X-113906Y32902D01*
X-113833Y32956D01*
X-113757Y33008D01*
X-113753Y33015D01*
X-113746Y33020D01*
X-113699Y33098D01*
X-113650Y33176D01*
X-113649Y33184D01*
X-113644Y33191D01*
X-113617Y33355D01*
X-113617Y39702D01*
X-113619Y39715D01*
X-113617Y39727D01*
X-113639Y39811D01*
X-113656Y39897D01*
X-113663Y39907D01*
X-113667Y39920D01*
X-113763Y40055D01*
X-114709Y41001D01*
X-114719Y41008D01*
X-114727Y41018D01*
X-114802Y41063D01*
X-114875Y41111D01*
X-114887Y41113D01*
X-114898Y41120D01*
X-115062Y41147D01*
X-118737Y41147D01*
X-118750Y41145D01*
X-118762Y41147D01*
X-118847Y41125D01*
X-118932Y41108D01*
X-118943Y41101D01*
X-118955Y41097D01*
X-119091Y41001D01*
X-120948Y39143D01*
X-124924Y39143D01*
X-127735Y41954D01*
X-127735Y45930D01*
X-124924Y48741D01*
X-120948Y48741D01*
X-119091Y46883D01*
X-119080Y46876D01*
X-119073Y46866D01*
X-118998Y46821D01*
X-118925Y46773D01*
X-118912Y46771D01*
X-118902Y46764D01*
X-118737Y46737D01*
X-115902Y46737D01*
X-115898Y46738D01*
X-115894Y46737D01*
X-115801Y46757D01*
X-115707Y46776D01*
X-115704Y46779D01*
X-115700Y46780D01*
X-115622Y46835D01*
X-115544Y46889D01*
X-115541Y46892D01*
X-115538Y46895D01*
X-115488Y46976D01*
X-115437Y47056D01*
X-115436Y47061D01*
X-115434Y47064D01*
X-115419Y47158D01*
X-115403Y47253D01*
X-115404Y47257D01*
X-115404Y47261D01*
X-115427Y47353D01*
X-115449Y47446D01*
X-115452Y47449D01*
X-115453Y47453D01*
X-115549Y47589D01*
X-119502Y51542D01*
X-121286Y53325D01*
X-121286Y56607D01*
X-121288Y56619D01*
X-121286Y56631D01*
X-121308Y56716D01*
X-121325Y56801D01*
X-121332Y56812D01*
X-121336Y56824D01*
X-121432Y56960D01*
X-123191Y58718D01*
X-123191Y64472D01*
X-121975Y65687D01*
X-121971Y65694D01*
X-121964Y65699D01*
X-121916Y65776D01*
X-121866Y65853D01*
X-121864Y65861D01*
X-121860Y65868D01*
X-121846Y65958D01*
X-121829Y66048D01*
X-121831Y66056D01*
X-121830Y66065D01*
X-121852Y66153D01*
X-121872Y66242D01*
X-121877Y66249D01*
X-121879Y66257D01*
X-121975Y66393D01*
X-123191Y67608D01*
X-123191Y73362D01*
X-121558Y74994D01*
X-121554Y75001D01*
X-121547Y75006D01*
X-121499Y75083D01*
X-121449Y75160D01*
X-121447Y75168D01*
X-121443Y75175D01*
X-121429Y75265D01*
X-121412Y75355D01*
X-121414Y75363D01*
X-121413Y75372D01*
X-121435Y75460D01*
X-121455Y75549D01*
X-121460Y75556D01*
X-121462Y75564D01*
X-121558Y75700D01*
X-122810Y76951D01*
X-122810Y80529D01*
X-120280Y83059D01*
X-116702Y83059D01*
X-114172Y80529D01*
X-114172Y76951D01*
X-115424Y75700D01*
X-115428Y75693D01*
X-115435Y75688D01*
X-115483Y75610D01*
X-115533Y75534D01*
X-115535Y75526D01*
X-115539Y75519D01*
X-115553Y75429D01*
X-115570Y75339D01*
X-115568Y75330D01*
X-115569Y75322D01*
X-115547Y75234D01*
X-115527Y75144D01*
X-115522Y75138D01*
X-115520Y75129D01*
X-115424Y74994D01*
X-113791Y73362D01*
X-113791Y67608D01*
X-115007Y66393D01*
X-115011Y66386D01*
X-115018Y66381D01*
X-115066Y66304D01*
X-115116Y66227D01*
X-115118Y66219D01*
X-115122Y66212D01*
X-115136Y66122D01*
X-115153Y66032D01*
X-115151Y66023D01*
X-115152Y66015D01*
X-115130Y65927D01*
X-115110Y65838D01*
X-115105Y65831D01*
X-115103Y65823D01*
X-115007Y65687D01*
X-113791Y64472D01*
X-113791Y58718D01*
X-115550Y56960D01*
X-115557Y56949D01*
X-115567Y56942D01*
X-115612Y56867D01*
X-115660Y56794D01*
X-115662Y56781D01*
X-115669Y56771D01*
X-115696Y56607D01*
X-115696Y55847D01*
X-115695Y55841D01*
X-115696Y55834D01*
X-115695Y55829D01*
X-115696Y55823D01*
X-115674Y55738D01*
X-115657Y55653D01*
X-115651Y55644D01*
X-115650Y55640D01*
X-115649Y55639D01*
X-115646Y55630D01*
X-115550Y55494D01*
X-110708Y50652D01*
X-110704Y50650D01*
X-110702Y50647D01*
X-110622Y50595D01*
X-110542Y50543D01*
X-110538Y50542D01*
X-110535Y50540D01*
X-110441Y50524D01*
X-110347Y50506D01*
X-110343Y50507D01*
X-110338Y50506D01*
X-110247Y50528D01*
X-110153Y50549D01*
X-110149Y50551D01*
X-110145Y50552D01*
X-110069Y50608D01*
X-109990Y50664D01*
X-109988Y50668D01*
X-109985Y50670D01*
X-109936Y50752D01*
X-109886Y50834D01*
X-109886Y50838D01*
X-109883Y50841D01*
X-109856Y51005D01*
X-109856Y56607D01*
X-109858Y56619D01*
X-109856Y56631D01*
X-109878Y56716D01*
X-109895Y56801D01*
X-109902Y56812D01*
X-109906Y56824D01*
X-110002Y56960D01*
X-111761Y58718D01*
X-111761Y64472D01*
X-110545Y65687D01*
X-110541Y65694D01*
X-110534Y65699D01*
X-110486Y65776D01*
X-110436Y65853D01*
X-110434Y65861D01*
X-110430Y65868D01*
X-110416Y65958D01*
X-110399Y66048D01*
X-110401Y66056D01*
X-110400Y66065D01*
X-110422Y66153D01*
X-110442Y66242D01*
X-110447Y66249D01*
X-110449Y66257D01*
X-110545Y66393D01*
X-111761Y67608D01*
X-111761Y73362D01*
X-110128Y74994D01*
X-110124Y75001D01*
X-110117Y75006D01*
X-110069Y75083D01*
X-110019Y75160D01*
X-110017Y75168D01*
X-110013Y75175D01*
X-109999Y75265D01*
X-109982Y75355D01*
X-109984Y75363D01*
X-109983Y75372D01*
X-110005Y75460D01*
X-110025Y75549D01*
X-110030Y75556D01*
X-110032Y75564D01*
X-110128Y75700D01*
X-111380Y76951D01*
X-111380Y80529D01*
X-108850Y83059D01*
X-105272Y83059D01*
X-102742Y80529D01*
X-102742Y76951D01*
X-103994Y75700D01*
X-103998Y75693D01*
X-104005Y75688D01*
X-104053Y75610D01*
X-104103Y75534D01*
X-104105Y75526D01*
X-104109Y75519D01*
X-104123Y75429D01*
X-104140Y75339D01*
X-104138Y75330D01*
X-104139Y75322D01*
X-104117Y75234D01*
X-104097Y75144D01*
X-104092Y75138D01*
X-104090Y75129D01*
X-103994Y74994D01*
X-102361Y73362D01*
X-102361Y67608D01*
X-103577Y66393D01*
X-103581Y66386D01*
X-103588Y66381D01*
X-103636Y66304D01*
X-103686Y66227D01*
X-103688Y66219D01*
X-103692Y66212D01*
X-103706Y66122D01*
X-103723Y66032D01*
X-103721Y66023D01*
X-103722Y66015D01*
X-103700Y65927D01*
X-103680Y65838D01*
X-103675Y65831D01*
X-103673Y65823D01*
X-103577Y65687D01*
X-102361Y64472D01*
X-102361Y58718D01*
X-104120Y56960D01*
X-104127Y56949D01*
X-104137Y56942D01*
X-104181Y56867D01*
X-104230Y56794D01*
X-104232Y56781D01*
X-104239Y56771D01*
X-104266Y56607D01*
X-104266Y50513D01*
X-104264Y50501D01*
X-104266Y50489D01*
X-104244Y50404D01*
X-104227Y50319D01*
X-104220Y50308D01*
X-104216Y50296D01*
X-104120Y50160D01*
X-101859Y47899D01*
X-101848Y47892D01*
X-101841Y47882D01*
X-101766Y47837D01*
X-101693Y47789D01*
X-101680Y47787D01*
X-101670Y47780D01*
X-101506Y47753D01*
X-92661Y47753D01*
X-92657Y47754D01*
X-92653Y47753D01*
X-92560Y47773D01*
X-92466Y47792D01*
X-92463Y47795D01*
X-92459Y47796D01*
X-92381Y47851D01*
X-92303Y47905D01*
X-92300Y47908D01*
X-92297Y47911D01*
X-92247Y47992D01*
X-92196Y48072D01*
X-92195Y48077D01*
X-92193Y48080D01*
X-92178Y48174D01*
X-92162Y48269D01*
X-92163Y48273D01*
X-92163Y48277D01*
X-92186Y48369D01*
X-92208Y48462D01*
X-92211Y48465D01*
X-92212Y48469D01*
X-92308Y48605D01*
X-98426Y54722D01*
X-98426Y56607D01*
X-98428Y56619D01*
X-98426Y56631D01*
X-98448Y56716D01*
X-98465Y56801D01*
X-98472Y56812D01*
X-98476Y56824D01*
X-98572Y56960D01*
X-100331Y58718D01*
X-100331Y64472D01*
X-99115Y65687D01*
X-99111Y65694D01*
X-99104Y65699D01*
X-99056Y65776D01*
X-99006Y65853D01*
X-99004Y65861D01*
X-99000Y65868D01*
X-98986Y65958D01*
X-98969Y66048D01*
X-98971Y66056D01*
X-98970Y66065D01*
X-98992Y66153D01*
X-99012Y66242D01*
X-99017Y66249D01*
X-99019Y66257D01*
X-99115Y66393D01*
X-100331Y67608D01*
X-100331Y73362D01*
X-98698Y74994D01*
X-98694Y75001D01*
X-98687Y75006D01*
X-98639Y75083D01*
X-98589Y75160D01*
X-98587Y75168D01*
X-98583Y75175D01*
X-98569Y75265D01*
X-98552Y75355D01*
X-98554Y75363D01*
X-98553Y75372D01*
X-98575Y75460D01*
X-98595Y75549D01*
X-98600Y75556D01*
X-98602Y75564D01*
X-98698Y75700D01*
X-99950Y76951D01*
X-99950Y80529D01*
X-97420Y83059D01*
X-93842Y83059D01*
X-91312Y80529D01*
X-91312Y76951D01*
X-92564Y75700D01*
X-92568Y75693D01*
X-92575Y75688D01*
X-92623Y75610D01*
X-92673Y75534D01*
X-92675Y75526D01*
X-92679Y75519D01*
X-92693Y75429D01*
X-92710Y75339D01*
X-92708Y75330D01*
X-92709Y75322D01*
X-92687Y75234D01*
X-92667Y75144D01*
X-92662Y75138D01*
X-92660Y75129D01*
X-92564Y74994D01*
X-90931Y73362D01*
X-90931Y67608D01*
X-92147Y66393D01*
X-92151Y66386D01*
X-92158Y66381D01*
X-92206Y66304D01*
X-92256Y66227D01*
X-92258Y66219D01*
X-92262Y66212D01*
X-92276Y66122D01*
X-92293Y66032D01*
X-92291Y66023D01*
X-92292Y66015D01*
X-92270Y65927D01*
X-92250Y65838D01*
X-92245Y65831D01*
X-92243Y65823D01*
X-92147Y65687D01*
X-90931Y64472D01*
X-90931Y58718D01*
X-92371Y57279D01*
X-92376Y57272D01*
X-92383Y57267D01*
X-92430Y57189D01*
X-92481Y57113D01*
X-92482Y57104D01*
X-92487Y57097D01*
X-92501Y57007D01*
X-92517Y56917D01*
X-92515Y56909D01*
X-92517Y56901D01*
X-92494Y56813D01*
X-92474Y56723D01*
X-92470Y56716D01*
X-92468Y56708D01*
X-92371Y56572D01*
X-87848Y52049D01*
X-87844Y52047D01*
X-87842Y52044D01*
X-87762Y51992D01*
X-87682Y51940D01*
X-87678Y51939D01*
X-87675Y51937D01*
X-87581Y51921D01*
X-87487Y51903D01*
X-87483Y51904D01*
X-87478Y51903D01*
X-87387Y51925D01*
X-87293Y51946D01*
X-87289Y51948D01*
X-87285Y51949D01*
X-87209Y52005D01*
X-87130Y52061D01*
X-87128Y52065D01*
X-87125Y52067D01*
X-87076Y52149D01*
X-87026Y52231D01*
X-87026Y52235D01*
X-87023Y52238D01*
X-86996Y52402D01*
X-86996Y56607D01*
X-86998Y56619D01*
X-86996Y56631D01*
X-87018Y56716D01*
X-87035Y56801D01*
X-87042Y56812D01*
X-87046Y56824D01*
X-87142Y56960D01*
X-88901Y58718D01*
X-88901Y64472D01*
X-87685Y65687D01*
X-87681Y65694D01*
X-87674Y65699D01*
X-87626Y65776D01*
X-87576Y65853D01*
X-87574Y65861D01*
X-87570Y65868D01*
X-87556Y65958D01*
X-87539Y66048D01*
X-87541Y66057D01*
X-87540Y66065D01*
X-87562Y66153D01*
X-87582Y66242D01*
X-87587Y66249D01*
X-87589Y66257D01*
X-87685Y66393D01*
X-88901Y67608D01*
X-88901Y73362D01*
X-87777Y74485D01*
X-87770Y74496D01*
X-87760Y74503D01*
X-87715Y74578D01*
X-87667Y74651D01*
X-87665Y74664D01*
X-87658Y74674D01*
X-87631Y74838D01*
X-87631Y74966D01*
X-87633Y74979D01*
X-87631Y74991D01*
X-87653Y75075D01*
X-87670Y75161D01*
X-87677Y75172D01*
X-87681Y75184D01*
X-87777Y75319D01*
X-89409Y76951D01*
X-89409Y80529D01*
X-86879Y83059D01*
X-83301Y83059D01*
X-80998Y80756D01*
X-80991Y80751D01*
X-80986Y80744D01*
X-80909Y80697D01*
X-80832Y80646D01*
X-80824Y80644D01*
X-80817Y80640D01*
X-80727Y80626D01*
X-80637Y80609D01*
X-80629Y80611D01*
X-80620Y80610D01*
X-80532Y80633D01*
X-80443Y80652D01*
X-80436Y80657D01*
X-80428Y80659D01*
X-80292Y80756D01*
X-78243Y82805D01*
X-74665Y82805D01*
X-72135Y80275D01*
X-72135Y76697D01*
X-72795Y76037D01*
X-72798Y76033D01*
X-72801Y76031D01*
X-72852Y75951D01*
X-72905Y75871D01*
X-72906Y75867D01*
X-72908Y75864D01*
X-72924Y75770D01*
X-72942Y75676D01*
X-72941Y75672D01*
X-72941Y75667D01*
X-72920Y75576D01*
X-72899Y75482D01*
X-72896Y75478D01*
X-72895Y75474D01*
X-72839Y75398D01*
X-72784Y75319D01*
X-72780Y75317D01*
X-72777Y75314D01*
X-72696Y75265D01*
X-72614Y75215D01*
X-72610Y75215D01*
X-72606Y75212D01*
X-72442Y75185D01*
X-69894Y75185D01*
X-68798Y74088D01*
X-68794Y74086D01*
X-68792Y74083D01*
X-68712Y74032D01*
X-68632Y73979D01*
X-68628Y73978D01*
X-68625Y73976D01*
X-68531Y73960D01*
X-68437Y73942D01*
X-68433Y73943D01*
X-68428Y73942D01*
X-68337Y73964D01*
X-68243Y73985D01*
X-68239Y73987D01*
X-68235Y73988D01*
X-68159Y74044D01*
X-68080Y74100D01*
X-68078Y74104D01*
X-68075Y74106D01*
X-68026Y74188D01*
X-67976Y74270D01*
X-67976Y74274D01*
X-67973Y74277D01*
X-67946Y74441D01*
X-67946Y74712D01*
X-67948Y74725D01*
X-67946Y74737D01*
X-67968Y74821D01*
X-67985Y74907D01*
X-67992Y74918D01*
X-67996Y74930D01*
X-68092Y75065D01*
X-69724Y76697D01*
X-69724Y80275D01*
X-67194Y82805D01*
X-63616Y82805D01*
X-61086Y80275D01*
X-61086Y76697D01*
X-61746Y76037D01*
X-61749Y76033D01*
X-61752Y76031D01*
X-61803Y75951D01*
X-61856Y75871D01*
X-61857Y75867D01*
X-61859Y75864D01*
X-61875Y75770D01*
X-61893Y75676D01*
X-61892Y75672D01*
X-61892Y75667D01*
X-61871Y75576D01*
X-61850Y75482D01*
X-61847Y75478D01*
X-61846Y75474D01*
X-61790Y75398D01*
X-61735Y75319D01*
X-61731Y75317D01*
X-61728Y75314D01*
X-61647Y75265D01*
X-61565Y75215D01*
X-61561Y75215D01*
X-61557Y75212D01*
X-61393Y75185D01*
X-58622Y75185D01*
X-58617Y75186D01*
X-58613Y75185D01*
X-58521Y75205D01*
X-58427Y75224D01*
X-58423Y75227D01*
X-58419Y75228D01*
X-58342Y75283D01*
X-58263Y75337D01*
X-58261Y75340D01*
X-58257Y75343D01*
X-58207Y75425D01*
X-58156Y75504D01*
X-58155Y75509D01*
X-58153Y75512D01*
X-58139Y75606D01*
X-58123Y75701D01*
X-58124Y75705D01*
X-58123Y75709D01*
X-58147Y75801D01*
X-58169Y75894D01*
X-58171Y75897D01*
X-58172Y75901D01*
X-58269Y76037D01*
X-58802Y76570D01*
X-58802Y80148D01*
X-56272Y82678D01*
X-52694Y82678D01*
X-50164Y80148D01*
X-50164Y76570D01*
X-50697Y76037D01*
X-50700Y76034D01*
X-50703Y76031D01*
X-50755Y75951D01*
X-50807Y75871D01*
X-50808Y75867D01*
X-50810Y75864D01*
X-50826Y75770D01*
X-50844Y75676D01*
X-50843Y75672D01*
X-50843Y75667D01*
X-50822Y75576D01*
X-50801Y75482D01*
X-50798Y75478D01*
X-50797Y75474D01*
X-50741Y75398D01*
X-50686Y75319D01*
X-50682Y75317D01*
X-50679Y75314D01*
X-50598Y75266D01*
X-50516Y75215D01*
X-50512Y75215D01*
X-50508Y75212D01*
X-50344Y75185D01*
X-47669Y75185D01*
X-45846Y73362D01*
X-45846Y67608D01*
X-47062Y66393D01*
X-47066Y66386D01*
X-47073Y66381D01*
X-47121Y66304D01*
X-47171Y66227D01*
X-47173Y66219D01*
X-47177Y66212D01*
X-47191Y66122D01*
X-47208Y66032D01*
X-47206Y66023D01*
X-47207Y66015D01*
X-47185Y65927D01*
X-47165Y65838D01*
X-47160Y65831D01*
X-47158Y65823D01*
X-47062Y65687D01*
X-45846Y64472D01*
X-45846Y58718D01*
X-47605Y56960D01*
X-47612Y56949D01*
X-47622Y56942D01*
X-47666Y56867D01*
X-47715Y56794D01*
X-47717Y56781D01*
X-47724Y56771D01*
X-47751Y56607D01*
X-47751Y44562D01*
X-56300Y36014D01*
X-56307Y36003D01*
X-56317Y35996D01*
X-56362Y35921D01*
X-56410Y35848D01*
X-56412Y35835D01*
X-56419Y35825D01*
X-56446Y35661D01*
X-56446Y31964D01*
X-56466Y31846D01*
X-56466Y29504D01*
X-56465Y29496D01*
X-56466Y29487D01*
X-56445Y29399D01*
X-56427Y29309D01*
X-56422Y29302D01*
X-56420Y29294D01*
X-56366Y29221D01*
X-56314Y29145D01*
X-56307Y29141D01*
X-56302Y29134D01*
X-56224Y29087D01*
X-56147Y29038D01*
X-56138Y29037D01*
X-56131Y29032D01*
X-55967Y29005D01*
X-55535Y29005D01*
X-55527Y29006D01*
X-55518Y29005D01*
X-55430Y29026D01*
X-55340Y29044D01*
X-55333Y29049D01*
X-55325Y29051D01*
X-55252Y29105D01*
X-55176Y29157D01*
X-55172Y29164D01*
X-55165Y29169D01*
X-55118Y29247D01*
X-55069Y29324D01*
X-55068Y29333D01*
X-55063Y29340D01*
X-55036Y29504D01*
X-55036Y32229D01*
X-42560Y44705D01*
X-41183Y44705D01*
X-41171Y44707D01*
X-41159Y44705D01*
X-41074Y44727D01*
X-40989Y44744D01*
X-40978Y44751D01*
X-40966Y44755D01*
X-40830Y44851D01*
X-39072Y46610D01*
X-33318Y46610D01*
X-32103Y45394D01*
X-32096Y45390D01*
X-32091Y45383D01*
X-32014Y45335D01*
X-31937Y45285D01*
X-31929Y45283D01*
X-31922Y45279D01*
X-31832Y45265D01*
X-31742Y45248D01*
X-31733Y45250D01*
X-31725Y45249D01*
X-31637Y45271D01*
X-31548Y45291D01*
X-31541Y45296D01*
X-31533Y45298D01*
X-31397Y45394D01*
X-30182Y46610D01*
X-26764Y46610D01*
X-26752Y46612D01*
X-26740Y46610D01*
X-26655Y46632D01*
X-26570Y46649D01*
X-26559Y46656D01*
X-26547Y46660D01*
X-26411Y46756D01*
X-21478Y51690D01*
X10670Y51690D01*
X10672Y51690D01*
X10674Y51690D01*
X10769Y51710D01*
X10865Y51729D01*
X10867Y51731D01*
X10869Y51731D01*
X10949Y51787D01*
X11029Y51842D01*
X11030Y51844D01*
X11032Y51845D01*
X11084Y51928D01*
X11136Y52009D01*
X11136Y52012D01*
X11138Y52013D01*
X11153Y52109D01*
X11169Y52206D01*
X11169Y52208D01*
X11169Y52210D01*
X11146Y52304D01*
X11123Y52399D01*
X11122Y52401D01*
X11121Y52403D01*
X11062Y52482D01*
X11005Y52559D01*
X11004Y52560D01*
X11002Y52562D01*
X10861Y52650D01*
X7819Y53910D01*
X5269Y56460D01*
X3889Y59792D01*
X3889Y63398D01*
X5269Y66730D01*
X7819Y69280D01*
X9851Y70121D01*
X9860Y70127D01*
X9870Y70130D01*
X9942Y70182D01*
X10016Y70232D01*
X10022Y70241D01*
X10030Y70247D01*
X10075Y70324D01*
X10124Y70399D01*
X10126Y70409D01*
X10132Y70419D01*
X10159Y70583D01*
X10159Y77431D01*
X10158Y77439D01*
X10159Y77448D01*
X10138Y77536D01*
X10120Y77626D01*
X10115Y77633D01*
X10113Y77641D01*
X10059Y77714D01*
X10007Y77790D01*
X10000Y77794D01*
X9995Y77801D01*
X9917Y77848D01*
X9840Y77897D01*
X9831Y77898D01*
X9824Y77903D01*
X9660Y77930D01*
X4782Y77930D01*
X3889Y78823D01*
X3889Y95167D01*
X4782Y96060D01*
X21126Y96060D01*
X22019Y95167D01*
X22019Y78823D01*
X21126Y77930D01*
X16248Y77930D01*
X16240Y77929D01*
X16231Y77930D01*
X16143Y77909D01*
X16053Y77891D01*
X16046Y77886D01*
X16038Y77884D01*
X15965Y77830D01*
X15889Y77778D01*
X15885Y77771D01*
X15878Y77766D01*
X15831Y77688D01*
X15782Y77611D01*
X15781Y77602D01*
X15776Y77595D01*
X15749Y77431D01*
X15749Y70583D01*
X15751Y70572D01*
X15749Y70562D01*
X15770Y70475D01*
X15788Y70388D01*
X15794Y70379D01*
X15797Y70369D01*
X15850Y70297D01*
X15901Y70224D01*
X15910Y70218D01*
X15916Y70210D01*
X16057Y70121D01*
X18089Y69280D01*
X20639Y66730D01*
X22019Y63398D01*
X22019Y59792D01*
X20639Y56460D01*
X18089Y53910D01*
X15047Y52650D01*
X15045Y52649D01*
X15043Y52649D01*
X14963Y52594D01*
X14882Y52539D01*
X14881Y52537D01*
X14879Y52536D01*
X14827Y52455D01*
X14773Y52372D01*
X14773Y52370D01*
X14772Y52369D01*
X14756Y52273D01*
X14739Y52177D01*
X14739Y52175D01*
X14739Y52172D01*
X14761Y52079D01*
X14783Y51983D01*
X14784Y51981D01*
X14785Y51979D01*
X14841Y51902D01*
X14900Y51822D01*
X14901Y51821D01*
X14903Y51819D01*
X14986Y51770D01*
X15070Y51719D01*
X15072Y51719D01*
X15074Y51717D01*
X15238Y51690D01*
X28082Y51690D01*
X34873Y44898D01*
X34882Y44892D01*
X34888Y44884D01*
X34964Y44838D01*
X35039Y44789D01*
X35049Y44787D01*
X35058Y44781D01*
X35146Y44769D01*
X35234Y44752D01*
X35245Y44754D01*
X35255Y44753D01*
X35417Y44790D01*
X36551Y45260D01*
X40157Y45260D01*
X43489Y43880D01*
X46056Y41312D01*
X46085Y41270D01*
X46140Y41189D01*
X46142Y41188D01*
X46143Y41186D01*
X46224Y41134D01*
X46306Y41080D01*
X46309Y41080D01*
X46310Y41079D01*
X46406Y41063D01*
X46502Y41046D01*
X46504Y41046D01*
X46507Y41046D01*
X46600Y41068D01*
X46696Y41090D01*
X46698Y41091D01*
X46700Y41092D01*
X46776Y41148D01*
X46857Y41207D01*
X46858Y41208D01*
X46860Y41210D01*
X46909Y41292D01*
X46960Y41377D01*
X46960Y41379D01*
X46962Y41381D01*
X46989Y41545D01*
X46989Y54389D01*
X46987Y54401D01*
X46989Y54413D01*
X46967Y54498D01*
X46950Y54583D01*
X46943Y54594D01*
X46939Y54606D01*
X46843Y54742D01*
X45935Y55650D01*
X45928Y55655D01*
X45923Y55662D01*
X45845Y55709D01*
X45769Y55760D01*
X45761Y55761D01*
X45753Y55766D01*
X45663Y55779D01*
X45573Y55796D01*
X45565Y55794D01*
X45557Y55796D01*
X45469Y55773D01*
X45379Y55753D01*
X45372Y55749D01*
X45364Y55746D01*
X45229Y55650D01*
X43489Y53910D01*
X40157Y52530D01*
X36551Y52530D01*
X33219Y53910D01*
X30669Y56460D01*
X29289Y59792D01*
X29289Y63398D01*
X30669Y66730D01*
X33219Y69280D01*
X36551Y70660D01*
X40157Y70660D01*
X43489Y69280D01*
X46039Y66730D01*
X47419Y63398D01*
X47419Y62277D01*
X47421Y62265D01*
X47419Y62253D01*
X47441Y62168D01*
X47458Y62083D01*
X47465Y62072D01*
X47469Y62060D01*
X47565Y61924D01*
X50709Y58780D01*
X50713Y58778D01*
X50715Y58775D01*
X50795Y58724D01*
X50875Y58671D01*
X50879Y58670D01*
X50882Y58668D01*
X50976Y58652D01*
X51070Y58634D01*
X51074Y58635D01*
X51079Y58634D01*
X51170Y58656D01*
X51264Y58677D01*
X51268Y58679D01*
X51272Y58680D01*
X51348Y58736D01*
X51427Y58792D01*
X51429Y58796D01*
X51432Y58798D01*
X51481Y58880D01*
X51531Y58962D01*
X51531Y58966D01*
X51534Y58969D01*
X51561Y59133D01*
X51561Y78138D01*
X51559Y78150D01*
X51561Y78162D01*
X51539Y78247D01*
X51522Y78332D01*
X51515Y78343D01*
X51511Y78355D01*
X51415Y78491D01*
X47155Y82751D01*
X47150Y82754D01*
X47146Y82760D01*
X47067Y82809D01*
X46989Y82861D01*
X46983Y82862D01*
X46977Y82865D01*
X46886Y82880D01*
X46794Y82897D01*
X46787Y82896D01*
X46781Y82897D01*
X46691Y82874D01*
X46599Y82854D01*
X46594Y82851D01*
X46588Y82849D01*
X46513Y82793D01*
X46437Y82739D01*
X46434Y82734D01*
X46429Y82730D01*
X46341Y82589D01*
X46039Y81860D01*
X43489Y79310D01*
X40157Y77930D01*
X36551Y77930D01*
X33219Y79310D01*
X30669Y81860D01*
X29289Y85192D01*
X29289Y88798D01*
X30669Y92130D01*
X33219Y94680D01*
X36551Y96060D01*
X40157Y96060D01*
X43489Y94680D01*
X46039Y92130D01*
X46880Y90098D01*
X46884Y90093D01*
X46885Y90089D01*
X46887Y90085D01*
X46889Y90079D01*
X46941Y90007D01*
X46991Y89933D01*
X47000Y89927D01*
X47006Y89919D01*
X47083Y89874D01*
X47158Y89825D01*
X47168Y89823D01*
X47178Y89817D01*
X47342Y89790D01*
X48021Y89790D01*
X55367Y82443D01*
X57151Y80660D01*
X57151Y3287D01*
X55367Y1504D01*
X48529Y-5335D01*
X42171Y-5335D01*
X42169Y-5335D01*
X42167Y-5335D01*
X42072Y-5355D01*
X41976Y-5374D01*
X41974Y-5376D01*
X41972Y-5376D01*
X41892Y-5432D01*
X41812Y-5487D01*
X41811Y-5489D01*
X41809Y-5490D01*
X41756Y-5574D01*
X41705Y-5654D01*
X41705Y-5657D01*
X41703Y-5658D01*
X41688Y-5754D01*
X41672Y-5851D01*
X41672Y-5853D01*
X41672Y-5855D01*
X41695Y-5949D01*
X41718Y-6044D01*
X41719Y-6046D01*
X41720Y-6048D01*
X41779Y-6127D01*
X41836Y-6204D01*
X41837Y-6205D01*
X41839Y-6207D01*
X41980Y-6295D01*
X43489Y-6920D01*
X46039Y-9470D01*
X47419Y-12802D01*
X47419Y-16408D01*
X46039Y-19740D01*
X43489Y-22290D01*
X40157Y-23670D01*
X36551Y-23670D01*
X33219Y-22290D01*
X30669Y-19740D01*
X29289Y-16408D01*
X29289Y-12802D01*
X30669Y-9470D01*
X33219Y-6920D01*
X34728Y-6295D01*
X34730Y-6294D01*
X34732Y-6294D01*
X34812Y-6239D01*
X34893Y-6184D01*
X34894Y-6182D01*
X34896Y-6181D01*
X34948Y-6100D01*
X35002Y-6017D01*
X35002Y-6015D01*
X35003Y-6014D01*
X35019Y-5918D01*
X35036Y-5822D01*
X35036Y-5820D01*
X35036Y-5817D01*
X35014Y-5724D01*
X34992Y-5628D01*
X34991Y-5626D01*
X34990Y-5624D01*
X34933Y-5547D01*
X34875Y-5467D01*
X34874Y-5466D01*
X34872Y-5464D01*
X34789Y-5415D01*
X34705Y-5364D01*
X34703Y-5364D01*
X34701Y-5362D01*
X34537Y-5335D01*
X16771Y-5335D01*
X16769Y-5335D01*
X16767Y-5335D01*
X16672Y-5355D01*
X16576Y-5374D01*
X16574Y-5376D01*
X16572Y-5376D01*
X16492Y-5432D01*
X16412Y-5487D01*
X16411Y-5489D01*
X16409Y-5490D01*
X16356Y-5574D01*
X16305Y-5654D01*
X16305Y-5657D01*
X16303Y-5658D01*
X16288Y-5754D01*
X16272Y-5851D01*
X16272Y-5853D01*
X16272Y-5855D01*
X16295Y-5949D01*
X16318Y-6044D01*
X16319Y-6046D01*
X16320Y-6048D01*
X16379Y-6127D01*
X16436Y-6204D01*
X16437Y-6205D01*
X16439Y-6207D01*
X16580Y-6295D01*
X18089Y-6920D01*
X20639Y-9470D01*
X22019Y-12802D01*
X22019Y-16408D01*
X20639Y-19740D01*
X18089Y-22290D01*
X14757Y-23670D01*
X11151Y-23670D01*
X7819Y-22290D01*
X5269Y-19740D01*
X3889Y-16408D01*
X3889Y-12802D01*
X5269Y-9470D01*
X7819Y-6920D01*
X9328Y-6295D01*
X9330Y-6294D01*
X9332Y-6294D01*
X9412Y-6239D01*
X9493Y-6184D01*
X9494Y-6182D01*
X9496Y-6181D01*
X9548Y-6100D01*
X9602Y-6017D01*
X9602Y-6015D01*
X9603Y-6014D01*
X9619Y-5918D01*
X9636Y-5822D01*
X9636Y-5820D01*
X9636Y-5817D01*
X9614Y-5724D01*
X9592Y-5628D01*
X9591Y-5626D01*
X9590Y-5624D01*
X9533Y-5547D01*
X9475Y-5467D01*
X9474Y-5466D01*
X9472Y-5464D01*
X9389Y-5415D01*
X9305Y-5364D01*
X9303Y-5364D01*
X9301Y-5362D01*
X9137Y-5335D01*
X7859Y-5335D01*
X-1525Y4049D01*
X-1525Y15324D01*
X-1527Y15336D01*
X-1525Y15348D01*
X-1547Y15433D01*
X-1564Y15518D01*
X-1571Y15529D01*
X-1575Y15541D01*
X-1671Y15677D01*
X-4516Y18522D01*
X-4527Y18529D01*
X-4534Y18539D01*
X-4609Y18584D01*
X-4682Y18632D01*
X-4695Y18634D01*
X-4705Y18641D01*
X-4869Y18668D01*
X-22233Y18668D01*
X-22241Y18667D01*
X-22250Y18668D01*
X-22338Y18647D01*
X-22428Y18629D01*
X-22435Y18624D01*
X-22443Y18622D01*
X-22516Y18568D01*
X-22592Y18516D01*
X-22596Y18509D01*
X-22603Y18504D01*
X-22650Y18426D01*
X-22699Y18349D01*
X-22700Y18340D01*
X-22705Y18333D01*
X-22732Y18169D01*
X-22732Y18078D01*
X-24555Y16255D01*
X-30309Y16255D01*
X-31524Y17471D01*
X-31531Y17475D01*
X-31536Y17482D01*
X-31613Y17530D01*
X-31690Y17580D01*
X-31698Y17582D01*
X-31705Y17586D01*
X-31795Y17600D01*
X-31885Y17617D01*
X-31893Y17615D01*
X-31902Y17616D01*
X-31990Y17594D01*
X-32079Y17574D01*
X-32086Y17569D01*
X-32094Y17567D01*
X-32230Y17471D01*
X-33445Y16255D01*
X-39199Y16255D01*
X-40810Y17867D01*
X-40818Y17872D01*
X-40822Y17879D01*
X-40900Y17926D01*
X-40976Y17977D01*
X-40985Y17978D01*
X-40992Y17983D01*
X-41082Y17997D01*
X-41172Y18013D01*
X-41180Y18011D01*
X-41188Y18013D01*
X-41276Y17990D01*
X-41366Y17970D01*
X-41373Y17966D01*
X-41381Y17964D01*
X-41517Y17867D01*
X-45882Y13502D01*
X-45951Y13488D01*
X-46024Y13481D01*
X-46048Y13468D01*
X-46074Y13463D01*
X-46135Y13421D01*
X-46199Y13386D01*
X-46216Y13365D01*
X-46238Y13350D01*
X-46278Y13288D01*
X-46324Y13231D01*
X-46331Y13205D01*
X-46345Y13183D01*
X-46357Y13110D01*
X-46377Y13039D01*
X-46374Y13010D01*
X-46378Y12987D01*
X-46368Y12944D01*
X-46362Y12874D01*
X-46200Y12272D01*
X-46200Y11854D01*
X-52116Y11854D01*
X-52124Y11853D01*
X-52132Y11854D01*
X-52221Y11833D01*
X-52311Y11815D01*
X-52318Y11810D01*
X-52326Y11808D01*
X-52399Y11754D01*
X-52475Y11702D01*
X-52479Y11695D01*
X-52486Y11690D01*
X-52532Y11612D01*
X-52582Y11535D01*
X-52583Y11526D01*
X-52587Y11519D01*
X-52615Y11355D01*
X-52615Y11105D01*
X-52613Y11097D01*
X-52615Y11088D01*
X-52594Y11000D01*
X-52575Y10910D01*
X-52571Y10903D01*
X-52569Y10895D01*
X-52515Y10822D01*
X-52463Y10746D01*
X-52456Y10742D01*
X-52451Y10735D01*
X-52373Y10688D01*
X-52295Y10639D01*
X-52287Y10638D01*
X-52280Y10633D01*
X-52116Y10606D01*
X-46234Y10606D01*
X-46222Y10608D01*
X-46210Y10606D01*
X-46125Y10628D01*
X-46039Y10645D01*
X-46029Y10652D01*
X-46017Y10656D01*
X-45881Y10752D01*
X-45631Y11002D01*
X-45629Y11005D01*
X-45625Y11008D01*
X-45574Y11088D01*
X-45521Y11168D01*
X-45521Y11172D01*
X-45518Y11175D01*
X-45518Y11179D01*
X-45491Y11185D01*
X-45488Y11188D01*
X-45483Y11189D01*
X-45408Y11243D01*
X-15524Y11243D01*
X-10032Y5751D01*
X-10032Y3647D01*
X-11521Y2158D01*
X-12600Y2158D01*
X-12604Y2157D01*
X-12608Y2158D01*
X-12701Y2138D01*
X-12795Y2119D01*
X-12798Y2116D01*
X-12802Y2115D01*
X-12880Y2060D01*
X-12959Y2006D01*
X-12961Y2003D01*
X-12964Y2000D01*
X-13014Y1919D01*
X-13066Y1839D01*
X-13066Y1834D01*
X-13069Y1831D01*
X-13083Y1737D01*
X-13099Y1642D01*
X-13098Y1638D01*
X-13098Y1634D01*
X-13075Y1542D01*
X-13053Y1449D01*
X-13050Y1446D01*
X-13049Y1442D01*
X-12953Y1306D01*
X-6841Y-4806D01*
X-5206Y-6441D01*
X-5206Y-95413D01*
X-20157Y-110364D01*
X-20693Y-110364D01*
X-20706Y-110366D01*
X-20718Y-110364D01*
X-20803Y-110386D01*
X-20888Y-110403D01*
X-20899Y-110410D01*
X-20911Y-110414D01*
X-21047Y-110510D01*
X-23158Y-112622D01*
X-27134Y-112622D01*
X-28358Y-111397D01*
X-28362Y-111395D01*
X-28364Y-111392D01*
X-28444Y-111341D01*
X-28524Y-111288D01*
X-28528Y-111287D01*
X-28531Y-111285D01*
X-28625Y-111269D01*
X-28719Y-111251D01*
X-28723Y-111252D01*
X-28728Y-111251D01*
X-28819Y-111273D01*
X-28913Y-111294D01*
X-28917Y-111297D01*
X-28921Y-111297D01*
X-28997Y-111353D01*
X-29076Y-111409D01*
X-29078Y-111413D01*
X-29081Y-111415D01*
X-29130Y-111497D01*
X-29180Y-111579D01*
X-29180Y-111583D01*
X-29183Y-111586D01*
X-29210Y-111750D01*
X-29210Y-111990D01*
X-31568Y-114348D01*
X-45902Y-114348D01*
X-48260Y-111990D01*
X-48260Y-103656D01*
X-45902Y-101298D01*
X-31568Y-101298D01*
X-29210Y-103656D01*
X-29210Y-103896D01*
X-29209Y-103900D01*
X-29210Y-103904D01*
X-29190Y-103997D01*
X-29171Y-104090D01*
X-29168Y-104094D01*
X-29167Y-104098D01*
X-29112Y-104176D01*
X-29058Y-104254D01*
X-29055Y-104257D01*
X-29052Y-104260D01*
X-28971Y-104310D01*
X-28891Y-104361D01*
X-28886Y-104362D01*
X-28883Y-104364D01*
X-28789Y-104379D01*
X-28695Y-104395D01*
X-28690Y-104394D01*
X-28686Y-104394D01*
X-28594Y-104371D01*
X-28501Y-104349D01*
X-28498Y-104346D01*
X-28494Y-104345D01*
X-28358Y-104249D01*
X-27134Y-103024D01*
X-23158Y-103024D01*
X-21934Y-104249D01*
X-21927Y-104253D01*
X-21922Y-104260D01*
X-21844Y-104308D01*
X-21768Y-104358D01*
X-21760Y-104360D01*
X-21753Y-104364D01*
X-21663Y-104378D01*
X-21573Y-104395D01*
X-21564Y-104393D01*
X-21556Y-104394D01*
X-21468Y-104372D01*
X-21378Y-104352D01*
X-21372Y-104347D01*
X-21363Y-104345D01*
X-21228Y-104249D01*
X-10434Y-93455D01*
X-10427Y-93444D01*
X-10417Y-93437D01*
X-10372Y-93362D01*
X-10324Y-93289D01*
X-10322Y-93277D01*
X-10315Y-93266D01*
X-10288Y-93102D01*
X-10288Y-8752D01*
X-10290Y-8740D01*
X-10288Y-8727D01*
X-10310Y-8643D01*
X-10327Y-8557D01*
X-10334Y-8547D01*
X-10338Y-8535D01*
X-10434Y-8399D01*
X-20530Y1697D01*
X-20541Y1704D01*
X-20548Y1714D01*
X-20623Y1759D01*
X-20696Y1807D01*
X-20708Y1809D01*
X-20719Y1816D01*
X-20883Y1843D01*
X-22599Y1843D01*
X-22607Y1842D01*
X-22616Y1843D01*
X-22704Y1822D01*
X-22794Y1804D01*
X-22801Y1799D01*
X-22809Y1797D01*
X-22882Y1743D01*
X-22958Y1691D01*
X-22962Y1684D01*
X-22969Y1679D01*
X-23016Y1601D01*
X-23065Y1524D01*
X-23066Y1515D01*
X-23071Y1508D01*
X-23098Y1344D01*
X-23098Y-2824D01*
X-23991Y-3717D01*
X-39255Y-3717D01*
X-39838Y-3133D01*
X-39849Y-3126D01*
X-39856Y-3116D01*
X-39931Y-3072D01*
X-40004Y-3023D01*
X-40016Y-3021D01*
X-40027Y-3014D01*
X-40191Y-2987D01*
X-41119Y-2987D01*
X-41131Y-2989D01*
X-41143Y-2987D01*
X-41228Y-3009D01*
X-41313Y-3026D01*
X-41324Y-3034D01*
X-41336Y-3037D01*
X-41472Y-3133D01*
X-44903Y-6565D01*
X-45660Y-6565D01*
X-45664Y-6566D01*
X-45668Y-6565D01*
X-45761Y-6585D01*
X-45855Y-6604D01*
X-45858Y-6607D01*
X-45862Y-6608D01*
X-45940Y-6663D01*
X-46019Y-6717D01*
X-46021Y-6720D01*
X-46024Y-6723D01*
X-46074Y-6804D01*
X-46126Y-6884D01*
X-46126Y-6889D01*
X-46129Y-6892D01*
X-46143Y-6986D01*
X-46159Y-7081D01*
X-46158Y-7085D01*
X-46158Y-7089D01*
X-46135Y-7181D01*
X-46113Y-7274D01*
X-46110Y-7277D01*
X-46109Y-7281D01*
X-46013Y-7417D01*
X-43433Y-9997D01*
X-43433Y-19442D01*
X-43431Y-19454D01*
X-43433Y-19467D01*
X-43411Y-19551D01*
X-43394Y-19637D01*
X-43387Y-19647D01*
X-43383Y-19659D01*
X-43287Y-19795D01*
X-41577Y-21505D01*
X-41566Y-21512D01*
X-41559Y-21522D01*
X-41484Y-21566D01*
X-41411Y-21615D01*
X-41399Y-21617D01*
X-41388Y-21624D01*
X-41224Y-21651D01*
X-40445Y-21651D01*
X-40433Y-21649D01*
X-40421Y-21651D01*
X-40336Y-21629D01*
X-40250Y-21612D01*
X-40240Y-21604D01*
X-40228Y-21601D01*
X-40092Y-21505D01*
X-39255Y-20667D01*
X-23991Y-20667D01*
X-23098Y-21560D01*
X-23098Y-26824D01*
X-23991Y-27717D01*
X-39255Y-27717D01*
X-40092Y-26879D01*
X-40103Y-26872D01*
X-40110Y-26862D01*
X-40185Y-26817D01*
X-40258Y-26769D01*
X-40270Y-26767D01*
X-40281Y-26760D01*
X-40445Y-26733D01*
X-43535Y-26733D01*
X-45170Y-25098D01*
X-46364Y-23904D01*
X-46367Y-23902D01*
X-46370Y-23898D01*
X-46450Y-23847D01*
X-46530Y-23794D01*
X-46534Y-23794D01*
X-46537Y-23791D01*
X-46631Y-23776D01*
X-46725Y-23758D01*
X-46729Y-23759D01*
X-46733Y-23758D01*
X-46825Y-23780D01*
X-46919Y-23801D01*
X-46923Y-23803D01*
X-46927Y-23804D01*
X-47003Y-23860D01*
X-47081Y-23916D01*
X-47084Y-23920D01*
X-47087Y-23922D01*
X-47136Y-24004D01*
X-47186Y-24085D01*
X-47186Y-24090D01*
X-47188Y-24093D01*
X-47216Y-24257D01*
X-47216Y-25330D01*
X-47239Y-25364D01*
X-47241Y-25373D01*
X-47245Y-25380D01*
X-47259Y-25470D01*
X-47276Y-25560D01*
X-47274Y-25568D01*
X-47275Y-25576D01*
X-47252Y-25665D01*
X-47233Y-25754D01*
X-47228Y-25761D01*
X-47226Y-25769D01*
X-47129Y-25905D01*
X-46833Y-26201D01*
X-46416Y-26923D01*
X-46200Y-27728D01*
X-46200Y-28146D01*
X-52116Y-28146D01*
X-52124Y-28147D01*
X-52132Y-28146D01*
X-52221Y-28167D01*
X-52311Y-28185D01*
X-52318Y-28190D01*
X-52326Y-28192D01*
X-52399Y-28246D01*
X-52475Y-28298D01*
X-52479Y-28305D01*
X-52486Y-28310D01*
X-52532Y-28388D01*
X-52564Y-28438D01*
X-52568Y-28440D01*
X-52576Y-28442D01*
X-52649Y-28496D01*
X-52725Y-28548D01*
X-52729Y-28555D01*
X-52736Y-28560D01*
X-52782Y-28638D01*
X-52832Y-28716D01*
X-52833Y-28724D01*
X-52837Y-28731D01*
X-52865Y-28895D01*
X-52865Y-32561D01*
X-54951Y-32561D01*
X-54959Y-32562D01*
X-54968Y-32561D01*
X-55056Y-32582D01*
X-55146Y-32600D01*
X-55153Y-32605D01*
X-55161Y-32607D01*
X-55234Y-32661D01*
X-55310Y-32713D01*
X-55314Y-32720D01*
X-55321Y-32725D01*
X-55368Y-32803D01*
X-55417Y-32880D01*
X-55418Y-32889D01*
X-55423Y-32896D01*
X-55450Y-33060D01*
X-55450Y-35146D01*
X-59116Y-35146D01*
X-59124Y-35147D01*
X-59132Y-35146D01*
X-59221Y-35167D01*
X-59311Y-35185D01*
X-59318Y-35190D01*
X-59326Y-35192D01*
X-59399Y-35246D01*
X-59475Y-35298D01*
X-59479Y-35305D01*
X-59486Y-35310D01*
X-59532Y-35388D01*
X-59564Y-35438D01*
X-59568Y-35440D01*
X-59576Y-35442D01*
X-59649Y-35496D01*
X-59725Y-35548D01*
X-59729Y-35555D01*
X-59736Y-35560D01*
X-59783Y-35638D01*
X-59832Y-35716D01*
X-59833Y-35724D01*
X-59838Y-35731D01*
X-59865Y-35895D01*
X-59865Y-41313D01*
X-59863Y-41325D01*
X-59865Y-41338D01*
X-59843Y-41422D01*
X-59826Y-41508D01*
X-59818Y-41518D01*
X-59815Y-41530D01*
X-59719Y-41666D01*
X-59469Y-41916D01*
X-59465Y-41918D01*
X-59463Y-41922D01*
X-59383Y-41973D01*
X-59303Y-42026D01*
X-59299Y-42026D01*
X-59296Y-42029D01*
X-59202Y-42044D01*
X-59108Y-42062D01*
X-59104Y-42061D01*
X-59099Y-42062D01*
X-59008Y-42040D01*
X-58914Y-42019D01*
X-58910Y-42017D01*
X-58906Y-42016D01*
X-58830Y-41960D01*
X-58751Y-41904D01*
X-58749Y-41900D01*
X-58746Y-41898D01*
X-58697Y-41816D01*
X-58647Y-41735D01*
X-58647Y-41730D01*
X-58644Y-41727D01*
X-58617Y-41563D01*
X-58617Y-36394D01*
X-55450Y-36394D01*
X-55450Y-39062D01*
X-55666Y-39867D01*
X-56083Y-40589D01*
X-56672Y-41178D01*
X-57394Y-41595D01*
X-58199Y-41811D01*
X-58369Y-41811D01*
X-58373Y-41812D01*
X-58377Y-41811D01*
X-58470Y-41831D01*
X-58564Y-41850D01*
X-58567Y-41853D01*
X-58571Y-41854D01*
X-58649Y-41909D01*
X-58728Y-41963D01*
X-58730Y-41966D01*
X-58733Y-41969D01*
X-58783Y-42050D01*
X-58835Y-42130D01*
X-58835Y-42135D01*
X-58838Y-42138D01*
X-58852Y-42232D01*
X-58868Y-42327D01*
X-58867Y-42331D01*
X-58867Y-42335D01*
X-58844Y-42427D01*
X-58822Y-42520D01*
X-58819Y-42523D01*
X-58818Y-42527D01*
X-58722Y-42663D01*
X-58606Y-42779D01*
X-58595Y-42786D01*
X-58588Y-42796D01*
X-58513Y-42841D01*
X-58440Y-42889D01*
X-58428Y-42891D01*
X-58417Y-42898D01*
X-58253Y-42925D01*
X-29558Y-42925D01*
X-29546Y-42923D01*
X-29534Y-42925D01*
X-29449Y-42903D01*
X-29364Y-42886D01*
X-29353Y-42879D01*
X-29341Y-42875D01*
X-29205Y-42779D01*
X-20594Y-34168D01*
X-20587Y-34157D01*
X-20577Y-34150D01*
X-20532Y-34075D01*
X-20484Y-34002D01*
X-20482Y-33989D01*
X-20475Y-33979D01*
X-20448Y-33815D01*
X-20448Y-17239D01*
X-20450Y-17227D01*
X-20448Y-17215D01*
X-20470Y-17130D01*
X-20487Y-17045D01*
X-20494Y-17034D01*
X-20498Y-17022D01*
X-20594Y-16886D01*
X-22347Y-15133D01*
X-22358Y-15126D01*
X-22365Y-15116D01*
X-22440Y-15071D01*
X-22513Y-15023D01*
X-22526Y-15021D01*
X-22536Y-15014D01*
X-22700Y-14987D01*
X-23055Y-14987D01*
X-23067Y-14989D01*
X-23079Y-14987D01*
X-23164Y-15009D01*
X-23250Y-15026D01*
X-23260Y-15033D01*
X-23272Y-15037D01*
X-23408Y-15133D01*
X-23991Y-15717D01*
X-39255Y-15717D01*
X-40148Y-14824D01*
X-40148Y-9560D01*
X-39255Y-8667D01*
X-23991Y-8667D01*
X-23408Y-9251D01*
X-23397Y-9258D01*
X-23390Y-9268D01*
X-23315Y-9313D01*
X-23242Y-9361D01*
X-23230Y-9363D01*
X-23219Y-9370D01*
X-23055Y-9397D01*
X-20178Y-9397D01*
X-14858Y-14717D01*
X-14858Y-36337D01*
X-16642Y-38120D01*
X-25253Y-46731D01*
X-27036Y-48515D01*
X-60775Y-48515D01*
X-62558Y-46731D01*
X-65252Y-44037D01*
X-67036Y-42254D01*
X-67036Y-41294D01*
X-67037Y-41286D01*
X-67036Y-41278D01*
X-67057Y-41189D01*
X-67075Y-41099D01*
X-67080Y-41092D01*
X-67082Y-41084D01*
X-67136Y-41011D01*
X-67188Y-40935D01*
X-67195Y-40931D01*
X-67200Y-40924D01*
X-67278Y-40878D01*
X-67355Y-40828D01*
X-67364Y-40827D01*
X-67371Y-40823D01*
X-67535Y-40795D01*
X-70756Y-40795D01*
X-71388Y-40163D01*
X-71395Y-40159D01*
X-71400Y-40152D01*
X-71478Y-40104D01*
X-71554Y-40053D01*
X-71562Y-40052D01*
X-71569Y-40047D01*
X-71659Y-40034D01*
X-71749Y-40017D01*
X-71758Y-40019D01*
X-71766Y-40018D01*
X-71854Y-40040D01*
X-71943Y-40060D01*
X-71950Y-40065D01*
X-71958Y-40067D01*
X-72094Y-40163D01*
X-72726Y-40795D01*
X-75756Y-40795D01*
X-76388Y-40163D01*
X-76395Y-40159D01*
X-76400Y-40152D01*
X-76478Y-40104D01*
X-76554Y-40053D01*
X-76562Y-40052D01*
X-76569Y-40047D01*
X-76659Y-40034D01*
X-76749Y-40017D01*
X-76758Y-40019D01*
X-76766Y-40018D01*
X-76854Y-40040D01*
X-76943Y-40060D01*
X-76950Y-40065D01*
X-76958Y-40067D01*
X-77094Y-40163D01*
X-77726Y-40795D01*
X-80947Y-40795D01*
X-80955Y-40796D01*
X-80964Y-40795D01*
X-81052Y-40816D01*
X-81142Y-40834D01*
X-81149Y-40839D01*
X-81157Y-40841D01*
X-81230Y-40895D01*
X-81306Y-40947D01*
X-81310Y-40954D01*
X-81317Y-40959D01*
X-81364Y-41037D01*
X-81413Y-41114D01*
X-81414Y-41123D01*
X-81419Y-41130D01*
X-81446Y-41294D01*
X-81446Y-51809D01*
X-81444Y-51821D01*
X-81446Y-51833D01*
X-81424Y-51918D01*
X-81407Y-52003D01*
X-81400Y-52014D01*
X-81396Y-52026D01*
X-81300Y-52162D01*
X-78358Y-55103D01*
X-78358Y-63846D01*
X-78356Y-63858D01*
X-78358Y-63870D01*
X-78336Y-63955D01*
X-78319Y-64040D01*
X-78312Y-64051D01*
X-78308Y-64063D01*
X-78212Y-64199D01*
X-77779Y-64631D01*
X-77772Y-64636D01*
X-77768Y-64643D01*
X-77690Y-64690D01*
X-77614Y-64741D01*
X-77605Y-64743D01*
X-77598Y-64747D01*
X-77508Y-64761D01*
X-77418Y-64777D01*
X-77410Y-64776D01*
X-77402Y-64777D01*
X-77314Y-64754D01*
X-77224Y-64735D01*
X-77217Y-64730D01*
X-77209Y-64728D01*
X-77073Y-64631D01*
X-76385Y-63943D01*
X-75444Y-63400D01*
X-74394Y-63118D01*
X-73262Y-63118D01*
X-73262Y-68334D01*
X-73260Y-68342D01*
X-73262Y-68350D01*
X-73241Y-68439D01*
X-73223Y-68529D01*
X-73218Y-68536D01*
X-73216Y-68544D01*
X-73162Y-68617D01*
X-73110Y-68693D01*
X-73103Y-68697D01*
X-73098Y-68704D01*
X-73020Y-68750D01*
X-72942Y-68800D01*
X-72934Y-68801D01*
X-72927Y-68805D01*
X-72763Y-68833D01*
X-72262Y-68833D01*
X-72262Y-68835D01*
X-72763Y-68835D01*
X-72771Y-68837D01*
X-72779Y-68835D01*
X-72868Y-68856D01*
X-72958Y-68874D01*
X-72965Y-68879D01*
X-72973Y-68881D01*
X-73046Y-68935D01*
X-73122Y-68987D01*
X-73126Y-68994D01*
X-73133Y-68999D01*
X-73179Y-69077D01*
X-73229Y-69155D01*
X-73230Y-69163D01*
X-73234Y-69170D01*
X-73262Y-69334D01*
X-73262Y-74550D01*
X-74394Y-74550D01*
X-75444Y-74268D01*
X-76385Y-73725D01*
X-77073Y-73037D01*
X-77080Y-73032D01*
X-77085Y-73025D01*
X-77163Y-72977D01*
X-77239Y-72927D01*
X-77247Y-72925D01*
X-77255Y-72921D01*
X-77345Y-72907D01*
X-77435Y-72891D01*
X-77443Y-72892D01*
X-77451Y-72891D01*
X-77539Y-72914D01*
X-77629Y-72933D01*
X-77636Y-72938D01*
X-77644Y-72940D01*
X-77779Y-73037D01*
X-78212Y-73469D01*
X-78219Y-73480D01*
X-78229Y-73487D01*
X-78274Y-73562D01*
X-78322Y-73635D01*
X-78324Y-73648D01*
X-78331Y-73658D01*
X-78358Y-73822D01*
X-78358Y-97798D01*
X-78357Y-97806D01*
X-78358Y-97815D01*
X-78337Y-97903D01*
X-78319Y-97993D01*
X-78314Y-98000D01*
X-78312Y-98008D01*
X-78258Y-98081D01*
X-78206Y-98157D01*
X-78199Y-98161D01*
X-78194Y-98168D01*
X-78116Y-98215D01*
X-78039Y-98264D01*
X-78030Y-98265D01*
X-78023Y-98270D01*
X-77859Y-98297D01*
X-64773Y-98297D01*
X-63880Y-99190D01*
X-63880Y-110614D01*
X-64773Y-111507D01*
X-86357Y-111507D01*
X-87250Y-110614D01*
X-87250Y-99190D01*
X-86357Y-98297D01*
X-84447Y-98297D01*
X-84439Y-98296D01*
X-84430Y-98297D01*
X-84342Y-98276D01*
X-84252Y-98258D01*
X-84245Y-98253D01*
X-84237Y-98251D01*
X-84164Y-98197D01*
X-84088Y-98145D01*
X-84084Y-98138D01*
X-84077Y-98133D01*
X-84030Y-98055D01*
X-83981Y-97978D01*
X-83980Y-97969D01*
X-83975Y-97962D01*
X-83948Y-97798D01*
X-83948Y-73822D01*
X-83950Y-73810D01*
X-83948Y-73798D01*
X-83970Y-73713D01*
X-83987Y-73628D01*
X-83994Y-73617D01*
X-83998Y-73605D01*
X-84094Y-73469D01*
X-85853Y-71711D01*
X-85853Y-65957D01*
X-84094Y-64199D01*
X-84087Y-64188D01*
X-84077Y-64181D01*
X-84032Y-64106D01*
X-83984Y-64033D01*
X-83982Y-64020D01*
X-83975Y-64010D01*
X-83948Y-63846D01*
X-83948Y-57625D01*
X-83950Y-57613D01*
X-83948Y-57601D01*
X-83970Y-57516D01*
X-83987Y-57431D01*
X-83994Y-57420D01*
X-83998Y-57408D01*
X-84094Y-57272D01*
X-86261Y-55105D01*
X-86268Y-55101D01*
X-86273Y-55094D01*
X-86350Y-55046D01*
X-86427Y-54996D01*
X-86435Y-54994D01*
X-86442Y-54990D01*
X-86532Y-54976D01*
X-86622Y-54959D01*
X-86630Y-54961D01*
X-86639Y-54960D01*
X-86727Y-54982D01*
X-86816Y-55002D01*
X-86823Y-55007D01*
X-86831Y-55009D01*
X-86967Y-55105D01*
X-89388Y-57526D01*
X-89395Y-57537D01*
X-89405Y-57544D01*
X-89450Y-57619D01*
X-89498Y-57692D01*
X-89500Y-57705D01*
X-89507Y-57715D01*
X-89534Y-57879D01*
X-89534Y-63973D01*
X-89533Y-63979D01*
X-89534Y-63986D01*
X-89533Y-63991D01*
X-89534Y-63997D01*
X-89512Y-64082D01*
X-89495Y-64167D01*
X-89489Y-64176D01*
X-89488Y-64180D01*
X-89487Y-64181D01*
X-89484Y-64190D01*
X-89388Y-64326D01*
X-87629Y-66084D01*
X-87629Y-71838D01*
X-89388Y-73596D01*
X-89395Y-73607D01*
X-89405Y-73614D01*
X-89450Y-73689D01*
X-89498Y-73762D01*
X-89500Y-73774D01*
X-89501Y-73775D01*
X-89501Y-73776D01*
X-89507Y-73785D01*
X-89534Y-73949D01*
X-89534Y-115476D01*
X-89532Y-115488D01*
X-89534Y-115500D01*
X-89512Y-115585D01*
X-89495Y-115670D01*
X-89488Y-115681D01*
X-89484Y-115693D01*
X-89388Y-115829D01*
X-81666Y-123551D01*
X-81655Y-123558D01*
X-81648Y-123568D01*
X-81573Y-123613D01*
X-81500Y-123661D01*
X-81487Y-123663D01*
X-81477Y-123670D01*
X-81313Y-123697D01*
X-64773Y-123697D01*
X-63880Y-124590D01*
X-63880Y-136014D01*
X-64773Y-136907D01*
X-86357Y-136907D01*
X-87250Y-136014D01*
X-87250Y-126078D01*
X-87252Y-126066D01*
X-87250Y-126054D01*
X-87272Y-125969D01*
X-87289Y-125884D01*
X-87296Y-125873D01*
X-87300Y-125861D01*
X-87396Y-125725D01*
X-95124Y-117998D01*
X-95124Y-73949D01*
X-95125Y-73944D01*
X-95124Y-73938D01*
X-95125Y-73932D01*
X-95124Y-73925D01*
X-95146Y-73840D01*
X-95163Y-73755D01*
X-95170Y-73745D01*
X-95170Y-73744D01*
X-95174Y-73732D01*
X-95270Y-73596D01*
X-95703Y-73164D01*
X-95710Y-73159D01*
X-95714Y-73152D01*
X-95792Y-73105D01*
X-95868Y-73054D01*
X-95877Y-73052D01*
X-95884Y-73048D01*
X-95974Y-73034D01*
X-96064Y-73018D01*
X-96072Y-73019D01*
X-96080Y-73018D01*
X-96168Y-73041D01*
X-96258Y-73060D01*
X-96265Y-73065D01*
X-96273Y-73067D01*
X-96409Y-73164D01*
X-97097Y-73852D01*
X-98038Y-74395D01*
X-99088Y-74677D01*
X-100220Y-74677D01*
X-100220Y-69461D01*
X-100221Y-69453D01*
X-100220Y-69445D01*
X-100241Y-69356D01*
X-100259Y-69266D01*
X-100264Y-69259D01*
X-100266Y-69251D01*
X-100320Y-69178D01*
X-100372Y-69102D01*
X-100379Y-69098D01*
X-100384Y-69091D01*
X-100462Y-69045D01*
X-100539Y-68995D01*
X-100548Y-68994D01*
X-100555Y-68990D01*
X-100719Y-68962D01*
X-101220Y-68962D01*
X-101220Y-68960D01*
X-100719Y-68960D01*
X-100711Y-68958D01*
X-100703Y-68960D01*
X-100614Y-68939D01*
X-100524Y-68921D01*
X-100517Y-68916D01*
X-100509Y-68914D01*
X-100436Y-68860D01*
X-100360Y-68808D01*
X-100356Y-68801D01*
X-100349Y-68796D01*
X-100303Y-68718D01*
X-100253Y-68640D01*
X-100252Y-68632D01*
X-100248Y-68625D01*
X-100220Y-68461D01*
X-100220Y-63245D01*
X-99088Y-63245D01*
X-98038Y-63527D01*
X-97097Y-64070D01*
X-96409Y-64758D01*
X-96402Y-64763D01*
X-96397Y-64770D01*
X-96319Y-64817D01*
X-96243Y-64868D01*
X-96235Y-64870D01*
X-96227Y-64874D01*
X-96137Y-64888D01*
X-96047Y-64904D01*
X-96039Y-64903D01*
X-96031Y-64904D01*
X-95943Y-64881D01*
X-95853Y-64862D01*
X-95846Y-64857D01*
X-95838Y-64855D01*
X-95703Y-64758D01*
X-95270Y-64326D01*
X-95263Y-64315D01*
X-95253Y-64308D01*
X-95208Y-64233D01*
X-95160Y-64160D01*
X-95159Y-64151D01*
X-95157Y-64149D01*
X-95156Y-64145D01*
X-95151Y-64137D01*
X-95124Y-63973D01*
X-95124Y-55357D01*
X-92182Y-52416D01*
X-92175Y-52405D01*
X-92165Y-52398D01*
X-92120Y-52323D01*
X-92072Y-52250D01*
X-92070Y-52237D01*
X-92063Y-52227D01*
X-92036Y-52063D01*
X-92036Y-41294D01*
X-92037Y-41286D01*
X-92036Y-41278D01*
X-92057Y-41189D01*
X-92075Y-41099D01*
X-92080Y-41092D01*
X-92082Y-41084D01*
X-92136Y-41011D01*
X-92188Y-40935D01*
X-92195Y-40931D01*
X-92200Y-40924D01*
X-92278Y-40878D01*
X-92355Y-40828D01*
X-92364Y-40827D01*
X-92371Y-40823D01*
X-92535Y-40795D01*
X-95947Y-40795D01*
X-95955Y-40796D01*
X-95964Y-40795D01*
X-96052Y-40816D01*
X-96142Y-40834D01*
X-96149Y-40839D01*
X-96157Y-40841D01*
X-96230Y-40895D01*
X-96306Y-40947D01*
X-96310Y-40954D01*
X-96317Y-40959D01*
X-96364Y-41037D01*
X-96413Y-41114D01*
X-96414Y-41123D01*
X-96419Y-41130D01*
X-96446Y-41294D01*
X-96446Y-57016D01*
X-102072Y-62641D01*
X-102079Y-62652D01*
X-102089Y-62659D01*
X-102133Y-62734D01*
X-102182Y-62807D01*
X-102184Y-62819D01*
X-102190Y-62830D01*
X-102218Y-62994D01*
X-102218Y-67962D01*
X-107186Y-67962D01*
X-107198Y-67964D01*
X-107210Y-67962D01*
X-107295Y-67984D01*
X-107381Y-68001D01*
X-107391Y-68009D01*
X-107403Y-68012D01*
X-107539Y-68108D01*
X-119187Y-79757D01*
X-198389Y-79757D01*
X-235862Y-42283D01*
X-235873Y-42276D01*
X-235880Y-42266D01*
X-235955Y-42221D01*
X-236028Y-42173D01*
X-236041Y-42171D01*
X-236051Y-42164D01*
X-236215Y-42137D01*
X-238843Y-42137D01*
X-241146Y-39833D01*
X-241150Y-39831D01*
X-241152Y-39828D01*
X-241232Y-39777D01*
X-241312Y-39724D01*
X-241316Y-39723D01*
X-241319Y-39721D01*
X-241413Y-39705D01*
X-241507Y-39687D01*
X-241511Y-39688D01*
X-241516Y-39687D01*
X-241607Y-39709D01*
X-241701Y-39730D01*
X-241705Y-39733D01*
X-241709Y-39734D01*
X-241785Y-39790D01*
X-241864Y-39845D01*
X-241866Y-39849D01*
X-241869Y-39851D01*
X-241918Y-39933D01*
X-241968Y-40015D01*
X-241968Y-40019D01*
X-241971Y-40022D01*
X-241998Y-40186D01*
X-241998Y-67495D01*
X-241983Y-67570D01*
X-241975Y-67645D01*
X-241963Y-67666D01*
X-241959Y-67690D01*
X-241916Y-67753D01*
X-241879Y-67819D01*
X-241860Y-67834D01*
X-241846Y-67854D01*
X-241782Y-67895D01*
X-241722Y-67942D01*
X-241696Y-67949D01*
X-241679Y-67961D01*
X-241635Y-67968D01*
X-241563Y-67990D01*
X-240706Y-68101D01*
X-239747Y-68224D01*
X-238031Y-68671D01*
X-238031Y-71364D01*
X-240637Y-70692D01*
X-240672Y-70690D01*
X-240719Y-70678D01*
X-243890Y-70408D01*
X-243919Y-70411D01*
X-243949Y-70406D01*
X-244017Y-70422D01*
X-244087Y-70430D01*
X-244113Y-70445D01*
X-244142Y-70452D01*
X-244199Y-70494D01*
X-244260Y-70529D01*
X-244278Y-70552D01*
X-244302Y-70570D01*
X-244338Y-70630D01*
X-244381Y-70687D01*
X-244388Y-70715D01*
X-244404Y-70741D01*
X-244420Y-70837D01*
X-244431Y-70879D01*
X-244429Y-70891D01*
X-244431Y-70905D01*
X-244431Y-89616D01*
X-260681Y-98972D01*
X-260703Y-98992D01*
X-260730Y-99004D01*
X-260777Y-99057D01*
X-260830Y-99104D01*
X-260843Y-99130D01*
X-260863Y-99152D01*
X-260886Y-99219D01*
X-260916Y-99283D01*
X-260918Y-99313D01*
X-260927Y-99340D01*
X-260922Y-99411D01*
X-260925Y-99482D01*
X-260915Y-99510D01*
X-260913Y-99539D01*
X-260872Y-99627D01*
X-260869Y-99638D01*
X-260866Y-99642D01*
X-260856Y-99668D01*
X-260848Y-99677D01*
X-260842Y-99689D01*
X-259029Y-102304D01*
X-259004Y-102329D01*
X-258976Y-102369D01*
X-256753Y-104645D01*
X-256724Y-104665D01*
X-256690Y-104700D01*
X-254117Y-106573D01*
X-254086Y-106588D01*
X-254046Y-106616D01*
X-251198Y-108035D01*
X-251164Y-108044D01*
X-251120Y-108066D01*
X-248075Y-108989D01*
X-248040Y-108992D01*
X-247993Y-109006D01*
X-244837Y-109409D01*
X-244802Y-109406D01*
X-244753Y-109413D01*
X-241574Y-109283D01*
X-241540Y-109275D01*
X-241491Y-109273D01*
X-238378Y-108615D01*
X-238346Y-108601D01*
X-238298Y-108591D01*
X-238031Y-108486D01*
X-238031Y-111191D01*
X-240489Y-111743D01*
X-243280Y-112006D01*
X-246082Y-111914D01*
X-248849Y-111468D01*
X-251538Y-110675D01*
X-254104Y-109548D01*
X-256508Y-108105D01*
X-258709Y-106370D01*
X-260673Y-104370D01*
X-261847Y-102823D01*
X-261905Y-102772D01*
X-261957Y-102717D01*
X-261979Y-102707D01*
X-261996Y-102692D01*
X-262069Y-102668D01*
X-262140Y-102637D01*
X-262163Y-102637D01*
X-262185Y-102629D01*
X-262262Y-102636D01*
X-262339Y-102635D01*
X-262363Y-102644D01*
X-262383Y-102646D01*
X-262422Y-102666D01*
X-262494Y-102693D01*
X-293758Y-120781D01*
X-293824Y-120840D01*
X-293893Y-120896D01*
X-293898Y-120906D01*
X-293906Y-120913D01*
X-293945Y-120993D01*
X-293986Y-121072D01*
X-293987Y-121083D01*
X-293992Y-121092D01*
X-293996Y-121181D01*
X-294004Y-121270D01*
X-294000Y-121281D01*
X-294001Y-121291D01*
X-293986Y-121329D01*
X-293957Y-121430D01*
X-293485Y-122408D01*
X-293440Y-122468D01*
X-293401Y-122532D01*
X-293378Y-122549D01*
X-293365Y-122567D01*
X-293327Y-122588D01*
X-293269Y-122633D01*
X-293261Y-122637D01*
X-293070Y-123257D01*
X-293054Y-123285D01*
X-293042Y-123327D01*
X-292760Y-123912D01*
X-292763Y-123919D01*
X-292773Y-123994D01*
X-292790Y-124067D01*
X-292787Y-124095D01*
X-292790Y-124116D01*
X-292778Y-124159D01*
X-292769Y-124231D01*
X-292069Y-126496D01*
X-292033Y-126561D01*
X-292003Y-126631D01*
X-291984Y-126651D01*
X-291973Y-126670D01*
X-291939Y-126698D01*
X-291888Y-126750D01*
X-291881Y-126755D01*
X-291784Y-127397D01*
X-291773Y-127427D01*
X-291767Y-127470D01*
X-291576Y-128091D01*
X-291579Y-128098D01*
X-291600Y-128170D01*
X-291629Y-128239D01*
X-291629Y-128267D01*
X-291635Y-128289D01*
X-291630Y-128332D01*
X-291631Y-128406D01*
X-291277Y-130749D01*
X-291251Y-130819D01*
X-291232Y-130892D01*
X-291216Y-130915D01*
X-291208Y-130936D01*
X-291178Y-130968D01*
X-291136Y-131027D01*
X-291130Y-131033D01*
X-291130Y-131683D01*
X-291123Y-131714D01*
X-291124Y-131757D01*
X-291027Y-132399D01*
X-291032Y-132406D01*
X-291063Y-132474D01*
X-291102Y-132538D01*
X-291106Y-132566D01*
X-291116Y-132586D01*
X-291117Y-132630D01*
X-291129Y-132702D01*
X-291128Y-135073D01*
X-291113Y-135146D01*
X-291105Y-135221D01*
X-291092Y-135246D01*
X-291088Y-135267D01*
X-291063Y-135304D01*
X-291030Y-135369D01*
X-291025Y-135376D01*
X-291122Y-136018D01*
X-291120Y-136050D01*
X-291127Y-136092D01*
X-291127Y-136742D01*
X-291133Y-136747D01*
X-291174Y-136810D01*
X-291221Y-136868D01*
X-291230Y-136895D01*
X-291242Y-136913D01*
X-291250Y-136957D01*
X-291273Y-137026D01*
X-291625Y-139370D01*
X-291621Y-139445D01*
X-291625Y-139520D01*
X-291616Y-139547D01*
X-291615Y-139569D01*
X-291595Y-139608D01*
X-291572Y-139678D01*
X-291569Y-139685D01*
X-291760Y-140306D01*
X-291763Y-140337D01*
X-291776Y-140379D01*
X-291873Y-141021D01*
X-291879Y-141026D01*
X-291929Y-141081D01*
X-291985Y-141132D01*
X-291998Y-141157D01*
X-292012Y-141173D01*
X-292027Y-141215D01*
X-292060Y-141280D01*
X-292757Y-143546D01*
X-292764Y-143620D01*
X-292779Y-143694D01*
X-292774Y-143722D01*
X-292776Y-143743D01*
X-292763Y-143785D01*
X-292751Y-143858D01*
X-292748Y-143865D01*
X-293030Y-144451D01*
X-293037Y-144481D01*
X-293057Y-144520D01*
X-293248Y-145141D01*
X-293255Y-145145D01*
X-293313Y-145192D01*
X-293375Y-145234D01*
X-293392Y-145257D01*
X-293409Y-145271D01*
X-293429Y-145310D01*
X-293471Y-145370D01*
X-294499Y-147506D01*
X-294517Y-147578D01*
X-294542Y-147649D01*
X-294542Y-147677D01*
X-294547Y-147698D01*
X-294541Y-147742D01*
X-294539Y-147815D01*
X-294538Y-147823D01*
X-294903Y-148360D01*
X-294915Y-148389D01*
X-294940Y-148425D01*
X-295222Y-149010D01*
X-295229Y-149013D01*
X-295294Y-149051D01*
X-295362Y-149083D01*
X-295381Y-149103D01*
X-295400Y-149114D01*
X-295426Y-149150D01*
X-295477Y-149203D01*
X-296811Y-151162D01*
X-296840Y-151231D01*
X-296876Y-151297D01*
X-296879Y-151325D01*
X-296888Y-151345D01*
X-296888Y-151389D01*
X-296897Y-151462D01*
X-296897Y-151470D01*
X-297338Y-151946D01*
X-297355Y-151974D01*
X-297385Y-152005D01*
X-297750Y-152542D01*
X-297758Y-152543D01*
X-297828Y-152571D01*
X-297900Y-152593D01*
X-297922Y-152610D01*
X-297942Y-152618D01*
X-297973Y-152650D01*
X-298031Y-152694D01*
X-299643Y-154433D01*
X-299682Y-154497D01*
X-299727Y-154557D01*
X-299734Y-154584D01*
X-299746Y-154602D01*
X-299752Y-154646D01*
X-299773Y-154716D01*
X-299773Y-154724D01*
X-300281Y-155130D01*
X-300301Y-155154D01*
X-300336Y-155180D01*
X-300777Y-155657D01*
X-300785Y-155657D01*
X-300858Y-155675D01*
X-300932Y-155685D01*
X-300957Y-155699D01*
X-300978Y-155704D01*
X-301014Y-155731D01*
X-301078Y-155766D01*
X-302930Y-157245D01*
X-302978Y-157302D01*
X-303032Y-157355D01*
X-303043Y-157380D01*
X-303057Y-157397D01*
X-303070Y-157440D01*
X-303101Y-157506D01*
X-303103Y-157514D01*
X-303665Y-157839D01*
X-303689Y-157860D01*
X-303727Y-157881D01*
X-304234Y-158286D01*
X-304242Y-158285D01*
X-304317Y-158292D01*
X-304392Y-158291D01*
X-304418Y-158301D01*
X-304440Y-158303D01*
X-304479Y-158324D01*
X-304548Y-158349D01*
X-306600Y-159536D01*
X-306656Y-159585D01*
X-306717Y-159629D01*
X-306732Y-159653D01*
X-306749Y-159668D01*
X-306768Y-159707D01*
X-306808Y-159769D01*
X-306811Y-159776D01*
X-307415Y-160014D01*
X-307442Y-160031D01*
X-307482Y-160046D01*
X-308045Y-160371D01*
X-308053Y-160369D01*
X-308128Y-160365D01*
X-308201Y-160353D01*
X-308229Y-160358D01*
X-308251Y-160357D01*
X-308293Y-160372D01*
X-308364Y-160387D01*
X-310570Y-161254D01*
X-310633Y-161295D01*
X-310700Y-161329D01*
X-310718Y-161350D01*
X-310737Y-161362D01*
X-310762Y-161399D01*
X-310810Y-161453D01*
X-310815Y-161460D01*
X-311448Y-161605D01*
X-311477Y-161618D01*
X-311519Y-161627D01*
X-312124Y-161865D01*
X-312131Y-161862D01*
X-312147Y-161858D01*
X-312160Y-161850D01*
X-312224Y-161840D01*
X-312276Y-161823D01*
X-312304Y-161825D01*
X-312325Y-161820D01*
X-312339Y-161823D01*
X-312342Y-161823D01*
X-312371Y-161829D01*
X-312442Y-161833D01*
X-314752Y-162361D01*
X-314820Y-162392D01*
X-314891Y-162416D01*
X-314913Y-162434D01*
X-314933Y-162443D01*
X-314963Y-162476D01*
X-315019Y-162523D01*
X-315025Y-162529D01*
X-315672Y-162578D01*
X-315703Y-162586D01*
X-315746Y-162589D01*
X-316379Y-162734D01*
X-316386Y-162729D01*
X-316456Y-162703D01*
X-316523Y-162670D01*
X-316552Y-162667D01*
X-316572Y-162659D01*
X-316616Y-162661D01*
X-316689Y-162655D01*
X-319052Y-162833D01*
X-319125Y-162854D01*
X-319198Y-162867D01*
X-319223Y-162881D01*
X-319244Y-162887D01*
X-319278Y-162915D01*
X-319341Y-162953D01*
X-319347Y-162958D01*
X-319995Y-162910D01*
X-320026Y-162914D01*
X-320069Y-162910D01*
X-320717Y-162959D01*
X-320723Y-162954D01*
X-320789Y-162917D01*
X-320850Y-162874D01*
X-320877Y-162867D01*
X-320897Y-162857D01*
X-320941Y-162852D01*
X-321011Y-162834D01*
X-323375Y-162659D01*
X-323449Y-162668D01*
X-323524Y-162670D01*
X-323550Y-162681D01*
X-323572Y-162684D01*
X-323610Y-162706D01*
X-323678Y-162734D01*
X-323685Y-162738D01*
X-324318Y-162594D01*
X-324350Y-162593D01*
X-324392Y-162583D01*
X-325040Y-162535D01*
X-325045Y-162529D01*
X-325104Y-162483D01*
X-325159Y-162431D01*
X-325185Y-162420D01*
X-325202Y-162407D01*
X-325245Y-162396D01*
X-325312Y-162368D01*
X-327623Y-161842D01*
X-327699Y-161840D01*
X-327773Y-161831D01*
X-327800Y-161838D01*
X-327822Y-161837D01*
X-327863Y-161853D01*
X-327934Y-161871D01*
X-327942Y-161874D01*
X-328546Y-161637D01*
X-328578Y-161632D01*
X-328618Y-161615D01*
X-329251Y-161471D01*
X-329255Y-161464D01*
X-329307Y-161410D01*
X-329353Y-161351D01*
X-329377Y-161337D01*
X-329393Y-161321D01*
X-329433Y-161303D01*
X-329496Y-161265D01*
X-331703Y-160401D01*
X-331776Y-160388D01*
X-331849Y-160368D01*
X-331877Y-160371D01*
X-331898Y-160367D01*
X-331941Y-160377D01*
X-332014Y-160384D01*
X-332022Y-160386D01*
X-332585Y-160061D01*
X-332615Y-160051D01*
X-332652Y-160029D01*
X-333257Y-159792D01*
X-333260Y-159785D01*
X-333303Y-159723D01*
X-333340Y-159658D01*
X-333362Y-159640D01*
X-333374Y-159622D01*
X-333412Y-159599D01*
X-333468Y-159552D01*
X-335521Y-158368D01*
X-335592Y-158344D01*
X-335661Y-158314D01*
X-335689Y-158312D01*
X-335710Y-158305D01*
X-335754Y-158309D01*
X-335827Y-158305D01*
X-335835Y-158306D01*
X-336343Y-157901D01*
X-336372Y-157886D01*
X-336405Y-157859D01*
X-336968Y-157534D01*
X-336970Y-157527D01*
X-337003Y-157460D01*
X-337030Y-157389D01*
X-337049Y-157368D01*
X-337058Y-157349D01*
X-337092Y-157320D01*
X-337141Y-157266D01*
X-338995Y-155789D01*
X-339061Y-155755D01*
X-339124Y-155714D01*
X-339152Y-155709D01*
X-339172Y-155699D01*
X-339216Y-155695D01*
X-339287Y-155681D01*
X-339296Y-155680D01*
X-339738Y-155204D01*
X-339764Y-155186D01*
X-339792Y-155154D01*
X-340300Y-154749D01*
X-340301Y-154741D01*
X-340324Y-154670D01*
X-340340Y-154596D01*
X-340356Y-154573D01*
X-340363Y-154552D01*
X-340391Y-154519D01*
X-340432Y-154457D01*
X-342045Y-152721D01*
X-342106Y-152677D01*
X-342162Y-152628D01*
X-342188Y-152618D01*
X-342206Y-152605D01*
X-342250Y-152595D01*
X-342318Y-152570D01*
X-342326Y-152569D01*
X-342692Y-152032D01*
X-342715Y-152010D01*
X-342739Y-151974D01*
X-343181Y-151498D01*
X-343181Y-151490D01*
X-343193Y-151416D01*
X-343198Y-151341D01*
X-343209Y-151315D01*
X-343213Y-151294D01*
X-343236Y-151257D01*
X-343267Y-151190D01*
X-343869Y-150308D01*
X-343933Y-150245D01*
X-343995Y-150181D01*
X-344005Y-150176D01*
X-344012Y-150169D01*
X-344095Y-150137D01*
X-344177Y-150101D01*
X-344188Y-150101D01*
X-344197Y-150097D01*
X-344287Y-150100D01*
X-344376Y-150099D01*
X-344387Y-150103D01*
X-344396Y-150103D01*
X-344433Y-150120D01*
X-344532Y-150157D01*
X-375565Y-168112D01*
X-375570Y-168116D01*
X-375576Y-168118D01*
X-375644Y-168182D01*
X-375714Y-168244D01*
X-375717Y-168249D01*
X-375721Y-168253D01*
X-375760Y-168339D01*
X-375800Y-168423D01*
X-375800Y-168429D01*
X-375803Y-168435D01*
X-375804Y-168529D01*
X-375809Y-168622D01*
X-375806Y-168628D01*
X-375807Y-168634D01*
X-375750Y-168790D01*
X-374886Y-170316D01*
X-373851Y-172900D01*
X-373173Y-175601D01*
X-372863Y-178368D01*
X-372927Y-181152D01*
X-372938Y-181223D01*
X-375589Y-181223D01*
X-375434Y-179416D01*
X-375436Y-179383D01*
X-375433Y-179291D01*
X-375654Y-176467D01*
X-375661Y-176435D01*
X-375673Y-176344D01*
X-376351Y-173593D01*
X-376363Y-173563D01*
X-376389Y-173480D01*
X-376389Y-173479D01*
X-376389Y-173478D01*
X-376390Y-173475D01*
X-377506Y-170871D01*
X-377523Y-170844D01*
X-377564Y-170761D01*
X-379088Y-168373D01*
X-379092Y-168370D01*
X-379094Y-168365D01*
X-379174Y-168278D01*
X-379253Y-168190D01*
X-379257Y-168188D01*
X-379260Y-168184D01*
X-379363Y-168128D01*
X-379466Y-168069D01*
X-379471Y-168068D01*
X-379476Y-168066D01*
X-379591Y-168045D01*
X-379708Y-168022D01*
X-379713Y-168023D01*
X-379718Y-168022D01*
X-379834Y-168039D01*
X-379952Y-168055D01*
X-379956Y-168057D01*
X-379961Y-168058D01*
X-380114Y-168126D01*
X-395100Y-176889D01*
X-395151Y-176931D01*
X-395207Y-176964D01*
X-395245Y-177009D01*
X-395290Y-177046D01*
X-395324Y-177101D01*
X-395367Y-177151D01*
X-395389Y-177205D01*
X-395419Y-177255D01*
X-395434Y-177319D01*
X-395459Y-177379D01*
X-395468Y-177462D01*
X-395476Y-177494D01*
X-395474Y-177514D01*
X-395477Y-177546D01*
X-395477Y-196596D01*
X-395473Y-196621D01*
X-395476Y-196646D01*
X-395453Y-196742D01*
X-395438Y-196839D01*
X-395426Y-196861D01*
X-395420Y-196886D01*
X-395368Y-196970D01*
X-395322Y-197056D01*
X-395304Y-197074D01*
X-395291Y-197095D01*
X-395215Y-197158D01*
X-395144Y-197226D01*
X-395121Y-197236D01*
X-395102Y-197252D01*
X-395010Y-197288D01*
X-394921Y-197329D01*
X-394896Y-197332D01*
X-394872Y-197341D01*
X-394705Y-197357D01*
X-391872Y-197317D01*
G37*
%LPC*%
G36*
X-272664Y-189894D02*
X-272664Y-189894D01*
X-279018Y-184172D01*
X-282496Y-176360D01*
X-282496Y-167810D01*
X-279018Y-159998D01*
X-272664Y-154276D01*
X-264531Y-151634D01*
X-256028Y-152528D01*
X-248622Y-156803D01*
X-243596Y-163721D01*
X-241818Y-172085D01*
X-243596Y-180449D01*
X-248622Y-187367D01*
X-256028Y-191642D01*
X-264531Y-192536D01*
X-272664Y-189894D01*
G37*
%LPD*%
%LPC*%
G36*
X52456Y-190021D02*
X52456Y-190021D01*
X46102Y-184299D01*
X42624Y-176487D01*
X42624Y-167937D01*
X46102Y-160125D01*
X52456Y-154403D01*
X60589Y-151761D01*
X69092Y-152655D01*
X76498Y-156930D01*
X81524Y-163848D01*
X83302Y-172212D01*
X81524Y-180576D01*
X76498Y-187494D01*
X69092Y-191769D01*
X60589Y-192663D01*
X52456Y-190021D01*
G37*
%LPD*%
%LPC*%
G36*
X-272537Y148942D02*
X-272537Y148942D01*
X-278891Y154664D01*
X-282369Y162476D01*
X-282369Y171026D01*
X-278891Y178838D01*
X-272537Y184560D01*
X-264404Y187202D01*
X-255901Y186308D01*
X-248495Y182033D01*
X-243469Y175115D01*
X-241691Y166751D01*
X-243469Y158387D01*
X-248495Y151469D01*
X-255901Y147194D01*
X-264404Y146300D01*
X-272537Y148942D01*
G37*
%LPD*%
%LPC*%
G36*
X52202Y149069D02*
X52202Y149069D01*
X45848Y154791D01*
X42370Y162603D01*
X42370Y171153D01*
X45848Y178965D01*
X52202Y184687D01*
X60335Y187329D01*
X68838Y186435D01*
X76244Y182160D01*
X81270Y175242D01*
X83048Y166878D01*
X81270Y158514D01*
X76244Y151596D01*
X68838Y147321D01*
X60335Y146427D01*
X52202Y149069D01*
G37*
%LPD*%
%LPC*%
G36*
X-158028Y-183516D02*
X-158028Y-183516D01*
X-161623Y-182027D01*
X-164374Y-179276D01*
X-165863Y-175681D01*
X-165863Y-171791D01*
X-164853Y-169354D01*
X-164851Y-169344D01*
X-164846Y-169335D01*
X-164832Y-169246D01*
X-164815Y-169159D01*
X-164818Y-169148D01*
X-164816Y-169138D01*
X-164838Y-169052D01*
X-164857Y-168964D01*
X-164863Y-168956D01*
X-164865Y-168945D01*
X-164962Y-168810D01*
X-167260Y-166512D01*
X-167260Y-137406D01*
X-167261Y-137398D01*
X-167260Y-137389D01*
X-167281Y-137301D01*
X-167299Y-137211D01*
X-167304Y-137204D01*
X-167306Y-137196D01*
X-167360Y-137123D01*
X-167412Y-137047D01*
X-167419Y-137043D01*
X-167424Y-137036D01*
X-167502Y-136989D01*
X-167579Y-136940D01*
X-167588Y-136939D01*
X-167595Y-136934D01*
X-167759Y-136907D01*
X-175257Y-136907D01*
X-176150Y-136014D01*
X-176150Y-124590D01*
X-175257Y-123697D01*
X-167759Y-123697D01*
X-167751Y-123696D01*
X-167742Y-123697D01*
X-167654Y-123676D01*
X-167564Y-123658D01*
X-167557Y-123653D01*
X-167549Y-123651D01*
X-167476Y-123597D01*
X-167400Y-123545D01*
X-167396Y-123538D01*
X-167389Y-123533D01*
X-167342Y-123455D01*
X-167293Y-123378D01*
X-167292Y-123369D01*
X-167287Y-123362D01*
X-167260Y-123198D01*
X-167260Y-112006D01*
X-167261Y-111998D01*
X-167260Y-111989D01*
X-167281Y-111901D01*
X-167299Y-111811D01*
X-167304Y-111804D01*
X-167306Y-111796D01*
X-167360Y-111723D01*
X-167412Y-111647D01*
X-167419Y-111643D01*
X-167424Y-111636D01*
X-167502Y-111589D01*
X-167579Y-111540D01*
X-167588Y-111539D01*
X-167595Y-111534D01*
X-167759Y-111507D01*
X-175257Y-111507D01*
X-176150Y-110614D01*
X-176150Y-108196D01*
X-176151Y-108188D01*
X-176150Y-108179D01*
X-176171Y-108091D01*
X-176189Y-108001D01*
X-176194Y-107994D01*
X-176196Y-107986D01*
X-176250Y-107913D01*
X-176302Y-107837D01*
X-176309Y-107833D01*
X-176314Y-107826D01*
X-176392Y-107779D01*
X-176469Y-107730D01*
X-176478Y-107729D01*
X-176485Y-107724D01*
X-176649Y-107697D01*
X-176693Y-107697D01*
X-176706Y-107699D01*
X-176718Y-107697D01*
X-176802Y-107719D01*
X-176888Y-107736D01*
X-176899Y-107743D01*
X-176911Y-107747D01*
X-177046Y-107843D01*
X-178424Y-109221D01*
X-182002Y-109221D01*
X-184532Y-106691D01*
X-184532Y-103113D01*
X-182002Y-100583D01*
X-178424Y-100583D01*
X-177046Y-101961D01*
X-177036Y-101968D01*
X-177028Y-101978D01*
X-176954Y-102023D01*
X-176881Y-102071D01*
X-176868Y-102073D01*
X-176857Y-102080D01*
X-176693Y-102107D01*
X-176649Y-102107D01*
X-176641Y-102106D01*
X-176632Y-102107D01*
X-176544Y-102086D01*
X-176454Y-102068D01*
X-176447Y-102063D01*
X-176439Y-102061D01*
X-176366Y-102007D01*
X-176290Y-101955D01*
X-176286Y-101948D01*
X-176279Y-101943D01*
X-176232Y-101865D01*
X-176183Y-101788D01*
X-176182Y-101779D01*
X-176177Y-101772D01*
X-176150Y-101608D01*
X-176150Y-99190D01*
X-175257Y-98297D01*
X-153673Y-98297D01*
X-152780Y-99190D01*
X-152780Y-110614D01*
X-153673Y-111507D01*
X-161171Y-111507D01*
X-161179Y-111508D01*
X-161188Y-111507D01*
X-161276Y-111528D01*
X-161366Y-111546D01*
X-161373Y-111551D01*
X-161381Y-111553D01*
X-161454Y-111607D01*
X-161530Y-111659D01*
X-161534Y-111666D01*
X-161541Y-111671D01*
X-161588Y-111749D01*
X-161637Y-111826D01*
X-161638Y-111835D01*
X-161643Y-111842D01*
X-161670Y-112006D01*
X-161670Y-123198D01*
X-161669Y-123206D01*
X-161670Y-123215D01*
X-161649Y-123303D01*
X-161631Y-123393D01*
X-161626Y-123400D01*
X-161624Y-123408D01*
X-161570Y-123481D01*
X-161518Y-123557D01*
X-161511Y-123561D01*
X-161506Y-123568D01*
X-161428Y-123615D01*
X-161351Y-123664D01*
X-161342Y-123665D01*
X-161335Y-123670D01*
X-161171Y-123697D01*
X-153673Y-123697D01*
X-152780Y-124590D01*
X-152780Y-136014D01*
X-153673Y-136907D01*
X-161171Y-136907D01*
X-161179Y-136908D01*
X-161188Y-136907D01*
X-161276Y-136928D01*
X-161366Y-136946D01*
X-161373Y-136951D01*
X-161381Y-136953D01*
X-161454Y-137007D01*
X-161530Y-137059D01*
X-161534Y-137066D01*
X-161541Y-137071D01*
X-161588Y-137149D01*
X-161637Y-137226D01*
X-161638Y-137235D01*
X-161643Y-137242D01*
X-161670Y-137406D01*
X-161670Y-163990D01*
X-161668Y-164002D01*
X-161670Y-164014D01*
X-161648Y-164099D01*
X-161631Y-164184D01*
X-161624Y-164195D01*
X-161620Y-164207D01*
X-161524Y-164343D01*
X-161009Y-164857D01*
X-161000Y-164863D01*
X-160994Y-164872D01*
X-160918Y-164918D01*
X-160843Y-164967D01*
X-160833Y-164969D01*
X-160824Y-164975D01*
X-160736Y-164987D01*
X-160648Y-165004D01*
X-160638Y-165001D01*
X-160627Y-165003D01*
X-160465Y-164966D01*
X-158028Y-163956D01*
X-154138Y-163956D01*
X-150543Y-165445D01*
X-147792Y-168196D01*
X-146303Y-171791D01*
X-146303Y-175681D01*
X-147792Y-179276D01*
X-150543Y-182027D01*
X-154138Y-183516D01*
X-158028Y-183516D01*
G37*
%LPD*%
G36*
X-243906Y-29402D02*
X-243906Y-29402D01*
X-243895Y-29403D01*
X-239871Y-29101D01*
X-239840Y-29093D01*
X-239797Y-29090D01*
X-235863Y-28192D01*
X-235834Y-28179D01*
X-235791Y-28170D01*
X-232035Y-26696D01*
X-232008Y-26679D01*
X-231968Y-26664D01*
X-228473Y-24646D01*
X-228449Y-24625D01*
X-228411Y-24604D01*
X-225256Y-22088D01*
X-225236Y-22063D01*
X-225201Y-22037D01*
X-222457Y-19079D01*
X-222440Y-19052D01*
X-222410Y-19020D01*
X-220137Y-15686D01*
X-220124Y-15657D01*
X-220100Y-15622D01*
X-218349Y-11986D01*
X-218341Y-11955D01*
X-218321Y-11916D01*
X-217132Y-8060D01*
X-217129Y-8029D01*
X-217115Y-7987D01*
X-216514Y-3997D01*
X-216515Y-3965D01*
X-216508Y-3923D01*
X-216508Y113D01*
X-216515Y144D01*
X-216514Y187D01*
X-217115Y4177D01*
X-217126Y4207D01*
X-217132Y4250D01*
X-218321Y8106D01*
X-218337Y8134D01*
X-218349Y8176D01*
X-220100Y11812D01*
X-220119Y11837D01*
X-220137Y11876D01*
X-222410Y15210D01*
X-222433Y15233D01*
X-222457Y15269D01*
X-225201Y18227D01*
X-225227Y18246D01*
X-225256Y18278D01*
X-228411Y20794D01*
X-228439Y20808D01*
X-228473Y20836D01*
X-231968Y22854D01*
X-231998Y22864D01*
X-232035Y22886D01*
X-235791Y24360D01*
X-235823Y24366D01*
X-235863Y24382D01*
X-239797Y25280D01*
X-239829Y25281D01*
X-239871Y25291D01*
X-243895Y25593D01*
X-243922Y25589D01*
X-243949Y25594D01*
X-244019Y25577D01*
X-244092Y25568D01*
X-244116Y25554D01*
X-244142Y25548D01*
X-244201Y25505D01*
X-244264Y25468D01*
X-244280Y25446D01*
X-244302Y25430D01*
X-244339Y25367D01*
X-244383Y25309D01*
X-244390Y25282D01*
X-244404Y25259D01*
X-244421Y25155D01*
X-244431Y25116D01*
X-244429Y25106D01*
X-244431Y25095D01*
X-244431Y-28905D01*
X-244426Y-28932D01*
X-244428Y-28959D01*
X-244406Y-29028D01*
X-244392Y-29100D01*
X-244376Y-29122D01*
X-244368Y-29148D01*
X-244320Y-29204D01*
X-244279Y-29264D01*
X-244256Y-29278D01*
X-244238Y-29299D01*
X-244173Y-29332D01*
X-244112Y-29371D01*
X-244085Y-29375D01*
X-244060Y-29387D01*
X-243956Y-29397D01*
X-243915Y-29404D01*
X-243906Y-29402D01*
G37*
G36*
X-320039Y-161371D02*
X-320039Y-161371D01*
X-319996Y-161375D01*
X-315976Y-161071D01*
X-315945Y-161062D01*
X-315902Y-161060D01*
X-311972Y-160160D01*
X-311943Y-160147D01*
X-311901Y-160138D01*
X-308150Y-158663D01*
X-308123Y-158646D01*
X-308082Y-158631D01*
X-304592Y-156613D01*
X-304569Y-156592D01*
X-304531Y-156571D01*
X-301381Y-154056D01*
X-301360Y-154031D01*
X-301326Y-154005D01*
X-298586Y-151048D01*
X-298569Y-151021D01*
X-298539Y-150990D01*
X-296271Y-147658D01*
X-296258Y-147628D01*
X-296233Y-147593D01*
X-294486Y-143960D01*
X-294479Y-143929D01*
X-294459Y-143891D01*
X-293273Y-140038D01*
X-293270Y-140006D01*
X-293257Y-139965D01*
X-292658Y-135978D01*
X-292660Y-135947D01*
X-292653Y-135904D01*
X-292655Y-131873D01*
X-292662Y-131842D01*
X-292661Y-131798D01*
X-293264Y-127813D01*
X-293275Y-127783D01*
X-293281Y-127740D01*
X-294471Y-123888D01*
X-294486Y-123861D01*
X-294499Y-123819D01*
X-296250Y-120188D01*
X-296266Y-120166D01*
X-296276Y-120141D01*
X-296326Y-120088D01*
X-296370Y-120030D01*
X-296394Y-120016D01*
X-296412Y-119997D01*
X-296479Y-119967D01*
X-296543Y-119931D01*
X-296570Y-119928D01*
X-296595Y-119917D01*
X-296668Y-119916D01*
X-296740Y-119907D01*
X-296766Y-119915D01*
X-296794Y-119915D01*
X-296892Y-119951D01*
X-296931Y-119963D01*
X-296939Y-119969D01*
X-296949Y-119973D01*
X-343649Y-146973D01*
X-343670Y-146991D01*
X-343694Y-147002D01*
X-343727Y-147038D01*
X-343744Y-147050D01*
X-343755Y-147066D01*
X-343798Y-147105D01*
X-343810Y-147129D01*
X-343828Y-147149D01*
X-343852Y-147218D01*
X-343884Y-147284D01*
X-343885Y-147311D01*
X-343894Y-147337D01*
X-343889Y-147410D01*
X-343893Y-147483D01*
X-343883Y-147508D01*
X-343881Y-147535D01*
X-343837Y-147631D01*
X-343823Y-147669D01*
X-343817Y-147676D01*
X-343812Y-147687D01*
X-341539Y-151016D01*
X-341516Y-151038D01*
X-341492Y-151074D01*
X-338749Y-154028D01*
X-338723Y-154046D01*
X-338694Y-154078D01*
X-335541Y-156590D01*
X-335512Y-156604D01*
X-335479Y-156632D01*
X-331987Y-158645D01*
X-331957Y-158655D01*
X-331919Y-158678D01*
X-328166Y-160148D01*
X-328135Y-160154D01*
X-328095Y-160170D01*
X-324164Y-161065D01*
X-324132Y-161065D01*
X-324090Y-161076D01*
X-320070Y-161375D01*
X-320039Y-161371D01*
G37*
G36*
X-297216Y115601D02*
X-297216Y115601D01*
X-297144Y115607D01*
X-297119Y115619D01*
X-297093Y115624D01*
X-297032Y115665D01*
X-296967Y115698D01*
X-296950Y115719D01*
X-296927Y115734D01*
X-296866Y115820D01*
X-296840Y115852D01*
X-296838Y115861D01*
X-296831Y115870D01*
X-295080Y119501D01*
X-295072Y119532D01*
X-295052Y119570D01*
X-293862Y123422D01*
X-293859Y123454D01*
X-293845Y123495D01*
X-293242Y127480D01*
X-293243Y127512D01*
X-293236Y127555D01*
X-293234Y131586D01*
X-293240Y131617D01*
X-293239Y131660D01*
X-293838Y135647D01*
X-293849Y135677D01*
X-293854Y135720D01*
X-295040Y139573D01*
X-295055Y139601D01*
X-295067Y139642D01*
X-296814Y143275D01*
X-296833Y143300D01*
X-296852Y143340D01*
X-299120Y146672D01*
X-299143Y146694D01*
X-299167Y146730D01*
X-301907Y149687D01*
X-301933Y149705D01*
X-301962Y149738D01*
X-305112Y152253D01*
X-305140Y152268D01*
X-305173Y152295D01*
X-308663Y154313D01*
X-308694Y154323D01*
X-308731Y154345D01*
X-312482Y155820D01*
X-312514Y155826D01*
X-312553Y155842D01*
X-316483Y156742D01*
X-316515Y156742D01*
X-316557Y156753D01*
X-320577Y157057D01*
X-320608Y157053D01*
X-320651Y157057D01*
X-324671Y156758D01*
X-324702Y156749D01*
X-324745Y156747D01*
X-328676Y155852D01*
X-328705Y155839D01*
X-328747Y155830D01*
X-332500Y154360D01*
X-332527Y154342D01*
X-332568Y154327D01*
X-336060Y152314D01*
X-336084Y152293D01*
X-336122Y152272D01*
X-339275Y149760D01*
X-339295Y149736D01*
X-339330Y149710D01*
X-342073Y146756D01*
X-342090Y146729D01*
X-342120Y146698D01*
X-344393Y143369D01*
X-344403Y143343D01*
X-344421Y143322D01*
X-344442Y143253D01*
X-344470Y143185D01*
X-344470Y143158D01*
X-344478Y143132D01*
X-344470Y143059D01*
X-344470Y142986D01*
X-344459Y142961D01*
X-344456Y142934D01*
X-344420Y142871D01*
X-344391Y142804D01*
X-344372Y142785D01*
X-344359Y142761D01*
X-344277Y142694D01*
X-344248Y142666D01*
X-344239Y142662D01*
X-344230Y142655D01*
X-297530Y115655D01*
X-297505Y115646D01*
X-297482Y115630D01*
X-297411Y115615D01*
X-297342Y115592D01*
X-297315Y115594D01*
X-297288Y115588D01*
X-297216Y115601D01*
G37*
%LPC*%
G36*
X-88770Y-183516D02*
X-88770Y-183516D01*
X-89663Y-182623D01*
X-89663Y-164849D01*
X-88770Y-163956D01*
X-70996Y-163956D01*
X-70103Y-164849D01*
X-70103Y-182623D01*
X-70996Y-183516D01*
X-88770Y-183516D01*
G37*
%LPD*%
%LPC*%
G36*
X-107228Y-183516D02*
X-107228Y-183516D01*
X-110823Y-182027D01*
X-113574Y-179276D01*
X-115063Y-175681D01*
X-115063Y-171791D01*
X-113574Y-168196D01*
X-110823Y-165445D01*
X-107228Y-163956D01*
X-103338Y-163956D01*
X-99743Y-165445D01*
X-96992Y-168196D01*
X-95503Y-171791D01*
X-95503Y-175681D01*
X-96992Y-179276D01*
X-99743Y-182027D01*
X-103338Y-183516D01*
X-107228Y-183516D01*
G37*
%LPD*%
%LPC*%
G36*
X11151Y-49070D02*
X11151Y-49070D01*
X7819Y-47690D01*
X5269Y-45140D01*
X3889Y-41808D01*
X3889Y-38202D01*
X5269Y-34870D01*
X7819Y-32320D01*
X11151Y-30940D01*
X14757Y-30940D01*
X18089Y-32320D01*
X20639Y-34870D01*
X22019Y-38202D01*
X22019Y-41808D01*
X20639Y-45140D01*
X18089Y-47690D01*
X14757Y-49070D01*
X11151Y-49070D01*
G37*
%LPD*%
%LPC*%
G36*
X36551Y-49070D02*
X36551Y-49070D01*
X33219Y-47690D01*
X30669Y-45140D01*
X29289Y-41808D01*
X29289Y-38202D01*
X30669Y-34870D01*
X33219Y-32320D01*
X36551Y-30940D01*
X40157Y-30940D01*
X43489Y-32320D01*
X46039Y-34870D01*
X47419Y-38202D01*
X47419Y-41808D01*
X46039Y-45140D01*
X43489Y-47690D01*
X40157Y-49070D01*
X36551Y-49070D01*
G37*
%LPD*%
%LPC*%
G36*
X11151Y-74470D02*
X11151Y-74470D01*
X7819Y-73090D01*
X5269Y-70540D01*
X3889Y-67208D01*
X3889Y-63602D01*
X5269Y-60270D01*
X7819Y-57720D01*
X11151Y-56340D01*
X14757Y-56340D01*
X18089Y-57720D01*
X20639Y-60270D01*
X22019Y-63602D01*
X22019Y-67208D01*
X20639Y-70540D01*
X18089Y-73090D01*
X14757Y-74470D01*
X11151Y-74470D01*
G37*
%LPD*%
%LPC*%
G36*
X36551Y-74470D02*
X36551Y-74470D01*
X33219Y-73090D01*
X30669Y-70540D01*
X29289Y-67208D01*
X29289Y-63602D01*
X30669Y-60270D01*
X33219Y-57720D01*
X36551Y-56340D01*
X40157Y-56340D01*
X43489Y-57720D01*
X46039Y-60270D01*
X47419Y-63602D01*
X47419Y-67208D01*
X46039Y-70540D01*
X43489Y-73090D01*
X40157Y-74470D01*
X36551Y-74470D01*
G37*
%LPD*%
%LPC*%
G36*
X11151Y-99870D02*
X11151Y-99870D01*
X7819Y-98490D01*
X5269Y-95940D01*
X3889Y-92608D01*
X3889Y-89002D01*
X5269Y-85670D01*
X7819Y-83120D01*
X11151Y-81740D01*
X14757Y-81740D01*
X18089Y-83120D01*
X20639Y-85670D01*
X22019Y-89002D01*
X22019Y-92608D01*
X20639Y-95940D01*
X18089Y-98490D01*
X14757Y-99870D01*
X11151Y-99870D01*
G37*
%LPD*%
%LPC*%
G36*
X36551Y-99870D02*
X36551Y-99870D01*
X33219Y-98490D01*
X30669Y-95940D01*
X29289Y-92608D01*
X29289Y-89002D01*
X30669Y-85670D01*
X33219Y-83120D01*
X36551Y-81740D01*
X40157Y-81740D01*
X43489Y-83120D01*
X46039Y-85670D01*
X47419Y-89002D01*
X47419Y-92608D01*
X46039Y-95940D01*
X43489Y-98490D01*
X40157Y-99870D01*
X36551Y-99870D01*
G37*
%LPD*%
%LPC*%
G36*
X-236033Y68349D02*
X-236033Y68349D01*
X-234572Y69002D01*
X-234543Y69022D01*
X-234498Y69042D01*
X-231850Y70806D01*
X-231825Y70831D01*
X-231785Y70858D01*
X-229468Y73039D01*
X-229448Y73068D01*
X-229412Y73101D01*
X-227491Y75638D01*
X-227476Y75670D01*
X-227447Y75709D01*
X-225976Y78530D01*
X-225966Y78564D01*
X-225943Y78608D01*
X-224964Y81635D01*
X-224960Y81670D01*
X-224945Y81716D01*
X-224484Y84865D01*
X-224486Y84900D01*
X-224479Y84948D01*
X-224549Y88129D01*
X-224557Y88164D01*
X-224558Y88212D01*
X-224728Y89096D01*
X-222104Y89096D01*
X-221903Y87580D01*
X-221899Y84689D01*
X-222273Y81822D01*
X-223018Y79029D01*
X-224121Y76357D01*
X-225564Y73851D01*
X-227321Y71556D01*
X-229362Y69509D01*
X-231654Y67746D01*
X-234156Y66298D01*
X-236033Y65518D01*
X-236033Y68349D01*
G37*
%LPD*%
%LPC*%
G36*
X-224728Y-92906D02*
X-224728Y-92906D01*
X-224558Y-92022D01*
X-224558Y-91987D01*
X-224549Y-91939D01*
X-224479Y-88758D01*
X-224485Y-88724D01*
X-224484Y-88675D01*
X-224945Y-85526D01*
X-224957Y-85493D01*
X-224964Y-85445D01*
X-225943Y-82418D01*
X-225961Y-82387D01*
X-225976Y-82340D01*
X-227447Y-79519D01*
X-227469Y-79492D01*
X-227491Y-79448D01*
X-229412Y-76911D01*
X-229438Y-76888D01*
X-229468Y-76849D01*
X-231785Y-74668D01*
X-231815Y-74650D01*
X-231850Y-74616D01*
X-234498Y-72852D01*
X-234531Y-72839D01*
X-234572Y-72812D01*
X-236033Y-72159D01*
X-236033Y-69334D01*
X-234433Y-69976D01*
X-233852Y-70300D01*
X-231985Y-71342D01*
X-230597Y-72367D01*
X-229730Y-73007D01*
X-227704Y-74943D01*
X-225939Y-77121D01*
X-224464Y-79505D01*
X-223302Y-82056D01*
X-222473Y-84734D01*
X-221990Y-87495D01*
X-221860Y-90295D01*
X-222070Y-92906D01*
X-224728Y-92906D01*
G37*
%LPD*%
%LPC*%
G36*
X-133211Y-184266D02*
X-133211Y-184266D01*
X-134827Y-183741D01*
X-136341Y-182969D01*
X-137716Y-181971D01*
X-138918Y-180769D01*
X-139916Y-179394D01*
X-140688Y-177880D01*
X-141213Y-176264D01*
X-141455Y-174735D01*
X-131682Y-174735D01*
X-131682Y-184508D01*
X-133211Y-184266D01*
G37*
%LPD*%
%LPC*%
G36*
X-141455Y-172737D02*
X-141455Y-172737D01*
X-141213Y-171208D01*
X-140688Y-169592D01*
X-139916Y-168078D01*
X-138918Y-166703D01*
X-137716Y-165501D01*
X-136341Y-164503D01*
X-134827Y-163731D01*
X-133211Y-163206D01*
X-131682Y-162964D01*
X-131682Y-172737D01*
X-141455Y-172737D01*
G37*
%LPD*%
%LPC*%
G36*
X-129684Y-174735D02*
X-129684Y-174735D01*
X-119911Y-174735D01*
X-120153Y-176264D01*
X-120678Y-177880D01*
X-121450Y-179394D01*
X-122448Y-180769D01*
X-123650Y-181971D01*
X-125025Y-182969D01*
X-126539Y-183741D01*
X-128155Y-184266D01*
X-129684Y-184508D01*
X-129684Y-174735D01*
G37*
%LPD*%
%LPC*%
G36*
X-129684Y-172737D02*
X-129684Y-172737D01*
X-129684Y-162964D01*
X-128155Y-163206D01*
X-126539Y-163731D01*
X-125025Y-164503D01*
X-123650Y-165501D01*
X-122448Y-166703D01*
X-121450Y-168078D01*
X-120678Y-169592D01*
X-120153Y-171208D01*
X-119911Y-172737D01*
X-129684Y-172737D01*
G37*
%LPD*%
%LPC*%
G36*
X-236033Y-107697D02*
X-236033Y-107697D01*
X-235338Y-107423D01*
X-235309Y-107404D01*
X-235263Y-107386D01*
X-232539Y-105741D01*
X-232514Y-105717D01*
X-232472Y-105692D01*
X-230061Y-103616D01*
X-230039Y-103588D01*
X-230002Y-103556D01*
X-227971Y-101107D01*
X-227954Y-101076D01*
X-227923Y-101038D01*
X-226329Y-98284D01*
X-226318Y-98251D01*
X-226293Y-98209D01*
X-225180Y-95228D01*
X-225175Y-95193D01*
X-225158Y-95147D01*
X-225111Y-94904D01*
X-222467Y-94904D01*
X-222662Y-95832D01*
X-223382Y-97902D01*
X-223582Y-98480D01*
X-224608Y-100543D01*
X-224830Y-100990D01*
X-226150Y-102968D01*
X-226386Y-103322D01*
X-227978Y-105155D01*
X-228224Y-105438D01*
X-230315Y-107305D01*
X-232626Y-108892D01*
X-235119Y-110173D01*
X-236033Y-110505D01*
X-236033Y-107697D01*
G37*
%LPD*%
%LPC*%
G36*
X-225111Y91094D02*
X-225111Y91094D01*
X-225158Y91337D01*
X-225171Y91370D01*
X-225180Y91418D01*
X-226293Y94399D01*
X-226312Y94428D01*
X-226329Y94474D01*
X-227923Y97228D01*
X-227946Y97254D01*
X-227971Y97297D01*
X-230002Y99746D01*
X-230029Y99768D01*
X-230061Y99806D01*
X-232472Y101882D01*
X-232502Y101899D01*
X-232539Y101931D01*
X-235263Y103576D01*
X-235296Y103588D01*
X-235338Y103613D01*
X-236033Y103887D01*
X-236033Y106697D01*
X-234203Y105942D01*
X-232457Y104937D01*
X-231698Y104499D01*
X-230019Y103214D01*
X-229402Y102742D01*
X-227356Y100701D01*
X-225593Y98409D01*
X-224145Y95907D01*
X-223035Y93238D01*
X-222458Y91094D01*
X-225111Y91094D01*
G37*
%LPD*%
%LPC*%
G36*
X-103350Y-74677D02*
X-103350Y-74677D01*
X-104400Y-74395D01*
X-105341Y-73852D01*
X-106110Y-73083D01*
X-106653Y-72142D01*
X-106935Y-71092D01*
X-106935Y-69960D01*
X-102218Y-69960D01*
X-102218Y-74677D01*
X-103350Y-74677D01*
G37*
%LPD*%
%LPC*%
G36*
X-71264Y-74550D02*
X-71264Y-74550D01*
X-71264Y-69833D01*
X-66547Y-69833D01*
X-66547Y-70965D01*
X-66829Y-72015D01*
X-67372Y-72956D01*
X-68141Y-73725D01*
X-69082Y-74268D01*
X-70132Y-74550D01*
X-71264Y-74550D01*
G37*
%LPD*%
%LPC*%
G36*
X-71264Y-67835D02*
X-71264Y-67835D01*
X-71264Y-63118D01*
X-70132Y-63118D01*
X-69082Y-63400D01*
X-68141Y-63943D01*
X-67372Y-64712D01*
X-66829Y-65653D01*
X-66547Y-66703D01*
X-66547Y-67835D01*
X-71264Y-67835D01*
G37*
%LPD*%
%LPC*%
G36*
X-118032Y33854D02*
X-118032Y33854D01*
X-118032Y36522D01*
X-117816Y37327D01*
X-117399Y38049D01*
X-116810Y38638D01*
X-116088Y39055D01*
X-115283Y39271D01*
X-114865Y39271D01*
X-114865Y33854D01*
X-118032Y33854D01*
G37*
%LPD*%
%LPC*%
G36*
X-51617Y-32561D02*
X-51617Y-32561D01*
X-51617Y-29394D01*
X-46200Y-29394D01*
X-46200Y-29812D01*
X-46416Y-30617D01*
X-46833Y-31339D01*
X-47422Y-31928D01*
X-48144Y-32345D01*
X-48949Y-32561D01*
X-51617Y-32561D01*
G37*
%LPD*%
%LPC*%
G36*
X-130684Y-173737D02*
X-130684Y-173737D01*
X-130684Y-173735D01*
X-130682Y-173735D01*
X-130682Y-173737D01*
X-130684Y-173737D01*
G37*
%LPD*%
D10*
X-116903Y63183D02*
X-116903Y60007D01*
X-120079Y60007D01*
X-120079Y63183D01*
X-116903Y63183D01*
X-116903Y63023D02*
X-120079Y63023D01*
X-116903Y68897D02*
X-116903Y72073D01*
X-116903Y68897D02*
X-120079Y68897D01*
X-120079Y72073D01*
X-116903Y72073D01*
X-116903Y71913D02*
X-120079Y71913D01*
X-29020Y22543D02*
X-25844Y22543D01*
X-25844Y19367D01*
X-29020Y19367D01*
X-29020Y22543D01*
X-29020Y22383D02*
X-25844Y22383D01*
X-34734Y22543D02*
X-37910Y22543D01*
X-34734Y22543D02*
X-34734Y19367D01*
X-37910Y19367D01*
X-37910Y22543D01*
X-37910Y22383D02*
X-34734Y22383D01*
X-28893Y33084D02*
X-25717Y33084D01*
X-25717Y29908D01*
X-28893Y29908D01*
X-28893Y33084D01*
X-28893Y32924D02*
X-25717Y32924D01*
X-34607Y33084D02*
X-37783Y33084D01*
X-34607Y33084D02*
X-34607Y29908D01*
X-37783Y29908D01*
X-37783Y33084D01*
X-37783Y32924D02*
X-34607Y32924D01*
X-28893Y43498D02*
X-25717Y43498D01*
X-25717Y40322D01*
X-28893Y40322D01*
X-28893Y43498D01*
X-28893Y43338D02*
X-25717Y43338D01*
X-34607Y43498D02*
X-37783Y43498D01*
X-34607Y43498D02*
X-34607Y40322D01*
X-37783Y40322D01*
X-37783Y43498D01*
X-37783Y43338D02*
X-34607Y43338D01*
X-52134Y68897D02*
X-52134Y72073D01*
X-48958Y72073D01*
X-48958Y68897D01*
X-52134Y68897D01*
X-52134Y71913D02*
X-48958Y71913D01*
X-52134Y63183D02*
X-52134Y60007D01*
X-52134Y63183D02*
X-48958Y63183D01*
X-48958Y60007D01*
X-52134Y60007D01*
X-52134Y63023D02*
X-48958Y63023D01*
X-63056Y68897D02*
X-63056Y72073D01*
X-59880Y72073D01*
X-59880Y68897D01*
X-63056Y68897D01*
X-63056Y71913D02*
X-59880Y71913D01*
X-63056Y63183D02*
X-63056Y60007D01*
X-63056Y63183D02*
X-59880Y63183D01*
X-59880Y60007D01*
X-63056Y60007D01*
X-63056Y63023D02*
X-59880Y63023D01*
X-74359Y68897D02*
X-74359Y72073D01*
X-71183Y72073D01*
X-71183Y68897D01*
X-74359Y68897D01*
X-74359Y71913D02*
X-71183Y71913D01*
X-74359Y63183D02*
X-74359Y60007D01*
X-74359Y63183D02*
X-71183Y63183D01*
X-71183Y60007D01*
X-74359Y60007D01*
X-74359Y63023D02*
X-71183Y63023D01*
X-85789Y68897D02*
X-85789Y72073D01*
X-82613Y72073D01*
X-82613Y68897D01*
X-85789Y68897D01*
X-85789Y71913D02*
X-82613Y71913D01*
X-85789Y63183D02*
X-85789Y60007D01*
X-85789Y63183D02*
X-82613Y63183D01*
X-82613Y60007D01*
X-85789Y60007D01*
X-85789Y63023D02*
X-82613Y63023D01*
X-105473Y63183D02*
X-105473Y60007D01*
X-108649Y60007D01*
X-108649Y63183D01*
X-105473Y63183D01*
X-105473Y63023D02*
X-108649Y63023D01*
X-105473Y68897D02*
X-105473Y72073D01*
X-105473Y68897D02*
X-108649Y68897D01*
X-108649Y72073D01*
X-105473Y72073D01*
X-105473Y71913D02*
X-108649Y71913D01*
X-94043Y63183D02*
X-94043Y60007D01*
X-97219Y60007D01*
X-97219Y63183D01*
X-94043Y63183D01*
X-94043Y63023D02*
X-97219Y63023D01*
X-94043Y68897D02*
X-94043Y72073D01*
X-94043Y68897D02*
X-97219Y68897D01*
X-97219Y72073D01*
X-94043Y72073D01*
X-94043Y71913D02*
X-97219Y71913D01*
D11*
X-79883Y-173736D03*
D12*
X-105283Y-173736D03*
X-130683Y-173736D03*
X-156083Y-173736D03*
D13*
X-75565Y-130302D03*
X-75565Y-104902D03*
X-164465Y-104902D03*
X-164465Y-130302D03*
D10*
X-93917Y-67373D02*
X-90741Y-67373D01*
X-90741Y-70549D01*
X-93917Y-70549D01*
X-93917Y-67373D01*
X-93917Y-67533D02*
X-90741Y-67533D01*
X-99631Y-67373D02*
X-102807Y-67373D01*
X-99631Y-67373D02*
X-99631Y-70549D01*
X-102807Y-70549D01*
X-102807Y-67373D01*
X-102807Y-67533D02*
X-99631Y-67533D01*
X-82741Y-70422D02*
X-79565Y-70422D01*
X-82741Y-70422D02*
X-82741Y-67246D01*
X-79565Y-67246D01*
X-79565Y-70422D01*
X-79565Y-67406D02*
X-82741Y-67406D01*
X-73851Y-70422D02*
X-70675Y-70422D01*
X-73851Y-70422D02*
X-73851Y-67246D01*
X-70675Y-67246D01*
X-70675Y-70422D01*
X-70675Y-67406D02*
X-73851Y-67406D01*
D14*
X12954Y86995D03*
D15*
X38354Y86995D03*
X12954Y61595D03*
X38354Y61595D03*
X12954Y36195D03*
X38354Y36195D03*
X12954Y10795D03*
X38354Y10795D03*
X12954Y-14605D03*
X38354Y-14605D03*
X12954Y-40005D03*
X38354Y-40005D03*
X12954Y-65405D03*
X38354Y-65405D03*
X12954Y-90805D03*
X38354Y-90805D03*
D10*
X-133414Y2603D02*
X-133414Y5779D01*
X-130238Y5779D01*
X-130238Y2603D01*
X-133414Y2603D01*
X-133414Y5619D02*
X-130238Y5619D01*
X-133414Y-3111D02*
X-133414Y-6287D01*
X-133414Y-3111D02*
X-130238Y-3111D01*
X-130238Y-6287D01*
X-133414Y-6287D01*
X-133414Y-3271D02*
X-130238Y-3271D01*
D16*
X-151218Y-24852D02*
X-162218Y-24852D01*
X-162218Y-19852D01*
X-151218Y-19852D01*
X-151218Y-24852D01*
X-151218Y-20102D02*
X-162218Y-20102D01*
X-162345Y-6945D02*
X-151345Y-6945D01*
X-162345Y-6945D02*
X-162345Y-1945D01*
X-151345Y-1945D01*
X-151345Y-6945D01*
X-151345Y-2195D02*
X-162345Y-2195D01*
X-44235Y-110323D02*
X-33235Y-110323D01*
X-44235Y-110323D02*
X-44235Y-105323D01*
X-33235Y-105323D01*
X-33235Y-110323D01*
X-33235Y-105573D02*
X-44235Y-105573D01*
D17*
X-49366Y-29395D02*
X-49366Y-28145D01*
X-49366Y-29395D02*
X-55116Y-29395D01*
X-55116Y-28145D01*
X-49366Y-28145D01*
X-49366Y-28208D02*
X-55116Y-28208D01*
X-49366Y-24395D02*
X-49366Y-23145D01*
X-49366Y-24395D02*
X-55116Y-24395D01*
X-55116Y-23145D01*
X-49366Y-23145D01*
X-49366Y-23208D02*
X-55116Y-23208D01*
X-49366Y-19395D02*
X-49366Y-18145D01*
X-49366Y-19395D02*
X-55116Y-19395D01*
X-55116Y-18145D01*
X-49366Y-18145D01*
X-49366Y-18208D02*
X-55116Y-18208D01*
X-49366Y-14395D02*
X-49366Y-13145D01*
X-49366Y-14395D02*
X-55116Y-14395D01*
X-55116Y-13145D01*
X-49366Y-13145D01*
X-49366Y-13208D02*
X-55116Y-13208D01*
X-49366Y-9395D02*
X-49366Y-8145D01*
X-49366Y-9395D02*
X-55116Y-9395D01*
X-55116Y-8145D01*
X-49366Y-8145D01*
X-49366Y-8208D02*
X-55116Y-8208D01*
X-49366Y-4395D02*
X-49366Y-3145D01*
X-49366Y-4395D02*
X-55116Y-4395D01*
X-55116Y-3145D01*
X-49366Y-3145D01*
X-49366Y-3208D02*
X-55116Y-3208D01*
X-49366Y605D02*
X-49366Y1855D01*
X-49366Y605D02*
X-55116Y605D01*
X-55116Y1855D01*
X-49366Y1855D01*
X-49366Y1792D02*
X-55116Y1792D01*
X-49366Y5605D02*
X-49366Y6855D01*
X-49366Y5605D02*
X-55116Y5605D01*
X-55116Y6855D01*
X-49366Y6855D01*
X-49366Y6792D02*
X-55116Y6792D01*
X-49366Y10605D02*
X-49366Y11855D01*
X-49366Y10605D02*
X-55116Y10605D01*
X-55116Y11855D01*
X-49366Y11855D01*
X-49366Y11792D02*
X-55116Y11792D01*
X-49366Y15605D02*
X-49366Y16855D01*
X-49366Y15605D02*
X-55116Y15605D01*
X-55116Y16855D01*
X-49366Y16855D01*
X-49366Y16792D02*
X-55116Y16792D01*
X-49366Y20605D02*
X-49366Y21855D01*
X-49366Y20605D02*
X-55116Y20605D01*
X-55116Y21855D01*
X-49366Y21855D01*
X-49366Y21792D02*
X-55116Y21792D01*
X-49366Y25605D02*
X-49366Y26855D01*
X-49366Y25605D02*
X-55116Y25605D01*
X-55116Y26855D01*
X-49366Y26855D01*
X-49366Y26792D02*
X-55116Y26792D01*
X-58616Y36105D02*
X-59866Y36105D01*
X-58616Y36105D02*
X-58616Y30355D01*
X-59866Y30355D01*
X-59866Y36105D01*
X-59866Y31542D02*
X-58616Y31542D01*
X-58616Y32729D02*
X-59866Y32729D01*
X-59866Y33916D02*
X-58616Y33916D01*
X-58616Y35103D02*
X-59866Y35103D01*
X-63616Y36105D02*
X-64866Y36105D01*
X-63616Y36105D02*
X-63616Y30355D01*
X-64866Y30355D01*
X-64866Y36105D01*
X-64866Y31542D02*
X-63616Y31542D01*
X-63616Y32729D02*
X-64866Y32729D01*
X-64866Y33916D02*
X-63616Y33916D01*
X-63616Y35103D02*
X-64866Y35103D01*
X-68616Y36105D02*
X-69866Y36105D01*
X-68616Y36105D02*
X-68616Y30355D01*
X-69866Y30355D01*
X-69866Y36105D01*
X-69866Y31542D02*
X-68616Y31542D01*
X-68616Y32729D02*
X-69866Y32729D01*
X-69866Y33916D02*
X-68616Y33916D01*
X-68616Y35103D02*
X-69866Y35103D01*
X-73616Y36105D02*
X-74866Y36105D01*
X-73616Y36105D02*
X-73616Y30355D01*
X-74866Y30355D01*
X-74866Y36105D01*
X-74866Y31542D02*
X-73616Y31542D01*
X-73616Y32729D02*
X-74866Y32729D01*
X-74866Y33916D02*
X-73616Y33916D01*
X-73616Y35103D02*
X-74866Y35103D01*
X-78616Y36105D02*
X-79866Y36105D01*
X-78616Y36105D02*
X-78616Y30355D01*
X-79866Y30355D01*
X-79866Y36105D01*
X-79866Y31542D02*
X-78616Y31542D01*
X-78616Y32729D02*
X-79866Y32729D01*
X-79866Y33916D02*
X-78616Y33916D01*
X-78616Y35103D02*
X-79866Y35103D01*
X-83616Y36105D02*
X-84866Y36105D01*
X-83616Y36105D02*
X-83616Y30355D01*
X-84866Y30355D01*
X-84866Y36105D01*
X-84866Y31542D02*
X-83616Y31542D01*
X-83616Y32729D02*
X-84866Y32729D01*
X-84866Y33916D02*
X-83616Y33916D01*
X-83616Y35103D02*
X-84866Y35103D01*
X-88616Y36105D02*
X-89866Y36105D01*
X-88616Y36105D02*
X-88616Y30355D01*
X-89866Y30355D01*
X-89866Y36105D01*
X-89866Y31542D02*
X-88616Y31542D01*
X-88616Y32729D02*
X-89866Y32729D01*
X-89866Y33916D02*
X-88616Y33916D01*
X-88616Y35103D02*
X-89866Y35103D01*
X-93616Y36105D02*
X-94866Y36105D01*
X-93616Y36105D02*
X-93616Y30355D01*
X-94866Y30355D01*
X-94866Y36105D01*
X-94866Y31542D02*
X-93616Y31542D01*
X-93616Y32729D02*
X-94866Y32729D01*
X-94866Y33916D02*
X-93616Y33916D01*
X-93616Y35103D02*
X-94866Y35103D01*
X-98616Y36105D02*
X-99866Y36105D01*
X-98616Y36105D02*
X-98616Y30355D01*
X-99866Y30355D01*
X-99866Y36105D01*
X-99866Y31542D02*
X-98616Y31542D01*
X-98616Y32729D02*
X-99866Y32729D01*
X-99866Y33916D02*
X-98616Y33916D01*
X-98616Y35103D02*
X-99866Y35103D01*
X-103616Y36105D02*
X-104866Y36105D01*
X-103616Y36105D02*
X-103616Y30355D01*
X-104866Y30355D01*
X-104866Y36105D01*
X-104866Y31542D02*
X-103616Y31542D01*
X-103616Y32729D02*
X-104866Y32729D01*
X-104866Y33916D02*
X-103616Y33916D01*
X-103616Y35103D02*
X-104866Y35103D01*
X-108616Y36105D02*
X-109866Y36105D01*
X-108616Y36105D02*
X-108616Y30355D01*
X-109866Y30355D01*
X-109866Y36105D01*
X-109866Y31542D02*
X-108616Y31542D01*
X-108616Y32729D02*
X-109866Y32729D01*
X-109866Y33916D02*
X-108616Y33916D01*
X-108616Y35103D02*
X-109866Y35103D01*
X-113616Y36105D02*
X-114866Y36105D01*
X-113616Y36105D02*
X-113616Y30355D01*
X-114866Y30355D01*
X-114866Y36105D01*
X-114866Y31542D02*
X-113616Y31542D01*
X-113616Y32729D02*
X-114866Y32729D01*
X-114866Y33916D02*
X-113616Y33916D01*
X-113616Y35103D02*
X-114866Y35103D01*
X-124116Y26855D02*
X-124116Y25605D01*
X-124116Y26855D02*
X-118366Y26855D01*
X-118366Y25605D01*
X-124116Y25605D01*
X-124116Y26792D02*
X-118366Y26792D01*
X-124116Y21855D02*
X-124116Y20605D01*
X-124116Y21855D02*
X-118366Y21855D01*
X-118366Y20605D01*
X-124116Y20605D01*
X-124116Y21792D02*
X-118366Y21792D01*
X-124116Y16855D02*
X-124116Y15605D01*
X-124116Y16855D02*
X-118366Y16855D01*
X-118366Y15605D01*
X-124116Y15605D01*
X-124116Y16792D02*
X-118366Y16792D01*
X-124116Y11855D02*
X-124116Y10605D01*
X-124116Y11855D02*
X-118366Y11855D01*
X-118366Y10605D01*
X-124116Y10605D01*
X-124116Y11792D02*
X-118366Y11792D01*
X-124116Y6855D02*
X-124116Y5605D01*
X-124116Y6855D02*
X-118366Y6855D01*
X-118366Y5605D01*
X-124116Y5605D01*
X-124116Y6792D02*
X-118366Y6792D01*
X-124116Y1855D02*
X-124116Y605D01*
X-124116Y1855D02*
X-118366Y1855D01*
X-118366Y605D01*
X-124116Y605D01*
X-124116Y1792D02*
X-118366Y1792D01*
X-124116Y-3145D02*
X-124116Y-4395D01*
X-124116Y-3145D02*
X-118366Y-3145D01*
X-118366Y-4395D01*
X-124116Y-4395D01*
X-124116Y-3208D02*
X-118366Y-3208D01*
X-124116Y-8145D02*
X-124116Y-9395D01*
X-124116Y-8145D02*
X-118366Y-8145D01*
X-118366Y-9395D01*
X-124116Y-9395D01*
X-124116Y-8208D02*
X-118366Y-8208D01*
X-124116Y-13145D02*
X-124116Y-14395D01*
X-124116Y-13145D02*
X-118366Y-13145D01*
X-118366Y-14395D01*
X-124116Y-14395D01*
X-124116Y-13208D02*
X-118366Y-13208D01*
X-124116Y-18145D02*
X-124116Y-19395D01*
X-124116Y-18145D02*
X-118366Y-18145D01*
X-118366Y-19395D01*
X-124116Y-19395D01*
X-124116Y-18208D02*
X-118366Y-18208D01*
X-124116Y-23145D02*
X-124116Y-24395D01*
X-124116Y-23145D02*
X-118366Y-23145D01*
X-118366Y-24395D01*
X-124116Y-24395D01*
X-124116Y-23208D02*
X-118366Y-23208D01*
X-124116Y-28145D02*
X-124116Y-29395D01*
X-124116Y-28145D02*
X-118366Y-28145D01*
X-118366Y-29395D01*
X-124116Y-29395D01*
X-124116Y-28208D02*
X-118366Y-28208D01*
X-114866Y-38645D02*
X-113616Y-38645D01*
X-114866Y-38645D02*
X-114866Y-32895D01*
X-113616Y-32895D01*
X-113616Y-38645D01*
X-113616Y-37458D02*
X-114866Y-37458D01*
X-114866Y-36271D02*
X-113616Y-36271D01*
X-113616Y-35084D02*
X-114866Y-35084D01*
X-114866Y-33897D02*
X-113616Y-33897D01*
X-109866Y-38645D02*
X-108616Y-38645D01*
X-109866Y-38645D02*
X-109866Y-32895D01*
X-108616Y-32895D01*
X-108616Y-38645D01*
X-108616Y-37458D02*
X-109866Y-37458D01*
X-109866Y-36271D02*
X-108616Y-36271D01*
X-108616Y-35084D02*
X-109866Y-35084D01*
X-109866Y-33897D02*
X-108616Y-33897D01*
X-104866Y-38645D02*
X-103616Y-38645D01*
X-104866Y-38645D02*
X-104866Y-32895D01*
X-103616Y-32895D01*
X-103616Y-38645D01*
X-103616Y-37458D02*
X-104866Y-37458D01*
X-104866Y-36271D02*
X-103616Y-36271D01*
X-103616Y-35084D02*
X-104866Y-35084D01*
X-104866Y-33897D02*
X-103616Y-33897D01*
X-99866Y-38645D02*
X-98616Y-38645D01*
X-99866Y-38645D02*
X-99866Y-32895D01*
X-98616Y-32895D01*
X-98616Y-38645D01*
X-98616Y-37458D02*
X-99866Y-37458D01*
X-99866Y-36271D02*
X-98616Y-36271D01*
X-98616Y-35084D02*
X-99866Y-35084D01*
X-99866Y-33897D02*
X-98616Y-33897D01*
X-94866Y-38645D02*
X-93616Y-38645D01*
X-94866Y-38645D02*
X-94866Y-32895D01*
X-93616Y-32895D01*
X-93616Y-38645D01*
X-93616Y-37458D02*
X-94866Y-37458D01*
X-94866Y-36271D02*
X-93616Y-36271D01*
X-93616Y-35084D02*
X-94866Y-35084D01*
X-94866Y-33897D02*
X-93616Y-33897D01*
X-89866Y-38645D02*
X-88616Y-38645D01*
X-89866Y-38645D02*
X-89866Y-32895D01*
X-88616Y-32895D01*
X-88616Y-38645D01*
X-88616Y-37458D02*
X-89866Y-37458D01*
X-89866Y-36271D02*
X-88616Y-36271D01*
X-88616Y-35084D02*
X-89866Y-35084D01*
X-89866Y-33897D02*
X-88616Y-33897D01*
X-84866Y-38645D02*
X-83616Y-38645D01*
X-84866Y-38645D02*
X-84866Y-32895D01*
X-83616Y-32895D01*
X-83616Y-38645D01*
X-83616Y-37458D02*
X-84866Y-37458D01*
X-84866Y-36271D02*
X-83616Y-36271D01*
X-83616Y-35084D02*
X-84866Y-35084D01*
X-84866Y-33897D02*
X-83616Y-33897D01*
X-79866Y-38645D02*
X-78616Y-38645D01*
X-79866Y-38645D02*
X-79866Y-32895D01*
X-78616Y-32895D01*
X-78616Y-38645D01*
X-78616Y-37458D02*
X-79866Y-37458D01*
X-79866Y-36271D02*
X-78616Y-36271D01*
X-78616Y-35084D02*
X-79866Y-35084D01*
X-79866Y-33897D02*
X-78616Y-33897D01*
X-74866Y-38645D02*
X-73616Y-38645D01*
X-74866Y-38645D02*
X-74866Y-32895D01*
X-73616Y-32895D01*
X-73616Y-38645D01*
X-73616Y-37458D02*
X-74866Y-37458D01*
X-74866Y-36271D02*
X-73616Y-36271D01*
X-73616Y-35084D02*
X-74866Y-35084D01*
X-74866Y-33897D02*
X-73616Y-33897D01*
X-69866Y-38645D02*
X-68616Y-38645D01*
X-69866Y-38645D02*
X-69866Y-32895D01*
X-68616Y-32895D01*
X-68616Y-38645D01*
X-68616Y-37458D02*
X-69866Y-37458D01*
X-69866Y-36271D02*
X-68616Y-36271D01*
X-68616Y-35084D02*
X-69866Y-35084D01*
X-69866Y-33897D02*
X-68616Y-33897D01*
X-64866Y-38645D02*
X-63616Y-38645D01*
X-64866Y-38645D02*
X-64866Y-32895D01*
X-63616Y-32895D01*
X-63616Y-38645D01*
X-63616Y-37458D02*
X-64866Y-37458D01*
X-64866Y-36271D02*
X-63616Y-36271D01*
X-63616Y-35084D02*
X-64866Y-35084D01*
X-64866Y-33897D02*
X-63616Y-33897D01*
X-59866Y-38645D02*
X-58616Y-38645D01*
X-59866Y-38645D02*
X-59866Y-32895D01*
X-58616Y-32895D01*
X-58616Y-38645D01*
X-58616Y-37458D02*
X-59866Y-37458D01*
X-59866Y-36271D02*
X-58616Y-36271D01*
X-58616Y-35084D02*
X-59866Y-35084D01*
X-59866Y-33897D02*
X-58616Y-33897D01*
D18*
X-86741Y-1270D03*
D19*
X-387477Y179555D03*
X-237032Y90095D03*
X-237032Y-93905D03*
X-387350Y-182222D03*
X-316800Y136095D03*
X-237032Y-1905D03*
X-316600Y-139905D03*
D20*
X-31623Y-192D03*
X-31623Y-12192D03*
X-31623Y-24192D03*
D21*
X-146431Y-55880D03*
D22*
X-150876Y-60325D01*
D23*
X-164465Y-104902D02*
X-164465Y-130302D01*
X-164465Y-104902D02*
X-180213Y-104902D01*
D24*
X-180213Y-104902D03*
D25*
X-52241Y6230D02*
X-46810Y6230D01*
X-16576Y8702D02*
X-12573Y4699D01*
D23*
X-17653Y-15875D02*
X-17653Y-35179D01*
X-21336Y-12192D02*
X-31623Y-12192D01*
X-21336Y-12192D02*
X-17653Y-15875D01*
D25*
X-121241Y-23770D02*
X-127910Y-23770D01*
X-129921Y-39370D02*
X-146431Y-55880D01*
X-129921Y-25781D02*
X-127910Y-23770D01*
X-129921Y-25781D02*
X-129921Y-39370D01*
X-44338Y8702D02*
X-16576Y8702D01*
X-44338Y8702D02*
X-46810Y6230D01*
D23*
X-164465Y-165354D02*
X-156083Y-173736D01*
X-164465Y-165354D02*
X-164465Y-130302D01*
X12954Y61595D02*
X12954Y86995D01*
X-109241Y39486D02*
X-109241Y33230D01*
X-109241Y39486D02*
X-113697Y43942D01*
X-122936Y43942D01*
D26*
X-122936Y43942D03*
D23*
X-64241Y-41096D02*
X-59617Y-45720D01*
X-64241Y-41096D02*
X-64241Y-35770D01*
X-28194Y-45720D02*
X-17653Y-35179D01*
X-28194Y-45720D02*
X-59617Y-45720D01*
D25*
X-52241Y1230D02*
X-46781Y1230D01*
X-43627Y4384D01*
X-19624Y4384D01*
X-7747Y-7493D01*
X-7747Y-94361D02*
X-21209Y-107823D01*
X-25146Y-107823D01*
X-38735Y-107823D01*
X-7747Y-94361D02*
X-7747Y-7493D01*
D26*
X-25146Y-107823D03*
D25*
X-52241Y11230D02*
X-52174Y11297D01*
X-45496Y12700D02*
X-11684Y12700D01*
X-46899Y11297D02*
X-52174Y11297D01*
X-46899Y11297D02*
X-45496Y12700D01*
X-59241Y-35770D02*
X-59309Y-35838D01*
X-59309Y-40640D01*
X-58039Y-41910D01*
D23*
X-130683Y-94488D02*
X-130683Y-173736D01*
X-105156Y-68961D02*
X-101219Y-68961D01*
X-105156Y-68961D02*
X-130683Y-94488D01*
X-72263Y-68834D02*
X-58928Y-82169D01*
X-58928Y-146939D01*
X-64389Y-152400D01*
X-109347Y-152400D02*
X-130683Y-173736D01*
X-109347Y-152400D02*
X-64389Y-152400D01*
D24*
X-119380Y-58039D03*
D25*
X-116781Y-35770D02*
X-114241Y-35770D01*
X-116781Y-35770D02*
X-119321Y-38310D01*
X-119321Y-54185D01*
X-119380Y-54244D01*
X-119380Y-58039D01*
D24*
X-135382Y-26797D03*
D25*
X-131419Y-18770D02*
X-121241Y-18770D01*
X-135382Y-22733D02*
X-135382Y-26797D01*
X-135382Y-22733D02*
X-131419Y-18770D01*
D24*
X-118491Y78740D03*
D25*
X-118491Y70485D01*
D24*
X-54483Y78359D03*
D27*
X-54483Y74422D02*
X-50546Y70485D01*
X-54483Y74422D02*
X-54483Y78359D01*
D25*
X-61468Y70485D02*
X-65405Y74422D01*
X-65405Y78486D01*
D24*
X-65405Y78486D03*
D25*
X-72771Y70485D02*
X-76454Y74168D01*
X-76454Y78486D01*
D24*
X-76454Y78486D03*
X-85090Y78740D03*
D25*
X-85090Y71755D01*
X-84201Y71755D01*
X-84201Y70485D01*
X-27432Y20955D02*
X-26924Y21463D01*
D23*
X38354Y86995D02*
X46863Y86995D01*
X54356Y79502D01*
X54356Y4445D02*
X47371Y-2540D01*
X9017Y-2540D01*
X1270Y5207D02*
X1270Y16688D01*
X-3505Y21463D01*
X-26924Y21463D01*
X54356Y4445D02*
X54356Y79502D01*
X1270Y5207D02*
X9017Y-2540D01*
X49784Y55753D02*
X43942Y61595D01*
X38354Y61595D01*
X-762Y31496D02*
X-27305Y31496D01*
X49784Y28194D02*
X49784Y55753D01*
X6604Y24130D02*
X-762Y31496D01*
X6604Y24130D02*
X45720Y24130D01*
X49784Y28194D01*
X26924Y48895D02*
X-20320Y48895D01*
X-27305Y41910D01*
X38354Y37465D02*
X38354Y36195D01*
X38354Y37465D02*
X26924Y48895D01*
D24*
X-107061Y78740D03*
D25*
X-107061Y70485D01*
D21*
X-135509Y-14097D03*
D25*
X-131953Y-4826D02*
X-131826Y-4699D01*
D23*
X-131953Y-4826D02*
X-131953Y-11684D01*
X-134366Y-14097D01*
X-135509Y-14097D01*
X-89241Y-35770D02*
X-89241Y-53427D01*
X-92329Y-56515D02*
X-92329Y-68961D01*
X-92329Y-56515D02*
X-89241Y-53427D01*
D25*
X-78867Y-130302D02*
X-75565Y-130302D01*
D23*
X-92329Y-116840D02*
X-92329Y-68961D01*
X-92329Y-116840D02*
X-78867Y-130302D01*
X-84241Y-53173D02*
X-84241Y-35770D01*
X-81153Y-56261D02*
X-81153Y-68834D01*
X-81153Y-56261D02*
X-84241Y-53173D01*
X-81153Y-99314D02*
X-75565Y-104902D01*
X-81153Y-99314D02*
X-81153Y-68834D01*
D24*
X-95631Y78740D03*
D25*
X-95631Y70485D01*
D23*
X-104241Y-35770D02*
X-104241Y-52019D01*
X-122695Y-70473D01*
X-194704Y-70473D01*
X-237032Y-28144D02*
X-237032Y-1905D01*
X-237032Y-28144D02*
X-194704Y-70473D01*
X-99241Y-55858D02*
X-99241Y-35770D01*
X-197231Y-76962D02*
X-236855Y-37338D01*
D26*
X-236855Y-37338D03*
D23*
X-120345Y-76962D02*
X-99241Y-55858D01*
X-120345Y-76962D02*
X-197231Y-76962D01*
D25*
X-52241Y16230D02*
X-52174Y16297D01*
D23*
X-47039Y16297D01*
X-42381Y20955D02*
X-36322Y20955D01*
X-42381Y20955D02*
X-47039Y16297D01*
X-48747Y21230D02*
X-52241Y21230D01*
X-38481Y31496D02*
X-36195Y31496D01*
X-38481Y31496D02*
X-48747Y21230D01*
X-52241Y31071D02*
X-41402Y41910D01*
X-52241Y31071D02*
X-52241Y26230D01*
X-41402Y41910D02*
X-36195Y41910D01*
X-131826Y9144D02*
X-131826Y4191D01*
X-129740Y11230D02*
X-121241Y11230D01*
X-129740Y11230D02*
X-131826Y9144D01*
X-156845Y7874D02*
X-156845Y-4445D01*
X-156845Y7874D02*
X-156845Y12573D01*
X-148209Y21209D01*
D25*
X-121262Y21209D02*
X-121241Y21230D01*
D23*
X-121262Y21209D02*
X-148209Y21209D01*
D26*
X-156845Y7874D03*
D25*
X-156210Y-21844D02*
X-156718Y-22352D01*
D23*
X-156210Y-21844D02*
X-145542Y-21844D01*
X-143002Y-19304D01*
X-143002Y6350D01*
X-133122Y16230D01*
X-121241Y16230D01*
D26*
X-143002Y-19304D03*
D23*
X-59241Y33230D02*
X-59241Y37025D01*
X-50546Y45720D02*
X-50546Y61595D01*
X-50546Y45720D02*
X-59241Y37025D01*
X-64241Y33230D02*
X-64241Y41931D01*
X-61468Y44704D02*
X-61468Y61595D01*
X-61468Y44704D02*
X-64241Y41931D01*
X-69241Y46889D02*
X-69241Y33230D01*
X-72771Y50419D02*
X-72771Y61595D01*
X-72771Y50419D02*
X-69241Y46889D01*
X-74241Y42872D02*
X-74241Y33230D01*
X-84201Y52832D02*
X-84201Y61595D01*
X-84201Y52832D02*
X-74241Y42872D01*
X-79241Y39490D02*
X-79241Y33230D01*
X-95631Y55880D02*
X-95631Y61595D01*
X-95631Y55880D02*
X-79241Y39490D01*
X-84241Y38394D02*
X-84241Y33230D01*
D25*
X-107061Y59944D02*
X-107061Y61595D01*
D23*
X-90805Y44958D02*
X-84241Y38394D01*
X-90805Y44958D02*
X-102870Y44958D01*
X-107061Y49149D01*
X-107061Y59944D01*
X-89181Y37416D02*
X-89181Y33290D01*
D25*
X-89241Y33230D01*
D23*
X-89181Y37416D02*
X-92659Y40894D01*
X-104902Y40894D01*
X-118491Y54483D01*
X-118491Y61595D01*
D25*
X-52241Y-8770D02*
X-48253Y-8770D01*
X-45974Y-11049D02*
X-45974Y-20701D01*
X-42483Y-24192D01*
X-31623Y-24192D01*
X-45974Y-11049D02*
X-48253Y-8770D01*
D23*
X-46061Y-3770D02*
X-52241Y-3770D01*
X-42483Y-192D02*
X-31623Y-192D01*
X-42483Y-192D02*
X-46061Y-3770D01*
M02*
