G04 EAGLE Gerber RS-274X export*
G75*
%MOMM*%
%FSLAX34Y34*%
%LPD*%
%INTop Copper*%
%IPPOS*%
%AMOC8*
5,1,8,0,0,1.08239X$1,22.5*%
G01*
%ADD10C,0.317500*%
%ADD11R,1.651000X1.651000*%
%ADD12C,1.651000*%
%ADD13R,2.032000X1.016000*%
%ADD14R,1.508000X1.508000*%
%ADD15C,1.508000*%
%ADD16C,0.499997*%
%ADD17C,1.000000*%
%ADD18R,0.800000X0.800000*%
%ADD19C,0.203200*%
%ADD20C,0.654800*%

G36*
X-375436Y-179383D02*
X-375436Y-179383D01*
X-375433Y-179291D01*
X-375654Y-176467D01*
X-375661Y-176435D01*
X-375673Y-176344D01*
X-376351Y-173593D01*
X-376363Y-173563D01*
X-376389Y-173480D01*
X-376389Y-173479D01*
X-376389Y-173478D01*
X-376390Y-173475D01*
X-377506Y-170871D01*
X-377523Y-170844D01*
X-377564Y-170761D01*
X-379088Y-168373D01*
X-379092Y-168370D01*
X-379094Y-168365D01*
X-379174Y-168278D01*
X-379253Y-168190D01*
X-379257Y-168188D01*
X-379260Y-168184D01*
X-379363Y-168128D01*
X-379466Y-168069D01*
X-379471Y-168068D01*
X-379476Y-168066D01*
X-379591Y-168045D01*
X-379708Y-168022D01*
X-379713Y-168023D01*
X-379718Y-168022D01*
X-379834Y-168039D01*
X-379952Y-168055D01*
X-379956Y-168057D01*
X-379961Y-168058D01*
X-380114Y-168126D01*
X-395100Y-176889D01*
X-395151Y-176931D01*
X-395207Y-176964D01*
X-395245Y-177009D01*
X-395290Y-177046D01*
X-395324Y-177101D01*
X-395367Y-177151D01*
X-395389Y-177205D01*
X-395419Y-177255D01*
X-395434Y-177319D01*
X-395459Y-177379D01*
X-395468Y-177462D01*
X-395476Y-177494D01*
X-395474Y-177514D01*
X-395477Y-177546D01*
X-395477Y-196596D01*
X-395473Y-196621D01*
X-395476Y-196646D01*
X-395453Y-196742D01*
X-395438Y-196839D01*
X-395426Y-196861D01*
X-395420Y-196886D01*
X-395368Y-196970D01*
X-395322Y-197056D01*
X-395304Y-197074D01*
X-395291Y-197095D01*
X-395215Y-197158D01*
X-395144Y-197226D01*
X-395121Y-197236D01*
X-395102Y-197252D01*
X-395010Y-197288D01*
X-394921Y-197329D01*
X-394896Y-197332D01*
X-394872Y-197341D01*
X-394705Y-197357D01*
X-391872Y-197317D01*
X-391840Y-197311D01*
X-391749Y-197305D01*
X-388960Y-196805D01*
X-388929Y-196794D01*
X-388840Y-196773D01*
X-386170Y-195825D01*
X-386141Y-195809D01*
X-386057Y-195774D01*
X-383577Y-194405D01*
X-383551Y-194385D01*
X-383473Y-194336D01*
X-381249Y-192581D01*
X-381227Y-192557D01*
X-381158Y-192497D01*
X-379249Y-190403D01*
X-379231Y-190376D01*
X-379173Y-190305D01*
X-377630Y-187929D01*
X-377617Y-187899D01*
X-377571Y-187820D01*
X-376435Y-185224D01*
X-376427Y-185192D01*
X-376395Y-185107D01*
X-375915Y-183221D01*
X-373256Y-183221D01*
X-373364Y-183902D01*
X-373857Y-185538D01*
X-374167Y-186569D01*
X-374953Y-188297D01*
X-375320Y-189103D01*
X-376398Y-190817D01*
X-376802Y-191460D01*
X-378588Y-193597D01*
X-379338Y-194282D01*
X-379348Y-194295D01*
X-379360Y-194304D01*
X-379406Y-194375D01*
X-379456Y-194443D01*
X-379459Y-194458D01*
X-379468Y-194471D01*
X-379482Y-194554D01*
X-379501Y-194636D01*
X-379498Y-194652D01*
X-379501Y-194667D01*
X-379481Y-194749D01*
X-379467Y-194832D01*
X-379458Y-194845D01*
X-379455Y-194861D01*
X-379405Y-194929D01*
X-379359Y-194999D01*
X-379346Y-195008D01*
X-379337Y-195021D01*
X-379264Y-195064D01*
X-379195Y-195111D01*
X-379179Y-195114D01*
X-379166Y-195122D01*
X-379002Y-195150D01*
X58608Y-195272D01*
X58611Y-195271D01*
X58615Y-195272D01*
X58708Y-195252D01*
X58802Y-195232D01*
X58806Y-195230D01*
X58810Y-195229D01*
X60046Y-195272D01*
X60054Y-195271D01*
X60064Y-195272D01*
X60194Y-195272D01*
X60201Y-195271D01*
X60209Y-195272D01*
X65820Y-195100D01*
X65858Y-195091D01*
X65917Y-195087D01*
X76965Y-192536D01*
X77006Y-192517D01*
X77087Y-192490D01*
X87099Y-187165D01*
X87133Y-187137D01*
X87205Y-187090D01*
X95497Y-179355D01*
X95523Y-179319D01*
X95580Y-179255D01*
X101588Y-169638D01*
X101603Y-169596D01*
X101642Y-169519D01*
X104956Y-158675D01*
X104960Y-158636D01*
X104975Y-158579D01*
X105542Y-152947D01*
X105540Y-152925D01*
X105544Y-152897D01*
X105544Y159047D01*
X105538Y159079D01*
X105539Y159122D01*
X104893Y163366D01*
X104879Y163403D01*
X104869Y163461D01*
X101895Y171677D01*
X101872Y171715D01*
X101835Y171792D01*
X96836Y178958D01*
X96803Y178990D01*
X96782Y179014D01*
X96766Y179036D01*
X96761Y179039D01*
X96748Y179055D01*
X90064Y184683D01*
X90025Y184704D01*
X89954Y184753D01*
X82042Y188460D01*
X81998Y188470D01*
X81918Y188499D01*
X73315Y190031D01*
X73276Y190030D01*
X73218Y190039D01*
X70041Y189975D01*
X70034Y189974D01*
X70026Y189975D01*
X69937Y189952D01*
X69875Y189938D01*
X68699Y189938D01*
X68681Y189934D01*
X68656Y189936D01*
X67542Y189841D01*
X67498Y189865D01*
X67420Y189911D01*
X67410Y189913D01*
X67403Y189916D01*
X67364Y189920D01*
X67256Y189939D01*
X-379180Y190061D01*
X-379199Y190057D01*
X-379218Y190059D01*
X-379296Y190037D01*
X-379375Y190021D01*
X-379391Y190010D01*
X-379410Y190005D01*
X-379472Y189954D01*
X-379539Y189909D01*
X-379549Y189892D01*
X-379564Y189880D01*
X-379603Y189809D01*
X-379646Y189741D01*
X-379649Y189722D01*
X-379658Y189705D01*
X-379666Y189624D01*
X-379679Y189545D01*
X-379675Y189526D01*
X-379676Y189507D01*
X-379652Y189430D01*
X-379633Y189351D01*
X-379622Y189336D01*
X-379616Y189317D01*
X-379527Y189207D01*
X-379515Y189191D01*
X-379513Y189190D01*
X-379511Y189188D01*
X-378941Y188682D01*
X-377139Y186590D01*
X-375634Y184275D01*
X-374454Y181780D01*
X-374065Y180554D01*
X-376771Y180554D01*
X-377866Y182959D01*
X-377884Y182986D01*
X-377927Y183067D01*
X-379489Y185396D01*
X-379511Y185420D01*
X-379566Y185493D01*
X-381486Y187537D01*
X-381512Y187557D01*
X-381578Y187620D01*
X-383805Y189324D01*
X-383834Y189339D01*
X-383910Y189391D01*
X-386385Y190710D01*
X-386416Y190720D01*
X-386499Y190759D01*
X-389155Y191658D01*
X-389187Y191663D01*
X-389276Y191688D01*
X-392043Y192142D01*
X-392075Y192142D01*
X-392166Y192152D01*
X-394971Y192150D01*
X-394990Y192147D01*
X-395009Y192149D01*
X-395111Y192127D01*
X-395213Y192110D01*
X-395231Y192101D01*
X-395250Y192097D01*
X-395339Y192044D01*
X-395431Y191995D01*
X-395444Y191981D01*
X-395461Y191971D01*
X-395528Y191892D01*
X-395600Y191817D01*
X-395608Y191799D01*
X-395621Y191784D01*
X-395660Y191687D01*
X-395703Y191593D01*
X-395705Y191574D01*
X-395713Y191556D01*
X-395731Y191389D01*
X-395731Y173101D01*
X-395721Y173038D01*
X-395721Y172975D01*
X-395701Y172918D01*
X-395692Y172858D01*
X-395662Y172802D01*
X-395641Y172742D01*
X-395605Y172694D01*
X-395576Y172641D01*
X-395530Y172597D01*
X-395492Y172547D01*
X-395422Y172494D01*
X-395398Y172472D01*
X-395382Y172464D01*
X-395358Y172446D01*
X-380118Y163429D01*
X-380106Y163424D01*
X-380096Y163417D01*
X-379991Y163380D01*
X-379889Y163339D01*
X-379876Y163339D01*
X-379864Y163335D01*
X-379753Y163333D01*
X-379643Y163328D01*
X-379631Y163331D01*
X-379618Y163331D01*
X-379513Y163365D01*
X-379406Y163395D01*
X-379396Y163402D01*
X-379384Y163406D01*
X-379294Y163472D01*
X-379203Y163534D01*
X-379196Y163544D01*
X-379186Y163552D01*
X-379082Y163684D01*
X-377609Y166070D01*
X-377596Y166100D01*
X-377552Y166180D01*
X-376486Y168774D01*
X-376479Y168806D01*
X-376449Y168892D01*
X-375819Y171625D01*
X-375817Y171657D01*
X-375801Y171748D01*
X-375624Y174546D01*
X-375628Y174579D01*
X-375627Y174671D01*
X-375908Y177461D01*
X-375916Y177492D01*
X-375930Y177583D01*
X-376193Y178556D01*
X-373516Y178556D01*
X-373146Y176429D01*
X-373041Y173670D01*
X-373307Y170923D01*
X-373940Y168236D01*
X-374928Y165658D01*
X-375266Y165039D01*
X-375748Y164158D01*
X-375749Y164154D01*
X-375752Y164151D01*
X-375779Y164058D01*
X-375807Y163968D01*
X-375807Y163964D01*
X-375808Y163961D01*
X-375797Y163866D01*
X-375787Y163770D01*
X-375785Y163767D01*
X-375785Y163763D01*
X-375737Y163679D01*
X-375691Y163596D01*
X-375688Y163593D01*
X-375687Y163590D01*
X-375558Y163485D01*
X-344991Y146013D01*
X-344907Y145985D01*
X-344825Y145954D01*
X-344813Y145954D01*
X-344802Y145951D01*
X-344715Y145958D01*
X-344626Y145961D01*
X-344616Y145966D01*
X-344604Y145967D01*
X-344526Y146008D01*
X-344446Y146045D01*
X-344437Y146054D01*
X-344428Y146059D01*
X-344401Y146092D01*
X-344331Y146165D01*
X-343848Y146872D01*
X-343819Y146941D01*
X-343783Y147007D01*
X-343779Y147035D01*
X-343771Y147055D01*
X-343771Y147099D01*
X-343762Y147172D01*
X-343762Y147180D01*
X-343320Y147656D01*
X-343303Y147683D01*
X-343273Y147714D01*
X-342907Y148251D01*
X-342899Y148252D01*
X-342830Y148280D01*
X-342758Y148302D01*
X-342735Y148319D01*
X-342715Y148327D01*
X-342684Y148358D01*
X-342626Y148403D01*
X-341013Y150139D01*
X-340974Y150203D01*
X-340928Y150263D01*
X-340920Y150290D01*
X-340909Y150309D01*
X-340903Y150352D01*
X-340882Y150423D01*
X-340881Y150431D01*
X-340373Y150836D01*
X-340358Y150854D01*
X-340349Y150860D01*
X-340346Y150865D01*
X-340319Y150886D01*
X-339877Y151362D01*
X-339868Y151363D01*
X-339795Y151380D01*
X-339721Y151390D01*
X-339697Y151404D01*
X-339675Y151409D01*
X-339640Y151436D01*
X-339576Y151471D01*
X-337722Y152948D01*
X-337674Y153005D01*
X-337620Y153057D01*
X-337608Y153083D01*
X-337594Y153100D01*
X-337581Y153142D01*
X-337551Y153209D01*
X-337549Y153216D01*
X-336986Y153541D01*
X-336962Y153562D01*
X-336924Y153583D01*
X-336416Y153988D01*
X-336408Y153987D01*
X-336333Y153993D01*
X-336258Y153992D01*
X-336232Y154002D01*
X-336210Y154004D01*
X-336171Y154025D01*
X-336102Y154050D01*
X-334049Y155234D01*
X-333993Y155284D01*
X-333932Y155327D01*
X-333917Y155351D01*
X-333900Y155366D01*
X-333881Y155405D01*
X-333841Y155467D01*
X-333838Y155474D01*
X-333233Y155711D01*
X-333206Y155728D01*
X-333166Y155743D01*
X-332603Y156068D01*
X-332595Y156066D01*
X-332520Y156061D01*
X-332446Y156049D01*
X-332419Y156055D01*
X-332397Y156053D01*
X-332355Y156068D01*
X-332284Y156083D01*
X-330077Y156947D01*
X-330014Y156988D01*
X-329947Y157022D01*
X-329928Y157043D01*
X-329910Y157055D01*
X-329885Y157092D01*
X-329836Y157146D01*
X-329832Y157153D01*
X-329199Y157297D01*
X-329170Y157311D01*
X-329127Y157319D01*
X-328523Y157556D01*
X-328515Y157553D01*
X-328442Y157537D01*
X-328371Y157514D01*
X-328342Y157516D01*
X-328321Y157511D01*
X-328278Y157520D01*
X-328204Y157524D01*
X-325893Y158050D01*
X-325825Y158081D01*
X-325754Y158105D01*
X-325732Y158123D01*
X-325712Y158132D01*
X-325682Y158164D01*
X-325626Y158211D01*
X-325621Y158217D01*
X-324973Y158265D01*
X-324942Y158274D01*
X-324899Y158276D01*
X-324266Y158420D01*
X-324259Y158416D01*
X-324189Y158389D01*
X-324122Y158356D01*
X-324094Y158353D01*
X-324073Y158346D01*
X-324029Y158347D01*
X-323956Y158341D01*
X-321592Y158516D01*
X-321520Y158537D01*
X-321446Y158550D01*
X-321422Y158564D01*
X-321401Y158570D01*
X-321367Y158598D01*
X-321304Y158636D01*
X-321298Y158641D01*
X-320650Y158592D01*
X-320619Y158596D01*
X-320576Y158592D01*
X-319928Y158640D01*
X-319922Y158635D01*
X-319856Y158598D01*
X-319795Y158555D01*
X-319768Y158548D01*
X-319748Y158538D01*
X-319705Y158533D01*
X-319633Y158515D01*
X-317270Y158337D01*
X-317196Y158346D01*
X-317121Y158348D01*
X-317095Y158359D01*
X-317073Y158361D01*
X-317035Y158383D01*
X-316967Y158411D01*
X-316960Y158416D01*
X-316327Y158271D01*
X-316295Y158270D01*
X-316253Y158260D01*
X-315606Y158211D01*
X-315600Y158205D01*
X-315541Y158159D01*
X-315487Y158107D01*
X-315461Y158096D01*
X-315443Y158083D01*
X-315401Y158071D01*
X-315333Y158043D01*
X-313023Y157515D01*
X-312948Y157513D01*
X-312873Y157503D01*
X-312846Y157510D01*
X-312824Y157510D01*
X-312783Y157526D01*
X-312712Y157544D01*
X-312705Y157547D01*
X-312100Y157309D01*
X-312069Y157304D01*
X-312029Y157287D01*
X-311396Y157142D01*
X-311391Y157135D01*
X-311340Y157081D01*
X-311294Y157022D01*
X-311269Y157007D01*
X-311254Y156991D01*
X-311214Y156974D01*
X-311151Y156936D01*
X-308945Y156069D01*
X-308872Y156056D01*
X-308799Y156036D01*
X-308771Y156038D01*
X-308749Y156034D01*
X-308707Y156044D01*
X-308634Y156051D01*
X-308626Y156053D01*
X-308063Y155728D01*
X-308033Y155718D01*
X-307996Y155696D01*
X-307392Y155458D01*
X-307389Y155451D01*
X-307346Y155389D01*
X-307309Y155324D01*
X-307287Y155306D01*
X-307274Y155288D01*
X-307237Y155264D01*
X-307181Y155218D01*
X-305129Y154031D01*
X-305058Y154008D01*
X-304989Y153977D01*
X-304961Y153975D01*
X-304940Y153968D01*
X-304896Y153972D01*
X-304823Y153967D01*
X-304815Y153968D01*
X-304308Y153563D01*
X-304280Y153549D01*
X-304246Y153521D01*
X-303684Y153196D01*
X-303682Y153188D01*
X-303648Y153121D01*
X-303622Y153051D01*
X-303603Y153030D01*
X-303593Y153010D01*
X-303560Y152981D01*
X-303511Y152927D01*
X-301659Y151448D01*
X-301592Y151414D01*
X-301529Y151373D01*
X-301501Y151367D01*
X-301482Y151357D01*
X-301438Y151354D01*
X-301366Y151339D01*
X-301358Y151339D01*
X-300917Y150863D01*
X-300901Y150851D01*
X-300890Y150837D01*
X-300878Y150830D01*
X-300862Y150812D01*
X-300354Y150406D01*
X-300353Y150398D01*
X-300330Y150327D01*
X-300315Y150254D01*
X-300299Y150230D01*
X-300292Y150209D01*
X-300264Y150176D01*
X-300224Y150115D01*
X-298612Y148376D01*
X-298552Y148332D01*
X-298495Y148283D01*
X-298469Y148273D01*
X-298451Y148260D01*
X-298408Y148250D01*
X-298399Y148247D01*
X-298386Y148239D01*
X-298371Y148237D01*
X-298339Y148225D01*
X-298331Y148224D01*
X-297966Y147687D01*
X-297943Y147665D01*
X-297919Y147628D01*
X-297478Y147152D01*
X-297478Y147144D01*
X-297466Y147070D01*
X-297461Y146995D01*
X-297450Y146969D01*
X-297446Y146948D01*
X-297422Y146910D01*
X-297392Y146844D01*
X-296058Y144885D01*
X-296004Y144832D01*
X-295956Y144775D01*
X-295931Y144761D01*
X-295916Y144746D01*
X-295874Y144730D01*
X-295810Y144695D01*
X-295803Y144692D01*
X-295521Y144107D01*
X-295502Y144081D01*
X-295484Y144042D01*
X-295119Y143505D01*
X-295120Y143497D01*
X-295119Y143422D01*
X-295126Y143347D01*
X-295118Y143320D01*
X-295118Y143298D01*
X-295100Y143258D01*
X-295080Y143188D01*
X-294052Y141052D01*
X-294007Y140992D01*
X-293968Y140928D01*
X-293946Y140911D01*
X-293932Y140893D01*
X-293894Y140871D01*
X-293836Y140827D01*
X-293829Y140823D01*
X-293638Y140202D01*
X-293623Y140174D01*
X-293611Y140133D01*
X-293329Y139547D01*
X-293332Y139540D01*
X-293342Y139465D01*
X-293360Y139392D01*
X-293356Y139364D01*
X-293359Y139343D01*
X-293347Y139300D01*
X-293338Y139228D01*
X-292641Y136962D01*
X-292605Y136896D01*
X-292576Y136827D01*
X-292556Y136807D01*
X-292545Y136788D01*
X-292511Y136760D01*
X-292460Y136708D01*
X-292454Y136703D01*
X-292357Y136061D01*
X-292346Y136031D01*
X-292341Y135988D01*
X-292150Y135367D01*
X-292153Y135360D01*
X-292175Y135288D01*
X-292203Y135218D01*
X-292203Y135190D01*
X-292210Y135169D01*
X-292204Y135125D01*
X-292206Y135052D01*
X-291854Y132708D01*
X-291828Y132638D01*
X-291810Y132565D01*
X-291793Y132542D01*
X-291786Y132521D01*
X-291756Y132489D01*
X-291714Y132429D01*
X-291708Y132424D01*
X-291708Y131774D01*
X-291702Y131743D01*
X-291703Y131700D01*
X-291606Y131057D01*
X-291611Y131051D01*
X-291643Y130983D01*
X-291681Y130919D01*
X-291686Y130891D01*
X-291695Y130871D01*
X-291697Y130827D01*
X-291709Y130755D01*
X-291710Y128384D01*
X-291695Y128311D01*
X-291688Y128236D01*
X-291675Y128211D01*
X-291671Y128190D01*
X-291646Y128153D01*
X-291613Y128088D01*
X-291608Y128081D01*
X-291705Y127439D01*
X-291704Y127407D01*
X-291711Y127365D01*
X-291711Y126715D01*
X-291717Y126709D01*
X-291758Y126647D01*
X-291806Y126589D01*
X-291815Y126562D01*
X-291827Y126544D01*
X-291835Y126500D01*
X-291858Y126431D01*
X-292212Y124088D01*
X-292209Y124013D01*
X-292212Y123938D01*
X-292204Y123911D01*
X-292202Y123889D01*
X-292183Y123849D01*
X-292160Y123780D01*
X-292157Y123773D01*
X-292348Y123152D01*
X-292352Y123120D01*
X-292365Y123079D01*
X-292462Y122437D01*
X-292469Y122432D01*
X-292519Y122377D01*
X-292575Y122326D01*
X-292587Y122301D01*
X-292602Y122285D01*
X-292617Y122243D01*
X-292650Y122178D01*
X-293350Y119913D01*
X-293357Y119839D01*
X-293372Y119765D01*
X-293367Y119739D01*
X-293367Y119738D01*
X-293367Y119737D01*
X-293369Y119716D01*
X-293356Y119674D01*
X-293344Y119601D01*
X-293341Y119594D01*
X-293623Y119009D01*
X-293631Y118978D01*
X-293651Y118939D01*
X-293842Y118319D01*
X-293850Y118315D01*
X-293908Y118267D01*
X-293970Y118226D01*
X-293986Y118203D01*
X-294004Y118189D01*
X-294024Y118150D01*
X-294066Y118090D01*
X-294312Y117580D01*
X-294335Y117492D01*
X-294360Y117406D01*
X-294359Y117396D01*
X-294361Y117387D01*
X-294348Y117298D01*
X-294337Y117208D01*
X-294333Y117200D01*
X-294331Y117191D01*
X-294284Y117114D01*
X-294239Y117035D01*
X-294231Y117029D01*
X-294227Y117022D01*
X-294195Y116999D01*
X-294110Y116930D01*
X-262507Y98866D01*
X-262437Y98842D01*
X-262368Y98812D01*
X-262343Y98811D01*
X-262319Y98803D01*
X-262244Y98809D01*
X-262169Y98808D01*
X-262146Y98817D01*
X-262120Y98820D01*
X-262054Y98854D01*
X-261985Y98882D01*
X-261964Y98902D01*
X-261944Y98912D01*
X-261916Y98946D01*
X-261863Y98996D01*
X-260968Y100165D01*
X-260589Y100661D01*
X-258547Y102707D01*
X-256256Y104470D01*
X-253754Y105918D01*
X-251084Y107028D01*
X-248292Y107779D01*
X-245427Y108160D01*
X-242536Y108164D01*
X-239669Y107790D01*
X-238031Y107353D01*
X-238031Y104676D01*
X-238298Y104781D01*
X-238332Y104787D01*
X-238378Y104805D01*
X-241491Y105463D01*
X-241526Y105463D01*
X-241574Y105473D01*
X-244753Y105603D01*
X-244788Y105597D01*
X-244837Y105599D01*
X-247993Y105196D01*
X-248026Y105185D01*
X-248075Y105179D01*
X-251120Y104256D01*
X-251151Y104239D01*
X-251198Y104225D01*
X-254046Y102806D01*
X-254074Y102785D01*
X-254117Y102763D01*
X-256690Y100890D01*
X-256713Y100864D01*
X-256753Y100835D01*
X-258976Y98559D01*
X-258995Y98529D01*
X-259029Y98494D01*
X-260842Y95879D01*
X-260854Y95852D01*
X-260873Y95830D01*
X-260893Y95762D01*
X-260921Y95697D01*
X-260921Y95667D01*
X-260929Y95639D01*
X-260921Y95569D01*
X-260922Y95498D01*
X-260910Y95471D01*
X-260907Y95441D01*
X-260872Y95380D01*
X-260845Y95314D01*
X-260824Y95294D01*
X-260809Y95268D01*
X-260734Y95206D01*
X-260703Y95176D01*
X-260692Y95171D01*
X-260681Y95162D01*
X-244431Y85806D01*
X-244431Y67095D01*
X-244425Y67066D01*
X-244428Y67036D01*
X-244406Y66969D01*
X-244392Y66900D01*
X-244375Y66876D01*
X-244366Y66847D01*
X-244319Y66794D01*
X-244279Y66736D01*
X-244254Y66720D01*
X-244234Y66698D01*
X-244171Y66667D01*
X-244112Y66629D01*
X-244082Y66624D01*
X-244055Y66611D01*
X-243958Y66603D01*
X-243915Y66596D01*
X-243904Y66599D01*
X-243890Y66598D01*
X-240719Y66868D01*
X-240686Y66878D01*
X-240637Y66882D01*
X-238031Y67554D01*
X-238031Y64864D01*
X-239617Y64437D01*
X-241565Y64178D01*
X-241636Y64153D01*
X-241709Y64136D01*
X-241729Y64121D01*
X-241753Y64113D01*
X-241809Y64063D01*
X-241869Y64018D01*
X-241882Y63997D01*
X-241900Y63980D01*
X-241932Y63912D01*
X-241971Y63847D01*
X-241975Y63820D01*
X-241984Y63800D01*
X-241986Y63756D01*
X-241998Y63683D01*
X-241998Y27444D01*
X-241980Y27356D01*
X-241966Y27268D01*
X-241961Y27259D01*
X-241959Y27249D01*
X-241908Y27175D01*
X-241861Y27100D01*
X-241852Y27094D01*
X-241846Y27085D01*
X-241771Y27037D01*
X-241698Y26986D01*
X-241687Y26983D01*
X-241679Y26978D01*
X-241639Y26971D01*
X-241536Y26946D01*
X-240585Y26875D01*
X-240510Y26884D01*
X-240435Y26886D01*
X-240409Y26897D01*
X-240387Y26899D01*
X-240349Y26922D01*
X-240322Y26933D01*
X-240319Y26934D01*
X-240318Y26935D01*
X-240282Y26950D01*
X-240275Y26954D01*
X-239642Y26809D01*
X-239610Y26809D01*
X-239568Y26798D01*
X-238920Y26750D01*
X-238915Y26744D01*
X-238856Y26698D01*
X-238801Y26646D01*
X-238775Y26635D01*
X-238758Y26622D01*
X-238715Y26611D01*
X-238648Y26583D01*
X-236333Y26054D01*
X-236258Y26052D01*
X-236183Y26043D01*
X-236156Y26050D01*
X-236134Y26049D01*
X-236093Y26066D01*
X-236022Y26083D01*
X-236015Y26087D01*
X-235632Y25937D01*
X-235631Y25936D01*
X-235630Y25936D01*
X-235534Y25919D01*
X-235437Y25902D01*
X-235435Y25903D01*
X-235433Y25902D01*
X-235338Y25925D01*
X-235243Y25947D01*
X-235242Y25948D01*
X-235240Y25948D01*
X-235162Y26006D01*
X-235082Y26064D01*
X-235081Y26065D01*
X-235080Y26066D01*
X-235031Y26149D01*
X-234979Y26234D01*
X-234979Y26236D01*
X-234978Y26237D01*
X-234951Y26401D01*
X-234951Y27043D01*
X-234953Y27056D01*
X-234951Y27068D01*
X-234973Y27153D01*
X-234990Y27238D01*
X-234997Y27249D01*
X-235001Y27261D01*
X-235097Y27397D01*
X-237209Y29508D01*
X-237209Y33484D01*
X-234398Y36295D01*
X-230422Y36295D01*
X-227611Y33484D01*
X-227611Y29508D01*
X-229723Y27397D01*
X-229730Y27386D01*
X-229740Y27379D01*
X-229785Y27304D01*
X-229833Y27231D01*
X-229835Y27218D01*
X-229842Y27208D01*
X-229869Y27043D01*
X-229869Y23692D01*
X-229854Y23616D01*
X-229845Y23539D01*
X-229834Y23519D01*
X-229830Y23497D01*
X-229786Y23433D01*
X-229748Y23365D01*
X-229728Y23349D01*
X-229717Y23333D01*
X-229680Y23309D01*
X-229620Y23259D01*
X-228429Y22572D01*
X-228358Y22548D01*
X-228290Y22518D01*
X-228262Y22516D01*
X-228241Y22509D01*
X-228197Y22512D01*
X-228124Y22508D01*
X-228116Y22509D01*
X-227608Y22104D01*
X-227580Y22090D01*
X-227546Y22062D01*
X-226984Y21738D01*
X-226982Y21730D01*
X-226965Y21696D01*
X-226964Y21691D01*
X-226960Y21687D01*
X-226948Y21663D01*
X-226922Y21593D01*
X-226903Y21572D01*
X-226893Y21552D01*
X-226859Y21523D01*
X-226811Y21469D01*
X-224954Y19988D01*
X-224887Y19954D01*
X-224825Y19914D01*
X-224797Y19908D01*
X-224777Y19898D01*
X-224733Y19895D01*
X-224662Y19880D01*
X-224653Y19879D01*
X-224212Y19403D01*
X-224186Y19385D01*
X-224157Y19352D01*
X-223649Y18947D01*
X-223648Y18939D01*
X-223625Y18868D01*
X-223609Y18795D01*
X-223594Y18771D01*
X-223587Y18750D01*
X-223558Y18717D01*
X-223518Y18656D01*
X-221903Y16915D01*
X-221842Y16872D01*
X-221786Y16822D01*
X-221760Y16812D01*
X-221742Y16799D01*
X-221699Y16790D01*
X-221630Y16764D01*
X-221622Y16763D01*
X-221256Y16226D01*
X-221233Y16204D01*
X-221210Y16168D01*
X-220768Y15692D01*
X-220768Y15683D01*
X-220756Y15609D01*
X-220751Y15535D01*
X-220739Y15509D01*
X-220736Y15487D01*
X-220712Y15450D01*
X-220682Y15384D01*
X-219344Y13422D01*
X-219291Y13369D01*
X-219242Y13312D01*
X-219218Y13298D01*
X-219202Y13283D01*
X-219161Y13267D01*
X-219097Y13232D01*
X-219089Y13229D01*
X-218807Y12644D01*
X-218788Y12619D01*
X-218770Y12579D01*
X-218404Y12043D01*
X-218405Y12035D01*
X-218404Y11960D01*
X-218411Y11885D01*
X-218403Y11858D01*
X-218403Y11836D01*
X-218385Y11795D01*
X-218365Y11725D01*
X-217335Y9586D01*
X-217289Y9526D01*
X-217250Y9462D01*
X-217228Y9445D01*
X-217214Y9428D01*
X-217176Y9406D01*
X-217118Y9361D01*
X-217111Y9357D01*
X-216919Y8737D01*
X-216908Y8715D01*
X-216907Y8711D01*
X-216904Y8707D01*
X-216892Y8667D01*
X-216610Y8082D01*
X-216613Y8074D01*
X-216623Y8000D01*
X-216641Y7927D01*
X-216637Y7899D01*
X-216640Y7877D01*
X-216628Y7835D01*
X-216619Y7762D01*
X-215919Y5494D01*
X-215883Y5428D01*
X-215854Y5359D01*
X-215834Y5338D01*
X-215824Y5319D01*
X-215789Y5292D01*
X-215738Y5239D01*
X-215732Y5234D01*
X-215635Y4592D01*
X-215624Y4562D01*
X-215618Y4519D01*
X-215427Y3898D01*
X-215431Y3891D01*
X-215452Y3819D01*
X-215480Y3750D01*
X-215481Y3722D01*
X-215487Y3701D01*
X-215482Y3657D01*
X-215483Y3584D01*
X-215129Y1236D01*
X-215103Y1165D01*
X-215085Y1093D01*
X-215069Y1070D01*
X-215061Y1049D01*
X-215031Y1017D01*
X-214989Y957D01*
X-214983Y951D01*
X-214983Y302D01*
X-214976Y271D01*
X-214977Y227D01*
X-214880Y-415D01*
X-214885Y-421D01*
X-214917Y-489D01*
X-214955Y-554D01*
X-214960Y-582D01*
X-214969Y-602D01*
X-214971Y-646D01*
X-214983Y-718D01*
X-214983Y-3092D01*
X-214968Y-3166D01*
X-214960Y-3240D01*
X-214948Y-3265D01*
X-214943Y-3287D01*
X-214918Y-3323D01*
X-214885Y-3389D01*
X-214880Y-3395D01*
X-214977Y-4037D01*
X-214976Y-4069D01*
X-214983Y-4112D01*
X-214983Y-4761D01*
X-214989Y-4767D01*
X-215030Y-4830D01*
X-215077Y-4888D01*
X-215086Y-4915D01*
X-215098Y-4933D01*
X-215106Y-4976D01*
X-215129Y-5046D01*
X-215483Y-7394D01*
X-215479Y-7469D01*
X-215483Y-7543D01*
X-215474Y-7570D01*
X-215473Y-7592D01*
X-215454Y-7632D01*
X-215431Y-7701D01*
X-215427Y-7708D01*
X-215618Y-8329D01*
X-215622Y-8361D01*
X-215635Y-8402D01*
X-215732Y-9044D01*
X-215738Y-9049D01*
X-215789Y-9105D01*
X-215844Y-9155D01*
X-215857Y-9180D01*
X-215872Y-9197D01*
X-215886Y-9238D01*
X-215919Y-9304D01*
X-216619Y-11572D01*
X-216626Y-11647D01*
X-216641Y-11720D01*
X-216636Y-11748D01*
X-216638Y-11770D01*
X-216625Y-11812D01*
X-216613Y-11884D01*
X-216610Y-11892D01*
X-216892Y-12477D01*
X-216900Y-12508D01*
X-216919Y-12547D01*
X-217111Y-13167D01*
X-217118Y-13171D01*
X-217176Y-13219D01*
X-217238Y-13260D01*
X-217255Y-13283D01*
X-217272Y-13297D01*
X-217292Y-13336D01*
X-217335Y-13396D01*
X-218365Y-15535D01*
X-218383Y-15608D01*
X-218409Y-15678D01*
X-218408Y-15707D01*
X-218414Y-15728D01*
X-218407Y-15772D01*
X-218405Y-15845D01*
X-218404Y-15853D01*
X-218770Y-16389D01*
X-218782Y-16419D01*
X-218807Y-16454D01*
X-219089Y-17039D01*
X-219097Y-17042D01*
X-219161Y-17080D01*
X-219229Y-17112D01*
X-219248Y-17132D01*
X-219267Y-17143D01*
X-219294Y-17179D01*
X-219302Y-17188D01*
X-219309Y-17192D01*
X-219313Y-17199D01*
X-219344Y-17232D01*
X-220682Y-19194D01*
X-220711Y-19263D01*
X-220747Y-19329D01*
X-220750Y-19356D01*
X-220759Y-19377D01*
X-220759Y-19421D01*
X-220768Y-19493D01*
X-220768Y-19502D01*
X-221210Y-19978D01*
X-221226Y-20005D01*
X-221256Y-20036D01*
X-221622Y-20573D01*
X-221630Y-20574D01*
X-221699Y-20603D01*
X-221771Y-20624D01*
X-221794Y-20641D01*
X-221814Y-20649D01*
X-221845Y-20681D01*
X-221903Y-20725D01*
X-223518Y-22466D01*
X-223557Y-22530D01*
X-223602Y-22590D01*
X-223610Y-22617D01*
X-223622Y-22636D01*
X-223628Y-22679D01*
X-223648Y-22749D01*
X-223649Y-22757D01*
X-224157Y-23162D01*
X-224172Y-23180D01*
X-224176Y-23183D01*
X-224180Y-23189D01*
X-224212Y-23213D01*
X-224653Y-23689D01*
X-224662Y-23690D01*
X-224735Y-23707D01*
X-224809Y-23718D01*
X-224833Y-23731D01*
X-224855Y-23737D01*
X-224890Y-23763D01*
X-224954Y-23798D01*
X-226811Y-25279D01*
X-226859Y-25336D01*
X-226912Y-25388D01*
X-226924Y-25414D01*
X-226938Y-25431D01*
X-226951Y-25473D01*
X-226982Y-25540D01*
X-226984Y-25548D01*
X-227546Y-25872D01*
X-227570Y-25894D01*
X-227608Y-25914D01*
X-228116Y-26319D01*
X-228124Y-26318D01*
X-228198Y-26325D01*
X-228273Y-26324D01*
X-228300Y-26334D01*
X-228322Y-26336D01*
X-228361Y-26357D01*
X-228429Y-26382D01*
X-230485Y-27569D01*
X-230542Y-27619D01*
X-230602Y-27663D01*
X-230618Y-27686D01*
X-230634Y-27701D01*
X-230653Y-27741D01*
X-230693Y-27802D01*
X-230697Y-27810D01*
X-231301Y-28047D01*
X-231323Y-28061D01*
X-231333Y-28063D01*
X-231343Y-28070D01*
X-231369Y-28079D01*
X-231931Y-28404D01*
X-231939Y-28402D01*
X-232014Y-28397D01*
X-232088Y-28385D01*
X-232115Y-28391D01*
X-232137Y-28390D01*
X-232179Y-28404D01*
X-232251Y-28419D01*
X-234461Y-29287D01*
X-234524Y-29328D01*
X-234590Y-29362D01*
X-234609Y-29383D01*
X-234628Y-29395D01*
X-234652Y-29431D01*
X-234701Y-29486D01*
X-234705Y-29493D01*
X-235339Y-29637D01*
X-235368Y-29651D01*
X-235410Y-29659D01*
X-236015Y-29897D01*
X-236022Y-29893D01*
X-236095Y-29878D01*
X-236167Y-29855D01*
X-236195Y-29856D01*
X-236216Y-29852D01*
X-236260Y-29860D01*
X-236333Y-29864D01*
X-238648Y-30393D01*
X-238716Y-30423D01*
X-238787Y-30447D01*
X-238809Y-30465D01*
X-238829Y-30475D01*
X-238859Y-30507D01*
X-238915Y-30554D01*
X-238920Y-30560D01*
X-239568Y-30608D01*
X-239599Y-30617D01*
X-239642Y-30619D01*
X-240275Y-30764D01*
X-240282Y-30760D01*
X-240352Y-30733D01*
X-240419Y-30700D01*
X-240447Y-30697D01*
X-240468Y-30690D01*
X-240512Y-30691D01*
X-240585Y-30685D01*
X-241536Y-30756D01*
X-241622Y-30780D01*
X-241709Y-30801D01*
X-241717Y-30807D01*
X-241728Y-30810D01*
X-241797Y-30866D01*
X-241869Y-30919D01*
X-241874Y-30928D01*
X-241883Y-30934D01*
X-241925Y-31013D01*
X-241971Y-31090D01*
X-241972Y-31101D01*
X-241977Y-31109D01*
X-241981Y-31150D01*
X-241998Y-31254D01*
X-241998Y-67495D01*
X-241983Y-67570D01*
X-241975Y-67645D01*
X-241963Y-67666D01*
X-241959Y-67690D01*
X-241916Y-67753D01*
X-241879Y-67819D01*
X-241860Y-67834D01*
X-241846Y-67854D01*
X-241782Y-67895D01*
X-241722Y-67942D01*
X-241696Y-67949D01*
X-241679Y-67961D01*
X-241635Y-67968D01*
X-241563Y-67990D01*
X-240827Y-68085D01*
X-239747Y-68224D01*
X-238031Y-68671D01*
X-238031Y-71364D01*
X-240637Y-70692D01*
X-240672Y-70690D01*
X-240719Y-70678D01*
X-243890Y-70408D01*
X-243919Y-70411D01*
X-243949Y-70406D01*
X-244017Y-70422D01*
X-244087Y-70430D01*
X-244113Y-70445D01*
X-244142Y-70452D01*
X-244199Y-70494D01*
X-244260Y-70529D01*
X-244278Y-70552D01*
X-244302Y-70570D01*
X-244338Y-70630D01*
X-244381Y-70687D01*
X-244388Y-70715D01*
X-244404Y-70741D01*
X-244420Y-70837D01*
X-244431Y-70879D01*
X-244429Y-70891D01*
X-244431Y-70905D01*
X-244431Y-89616D01*
X-260681Y-98972D01*
X-260703Y-98992D01*
X-260730Y-99004D01*
X-260777Y-99057D01*
X-260830Y-99104D01*
X-260843Y-99130D01*
X-260863Y-99152D01*
X-260886Y-99219D01*
X-260916Y-99283D01*
X-260918Y-99313D01*
X-260927Y-99340D01*
X-260922Y-99411D01*
X-260925Y-99482D01*
X-260915Y-99510D01*
X-260913Y-99539D01*
X-260872Y-99627D01*
X-260869Y-99638D01*
X-260866Y-99642D01*
X-260856Y-99668D01*
X-260848Y-99677D01*
X-260842Y-99689D01*
X-259029Y-102304D01*
X-259004Y-102329D01*
X-258976Y-102369D01*
X-256753Y-104645D01*
X-256724Y-104665D01*
X-256690Y-104700D01*
X-254117Y-106573D01*
X-254086Y-106588D01*
X-254046Y-106616D01*
X-251198Y-108035D01*
X-251164Y-108044D01*
X-251120Y-108066D01*
X-248075Y-108989D01*
X-248040Y-108992D01*
X-247993Y-109006D01*
X-244837Y-109409D01*
X-244802Y-109406D01*
X-244753Y-109413D01*
X-241574Y-109283D01*
X-241540Y-109275D01*
X-241491Y-109273D01*
X-238378Y-108615D01*
X-238346Y-108601D01*
X-238298Y-108591D01*
X-238031Y-108486D01*
X-238031Y-111191D01*
X-240489Y-111743D01*
X-243280Y-112006D01*
X-246082Y-111914D01*
X-248849Y-111468D01*
X-251538Y-110675D01*
X-254104Y-109548D01*
X-256508Y-108105D01*
X-258709Y-106370D01*
X-260673Y-104370D01*
X-261847Y-102823D01*
X-261905Y-102772D01*
X-261957Y-102717D01*
X-261979Y-102707D01*
X-261996Y-102692D01*
X-262069Y-102668D01*
X-262140Y-102637D01*
X-262163Y-102637D01*
X-262185Y-102629D01*
X-262262Y-102636D01*
X-262339Y-102635D01*
X-262363Y-102644D01*
X-262383Y-102646D01*
X-262422Y-102666D01*
X-262494Y-102693D01*
X-293758Y-120781D01*
X-293824Y-120840D01*
X-293893Y-120896D01*
X-293898Y-120906D01*
X-293906Y-120913D01*
X-293945Y-120993D01*
X-293986Y-121072D01*
X-293987Y-121083D01*
X-293992Y-121092D01*
X-293996Y-121181D01*
X-294004Y-121270D01*
X-294000Y-121281D01*
X-294001Y-121291D01*
X-293986Y-121329D01*
X-293957Y-121430D01*
X-293485Y-122408D01*
X-293440Y-122468D01*
X-293401Y-122532D01*
X-293378Y-122549D01*
X-293365Y-122567D01*
X-293327Y-122588D01*
X-293269Y-122633D01*
X-293261Y-122637D01*
X-293070Y-123257D01*
X-293054Y-123285D01*
X-293042Y-123327D01*
X-292760Y-123912D01*
X-292763Y-123919D01*
X-292773Y-123994D01*
X-292790Y-124067D01*
X-292787Y-124095D01*
X-292790Y-124116D01*
X-292778Y-124159D01*
X-292769Y-124231D01*
X-292069Y-126496D01*
X-292033Y-126561D01*
X-292003Y-126631D01*
X-291984Y-126651D01*
X-291973Y-126670D01*
X-291939Y-126698D01*
X-291888Y-126750D01*
X-291881Y-126755D01*
X-291784Y-127397D01*
X-291773Y-127427D01*
X-291767Y-127470D01*
X-291576Y-128091D01*
X-291579Y-128098D01*
X-291600Y-128170D01*
X-291629Y-128239D01*
X-291629Y-128267D01*
X-291635Y-128289D01*
X-291630Y-128332D01*
X-291631Y-128406D01*
X-291277Y-130749D01*
X-291251Y-130819D01*
X-291232Y-130892D01*
X-291216Y-130915D01*
X-291208Y-130936D01*
X-291178Y-130968D01*
X-291136Y-131027D01*
X-291130Y-131033D01*
X-291130Y-131683D01*
X-291123Y-131714D01*
X-291124Y-131757D01*
X-291027Y-132399D01*
X-291032Y-132406D01*
X-291063Y-132474D01*
X-291102Y-132538D01*
X-291106Y-132566D01*
X-291116Y-132586D01*
X-291117Y-132630D01*
X-291129Y-132702D01*
X-291128Y-135073D01*
X-291113Y-135146D01*
X-291105Y-135221D01*
X-291092Y-135246D01*
X-291088Y-135267D01*
X-291063Y-135304D01*
X-291030Y-135369D01*
X-291025Y-135376D01*
X-291122Y-136018D01*
X-291120Y-136050D01*
X-291127Y-136092D01*
X-291127Y-136742D01*
X-291133Y-136747D01*
X-291174Y-136810D01*
X-291221Y-136868D01*
X-291230Y-136895D01*
X-291242Y-136913D01*
X-291250Y-136957D01*
X-291273Y-137026D01*
X-291625Y-139370D01*
X-291621Y-139445D01*
X-291625Y-139520D01*
X-291616Y-139547D01*
X-291615Y-139569D01*
X-291595Y-139608D01*
X-291572Y-139678D01*
X-291569Y-139685D01*
X-291760Y-140306D01*
X-291763Y-140337D01*
X-291776Y-140379D01*
X-291873Y-141021D01*
X-291879Y-141026D01*
X-291929Y-141081D01*
X-291985Y-141132D01*
X-291998Y-141157D01*
X-292012Y-141173D01*
X-292027Y-141215D01*
X-292060Y-141280D01*
X-292757Y-143546D01*
X-292764Y-143620D01*
X-292779Y-143694D01*
X-292774Y-143722D01*
X-292776Y-143743D01*
X-292763Y-143785D01*
X-292751Y-143858D01*
X-292748Y-143865D01*
X-293030Y-144451D01*
X-293037Y-144481D01*
X-293057Y-144520D01*
X-293248Y-145141D01*
X-293255Y-145145D01*
X-293313Y-145192D01*
X-293375Y-145234D01*
X-293392Y-145257D01*
X-293409Y-145271D01*
X-293429Y-145310D01*
X-293471Y-145370D01*
X-294499Y-147506D01*
X-294517Y-147578D01*
X-294542Y-147649D01*
X-294542Y-147677D01*
X-294547Y-147698D01*
X-294541Y-147742D01*
X-294539Y-147815D01*
X-294538Y-147823D01*
X-294903Y-148360D01*
X-294915Y-148389D01*
X-294940Y-148425D01*
X-295222Y-149010D01*
X-295229Y-149013D01*
X-295294Y-149051D01*
X-295362Y-149083D01*
X-295381Y-149103D01*
X-295400Y-149114D01*
X-295426Y-149150D01*
X-295477Y-149203D01*
X-296811Y-151162D01*
X-296840Y-151231D01*
X-296876Y-151297D01*
X-296879Y-151325D01*
X-296888Y-151345D01*
X-296888Y-151389D01*
X-296897Y-151462D01*
X-296897Y-151470D01*
X-297338Y-151946D01*
X-297355Y-151974D01*
X-297385Y-152005D01*
X-297750Y-152542D01*
X-297758Y-152543D01*
X-297828Y-152571D01*
X-297900Y-152593D01*
X-297922Y-152610D01*
X-297942Y-152618D01*
X-297973Y-152650D01*
X-298031Y-152694D01*
X-299643Y-154433D01*
X-299682Y-154497D01*
X-299727Y-154557D01*
X-299734Y-154584D01*
X-299746Y-154602D01*
X-299752Y-154646D01*
X-299773Y-154716D01*
X-299773Y-154724D01*
X-300281Y-155130D01*
X-300301Y-155154D01*
X-300336Y-155181D01*
X-300777Y-155657D01*
X-300785Y-155657D01*
X-300858Y-155675D01*
X-300932Y-155685D01*
X-300957Y-155699D01*
X-300978Y-155704D01*
X-301014Y-155731D01*
X-301078Y-155766D01*
X-302930Y-157245D01*
X-302978Y-157302D01*
X-303032Y-157355D01*
X-303043Y-157380D01*
X-303057Y-157397D01*
X-303070Y-157440D01*
X-303101Y-157506D01*
X-303103Y-157514D01*
X-303665Y-157839D01*
X-303689Y-157860D01*
X-303727Y-157881D01*
X-304234Y-158286D01*
X-304242Y-158285D01*
X-304317Y-158292D01*
X-304392Y-158291D01*
X-304418Y-158301D01*
X-304440Y-158303D01*
X-304479Y-158324D01*
X-304548Y-158349D01*
X-306600Y-159536D01*
X-306656Y-159585D01*
X-306717Y-159629D01*
X-306732Y-159653D01*
X-306749Y-159668D01*
X-306768Y-159707D01*
X-306808Y-159769D01*
X-306811Y-159776D01*
X-307415Y-160014D01*
X-307442Y-160031D01*
X-307482Y-160046D01*
X-308045Y-160371D01*
X-308053Y-160369D01*
X-308128Y-160365D01*
X-308201Y-160353D01*
X-308229Y-160358D01*
X-308251Y-160357D01*
X-308293Y-160372D01*
X-308364Y-160387D01*
X-310570Y-161254D01*
X-310633Y-161295D01*
X-310700Y-161329D01*
X-310718Y-161350D01*
X-310737Y-161362D01*
X-310761Y-161399D01*
X-310810Y-161453D01*
X-310815Y-161460D01*
X-311448Y-161605D01*
X-311477Y-161618D01*
X-311519Y-161627D01*
X-312124Y-161865D01*
X-312131Y-161862D01*
X-312147Y-161858D01*
X-312160Y-161850D01*
X-312224Y-161840D01*
X-312276Y-161823D01*
X-312304Y-161825D01*
X-312325Y-161820D01*
X-312339Y-161823D01*
X-312342Y-161823D01*
X-312371Y-161829D01*
X-312442Y-161833D01*
X-314752Y-162361D01*
X-314820Y-162392D01*
X-314891Y-162416D01*
X-314913Y-162434D01*
X-314933Y-162443D01*
X-314963Y-162476D01*
X-315019Y-162523D01*
X-315025Y-162529D01*
X-315672Y-162578D01*
X-315703Y-162586D01*
X-315746Y-162589D01*
X-316379Y-162734D01*
X-316386Y-162729D01*
X-316456Y-162703D01*
X-316523Y-162670D01*
X-316552Y-162667D01*
X-316572Y-162659D01*
X-316616Y-162661D01*
X-316689Y-162655D01*
X-319052Y-162833D01*
X-319125Y-162854D01*
X-319198Y-162867D01*
X-319223Y-162881D01*
X-319244Y-162887D01*
X-319278Y-162915D01*
X-319341Y-162953D01*
X-319347Y-162958D01*
X-319995Y-162910D01*
X-320026Y-162914D01*
X-320069Y-162910D01*
X-320717Y-162959D01*
X-320723Y-162954D01*
X-320789Y-162917D01*
X-320850Y-162874D01*
X-320877Y-162867D01*
X-320897Y-162857D01*
X-320941Y-162852D01*
X-321011Y-162834D01*
X-323375Y-162659D01*
X-323449Y-162668D01*
X-323524Y-162670D01*
X-323550Y-162681D01*
X-323572Y-162684D01*
X-323610Y-162706D01*
X-323678Y-162734D01*
X-323685Y-162738D01*
X-324318Y-162594D01*
X-324350Y-162593D01*
X-324392Y-162583D01*
X-325040Y-162535D01*
X-325045Y-162529D01*
X-325104Y-162483D01*
X-325159Y-162431D01*
X-325185Y-162420D01*
X-325202Y-162407D01*
X-325245Y-162396D01*
X-325312Y-162368D01*
X-327623Y-161842D01*
X-327699Y-161840D01*
X-327773Y-161831D01*
X-327800Y-161838D01*
X-327822Y-161837D01*
X-327863Y-161853D01*
X-327934Y-161871D01*
X-327942Y-161874D01*
X-328546Y-161637D01*
X-328578Y-161632D01*
X-328618Y-161615D01*
X-329251Y-161471D01*
X-329255Y-161464D01*
X-329307Y-161410D01*
X-329353Y-161351D01*
X-329377Y-161337D01*
X-329393Y-161321D01*
X-329433Y-161303D01*
X-329496Y-161265D01*
X-331703Y-160401D01*
X-331776Y-160388D01*
X-331849Y-160368D01*
X-331877Y-160371D01*
X-331898Y-160367D01*
X-331941Y-160377D01*
X-332014Y-160384D01*
X-332022Y-160386D01*
X-332585Y-160061D01*
X-332615Y-160051D01*
X-332652Y-160029D01*
X-333257Y-159792D01*
X-333260Y-159785D01*
X-333303Y-159723D01*
X-333340Y-159658D01*
X-333362Y-159640D01*
X-333374Y-159622D01*
X-333412Y-159599D01*
X-333468Y-159552D01*
X-335521Y-158368D01*
X-335592Y-158344D01*
X-335661Y-158314D01*
X-335689Y-158312D01*
X-335710Y-158305D01*
X-335754Y-158309D01*
X-335827Y-158305D01*
X-335835Y-158306D01*
X-336343Y-157901D01*
X-336372Y-157886D01*
X-336405Y-157859D01*
X-336968Y-157534D01*
X-336970Y-157527D01*
X-337003Y-157460D01*
X-337030Y-157389D01*
X-337049Y-157368D01*
X-337058Y-157349D01*
X-337092Y-157320D01*
X-337141Y-157266D01*
X-338995Y-155789D01*
X-339061Y-155755D01*
X-339124Y-155714D01*
X-339152Y-155709D01*
X-339172Y-155699D01*
X-339216Y-155695D01*
X-339287Y-155681D01*
X-339296Y-155680D01*
X-339738Y-155204D01*
X-339764Y-155186D01*
X-339792Y-155154D01*
X-340300Y-154749D01*
X-340301Y-154741D01*
X-340324Y-154670D01*
X-340340Y-154596D01*
X-340356Y-154573D01*
X-340363Y-154552D01*
X-340391Y-154519D01*
X-340432Y-154457D01*
X-342045Y-152721D01*
X-342106Y-152677D01*
X-342162Y-152628D01*
X-342188Y-152618D01*
X-342206Y-152605D01*
X-342250Y-152595D01*
X-342318Y-152570D01*
X-342326Y-152569D01*
X-342692Y-152032D01*
X-342715Y-152010D01*
X-342739Y-151974D01*
X-343181Y-151498D01*
X-343181Y-151490D01*
X-343193Y-151416D01*
X-343198Y-151341D01*
X-343209Y-151315D01*
X-343213Y-151294D01*
X-343236Y-151257D01*
X-343267Y-151190D01*
X-343869Y-150308D01*
X-343933Y-150245D01*
X-343995Y-150181D01*
X-344005Y-150176D01*
X-344012Y-150169D01*
X-344095Y-150137D01*
X-344177Y-150101D01*
X-344188Y-150101D01*
X-344197Y-150097D01*
X-344287Y-150100D01*
X-344376Y-150099D01*
X-344387Y-150103D01*
X-344396Y-150103D01*
X-344433Y-150120D01*
X-344532Y-150157D01*
X-375565Y-168112D01*
X-375570Y-168116D01*
X-375576Y-168118D01*
X-375644Y-168182D01*
X-375714Y-168244D01*
X-375717Y-168249D01*
X-375721Y-168253D01*
X-375760Y-168339D01*
X-375800Y-168423D01*
X-375800Y-168429D01*
X-375803Y-168435D01*
X-375804Y-168529D01*
X-375809Y-168622D01*
X-375806Y-168628D01*
X-375807Y-168634D01*
X-375750Y-168790D01*
X-374886Y-170316D01*
X-373851Y-172900D01*
X-373173Y-175601D01*
X-372863Y-178368D01*
X-372927Y-181152D01*
X-372938Y-181223D01*
X-375589Y-181223D01*
X-375434Y-179416D01*
X-375436Y-179383D01*
G37*
%LPC*%
G36*
X-105827Y-136780D02*
X-105827Y-136780D01*
X-107462Y-135145D01*
X-140098Y-102509D01*
X-140109Y-102502D01*
X-140116Y-102492D01*
X-140191Y-102447D01*
X-140264Y-102399D01*
X-140276Y-102397D01*
X-140287Y-102390D01*
X-140451Y-102363D01*
X-143847Y-102363D01*
X-145670Y-100540D01*
X-145670Y-94786D01*
X-144454Y-93571D01*
X-144450Y-93564D01*
X-144443Y-93559D01*
X-144395Y-93482D01*
X-144345Y-93405D01*
X-144343Y-93397D01*
X-144339Y-93390D01*
X-144325Y-93300D01*
X-144308Y-93210D01*
X-144310Y-93201D01*
X-144309Y-93193D01*
X-144331Y-93106D01*
X-144351Y-93016D01*
X-144356Y-93009D01*
X-144358Y-93001D01*
X-144454Y-92865D01*
X-145670Y-91650D01*
X-145670Y-85896D01*
X-143800Y-84027D01*
X-143727Y-83973D01*
X-143651Y-83921D01*
X-143647Y-83914D01*
X-143640Y-83909D01*
X-143593Y-83831D01*
X-143544Y-83754D01*
X-143543Y-83745D01*
X-143538Y-83738D01*
X-143511Y-83574D01*
X-143511Y-80653D01*
X-143513Y-80640D01*
X-143511Y-80628D01*
X-143533Y-80543D01*
X-143550Y-80458D01*
X-143557Y-80447D01*
X-143561Y-80435D01*
X-143657Y-80299D01*
X-145769Y-78188D01*
X-145769Y-74212D01*
X-142958Y-71401D01*
X-138982Y-71401D01*
X-136171Y-74212D01*
X-136171Y-78188D01*
X-138283Y-80299D01*
X-138290Y-80310D01*
X-138300Y-80317D01*
X-138345Y-80392D01*
X-138393Y-80465D01*
X-138395Y-80478D01*
X-138402Y-80488D01*
X-138429Y-80653D01*
X-138429Y-83574D01*
X-138428Y-83582D01*
X-138429Y-83591D01*
X-138408Y-83679D01*
X-138390Y-83769D01*
X-138385Y-83776D01*
X-138383Y-83784D01*
X-138329Y-83857D01*
X-138277Y-83933D01*
X-138270Y-83937D01*
X-138265Y-83944D01*
X-138187Y-83991D01*
X-138157Y-84009D01*
X-136270Y-85896D01*
X-136270Y-91650D01*
X-137486Y-92865D01*
X-137490Y-92872D01*
X-137497Y-92877D01*
X-137545Y-92954D01*
X-137595Y-93031D01*
X-137597Y-93039D01*
X-137601Y-93046D01*
X-137615Y-93136D01*
X-137632Y-93226D01*
X-137630Y-93234D01*
X-137631Y-93243D01*
X-137609Y-93331D01*
X-137589Y-93420D01*
X-137584Y-93427D01*
X-137582Y-93435D01*
X-137486Y-93571D01*
X-136270Y-94786D01*
X-136270Y-98944D01*
X-136268Y-98956D01*
X-136270Y-98969D01*
X-136248Y-99053D01*
X-136231Y-99139D01*
X-136224Y-99149D01*
X-136220Y-99161D01*
X-136124Y-99297D01*
X-134838Y-100583D01*
X-134834Y-100585D01*
X-134832Y-100589D01*
X-134752Y-100640D01*
X-134672Y-100693D01*
X-134668Y-100693D01*
X-134665Y-100696D01*
X-134571Y-100712D01*
X-134477Y-100729D01*
X-134473Y-100728D01*
X-134468Y-100729D01*
X-134377Y-100707D01*
X-134283Y-100686D01*
X-134279Y-100684D01*
X-134275Y-100683D01*
X-134199Y-100627D01*
X-134120Y-100571D01*
X-134118Y-100567D01*
X-134115Y-100565D01*
X-134066Y-100483D01*
X-134016Y-100402D01*
X-134016Y-100398D01*
X-134013Y-100394D01*
X-133986Y-100230D01*
X-133986Y-94913D01*
X-132770Y-93698D01*
X-132766Y-93691D01*
X-132759Y-93686D01*
X-132711Y-93609D01*
X-132661Y-93532D01*
X-132659Y-93524D01*
X-132655Y-93517D01*
X-132641Y-93427D01*
X-132624Y-93337D01*
X-132626Y-93328D01*
X-132625Y-93320D01*
X-132647Y-93232D01*
X-132667Y-93143D01*
X-132672Y-93136D01*
X-132674Y-93128D01*
X-132770Y-92992D01*
X-133986Y-91777D01*
X-133986Y-86023D01*
X-132116Y-84154D01*
X-132043Y-84100D01*
X-131967Y-84048D01*
X-131963Y-84041D01*
X-131956Y-84036D01*
X-131909Y-83958D01*
X-131860Y-83881D01*
X-131859Y-83872D01*
X-131854Y-83865D01*
X-131827Y-83701D01*
X-131827Y-80653D01*
X-131829Y-80640D01*
X-131827Y-80628D01*
X-131849Y-80543D01*
X-131866Y-80458D01*
X-131873Y-80447D01*
X-131877Y-80435D01*
X-131973Y-80299D01*
X-134085Y-78188D01*
X-134085Y-74212D01*
X-131274Y-71401D01*
X-127298Y-71401D01*
X-124487Y-74212D01*
X-124487Y-78188D01*
X-126599Y-80299D01*
X-126606Y-80310D01*
X-126616Y-80317D01*
X-126661Y-80392D01*
X-126709Y-80465D01*
X-126711Y-80478D01*
X-126718Y-80488D01*
X-126745Y-80653D01*
X-126745Y-83701D01*
X-126744Y-83709D01*
X-126745Y-83718D01*
X-126724Y-83806D01*
X-126706Y-83896D01*
X-126701Y-83903D01*
X-126699Y-83911D01*
X-126645Y-83984D01*
X-126593Y-84060D01*
X-126586Y-84064D01*
X-126581Y-84071D01*
X-126503Y-84118D01*
X-126473Y-84136D01*
X-124586Y-86023D01*
X-124586Y-91777D01*
X-125802Y-92992D01*
X-125806Y-92999D01*
X-125813Y-93004D01*
X-125861Y-93081D01*
X-125911Y-93158D01*
X-125913Y-93166D01*
X-125917Y-93173D01*
X-125931Y-93263D01*
X-125948Y-93353D01*
X-125946Y-93361D01*
X-125947Y-93370D01*
X-125925Y-93458D01*
X-125905Y-93547D01*
X-125900Y-93554D01*
X-125898Y-93562D01*
X-125802Y-93698D01*
X-124586Y-94913D01*
X-124586Y-100667D01*
X-125634Y-101715D01*
X-125639Y-101722D01*
X-125646Y-101726D01*
X-125693Y-101804D01*
X-125744Y-101880D01*
X-125746Y-101889D01*
X-125750Y-101896D01*
X-125764Y-101986D01*
X-125780Y-102076D01*
X-125779Y-102084D01*
X-125780Y-102092D01*
X-125757Y-102180D01*
X-125738Y-102270D01*
X-125733Y-102277D01*
X-125731Y-102285D01*
X-125634Y-102421D01*
X-120868Y-107187D01*
X-120864Y-107189D01*
X-120862Y-107193D01*
X-120782Y-107244D01*
X-120702Y-107297D01*
X-120698Y-107297D01*
X-120695Y-107300D01*
X-120601Y-107316D01*
X-120507Y-107333D01*
X-120503Y-107332D01*
X-120498Y-107333D01*
X-120407Y-107311D01*
X-120313Y-107290D01*
X-120309Y-107288D01*
X-120305Y-107287D01*
X-120229Y-107231D01*
X-120150Y-107175D01*
X-120148Y-107171D01*
X-120145Y-107169D01*
X-120096Y-107087D01*
X-120046Y-107006D01*
X-120046Y-107002D01*
X-120043Y-106998D01*
X-120016Y-106834D01*
X-120016Y-102989D01*
X-120017Y-102981D01*
X-120016Y-102972D01*
X-120037Y-102884D01*
X-120055Y-102794D01*
X-120060Y-102787D01*
X-120062Y-102779D01*
X-120116Y-102706D01*
X-120168Y-102630D01*
X-120175Y-102626D01*
X-120180Y-102619D01*
X-120258Y-102572D01*
X-120288Y-102554D01*
X-122175Y-100667D01*
X-122175Y-94913D01*
X-120959Y-93698D01*
X-120955Y-93691D01*
X-120948Y-93686D01*
X-120900Y-93609D01*
X-120850Y-93532D01*
X-120848Y-93524D01*
X-120844Y-93517D01*
X-120830Y-93427D01*
X-120813Y-93337D01*
X-120815Y-93328D01*
X-120814Y-93320D01*
X-120836Y-93232D01*
X-120856Y-93143D01*
X-120861Y-93136D01*
X-120863Y-93128D01*
X-120959Y-92992D01*
X-122175Y-91777D01*
X-122175Y-86023D01*
X-120305Y-84154D01*
X-120232Y-84100D01*
X-120156Y-84048D01*
X-120152Y-84041D01*
X-120145Y-84036D01*
X-120098Y-83958D01*
X-120049Y-83881D01*
X-120048Y-83872D01*
X-120043Y-83865D01*
X-120016Y-83701D01*
X-120016Y-80653D01*
X-120018Y-80640D01*
X-120016Y-80628D01*
X-120038Y-80543D01*
X-120055Y-80458D01*
X-120062Y-80447D01*
X-120066Y-80435D01*
X-120162Y-80299D01*
X-122274Y-78188D01*
X-122274Y-74212D01*
X-119463Y-71401D01*
X-115487Y-71401D01*
X-112676Y-74212D01*
X-112676Y-78188D01*
X-114788Y-80299D01*
X-114795Y-80310D01*
X-114805Y-80317D01*
X-114850Y-80392D01*
X-114898Y-80465D01*
X-114900Y-80478D01*
X-114907Y-80488D01*
X-114934Y-80653D01*
X-114934Y-83701D01*
X-114933Y-83709D01*
X-114934Y-83718D01*
X-114913Y-83806D01*
X-114895Y-83896D01*
X-114890Y-83903D01*
X-114888Y-83911D01*
X-114834Y-83984D01*
X-114782Y-84060D01*
X-114775Y-84064D01*
X-114770Y-84071D01*
X-114692Y-84118D01*
X-114662Y-84136D01*
X-112775Y-86023D01*
X-112775Y-91777D01*
X-113991Y-92992D01*
X-113995Y-92999D01*
X-114002Y-93004D01*
X-114050Y-93081D01*
X-114100Y-93158D01*
X-114102Y-93166D01*
X-114106Y-93173D01*
X-114120Y-93263D01*
X-114137Y-93353D01*
X-114135Y-93361D01*
X-114136Y-93370D01*
X-114114Y-93458D01*
X-114094Y-93547D01*
X-114089Y-93554D01*
X-114087Y-93562D01*
X-113991Y-93698D01*
X-112775Y-94913D01*
X-112775Y-100667D01*
X-114645Y-102536D01*
X-114718Y-102590D01*
X-114794Y-102642D01*
X-114798Y-102649D01*
X-114805Y-102654D01*
X-114852Y-102732D01*
X-114901Y-102809D01*
X-114902Y-102818D01*
X-114907Y-102825D01*
X-114934Y-102989D01*
X-114934Y-104405D01*
X-114932Y-104417D01*
X-114934Y-104430D01*
X-114912Y-104514D01*
X-114895Y-104600D01*
X-114888Y-104610D01*
X-114884Y-104622D01*
X-114788Y-104758D01*
X-95487Y-124059D01*
X-95476Y-124066D01*
X-95469Y-124076D01*
X-95394Y-124121D01*
X-95321Y-124169D01*
X-95309Y-124171D01*
X-95298Y-124178D01*
X-95134Y-124205D01*
X-89889Y-124205D01*
X-89885Y-124204D01*
X-89881Y-124205D01*
X-89788Y-124185D01*
X-89694Y-124166D01*
X-89691Y-124163D01*
X-89687Y-124162D01*
X-89609Y-124107D01*
X-89530Y-124053D01*
X-89528Y-124050D01*
X-89525Y-124047D01*
X-89475Y-123966D01*
X-89423Y-123886D01*
X-89423Y-123881D01*
X-89420Y-123878D01*
X-89406Y-123784D01*
X-89390Y-123689D01*
X-89391Y-123685D01*
X-89391Y-123681D01*
X-89414Y-123589D01*
X-89436Y-123496D01*
X-89439Y-123493D01*
X-89440Y-123489D01*
X-89536Y-123353D01*
X-108332Y-104557D01*
X-108332Y-102989D01*
X-108333Y-102981D01*
X-108332Y-102972D01*
X-108353Y-102884D01*
X-108371Y-102794D01*
X-108376Y-102787D01*
X-108378Y-102779D01*
X-108432Y-102706D01*
X-108484Y-102630D01*
X-108491Y-102626D01*
X-108496Y-102619D01*
X-108574Y-102572D01*
X-108604Y-102554D01*
X-110491Y-100667D01*
X-110491Y-94913D01*
X-109275Y-93698D01*
X-109271Y-93691D01*
X-109264Y-93686D01*
X-109216Y-93609D01*
X-109166Y-93532D01*
X-109164Y-93524D01*
X-109160Y-93517D01*
X-109146Y-93427D01*
X-109129Y-93337D01*
X-109131Y-93329D01*
X-109130Y-93320D01*
X-109152Y-93232D01*
X-109172Y-93143D01*
X-109177Y-93136D01*
X-109179Y-93128D01*
X-109275Y-92992D01*
X-110491Y-91777D01*
X-110491Y-86023D01*
X-108621Y-84154D01*
X-108548Y-84100D01*
X-108472Y-84048D01*
X-108468Y-84041D01*
X-108461Y-84036D01*
X-108414Y-83958D01*
X-108365Y-83881D01*
X-108364Y-83872D01*
X-108359Y-83865D01*
X-108332Y-83701D01*
X-108332Y-80653D01*
X-108334Y-80640D01*
X-108332Y-80628D01*
X-108354Y-80543D01*
X-108371Y-80458D01*
X-108378Y-80447D01*
X-108382Y-80435D01*
X-108478Y-80299D01*
X-110590Y-78188D01*
X-110590Y-74212D01*
X-107779Y-71401D01*
X-103803Y-71401D01*
X-100992Y-74212D01*
X-100992Y-78188D01*
X-103104Y-80299D01*
X-103111Y-80310D01*
X-103121Y-80317D01*
X-103166Y-80392D01*
X-103214Y-80465D01*
X-103216Y-80478D01*
X-103223Y-80488D01*
X-103250Y-80653D01*
X-103250Y-83701D01*
X-103249Y-83709D01*
X-103250Y-83718D01*
X-103229Y-83806D01*
X-103211Y-83896D01*
X-103206Y-83903D01*
X-103204Y-83911D01*
X-103150Y-83984D01*
X-103098Y-84060D01*
X-103091Y-84064D01*
X-103086Y-84071D01*
X-103008Y-84118D01*
X-102978Y-84136D01*
X-101091Y-86023D01*
X-101091Y-91777D01*
X-102307Y-92992D01*
X-102311Y-92999D01*
X-102318Y-93004D01*
X-102366Y-93081D01*
X-102416Y-93158D01*
X-102418Y-93166D01*
X-102422Y-93173D01*
X-102436Y-93263D01*
X-102453Y-93353D01*
X-102451Y-93362D01*
X-102452Y-93370D01*
X-102430Y-93458D01*
X-102410Y-93547D01*
X-102405Y-93554D01*
X-102403Y-93562D01*
X-102307Y-93698D01*
X-101091Y-94913D01*
X-101091Y-100667D01*
X-102711Y-102286D01*
X-102715Y-102293D01*
X-102722Y-102298D01*
X-102770Y-102375D01*
X-102821Y-102452D01*
X-102822Y-102460D01*
X-102826Y-102467D01*
X-102840Y-102557D01*
X-102857Y-102647D01*
X-102855Y-102656D01*
X-102856Y-102664D01*
X-102834Y-102752D01*
X-102814Y-102842D01*
X-102809Y-102848D01*
X-102807Y-102857D01*
X-102711Y-102992D01*
X-85581Y-120122D01*
X-85570Y-120129D01*
X-85563Y-120139D01*
X-85488Y-120184D01*
X-85415Y-120232D01*
X-85403Y-120234D01*
X-85392Y-120241D01*
X-85228Y-120268D01*
X-82396Y-120268D01*
X-82392Y-120267D01*
X-82388Y-120268D01*
X-82295Y-120248D01*
X-82201Y-120229D01*
X-82198Y-120226D01*
X-82194Y-120225D01*
X-82116Y-120170D01*
X-82037Y-120116D01*
X-82035Y-120113D01*
X-82032Y-120110D01*
X-81982Y-120029D01*
X-81930Y-119949D01*
X-81930Y-119944D01*
X-81927Y-119941D01*
X-81913Y-119847D01*
X-81897Y-119752D01*
X-81898Y-119748D01*
X-81898Y-119744D01*
X-81921Y-119652D01*
X-81943Y-119559D01*
X-81946Y-119556D01*
X-81947Y-119552D01*
X-82043Y-119416D01*
X-96648Y-104811D01*
X-96648Y-102989D01*
X-96649Y-102981D01*
X-96648Y-102972D01*
X-96669Y-102884D01*
X-96687Y-102794D01*
X-96692Y-102787D01*
X-96694Y-102779D01*
X-96748Y-102706D01*
X-96800Y-102630D01*
X-96807Y-102626D01*
X-96812Y-102619D01*
X-96890Y-102572D01*
X-96920Y-102554D01*
X-98807Y-100667D01*
X-98807Y-94913D01*
X-97591Y-93698D01*
X-97587Y-93691D01*
X-97580Y-93686D01*
X-97532Y-93609D01*
X-97482Y-93532D01*
X-97480Y-93524D01*
X-97476Y-93517D01*
X-97462Y-93427D01*
X-97445Y-93337D01*
X-97447Y-93329D01*
X-97446Y-93320D01*
X-97468Y-93232D01*
X-97488Y-93143D01*
X-97493Y-93136D01*
X-97495Y-93128D01*
X-97591Y-92992D01*
X-98807Y-91777D01*
X-98807Y-86023D01*
X-96937Y-84154D01*
X-96864Y-84100D01*
X-96788Y-84048D01*
X-96784Y-84041D01*
X-96777Y-84036D01*
X-96730Y-83958D01*
X-96681Y-83881D01*
X-96680Y-83872D01*
X-96675Y-83865D01*
X-96648Y-83701D01*
X-96648Y-80653D01*
X-96650Y-80640D01*
X-96648Y-80628D01*
X-96670Y-80543D01*
X-96687Y-80458D01*
X-96694Y-80447D01*
X-96698Y-80435D01*
X-96794Y-80299D01*
X-98906Y-78188D01*
X-98906Y-74212D01*
X-96095Y-71401D01*
X-92119Y-71401D01*
X-89308Y-74212D01*
X-89308Y-78188D01*
X-91420Y-80299D01*
X-91427Y-80310D01*
X-91437Y-80317D01*
X-91482Y-80392D01*
X-91530Y-80465D01*
X-91532Y-80478D01*
X-91539Y-80488D01*
X-91566Y-80653D01*
X-91566Y-83701D01*
X-91565Y-83709D01*
X-91566Y-83718D01*
X-91545Y-83806D01*
X-91527Y-83896D01*
X-91522Y-83903D01*
X-91520Y-83911D01*
X-91466Y-83984D01*
X-91414Y-84060D01*
X-91407Y-84064D01*
X-91402Y-84071D01*
X-91324Y-84118D01*
X-91294Y-84136D01*
X-89407Y-86023D01*
X-89407Y-91777D01*
X-90623Y-92992D01*
X-90627Y-92999D01*
X-90634Y-93004D01*
X-90682Y-93081D01*
X-90732Y-93158D01*
X-90734Y-93166D01*
X-90738Y-93173D01*
X-90752Y-93263D01*
X-90769Y-93353D01*
X-90767Y-93362D01*
X-90768Y-93370D01*
X-90746Y-93458D01*
X-90726Y-93547D01*
X-90721Y-93554D01*
X-90719Y-93562D01*
X-90623Y-93698D01*
X-89407Y-94913D01*
X-89407Y-100667D01*
X-91154Y-102413D01*
X-91158Y-102420D01*
X-91165Y-102425D01*
X-91213Y-102502D01*
X-91264Y-102579D01*
X-91265Y-102587D01*
X-91269Y-102594D01*
X-91283Y-102684D01*
X-91300Y-102774D01*
X-91298Y-102783D01*
X-91299Y-102791D01*
X-91277Y-102879D01*
X-91257Y-102969D01*
X-91252Y-102975D01*
X-91250Y-102984D01*
X-91154Y-103119D01*
X-77834Y-116439D01*
X-77823Y-116446D01*
X-77816Y-116456D01*
X-77741Y-116501D01*
X-77668Y-116549D01*
X-77656Y-116551D01*
X-77645Y-116558D01*
X-77481Y-116585D01*
X-75538Y-116585D01*
X-75534Y-116584D01*
X-75530Y-116585D01*
X-75437Y-116565D01*
X-75343Y-116546D01*
X-75340Y-116543D01*
X-75336Y-116542D01*
X-75258Y-116487D01*
X-75179Y-116433D01*
X-75177Y-116430D01*
X-75174Y-116427D01*
X-75124Y-116346D01*
X-75072Y-116266D01*
X-75072Y-116261D01*
X-75069Y-116258D01*
X-75055Y-116164D01*
X-75039Y-116069D01*
X-75040Y-116065D01*
X-75040Y-116061D01*
X-75063Y-115969D01*
X-75085Y-115876D01*
X-75088Y-115873D01*
X-75089Y-115869D01*
X-75185Y-115733D01*
X-84964Y-105954D01*
X-84964Y-102989D01*
X-84965Y-102981D01*
X-84964Y-102972D01*
X-84985Y-102884D01*
X-85003Y-102794D01*
X-85008Y-102787D01*
X-85010Y-102779D01*
X-85064Y-102706D01*
X-85116Y-102630D01*
X-85123Y-102626D01*
X-85128Y-102619D01*
X-85206Y-102572D01*
X-85236Y-102554D01*
X-87123Y-100667D01*
X-87123Y-94913D01*
X-85907Y-93698D01*
X-85903Y-93691D01*
X-85896Y-93686D01*
X-85848Y-93609D01*
X-85798Y-93532D01*
X-85796Y-93524D01*
X-85792Y-93517D01*
X-85778Y-93427D01*
X-85761Y-93337D01*
X-85763Y-93329D01*
X-85762Y-93320D01*
X-85784Y-93232D01*
X-85804Y-93143D01*
X-85809Y-93136D01*
X-85811Y-93128D01*
X-85907Y-92992D01*
X-87123Y-91777D01*
X-87123Y-86023D01*
X-85253Y-84154D01*
X-85180Y-84100D01*
X-85104Y-84048D01*
X-85100Y-84041D01*
X-85093Y-84036D01*
X-85046Y-83958D01*
X-84997Y-83881D01*
X-84996Y-83872D01*
X-84991Y-83865D01*
X-84964Y-83701D01*
X-84964Y-80653D01*
X-84966Y-80640D01*
X-84964Y-80628D01*
X-84986Y-80543D01*
X-85003Y-80458D01*
X-85010Y-80447D01*
X-85014Y-80435D01*
X-85110Y-80299D01*
X-87222Y-78188D01*
X-87222Y-74212D01*
X-84411Y-71401D01*
X-80435Y-71401D01*
X-77624Y-74212D01*
X-77624Y-78188D01*
X-79736Y-80299D01*
X-79743Y-80310D01*
X-79753Y-80317D01*
X-79798Y-80392D01*
X-79846Y-80465D01*
X-79848Y-80478D01*
X-79855Y-80488D01*
X-79882Y-80653D01*
X-79882Y-83701D01*
X-79881Y-83709D01*
X-79882Y-83718D01*
X-79861Y-83806D01*
X-79843Y-83896D01*
X-79838Y-83903D01*
X-79836Y-83911D01*
X-79782Y-83984D01*
X-79730Y-84060D01*
X-79723Y-84064D01*
X-79718Y-84071D01*
X-79640Y-84118D01*
X-79610Y-84136D01*
X-77723Y-86023D01*
X-77723Y-91777D01*
X-78939Y-92992D01*
X-78943Y-92999D01*
X-78950Y-93004D01*
X-78998Y-93081D01*
X-79048Y-93158D01*
X-79050Y-93166D01*
X-79054Y-93173D01*
X-79068Y-93263D01*
X-79085Y-93353D01*
X-79083Y-93362D01*
X-79084Y-93370D01*
X-79062Y-93458D01*
X-79042Y-93547D01*
X-79037Y-93554D01*
X-79035Y-93562D01*
X-78939Y-93698D01*
X-77723Y-94913D01*
X-77723Y-100667D01*
X-79593Y-102536D01*
X-79666Y-102590D01*
X-79742Y-102642D01*
X-79746Y-102649D01*
X-79753Y-102654D01*
X-79800Y-102732D01*
X-79849Y-102809D01*
X-79850Y-102818D01*
X-79855Y-102825D01*
X-79882Y-102989D01*
X-79882Y-103643D01*
X-79880Y-103655D01*
X-79882Y-103668D01*
X-79860Y-103752D01*
X-79843Y-103838D01*
X-79836Y-103848D01*
X-79832Y-103860D01*
X-79736Y-103996D01*
X-70849Y-112883D01*
X-70838Y-112890D01*
X-70831Y-112900D01*
X-70756Y-112945D01*
X-70683Y-112993D01*
X-70671Y-112995D01*
X-70660Y-113002D01*
X-70496Y-113029D01*
X-67537Y-113029D01*
X-67533Y-113028D01*
X-67529Y-113029D01*
X-67436Y-113009D01*
X-67342Y-112990D01*
X-67339Y-112987D01*
X-67335Y-112986D01*
X-67257Y-112931D01*
X-67178Y-112877D01*
X-67176Y-112874D01*
X-67173Y-112871D01*
X-67123Y-112790D01*
X-67071Y-112710D01*
X-67071Y-112705D01*
X-67068Y-112702D01*
X-67054Y-112608D01*
X-67038Y-112513D01*
X-67039Y-112509D01*
X-67039Y-112505D01*
X-67062Y-112413D01*
X-67084Y-112320D01*
X-67087Y-112317D01*
X-67088Y-112313D01*
X-67184Y-112177D01*
X-73153Y-106208D01*
X-73153Y-102989D01*
X-73154Y-102981D01*
X-73153Y-102972D01*
X-73174Y-102884D01*
X-73192Y-102794D01*
X-73197Y-102787D01*
X-73199Y-102779D01*
X-73253Y-102706D01*
X-73305Y-102630D01*
X-73312Y-102626D01*
X-73317Y-102619D01*
X-73395Y-102572D01*
X-73425Y-102554D01*
X-75312Y-100667D01*
X-75312Y-94913D01*
X-74096Y-93698D01*
X-74092Y-93691D01*
X-74085Y-93686D01*
X-74037Y-93609D01*
X-73987Y-93532D01*
X-73985Y-93524D01*
X-73981Y-93517D01*
X-73967Y-93427D01*
X-73950Y-93337D01*
X-73952Y-93328D01*
X-73951Y-93320D01*
X-73973Y-93232D01*
X-73993Y-93143D01*
X-73998Y-93136D01*
X-74000Y-93128D01*
X-74096Y-92992D01*
X-75312Y-91777D01*
X-75312Y-86023D01*
X-73442Y-84154D01*
X-73369Y-84100D01*
X-73293Y-84048D01*
X-73289Y-84041D01*
X-73282Y-84036D01*
X-73235Y-83958D01*
X-73186Y-83881D01*
X-73185Y-83872D01*
X-73180Y-83865D01*
X-73153Y-83701D01*
X-73153Y-80526D01*
X-73155Y-80513D01*
X-73153Y-80501D01*
X-73175Y-80416D01*
X-73192Y-80331D01*
X-73199Y-80320D01*
X-73203Y-80308D01*
X-73299Y-80172D01*
X-75411Y-78061D01*
X-75411Y-74085D01*
X-72600Y-71274D01*
X-68624Y-71274D01*
X-65813Y-74085D01*
X-65813Y-78061D01*
X-67925Y-80172D01*
X-67932Y-80183D01*
X-67942Y-80190D01*
X-67987Y-80265D01*
X-68035Y-80338D01*
X-68037Y-80351D01*
X-68044Y-80361D01*
X-68071Y-80526D01*
X-68071Y-83701D01*
X-68070Y-83709D01*
X-68071Y-83718D01*
X-68050Y-83806D01*
X-68032Y-83896D01*
X-68027Y-83903D01*
X-68025Y-83911D01*
X-67971Y-83984D01*
X-67919Y-84060D01*
X-67912Y-84064D01*
X-67907Y-84071D01*
X-67829Y-84118D01*
X-67799Y-84136D01*
X-65912Y-86023D01*
X-65912Y-91777D01*
X-67128Y-92992D01*
X-67132Y-92999D01*
X-67139Y-93004D01*
X-67187Y-93081D01*
X-67237Y-93158D01*
X-67239Y-93166D01*
X-67243Y-93173D01*
X-67257Y-93263D01*
X-67274Y-93353D01*
X-67272Y-93361D01*
X-67273Y-93370D01*
X-67251Y-93458D01*
X-67231Y-93547D01*
X-67226Y-93554D01*
X-67224Y-93562D01*
X-67128Y-93698D01*
X-65912Y-94913D01*
X-65912Y-100667D01*
X-67782Y-102536D01*
X-67855Y-102590D01*
X-67931Y-102642D01*
X-67935Y-102649D01*
X-67942Y-102654D01*
X-67989Y-102732D01*
X-68038Y-102809D01*
X-68039Y-102818D01*
X-68044Y-102825D01*
X-68071Y-102989D01*
X-68071Y-103897D01*
X-68069Y-103909D01*
X-68071Y-103922D01*
X-68049Y-104006D01*
X-68032Y-104092D01*
X-68025Y-104102D01*
X-68021Y-104114D01*
X-67925Y-104250D01*
X-63229Y-108946D01*
X-63218Y-108953D01*
X-63211Y-108963D01*
X-63136Y-109008D01*
X-63063Y-109056D01*
X-63051Y-109058D01*
X-63040Y-109065D01*
X-62876Y-109092D01*
X-56356Y-109092D01*
X-56352Y-109091D01*
X-56348Y-109092D01*
X-56255Y-109072D01*
X-56161Y-109053D01*
X-56158Y-109050D01*
X-56154Y-109049D01*
X-56076Y-108994D01*
X-55998Y-108940D01*
X-55995Y-108937D01*
X-55992Y-108934D01*
X-55942Y-108853D01*
X-55890Y-108773D01*
X-55890Y-108768D01*
X-55888Y-108765D01*
X-55873Y-108671D01*
X-55857Y-108576D01*
X-55858Y-108572D01*
X-55858Y-108568D01*
X-55881Y-108476D01*
X-55903Y-108383D01*
X-55906Y-108380D01*
X-55907Y-108376D01*
X-56003Y-108240D01*
X-61364Y-102879D01*
X-61381Y-102794D01*
X-61386Y-102787D01*
X-61388Y-102779D01*
X-61442Y-102706D01*
X-61494Y-102630D01*
X-61501Y-102626D01*
X-61506Y-102619D01*
X-61584Y-102572D01*
X-61614Y-102554D01*
X-63501Y-100667D01*
X-63501Y-94913D01*
X-62285Y-93698D01*
X-62281Y-93691D01*
X-62274Y-93686D01*
X-62226Y-93609D01*
X-62176Y-93532D01*
X-62174Y-93524D01*
X-62170Y-93517D01*
X-62156Y-93427D01*
X-62139Y-93337D01*
X-62141Y-93329D01*
X-62140Y-93320D01*
X-62162Y-93232D01*
X-62182Y-93143D01*
X-62187Y-93136D01*
X-62189Y-93128D01*
X-62285Y-92992D01*
X-63501Y-91777D01*
X-63501Y-86023D01*
X-61631Y-84154D01*
X-61558Y-84100D01*
X-61482Y-84048D01*
X-61478Y-84041D01*
X-61471Y-84036D01*
X-61424Y-83958D01*
X-61375Y-83881D01*
X-61374Y-83872D01*
X-61369Y-83865D01*
X-61342Y-83701D01*
X-61342Y-80525D01*
X-61344Y-80513D01*
X-61342Y-80501D01*
X-61364Y-80416D01*
X-61381Y-80331D01*
X-61388Y-80320D01*
X-61392Y-80308D01*
X-61488Y-80172D01*
X-63600Y-78061D01*
X-63600Y-74085D01*
X-60789Y-71274D01*
X-56813Y-71274D01*
X-54002Y-74085D01*
X-54002Y-78061D01*
X-56114Y-80172D01*
X-56121Y-80183D01*
X-56131Y-80190D01*
X-56175Y-80265D01*
X-56224Y-80338D01*
X-56226Y-80351D01*
X-56233Y-80361D01*
X-56260Y-80525D01*
X-56260Y-83701D01*
X-56259Y-83709D01*
X-56260Y-83718D01*
X-56239Y-83806D01*
X-56221Y-83896D01*
X-56216Y-83903D01*
X-56214Y-83911D01*
X-56160Y-83984D01*
X-56108Y-84060D01*
X-56101Y-84064D01*
X-56096Y-84071D01*
X-56018Y-84118D01*
X-55988Y-84136D01*
X-54101Y-86023D01*
X-54101Y-91777D01*
X-55317Y-92992D01*
X-55321Y-92999D01*
X-55328Y-93004D01*
X-55376Y-93081D01*
X-55426Y-93158D01*
X-55428Y-93166D01*
X-55432Y-93173D01*
X-55446Y-93263D01*
X-55463Y-93353D01*
X-55461Y-93362D01*
X-55462Y-93370D01*
X-55440Y-93458D01*
X-55420Y-93547D01*
X-55415Y-93554D01*
X-55413Y-93562D01*
X-55317Y-93698D01*
X-54101Y-94913D01*
X-54101Y-100667D01*
X-54893Y-101458D01*
X-54898Y-101465D01*
X-54904Y-101470D01*
X-54952Y-101547D01*
X-55003Y-101624D01*
X-55004Y-101632D01*
X-55009Y-101639D01*
X-55022Y-101729D01*
X-55039Y-101819D01*
X-55037Y-101828D01*
X-55038Y-101836D01*
X-55016Y-101924D01*
X-54996Y-102014D01*
X-54991Y-102021D01*
X-54989Y-102029D01*
X-54893Y-102164D01*
X-51921Y-105136D01*
X-51910Y-105143D01*
X-51903Y-105153D01*
X-51828Y-105198D01*
X-51755Y-105246D01*
X-51743Y-105248D01*
X-51732Y-105255D01*
X-51568Y-105282D01*
X-48614Y-105282D01*
X-48610Y-105281D01*
X-48606Y-105282D01*
X-48513Y-105262D01*
X-48419Y-105243D01*
X-48416Y-105240D01*
X-48412Y-105239D01*
X-48334Y-105184D01*
X-48255Y-105130D01*
X-48253Y-105127D01*
X-48250Y-105124D01*
X-48200Y-105043D01*
X-48148Y-104963D01*
X-48148Y-104958D01*
X-48145Y-104955D01*
X-48131Y-104861D01*
X-48115Y-104766D01*
X-48116Y-104762D01*
X-48116Y-104758D01*
X-48139Y-104666D01*
X-48161Y-104573D01*
X-48164Y-104570D01*
X-48165Y-104566D01*
X-48261Y-104430D01*
X-50055Y-102636D01*
X-50066Y-102629D01*
X-50073Y-102619D01*
X-50148Y-102574D01*
X-50192Y-102545D01*
X-52071Y-100667D01*
X-52071Y-94913D01*
X-50855Y-93698D01*
X-50851Y-93691D01*
X-50844Y-93686D01*
X-50796Y-93609D01*
X-50746Y-93532D01*
X-50744Y-93524D01*
X-50740Y-93517D01*
X-50726Y-93427D01*
X-50709Y-93337D01*
X-50711Y-93329D01*
X-50710Y-93320D01*
X-50732Y-93232D01*
X-50752Y-93143D01*
X-50757Y-93136D01*
X-50759Y-93128D01*
X-50855Y-92992D01*
X-52071Y-91777D01*
X-52071Y-86023D01*
X-50201Y-84154D01*
X-50128Y-84100D01*
X-50052Y-84048D01*
X-50048Y-84041D01*
X-50041Y-84036D01*
X-49994Y-83958D01*
X-49945Y-83881D01*
X-49944Y-83872D01*
X-49939Y-83865D01*
X-49912Y-83701D01*
X-49912Y-80399D01*
X-49914Y-80386D01*
X-49912Y-80374D01*
X-49934Y-80289D01*
X-49951Y-80204D01*
X-49958Y-80193D01*
X-49962Y-80181D01*
X-50058Y-80045D01*
X-52170Y-77934D01*
X-52170Y-73958D01*
X-49359Y-71147D01*
X-45383Y-71147D01*
X-42572Y-73958D01*
X-42572Y-77934D01*
X-44684Y-80045D01*
X-44691Y-80056D01*
X-44701Y-80063D01*
X-44746Y-80138D01*
X-44794Y-80211D01*
X-44796Y-80224D01*
X-44803Y-80234D01*
X-44830Y-80399D01*
X-44830Y-83701D01*
X-44829Y-83709D01*
X-44830Y-83718D01*
X-44809Y-83806D01*
X-44791Y-83896D01*
X-44786Y-83903D01*
X-44784Y-83911D01*
X-44730Y-83984D01*
X-44678Y-84060D01*
X-44671Y-84064D01*
X-44666Y-84071D01*
X-44588Y-84118D01*
X-44558Y-84136D01*
X-42671Y-86023D01*
X-42671Y-91777D01*
X-43887Y-92992D01*
X-43891Y-92999D01*
X-43898Y-93004D01*
X-43946Y-93081D01*
X-43996Y-93158D01*
X-43998Y-93166D01*
X-44002Y-93173D01*
X-44016Y-93263D01*
X-44033Y-93353D01*
X-44031Y-93362D01*
X-44032Y-93370D01*
X-44010Y-93458D01*
X-43990Y-93547D01*
X-43985Y-93554D01*
X-43983Y-93562D01*
X-43887Y-93698D01*
X-42671Y-94913D01*
X-42671Y-100846D01*
X-42670Y-100854D01*
X-42671Y-100863D01*
X-42650Y-100951D01*
X-42632Y-101041D01*
X-42627Y-101048D01*
X-42625Y-101056D01*
X-42571Y-101129D01*
X-42519Y-101205D01*
X-42512Y-101209D01*
X-42507Y-101216D01*
X-42429Y-101263D01*
X-42352Y-101312D01*
X-42343Y-101313D01*
X-42336Y-101318D01*
X-42172Y-101345D01*
X-41013Y-101345D01*
X-41005Y-101344D01*
X-40996Y-101345D01*
X-40908Y-101324D01*
X-40818Y-101306D01*
X-40811Y-101301D01*
X-40803Y-101299D01*
X-40730Y-101245D01*
X-40654Y-101193D01*
X-40650Y-101186D01*
X-40643Y-101181D01*
X-40596Y-101103D01*
X-40547Y-101026D01*
X-40546Y-101017D01*
X-40541Y-101010D01*
X-40514Y-100846D01*
X-40514Y-94913D01*
X-39298Y-93698D01*
X-39294Y-93691D01*
X-39287Y-93686D01*
X-39239Y-93609D01*
X-39189Y-93532D01*
X-39187Y-93524D01*
X-39183Y-93517D01*
X-39169Y-93427D01*
X-39152Y-93337D01*
X-39154Y-93329D01*
X-39153Y-93320D01*
X-39175Y-93232D01*
X-39195Y-93143D01*
X-39200Y-93136D01*
X-39202Y-93128D01*
X-39298Y-92992D01*
X-40514Y-91777D01*
X-40514Y-86023D01*
X-38644Y-84154D01*
X-38571Y-84100D01*
X-38495Y-84048D01*
X-38491Y-84041D01*
X-38484Y-84036D01*
X-38437Y-83958D01*
X-38388Y-83881D01*
X-38387Y-83872D01*
X-38382Y-83865D01*
X-38355Y-83701D01*
X-38355Y-80399D01*
X-38357Y-80386D01*
X-38355Y-80374D01*
X-38377Y-80289D01*
X-38394Y-80204D01*
X-38401Y-80193D01*
X-38405Y-80181D01*
X-38501Y-80045D01*
X-40613Y-77934D01*
X-40613Y-73958D01*
X-37802Y-71147D01*
X-33826Y-71147D01*
X-31015Y-73958D01*
X-31015Y-77934D01*
X-33127Y-80045D01*
X-33134Y-80056D01*
X-33144Y-80063D01*
X-33189Y-80138D01*
X-33237Y-80211D01*
X-33239Y-80224D01*
X-33246Y-80234D01*
X-33273Y-80399D01*
X-33273Y-83701D01*
X-33272Y-83709D01*
X-33273Y-83718D01*
X-33252Y-83806D01*
X-33234Y-83896D01*
X-33229Y-83903D01*
X-33227Y-83911D01*
X-33173Y-83984D01*
X-33121Y-84060D01*
X-33114Y-84064D01*
X-33109Y-84071D01*
X-33031Y-84118D01*
X-33001Y-84136D01*
X-31114Y-86023D01*
X-31114Y-91848D01*
X-31113Y-91852D01*
X-31114Y-91856D01*
X-31094Y-91949D01*
X-31075Y-92043D01*
X-31072Y-92046D01*
X-31071Y-92050D01*
X-31016Y-92128D01*
X-30962Y-92207D01*
X-30959Y-92209D01*
X-30956Y-92212D01*
X-30875Y-92262D01*
X-30795Y-92314D01*
X-30790Y-92314D01*
X-30787Y-92317D01*
X-30693Y-92331D01*
X-30598Y-92347D01*
X-30594Y-92346D01*
X-30590Y-92346D01*
X-30498Y-92323D01*
X-30405Y-92301D01*
X-30402Y-92298D01*
X-30398Y-92297D01*
X-30262Y-92201D01*
X8616Y-53323D01*
X8623Y-53312D01*
X8633Y-53305D01*
X8678Y-53230D01*
X8726Y-53157D01*
X8728Y-53145D01*
X8735Y-53134D01*
X8762Y-52970D01*
X8762Y44867D01*
X37826Y73931D01*
X39322Y75427D01*
X39324Y75431D01*
X39328Y75433D01*
X39379Y75513D01*
X39432Y75593D01*
X39432Y75597D01*
X39435Y75600D01*
X39450Y75694D01*
X39468Y75788D01*
X39467Y75792D01*
X39468Y75797D01*
X39446Y75888D01*
X39425Y75982D01*
X39423Y75986D01*
X39422Y75990D01*
X39366Y76066D01*
X39310Y76145D01*
X39306Y76147D01*
X39304Y76150D01*
X39222Y76199D01*
X39141Y76249D01*
X39137Y76249D01*
X39133Y76252D01*
X38969Y76279D01*
X35897Y76279D01*
X35004Y77172D01*
X35004Y93516D01*
X35897Y94409D01*
X52241Y94409D01*
X53134Y93516D01*
X53134Y77172D01*
X52379Y76418D01*
X52377Y76414D01*
X52373Y76412D01*
X52323Y76332D01*
X52269Y76252D01*
X52269Y76248D01*
X52266Y76245D01*
X52251Y76151D01*
X52233Y76057D01*
X52234Y76053D01*
X52233Y76048D01*
X52255Y75956D01*
X52276Y75863D01*
X52278Y75859D01*
X52279Y75855D01*
X52335Y75779D01*
X52391Y75700D01*
X52395Y75698D01*
X52397Y75695D01*
X52479Y75646D01*
X52560Y75596D01*
X52565Y75596D01*
X52568Y75593D01*
X52732Y75566D01*
X55891Y75566D01*
X55903Y75568D01*
X55916Y75566D01*
X56000Y75588D01*
X56086Y75605D01*
X56096Y75612D01*
X56108Y75616D01*
X56244Y75712D01*
X61243Y80711D01*
X61249Y80720D01*
X61257Y80726D01*
X61303Y80802D01*
X61353Y80877D01*
X61355Y80887D01*
X61360Y80896D01*
X61373Y80984D01*
X61389Y81072D01*
X61387Y81083D01*
X61388Y81093D01*
X61351Y81255D01*
X60404Y83541D01*
X60404Y87147D01*
X61784Y90479D01*
X64334Y93029D01*
X67666Y94409D01*
X71272Y94409D01*
X74604Y93029D01*
X77154Y90479D01*
X78534Y87147D01*
X78534Y83541D01*
X77154Y80209D01*
X74604Y77659D01*
X71272Y76279D01*
X67666Y76279D01*
X65380Y77226D01*
X65370Y77228D01*
X65361Y77234D01*
X65273Y77247D01*
X65185Y77264D01*
X65175Y77262D01*
X65164Y77263D01*
X65078Y77241D01*
X64990Y77223D01*
X64982Y77217D01*
X64972Y77214D01*
X64836Y77118D01*
X59837Y72119D01*
X58202Y70484D01*
X41772Y70484D01*
X41760Y70482D01*
X41747Y70484D01*
X41663Y70462D01*
X41577Y70445D01*
X41567Y70438D01*
X41555Y70434D01*
X41419Y70338D01*
X40326Y69245D01*
X40325Y69243D01*
X40323Y69242D01*
X40270Y69161D01*
X40216Y69079D01*
X40216Y69077D01*
X40215Y69075D01*
X40198Y68980D01*
X40180Y68883D01*
X40180Y68881D01*
X40180Y68879D01*
X40201Y68786D01*
X40223Y68689D01*
X40224Y68688D01*
X40224Y68686D01*
X40281Y68607D01*
X40338Y68527D01*
X40340Y68526D01*
X40341Y68524D01*
X40424Y68474D01*
X40507Y68423D01*
X40509Y68423D01*
X40511Y68422D01*
X40608Y68408D01*
X40704Y68393D01*
X40706Y68394D01*
X40708Y68393D01*
X40870Y68430D01*
X42266Y69009D01*
X45872Y69009D01*
X49204Y67629D01*
X51754Y65079D01*
X53134Y61747D01*
X53134Y58141D01*
X51754Y54809D01*
X49204Y52259D01*
X45855Y50872D01*
X45853Y50871D01*
X45851Y50871D01*
X45771Y50816D01*
X45690Y50761D01*
X45689Y50759D01*
X45687Y50758D01*
X45635Y50677D01*
X45582Y50594D01*
X45581Y50592D01*
X45580Y50591D01*
X45564Y50495D01*
X45547Y50399D01*
X45547Y50397D01*
X45547Y50394D01*
X45569Y50301D01*
X45591Y50205D01*
X45593Y50203D01*
X45593Y50201D01*
X45650Y50124D01*
X45708Y50044D01*
X45710Y50043D01*
X45711Y50041D01*
X45794Y49992D01*
X45878Y49941D01*
X45880Y49941D01*
X45882Y49939D01*
X46046Y49912D01*
X54367Y49912D01*
X54379Y49914D01*
X54392Y49912D01*
X54476Y49934D01*
X54562Y49951D01*
X54572Y49958D01*
X54584Y49962D01*
X54720Y50058D01*
X60871Y56209D01*
X60877Y56218D01*
X60885Y56224D01*
X60931Y56300D01*
X60981Y56375D01*
X60983Y56385D01*
X60988Y56394D01*
X61001Y56482D01*
X61017Y56570D01*
X61015Y56581D01*
X61016Y56591D01*
X60979Y56753D01*
X60404Y58141D01*
X60404Y61747D01*
X61784Y65079D01*
X64334Y67629D01*
X67666Y69009D01*
X71272Y69009D01*
X74604Y67629D01*
X77154Y65079D01*
X78534Y61747D01*
X78534Y58141D01*
X77154Y54809D01*
X74604Y52259D01*
X71272Y50879D01*
X67666Y50879D01*
X64482Y52198D01*
X64472Y52200D01*
X64463Y52206D01*
X64375Y52219D01*
X64287Y52236D01*
X64277Y52234D01*
X64266Y52235D01*
X64180Y52213D01*
X64092Y52195D01*
X64084Y52189D01*
X64074Y52186D01*
X63938Y52090D01*
X58313Y46465D01*
X56678Y44830D01*
X40121Y44830D01*
X40109Y44828D01*
X40096Y44830D01*
X40012Y44808D01*
X39926Y44791D01*
X39916Y44784D01*
X39904Y44780D01*
X39768Y44684D01*
X17927Y22843D01*
X17920Y22832D01*
X17910Y22825D01*
X17865Y22750D01*
X17817Y22677D01*
X17815Y22665D01*
X17808Y22654D01*
X17781Y22490D01*
X17781Y7720D01*
X17782Y7716D01*
X17781Y7712D01*
X17801Y7619D01*
X17820Y7525D01*
X17823Y7522D01*
X17824Y7518D01*
X17879Y7440D01*
X17933Y7361D01*
X17936Y7359D01*
X17939Y7356D01*
X18020Y7306D01*
X18100Y7254D01*
X18105Y7254D01*
X18108Y7251D01*
X18202Y7237D01*
X18297Y7221D01*
X18301Y7222D01*
X18305Y7222D01*
X18397Y7245D01*
X18490Y7267D01*
X18493Y7270D01*
X18497Y7271D01*
X18633Y7367D01*
X34016Y22750D01*
X35651Y24385D01*
X48144Y24385D01*
X48156Y24387D01*
X48169Y24385D01*
X48253Y24407D01*
X48339Y24424D01*
X48349Y24431D01*
X48361Y24435D01*
X48497Y24531D01*
X59416Y35450D01*
X60399Y36433D01*
X60407Y36445D01*
X60418Y36454D01*
X60507Y36595D01*
X61784Y39679D01*
X64334Y42229D01*
X67666Y43609D01*
X71272Y43609D01*
X74604Y42229D01*
X77154Y39679D01*
X78534Y36347D01*
X78534Y32741D01*
X77154Y29409D01*
X74604Y26859D01*
X71272Y25479D01*
X67666Y25479D01*
X64334Y26859D01*
X61784Y29409D01*
X61712Y29584D01*
X61709Y29589D01*
X61707Y29595D01*
X61705Y29598D01*
X61705Y29600D01*
X61670Y29647D01*
X61653Y29671D01*
X61601Y29749D01*
X61596Y29752D01*
X61592Y29757D01*
X61587Y29760D01*
X61586Y29761D01*
X61513Y29806D01*
X61434Y29857D01*
X61428Y29858D01*
X61423Y29861D01*
X61375Y29869D01*
X61252Y29889D01*
X61251Y29889D01*
X61238Y29892D01*
X61232Y29890D01*
X61226Y29891D01*
X61136Y29868D01*
X61073Y29854D01*
X61053Y29850D01*
X61052Y29849D01*
X61045Y29847D01*
X61039Y29844D01*
X61033Y29842D01*
X60898Y29746D01*
X52090Y20938D01*
X50455Y19303D01*
X37962Y19303D01*
X37950Y19301D01*
X37937Y19303D01*
X37853Y19281D01*
X37767Y19264D01*
X37757Y19257D01*
X37745Y19253D01*
X37609Y19157D01*
X21483Y3031D01*
X21476Y3020D01*
X21466Y3013D01*
X21421Y2938D01*
X21373Y2865D01*
X21371Y2853D01*
X21364Y2842D01*
X21337Y2678D01*
X21337Y-14505D01*
X21338Y-14509D01*
X21337Y-14513D01*
X21357Y-14606D01*
X21376Y-14700D01*
X21379Y-14703D01*
X21380Y-14707D01*
X21435Y-14785D01*
X21489Y-14864D01*
X21492Y-14866D01*
X21495Y-14869D01*
X21576Y-14919D01*
X21656Y-14971D01*
X21661Y-14971D01*
X21664Y-14974D01*
X21758Y-14988D01*
X21853Y-15004D01*
X21857Y-15003D01*
X21861Y-15003D01*
X21953Y-14980D01*
X22046Y-14958D01*
X22049Y-14955D01*
X22053Y-14954D01*
X22189Y-14858D01*
X34905Y-2142D01*
X36540Y-507D01*
X41172Y-507D01*
X41174Y-507D01*
X41176Y-507D01*
X41271Y-487D01*
X41367Y-468D01*
X41369Y-466D01*
X41371Y-466D01*
X41451Y-410D01*
X41531Y-355D01*
X41532Y-353D01*
X41534Y-352D01*
X41586Y-269D01*
X41638Y-188D01*
X41638Y-185D01*
X41639Y-184D01*
X41655Y-88D01*
X41671Y9D01*
X41671Y11D01*
X41671Y13D01*
X41648Y107D01*
X41625Y202D01*
X41624Y204D01*
X41623Y206D01*
X41564Y285D01*
X41507Y362D01*
X41505Y363D01*
X41504Y365D01*
X41363Y453D01*
X38934Y1459D01*
X36384Y4009D01*
X35004Y7341D01*
X35004Y10947D01*
X36384Y14279D01*
X38934Y16829D01*
X42266Y18209D01*
X45872Y18209D01*
X49204Y16829D01*
X51754Y14279D01*
X51975Y13745D01*
X51978Y13740D01*
X51980Y13734D01*
X52034Y13657D01*
X52086Y13580D01*
X52091Y13577D01*
X52095Y13572D01*
X52174Y13523D01*
X52253Y13472D01*
X52259Y13471D01*
X52264Y13467D01*
X52356Y13453D01*
X52448Y13437D01*
X52455Y13438D01*
X52461Y13438D01*
X52551Y13461D01*
X52642Y13481D01*
X52647Y13485D01*
X52653Y13487D01*
X52789Y13583D01*
X61956Y22750D01*
X63591Y24385D01*
X73544Y24385D01*
X73556Y24387D01*
X73569Y24385D01*
X73653Y24407D01*
X73739Y24424D01*
X73749Y24431D01*
X73761Y24435D01*
X73897Y24531D01*
X80498Y31132D01*
X80505Y31143D01*
X80515Y31150D01*
X80560Y31225D01*
X80608Y31298D01*
X80610Y31310D01*
X80617Y31321D01*
X80644Y31485D01*
X80644Y90689D01*
X80642Y90701D01*
X80644Y90714D01*
X80622Y90798D01*
X80605Y90884D01*
X80598Y90894D01*
X80594Y90906D01*
X80498Y91042D01*
X73643Y97897D01*
X73632Y97904D01*
X73625Y97914D01*
X73550Y97959D01*
X73477Y98007D01*
X73465Y98009D01*
X73454Y98016D01*
X73290Y98043D01*
X35549Y98043D01*
X35537Y98041D01*
X35524Y98043D01*
X35440Y98021D01*
X35354Y98004D01*
X35344Y97997D01*
X35332Y97993D01*
X35196Y97897D01*
X-90515Y-27814D01*
X-117737Y-27814D01*
X-117745Y-27815D01*
X-117754Y-27814D01*
X-117842Y-27835D01*
X-117932Y-27853D01*
X-117939Y-27858D01*
X-117947Y-27860D01*
X-118020Y-27914D01*
X-118096Y-27966D01*
X-118100Y-27973D01*
X-118107Y-27978D01*
X-118154Y-28056D01*
X-118172Y-28086D01*
X-120059Y-29973D01*
X-125813Y-29973D01*
X-127028Y-28757D01*
X-127035Y-28753D01*
X-127040Y-28746D01*
X-127117Y-28698D01*
X-127194Y-28648D01*
X-127202Y-28646D01*
X-127209Y-28642D01*
X-127299Y-28628D01*
X-127389Y-28611D01*
X-127398Y-28613D01*
X-127406Y-28612D01*
X-127494Y-28634D01*
X-127583Y-28654D01*
X-127590Y-28659D01*
X-127598Y-28661D01*
X-127734Y-28757D01*
X-128949Y-29973D01*
X-134703Y-29973D01*
X-136532Y-28143D01*
X-136547Y-28081D01*
X-136565Y-27991D01*
X-136570Y-27984D01*
X-136572Y-27976D01*
X-136626Y-27903D01*
X-136678Y-27827D01*
X-136685Y-27823D01*
X-136690Y-27816D01*
X-136768Y-27769D01*
X-136845Y-27720D01*
X-136854Y-27719D01*
X-136861Y-27714D01*
X-137025Y-27687D01*
X-152182Y-27687D01*
X-153080Y-26789D01*
X-153091Y-26782D01*
X-153098Y-26772D01*
X-153173Y-26727D01*
X-153246Y-26679D01*
X-153258Y-26677D01*
X-153269Y-26670D01*
X-153433Y-26643D01*
X-156420Y-26643D01*
X-159231Y-23832D01*
X-159231Y-19856D01*
X-156420Y-17045D01*
X-152444Y-17045D01*
X-149633Y-19856D01*
X-149633Y-22106D01*
X-149632Y-22114D01*
X-149633Y-22123D01*
X-149612Y-22211D01*
X-149594Y-22301D01*
X-149589Y-22308D01*
X-149587Y-22316D01*
X-149533Y-22389D01*
X-149481Y-22465D01*
X-149474Y-22469D01*
X-149469Y-22476D01*
X-149391Y-22523D01*
X-149314Y-22572D01*
X-149305Y-22573D01*
X-149298Y-22578D01*
X-149134Y-22605D01*
X-136941Y-22605D01*
X-136929Y-22603D01*
X-136917Y-22605D01*
X-136832Y-22583D01*
X-136747Y-22566D01*
X-136736Y-22559D01*
X-136724Y-22555D01*
X-136588Y-22459D01*
X-134703Y-20573D01*
X-128949Y-20573D01*
X-127734Y-21789D01*
X-127727Y-21793D01*
X-127722Y-21800D01*
X-127645Y-21848D01*
X-127568Y-21898D01*
X-127560Y-21900D01*
X-127553Y-21904D01*
X-127463Y-21918D01*
X-127373Y-21935D01*
X-127365Y-21933D01*
X-127356Y-21934D01*
X-127268Y-21912D01*
X-127179Y-21892D01*
X-127172Y-21887D01*
X-127164Y-21885D01*
X-127028Y-21789D01*
X-125813Y-20573D01*
X-120059Y-20573D01*
X-118190Y-22443D01*
X-118136Y-22516D01*
X-118084Y-22592D01*
X-118077Y-22596D01*
X-118072Y-22603D01*
X-117994Y-22650D01*
X-117917Y-22699D01*
X-117908Y-22700D01*
X-117901Y-22705D01*
X-117737Y-22732D01*
X-92826Y-22732D01*
X-92814Y-22730D01*
X-92801Y-22732D01*
X-92717Y-22710D01*
X-92631Y-22693D01*
X-92621Y-22686D01*
X-92609Y-22682D01*
X-92473Y-22586D01*
X33238Y103125D01*
X75601Y103125D01*
X85726Y93000D01*
X85726Y29174D01*
X84091Y27539D01*
X77490Y20938D01*
X75855Y19303D01*
X65902Y19303D01*
X65890Y19301D01*
X65877Y19303D01*
X65793Y19281D01*
X65707Y19264D01*
X65697Y19257D01*
X65685Y19253D01*
X65549Y19157D01*
X64208Y17816D01*
X64207Y17814D01*
X64205Y17813D01*
X64152Y17731D01*
X64098Y17650D01*
X64098Y17648D01*
X64097Y17647D01*
X64080Y17551D01*
X64062Y17455D01*
X64063Y17453D01*
X64062Y17451D01*
X64084Y17356D01*
X64105Y17261D01*
X64106Y17259D01*
X64107Y17257D01*
X64164Y17178D01*
X64220Y17099D01*
X64222Y17098D01*
X64223Y17096D01*
X64307Y17045D01*
X64389Y16994D01*
X64392Y16994D01*
X64393Y16993D01*
X64490Y16979D01*
X64586Y16965D01*
X64588Y16965D01*
X64590Y16965D01*
X64752Y17002D01*
X67666Y18209D01*
X71272Y18209D01*
X74604Y16829D01*
X77154Y14279D01*
X78534Y10947D01*
X78534Y7341D01*
X77154Y4009D01*
X74604Y1459D01*
X71272Y79D01*
X67666Y79D01*
X65111Y1138D01*
X65100Y1140D01*
X65091Y1145D01*
X65003Y1159D01*
X64915Y1176D01*
X64905Y1173D01*
X64895Y1175D01*
X64808Y1153D01*
X64721Y1134D01*
X64712Y1128D01*
X64702Y1126D01*
X64567Y1029D01*
X59583Y-3954D01*
X57948Y-5589D01*
X38851Y-5589D01*
X38839Y-5591D01*
X38826Y-5589D01*
X38742Y-5611D01*
X38656Y-5628D01*
X38646Y-5635D01*
X38634Y-5639D01*
X38498Y-5735D01*
X25039Y-19194D01*
X25032Y-19205D01*
X25022Y-19212D01*
X24977Y-19287D01*
X24929Y-19360D01*
X24927Y-19372D01*
X24920Y-19383D01*
X24893Y-19547D01*
X24893Y-26951D01*
X24894Y-26955D01*
X24893Y-26959D01*
X24913Y-27053D01*
X24932Y-27146D01*
X24935Y-27149D01*
X24936Y-27153D01*
X24991Y-27231D01*
X25045Y-27310D01*
X25048Y-27312D01*
X25051Y-27315D01*
X25132Y-27365D01*
X25212Y-27417D01*
X25217Y-27417D01*
X25220Y-27420D01*
X25314Y-27434D01*
X25409Y-27450D01*
X25413Y-27449D01*
X25417Y-27449D01*
X25509Y-27426D01*
X25602Y-27404D01*
X25605Y-27401D01*
X25609Y-27400D01*
X25745Y-27304D01*
X34858Y-18191D01*
X34865Y-18180D01*
X34875Y-18173D01*
X34920Y-18098D01*
X34968Y-18025D01*
X34970Y-18013D01*
X34977Y-18002D01*
X35004Y-17838D01*
X35004Y-14453D01*
X36384Y-11121D01*
X38934Y-8571D01*
X42266Y-7191D01*
X45872Y-7191D01*
X49204Y-8571D01*
X51754Y-11121D01*
X53134Y-14453D01*
X53134Y-18059D01*
X51754Y-21391D01*
X49204Y-23941D01*
X45855Y-25328D01*
X45853Y-25329D01*
X45851Y-25329D01*
X45771Y-25384D01*
X45690Y-25439D01*
X45689Y-25441D01*
X45687Y-25442D01*
X45635Y-25523D01*
X45582Y-25606D01*
X45581Y-25608D01*
X45580Y-25609D01*
X45564Y-25707D01*
X45547Y-25801D01*
X45548Y-25803D01*
X45547Y-25806D01*
X45569Y-25899D01*
X45591Y-25995D01*
X45593Y-25997D01*
X45593Y-25999D01*
X45650Y-26076D01*
X45708Y-26156D01*
X45710Y-26157D01*
X45711Y-26159D01*
X45794Y-26208D01*
X45878Y-26259D01*
X45880Y-26259D01*
X45882Y-26261D01*
X46046Y-26288D01*
X55637Y-26288D01*
X55649Y-26286D01*
X55662Y-26288D01*
X55746Y-26266D01*
X55832Y-26249D01*
X55842Y-26242D01*
X55854Y-26238D01*
X55990Y-26142D01*
X61243Y-20889D01*
X61247Y-20883D01*
X61248Y-20882D01*
X61250Y-20879D01*
X61257Y-20874D01*
X61303Y-20798D01*
X61353Y-20723D01*
X61354Y-20716D01*
X61355Y-20714D01*
X61356Y-20711D01*
X61360Y-20704D01*
X61373Y-20616D01*
X61389Y-20528D01*
X61388Y-20522D01*
X61388Y-20518D01*
X61387Y-20514D01*
X61388Y-20507D01*
X61351Y-20345D01*
X60404Y-18059D01*
X60404Y-14453D01*
X61784Y-11121D01*
X64334Y-8571D01*
X67666Y-7191D01*
X71272Y-7191D01*
X74604Y-8571D01*
X77154Y-11121D01*
X78534Y-14453D01*
X78534Y-18059D01*
X77154Y-21391D01*
X74604Y-23941D01*
X71272Y-25321D01*
X67666Y-25321D01*
X65380Y-24374D01*
X65370Y-24372D01*
X65361Y-24366D01*
X65273Y-24353D01*
X65185Y-24336D01*
X65175Y-24338D01*
X65164Y-24337D01*
X65078Y-24359D01*
X64990Y-24377D01*
X64982Y-24383D01*
X64972Y-24386D01*
X64836Y-24482D01*
X59583Y-29735D01*
X57948Y-31370D01*
X39994Y-31370D01*
X39982Y-31372D01*
X39969Y-31370D01*
X39885Y-31392D01*
X39799Y-31409D01*
X39789Y-31416D01*
X39777Y-31420D01*
X39641Y-31516D01*
X32532Y-38625D01*
X32525Y-38636D01*
X32515Y-38643D01*
X32470Y-38718D01*
X32422Y-38791D01*
X32420Y-38803D01*
X32413Y-38814D01*
X32386Y-38978D01*
X32386Y-41937D01*
X32387Y-41941D01*
X32386Y-41945D01*
X32406Y-42038D01*
X32425Y-42132D01*
X32428Y-42135D01*
X32429Y-42139D01*
X32484Y-42217D01*
X32538Y-42296D01*
X32541Y-42298D01*
X32544Y-42301D01*
X32625Y-42351D01*
X32705Y-42403D01*
X32710Y-42403D01*
X32713Y-42406D01*
X32807Y-42420D01*
X32902Y-42436D01*
X32906Y-42435D01*
X32910Y-42435D01*
X33002Y-42412D01*
X33095Y-42390D01*
X33098Y-42387D01*
X33102Y-42386D01*
X33238Y-42290D01*
X34778Y-40750D01*
X34858Y-40670D01*
X34865Y-40659D01*
X34875Y-40652D01*
X34919Y-40577D01*
X34968Y-40504D01*
X34970Y-40492D01*
X34977Y-40481D01*
X35004Y-40317D01*
X35004Y-39853D01*
X36384Y-36521D01*
X38934Y-33971D01*
X42266Y-32591D01*
X45872Y-32591D01*
X49204Y-33971D01*
X51754Y-36521D01*
X53134Y-39853D01*
X53134Y-43459D01*
X51754Y-46791D01*
X49204Y-49341D01*
X45872Y-50721D01*
X42266Y-50721D01*
X38934Y-49341D01*
X37175Y-47581D01*
X37171Y-47579D01*
X37169Y-47576D01*
X37089Y-47525D01*
X37009Y-47472D01*
X37005Y-47471D01*
X37002Y-47469D01*
X36908Y-47453D01*
X36814Y-47435D01*
X36810Y-47436D01*
X36805Y-47436D01*
X36714Y-47457D01*
X36620Y-47478D01*
X36616Y-47481D01*
X36612Y-47482D01*
X36535Y-47538D01*
X36457Y-47593D01*
X36455Y-47597D01*
X36452Y-47599D01*
X36403Y-47681D01*
X36353Y-47763D01*
X36353Y-47767D01*
X36350Y-47770D01*
X36323Y-47934D01*
X36323Y-60778D01*
X36324Y-60782D01*
X36323Y-60786D01*
X36343Y-60879D01*
X36362Y-60972D01*
X36365Y-60976D01*
X36366Y-60980D01*
X36421Y-61058D01*
X36475Y-61136D01*
X36478Y-61139D01*
X36481Y-61142D01*
X36562Y-61192D01*
X36642Y-61243D01*
X36647Y-61244D01*
X36650Y-61246D01*
X36744Y-61261D01*
X36839Y-61276D01*
X36843Y-61276D01*
X36847Y-61276D01*
X36939Y-61253D01*
X37032Y-61230D01*
X37035Y-61228D01*
X37039Y-61227D01*
X37175Y-61131D01*
X38934Y-59371D01*
X42266Y-57991D01*
X45872Y-57991D01*
X49204Y-59371D01*
X51754Y-61921D01*
X53134Y-65253D01*
X53134Y-68859D01*
X52106Y-71339D01*
X52106Y-71341D01*
X52105Y-71343D01*
X52087Y-71439D01*
X52069Y-71534D01*
X52069Y-71536D01*
X52069Y-71538D01*
X52090Y-71638D01*
X52110Y-71729D01*
X52111Y-71730D01*
X52111Y-71733D01*
X52168Y-71812D01*
X52224Y-71892D01*
X52225Y-71893D01*
X52227Y-71895D01*
X52310Y-71946D01*
X52392Y-71997D01*
X52394Y-71998D01*
X52396Y-71999D01*
X52492Y-72013D01*
X52588Y-72029D01*
X52590Y-72028D01*
X52593Y-72029D01*
X52688Y-72004D01*
X52781Y-71981D01*
X52783Y-71980D01*
X52785Y-71979D01*
X52921Y-71883D01*
X54336Y-70468D01*
X54343Y-70457D01*
X54353Y-70450D01*
X54398Y-70375D01*
X54446Y-70302D01*
X54448Y-70290D01*
X54455Y-70279D01*
X54482Y-70115D01*
X54482Y-45430D01*
X59162Y-40750D01*
X60578Y-39334D01*
X60586Y-39321D01*
X60598Y-39313D01*
X60686Y-39172D01*
X61784Y-36521D01*
X64334Y-33971D01*
X67666Y-32591D01*
X71272Y-32591D01*
X74604Y-33971D01*
X77154Y-36521D01*
X78534Y-39853D01*
X78534Y-43459D01*
X77154Y-46791D01*
X74604Y-49341D01*
X71272Y-50721D01*
X67666Y-50721D01*
X64334Y-49341D01*
X61784Y-46791D01*
X61638Y-46437D01*
X61634Y-46431D01*
X61633Y-46425D01*
X61579Y-46349D01*
X61526Y-46272D01*
X61521Y-46268D01*
X61518Y-46263D01*
X61438Y-46215D01*
X61360Y-46163D01*
X61354Y-46162D01*
X61348Y-46159D01*
X61256Y-46145D01*
X61164Y-46129D01*
X61158Y-46130D01*
X61152Y-46129D01*
X61062Y-46152D01*
X60970Y-46173D01*
X60965Y-46177D01*
X60959Y-46178D01*
X60823Y-46275D01*
X59710Y-47388D01*
X59703Y-47399D01*
X59693Y-47406D01*
X59648Y-47481D01*
X59600Y-47554D01*
X59598Y-47566D01*
X59591Y-47577D01*
X59564Y-47741D01*
X59564Y-64772D01*
X59564Y-64774D01*
X59564Y-64776D01*
X59584Y-64871D01*
X59603Y-64967D01*
X59605Y-64969D01*
X59605Y-64971D01*
X59661Y-65051D01*
X59716Y-65131D01*
X59718Y-65132D01*
X59719Y-65134D01*
X59802Y-65186D01*
X59883Y-65238D01*
X59886Y-65238D01*
X59887Y-65240D01*
X59983Y-65255D01*
X60080Y-65271D01*
X60082Y-65271D01*
X60084Y-65271D01*
X60178Y-65248D01*
X60273Y-65225D01*
X60275Y-65224D01*
X60277Y-65223D01*
X60356Y-65164D01*
X60433Y-65107D01*
X60434Y-65106D01*
X60436Y-65104D01*
X60524Y-64963D01*
X61784Y-61921D01*
X64334Y-59371D01*
X67666Y-57991D01*
X71272Y-57991D01*
X74604Y-59371D01*
X77154Y-61921D01*
X78534Y-65253D01*
X78534Y-68859D01*
X77154Y-72191D01*
X74604Y-74741D01*
X71272Y-76121D01*
X67666Y-76121D01*
X65380Y-75174D01*
X65370Y-75172D01*
X65361Y-75166D01*
X65273Y-75153D01*
X65185Y-75136D01*
X65175Y-75138D01*
X65164Y-75137D01*
X65078Y-75159D01*
X64990Y-75177D01*
X64982Y-75183D01*
X64972Y-75186D01*
X64836Y-75282D01*
X59710Y-80408D01*
X59703Y-80419D01*
X59693Y-80426D01*
X59648Y-80501D01*
X59600Y-80574D01*
X59598Y-80586D01*
X59591Y-80597D01*
X59564Y-80761D01*
X59564Y-90172D01*
X59564Y-90174D01*
X59564Y-90176D01*
X59584Y-90271D01*
X59603Y-90367D01*
X59605Y-90369D01*
X59605Y-90371D01*
X59661Y-90451D01*
X59716Y-90531D01*
X59718Y-90532D01*
X59719Y-90534D01*
X59802Y-90586D01*
X59883Y-90638D01*
X59886Y-90638D01*
X59887Y-90640D01*
X59983Y-90655D01*
X60080Y-90671D01*
X60082Y-90671D01*
X60084Y-90671D01*
X60178Y-90648D01*
X60273Y-90625D01*
X60275Y-90624D01*
X60277Y-90623D01*
X60356Y-90564D01*
X60433Y-90507D01*
X60434Y-90506D01*
X60436Y-90504D01*
X60524Y-90363D01*
X61784Y-87321D01*
X64334Y-84771D01*
X67666Y-83391D01*
X71272Y-83391D01*
X74604Y-84771D01*
X77154Y-87321D01*
X78534Y-90653D01*
X78534Y-94259D01*
X77154Y-97591D01*
X74604Y-100141D01*
X71272Y-101521D01*
X67666Y-101521D01*
X65290Y-100537D01*
X65280Y-100535D01*
X65271Y-100529D01*
X65183Y-100516D01*
X65095Y-100499D01*
X65085Y-100501D01*
X65074Y-100499D01*
X64988Y-100521D01*
X64901Y-100540D01*
X64892Y-100546D01*
X64882Y-100549D01*
X64746Y-100645D01*
X51979Y-113412D01*
X7736Y-113412D01*
X7724Y-113414D01*
X7711Y-113412D01*
X7627Y-113434D01*
X7541Y-113451D01*
X7531Y-113458D01*
X7519Y-113462D01*
X7383Y-113558D01*
X-15839Y-136780D01*
X-105827Y-136780D01*
G37*
%LPD*%
%LPC*%
G36*
X-116923Y26951D02*
X-116923Y26951D01*
X-119734Y29762D01*
X-119734Y33738D01*
X-117622Y35849D01*
X-117615Y35860D01*
X-117605Y35867D01*
X-117560Y35942D01*
X-117512Y36015D01*
X-117510Y36028D01*
X-117503Y36038D01*
X-117476Y36203D01*
X-117476Y46998D01*
X-117477Y47006D01*
X-117476Y47015D01*
X-117497Y47103D01*
X-117515Y47193D01*
X-117520Y47200D01*
X-117522Y47208D01*
X-117576Y47281D01*
X-117628Y47357D01*
X-117635Y47361D01*
X-117640Y47368D01*
X-117718Y47415D01*
X-117748Y47433D01*
X-118309Y47994D01*
X-118316Y47999D01*
X-118320Y48006D01*
X-118398Y48053D01*
X-118474Y48104D01*
X-118483Y48106D01*
X-118490Y48110D01*
X-118580Y48124D01*
X-118670Y48140D01*
X-118678Y48139D01*
X-118686Y48140D01*
X-118774Y48117D01*
X-118864Y48098D01*
X-118871Y48093D01*
X-118879Y48091D01*
X-119015Y47994D01*
X-119703Y47306D01*
X-120644Y46763D01*
X-121694Y46481D01*
X-122826Y46481D01*
X-122826Y51697D01*
X-122827Y51705D01*
X-122826Y51713D01*
X-122847Y51802D01*
X-122865Y51892D01*
X-122870Y51899D01*
X-122872Y51907D01*
X-122926Y51980D01*
X-122978Y52056D01*
X-122985Y52060D01*
X-122990Y52067D01*
X-123068Y52113D01*
X-123145Y52163D01*
X-123154Y52164D01*
X-123161Y52168D01*
X-123325Y52196D01*
X-123826Y52196D01*
X-123826Y52198D01*
X-123325Y52198D01*
X-123317Y52200D01*
X-123309Y52198D01*
X-123220Y52219D01*
X-123130Y52237D01*
X-123123Y52242D01*
X-123115Y52244D01*
X-123042Y52298D01*
X-122966Y52350D01*
X-122962Y52357D01*
X-122955Y52362D01*
X-122909Y52440D01*
X-122859Y52518D01*
X-122858Y52526D01*
X-122854Y52533D01*
X-122826Y52697D01*
X-122826Y57913D01*
X-121694Y57913D01*
X-120644Y57631D01*
X-119703Y57088D01*
X-119015Y56400D01*
X-119008Y56395D01*
X-119003Y56388D01*
X-118925Y56340D01*
X-118849Y56290D01*
X-118841Y56288D01*
X-118833Y56284D01*
X-118743Y56270D01*
X-118653Y56254D01*
X-118645Y56255D01*
X-118637Y56254D01*
X-118549Y56277D01*
X-118459Y56296D01*
X-118452Y56301D01*
X-118444Y56303D01*
X-118309Y56400D01*
X-117765Y56943D01*
X-117692Y56997D01*
X-117616Y57049D01*
X-117612Y57056D01*
X-117605Y57061D01*
X-117558Y57139D01*
X-117509Y57216D01*
X-117508Y57225D01*
X-117503Y57232D01*
X-117476Y57396D01*
X-117476Y95388D01*
X-117478Y95400D01*
X-117476Y95413D01*
X-117498Y95497D01*
X-117515Y95583D01*
X-117522Y95593D01*
X-117526Y95605D01*
X-117622Y95741D01*
X-119016Y97135D01*
X-119027Y97142D01*
X-119034Y97152D01*
X-119109Y97196D01*
X-119182Y97245D01*
X-119194Y97247D01*
X-119205Y97254D01*
X-119369Y97281D01*
X-135887Y97281D01*
X-136780Y98174D01*
X-136780Y109598D01*
X-135887Y110491D01*
X-114303Y110491D01*
X-113410Y109598D01*
X-113410Y98922D01*
X-113408Y98910D01*
X-113410Y98897D01*
X-113388Y98813D01*
X-113371Y98727D01*
X-113364Y98717D01*
X-113360Y98705D01*
X-113264Y98569D01*
X-112394Y97699D01*
X-112394Y57396D01*
X-112393Y57388D01*
X-112394Y57379D01*
X-112373Y57291D01*
X-112355Y57201D01*
X-112350Y57194D01*
X-112348Y57186D01*
X-112294Y57113D01*
X-112242Y57037D01*
X-112235Y57033D01*
X-112230Y57026D01*
X-112152Y56979D01*
X-112122Y56961D01*
X-110327Y55165D01*
X-110323Y55163D01*
X-110321Y55160D01*
X-110241Y55109D01*
X-110161Y55056D01*
X-110157Y55055D01*
X-110154Y55053D01*
X-110060Y55037D01*
X-109966Y55019D01*
X-109962Y55020D01*
X-109957Y55019D01*
X-109866Y55041D01*
X-109772Y55062D01*
X-109768Y55064D01*
X-109764Y55065D01*
X-109688Y55121D01*
X-109609Y55177D01*
X-109607Y55181D01*
X-109604Y55183D01*
X-109555Y55265D01*
X-109505Y55347D01*
X-109505Y55351D01*
X-109502Y55354D01*
X-109475Y55518D01*
X-109475Y117232D01*
X-109477Y117244D01*
X-109475Y117257D01*
X-109497Y117341D01*
X-109514Y117427D01*
X-109521Y117437D01*
X-109525Y117449D01*
X-109621Y117585D01*
X-114571Y122535D01*
X-114582Y122542D01*
X-114589Y122552D01*
X-114664Y122597D01*
X-114737Y122645D01*
X-114749Y122647D01*
X-114760Y122654D01*
X-114924Y122681D01*
X-135887Y122681D01*
X-136780Y123574D01*
X-136780Y134998D01*
X-135887Y135891D01*
X-114303Y135891D01*
X-113410Y134998D01*
X-113410Y128767D01*
X-113408Y128755D01*
X-113410Y128742D01*
X-113388Y128658D01*
X-113371Y128572D01*
X-113364Y128562D01*
X-113360Y128550D01*
X-113264Y128414D01*
X-104393Y119543D01*
X-104393Y47236D01*
X-104392Y47228D01*
X-104393Y47219D01*
X-104372Y47131D01*
X-104354Y47041D01*
X-104349Y47034D01*
X-104347Y47026D01*
X-104293Y46953D01*
X-104241Y46877D01*
X-104234Y46873D01*
X-104229Y46866D01*
X-104151Y46819D01*
X-104121Y46801D01*
X-103560Y46240D01*
X-103553Y46235D01*
X-103549Y46228D01*
X-103471Y46181D01*
X-103395Y46130D01*
X-103386Y46128D01*
X-103379Y46124D01*
X-103289Y46110D01*
X-103199Y46094D01*
X-103191Y46095D01*
X-103183Y46094D01*
X-103095Y46117D01*
X-103005Y46136D01*
X-102998Y46141D01*
X-102990Y46143D01*
X-102854Y46240D01*
X-102166Y46928D01*
X-101225Y47471D01*
X-100175Y47753D01*
X-99043Y47753D01*
X-99043Y42537D01*
X-99041Y42529D01*
X-99043Y42521D01*
X-99022Y42432D01*
X-99004Y42342D01*
X-98999Y42335D01*
X-98997Y42327D01*
X-98943Y42254D01*
X-98891Y42178D01*
X-98884Y42174D01*
X-98879Y42167D01*
X-98801Y42121D01*
X-98723Y42071D01*
X-98715Y42070D01*
X-98708Y42066D01*
X-98544Y42038D01*
X-98043Y42038D01*
X-98043Y42036D01*
X-98544Y42036D01*
X-98552Y42034D01*
X-98560Y42036D01*
X-98649Y42015D01*
X-98739Y41997D01*
X-98746Y41992D01*
X-98754Y41990D01*
X-98827Y41936D01*
X-98903Y41884D01*
X-98907Y41877D01*
X-98914Y41872D01*
X-98960Y41794D01*
X-99010Y41716D01*
X-99011Y41708D01*
X-99015Y41701D01*
X-99043Y41537D01*
X-99043Y36321D01*
X-100175Y36321D01*
X-101225Y36603D01*
X-102166Y37146D01*
X-102854Y37834D01*
X-102861Y37839D01*
X-102866Y37846D01*
X-102944Y37894D01*
X-103020Y37944D01*
X-103028Y37946D01*
X-103036Y37950D01*
X-103126Y37964D01*
X-103216Y37980D01*
X-103224Y37979D01*
X-103232Y37980D01*
X-103320Y37957D01*
X-103410Y37938D01*
X-103417Y37933D01*
X-103425Y37931D01*
X-103560Y37834D01*
X-104176Y37219D01*
X-104183Y37208D01*
X-104193Y37201D01*
X-104238Y37126D01*
X-104286Y37053D01*
X-104288Y37040D01*
X-104295Y37030D01*
X-104322Y36866D01*
X-104322Y36330D01*
X-104320Y36317D01*
X-104322Y36305D01*
X-104300Y36220D01*
X-104283Y36135D01*
X-104276Y36124D01*
X-104272Y36112D01*
X-104176Y35976D01*
X-102064Y33865D01*
X-102064Y29889D01*
X-104875Y27078D01*
X-108851Y27078D01*
X-110482Y28710D01*
X-110490Y28715D01*
X-110494Y28722D01*
X-110572Y28769D01*
X-110648Y28820D01*
X-110657Y28821D01*
X-110664Y28826D01*
X-110754Y28839D01*
X-110844Y28856D01*
X-110852Y28854D01*
X-110860Y28856D01*
X-110948Y28833D01*
X-111038Y28813D01*
X-111045Y28808D01*
X-111053Y28806D01*
X-111189Y28710D01*
X-112947Y26951D01*
X-116923Y26951D01*
G37*
%LPD*%
%LPC*%
G36*
X-159849Y662D02*
X-159849Y662D01*
X-162660Y3473D01*
X-162660Y6460D01*
X-162662Y6472D01*
X-162660Y6485D01*
X-162682Y6569D01*
X-162699Y6655D01*
X-162706Y6665D01*
X-162710Y6677D01*
X-162806Y6813D01*
X-162815Y6822D01*
X-162815Y141895D01*
X-137180Y167530D01*
X-137173Y167541D01*
X-137163Y167548D01*
X-137118Y167623D01*
X-137070Y167696D01*
X-137068Y167708D01*
X-137061Y167719D01*
X-137034Y167883D01*
X-137034Y181353D01*
X-136141Y182246D01*
X-118367Y182246D01*
X-117474Y181353D01*
X-117474Y163579D01*
X-118367Y162686D01*
X-134631Y162686D01*
X-134643Y162684D01*
X-134656Y162686D01*
X-134740Y162664D01*
X-134826Y162647D01*
X-134836Y162640D01*
X-134848Y162636D01*
X-134984Y162540D01*
X-157587Y139937D01*
X-157594Y139926D01*
X-157604Y139919D01*
X-157649Y139844D01*
X-157697Y139771D01*
X-157699Y139759D01*
X-157706Y139748D01*
X-157733Y139584D01*
X-157733Y10759D01*
X-157732Y10751D01*
X-157733Y10742D01*
X-157712Y10654D01*
X-157694Y10564D01*
X-157689Y10557D01*
X-157687Y10549D01*
X-157633Y10476D01*
X-157581Y10400D01*
X-157574Y10396D01*
X-157569Y10389D01*
X-157491Y10342D01*
X-157414Y10293D01*
X-157405Y10292D01*
X-157398Y10287D01*
X-157234Y10260D01*
X-155873Y10260D01*
X-153062Y7449D01*
X-153062Y3473D01*
X-155873Y662D01*
X-159849Y662D01*
G37*
%LPD*%
%LPC*%
G36*
X-272664Y-189894D02*
X-272664Y-189894D01*
X-279018Y-184172D01*
X-282496Y-176360D01*
X-282496Y-167810D01*
X-279018Y-159998D01*
X-272664Y-154276D01*
X-264531Y-151634D01*
X-256028Y-152528D01*
X-248622Y-156803D01*
X-243596Y-163721D01*
X-241818Y-172085D01*
X-243596Y-180449D01*
X-248622Y-187367D01*
X-256028Y-191642D01*
X-264531Y-192536D01*
X-272664Y-189894D01*
G37*
%LPD*%
%LPC*%
G36*
X52456Y-190021D02*
X52456Y-190021D01*
X46102Y-184299D01*
X42624Y-176487D01*
X42624Y-167937D01*
X46102Y-160125D01*
X52456Y-154403D01*
X60589Y-151761D01*
X69092Y-152655D01*
X76498Y-156930D01*
X81524Y-163848D01*
X83302Y-172212D01*
X81524Y-180576D01*
X76498Y-187494D01*
X69092Y-191769D01*
X60589Y-192663D01*
X52456Y-190021D01*
G37*
%LPD*%
%LPC*%
G36*
X-272537Y148942D02*
X-272537Y148942D01*
X-278891Y154664D01*
X-282369Y162476D01*
X-282369Y171026D01*
X-278891Y178838D01*
X-272537Y184560D01*
X-264404Y187202D01*
X-255901Y186308D01*
X-248495Y182033D01*
X-243469Y175115D01*
X-241691Y166751D01*
X-243469Y158387D01*
X-248495Y151469D01*
X-255901Y147194D01*
X-264404Y146300D01*
X-272537Y148942D01*
G37*
%LPD*%
%LPC*%
G36*
X52202Y149069D02*
X52202Y149069D01*
X45848Y154791D01*
X42370Y162603D01*
X42370Y171153D01*
X45848Y178965D01*
X52202Y184687D01*
X60335Y187329D01*
X68838Y186435D01*
X76244Y182160D01*
X81270Y175242D01*
X83048Y166878D01*
X81270Y158514D01*
X76244Y151596D01*
X68838Y147321D01*
X60335Y146427D01*
X52202Y149069D01*
G37*
%LPD*%
G36*
X-243906Y-29402D02*
X-243906Y-29402D01*
X-243895Y-29403D01*
X-239871Y-29101D01*
X-239840Y-29093D01*
X-239797Y-29090D01*
X-235863Y-28192D01*
X-235834Y-28179D01*
X-235791Y-28170D01*
X-232035Y-26696D01*
X-232008Y-26679D01*
X-231968Y-26664D01*
X-228473Y-24646D01*
X-228449Y-24625D01*
X-228411Y-24604D01*
X-225256Y-22088D01*
X-225236Y-22063D01*
X-225201Y-22037D01*
X-222457Y-19079D01*
X-222440Y-19052D01*
X-222410Y-19020D01*
X-220137Y-15686D01*
X-220124Y-15657D01*
X-220100Y-15622D01*
X-218349Y-11986D01*
X-218341Y-11955D01*
X-218321Y-11916D01*
X-217132Y-8060D01*
X-217129Y-8029D01*
X-217115Y-7987D01*
X-216514Y-3997D01*
X-216515Y-3965D01*
X-216508Y-3923D01*
X-216508Y113D01*
X-216515Y144D01*
X-216514Y187D01*
X-217115Y4177D01*
X-217126Y4207D01*
X-217132Y4250D01*
X-218321Y8106D01*
X-218337Y8134D01*
X-218349Y8176D01*
X-220100Y11812D01*
X-220119Y11837D01*
X-220137Y11876D01*
X-222410Y15210D01*
X-222433Y15233D01*
X-222457Y15269D01*
X-225201Y18227D01*
X-225227Y18246D01*
X-225256Y18278D01*
X-228411Y20794D01*
X-228439Y20808D01*
X-228473Y20836D01*
X-231968Y22854D01*
X-231998Y22864D01*
X-232035Y22886D01*
X-235791Y24360D01*
X-235823Y24366D01*
X-235863Y24382D01*
X-239797Y25280D01*
X-239829Y25281D01*
X-239871Y25291D01*
X-243895Y25593D01*
X-243922Y25589D01*
X-243949Y25594D01*
X-244019Y25577D01*
X-244092Y25568D01*
X-244116Y25554D01*
X-244142Y25548D01*
X-244201Y25505D01*
X-244264Y25468D01*
X-244280Y25446D01*
X-244302Y25430D01*
X-244339Y25367D01*
X-244383Y25309D01*
X-244390Y25282D01*
X-244404Y25259D01*
X-244421Y25155D01*
X-244431Y25116D01*
X-244429Y25106D01*
X-244431Y25095D01*
X-244431Y-28905D01*
X-244426Y-28932D01*
X-244428Y-28959D01*
X-244406Y-29028D01*
X-244392Y-29100D01*
X-244376Y-29122D01*
X-244368Y-29148D01*
X-244320Y-29204D01*
X-244279Y-29264D01*
X-244256Y-29278D01*
X-244238Y-29299D01*
X-244173Y-29332D01*
X-244112Y-29371D01*
X-244085Y-29375D01*
X-244060Y-29387D01*
X-243956Y-29397D01*
X-243915Y-29404D01*
X-243906Y-29402D01*
G37*
G36*
X-320039Y-161371D02*
X-320039Y-161371D01*
X-319996Y-161375D01*
X-315976Y-161071D01*
X-315945Y-161062D01*
X-315902Y-161060D01*
X-311972Y-160160D01*
X-311943Y-160147D01*
X-311901Y-160138D01*
X-308150Y-158663D01*
X-308123Y-158646D01*
X-308082Y-158631D01*
X-304592Y-156613D01*
X-304569Y-156592D01*
X-304531Y-156571D01*
X-301381Y-154056D01*
X-301360Y-154031D01*
X-301326Y-154005D01*
X-298586Y-151048D01*
X-298569Y-151021D01*
X-298539Y-150990D01*
X-296271Y-147658D01*
X-296258Y-147628D01*
X-296233Y-147593D01*
X-294486Y-143960D01*
X-294479Y-143929D01*
X-294459Y-143891D01*
X-293273Y-140038D01*
X-293270Y-140006D01*
X-293257Y-139965D01*
X-292658Y-135978D01*
X-292660Y-135947D01*
X-292653Y-135904D01*
X-292655Y-131873D01*
X-292662Y-131842D01*
X-292661Y-131798D01*
X-293264Y-127813D01*
X-293275Y-127783D01*
X-293281Y-127740D01*
X-294471Y-123888D01*
X-294486Y-123861D01*
X-294499Y-123819D01*
X-296250Y-120188D01*
X-296266Y-120166D01*
X-296276Y-120141D01*
X-296326Y-120088D01*
X-296370Y-120030D01*
X-296394Y-120016D01*
X-296412Y-119997D01*
X-296479Y-119967D01*
X-296543Y-119931D01*
X-296570Y-119928D01*
X-296595Y-119917D01*
X-296668Y-119916D01*
X-296740Y-119907D01*
X-296766Y-119915D01*
X-296794Y-119915D01*
X-296892Y-119951D01*
X-296931Y-119963D01*
X-296939Y-119969D01*
X-296949Y-119973D01*
X-343649Y-146973D01*
X-343670Y-146991D01*
X-343694Y-147002D01*
X-343727Y-147038D01*
X-343744Y-147050D01*
X-343755Y-147066D01*
X-343798Y-147105D01*
X-343810Y-147129D01*
X-343828Y-147149D01*
X-343852Y-147218D01*
X-343884Y-147284D01*
X-343885Y-147311D01*
X-343894Y-147337D01*
X-343889Y-147410D01*
X-343893Y-147483D01*
X-343883Y-147508D01*
X-343881Y-147535D01*
X-343837Y-147631D01*
X-343823Y-147669D01*
X-343817Y-147676D01*
X-343812Y-147687D01*
X-341539Y-151016D01*
X-341516Y-151038D01*
X-341492Y-151074D01*
X-338749Y-154028D01*
X-338723Y-154046D01*
X-338694Y-154078D01*
X-335541Y-156590D01*
X-335512Y-156604D01*
X-335479Y-156632D01*
X-331987Y-158645D01*
X-331957Y-158655D01*
X-331919Y-158678D01*
X-328166Y-160148D01*
X-328135Y-160154D01*
X-328095Y-160170D01*
X-324164Y-161065D01*
X-324132Y-161065D01*
X-324090Y-161076D01*
X-320070Y-161375D01*
X-320039Y-161371D01*
G37*
G36*
X-297216Y115601D02*
X-297216Y115601D01*
X-297144Y115607D01*
X-297119Y115619D01*
X-297093Y115624D01*
X-297032Y115665D01*
X-296967Y115698D01*
X-296950Y115719D01*
X-296927Y115734D01*
X-296866Y115820D01*
X-296840Y115852D01*
X-296838Y115861D01*
X-296831Y115870D01*
X-295080Y119501D01*
X-295072Y119532D01*
X-295052Y119570D01*
X-293862Y123422D01*
X-293859Y123454D01*
X-293845Y123495D01*
X-293242Y127480D01*
X-293243Y127512D01*
X-293236Y127555D01*
X-293234Y131586D01*
X-293240Y131617D01*
X-293239Y131660D01*
X-293838Y135647D01*
X-293849Y135677D01*
X-293854Y135720D01*
X-295040Y139573D01*
X-295055Y139601D01*
X-295067Y139642D01*
X-296814Y143275D01*
X-296833Y143300D01*
X-296852Y143340D01*
X-299120Y146672D01*
X-299143Y146694D01*
X-299167Y146730D01*
X-301907Y149687D01*
X-301933Y149705D01*
X-301962Y149738D01*
X-305112Y152253D01*
X-305140Y152268D01*
X-305173Y152295D01*
X-308663Y154313D01*
X-308694Y154323D01*
X-308731Y154345D01*
X-312482Y155820D01*
X-312514Y155826D01*
X-312553Y155842D01*
X-316483Y156742D01*
X-316515Y156742D01*
X-316557Y156753D01*
X-320577Y157057D01*
X-320608Y157053D01*
X-320651Y157057D01*
X-324671Y156758D01*
X-324702Y156749D01*
X-324745Y156747D01*
X-328676Y155852D01*
X-328705Y155839D01*
X-328747Y155830D01*
X-332500Y154360D01*
X-332527Y154342D01*
X-332568Y154327D01*
X-336060Y152314D01*
X-336084Y152293D01*
X-336122Y152272D01*
X-339275Y149760D01*
X-339295Y149736D01*
X-339330Y149710D01*
X-342073Y146756D01*
X-342090Y146729D01*
X-342120Y146698D01*
X-344393Y143369D01*
X-344403Y143343D01*
X-344421Y143322D01*
X-344442Y143253D01*
X-344470Y143185D01*
X-344470Y143158D01*
X-344478Y143132D01*
X-344470Y143059D01*
X-344470Y142986D01*
X-344459Y142961D01*
X-344456Y142934D01*
X-344420Y142871D01*
X-344391Y142804D01*
X-344372Y142785D01*
X-344359Y142761D01*
X-344277Y142694D01*
X-344248Y142666D01*
X-344239Y142662D01*
X-344230Y142655D01*
X-297530Y115655D01*
X-297505Y115646D01*
X-297482Y115630D01*
X-297411Y115615D01*
X-297342Y115592D01*
X-297315Y115594D01*
X-297288Y115588D01*
X-297216Y115601D01*
G37*
%LPC*%
G36*
X-132798Y33428D02*
X-132798Y33428D01*
X-135609Y36239D01*
X-135609Y40215D01*
X-133497Y42326D01*
X-133490Y42337D01*
X-133480Y42344D01*
X-133435Y42419D01*
X-133387Y42492D01*
X-133385Y42505D01*
X-133378Y42515D01*
X-133351Y42680D01*
X-133351Y44842D01*
X-133353Y44854D01*
X-133351Y44867D01*
X-133373Y44951D01*
X-133390Y45037D01*
X-133397Y45047D01*
X-133401Y45059D01*
X-133497Y45195D01*
X-152782Y64480D01*
X-152782Y137069D01*
X-133894Y155957D01*
X-119623Y155957D01*
X-119611Y155959D01*
X-119598Y155957D01*
X-119514Y155979D01*
X-119428Y155996D01*
X-119418Y156003D01*
X-119406Y156007D01*
X-119270Y156103D01*
X-109649Y165724D01*
X-109644Y165731D01*
X-109637Y165736D01*
X-109590Y165814D01*
X-109539Y165890D01*
X-109538Y165898D01*
X-109533Y165905D01*
X-109519Y165995D01*
X-109503Y166086D01*
X-109505Y166094D01*
X-109503Y166102D01*
X-109526Y166190D01*
X-109546Y166280D01*
X-109550Y166287D01*
X-109553Y166295D01*
X-109649Y166430D01*
X-110145Y166926D01*
X-111634Y170521D01*
X-111634Y174411D01*
X-110145Y178006D01*
X-107394Y180757D01*
X-103799Y182246D01*
X-99909Y182246D01*
X-96314Y180757D01*
X-93563Y178006D01*
X-92074Y174411D01*
X-92074Y170521D01*
X-93563Y166926D01*
X-96314Y164175D01*
X-99909Y162686D01*
X-103799Y162686D01*
X-104694Y163057D01*
X-104704Y163059D01*
X-104713Y163064D01*
X-104802Y163078D01*
X-104889Y163095D01*
X-104900Y163093D01*
X-104910Y163094D01*
X-104996Y163072D01*
X-105084Y163054D01*
X-105092Y163048D01*
X-105103Y163045D01*
X-105238Y162949D01*
X-117312Y150875D01*
X-131583Y150875D01*
X-131595Y150873D01*
X-131608Y150875D01*
X-131692Y150853D01*
X-131778Y150836D01*
X-131788Y150829D01*
X-131800Y150825D01*
X-131936Y150729D01*
X-147554Y135111D01*
X-147561Y135100D01*
X-147571Y135093D01*
X-147616Y135018D01*
X-147664Y134945D01*
X-147666Y134933D01*
X-147673Y134922D01*
X-147700Y134758D01*
X-147700Y66791D01*
X-147698Y66779D01*
X-147700Y66766D01*
X-147678Y66682D01*
X-147661Y66596D01*
X-147654Y66586D01*
X-147650Y66574D01*
X-147554Y66438D01*
X-130258Y49142D01*
X-130200Y49103D01*
X-130147Y49058D01*
X-130117Y49049D01*
X-130092Y49032D01*
X-130024Y49019D01*
X-129957Y48998D01*
X-129927Y49001D01*
X-129896Y48995D01*
X-129828Y49010D01*
X-129759Y49017D01*
X-129732Y49032D01*
X-129702Y49038D01*
X-129645Y49079D01*
X-129584Y49111D01*
X-129565Y49136D01*
X-129540Y49154D01*
X-129504Y49213D01*
X-129460Y49267D01*
X-129452Y49297D01*
X-129436Y49323D01*
X-129425Y49391D01*
X-129407Y49458D01*
X-129410Y49493D01*
X-129406Y49519D01*
X-129416Y49560D01*
X-129422Y49624D01*
X-129541Y50066D01*
X-129541Y51198D01*
X-124824Y51198D01*
X-124824Y46481D01*
X-125956Y46481D01*
X-127006Y46763D01*
X-127520Y47060D01*
X-127557Y47072D01*
X-127590Y47093D01*
X-127651Y47103D01*
X-127709Y47123D01*
X-127748Y47120D01*
X-127787Y47126D01*
X-127846Y47112D01*
X-127907Y47107D01*
X-127942Y47089D01*
X-127980Y47080D01*
X-128029Y47044D01*
X-128084Y47016D01*
X-128109Y46985D01*
X-128140Y46962D01*
X-128171Y46910D01*
X-128210Y46862D01*
X-128222Y46825D01*
X-128242Y46791D01*
X-128254Y46715D01*
X-128267Y46672D01*
X-128265Y46652D01*
X-128269Y46627D01*
X-128269Y42680D01*
X-128267Y42667D01*
X-128269Y42655D01*
X-128247Y42570D01*
X-128230Y42485D01*
X-128223Y42474D01*
X-128219Y42462D01*
X-128123Y42326D01*
X-126011Y40215D01*
X-126011Y36239D01*
X-128822Y33428D01*
X-132798Y33428D01*
G37*
%LPD*%
%LPC*%
G36*
X-46987Y97281D02*
X-46987Y97281D01*
X-47880Y98174D01*
X-47880Y109598D01*
X-46987Y110491D01*
X-39235Y110491D01*
X-39227Y110492D01*
X-39218Y110491D01*
X-39130Y110512D01*
X-39040Y110530D01*
X-39033Y110535D01*
X-39025Y110537D01*
X-38952Y110591D01*
X-38876Y110643D01*
X-38872Y110650D01*
X-38865Y110655D01*
X-38818Y110733D01*
X-38769Y110810D01*
X-38768Y110819D01*
X-38763Y110826D01*
X-38736Y110990D01*
X-38736Y122182D01*
X-38737Y122190D01*
X-38736Y122199D01*
X-38757Y122287D01*
X-38775Y122377D01*
X-38780Y122384D01*
X-38782Y122392D01*
X-38836Y122465D01*
X-38888Y122541D01*
X-38895Y122545D01*
X-38900Y122552D01*
X-38978Y122599D01*
X-39055Y122648D01*
X-39064Y122649D01*
X-39071Y122654D01*
X-39235Y122681D01*
X-46987Y122681D01*
X-47880Y123574D01*
X-47880Y134998D01*
X-46987Y135891D01*
X-39235Y135891D01*
X-39227Y135892D01*
X-39218Y135891D01*
X-39130Y135912D01*
X-39040Y135930D01*
X-39033Y135935D01*
X-39025Y135937D01*
X-38952Y135991D01*
X-38876Y136043D01*
X-38872Y136050D01*
X-38865Y136055D01*
X-38818Y136133D01*
X-38769Y136210D01*
X-38768Y136219D01*
X-38763Y136226D01*
X-38736Y136390D01*
X-38736Y156348D01*
X-38738Y156360D01*
X-38736Y156373D01*
X-38758Y156457D01*
X-38775Y156543D01*
X-38782Y156553D01*
X-38786Y156565D01*
X-38882Y156701D01*
X-45874Y163693D01*
X-45883Y163698D01*
X-45889Y163707D01*
X-45965Y163753D01*
X-46040Y163802D01*
X-46050Y163804D01*
X-46059Y163810D01*
X-46147Y163822D01*
X-46235Y163839D01*
X-46245Y163837D01*
X-46256Y163838D01*
X-46418Y163801D01*
X-49109Y162686D01*
X-52999Y162686D01*
X-56594Y164175D01*
X-59345Y166926D01*
X-60834Y170521D01*
X-60834Y174411D01*
X-59345Y178006D01*
X-56594Y180757D01*
X-52999Y182246D01*
X-49109Y182246D01*
X-45514Y180757D01*
X-42763Y178006D01*
X-41274Y174411D01*
X-41274Y170521D01*
X-42389Y167830D01*
X-42391Y167819D01*
X-42396Y167811D01*
X-42410Y167722D01*
X-42427Y167635D01*
X-42425Y167624D01*
X-42426Y167614D01*
X-42404Y167528D01*
X-42386Y167440D01*
X-42380Y167431D01*
X-42377Y167421D01*
X-42281Y167286D01*
X-35289Y160294D01*
X-33654Y158659D01*
X-33654Y136390D01*
X-33653Y136382D01*
X-33654Y136373D01*
X-33633Y136285D01*
X-33615Y136195D01*
X-33610Y136188D01*
X-33608Y136180D01*
X-33554Y136107D01*
X-33502Y136031D01*
X-33495Y136027D01*
X-33490Y136020D01*
X-33412Y135973D01*
X-33335Y135924D01*
X-33326Y135923D01*
X-33319Y135918D01*
X-33155Y135891D01*
X-25403Y135891D01*
X-24510Y134998D01*
X-24510Y123574D01*
X-25403Y122681D01*
X-33155Y122681D01*
X-33163Y122680D01*
X-33172Y122681D01*
X-33260Y122660D01*
X-33350Y122642D01*
X-33357Y122637D01*
X-33365Y122635D01*
X-33438Y122581D01*
X-33514Y122529D01*
X-33518Y122522D01*
X-33525Y122517D01*
X-33572Y122439D01*
X-33621Y122362D01*
X-33622Y122353D01*
X-33627Y122346D01*
X-33654Y122182D01*
X-33654Y110990D01*
X-33653Y110982D01*
X-33654Y110973D01*
X-33633Y110885D01*
X-33615Y110795D01*
X-33610Y110788D01*
X-33608Y110780D01*
X-33554Y110707D01*
X-33502Y110631D01*
X-33495Y110627D01*
X-33490Y110620D01*
X-33412Y110573D01*
X-33335Y110524D01*
X-33326Y110523D01*
X-33319Y110518D01*
X-33155Y110491D01*
X-25403Y110491D01*
X-24510Y109598D01*
X-24510Y98174D01*
X-25403Y97281D01*
X-46987Y97281D01*
G37*
%LPD*%
%LPC*%
G36*
X-212272Y-62024D02*
X-212272Y-62024D01*
X-214630Y-59666D01*
X-214630Y-51332D01*
X-212272Y-48974D01*
X-199840Y-48974D01*
X-199828Y-48972D01*
X-199815Y-48974D01*
X-199731Y-48952D01*
X-199645Y-48935D01*
X-199635Y-48928D01*
X-199623Y-48924D01*
X-199487Y-48828D01*
X-198493Y-47834D01*
X-198486Y-47823D01*
X-198476Y-47816D01*
X-198431Y-47741D01*
X-198383Y-47668D01*
X-198381Y-47656D01*
X-198374Y-47645D01*
X-198347Y-47481D01*
X-198347Y-44616D01*
X-198348Y-44608D01*
X-198347Y-44599D01*
X-198368Y-44511D01*
X-198386Y-44421D01*
X-198391Y-44414D01*
X-198393Y-44406D01*
X-198447Y-44333D01*
X-198499Y-44257D01*
X-198506Y-44253D01*
X-198511Y-44246D01*
X-198589Y-44199D01*
X-198666Y-44150D01*
X-198675Y-44149D01*
X-198682Y-44144D01*
X-198846Y-44117D01*
X-212145Y-44117D01*
X-214503Y-41759D01*
X-214503Y-33425D01*
X-212145Y-31067D01*
X-202757Y-31067D01*
X-202749Y-31066D01*
X-202740Y-31067D01*
X-202652Y-31046D01*
X-202562Y-31028D01*
X-202555Y-31023D01*
X-202547Y-31021D01*
X-202474Y-30967D01*
X-202398Y-30915D01*
X-202394Y-30908D01*
X-202387Y-30903D01*
X-202341Y-30825D01*
X-202291Y-30748D01*
X-202290Y-30739D01*
X-202285Y-30732D01*
X-202258Y-30568D01*
X-202258Y-28085D01*
X-199447Y-25274D01*
X-195471Y-25274D01*
X-192660Y-28085D01*
X-192660Y-32061D01*
X-195307Y-34707D01*
X-195314Y-34718D01*
X-195324Y-34725D01*
X-195368Y-34800D01*
X-195417Y-34873D01*
X-195419Y-34886D01*
X-195426Y-34896D01*
X-195453Y-35061D01*
X-195453Y-41184D01*
X-195452Y-41192D01*
X-195453Y-41201D01*
X-195432Y-41289D01*
X-195414Y-41379D01*
X-195409Y-41386D01*
X-195407Y-41394D01*
X-195353Y-41467D01*
X-195301Y-41543D01*
X-195294Y-41547D01*
X-195289Y-41554D01*
X-195211Y-41601D01*
X-195134Y-41650D01*
X-195125Y-41651D01*
X-195118Y-41656D01*
X-194954Y-41683D01*
X-191560Y-41683D01*
X-188749Y-44494D01*
X-188749Y-48470D01*
X-191560Y-51281D01*
X-194547Y-51281D01*
X-194559Y-51283D01*
X-194572Y-51281D01*
X-194656Y-51303D01*
X-194742Y-51320D01*
X-194752Y-51327D01*
X-194764Y-51331D01*
X-194900Y-51427D01*
X-195434Y-51961D01*
X-195441Y-51972D01*
X-195451Y-51979D01*
X-195496Y-52054D01*
X-195544Y-52127D01*
X-195546Y-52139D01*
X-195553Y-52150D01*
X-195580Y-52314D01*
X-195580Y-59666D01*
X-197938Y-62024D01*
X-212272Y-62024D01*
G37*
%LPD*%
%LPC*%
G36*
X-86688Y52732D02*
X-86688Y52732D01*
X-89499Y55543D01*
X-89499Y59519D01*
X-87387Y61630D01*
X-87380Y61641D01*
X-87370Y61648D01*
X-87325Y61723D01*
X-87277Y61796D01*
X-87275Y61809D01*
X-87268Y61819D01*
X-87241Y61984D01*
X-87241Y63375D01*
X-87243Y63387D01*
X-87241Y63400D01*
X-87263Y63484D01*
X-87280Y63570D01*
X-87287Y63580D01*
X-87291Y63592D01*
X-87387Y63728D01*
X-88235Y64576D01*
X-88246Y64583D01*
X-88253Y64593D01*
X-88328Y64638D01*
X-88401Y64686D01*
X-88413Y64688D01*
X-88424Y64695D01*
X-88588Y64722D01*
X-98480Y64722D01*
X-100838Y67080D01*
X-100838Y75414D01*
X-98480Y77772D01*
X-84146Y77772D01*
X-81788Y75414D01*
X-81788Y67080D01*
X-82318Y66551D01*
X-82322Y66544D01*
X-82329Y66539D01*
X-82377Y66461D01*
X-82427Y66385D01*
X-82429Y66377D01*
X-82433Y66369D01*
X-82447Y66280D01*
X-82464Y66189D01*
X-82462Y66181D01*
X-82463Y66173D01*
X-82441Y66085D01*
X-82421Y65995D01*
X-82416Y65988D01*
X-82414Y65980D01*
X-82318Y65845D01*
X-82159Y65686D01*
X-82159Y61984D01*
X-82157Y61971D01*
X-82159Y61959D01*
X-82137Y61874D01*
X-82120Y61789D01*
X-82113Y61778D01*
X-82109Y61766D01*
X-82013Y61630D01*
X-79901Y59519D01*
X-79901Y55543D01*
X-82712Y52732D01*
X-86688Y52732D01*
G37*
%LPD*%
%LPC*%
G36*
X-9961Y14557D02*
X-9961Y14557D01*
X-11990Y16586D01*
X-11997Y16591D01*
X-12002Y16597D01*
X-12079Y16645D01*
X-12155Y16696D01*
X-12164Y16697D01*
X-12171Y16702D01*
X-12261Y16715D01*
X-12351Y16732D01*
X-12359Y16730D01*
X-12367Y16731D01*
X-12456Y16709D01*
X-12545Y16689D01*
X-12552Y16684D01*
X-12560Y16682D01*
X-12696Y16586D01*
X-12998Y16283D01*
X-16974Y16283D01*
X-19785Y19094D01*
X-19785Y23070D01*
X-16974Y25881D01*
X-12998Y25881D01*
X-12696Y25578D01*
X-12689Y25574D01*
X-12684Y25567D01*
X-12606Y25519D01*
X-12530Y25468D01*
X-12522Y25467D01*
X-12514Y25462D01*
X-12425Y25449D01*
X-12334Y25432D01*
X-12326Y25434D01*
X-12318Y25433D01*
X-12230Y25455D01*
X-12140Y25475D01*
X-12133Y25480D01*
X-12125Y25482D01*
X-11990Y25578D01*
X-9961Y27607D01*
X4373Y27607D01*
X6731Y25249D01*
X6731Y16915D01*
X4373Y14557D01*
X-9961Y14557D01*
G37*
%LPD*%
%LPC*%
G36*
X42266Y25479D02*
X42266Y25479D01*
X38934Y26859D01*
X36384Y29409D01*
X35004Y32741D01*
X35004Y36347D01*
X36384Y39679D01*
X38934Y42229D01*
X42266Y43609D01*
X45872Y43609D01*
X49204Y42229D01*
X51754Y39679D01*
X53134Y36347D01*
X53134Y32741D01*
X51754Y29409D01*
X49204Y26859D01*
X45872Y25479D01*
X42266Y25479D01*
G37*
%LPD*%
%LPC*%
G36*
X-181797Y4388D02*
X-181797Y4388D01*
X-182690Y5281D01*
X-182690Y6296D01*
X-182691Y6300D01*
X-182690Y6304D01*
X-182710Y6397D01*
X-182729Y6490D01*
X-182732Y6494D01*
X-182733Y6498D01*
X-182788Y6576D01*
X-182842Y6654D01*
X-182845Y6657D01*
X-182848Y6660D01*
X-182929Y6710D01*
X-183009Y6761D01*
X-183014Y6762D01*
X-183017Y6764D01*
X-183111Y6779D01*
X-183206Y6795D01*
X-183210Y6794D01*
X-183214Y6794D01*
X-183306Y6771D01*
X-183399Y6748D01*
X-183402Y6746D01*
X-183406Y6745D01*
X-183542Y6649D01*
X-185464Y4726D01*
X-189440Y4726D01*
X-192251Y7537D01*
X-192251Y11513D01*
X-189440Y14324D01*
X-185464Y14324D01*
X-183542Y12401D01*
X-183538Y12399D01*
X-183536Y12396D01*
X-183456Y12345D01*
X-183376Y12292D01*
X-183372Y12291D01*
X-183369Y12289D01*
X-183275Y12273D01*
X-183181Y12255D01*
X-183177Y12256D01*
X-183172Y12255D01*
X-183081Y12277D01*
X-182987Y12298D01*
X-182983Y12301D01*
X-182979Y12302D01*
X-182903Y12358D01*
X-182824Y12413D01*
X-182822Y12417D01*
X-182819Y12419D01*
X-182770Y12501D01*
X-182720Y12583D01*
X-182720Y12587D01*
X-182717Y12590D01*
X-182690Y12754D01*
X-182690Y14545D01*
X-181797Y15438D01*
X-172533Y15438D01*
X-171640Y14545D01*
X-171640Y5281D01*
X-172533Y4388D01*
X-181797Y4388D01*
G37*
%LPD*%
%LPC*%
G36*
X-181797Y-10612D02*
X-181797Y-10612D01*
X-182690Y-9719D01*
X-182690Y-8309D01*
X-182691Y-8305D01*
X-182690Y-8301D01*
X-182710Y-8208D01*
X-182729Y-8115D01*
X-182732Y-8111D01*
X-182733Y-8107D01*
X-182788Y-8029D01*
X-182842Y-7951D01*
X-182845Y-7948D01*
X-182848Y-7945D01*
X-182929Y-7895D01*
X-183009Y-7844D01*
X-183014Y-7843D01*
X-183017Y-7841D01*
X-183111Y-7826D01*
X-183206Y-7810D01*
X-183210Y-7811D01*
X-183214Y-7811D01*
X-183306Y-7834D01*
X-183399Y-7857D01*
X-183402Y-7859D01*
X-183406Y-7860D01*
X-183542Y-7956D01*
X-185464Y-9879D01*
X-189440Y-9879D01*
X-192251Y-7068D01*
X-192251Y-3092D01*
X-189440Y-281D01*
X-185464Y-281D01*
X-183542Y-2204D01*
X-183538Y-2206D01*
X-183536Y-2209D01*
X-183456Y-2261D01*
X-183376Y-2313D01*
X-183372Y-2314D01*
X-183369Y-2316D01*
X-183275Y-2332D01*
X-183181Y-2350D01*
X-183177Y-2349D01*
X-183172Y-2350D01*
X-183081Y-2328D01*
X-182987Y-2307D01*
X-182983Y-2304D01*
X-182979Y-2303D01*
X-182903Y-2247D01*
X-182824Y-2192D01*
X-182822Y-2188D01*
X-182819Y-2186D01*
X-182770Y-2104D01*
X-182720Y-2022D01*
X-182720Y-2018D01*
X-182717Y-2015D01*
X-182690Y-1851D01*
X-182690Y-455D01*
X-181797Y438D01*
X-172533Y438D01*
X-171640Y-455D01*
X-171640Y-9719D01*
X-172533Y-10612D01*
X-181797Y-10612D01*
G37*
%LPD*%
%LPC*%
G36*
X-236033Y68349D02*
X-236033Y68349D01*
X-234572Y69002D01*
X-234543Y69022D01*
X-234498Y69042D01*
X-231850Y70806D01*
X-231825Y70831D01*
X-231785Y70858D01*
X-229468Y73039D01*
X-229448Y73068D01*
X-229412Y73101D01*
X-227491Y75638D01*
X-227476Y75670D01*
X-227447Y75709D01*
X-225976Y78530D01*
X-225966Y78564D01*
X-225943Y78608D01*
X-224964Y81635D01*
X-224960Y81670D01*
X-224945Y81716D01*
X-224484Y84865D01*
X-224486Y84900D01*
X-224479Y84948D01*
X-224549Y88129D01*
X-224557Y88164D01*
X-224558Y88212D01*
X-224728Y89096D01*
X-222104Y89096D01*
X-221903Y87580D01*
X-221899Y84689D01*
X-222273Y81822D01*
X-223018Y79029D01*
X-224121Y76357D01*
X-225564Y73851D01*
X-227321Y71556D01*
X-229362Y69509D01*
X-231654Y67746D01*
X-234156Y66298D01*
X-236033Y65518D01*
X-236033Y68349D01*
G37*
%LPD*%
%LPC*%
G36*
X-224728Y-92906D02*
X-224728Y-92906D01*
X-224558Y-92022D01*
X-224558Y-91987D01*
X-224549Y-91939D01*
X-224479Y-88758D01*
X-224485Y-88724D01*
X-224484Y-88675D01*
X-224945Y-85526D01*
X-224957Y-85493D01*
X-224964Y-85445D01*
X-225943Y-82418D01*
X-225961Y-82387D01*
X-225976Y-82340D01*
X-227447Y-79519D01*
X-227469Y-79492D01*
X-227491Y-79448D01*
X-229412Y-76911D01*
X-229438Y-76888D01*
X-229468Y-76849D01*
X-231785Y-74668D01*
X-231815Y-74650D01*
X-231850Y-74616D01*
X-234498Y-72852D01*
X-234531Y-72839D01*
X-234572Y-72812D01*
X-236033Y-72159D01*
X-236033Y-69334D01*
X-234433Y-69976D01*
X-233881Y-70284D01*
X-231985Y-71342D01*
X-231201Y-71921D01*
X-229730Y-73007D01*
X-227704Y-74943D01*
X-225939Y-77121D01*
X-224464Y-79505D01*
X-223302Y-82056D01*
X-222473Y-84734D01*
X-221990Y-87495D01*
X-221860Y-90295D01*
X-222070Y-92906D01*
X-224728Y-92906D01*
G37*
%LPD*%
%LPC*%
G36*
X-87226Y173465D02*
X-87226Y173465D01*
X-86984Y174994D01*
X-86459Y176610D01*
X-85687Y178124D01*
X-84689Y179499D01*
X-83487Y180701D01*
X-82112Y181699D01*
X-80598Y182471D01*
X-78982Y182996D01*
X-77453Y183238D01*
X-77453Y173465D01*
X-87226Y173465D01*
G37*
%LPD*%
%LPC*%
G36*
X-75455Y173465D02*
X-75455Y173465D01*
X-75455Y183238D01*
X-73926Y182996D01*
X-72310Y182471D01*
X-70796Y181699D01*
X-69421Y180701D01*
X-68219Y179499D01*
X-67221Y178124D01*
X-66449Y176610D01*
X-65924Y174994D01*
X-65682Y173465D01*
X-75455Y173465D01*
G37*
%LPD*%
%LPC*%
G36*
X-78982Y161936D02*
X-78982Y161936D01*
X-80598Y162461D01*
X-82112Y163233D01*
X-83487Y164231D01*
X-84689Y165433D01*
X-85687Y166808D01*
X-86459Y168322D01*
X-86984Y169938D01*
X-87226Y171467D01*
X-77453Y171467D01*
X-77453Y161694D01*
X-78982Y161936D01*
G37*
%LPD*%
%LPC*%
G36*
X-75455Y171467D02*
X-75455Y171467D01*
X-65682Y171467D01*
X-65924Y169938D01*
X-66449Y168322D01*
X-67221Y166808D01*
X-68219Y165433D01*
X-69421Y164231D01*
X-70796Y163233D01*
X-72310Y162461D01*
X-73926Y161936D01*
X-75455Y161694D01*
X-75455Y171467D01*
G37*
%LPD*%
%LPC*%
G36*
X-236033Y-107697D02*
X-236033Y-107697D01*
X-235338Y-107423D01*
X-235309Y-107404D01*
X-235263Y-107386D01*
X-232539Y-105741D01*
X-232514Y-105717D01*
X-232472Y-105692D01*
X-230061Y-103616D01*
X-230039Y-103588D01*
X-230002Y-103556D01*
X-227971Y-101107D01*
X-227954Y-101076D01*
X-227923Y-101038D01*
X-226329Y-98284D01*
X-226318Y-98251D01*
X-226293Y-98209D01*
X-225180Y-95228D01*
X-225175Y-95193D01*
X-225158Y-95147D01*
X-225111Y-94904D01*
X-222467Y-94904D01*
X-222662Y-95832D01*
X-223350Y-97811D01*
X-223582Y-98480D01*
X-224570Y-100467D01*
X-224830Y-100990D01*
X-226108Y-102905D01*
X-226386Y-103322D01*
X-227933Y-105103D01*
X-228224Y-105438D01*
X-230315Y-107305D01*
X-232626Y-108892D01*
X-235119Y-110173D01*
X-236033Y-110505D01*
X-236033Y-107697D01*
G37*
%LPD*%
%LPC*%
G36*
X-225111Y91094D02*
X-225111Y91094D01*
X-225158Y91337D01*
X-225171Y91370D01*
X-225180Y91418D01*
X-226293Y94399D01*
X-226312Y94428D01*
X-226329Y94474D01*
X-227923Y97228D01*
X-227946Y97254D01*
X-227971Y97297D01*
X-230002Y99746D01*
X-230029Y99768D01*
X-230061Y99806D01*
X-232472Y101882D01*
X-232502Y101899D01*
X-232539Y101931D01*
X-235263Y103576D01*
X-235296Y103588D01*
X-235338Y103613D01*
X-236033Y103887D01*
X-236033Y106697D01*
X-234203Y105942D01*
X-232509Y104966D01*
X-231698Y104499D01*
X-230063Y103248D01*
X-229402Y102742D01*
X-227356Y100701D01*
X-225593Y98409D01*
X-224145Y95907D01*
X-223035Y93238D01*
X-222458Y91094D01*
X-225111Y91094D01*
G37*
%LPD*%
%LPC*%
G36*
X-129541Y53196D02*
X-129541Y53196D01*
X-129541Y54328D01*
X-129259Y55378D01*
X-128716Y56319D01*
X-127947Y57088D01*
X-127006Y57631D01*
X-125956Y57913D01*
X-124824Y57913D01*
X-124824Y53196D01*
X-129541Y53196D01*
G37*
%LPD*%
%LPC*%
G36*
X-97045Y43036D02*
X-97045Y43036D01*
X-97045Y47753D01*
X-95913Y47753D01*
X-94863Y47471D01*
X-93922Y46928D01*
X-93153Y46159D01*
X-92610Y45218D01*
X-92328Y44168D01*
X-92328Y43036D01*
X-97045Y43036D01*
G37*
%LPD*%
%LPC*%
G36*
X-97045Y36321D02*
X-97045Y36321D01*
X-97045Y41038D01*
X-92328Y41038D01*
X-92328Y39906D01*
X-92610Y38856D01*
X-93153Y37915D01*
X-93922Y37146D01*
X-94863Y36603D01*
X-95913Y36321D01*
X-97045Y36321D01*
G37*
%LPD*%
%LPC*%
G36*
X-76455Y172465D02*
X-76455Y172465D01*
X-76455Y172467D01*
X-76453Y172467D01*
X-76453Y172465D01*
X-76455Y172465D01*
G37*
%LPD*%
D10*
X-142558Y-90361D02*
X-142558Y-87185D01*
X-139382Y-87185D01*
X-139382Y-90361D01*
X-142558Y-90361D01*
X-142558Y-87345D02*
X-139382Y-87345D01*
X-142558Y-96075D02*
X-142558Y-99251D01*
X-142558Y-96075D02*
X-139382Y-96075D01*
X-139382Y-99251D01*
X-142558Y-99251D01*
X-142558Y-96235D02*
X-139382Y-96235D01*
X-34226Y-96202D02*
X-34226Y-99378D01*
X-37402Y-99378D01*
X-37402Y-96202D01*
X-34226Y-96202D01*
X-34226Y-96362D02*
X-37402Y-96362D01*
X-34226Y-90488D02*
X-34226Y-87312D01*
X-34226Y-90488D02*
X-37402Y-90488D01*
X-37402Y-87312D01*
X-34226Y-87312D01*
X-34226Y-87472D02*
X-37402Y-87472D01*
X-45783Y-96202D02*
X-45783Y-99378D01*
X-48959Y-99378D01*
X-48959Y-96202D01*
X-45783Y-96202D01*
X-45783Y-96362D02*
X-48959Y-96362D01*
X-45783Y-90488D02*
X-45783Y-87312D01*
X-45783Y-90488D02*
X-48959Y-90488D01*
X-48959Y-87312D01*
X-45783Y-87312D01*
X-45783Y-87472D02*
X-48959Y-87472D01*
X-57213Y-96202D02*
X-57213Y-99378D01*
X-60389Y-99378D01*
X-60389Y-96202D01*
X-57213Y-96202D01*
X-57213Y-96362D02*
X-60389Y-96362D01*
X-57213Y-90488D02*
X-57213Y-87312D01*
X-57213Y-90488D02*
X-60389Y-90488D01*
X-60389Y-87312D01*
X-57213Y-87312D01*
X-57213Y-87472D02*
X-60389Y-87472D01*
X-69024Y-96202D02*
X-69024Y-99378D01*
X-72200Y-99378D01*
X-72200Y-96202D01*
X-69024Y-96202D01*
X-69024Y-96362D02*
X-72200Y-96362D01*
X-69024Y-90488D02*
X-69024Y-87312D01*
X-69024Y-90488D02*
X-72200Y-90488D01*
X-72200Y-87312D01*
X-69024Y-87312D01*
X-69024Y-87472D02*
X-72200Y-87472D01*
X-80835Y-96202D02*
X-80835Y-99378D01*
X-84011Y-99378D01*
X-84011Y-96202D01*
X-80835Y-96202D01*
X-80835Y-96362D02*
X-84011Y-96362D01*
X-80835Y-90488D02*
X-80835Y-87312D01*
X-80835Y-90488D02*
X-84011Y-90488D01*
X-84011Y-87312D01*
X-80835Y-87312D01*
X-80835Y-87472D02*
X-84011Y-87472D01*
X-92519Y-96202D02*
X-92519Y-99378D01*
X-95695Y-99378D01*
X-95695Y-96202D01*
X-92519Y-96202D01*
X-92519Y-96362D02*
X-95695Y-96362D01*
X-92519Y-90488D02*
X-92519Y-87312D01*
X-92519Y-90488D02*
X-95695Y-90488D01*
X-95695Y-87312D01*
X-92519Y-87312D01*
X-92519Y-87472D02*
X-95695Y-87472D01*
X-104203Y-96202D02*
X-104203Y-99378D01*
X-107379Y-99378D01*
X-107379Y-96202D01*
X-104203Y-96202D01*
X-104203Y-96362D02*
X-107379Y-96362D01*
X-104203Y-90488D02*
X-104203Y-87312D01*
X-104203Y-90488D02*
X-107379Y-90488D01*
X-107379Y-87312D01*
X-104203Y-87312D01*
X-104203Y-87472D02*
X-107379Y-87472D01*
X-130874Y-87312D02*
X-130874Y-90488D01*
X-130874Y-87312D02*
X-127698Y-87312D01*
X-127698Y-90488D01*
X-130874Y-90488D01*
X-130874Y-87472D02*
X-127698Y-87472D01*
X-130874Y-96202D02*
X-130874Y-99378D01*
X-130874Y-96202D02*
X-127698Y-96202D01*
X-127698Y-99378D01*
X-130874Y-99378D01*
X-130874Y-96362D02*
X-127698Y-96362D01*
X-119063Y-90488D02*
X-119063Y-87312D01*
X-115887Y-87312D01*
X-115887Y-90488D01*
X-119063Y-90488D01*
X-119063Y-87472D02*
X-115887Y-87472D01*
X-119063Y-96202D02*
X-119063Y-99378D01*
X-119063Y-96202D02*
X-115887Y-96202D01*
X-115887Y-99378D01*
X-119063Y-99378D01*
X-119063Y-96362D02*
X-115887Y-96362D01*
D11*
X-127254Y172466D03*
D12*
X-101854Y172466D03*
X-76454Y172466D03*
X-51054Y172466D03*
D13*
X-125095Y129286D03*
X-125095Y103886D03*
X-36195Y103886D03*
X-36195Y129286D03*
D10*
X-105346Y40449D02*
X-108522Y40449D01*
X-108522Y43625D01*
X-105346Y43625D01*
X-105346Y40449D01*
X-105346Y43465D02*
X-108522Y43465D01*
X-99632Y40449D02*
X-96456Y40449D01*
X-99632Y40449D02*
X-99632Y43625D01*
X-96456Y43625D01*
X-96456Y40449D01*
X-96456Y43465D02*
X-99632Y43465D01*
X-113347Y53785D02*
X-116523Y53785D01*
X-113347Y53785D02*
X-113347Y50609D01*
X-116523Y50609D01*
X-116523Y53785D01*
X-116523Y53625D02*
X-113347Y53625D01*
X-122237Y53785D02*
X-125413Y53785D01*
X-122237Y53785D02*
X-122237Y50609D01*
X-125413Y50609D01*
X-125413Y53785D01*
X-125413Y53625D02*
X-122237Y53625D01*
D14*
X44069Y85344D03*
D15*
X69469Y85344D03*
X44069Y59944D03*
X69469Y59944D03*
X44069Y34544D03*
X69469Y34544D03*
X44069Y9144D03*
X69469Y9144D03*
X44069Y-16256D03*
X69469Y-16256D03*
X44069Y-41656D03*
X69469Y-41656D03*
X44069Y-67056D03*
X69469Y-67056D03*
X44069Y-92456D03*
X69469Y-92456D03*
D10*
X-130238Y-26861D02*
X-133414Y-26861D01*
X-133414Y-23685D01*
X-130238Y-23685D01*
X-130238Y-26861D01*
X-130238Y-23845D02*
X-133414Y-23845D01*
X-124524Y-26861D02*
X-121348Y-26861D01*
X-124524Y-26861D02*
X-124524Y-23685D01*
X-121348Y-23685D01*
X-121348Y-26861D01*
X-121348Y-23845D02*
X-124524Y-23845D01*
D16*
X-199478Y-35092D02*
X-210478Y-35092D01*
X-199478Y-35092D02*
X-199478Y-40092D01*
X-210478Y-40092D01*
X-210478Y-35092D01*
X-210478Y-35342D02*
X-199478Y-35342D01*
X-199605Y-52999D02*
X-210605Y-52999D01*
X-199605Y-52999D02*
X-199605Y-57999D01*
X-210605Y-57999D01*
X-210605Y-52999D01*
X-210605Y-53249D02*
X-199605Y-53249D01*
D17*
X-387477Y179555D03*
X-237032Y90095D03*
X-237032Y-93905D03*
X-387350Y-182222D03*
X-316800Y136095D03*
X-237032Y-1905D03*
X-316600Y-139905D03*
D16*
X-96813Y68747D02*
X-85813Y68747D01*
X-96813Y68747D02*
X-96813Y73747D01*
X-85813Y73747D01*
X-85813Y68747D01*
X-85813Y73497D02*
X-96813Y73497D01*
X-8294Y18582D02*
X2706Y18582D01*
X-8294Y18582D02*
X-8294Y23582D01*
X2706Y23582D01*
X2706Y18582D01*
X2706Y23332D02*
X-8294Y23332D01*
D18*
X-177165Y-5087D03*
X-177165Y9913D03*
D19*
X-177553Y9525D01*
X-187452Y9525D01*
D20*
X-187452Y9525D03*
D19*
X-36195Y103886D02*
X-36195Y129286D01*
X-36195Y157607D02*
X-51054Y172466D01*
X-36195Y157607D02*
X-36195Y129286D01*
D20*
X-130810Y38227D03*
D19*
X-130810Y46101D01*
X-150241Y65532D01*
X-150241Y136017D01*
X-132842Y153416D02*
X-118364Y153416D01*
X-101854Y169926D01*
X-101854Y172466D01*
X-132842Y153416D02*
X-150241Y136017D01*
D20*
X-157861Y5461D03*
D19*
X-160274Y7874D01*
X-160274Y140843D01*
X-128651Y172466D01*
X-127254Y172466D01*
X-140970Y-97663D02*
X-140970Y-98044D01*
X-104775Y-134239D01*
X-16891Y-134239D01*
X6477Y-110871D02*
X50927Y-110871D01*
X69342Y-92456D02*
X69469Y-92456D01*
X69342Y-92456D02*
X50927Y-110871D01*
X6477Y-110871D02*
X-16891Y-134239D01*
X-70612Y-105156D02*
X-70612Y-97790D01*
X-64135Y-111633D02*
X-28575Y-111633D01*
X22352Y-60706D01*
X56896Y-3048D02*
X69088Y9144D01*
X69469Y9144D01*
X-64135Y-111633D02*
X-70612Y-105156D01*
X22352Y-60706D02*
X22352Y-18288D01*
X37592Y-3048D01*
X56896Y-3048D01*
X-82423Y-97790D02*
X-82423Y-104902D01*
X-71755Y-115570D02*
X-27051Y-115570D01*
X26162Y-62357D02*
X26162Y-30480D01*
X40386Y-16256D01*
X44069Y-16256D01*
X-71755Y-115570D02*
X-82423Y-104902D01*
X-27051Y-115570D02*
X26162Y-62357D01*
X-94107Y-97790D02*
X-94107Y-103759D01*
X-78740Y-119126D02*
X-25146Y-119126D01*
X-78740Y-119126D02*
X-94107Y-103759D01*
X56896Y-28829D02*
X69469Y-16256D01*
X29845Y-64135D02*
X-25146Y-119126D01*
X29845Y-64135D02*
X29845Y-37719D01*
X38735Y-28829D01*
X56896Y-28829D01*
X-105791Y-97790D02*
X-105791Y-103505D01*
X-86487Y-122809D01*
X-23542Y-122809D01*
X33782Y-65485D01*
X33782Y-45339D01*
X37465Y-41656D01*
X44069Y-41656D01*
X11303Y-54229D02*
X11303Y43815D01*
X40513Y73025D01*
X57150Y73025D02*
X69469Y85344D01*
X11303Y-54229D02*
X-32258Y-97790D01*
X-35814Y-97790D01*
X40513Y73025D02*
X57150Y73025D01*
X-47371Y-97790D02*
X-47371Y-101727D01*
X-45212Y-103886D01*
X-32004Y-103886D01*
X15240Y-56642D01*
X68199Y59944D02*
X69469Y59944D01*
X68199Y59944D02*
X55626Y47371D01*
X38862Y47371D01*
X15240Y23749D01*
X15240Y-56642D01*
X-29896Y-107823D02*
X-52827Y-107823D01*
X-29896Y-107823D02*
X18796Y-59131D01*
X18796Y3937D01*
X-58801Y-97790D02*
X-58801Y-101849D01*
X-52827Y-107823D01*
X18796Y3937D02*
X36703Y21844D01*
X49403Y21844D02*
X62103Y34544D01*
X69469Y34544D01*
X49403Y21844D02*
X36703Y21844D01*
X-129286Y-97790D02*
X-129286Y-102362D01*
X-100965Y-130683D01*
X-18923Y-130683D01*
X5080Y-106680D02*
X48133Y-106680D01*
X57023Y-97790D01*
X57023Y-79502D02*
X69469Y-67056D01*
X5080Y-106680D02*
X-18923Y-130683D01*
X57023Y-97790D02*
X57023Y-79502D01*
X51943Y9144D02*
X44069Y9144D01*
X51943Y9144D02*
X64643Y21844D01*
X74803Y21844D02*
X83185Y30226D01*
X83185Y91948D01*
X74549Y100584D01*
X34290Y100584D01*
X-91567Y-25273D02*
X-122936Y-25273D01*
X64643Y21844D02*
X74803Y21844D01*
X34290Y100584D02*
X-91567Y-25273D01*
D20*
X-114935Y31750D03*
D19*
X-114935Y52197D01*
X-114935Y96647D01*
X-122174Y103886D02*
X-125095Y103886D01*
X-122174Y103886D02*
X-114935Y96647D01*
D20*
X-106863Y31877D03*
D19*
X-106863Y41966D02*
X-106934Y42037D01*
X-106863Y41966D02*
X-106863Y31877D01*
X-106934Y42037D02*
X-106934Y118491D01*
X-117729Y129286D02*
X-125095Y129286D01*
X-117729Y129286D02*
X-106934Y118491D01*
X-117475Y-97790D02*
X-117475Y-105664D01*
X-96393Y-126746D01*
X-21209Y-126746D01*
X25654Y-79883D02*
X48514Y-79883D01*
X57023Y-71374D01*
X57023Y-46482D02*
X61849Y-41656D01*
X69469Y-41656D01*
X25654Y-79883D02*
X-21209Y-126746D01*
X57023Y-71374D02*
X57023Y-46482D01*
D20*
X-232410Y31496D03*
D19*
X-232410Y2717D01*
X-237032Y-1905D01*
X-35814Y-75946D02*
X-35814Y-88900D01*
D20*
X-35814Y-75946D03*
D19*
X-47371Y-75946D02*
X-47371Y-88900D01*
D20*
X-47371Y-75946D03*
D19*
X-58801Y-76073D02*
X-58801Y-88900D01*
D20*
X-58801Y-76073D03*
X-154432Y-21844D03*
D19*
X-151130Y-25146D01*
X-131953Y-25146D01*
X-131826Y-25273D01*
X-202565Y-55499D02*
X-205105Y-55499D01*
D20*
X-193548Y-46482D03*
D19*
X-202565Y-55499D01*
X-204978Y-37592D02*
X-197459Y-30073D01*
D20*
X-197459Y-30073D03*
D19*
X-70612Y-76073D02*
X-70612Y-88900D01*
D20*
X-70612Y-76073D03*
D19*
X-82423Y-76200D02*
X-82423Y-88900D01*
D20*
X-82423Y-76200D03*
D19*
X-94107Y-76200D02*
X-94107Y-88900D01*
D20*
X-94107Y-76200D03*
D19*
X-105791Y-76200D02*
X-105791Y-88900D01*
D20*
X-105791Y-76200D03*
D19*
X-117475Y-76200D02*
X-117475Y-88900D01*
D20*
X-117475Y-76200D03*
D19*
X-129286Y-76200D02*
X-129286Y-88900D01*
D20*
X-129286Y-76200D03*
D19*
X-140970Y-76200D02*
X-140970Y-88773D01*
D20*
X-140970Y-76200D03*
D19*
X-84700Y64634D02*
X-91313Y71247D01*
X-84700Y64634D02*
X-84700Y57531D01*
D20*
X-84700Y57531D03*
D19*
X-14986Y21082D02*
X-2794Y21082D01*
D20*
X-14986Y21082D03*
X-187452Y-5080D03*
D19*
X-187445Y-5087D02*
X-177165Y-5087D01*
X-187445Y-5087D02*
X-187452Y-5080D01*
D20*
X-76327Y21844D03*
X-197485Y24892D03*
X-159258Y-44196D03*
M02*
