G04 EAGLE Gerber RS-274X export*
G75*
%MOMM*%
%FSLAX34Y34*%
%LPD*%
%INBottom Copper*%
%IPPOS*%
%AMOC8*
5,1,8,0,0,1.08239X$1,22.5*%
G01*
%ADD10R,1.651000X1.651000*%
%ADD11C,1.651000*%
%ADD12R,1.508000X1.508000*%
%ADD13C,1.508000*%
%ADD14C,0.499997*%
%ADD15C,0.124994*%
%ADD16R,5.699988X5.699988*%
%ADD17C,1.000000*%
%ADD18R,1.399997X0.400000*%
%ADD19R,1.000000X1.100000*%
%ADD20R,1.500000X1.300000*%
%ADD21R,1.100000X1.000000*%
%ADD22C,0.203200*%
%ADD23C,0.654800*%

G36*
X-375436Y-179383D02*
X-375436Y-179383D01*
X-375433Y-179291D01*
X-375654Y-176467D01*
X-375661Y-176435D01*
X-375673Y-176344D01*
X-376351Y-173593D01*
X-376363Y-173563D01*
X-376389Y-173480D01*
X-376389Y-173479D01*
X-376389Y-173478D01*
X-376390Y-173475D01*
X-377506Y-170871D01*
X-377523Y-170844D01*
X-377564Y-170761D01*
X-379088Y-168373D01*
X-379092Y-168370D01*
X-379094Y-168365D01*
X-379174Y-168278D01*
X-379253Y-168190D01*
X-379257Y-168188D01*
X-379260Y-168184D01*
X-379363Y-168128D01*
X-379466Y-168069D01*
X-379471Y-168068D01*
X-379476Y-168066D01*
X-379591Y-168045D01*
X-379708Y-168022D01*
X-379713Y-168023D01*
X-379718Y-168022D01*
X-379834Y-168039D01*
X-379952Y-168055D01*
X-379956Y-168057D01*
X-379961Y-168058D01*
X-380114Y-168126D01*
X-395100Y-176889D01*
X-395151Y-176931D01*
X-395207Y-176964D01*
X-395245Y-177009D01*
X-395290Y-177046D01*
X-395324Y-177101D01*
X-395367Y-177151D01*
X-395389Y-177205D01*
X-395419Y-177255D01*
X-395434Y-177319D01*
X-395459Y-177379D01*
X-395468Y-177462D01*
X-395476Y-177494D01*
X-395474Y-177514D01*
X-395477Y-177546D01*
X-395477Y-196596D01*
X-395473Y-196621D01*
X-395476Y-196646D01*
X-395453Y-196742D01*
X-395438Y-196839D01*
X-395426Y-196861D01*
X-395420Y-196886D01*
X-395368Y-196970D01*
X-395322Y-197056D01*
X-395304Y-197074D01*
X-395291Y-197095D01*
X-395215Y-197158D01*
X-395144Y-197226D01*
X-395121Y-197236D01*
X-395102Y-197252D01*
X-395010Y-197288D01*
X-394921Y-197329D01*
X-394896Y-197332D01*
X-394872Y-197341D01*
X-394705Y-197357D01*
X-391872Y-197317D01*
X-391840Y-197311D01*
X-391749Y-197305D01*
X-388960Y-196805D01*
X-388929Y-196794D01*
X-388840Y-196773D01*
X-386170Y-195825D01*
X-386141Y-195809D01*
X-386057Y-195774D01*
X-383577Y-194405D01*
X-383551Y-194385D01*
X-383473Y-194336D01*
X-381249Y-192581D01*
X-381227Y-192557D01*
X-381158Y-192497D01*
X-379249Y-190403D01*
X-379231Y-190376D01*
X-379173Y-190305D01*
X-377630Y-187929D01*
X-377617Y-187899D01*
X-377571Y-187820D01*
X-376435Y-185224D01*
X-376427Y-185192D01*
X-376395Y-185107D01*
X-375915Y-183221D01*
X-373256Y-183221D01*
X-373364Y-183902D01*
X-373818Y-185411D01*
X-374167Y-186569D01*
X-374902Y-188184D01*
X-375320Y-189103D01*
X-376336Y-190719D01*
X-376802Y-191460D01*
X-378588Y-193597D01*
X-379338Y-194282D01*
X-379348Y-194295D01*
X-379360Y-194304D01*
X-379406Y-194375D01*
X-379456Y-194443D01*
X-379459Y-194458D01*
X-379468Y-194471D01*
X-379482Y-194554D01*
X-379501Y-194636D01*
X-379498Y-194652D01*
X-379501Y-194667D01*
X-379481Y-194749D01*
X-379467Y-194832D01*
X-379458Y-194846D01*
X-379455Y-194861D01*
X-379405Y-194929D01*
X-379359Y-194999D01*
X-379346Y-195008D01*
X-379337Y-195021D01*
X-379264Y-195064D01*
X-379195Y-195111D01*
X-379179Y-195114D01*
X-379166Y-195122D01*
X-379002Y-195150D01*
X58608Y-195272D01*
X58611Y-195271D01*
X58615Y-195272D01*
X58708Y-195252D01*
X58802Y-195232D01*
X58806Y-195230D01*
X58810Y-195229D01*
X60046Y-195272D01*
X60054Y-195271D01*
X60063Y-195272D01*
X60194Y-195272D01*
X60201Y-195271D01*
X60209Y-195272D01*
X65820Y-195100D01*
X65858Y-195091D01*
X65917Y-195087D01*
X76965Y-192536D01*
X77006Y-192517D01*
X77087Y-192490D01*
X87099Y-187165D01*
X87133Y-187137D01*
X87205Y-187090D01*
X95497Y-179355D01*
X95523Y-179319D01*
X95580Y-179255D01*
X101588Y-169638D01*
X101603Y-169596D01*
X101642Y-169519D01*
X104956Y-158675D01*
X104960Y-158636D01*
X104975Y-158579D01*
X105542Y-152947D01*
X105540Y-152925D01*
X105544Y-152897D01*
X105544Y159047D01*
X105538Y159079D01*
X105539Y159122D01*
X104893Y163366D01*
X104879Y163403D01*
X104869Y163461D01*
X101895Y171677D01*
X101872Y171715D01*
X101835Y171792D01*
X96836Y178958D01*
X96803Y178990D01*
X96782Y179014D01*
X96766Y179036D01*
X96761Y179039D01*
X96748Y179055D01*
X90064Y184683D01*
X90025Y184704D01*
X89954Y184753D01*
X82042Y188460D01*
X81998Y188470D01*
X81918Y188499D01*
X73315Y190031D01*
X73276Y190030D01*
X73218Y190039D01*
X70041Y189975D01*
X70034Y189974D01*
X70026Y189975D01*
X69937Y189952D01*
X69875Y189938D01*
X68699Y189938D01*
X68681Y189934D01*
X68656Y189936D01*
X67542Y189841D01*
X67498Y189865D01*
X67420Y189911D01*
X67410Y189913D01*
X67403Y189916D01*
X67364Y189920D01*
X67256Y189939D01*
X-379094Y190061D01*
X-379114Y190056D01*
X-379134Y190059D01*
X-379211Y190037D01*
X-379289Y190021D01*
X-379306Y190009D01*
X-379325Y190004D01*
X-379387Y189954D01*
X-379453Y189908D01*
X-379464Y189891D01*
X-379480Y189878D01*
X-379517Y189808D01*
X-379560Y189741D01*
X-379563Y189721D01*
X-379573Y189703D01*
X-379580Y189623D01*
X-379593Y189545D01*
X-379589Y189525D01*
X-379590Y189505D01*
X-379566Y189429D01*
X-379547Y189351D01*
X-379535Y189335D01*
X-379529Y189316D01*
X-379444Y189211D01*
X-379429Y189191D01*
X-379427Y189190D01*
X-379424Y189186D01*
X-378904Y188729D01*
X-377092Y186640D01*
X-375577Y184327D01*
X-374386Y181831D01*
X-373976Y180554D01*
X-376679Y180554D01*
X-377804Y183002D01*
X-377822Y183029D01*
X-377865Y183110D01*
X-379438Y185438D01*
X-379461Y185462D01*
X-379516Y185535D01*
X-381447Y187576D01*
X-381473Y187596D01*
X-381539Y187659D01*
X-383777Y189358D01*
X-383806Y189374D01*
X-383882Y189425D01*
X-386366Y190738D01*
X-386397Y190748D01*
X-386480Y190787D01*
X-389145Y191678D01*
X-389177Y191683D01*
X-389266Y191707D01*
X-392040Y192153D01*
X-392072Y192153D01*
X-392164Y192162D01*
X-394973Y192150D01*
X-394991Y192147D01*
X-395009Y192149D01*
X-395112Y192127D01*
X-395216Y192109D01*
X-395232Y192101D01*
X-395250Y192097D01*
X-395340Y192043D01*
X-395433Y191993D01*
X-395445Y191980D01*
X-395461Y191971D01*
X-395529Y191891D01*
X-395601Y191814D01*
X-395609Y191798D01*
X-395621Y191784D01*
X-395660Y191686D01*
X-395704Y191591D01*
X-395706Y191573D01*
X-395713Y191556D01*
X-395731Y191389D01*
X-395731Y172974D01*
X-395720Y172908D01*
X-395719Y172840D01*
X-395701Y172787D01*
X-395692Y172731D01*
X-395660Y172672D01*
X-395638Y172608D01*
X-395603Y172564D01*
X-395576Y172514D01*
X-395528Y172468D01*
X-395486Y172415D01*
X-395422Y172367D01*
X-395398Y172345D01*
X-395379Y172336D01*
X-395351Y172315D01*
X-379984Y163425D01*
X-379975Y163421D01*
X-379967Y163415D01*
X-379860Y163378D01*
X-379754Y163338D01*
X-379744Y163338D01*
X-379734Y163334D01*
X-379621Y163333D01*
X-379508Y163329D01*
X-379499Y163332D01*
X-379488Y163331D01*
X-379381Y163366D01*
X-379272Y163398D01*
X-379264Y163404D01*
X-379254Y163407D01*
X-379163Y163475D01*
X-379071Y163539D01*
X-379065Y163548D01*
X-379057Y163554D01*
X-378954Y163686D01*
X-377486Y166082D01*
X-377473Y166112D01*
X-377430Y166193D01*
X-376371Y168795D01*
X-376364Y168827D01*
X-376334Y168914D01*
X-375712Y171654D01*
X-375711Y171687D01*
X-375695Y171777D01*
X-375528Y174582D01*
X-375531Y174614D01*
X-375531Y174706D01*
X-375822Y177500D01*
X-375831Y177532D01*
X-375845Y177623D01*
X-376101Y178556D01*
X-373426Y178556D01*
X-373056Y176476D01*
X-372941Y173713D01*
X-373198Y170960D01*
X-373823Y168266D01*
X-374803Y165681D01*
X-374836Y165619D01*
X-375658Y164104D01*
X-375659Y164101D01*
X-375660Y164099D01*
X-375688Y164005D01*
X-375716Y163914D01*
X-375716Y163911D01*
X-375716Y163909D01*
X-375705Y163812D01*
X-375695Y163716D01*
X-375694Y163714D01*
X-375694Y163711D01*
X-375646Y163628D01*
X-375599Y163542D01*
X-375597Y163540D01*
X-375595Y163538D01*
X-375467Y163433D01*
X-345116Y146084D01*
X-345032Y146056D01*
X-344950Y146025D01*
X-344938Y146025D01*
X-344927Y146022D01*
X-344839Y146029D01*
X-344751Y146032D01*
X-344741Y146037D01*
X-344729Y146038D01*
X-344651Y146079D01*
X-344571Y146116D01*
X-344562Y146126D01*
X-344553Y146130D01*
X-344526Y146163D01*
X-344456Y146236D01*
X-343848Y147126D01*
X-343819Y147195D01*
X-343783Y147261D01*
X-343780Y147289D01*
X-343771Y147309D01*
X-343771Y147353D01*
X-343762Y147426D01*
X-343762Y147434D01*
X-343320Y147910D01*
X-343303Y147937D01*
X-343273Y147968D01*
X-342907Y148505D01*
X-342899Y148506D01*
X-342830Y148534D01*
X-342758Y148556D01*
X-342735Y148573D01*
X-342715Y148581D01*
X-342684Y148612D01*
X-342626Y148657D01*
X-341013Y150393D01*
X-340974Y150457D01*
X-340928Y150517D01*
X-340920Y150544D01*
X-340909Y150563D01*
X-340903Y150607D01*
X-340882Y150677D01*
X-340881Y150685D01*
X-340373Y151090D01*
X-340353Y151114D01*
X-340319Y151140D01*
X-339877Y151616D01*
X-339868Y151617D01*
X-339795Y151634D01*
X-339721Y151644D01*
X-339697Y151658D01*
X-339675Y151663D01*
X-339640Y151690D01*
X-339576Y151725D01*
X-337722Y153202D01*
X-337674Y153259D01*
X-337620Y153311D01*
X-337608Y153337D01*
X-337594Y153354D01*
X-337581Y153396D01*
X-337551Y153463D01*
X-337549Y153470D01*
X-336986Y153795D01*
X-336962Y153816D01*
X-336924Y153837D01*
X-336416Y154242D01*
X-336408Y154241D01*
X-336333Y154247D01*
X-336258Y154246D01*
X-336232Y154256D01*
X-336210Y154258D01*
X-336171Y154279D01*
X-336102Y154304D01*
X-334049Y155488D01*
X-333993Y155538D01*
X-333932Y155581D01*
X-333917Y155605D01*
X-333900Y155620D01*
X-333881Y155659D01*
X-333841Y155721D01*
X-333838Y155728D01*
X-333233Y155965D01*
X-333206Y155982D01*
X-333166Y155997D01*
X-332603Y156322D01*
X-332595Y156320D01*
X-332520Y156315D01*
X-332446Y156303D01*
X-332419Y156309D01*
X-332397Y156307D01*
X-332355Y156322D01*
X-332284Y156337D01*
X-330077Y157201D01*
X-330014Y157242D01*
X-329947Y157276D01*
X-329928Y157297D01*
X-329910Y157309D01*
X-329885Y157346D01*
X-329882Y157349D01*
X-329880Y157350D01*
X-329879Y157353D01*
X-329836Y157400D01*
X-329832Y157407D01*
X-329199Y157551D01*
X-329170Y157565D01*
X-329127Y157573D01*
X-328523Y157810D01*
X-328515Y157807D01*
X-328442Y157791D01*
X-328371Y157768D01*
X-328342Y157770D01*
X-328321Y157765D01*
X-328278Y157774D01*
X-328204Y157778D01*
X-325893Y158304D01*
X-325825Y158335D01*
X-325754Y158359D01*
X-325732Y158377D01*
X-325712Y158386D01*
X-325682Y158418D01*
X-325626Y158465D01*
X-325621Y158471D01*
X-324973Y158519D01*
X-324942Y158528D01*
X-324899Y158530D01*
X-324266Y158674D01*
X-324259Y158670D01*
X-324189Y158643D01*
X-324122Y158610D01*
X-324094Y158607D01*
X-324073Y158600D01*
X-324029Y158601D01*
X-323956Y158595D01*
X-321592Y158770D01*
X-321520Y158791D01*
X-321446Y158804D01*
X-321422Y158818D01*
X-321401Y158824D01*
X-321367Y158852D01*
X-321304Y158890D01*
X-321298Y158895D01*
X-320650Y158846D01*
X-320619Y158850D01*
X-320576Y158846D01*
X-319928Y158894D01*
X-319922Y158889D01*
X-319856Y158852D01*
X-319795Y158809D01*
X-319768Y158802D01*
X-319748Y158792D01*
X-319705Y158787D01*
X-319633Y158769D01*
X-317270Y158591D01*
X-317196Y158600D01*
X-317121Y158602D01*
X-317095Y158613D01*
X-317073Y158615D01*
X-317035Y158637D01*
X-316967Y158665D01*
X-316960Y158670D01*
X-316327Y158525D01*
X-316295Y158524D01*
X-316253Y158514D01*
X-315606Y158465D01*
X-315600Y158459D01*
X-315541Y158413D01*
X-315487Y158361D01*
X-315461Y158350D01*
X-315443Y158337D01*
X-315401Y158325D01*
X-315333Y158297D01*
X-313023Y157769D01*
X-312948Y157767D01*
X-312873Y157757D01*
X-312846Y157764D01*
X-312824Y157764D01*
X-312783Y157780D01*
X-312712Y157798D01*
X-312704Y157801D01*
X-312100Y157563D01*
X-312069Y157558D01*
X-312029Y157541D01*
X-311396Y157396D01*
X-311391Y157389D01*
X-311340Y157335D01*
X-311294Y157276D01*
X-311269Y157261D01*
X-311254Y157245D01*
X-311214Y157228D01*
X-311151Y157190D01*
X-308945Y156323D01*
X-308872Y156310D01*
X-308799Y156289D01*
X-308771Y156292D01*
X-308749Y156288D01*
X-308707Y156298D01*
X-308634Y156305D01*
X-308626Y156307D01*
X-308063Y155982D01*
X-308033Y155972D01*
X-307996Y155950D01*
X-307392Y155712D01*
X-307389Y155705D01*
X-307346Y155643D01*
X-307309Y155578D01*
X-307287Y155560D01*
X-307274Y155542D01*
X-307237Y155518D01*
X-307181Y155472D01*
X-305129Y154285D01*
X-305058Y154262D01*
X-304989Y154231D01*
X-304961Y154229D01*
X-304940Y154222D01*
X-304896Y154226D01*
X-304823Y154221D01*
X-304815Y154222D01*
X-304308Y153817D01*
X-304280Y153803D01*
X-304246Y153775D01*
X-303684Y153450D01*
X-303682Y153442D01*
X-303648Y153375D01*
X-303622Y153305D01*
X-303603Y153284D01*
X-303593Y153264D01*
X-303560Y153235D01*
X-303511Y153181D01*
X-301659Y151702D01*
X-301592Y151668D01*
X-301529Y151627D01*
X-301501Y151621D01*
X-301482Y151611D01*
X-301438Y151608D01*
X-301366Y151593D01*
X-301358Y151593D01*
X-300917Y151117D01*
X-300891Y151098D01*
X-300862Y151066D01*
X-300354Y150660D01*
X-300354Y150652D01*
X-300330Y150581D01*
X-300315Y150508D01*
X-300311Y150503D01*
X-300310Y150498D01*
X-300299Y150482D01*
X-300292Y150463D01*
X-300264Y150430D01*
X-300224Y150369D01*
X-298612Y148630D01*
X-298551Y148586D01*
X-298495Y148537D01*
X-298469Y148527D01*
X-298451Y148514D01*
X-298408Y148505D01*
X-298339Y148479D01*
X-298331Y148478D01*
X-297966Y147941D01*
X-297943Y147918D01*
X-297919Y147882D01*
X-297478Y147406D01*
X-297478Y147398D01*
X-297466Y147324D01*
X-297461Y147249D01*
X-297450Y147223D01*
X-297446Y147202D01*
X-297422Y147164D01*
X-297392Y147098D01*
X-296058Y145139D01*
X-296004Y145086D01*
X-295956Y145029D01*
X-295931Y145015D01*
X-295916Y145000D01*
X-295874Y144984D01*
X-295810Y144949D01*
X-295803Y144946D01*
X-295521Y144361D01*
X-295502Y144335D01*
X-295484Y144296D01*
X-295119Y143759D01*
X-295120Y143751D01*
X-295119Y143676D01*
X-295126Y143601D01*
X-295118Y143574D01*
X-295118Y143552D01*
X-295100Y143512D01*
X-295080Y143442D01*
X-294052Y141306D01*
X-294007Y141246D01*
X-293968Y141182D01*
X-293946Y141165D01*
X-293932Y141147D01*
X-293894Y141125D01*
X-293836Y141081D01*
X-293829Y141077D01*
X-293638Y140456D01*
X-293623Y140428D01*
X-293611Y140387D01*
X-293329Y139801D01*
X-293332Y139794D01*
X-293342Y139719D01*
X-293360Y139646D01*
X-293356Y139618D01*
X-293359Y139597D01*
X-293347Y139554D01*
X-293338Y139482D01*
X-292641Y137216D01*
X-292605Y137150D01*
X-292576Y137081D01*
X-292556Y137061D01*
X-292545Y137042D01*
X-292511Y137014D01*
X-292460Y136962D01*
X-292454Y136957D01*
X-292357Y136315D01*
X-292346Y136285D01*
X-292341Y136242D01*
X-292150Y135621D01*
X-292153Y135614D01*
X-292175Y135542D01*
X-292203Y135472D01*
X-292203Y135444D01*
X-292210Y135423D01*
X-292204Y135379D01*
X-292206Y135306D01*
X-291854Y132962D01*
X-291828Y132892D01*
X-291810Y132819D01*
X-291793Y132796D01*
X-291786Y132775D01*
X-291756Y132743D01*
X-291714Y132684D01*
X-291708Y132678D01*
X-291708Y132028D01*
X-291702Y131997D01*
X-291703Y131954D01*
X-291606Y131311D01*
X-291611Y131305D01*
X-291643Y131237D01*
X-291681Y131173D01*
X-291686Y131145D01*
X-291695Y131125D01*
X-291697Y131081D01*
X-291709Y131009D01*
X-291710Y128638D01*
X-291695Y128565D01*
X-291688Y128490D01*
X-291675Y128465D01*
X-291671Y128444D01*
X-291646Y128407D01*
X-291613Y128342D01*
X-291608Y128335D01*
X-291705Y127693D01*
X-291704Y127661D01*
X-291711Y127619D01*
X-291711Y126969D01*
X-291717Y126963D01*
X-291758Y126901D01*
X-291806Y126843D01*
X-291815Y126816D01*
X-291827Y126798D01*
X-291835Y126754D01*
X-291858Y126685D01*
X-292212Y124342D01*
X-292209Y124267D01*
X-292212Y124192D01*
X-292204Y124165D01*
X-292202Y124143D01*
X-292183Y124103D01*
X-292160Y124034D01*
X-292157Y124027D01*
X-292348Y123406D01*
X-292352Y123374D01*
X-292365Y123333D01*
X-292462Y122691D01*
X-292469Y122686D01*
X-292519Y122631D01*
X-292575Y122580D01*
X-292587Y122555D01*
X-292602Y122539D01*
X-292617Y122497D01*
X-292650Y122432D01*
X-293350Y120167D01*
X-293357Y120093D01*
X-293372Y120019D01*
X-293367Y119991D01*
X-293369Y119970D01*
X-293356Y119928D01*
X-293344Y119855D01*
X-293341Y119848D01*
X-293623Y119263D01*
X-293631Y119232D01*
X-293651Y119193D01*
X-293842Y118573D01*
X-293850Y118569D01*
X-293908Y118521D01*
X-293970Y118480D01*
X-293986Y118457D01*
X-294004Y118443D01*
X-294024Y118404D01*
X-294066Y118344D01*
X-294408Y117635D01*
X-294431Y117547D01*
X-294456Y117461D01*
X-294455Y117451D01*
X-294457Y117442D01*
X-294444Y117353D01*
X-294433Y117263D01*
X-294429Y117255D01*
X-294427Y117246D01*
X-294380Y117169D01*
X-294335Y117090D01*
X-294327Y117084D01*
X-294323Y117076D01*
X-294291Y117054D01*
X-294207Y116985D01*
X-262507Y98866D01*
X-262437Y98842D01*
X-262368Y98812D01*
X-262343Y98811D01*
X-262319Y98803D01*
X-262244Y98809D01*
X-262169Y98808D01*
X-262146Y98817D01*
X-262120Y98820D01*
X-262054Y98854D01*
X-261985Y98882D01*
X-261964Y98902D01*
X-261944Y98912D01*
X-261916Y98946D01*
X-261863Y98996D01*
X-261173Y99898D01*
X-260589Y100661D01*
X-258547Y102707D01*
X-256256Y104470D01*
X-253754Y105918D01*
X-251084Y107028D01*
X-248292Y107779D01*
X-245427Y108160D01*
X-242536Y108164D01*
X-239669Y107790D01*
X-238031Y107353D01*
X-238031Y104676D01*
X-238298Y104781D01*
X-238332Y104787D01*
X-238378Y104805D01*
X-241491Y105463D01*
X-241526Y105463D01*
X-241574Y105473D01*
X-244753Y105603D01*
X-244788Y105597D01*
X-244837Y105599D01*
X-247993Y105196D01*
X-248026Y105185D01*
X-248075Y105179D01*
X-251120Y104256D01*
X-251151Y104239D01*
X-251198Y104225D01*
X-254046Y102806D01*
X-254074Y102785D01*
X-254117Y102763D01*
X-256690Y100890D01*
X-256713Y100864D01*
X-256753Y100835D01*
X-258976Y98559D01*
X-258995Y98529D01*
X-259029Y98494D01*
X-260842Y95879D01*
X-260854Y95852D01*
X-260873Y95830D01*
X-260893Y95762D01*
X-260921Y95697D01*
X-260921Y95667D01*
X-260929Y95639D01*
X-260921Y95569D01*
X-260922Y95498D01*
X-260910Y95471D01*
X-260907Y95441D01*
X-260872Y95380D01*
X-260845Y95314D01*
X-260824Y95294D01*
X-260809Y95268D01*
X-260734Y95206D01*
X-260703Y95176D01*
X-260692Y95171D01*
X-260681Y95162D01*
X-244431Y85806D01*
X-244431Y67095D01*
X-244425Y67066D01*
X-244428Y67036D01*
X-244406Y66969D01*
X-244392Y66900D01*
X-244375Y66876D01*
X-244366Y66847D01*
X-244319Y66794D01*
X-244279Y66736D01*
X-244254Y66720D01*
X-244234Y66698D01*
X-244171Y66667D01*
X-244112Y66629D01*
X-244082Y66624D01*
X-244055Y66611D01*
X-243958Y66603D01*
X-243915Y66596D01*
X-243904Y66599D01*
X-243890Y66598D01*
X-240719Y66868D01*
X-240686Y66878D01*
X-240637Y66882D01*
X-238031Y67554D01*
X-238031Y64864D01*
X-239617Y64437D01*
X-241565Y64178D01*
X-241636Y64153D01*
X-241709Y64136D01*
X-241729Y64121D01*
X-241753Y64113D01*
X-241809Y64063D01*
X-241869Y64018D01*
X-241882Y63997D01*
X-241900Y63980D01*
X-241932Y63912D01*
X-241971Y63847D01*
X-241975Y63820D01*
X-241984Y63800D01*
X-241986Y63756D01*
X-241998Y63683D01*
X-241998Y27444D01*
X-241980Y27356D01*
X-241966Y27268D01*
X-241961Y27259D01*
X-241959Y27249D01*
X-241908Y27175D01*
X-241861Y27100D01*
X-241852Y27094D01*
X-241846Y27085D01*
X-241771Y27037D01*
X-241698Y26986D01*
X-241687Y26983D01*
X-241679Y26978D01*
X-241638Y26971D01*
X-241536Y26946D01*
X-241301Y26928D01*
X-241274Y26932D01*
X-241247Y26927D01*
X-241177Y26944D01*
X-241104Y26953D01*
X-241080Y26967D01*
X-241054Y26973D01*
X-240995Y27016D01*
X-240932Y27053D01*
X-240916Y27075D01*
X-240894Y27091D01*
X-240857Y27154D01*
X-240813Y27212D01*
X-240806Y27239D01*
X-240792Y27262D01*
X-240775Y27365D01*
X-240765Y27405D01*
X-240767Y27415D01*
X-240765Y27426D01*
X-240765Y39434D01*
X-205014Y75185D01*
X-130952Y75185D01*
X-118617Y62850D01*
X-118617Y36059D01*
X-118616Y36055D01*
X-118617Y36051D01*
X-118597Y35958D01*
X-118578Y35865D01*
X-118575Y35861D01*
X-118574Y35857D01*
X-118519Y35779D01*
X-118465Y35701D01*
X-118462Y35698D01*
X-118459Y35695D01*
X-118378Y35645D01*
X-118298Y35594D01*
X-118293Y35593D01*
X-118290Y35591D01*
X-118196Y35576D01*
X-118101Y35560D01*
X-118097Y35561D01*
X-118093Y35561D01*
X-118001Y35584D01*
X-117908Y35607D01*
X-117905Y35609D01*
X-117901Y35610D01*
X-117765Y35706D01*
X-116923Y36549D01*
X-112947Y36549D01*
X-111316Y34917D01*
X-111308Y34912D01*
X-111304Y34905D01*
X-111226Y34858D01*
X-111150Y34807D01*
X-111141Y34806D01*
X-111134Y34801D01*
X-111044Y34788D01*
X-110954Y34771D01*
X-110946Y34773D01*
X-110938Y34771D01*
X-110850Y34794D01*
X-110760Y34814D01*
X-110753Y34819D01*
X-110745Y34821D01*
X-110609Y34917D01*
X-108851Y36676D01*
X-104875Y36676D01*
X-102064Y33865D01*
X-102064Y32274D01*
X-102063Y32270D01*
X-102064Y32266D01*
X-102044Y32173D01*
X-102025Y32079D01*
X-102022Y32076D01*
X-102021Y32072D01*
X-101966Y31994D01*
X-101912Y31915D01*
X-101909Y31913D01*
X-101906Y31910D01*
X-101825Y31860D01*
X-101745Y31808D01*
X-101740Y31808D01*
X-101737Y31805D01*
X-101643Y31791D01*
X-101548Y31775D01*
X-101544Y31776D01*
X-101540Y31776D01*
X-101448Y31799D01*
X-101355Y31821D01*
X-101352Y31824D01*
X-101348Y31825D01*
X-101212Y31921D01*
X-91371Y41762D01*
X-91364Y41773D01*
X-91354Y41780D01*
X-91310Y41855D01*
X-91261Y41928D01*
X-91259Y41940D01*
X-91252Y41951D01*
X-91225Y42115D01*
X-91225Y53630D01*
X-90332Y54523D01*
X-89683Y54523D01*
X-89679Y54524D01*
X-89675Y54523D01*
X-89582Y54543D01*
X-89489Y54562D01*
X-89485Y54565D01*
X-89481Y54566D01*
X-89404Y54621D01*
X-89325Y54675D01*
X-89322Y54678D01*
X-89319Y54681D01*
X-89269Y54762D01*
X-89218Y54842D01*
X-89217Y54847D01*
X-89215Y54850D01*
X-89200Y54944D01*
X-89184Y55039D01*
X-89185Y55043D01*
X-89185Y55047D01*
X-89208Y55139D01*
X-89231Y55232D01*
X-89233Y55235D01*
X-89234Y55239D01*
X-89330Y55375D01*
X-89499Y55543D01*
X-89499Y59519D01*
X-87387Y61630D01*
X-87380Y61641D01*
X-87370Y61648D01*
X-87325Y61723D01*
X-87277Y61796D01*
X-87275Y61809D01*
X-87268Y61819D01*
X-87241Y61984D01*
X-87241Y63375D01*
X-87243Y63387D01*
X-87241Y63400D01*
X-87263Y63484D01*
X-87280Y63570D01*
X-87287Y63580D01*
X-87291Y63592D01*
X-87387Y63728D01*
X-88235Y64576D01*
X-88246Y64583D01*
X-88253Y64593D01*
X-88328Y64638D01*
X-88401Y64686D01*
X-88413Y64688D01*
X-88424Y64695D01*
X-88588Y64722D01*
X-98480Y64722D01*
X-100838Y67080D01*
X-100838Y75414D01*
X-98480Y77772D01*
X-84146Y77772D01*
X-81788Y75414D01*
X-81788Y67080D01*
X-82318Y66551D01*
X-82322Y66544D01*
X-82329Y66539D01*
X-82377Y66461D01*
X-82427Y66385D01*
X-82429Y66377D01*
X-82433Y66369D01*
X-82447Y66280D01*
X-82464Y66189D01*
X-82462Y66181D01*
X-82463Y66173D01*
X-82441Y66085D01*
X-82421Y65995D01*
X-82416Y65988D01*
X-82414Y65980D01*
X-82318Y65845D01*
X-82159Y65686D01*
X-82159Y61984D01*
X-82157Y61971D01*
X-82159Y61959D01*
X-82137Y61874D01*
X-82120Y61789D01*
X-82113Y61778D01*
X-82109Y61766D01*
X-82013Y61630D01*
X-79901Y59519D01*
X-79901Y55543D01*
X-80070Y55375D01*
X-80072Y55372D01*
X-80075Y55369D01*
X-80127Y55288D01*
X-80179Y55209D01*
X-80180Y55205D01*
X-80182Y55202D01*
X-80198Y55108D01*
X-80216Y55014D01*
X-80215Y55010D01*
X-80216Y55005D01*
X-80194Y54913D01*
X-80173Y54820D01*
X-80170Y54816D01*
X-80169Y54812D01*
X-80113Y54735D01*
X-80058Y54657D01*
X-80054Y54655D01*
X-80052Y54652D01*
X-79970Y54604D01*
X-79888Y54553D01*
X-79884Y54553D01*
X-79881Y54550D01*
X-79717Y54523D01*
X-79068Y54523D01*
X-78175Y53630D01*
X-78175Y41366D01*
X-79068Y40473D01*
X-85267Y40473D01*
X-85279Y40471D01*
X-85292Y40473D01*
X-85376Y40451D01*
X-85462Y40434D01*
X-85472Y40427D01*
X-85484Y40423D01*
X-85620Y40327D01*
X-98143Y27804D01*
X-98145Y27801D01*
X-98149Y27798D01*
X-98200Y27718D01*
X-98253Y27638D01*
X-98253Y27634D01*
X-98256Y27631D01*
X-98271Y27537D01*
X-98289Y27443D01*
X-98288Y27439D01*
X-98289Y27435D01*
X-98267Y27342D01*
X-98246Y27249D01*
X-98244Y27245D01*
X-98243Y27241D01*
X-98187Y27165D01*
X-98131Y27087D01*
X-98127Y27084D01*
X-98125Y27081D01*
X-98043Y27032D01*
X-97962Y26982D01*
X-97957Y26982D01*
X-97954Y26980D01*
X-97790Y26952D01*
X-96856Y26952D01*
X-96224Y26320D01*
X-96217Y26316D01*
X-96212Y26309D01*
X-96135Y26261D01*
X-96058Y26210D01*
X-96050Y26209D01*
X-96043Y26204D01*
X-95953Y26191D01*
X-95863Y26174D01*
X-95855Y26176D01*
X-95846Y26175D01*
X-95758Y26197D01*
X-95669Y26217D01*
X-95662Y26222D01*
X-95654Y26224D01*
X-95518Y26320D01*
X-94886Y26952D01*
X-91811Y26952D01*
X-91777Y26929D01*
X-91768Y26927D01*
X-91761Y26923D01*
X-91756Y26922D01*
X-91755Y26922D01*
X-91591Y26894D01*
X-91589Y26894D01*
X-91581Y26892D01*
X-91573Y26894D01*
X-91565Y26893D01*
X-91476Y26916D01*
X-91416Y26929D01*
X-91393Y26934D01*
X-91392Y26934D01*
X-91387Y26935D01*
X-91380Y26940D01*
X-91372Y26942D01*
X-91236Y27039D01*
X-90940Y27335D01*
X-90218Y27752D01*
X-89413Y27968D01*
X-88995Y27968D01*
X-88995Y22052D01*
X-88994Y22044D01*
X-88995Y22036D01*
X-88974Y21947D01*
X-88956Y21857D01*
X-88951Y21850D01*
X-88949Y21842D01*
X-88895Y21769D01*
X-88843Y21693D01*
X-88836Y21689D01*
X-88831Y21682D01*
X-88753Y21636D01*
X-88676Y21586D01*
X-88667Y21585D01*
X-88660Y21581D01*
X-88496Y21553D01*
X-88246Y21553D01*
X-88238Y21555D01*
X-88229Y21553D01*
X-88141Y21574D01*
X-88051Y21593D01*
X-88044Y21597D01*
X-88036Y21599D01*
X-87963Y21653D01*
X-87887Y21705D01*
X-87883Y21712D01*
X-87876Y21717D01*
X-87829Y21795D01*
X-87780Y21873D01*
X-87779Y21881D01*
X-87774Y21888D01*
X-87747Y22052D01*
X-87747Y27968D01*
X-87329Y27968D01*
X-86524Y27752D01*
X-85802Y27335D01*
X-85506Y27039D01*
X-85499Y27034D01*
X-85494Y27027D01*
X-85491Y27025D01*
X-85489Y27023D01*
X-85436Y26991D01*
X-85416Y26979D01*
X-85340Y26929D01*
X-85331Y26927D01*
X-85324Y26923D01*
X-85319Y26922D01*
X-85318Y26922D01*
X-85154Y26894D01*
X-85152Y26894D01*
X-85144Y26892D01*
X-85136Y26894D01*
X-85128Y26893D01*
X-85040Y26916D01*
X-84979Y26929D01*
X-84956Y26934D01*
X-84955Y26934D01*
X-84950Y26935D01*
X-84943Y26940D01*
X-84935Y26942D01*
X-84922Y26952D01*
X-81856Y26952D01*
X-80596Y25693D01*
X-80596Y25566D01*
X-80595Y25562D01*
X-80596Y25558D01*
X-80576Y25465D01*
X-80557Y25372D01*
X-80554Y25368D01*
X-80553Y25364D01*
X-80498Y25286D01*
X-80444Y25208D01*
X-80441Y25205D01*
X-80438Y25202D01*
X-80357Y25152D01*
X-80277Y25101D01*
X-80272Y25100D01*
X-80269Y25098D01*
X-80175Y25083D01*
X-80081Y25067D01*
X-80076Y25068D01*
X-80072Y25068D01*
X-79980Y25091D01*
X-79887Y25113D01*
X-79884Y25116D01*
X-79880Y25117D01*
X-79744Y25213D01*
X-78315Y26643D01*
X-75328Y26643D01*
X-75316Y26645D01*
X-75303Y26643D01*
X-75219Y26665D01*
X-75133Y26682D01*
X-75123Y26689D01*
X-75111Y26693D01*
X-74975Y26789D01*
X-72934Y28830D01*
X-66951Y28830D01*
X-66943Y28831D01*
X-66934Y28830D01*
X-66846Y28851D01*
X-66756Y28869D01*
X-66749Y28874D01*
X-66741Y28876D01*
X-66668Y28930D01*
X-66592Y28982D01*
X-66588Y28989D01*
X-66581Y28994D01*
X-66534Y29072D01*
X-66485Y29149D01*
X-66484Y29158D01*
X-66479Y29165D01*
X-66452Y29329D01*
X-66452Y31921D01*
X-65559Y32814D01*
X-62467Y32814D01*
X-62459Y32815D01*
X-62450Y32814D01*
X-62362Y32835D01*
X-62272Y32853D01*
X-62265Y32858D01*
X-62257Y32860D01*
X-62184Y32914D01*
X-62108Y32966D01*
X-62104Y32973D01*
X-62097Y32978D01*
X-62050Y33056D01*
X-62001Y33133D01*
X-62000Y33142D01*
X-61995Y33149D01*
X-61992Y33168D01*
X-53376Y41784D01*
X9561Y41784D01*
X23623Y27722D01*
X23623Y-17317D01*
X7783Y-33157D01*
X-96Y-33157D01*
X-104Y-33158D01*
X-113Y-33157D01*
X-201Y-33178D01*
X-291Y-33196D01*
X-298Y-33201D01*
X-306Y-33203D01*
X-379Y-33257D01*
X-455Y-33309D01*
X-459Y-33316D01*
X-466Y-33321D01*
X-513Y-33399D01*
X-562Y-33476D01*
X-563Y-33485D01*
X-568Y-33492D01*
X-595Y-33656D01*
X-595Y-36248D01*
X-1488Y-37141D01*
X-13752Y-37141D01*
X-14645Y-36248D01*
X-14645Y-24984D01*
X-13752Y-24091D01*
X-1488Y-24091D01*
X-595Y-24984D01*
X-595Y-27576D01*
X-594Y-27584D01*
X-595Y-27593D01*
X-574Y-27681D01*
X-556Y-27771D01*
X-551Y-27778D01*
X-549Y-27786D01*
X-495Y-27859D01*
X-443Y-27935D01*
X-436Y-27939D01*
X-431Y-27946D01*
X-353Y-27993D01*
X-276Y-28042D01*
X-267Y-28043D01*
X-260Y-28048D01*
X-96Y-28075D01*
X5472Y-28075D01*
X5484Y-28073D01*
X5497Y-28075D01*
X5581Y-28053D01*
X5667Y-28036D01*
X5677Y-28029D01*
X5689Y-28025D01*
X5825Y-27929D01*
X18395Y-15359D01*
X18402Y-15348D01*
X18412Y-15341D01*
X18457Y-15266D01*
X18505Y-15193D01*
X18507Y-15181D01*
X18514Y-15170D01*
X18541Y-15006D01*
X18541Y25411D01*
X18541Y25412D01*
X18541Y25413D01*
X18540Y25416D01*
X18539Y25423D01*
X18541Y25436D01*
X18519Y25520D01*
X18502Y25606D01*
X18495Y25616D01*
X18491Y25628D01*
X18395Y25764D01*
X7603Y36556D01*
X7592Y36563D01*
X7585Y36573D01*
X7510Y36618D01*
X7437Y36666D01*
X7425Y36668D01*
X7414Y36675D01*
X7250Y36702D01*
X-51065Y36702D01*
X-51077Y36700D01*
X-51090Y36702D01*
X-51174Y36680D01*
X-51260Y36663D01*
X-51270Y36656D01*
X-51282Y36652D01*
X-51418Y36556D01*
X-54308Y33666D01*
X-54310Y33662D01*
X-54314Y33660D01*
X-54365Y33580D01*
X-54418Y33500D01*
X-54418Y33496D01*
X-54421Y33493D01*
X-54436Y33399D01*
X-54454Y33305D01*
X-54453Y33301D01*
X-54454Y33296D01*
X-54432Y33205D01*
X-54411Y33111D01*
X-54409Y33107D01*
X-54408Y33103D01*
X-54352Y33027D01*
X-54296Y32948D01*
X-54292Y32946D01*
X-54290Y32943D01*
X-54208Y32894D01*
X-54127Y32844D01*
X-54123Y32844D01*
X-54119Y32841D01*
X-53955Y32814D01*
X-53295Y32814D01*
X-52402Y31921D01*
X-52402Y20657D01*
X-53295Y19764D01*
X-65559Y19764D01*
X-66452Y20657D01*
X-66452Y23249D01*
X-66453Y23257D01*
X-66452Y23266D01*
X-66473Y23354D01*
X-66491Y23444D01*
X-66496Y23451D01*
X-66498Y23459D01*
X-66552Y23532D01*
X-66604Y23608D01*
X-66611Y23612D01*
X-66616Y23619D01*
X-66694Y23666D01*
X-66771Y23715D01*
X-66780Y23716D01*
X-66787Y23721D01*
X-66951Y23748D01*
X-70623Y23748D01*
X-70635Y23746D01*
X-70648Y23748D01*
X-70732Y23726D01*
X-70818Y23709D01*
X-70828Y23702D01*
X-70840Y23698D01*
X-70976Y23602D01*
X-71382Y23196D01*
X-71389Y23185D01*
X-71399Y23178D01*
X-71444Y23103D01*
X-71492Y23030D01*
X-71494Y23018D01*
X-71501Y23007D01*
X-71528Y22843D01*
X-71528Y19856D01*
X-72831Y18554D01*
X-72833Y18550D01*
X-72836Y18548D01*
X-72887Y18468D01*
X-72940Y18388D01*
X-72941Y18384D01*
X-72943Y18380D01*
X-72959Y18287D01*
X-72977Y18193D01*
X-72976Y18189D01*
X-72977Y18184D01*
X-72955Y18093D01*
X-72934Y17998D01*
X-72932Y17995D01*
X-72931Y17991D01*
X-72875Y17915D01*
X-72819Y17836D01*
X-72815Y17834D01*
X-72813Y17831D01*
X-72731Y17782D01*
X-72649Y17732D01*
X-72645Y17732D01*
X-72642Y17729D01*
X-72631Y17728D01*
X-71346Y16442D01*
X-71346Y13412D01*
X-71978Y12780D01*
X-71982Y12773D01*
X-71989Y12768D01*
X-72037Y12691D01*
X-72088Y12614D01*
X-72089Y12606D01*
X-72094Y12599D01*
X-72107Y12509D01*
X-72124Y12419D01*
X-72122Y12411D01*
X-72123Y12402D01*
X-72101Y12314D01*
X-72081Y12225D01*
X-72076Y12218D01*
X-72074Y12210D01*
X-71978Y12074D01*
X-71346Y11442D01*
X-71346Y8412D01*
X-71978Y7780D01*
X-71982Y7773D01*
X-71989Y7768D01*
X-72037Y7691D01*
X-72088Y7614D01*
X-72089Y7606D01*
X-72094Y7599D01*
X-72107Y7509D01*
X-72124Y7419D01*
X-72122Y7411D01*
X-72123Y7402D01*
X-72101Y7314D01*
X-72081Y7225D01*
X-72076Y7218D01*
X-72074Y7210D01*
X-71978Y7074D01*
X-71346Y6442D01*
X-71346Y3412D01*
X-71978Y2780D01*
X-71979Y2779D01*
X-71980Y2778D01*
X-71983Y2772D01*
X-71989Y2768D01*
X-72037Y2691D01*
X-72088Y2614D01*
X-72089Y2606D01*
X-72094Y2599D01*
X-72107Y2509D01*
X-72124Y2419D01*
X-72122Y2411D01*
X-72123Y2402D01*
X-72101Y2314D01*
X-72081Y2225D01*
X-72076Y2218D01*
X-72074Y2210D01*
X-71978Y2074D01*
X-71346Y1442D01*
X-71346Y-1651D01*
X-71345Y-1655D01*
X-71346Y-1659D01*
X-71326Y-1752D01*
X-71307Y-1846D01*
X-71304Y-1849D01*
X-71303Y-1853D01*
X-71248Y-1931D01*
X-71194Y-2010D01*
X-71191Y-2012D01*
X-71188Y-2015D01*
X-71107Y-2065D01*
X-71027Y-2117D01*
X-71022Y-2117D01*
X-71019Y-2120D01*
X-70925Y-2134D01*
X-70830Y-2150D01*
X-70826Y-2149D01*
X-70822Y-2149D01*
X-70730Y-2126D01*
X-70637Y-2104D01*
X-70634Y-2101D01*
X-70630Y-2100D01*
X-70494Y-2004D01*
X-60868Y7622D01*
X-60861Y7633D01*
X-60851Y7640D01*
X-60806Y7715D01*
X-60758Y7788D01*
X-60756Y7800D01*
X-60749Y7811D01*
X-60722Y7975D01*
X-60722Y10568D01*
X-59829Y11461D01*
X-44565Y11461D01*
X-43672Y10568D01*
X-43672Y5304D01*
X-44565Y4411D01*
X-56686Y4411D01*
X-56698Y4409D01*
X-56711Y4411D01*
X-56795Y4389D01*
X-56881Y4372D01*
X-56891Y4364D01*
X-56903Y4361D01*
X-57039Y4265D01*
X-59984Y1320D01*
X-60022Y1262D01*
X-60067Y1209D01*
X-60077Y1180D01*
X-60094Y1154D01*
X-60106Y1086D01*
X-60127Y1020D01*
X-60124Y989D01*
X-60130Y959D01*
X-60115Y891D01*
X-60109Y822D01*
X-60094Y795D01*
X-60087Y765D01*
X-60047Y708D01*
X-60014Y647D01*
X-59990Y628D01*
X-59972Y602D01*
X-59913Y566D01*
X-59859Y523D01*
X-59829Y514D01*
X-59803Y498D01*
X-59734Y488D01*
X-59667Y469D01*
X-59632Y472D01*
X-59606Y468D01*
X-59573Y477D01*
X-53196Y477D01*
X-53196Y-3065D01*
X-61738Y-3065D01*
X-61738Y-1670D01*
X-61729Y-1622D01*
X-61735Y-1592D01*
X-61733Y-1561D01*
X-61757Y-1495D01*
X-61772Y-1428D01*
X-61789Y-1402D01*
X-61800Y-1373D01*
X-61847Y-1322D01*
X-61887Y-1266D01*
X-61913Y-1249D01*
X-61934Y-1227D01*
X-61997Y-1198D01*
X-62056Y-1161D01*
X-62087Y-1157D01*
X-62115Y-1144D01*
X-62184Y-1142D01*
X-62253Y-1131D01*
X-62283Y-1139D01*
X-62313Y-1138D01*
X-62378Y-1163D01*
X-62445Y-1181D01*
X-62474Y-1201D01*
X-62499Y-1211D01*
X-62528Y-1240D01*
X-62581Y-1277D01*
X-67984Y-6680D01*
X-67986Y-6684D01*
X-67990Y-6686D01*
X-68041Y-6766D01*
X-68094Y-6846D01*
X-68094Y-6850D01*
X-68097Y-6853D01*
X-68113Y-6947D01*
X-68130Y-7041D01*
X-68129Y-7045D01*
X-68130Y-7050D01*
X-68108Y-7141D01*
X-68087Y-7235D01*
X-68085Y-7239D01*
X-68084Y-7243D01*
X-68028Y-7319D01*
X-67972Y-7398D01*
X-67968Y-7400D01*
X-67966Y-7403D01*
X-67884Y-7452D01*
X-67803Y-7502D01*
X-67799Y-7502D01*
X-67795Y-7505D01*
X-67631Y-7532D01*
X-67488Y-7532D01*
X-61643Y-13377D01*
X-61632Y-13384D01*
X-61625Y-13394D01*
X-61550Y-13438D01*
X-61477Y-13487D01*
X-61465Y-13489D01*
X-61454Y-13496D01*
X-61290Y-13523D01*
X-61019Y-13523D01*
X-61007Y-13521D01*
X-60995Y-13523D01*
X-60910Y-13501D01*
X-60824Y-13484D01*
X-60814Y-13476D01*
X-60802Y-13473D01*
X-60666Y-13377D01*
X-59829Y-12539D01*
X-44565Y-12539D01*
X-43672Y-13432D01*
X-43672Y-16476D01*
X-43671Y-16480D01*
X-43672Y-16484D01*
X-43652Y-16578D01*
X-43633Y-16671D01*
X-43630Y-16674D01*
X-43629Y-16678D01*
X-43574Y-16756D01*
X-43520Y-16835D01*
X-43517Y-16837D01*
X-43514Y-16840D01*
X-43433Y-16890D01*
X-43353Y-16942D01*
X-43348Y-16943D01*
X-43345Y-16945D01*
X-43251Y-16959D01*
X-43157Y-16975D01*
X-43152Y-16974D01*
X-43148Y-16975D01*
X-43056Y-16951D01*
X-42963Y-16929D01*
X-42960Y-16926D01*
X-42956Y-16925D01*
X-42820Y-16829D01*
X-39883Y-13892D01*
X-39876Y-13881D01*
X-39866Y-13874D01*
X-39821Y-13799D01*
X-39773Y-13726D01*
X-39771Y-13714D01*
X-39764Y-13703D01*
X-39737Y-13539D01*
X-39737Y5648D01*
X-33691Y11694D01*
X-32170Y11694D01*
X-32162Y11695D01*
X-32153Y11694D01*
X-32065Y11715D01*
X-31975Y11733D01*
X-31968Y11738D01*
X-31960Y11740D01*
X-31887Y11794D01*
X-31811Y11846D01*
X-31807Y11853D01*
X-31800Y11858D01*
X-31753Y11936D01*
X-31704Y12013D01*
X-31703Y12022D01*
X-31698Y12029D01*
X-31671Y12193D01*
X-31671Y15285D01*
X-30778Y16178D01*
X-19514Y16178D01*
X-18740Y15404D01*
X-18733Y15399D01*
X-18729Y15392D01*
X-18651Y15345D01*
X-18575Y15294D01*
X-18566Y15292D01*
X-18559Y15288D01*
X-18469Y15274D01*
X-18379Y15258D01*
X-18371Y15259D01*
X-18363Y15258D01*
X-18275Y15281D01*
X-18185Y15300D01*
X-18178Y15305D01*
X-18170Y15307D01*
X-18034Y15404D01*
X-17673Y15765D01*
X-17666Y15776D01*
X-17656Y15783D01*
X-17611Y15858D01*
X-17563Y15931D01*
X-17561Y15943D01*
X-17554Y15954D01*
X-17527Y16118D01*
X-17527Y16629D01*
X-17529Y16642D01*
X-17527Y16654D01*
X-17549Y16739D01*
X-17566Y16824D01*
X-17573Y16835D01*
X-17577Y16847D01*
X-17673Y16983D01*
X-18812Y18122D01*
X-18877Y18164D01*
X-18937Y18213D01*
X-18959Y18219D01*
X-18978Y18231D01*
X-19054Y18246D01*
X-19129Y18267D01*
X-19154Y18264D01*
X-19173Y18268D01*
X-19217Y18258D01*
X-19294Y18251D01*
X-19812Y18112D01*
X-24147Y18112D01*
X-24147Y25154D01*
X-17907Y25154D01*
X-17895Y25156D01*
X-17883Y25154D01*
X-17798Y25176D01*
X-17713Y25193D01*
X-17702Y25201D01*
X-17690Y25204D01*
X-17554Y25300D01*
X-16974Y25881D01*
X-12998Y25881D01*
X-12696Y25578D01*
X-12689Y25574D01*
X-12684Y25567D01*
X-12606Y25519D01*
X-12530Y25468D01*
X-12522Y25467D01*
X-12514Y25462D01*
X-12425Y25449D01*
X-12334Y25432D01*
X-12326Y25434D01*
X-12318Y25433D01*
X-12230Y25455D01*
X-12140Y25475D01*
X-12133Y25480D01*
X-12125Y25482D01*
X-11990Y25578D01*
X-9961Y27607D01*
X4373Y27607D01*
X6731Y25249D01*
X6731Y16915D01*
X4373Y14557D01*
X-9961Y14557D01*
X-11593Y16189D01*
X-11597Y16192D01*
X-11599Y16195D01*
X-11679Y16246D01*
X-11759Y16299D01*
X-11763Y16300D01*
X-11766Y16302D01*
X-11860Y16318D01*
X-11954Y16335D01*
X-11958Y16334D01*
X-11963Y16335D01*
X-12054Y16313D01*
X-12148Y16293D01*
X-12152Y16290D01*
X-12156Y16289D01*
X-12232Y16233D01*
X-12311Y16177D01*
X-12313Y16174D01*
X-12316Y16171D01*
X-12365Y16089D01*
X-12415Y16008D01*
X-12415Y16004D01*
X-12418Y16000D01*
X-12445Y15836D01*
X-12445Y13807D01*
X-18475Y7777D01*
X-18478Y7772D01*
X-18481Y7770D01*
X-18485Y7764D01*
X-18492Y7759D01*
X-18537Y7684D01*
X-18585Y7611D01*
X-18586Y7606D01*
X-18588Y7603D01*
X-18589Y7595D01*
X-18594Y7588D01*
X-18621Y7424D01*
X-18621Y3021D01*
X-19514Y2128D01*
X-30778Y2128D01*
X-31671Y3021D01*
X-31671Y5323D01*
X-31672Y5327D01*
X-31671Y5331D01*
X-31691Y5424D01*
X-31710Y5518D01*
X-31713Y5521D01*
X-31714Y5525D01*
X-31769Y5603D01*
X-31823Y5682D01*
X-31826Y5684D01*
X-31829Y5687D01*
X-31910Y5737D01*
X-31990Y5789D01*
X-31995Y5789D01*
X-31998Y5792D01*
X-32092Y5806D01*
X-32187Y5822D01*
X-32191Y5821D01*
X-32195Y5821D01*
X-32287Y5798D01*
X-32380Y5776D01*
X-32383Y5773D01*
X-32387Y5772D01*
X-32523Y5676D01*
X-34509Y3690D01*
X-34516Y3679D01*
X-34526Y3672D01*
X-34571Y3597D01*
X-34619Y3524D01*
X-34621Y3512D01*
X-34628Y3501D01*
X-34655Y3337D01*
X-34655Y-96D01*
X-34654Y-104D01*
X-34655Y-113D01*
X-34634Y-201D01*
X-34616Y-291D01*
X-34611Y-298D01*
X-34609Y-306D01*
X-34555Y-379D01*
X-34503Y-455D01*
X-34496Y-459D01*
X-34491Y-466D01*
X-34413Y-513D01*
X-34336Y-562D01*
X-34327Y-563D01*
X-34320Y-568D01*
X-34156Y-595D01*
X-23188Y-595D01*
X-22295Y-1488D01*
X-22295Y-13752D01*
X-23188Y-14645D01*
X-25789Y-14645D01*
X-25797Y-14646D01*
X-25806Y-14645D01*
X-25894Y-14666D01*
X-25984Y-14684D01*
X-25991Y-14689D01*
X-25999Y-14691D01*
X-26072Y-14745D01*
X-26148Y-14797D01*
X-26152Y-14804D01*
X-26159Y-14809D01*
X-26206Y-14887D01*
X-26255Y-14964D01*
X-26256Y-14973D01*
X-26261Y-14980D01*
X-26288Y-15144D01*
X-26288Y-20203D01*
X-26287Y-20211D01*
X-26288Y-20220D01*
X-26267Y-20308D01*
X-26249Y-20398D01*
X-26244Y-20405D01*
X-26242Y-20413D01*
X-26188Y-20486D01*
X-26136Y-20562D01*
X-26129Y-20566D01*
X-26124Y-20573D01*
X-26046Y-20620D01*
X-25969Y-20669D01*
X-25960Y-20670D01*
X-25953Y-20675D01*
X-25789Y-20702D01*
X-20697Y-20702D01*
X-19804Y-21595D01*
X-19804Y-35859D01*
X-20697Y-36752D01*
X-36961Y-36752D01*
X-37854Y-35859D01*
X-37854Y-33656D01*
X-37855Y-33648D01*
X-37854Y-33639D01*
X-37875Y-33551D01*
X-37893Y-33461D01*
X-37898Y-33454D01*
X-37900Y-33446D01*
X-37954Y-33373D01*
X-38006Y-33297D01*
X-38013Y-33293D01*
X-38018Y-33286D01*
X-38096Y-33239D01*
X-38173Y-33190D01*
X-38182Y-33189D01*
X-38189Y-33184D01*
X-38353Y-33157D01*
X-43649Y-33157D01*
X-43657Y-33158D01*
X-43666Y-33157D01*
X-43754Y-33178D01*
X-43844Y-33196D01*
X-43851Y-33201D01*
X-43859Y-33203D01*
X-43932Y-33257D01*
X-44008Y-33309D01*
X-44012Y-33316D01*
X-44019Y-33321D01*
X-44066Y-33399D01*
X-44115Y-33476D01*
X-44116Y-33485D01*
X-44121Y-33492D01*
X-44148Y-33656D01*
X-44148Y-36748D01*
X-45041Y-37641D01*
X-53691Y-37641D01*
X-53695Y-37642D01*
X-53699Y-37641D01*
X-53792Y-37661D01*
X-53886Y-37680D01*
X-53889Y-37683D01*
X-53893Y-37684D01*
X-53971Y-37739D01*
X-54050Y-37793D01*
X-54052Y-37796D01*
X-54055Y-37799D01*
X-54105Y-37880D01*
X-54157Y-37960D01*
X-54157Y-37965D01*
X-54160Y-37968D01*
X-54174Y-38062D01*
X-54190Y-38157D01*
X-54189Y-38161D01*
X-54189Y-38165D01*
X-54166Y-38257D01*
X-54144Y-38350D01*
X-54141Y-38353D01*
X-54140Y-38357D01*
X-54044Y-38493D01*
X-52092Y-40445D01*
X-52081Y-40452D01*
X-52074Y-40462D01*
X-51999Y-40507D01*
X-51926Y-40555D01*
X-51914Y-40557D01*
X-51903Y-40564D01*
X-51739Y-40591D01*
X-45041Y-40591D01*
X-44148Y-41484D01*
X-44148Y-44687D01*
X-44147Y-44695D01*
X-44148Y-44704D01*
X-44127Y-44792D01*
X-44109Y-44882D01*
X-44104Y-44889D01*
X-44102Y-44897D01*
X-44048Y-44970D01*
X-43996Y-45046D01*
X-43989Y-45050D01*
X-43984Y-45057D01*
X-43906Y-45104D01*
X-43829Y-45153D01*
X-43820Y-45154D01*
X-43813Y-45159D01*
X-43649Y-45186D01*
X-38353Y-45186D01*
X-38345Y-45185D01*
X-38336Y-45186D01*
X-38248Y-45165D01*
X-38158Y-45147D01*
X-38151Y-45142D01*
X-38143Y-45140D01*
X-38070Y-45086D01*
X-37994Y-45034D01*
X-37990Y-45027D01*
X-37983Y-45022D01*
X-37936Y-44944D01*
X-37887Y-44867D01*
X-37886Y-44858D01*
X-37881Y-44851D01*
X-37854Y-44687D01*
X-37854Y-40595D01*
X-36961Y-39702D01*
X-20697Y-39702D01*
X-19804Y-40595D01*
X-19804Y-44576D01*
X-19803Y-44584D01*
X-19804Y-44593D01*
X-19783Y-44681D01*
X-19765Y-44771D01*
X-19760Y-44778D01*
X-19758Y-44786D01*
X-19704Y-44859D01*
X-19652Y-44935D01*
X-19645Y-44939D01*
X-19640Y-44946D01*
X-19562Y-44993D01*
X-19485Y-45042D01*
X-19476Y-45043D01*
X-19469Y-45048D01*
X-19305Y-45075D01*
X-15144Y-45075D01*
X-15136Y-45074D01*
X-15127Y-45075D01*
X-15039Y-45054D01*
X-14949Y-45036D01*
X-14942Y-45031D01*
X-14934Y-45029D01*
X-14861Y-44975D01*
X-14785Y-44923D01*
X-14781Y-44916D01*
X-14774Y-44911D01*
X-14727Y-44833D01*
X-14678Y-44756D01*
X-14677Y-44747D01*
X-14672Y-44740D01*
X-14645Y-44576D01*
X-14645Y-41984D01*
X-13752Y-41091D01*
X-1488Y-41091D01*
X-595Y-41984D01*
X-595Y-53248D01*
X-1488Y-54141D01*
X-13752Y-54141D01*
X-14645Y-53248D01*
X-14645Y-50656D01*
X-14646Y-50648D01*
X-14645Y-50639D01*
X-14666Y-50551D01*
X-14684Y-50461D01*
X-14689Y-50454D01*
X-14691Y-50446D01*
X-14745Y-50373D01*
X-14797Y-50297D01*
X-14804Y-50293D01*
X-14809Y-50286D01*
X-14887Y-50239D01*
X-14964Y-50190D01*
X-14973Y-50189D01*
X-14980Y-50184D01*
X-15144Y-50157D01*
X-19305Y-50157D01*
X-19313Y-50158D01*
X-19322Y-50157D01*
X-19410Y-50178D01*
X-19500Y-50196D01*
X-19507Y-50201D01*
X-19515Y-50203D01*
X-19588Y-50257D01*
X-19664Y-50309D01*
X-19668Y-50316D01*
X-19675Y-50321D01*
X-19722Y-50399D01*
X-19771Y-50476D01*
X-19772Y-50485D01*
X-19777Y-50492D01*
X-19804Y-50656D01*
X-19804Y-54859D01*
X-20697Y-55752D01*
X-36961Y-55752D01*
X-37854Y-54859D01*
X-37854Y-50767D01*
X-37855Y-50759D01*
X-37854Y-50750D01*
X-37875Y-50662D01*
X-37893Y-50572D01*
X-37898Y-50565D01*
X-37900Y-50557D01*
X-37954Y-50484D01*
X-38006Y-50408D01*
X-38013Y-50404D01*
X-38018Y-50397D01*
X-38096Y-50350D01*
X-38173Y-50301D01*
X-38182Y-50300D01*
X-38189Y-50295D01*
X-38353Y-50268D01*
X-43649Y-50268D01*
X-43657Y-50269D01*
X-43666Y-50268D01*
X-43754Y-50289D01*
X-43844Y-50307D01*
X-43851Y-50312D01*
X-43859Y-50314D01*
X-43932Y-50368D01*
X-44008Y-50420D01*
X-44012Y-50427D01*
X-44019Y-50432D01*
X-44066Y-50510D01*
X-44115Y-50587D01*
X-44116Y-50596D01*
X-44121Y-50603D01*
X-44148Y-50767D01*
X-44148Y-53748D01*
X-45041Y-54641D01*
X-52942Y-54641D01*
X-52946Y-54642D01*
X-52950Y-54641D01*
X-53044Y-54661D01*
X-53137Y-54680D01*
X-53140Y-54683D01*
X-53144Y-54684D01*
X-53222Y-54739D01*
X-53301Y-54793D01*
X-53303Y-54796D01*
X-53306Y-54799D01*
X-53356Y-54880D01*
X-53408Y-54960D01*
X-53409Y-54965D01*
X-53411Y-54968D01*
X-53425Y-55062D01*
X-53441Y-55157D01*
X-53440Y-55161D01*
X-53441Y-55165D01*
X-53417Y-55257D01*
X-53395Y-55350D01*
X-53392Y-55353D01*
X-53391Y-55357D01*
X-53295Y-55493D01*
X-37787Y-71001D01*
X-37776Y-71008D01*
X-37769Y-71018D01*
X-37694Y-71063D01*
X-37621Y-71111D01*
X-37609Y-71113D01*
X-37598Y-71120D01*
X-37434Y-71147D01*
X-33826Y-71147D01*
X-31015Y-73958D01*
X-31015Y-77934D01*
X-33826Y-80745D01*
X-37802Y-80745D01*
X-40613Y-77934D01*
X-40613Y-75568D01*
X-40615Y-75556D01*
X-40613Y-75544D01*
X-40635Y-75459D01*
X-40652Y-75373D01*
X-40659Y-75363D01*
X-40663Y-75351D01*
X-40759Y-75215D01*
X-41720Y-74254D01*
X-41724Y-74252D01*
X-41726Y-74248D01*
X-41806Y-74198D01*
X-41886Y-74144D01*
X-41890Y-74144D01*
X-41893Y-74141D01*
X-41987Y-74126D01*
X-42081Y-74108D01*
X-42085Y-74109D01*
X-42090Y-74108D01*
X-42181Y-74130D01*
X-42275Y-74151D01*
X-42279Y-74153D01*
X-42283Y-74154D01*
X-42359Y-74210D01*
X-42438Y-74266D01*
X-42440Y-74270D01*
X-42443Y-74272D01*
X-42492Y-74354D01*
X-42542Y-74435D01*
X-42542Y-74440D01*
X-42545Y-74443D01*
X-42572Y-74607D01*
X-42572Y-77934D01*
X-45383Y-80745D01*
X-49359Y-80745D01*
X-52170Y-77934D01*
X-52170Y-73958D01*
X-51357Y-73146D01*
X-51353Y-73139D01*
X-51346Y-73134D01*
X-51298Y-73057D01*
X-51248Y-72980D01*
X-51246Y-72972D01*
X-51242Y-72965D01*
X-51228Y-72875D01*
X-51211Y-72785D01*
X-51213Y-72776D01*
X-51212Y-72768D01*
X-51234Y-72680D01*
X-51254Y-72590D01*
X-51259Y-72584D01*
X-51261Y-72575D01*
X-51357Y-72440D01*
X-68755Y-55043D01*
X-68755Y-42741D01*
X-68757Y-42729D01*
X-68755Y-42716D01*
X-68777Y-42632D01*
X-68794Y-42546D01*
X-68801Y-42536D01*
X-68805Y-42524D01*
X-68901Y-42388D01*
X-70494Y-40795D01*
X-70497Y-40793D01*
X-70500Y-40789D01*
X-70580Y-40738D01*
X-70660Y-40685D01*
X-70664Y-40685D01*
X-70667Y-40682D01*
X-70761Y-40667D01*
X-70855Y-40649D01*
X-70859Y-40650D01*
X-70863Y-40649D01*
X-70955Y-40671D01*
X-71049Y-40692D01*
X-71053Y-40694D01*
X-71057Y-40695D01*
X-71133Y-40751D01*
X-71211Y-40807D01*
X-71214Y-40811D01*
X-71217Y-40813D01*
X-71266Y-40895D01*
X-71316Y-40976D01*
X-71316Y-40981D01*
X-71318Y-40984D01*
X-71346Y-41148D01*
X-71346Y-41588D01*
X-72605Y-42848D01*
X-73331Y-42848D01*
X-73339Y-42849D01*
X-73347Y-42848D01*
X-73436Y-42869D01*
X-73526Y-42887D01*
X-73533Y-42892D01*
X-73541Y-42894D01*
X-73614Y-42948D01*
X-73690Y-43000D01*
X-73694Y-43007D01*
X-73701Y-43012D01*
X-73747Y-43090D01*
X-73797Y-43167D01*
X-73798Y-43176D01*
X-73802Y-43183D01*
X-73830Y-43347D01*
X-73830Y-51413D01*
X-73828Y-51425D01*
X-73830Y-51438D01*
X-73808Y-51522D01*
X-73791Y-51608D01*
X-73783Y-51618D01*
X-73780Y-51630D01*
X-73684Y-51766D01*
X-56260Y-69190D01*
X-56260Y-71620D01*
X-56258Y-71633D01*
X-56260Y-71645D01*
X-56238Y-71730D01*
X-56221Y-71815D01*
X-56214Y-71826D01*
X-56210Y-71838D01*
X-56114Y-71974D01*
X-54002Y-74085D01*
X-54002Y-78061D01*
X-56813Y-80872D01*
X-60789Y-80872D01*
X-63600Y-78061D01*
X-63600Y-74085D01*
X-61488Y-71974D01*
X-61481Y-71963D01*
X-61471Y-71956D01*
X-61426Y-71881D01*
X-61378Y-71808D01*
X-61376Y-71795D01*
X-61369Y-71785D01*
X-61342Y-71620D01*
X-61342Y-71501D01*
X-61344Y-71489D01*
X-61342Y-71477D01*
X-61364Y-71393D01*
X-61381Y-71306D01*
X-61388Y-71296D01*
X-61392Y-71284D01*
X-61488Y-71148D01*
X-78912Y-53725D01*
X-78912Y-43347D01*
X-78913Y-43339D01*
X-78912Y-43330D01*
X-78933Y-43242D01*
X-78951Y-43152D01*
X-78956Y-43145D01*
X-78958Y-43137D01*
X-79012Y-43064D01*
X-79064Y-42988D01*
X-79071Y-42984D01*
X-79076Y-42977D01*
X-79154Y-42930D01*
X-79231Y-42881D01*
X-79240Y-42880D01*
X-79247Y-42875D01*
X-79411Y-42848D01*
X-80097Y-42848D01*
X-80105Y-42849D01*
X-80114Y-42848D01*
X-80202Y-42869D01*
X-80292Y-42887D01*
X-80299Y-42892D01*
X-80307Y-42894D01*
X-80380Y-42948D01*
X-80456Y-43000D01*
X-80460Y-43007D01*
X-80467Y-43012D01*
X-80514Y-43090D01*
X-80563Y-43167D01*
X-80564Y-43176D01*
X-80569Y-43183D01*
X-80596Y-43347D01*
X-80596Y-50839D01*
X-80684Y-50926D01*
X-80691Y-50937D01*
X-80701Y-50944D01*
X-80746Y-51019D01*
X-80794Y-51092D01*
X-80796Y-51104D01*
X-80803Y-51115D01*
X-80830Y-51279D01*
X-80830Y-56101D01*
X-80828Y-56113D01*
X-80830Y-56126D01*
X-80808Y-56210D01*
X-80791Y-56296D01*
X-80784Y-56306D01*
X-80780Y-56318D01*
X-80684Y-56454D01*
X-68071Y-69067D01*
X-68071Y-71620D01*
X-68069Y-71633D01*
X-68071Y-71645D01*
X-68049Y-71730D01*
X-68032Y-71815D01*
X-68025Y-71826D01*
X-68021Y-71838D01*
X-67925Y-71974D01*
X-65813Y-74085D01*
X-65813Y-78061D01*
X-68624Y-80872D01*
X-72600Y-80872D01*
X-75411Y-78061D01*
X-75411Y-74085D01*
X-73299Y-71974D01*
X-73292Y-71963D01*
X-73282Y-71956D01*
X-73237Y-71881D01*
X-73189Y-71808D01*
X-73187Y-71795D01*
X-73180Y-71785D01*
X-73153Y-71620D01*
X-73153Y-71378D01*
X-73155Y-71366D01*
X-73153Y-71353D01*
X-73175Y-71269D01*
X-73192Y-71183D01*
X-73199Y-71173D01*
X-73203Y-71161D01*
X-73299Y-71025D01*
X-84277Y-60047D01*
X-85038Y-59286D01*
X-85041Y-59284D01*
X-85044Y-59280D01*
X-85124Y-59230D01*
X-85204Y-59176D01*
X-85208Y-59176D01*
X-85211Y-59173D01*
X-85305Y-59158D01*
X-85399Y-59140D01*
X-85403Y-59141D01*
X-85407Y-59140D01*
X-85499Y-59162D01*
X-85593Y-59183D01*
X-85597Y-59185D01*
X-85601Y-59186D01*
X-85677Y-59242D01*
X-85755Y-59298D01*
X-85758Y-59302D01*
X-85761Y-59304D01*
X-85809Y-59386D01*
X-85860Y-59467D01*
X-85860Y-59472D01*
X-85862Y-59475D01*
X-85890Y-59639D01*
X-85890Y-60287D01*
X-85888Y-60299D01*
X-85890Y-60312D01*
X-85868Y-60396D01*
X-85851Y-60482D01*
X-85843Y-60492D01*
X-85840Y-60504D01*
X-85744Y-60640D01*
X-79882Y-66502D01*
X-79882Y-71747D01*
X-79880Y-71760D01*
X-79882Y-71772D01*
X-79860Y-71857D01*
X-79843Y-71942D01*
X-79836Y-71953D01*
X-79832Y-71965D01*
X-79736Y-72101D01*
X-77624Y-74212D01*
X-77624Y-78188D01*
X-80435Y-80999D01*
X-84411Y-80999D01*
X-87222Y-78188D01*
X-87222Y-74212D01*
X-85110Y-72101D01*
X-85103Y-72090D01*
X-85093Y-72083D01*
X-85048Y-72008D01*
X-85000Y-71935D01*
X-84998Y-71922D01*
X-84991Y-71912D01*
X-84964Y-71747D01*
X-84964Y-68813D01*
X-84966Y-68801D01*
X-84964Y-68788D01*
X-84986Y-68704D01*
X-85003Y-68618D01*
X-85010Y-68608D01*
X-85014Y-68596D01*
X-85110Y-68460D01*
X-89978Y-63592D01*
X-89982Y-63590D01*
X-89984Y-63586D01*
X-90064Y-63535D01*
X-90144Y-63482D01*
X-90148Y-63482D01*
X-90151Y-63479D01*
X-90245Y-63463D01*
X-90339Y-63446D01*
X-90343Y-63447D01*
X-90348Y-63446D01*
X-90439Y-63468D01*
X-90533Y-63489D01*
X-90537Y-63491D01*
X-90541Y-63492D01*
X-90617Y-63548D01*
X-90696Y-63604D01*
X-90698Y-63608D01*
X-90701Y-63610D01*
X-90750Y-63692D01*
X-90800Y-63773D01*
X-90800Y-63777D01*
X-90803Y-63781D01*
X-90830Y-63945D01*
X-90830Y-72483D01*
X-90828Y-72496D01*
X-90830Y-72508D01*
X-90808Y-72593D01*
X-90791Y-72678D01*
X-90784Y-72689D01*
X-90780Y-72701D01*
X-90684Y-72837D01*
X-89308Y-74212D01*
X-89308Y-78188D01*
X-92119Y-80999D01*
X-96095Y-80999D01*
X-98906Y-78188D01*
X-98906Y-74212D01*
X-96058Y-71365D01*
X-96051Y-71354D01*
X-96041Y-71347D01*
X-95996Y-71272D01*
X-95948Y-71199D01*
X-95946Y-71186D01*
X-95939Y-71176D01*
X-95912Y-71011D01*
X-95912Y-63118D01*
X-95913Y-63114D01*
X-95912Y-63110D01*
X-95932Y-63017D01*
X-95951Y-62923D01*
X-95954Y-62920D01*
X-95955Y-62916D01*
X-96010Y-62838D01*
X-96064Y-62759D01*
X-96067Y-62757D01*
X-96070Y-62754D01*
X-96151Y-62704D01*
X-96231Y-62652D01*
X-96236Y-62652D01*
X-96239Y-62649D01*
X-96333Y-62635D01*
X-96428Y-62619D01*
X-96432Y-62620D01*
X-96436Y-62620D01*
X-96528Y-62643D01*
X-96621Y-62665D01*
X-96624Y-62668D01*
X-96628Y-62669D01*
X-96764Y-62765D01*
X-103104Y-69105D01*
X-103111Y-69116D01*
X-103121Y-69123D01*
X-103166Y-69198D01*
X-103214Y-69271D01*
X-103215Y-69280D01*
X-103217Y-69282D01*
X-103218Y-69286D01*
X-103223Y-69294D01*
X-103250Y-69458D01*
X-103250Y-71747D01*
X-103248Y-71760D01*
X-103250Y-71772D01*
X-103228Y-71857D01*
X-103211Y-71942D01*
X-103204Y-71953D01*
X-103200Y-71965D01*
X-103104Y-72101D01*
X-100992Y-74212D01*
X-100992Y-78188D01*
X-103803Y-80999D01*
X-107779Y-80999D01*
X-110590Y-78188D01*
X-110590Y-74212D01*
X-108478Y-72101D01*
X-108471Y-72090D01*
X-108461Y-72083D01*
X-108416Y-72008D01*
X-108368Y-71935D01*
X-108366Y-71922D01*
X-108359Y-71912D01*
X-108332Y-71747D01*
X-108332Y-67147D01*
X-101058Y-59873D01*
X-101051Y-59862D01*
X-101041Y-59855D01*
X-100996Y-59780D01*
X-100948Y-59707D01*
X-100946Y-59695D01*
X-100939Y-59684D01*
X-100912Y-59520D01*
X-100912Y-58593D01*
X-100913Y-58589D01*
X-100912Y-58585D01*
X-100932Y-58492D01*
X-100951Y-58398D01*
X-100954Y-58395D01*
X-100955Y-58391D01*
X-101010Y-58313D01*
X-101064Y-58234D01*
X-101067Y-58232D01*
X-101070Y-58229D01*
X-101151Y-58179D01*
X-101231Y-58127D01*
X-101236Y-58127D01*
X-101239Y-58124D01*
X-101333Y-58110D01*
X-101428Y-58094D01*
X-101432Y-58095D01*
X-101436Y-58095D01*
X-101528Y-58118D01*
X-101621Y-58140D01*
X-101624Y-58143D01*
X-101628Y-58144D01*
X-101764Y-58240D01*
X-114788Y-71264D01*
X-114795Y-71275D01*
X-114805Y-71282D01*
X-114850Y-71357D01*
X-114898Y-71430D01*
X-114900Y-71442D01*
X-114907Y-71453D01*
X-114934Y-71617D01*
X-114934Y-71747D01*
X-114932Y-71760D01*
X-114934Y-71772D01*
X-114912Y-71857D01*
X-114895Y-71942D01*
X-114888Y-71953D01*
X-114884Y-71965D01*
X-114788Y-72101D01*
X-112676Y-74212D01*
X-112676Y-78188D01*
X-115487Y-80999D01*
X-119463Y-80999D01*
X-122274Y-78188D01*
X-122274Y-74212D01*
X-120162Y-72101D01*
X-120155Y-72090D01*
X-120145Y-72083D01*
X-120100Y-72008D01*
X-120052Y-71935D01*
X-120050Y-71922D01*
X-120043Y-71912D01*
X-120016Y-71747D01*
X-120016Y-69696D01*
X-120017Y-69692D01*
X-120016Y-69688D01*
X-120036Y-69595D01*
X-120055Y-69501D01*
X-120058Y-69498D01*
X-120059Y-69494D01*
X-120114Y-69416D01*
X-120168Y-69337D01*
X-120171Y-69335D01*
X-120174Y-69332D01*
X-120255Y-69282D01*
X-120335Y-69230D01*
X-120340Y-69230D01*
X-120343Y-69227D01*
X-120437Y-69213D01*
X-120532Y-69197D01*
X-120536Y-69198D01*
X-120540Y-69198D01*
X-120632Y-69221D01*
X-120725Y-69243D01*
X-120728Y-69246D01*
X-120732Y-69247D01*
X-120868Y-69343D01*
X-124759Y-73234D01*
X-124764Y-73241D01*
X-124771Y-73246D01*
X-124819Y-73324D01*
X-124869Y-73400D01*
X-124871Y-73408D01*
X-124875Y-73416D01*
X-124889Y-73506D01*
X-124905Y-73596D01*
X-124904Y-73604D01*
X-124905Y-73612D01*
X-124882Y-73700D01*
X-124863Y-73790D01*
X-124858Y-73797D01*
X-124856Y-73805D01*
X-124759Y-73940D01*
X-124487Y-74212D01*
X-124487Y-78188D01*
X-127298Y-80999D01*
X-131274Y-80999D01*
X-134085Y-78188D01*
X-134085Y-75561D01*
X-134086Y-75557D01*
X-134085Y-75553D01*
X-134105Y-75460D01*
X-134124Y-75366D01*
X-134127Y-75363D01*
X-134128Y-75359D01*
X-134183Y-75281D01*
X-134237Y-75202D01*
X-134240Y-75200D01*
X-134243Y-75197D01*
X-134324Y-75147D01*
X-134404Y-75095D01*
X-134409Y-75095D01*
X-134412Y-75092D01*
X-134506Y-75078D01*
X-134601Y-75062D01*
X-134605Y-75063D01*
X-134609Y-75063D01*
X-134701Y-75086D01*
X-134794Y-75108D01*
X-134797Y-75111D01*
X-134801Y-75112D01*
X-134937Y-75208D01*
X-136025Y-76296D01*
X-136032Y-76307D01*
X-136042Y-76314D01*
X-136087Y-76389D01*
X-136135Y-76462D01*
X-136137Y-76474D01*
X-136144Y-76485D01*
X-136171Y-76649D01*
X-136171Y-78188D01*
X-138982Y-80999D01*
X-142958Y-80999D01*
X-145769Y-78188D01*
X-145769Y-74212D01*
X-142958Y-71401D01*
X-138977Y-71401D01*
X-138913Y-71440D01*
X-138837Y-71491D01*
X-138828Y-71493D01*
X-138821Y-71497D01*
X-138731Y-71511D01*
X-138641Y-71527D01*
X-138633Y-71526D01*
X-138625Y-71527D01*
X-138536Y-71504D01*
X-138447Y-71485D01*
X-138440Y-71480D01*
X-138432Y-71478D01*
X-138296Y-71381D01*
X-119803Y-52888D01*
X-119798Y-52881D01*
X-119791Y-52876D01*
X-119743Y-52798D01*
X-119693Y-52722D01*
X-119691Y-52714D01*
X-119687Y-52706D01*
X-119673Y-52616D01*
X-119657Y-52526D01*
X-119658Y-52518D01*
X-119657Y-52510D01*
X-119680Y-52422D01*
X-119699Y-52332D01*
X-119704Y-52325D01*
X-119706Y-52317D01*
X-119803Y-52182D01*
X-120518Y-51466D01*
X-120525Y-51462D01*
X-120530Y-51455D01*
X-120608Y-51407D01*
X-120684Y-51356D01*
X-120692Y-51355D01*
X-120699Y-51350D01*
X-120789Y-51337D01*
X-120879Y-51320D01*
X-120887Y-51322D01*
X-120896Y-51321D01*
X-120984Y-51343D01*
X-121073Y-51363D01*
X-121080Y-51368D01*
X-121088Y-51370D01*
X-121224Y-51466D01*
X-121856Y-52098D01*
X-124886Y-52098D01*
X-125518Y-51466D01*
X-125525Y-51462D01*
X-125530Y-51455D01*
X-125607Y-51407D01*
X-125684Y-51356D01*
X-125692Y-51355D01*
X-125699Y-51350D01*
X-125789Y-51337D01*
X-125879Y-51320D01*
X-125887Y-51322D01*
X-125896Y-51321D01*
X-125984Y-51343D01*
X-126073Y-51363D01*
X-126080Y-51368D01*
X-126088Y-51370D01*
X-126224Y-51466D01*
X-126856Y-52098D01*
X-129931Y-52098D01*
X-129965Y-52075D01*
X-129974Y-52073D01*
X-129981Y-52069D01*
X-130071Y-52055D01*
X-130161Y-52038D01*
X-130169Y-52040D01*
X-130177Y-52039D01*
X-130266Y-52062D01*
X-130355Y-52081D01*
X-130362Y-52086D01*
X-130370Y-52088D01*
X-130506Y-52185D01*
X-130802Y-52481D01*
X-131524Y-52898D01*
X-132329Y-53114D01*
X-132747Y-53114D01*
X-132747Y-47198D01*
X-132748Y-47190D01*
X-132747Y-47182D01*
X-132768Y-47093D01*
X-132786Y-47003D01*
X-132791Y-46996D01*
X-132793Y-46988D01*
X-132847Y-46915D01*
X-132899Y-46839D01*
X-132906Y-46835D01*
X-132911Y-46828D01*
X-132989Y-46782D01*
X-133066Y-46732D01*
X-133075Y-46731D01*
X-133082Y-46727D01*
X-133246Y-46699D01*
X-133496Y-46699D01*
X-133504Y-46701D01*
X-133513Y-46699D01*
X-133601Y-46720D01*
X-133691Y-46739D01*
X-133698Y-46743D01*
X-133706Y-46745D01*
X-133779Y-46799D01*
X-133855Y-46851D01*
X-133859Y-46858D01*
X-133866Y-46863D01*
X-133913Y-46941D01*
X-133962Y-47019D01*
X-133963Y-47027D01*
X-133968Y-47034D01*
X-133995Y-47198D01*
X-133995Y-53114D01*
X-134413Y-53114D01*
X-135218Y-52898D01*
X-135940Y-52481D01*
X-136236Y-52185D01*
X-136243Y-52180D01*
X-136248Y-52173D01*
X-136326Y-52125D01*
X-136402Y-52075D01*
X-136411Y-52073D01*
X-136418Y-52069D01*
X-136508Y-52055D01*
X-136598Y-52038D01*
X-136606Y-52040D01*
X-136614Y-52039D01*
X-136702Y-52062D01*
X-136792Y-52081D01*
X-136799Y-52086D01*
X-136807Y-52088D01*
X-136820Y-52098D01*
X-139596Y-52098D01*
X-139608Y-52100D01*
X-139621Y-52098D01*
X-139705Y-52120D01*
X-139791Y-52137D01*
X-139801Y-52145D01*
X-139813Y-52148D01*
X-139949Y-52244D01*
X-145881Y-58176D01*
X-152234Y-58176D01*
X-152242Y-58177D01*
X-152251Y-58176D01*
X-152339Y-58197D01*
X-152429Y-58215D01*
X-152436Y-58220D01*
X-152444Y-58222D01*
X-152517Y-58276D01*
X-152593Y-58328D01*
X-152597Y-58335D01*
X-152604Y-58340D01*
X-152651Y-58418D01*
X-152700Y-58495D01*
X-152701Y-58504D01*
X-152706Y-58511D01*
X-152733Y-58675D01*
X-152733Y-61767D01*
X-153626Y-62660D01*
X-164890Y-62660D01*
X-165783Y-61767D01*
X-165783Y-56532D01*
X-165784Y-56524D01*
X-165783Y-56515D01*
X-165804Y-56427D01*
X-165822Y-56337D01*
X-165827Y-56330D01*
X-165829Y-56322D01*
X-165883Y-56249D01*
X-165935Y-56173D01*
X-165942Y-56169D01*
X-165947Y-56162D01*
X-166025Y-56115D01*
X-166102Y-56066D01*
X-166111Y-56065D01*
X-166118Y-56060D01*
X-166282Y-56033D01*
X-171197Y-56033D01*
X-171205Y-56034D01*
X-171214Y-56033D01*
X-171302Y-56054D01*
X-171392Y-56072D01*
X-171399Y-56077D01*
X-171407Y-56079D01*
X-171480Y-56133D01*
X-171556Y-56185D01*
X-171560Y-56192D01*
X-171567Y-56197D01*
X-171614Y-56275D01*
X-171663Y-56352D01*
X-171664Y-56361D01*
X-171669Y-56368D01*
X-171696Y-56532D01*
X-171696Y-60624D01*
X-172589Y-61517D01*
X-188853Y-61517D01*
X-189746Y-60624D01*
X-189746Y-50671D01*
X-189747Y-50667D01*
X-189746Y-50663D01*
X-189766Y-50570D01*
X-189785Y-50477D01*
X-189788Y-50473D01*
X-189789Y-50469D01*
X-189844Y-50391D01*
X-189898Y-50313D01*
X-189901Y-50310D01*
X-189904Y-50307D01*
X-189985Y-50257D01*
X-190065Y-50206D01*
X-190070Y-50205D01*
X-190073Y-50203D01*
X-190167Y-50188D01*
X-190262Y-50172D01*
X-190266Y-50173D01*
X-190270Y-50173D01*
X-190362Y-50196D01*
X-190455Y-50219D01*
X-190458Y-50221D01*
X-190462Y-50222D01*
X-190598Y-50318D01*
X-191560Y-51281D01*
X-194547Y-51281D01*
X-194559Y-51283D01*
X-194572Y-51281D01*
X-194656Y-51303D01*
X-194742Y-51320D01*
X-194752Y-51327D01*
X-194764Y-51331D01*
X-194900Y-51427D01*
X-195434Y-51961D01*
X-195441Y-51972D01*
X-195451Y-51979D01*
X-195496Y-52054D01*
X-195544Y-52127D01*
X-195546Y-52139D01*
X-195553Y-52150D01*
X-195580Y-52314D01*
X-195580Y-59666D01*
X-197938Y-62024D01*
X-212272Y-62024D01*
X-214630Y-59666D01*
X-214630Y-51332D01*
X-212272Y-48974D01*
X-199840Y-48974D01*
X-199828Y-48972D01*
X-199815Y-48974D01*
X-199731Y-48952D01*
X-199645Y-48935D01*
X-199635Y-48928D01*
X-199623Y-48924D01*
X-199487Y-48828D01*
X-198493Y-47834D01*
X-198486Y-47823D01*
X-198476Y-47816D01*
X-198431Y-47741D01*
X-198383Y-47668D01*
X-198381Y-47656D01*
X-198374Y-47645D01*
X-198347Y-47481D01*
X-198347Y-44616D01*
X-198348Y-44608D01*
X-198347Y-44599D01*
X-198368Y-44511D01*
X-198386Y-44421D01*
X-198391Y-44414D01*
X-198393Y-44406D01*
X-198447Y-44333D01*
X-198499Y-44257D01*
X-198506Y-44253D01*
X-198511Y-44246D01*
X-198589Y-44199D01*
X-198666Y-44150D01*
X-198675Y-44149D01*
X-198682Y-44144D01*
X-198846Y-44117D01*
X-212145Y-44117D01*
X-214503Y-41759D01*
X-214503Y-33425D01*
X-212145Y-31067D01*
X-202757Y-31067D01*
X-202749Y-31066D01*
X-202740Y-31067D01*
X-202652Y-31046D01*
X-202562Y-31028D01*
X-202555Y-31023D01*
X-202547Y-31021D01*
X-202474Y-30967D01*
X-202398Y-30915D01*
X-202394Y-30908D01*
X-202387Y-30903D01*
X-202340Y-30825D01*
X-202291Y-30748D01*
X-202290Y-30739D01*
X-202285Y-30732D01*
X-202258Y-30568D01*
X-202258Y-28085D01*
X-199447Y-25274D01*
X-195471Y-25274D01*
X-193360Y-27386D01*
X-193353Y-27390D01*
X-193349Y-27395D01*
X-193346Y-27397D01*
X-193342Y-27403D01*
X-193267Y-27448D01*
X-193194Y-27496D01*
X-193181Y-27498D01*
X-193171Y-27505D01*
X-193006Y-27532D01*
X-156735Y-27532D01*
X-156731Y-27531D01*
X-156727Y-27532D01*
X-156634Y-27512D01*
X-156541Y-27493D01*
X-156537Y-27490D01*
X-156533Y-27489D01*
X-156455Y-27434D01*
X-156377Y-27380D01*
X-156374Y-27377D01*
X-156371Y-27374D01*
X-156321Y-27293D01*
X-156270Y-27213D01*
X-156269Y-27208D01*
X-156267Y-27205D01*
X-156252Y-27111D01*
X-156236Y-27016D01*
X-156237Y-27012D01*
X-156237Y-27008D01*
X-156260Y-26916D01*
X-156283Y-26823D01*
X-156285Y-26820D01*
X-156286Y-26816D01*
X-156382Y-26680D01*
X-159231Y-23832D01*
X-159231Y-19856D01*
X-156420Y-17045D01*
X-152444Y-17045D01*
X-151017Y-18473D01*
X-151010Y-18477D01*
X-151005Y-18484D01*
X-150927Y-18532D01*
X-150851Y-18582D01*
X-150843Y-18584D01*
X-150836Y-18588D01*
X-150746Y-18602D01*
X-150656Y-18619D01*
X-150647Y-18617D01*
X-150639Y-18618D01*
X-150551Y-18596D01*
X-150461Y-18576D01*
X-150455Y-18571D01*
X-150446Y-18569D01*
X-150311Y-18473D01*
X-149764Y-17926D01*
X-149760Y-17919D01*
X-149753Y-17914D01*
X-149705Y-17836D01*
X-149654Y-17760D01*
X-149653Y-17752D01*
X-149648Y-17745D01*
X-149635Y-17655D01*
X-149618Y-17565D01*
X-149620Y-17557D01*
X-149619Y-17548D01*
X-149641Y-17460D01*
X-149661Y-17371D01*
X-149666Y-17364D01*
X-149668Y-17356D01*
X-149764Y-17220D01*
X-150396Y-16588D01*
X-150396Y-13558D01*
X-149764Y-12926D01*
X-149760Y-12919D01*
X-149753Y-12914D01*
X-149705Y-12837D01*
X-149654Y-12760D01*
X-149653Y-12752D01*
X-149648Y-12745D01*
X-149635Y-12655D01*
X-149618Y-12565D01*
X-149620Y-12557D01*
X-149619Y-12548D01*
X-149641Y-12460D01*
X-149661Y-12371D01*
X-149666Y-12364D01*
X-149668Y-12356D01*
X-149764Y-12220D01*
X-150396Y-11588D01*
X-150396Y-8558D01*
X-150311Y-8473D01*
X-150309Y-8469D01*
X-150305Y-8467D01*
X-150254Y-8387D01*
X-150201Y-8307D01*
X-150201Y-8303D01*
X-150198Y-8300D01*
X-150183Y-8206D01*
X-150165Y-8112D01*
X-150166Y-8108D01*
X-150165Y-8103D01*
X-150187Y-8011D01*
X-150208Y-7918D01*
X-150210Y-7914D01*
X-150211Y-7910D01*
X-150267Y-7834D01*
X-150323Y-7755D01*
X-150327Y-7753D01*
X-150329Y-7750D01*
X-150410Y-7702D01*
X-150492Y-7651D01*
X-150497Y-7651D01*
X-150500Y-7648D01*
X-150664Y-7621D01*
X-152370Y-7621D01*
X-152378Y-7622D01*
X-152387Y-7621D01*
X-152475Y-7642D01*
X-152565Y-7660D01*
X-152572Y-7665D01*
X-152580Y-7667D01*
X-152653Y-7721D01*
X-152729Y-7773D01*
X-152733Y-7780D01*
X-152740Y-7785D01*
X-152787Y-7863D01*
X-152836Y-7940D01*
X-152837Y-7949D01*
X-152842Y-7956D01*
X-152869Y-8120D01*
X-152869Y-11212D01*
X-153762Y-12105D01*
X-165026Y-12105D01*
X-165919Y-11212D01*
X-165919Y1052D01*
X-165026Y1945D01*
X-162336Y1945D01*
X-162332Y1946D01*
X-162328Y1945D01*
X-162235Y1965D01*
X-162142Y1984D01*
X-162138Y1987D01*
X-162134Y1988D01*
X-162056Y2043D01*
X-161978Y2097D01*
X-161975Y2100D01*
X-161972Y2103D01*
X-161922Y2185D01*
X-161871Y2264D01*
X-161870Y2269D01*
X-161868Y2272D01*
X-161853Y2366D01*
X-161837Y2461D01*
X-161838Y2465D01*
X-161838Y2469D01*
X-161861Y2560D01*
X-161884Y2654D01*
X-161886Y2657D01*
X-161887Y2661D01*
X-161983Y2797D01*
X-162660Y3473D01*
X-162660Y7449D01*
X-159849Y10260D01*
X-155873Y10260D01*
X-153228Y7614D01*
X-153217Y7607D01*
X-153210Y7597D01*
X-153135Y7552D01*
X-153062Y7504D01*
X-153049Y7502D01*
X-153039Y7495D01*
X-152874Y7468D01*
X-151683Y7468D01*
X-151611Y7482D01*
X-151538Y7489D01*
X-151514Y7502D01*
X-151488Y7507D01*
X-151427Y7549D01*
X-151363Y7584D01*
X-151346Y7605D01*
X-151324Y7620D01*
X-151284Y7682D01*
X-151238Y7739D01*
X-151231Y7765D01*
X-151217Y7787D01*
X-151205Y7860D01*
X-151185Y7931D01*
X-151188Y7960D01*
X-151184Y7984D01*
X-151194Y8026D01*
X-151200Y8096D01*
X-151412Y8885D01*
X-151412Y9303D01*
X-145496Y9303D01*
X-145488Y9304D01*
X-145480Y9303D01*
X-145391Y9324D01*
X-145301Y9342D01*
X-145294Y9347D01*
X-145286Y9349D01*
X-145213Y9403D01*
X-145137Y9455D01*
X-145133Y9462D01*
X-145126Y9467D01*
X-145080Y9545D01*
X-145030Y9622D01*
X-145029Y9631D01*
X-145025Y9638D01*
X-144997Y9802D01*
X-144997Y10052D01*
X-144999Y10060D01*
X-144997Y10069D01*
X-145018Y10157D01*
X-145037Y10247D01*
X-145041Y10254D01*
X-145043Y10262D01*
X-145097Y10335D01*
X-145149Y10411D01*
X-145156Y10415D01*
X-145161Y10422D01*
X-145239Y10469D01*
X-145317Y10518D01*
X-145325Y10519D01*
X-145332Y10524D01*
X-145496Y10551D01*
X-151412Y10551D01*
X-151412Y10969D01*
X-151196Y11774D01*
X-150779Y12496D01*
X-150483Y12792D01*
X-150478Y12799D01*
X-150471Y12804D01*
X-150423Y12882D01*
X-150373Y12958D01*
X-150371Y12967D01*
X-150367Y12974D01*
X-150353Y13064D01*
X-150336Y13154D01*
X-150338Y13162D01*
X-150337Y13170D01*
X-150360Y13258D01*
X-150379Y13348D01*
X-150384Y13355D01*
X-150386Y13363D01*
X-150396Y13376D01*
X-150396Y14389D01*
X-150398Y14401D01*
X-150396Y14414D01*
X-150418Y14498D01*
X-150435Y14584D01*
X-150443Y14594D01*
X-150446Y14606D01*
X-150542Y14742D01*
X-154585Y18785D01*
X-154596Y18792D01*
X-154603Y18802D01*
X-154678Y18847D01*
X-154751Y18895D01*
X-154763Y18897D01*
X-154774Y18904D01*
X-154938Y18931D01*
X-155663Y18931D01*
X-155671Y18930D01*
X-155680Y18931D01*
X-155768Y18910D01*
X-155858Y18892D01*
X-155865Y18887D01*
X-155873Y18885D01*
X-155946Y18831D01*
X-156022Y18779D01*
X-156026Y18772D01*
X-156033Y18767D01*
X-156080Y18689D01*
X-156129Y18612D01*
X-156130Y18603D01*
X-156135Y18596D01*
X-156162Y18432D01*
X-156162Y15340D01*
X-157055Y14447D01*
X-168319Y14447D01*
X-169212Y15340D01*
X-169212Y18432D01*
X-169213Y18440D01*
X-169212Y18449D01*
X-169233Y18537D01*
X-169251Y18627D01*
X-169256Y18634D01*
X-169258Y18642D01*
X-169312Y18715D01*
X-169364Y18791D01*
X-169371Y18795D01*
X-169376Y18802D01*
X-169454Y18849D01*
X-169531Y18898D01*
X-169540Y18899D01*
X-169547Y18904D01*
X-169711Y18931D01*
X-174880Y18931D01*
X-174888Y18930D01*
X-174897Y18931D01*
X-174985Y18910D01*
X-175075Y18892D01*
X-175082Y18887D01*
X-175090Y18885D01*
X-175163Y18831D01*
X-175239Y18779D01*
X-175243Y18772D01*
X-175250Y18767D01*
X-175297Y18689D01*
X-175346Y18612D01*
X-175347Y18603D01*
X-175352Y18596D01*
X-175379Y18432D01*
X-175379Y17785D01*
X-176272Y16892D01*
X-192536Y16892D01*
X-193429Y17785D01*
X-193429Y20957D01*
X-193430Y20961D01*
X-193429Y20965D01*
X-193449Y21058D01*
X-193468Y21151D01*
X-193471Y21155D01*
X-193472Y21159D01*
X-193527Y21237D01*
X-193581Y21315D01*
X-193584Y21318D01*
X-193587Y21321D01*
X-193668Y21371D01*
X-193748Y21422D01*
X-193753Y21423D01*
X-193756Y21425D01*
X-193850Y21440D01*
X-193945Y21456D01*
X-193949Y21455D01*
X-193953Y21455D01*
X-194045Y21432D01*
X-194138Y21409D01*
X-194141Y21407D01*
X-194145Y21406D01*
X-194281Y21310D01*
X-195497Y20093D01*
X-199473Y20093D01*
X-202284Y22904D01*
X-202284Y26880D01*
X-199473Y29691D01*
X-195497Y29691D01*
X-194281Y28474D01*
X-194277Y28472D01*
X-194275Y28469D01*
X-194195Y28418D01*
X-194115Y28365D01*
X-194111Y28364D01*
X-194108Y28362D01*
X-194014Y28346D01*
X-193920Y28328D01*
X-193916Y28329D01*
X-193911Y28328D01*
X-193820Y28350D01*
X-193726Y28371D01*
X-193722Y28374D01*
X-193718Y28375D01*
X-193642Y28431D01*
X-193563Y28486D01*
X-193561Y28490D01*
X-193558Y28492D01*
X-193509Y28574D01*
X-193459Y28656D01*
X-193459Y28660D01*
X-193456Y28663D01*
X-193429Y28827D01*
X-193429Y32049D01*
X-192536Y32942D01*
X-176272Y32942D01*
X-175379Y32049D01*
X-175379Y24512D01*
X-175378Y24504D01*
X-175379Y24495D01*
X-175358Y24407D01*
X-175340Y24317D01*
X-175335Y24310D01*
X-175333Y24302D01*
X-175279Y24229D01*
X-175227Y24153D01*
X-175220Y24149D01*
X-175215Y24142D01*
X-175137Y24095D01*
X-175060Y24046D01*
X-175051Y24045D01*
X-175044Y24040D01*
X-174880Y24013D01*
X-169711Y24013D01*
X-169703Y24014D01*
X-169694Y24013D01*
X-169606Y24034D01*
X-169516Y24052D01*
X-169509Y24057D01*
X-169501Y24059D01*
X-169428Y24113D01*
X-169352Y24165D01*
X-169348Y24172D01*
X-169341Y24177D01*
X-169294Y24255D01*
X-169245Y24332D01*
X-169244Y24341D01*
X-169239Y24348D01*
X-169212Y24512D01*
X-169212Y27604D01*
X-168319Y28497D01*
X-157055Y28497D01*
X-156162Y27604D01*
X-156162Y24512D01*
X-156161Y24504D01*
X-156162Y24495D01*
X-156141Y24407D01*
X-156123Y24317D01*
X-156118Y24310D01*
X-156116Y24302D01*
X-156062Y24229D01*
X-156010Y24153D01*
X-156003Y24149D01*
X-155998Y24142D01*
X-155920Y24095D01*
X-155843Y24046D01*
X-155834Y24045D01*
X-155827Y24040D01*
X-155663Y24013D01*
X-152627Y24013D01*
X-148764Y20150D01*
X-148761Y20148D01*
X-148758Y20144D01*
X-148678Y20093D01*
X-148598Y20040D01*
X-148594Y20040D01*
X-148591Y20037D01*
X-148497Y20022D01*
X-148403Y20004D01*
X-148399Y20005D01*
X-148395Y20004D01*
X-148303Y20026D01*
X-148209Y20047D01*
X-148205Y20049D01*
X-148201Y20050D01*
X-148125Y20106D01*
X-148047Y20162D01*
X-148044Y20166D01*
X-148041Y20168D01*
X-147992Y20250D01*
X-147942Y20331D01*
X-147942Y20336D01*
X-147940Y20339D01*
X-147912Y20503D01*
X-147912Y31299D01*
X-147914Y31311D01*
X-147912Y31324D01*
X-147934Y31408D01*
X-147951Y31494D01*
X-147959Y31504D01*
X-147962Y31516D01*
X-148003Y31574D01*
X-148003Y43860D01*
X-147110Y44753D01*
X-135846Y44753D01*
X-134953Y43860D01*
X-134953Y42075D01*
X-134952Y42071D01*
X-134953Y42067D01*
X-134933Y41974D01*
X-134914Y41881D01*
X-134911Y41877D01*
X-134910Y41873D01*
X-134855Y41795D01*
X-134801Y41717D01*
X-134798Y41714D01*
X-134795Y41711D01*
X-134714Y41661D01*
X-134634Y41610D01*
X-134629Y41609D01*
X-134626Y41607D01*
X-134532Y41592D01*
X-134437Y41576D01*
X-134433Y41577D01*
X-134429Y41577D01*
X-134337Y41600D01*
X-134244Y41623D01*
X-134241Y41625D01*
X-134237Y41626D01*
X-134101Y41722D01*
X-132798Y43026D01*
X-128822Y43026D01*
X-128107Y42310D01*
X-128103Y42308D01*
X-128101Y42305D01*
X-128021Y42254D01*
X-127941Y42201D01*
X-127937Y42200D01*
X-127934Y42198D01*
X-127840Y42182D01*
X-127746Y42164D01*
X-127742Y42165D01*
X-127737Y42164D01*
X-127646Y42186D01*
X-127552Y42207D01*
X-127548Y42210D01*
X-127544Y42211D01*
X-127468Y42267D01*
X-127389Y42322D01*
X-127387Y42326D01*
X-127384Y42328D01*
X-127335Y42410D01*
X-127285Y42492D01*
X-127285Y42496D01*
X-127282Y42499D01*
X-127255Y42663D01*
X-127255Y59066D01*
X-127257Y59078D01*
X-127255Y59091D01*
X-127277Y59175D01*
X-127294Y59261D01*
X-127301Y59271D01*
X-127305Y59283D01*
X-127401Y59419D01*
X-133748Y65766D01*
X-133759Y65773D01*
X-133766Y65783D01*
X-133841Y65828D01*
X-133914Y65876D01*
X-133926Y65878D01*
X-133937Y65885D01*
X-134101Y65912D01*
X-201179Y65912D01*
X-201191Y65910D01*
X-201204Y65912D01*
X-201288Y65890D01*
X-201374Y65873D01*
X-201384Y65866D01*
X-201396Y65862D01*
X-201532Y65766D01*
X-229723Y37575D01*
X-229730Y37564D01*
X-229740Y37557D01*
X-229785Y37482D01*
X-229833Y37409D01*
X-229835Y37397D01*
X-229842Y37386D01*
X-229869Y37222D01*
X-229869Y35949D01*
X-229867Y35936D01*
X-229869Y35924D01*
X-229847Y35839D01*
X-229830Y35754D01*
X-229823Y35743D01*
X-229819Y35731D01*
X-229723Y35595D01*
X-227611Y33484D01*
X-227611Y29508D01*
X-230422Y26697D01*
X-234398Y26697D01*
X-234831Y27131D01*
X-234834Y27133D01*
X-234837Y27136D01*
X-234917Y27188D01*
X-234997Y27240D01*
X-235001Y27241D01*
X-235004Y27243D01*
X-235098Y27259D01*
X-235192Y27277D01*
X-235196Y27276D01*
X-235201Y27277D01*
X-235292Y27255D01*
X-235386Y27234D01*
X-235390Y27231D01*
X-235394Y27230D01*
X-235470Y27174D01*
X-235549Y27119D01*
X-235551Y27115D01*
X-235554Y27113D01*
X-235602Y27031D01*
X-235653Y26949D01*
X-235653Y26945D01*
X-235656Y26942D01*
X-235683Y26778D01*
X-235683Y26304D01*
X-235673Y26253D01*
X-235672Y26200D01*
X-235653Y26156D01*
X-235644Y26109D01*
X-235614Y26066D01*
X-235593Y26018D01*
X-235558Y25985D01*
X-235531Y25945D01*
X-235487Y25917D01*
X-235449Y25881D01*
X-235396Y25859D01*
X-235364Y25838D01*
X-235333Y25833D01*
X-235295Y25817D01*
X-234705Y25683D01*
X-234701Y25676D01*
X-234649Y25622D01*
X-234603Y25563D01*
X-234579Y25548D01*
X-234564Y25532D01*
X-234524Y25515D01*
X-234461Y25477D01*
X-232251Y24609D01*
X-232177Y24596D01*
X-232105Y24576D01*
X-232076Y24579D01*
X-232055Y24575D01*
X-232012Y24585D01*
X-231939Y24592D01*
X-231931Y24594D01*
X-231369Y24269D01*
X-231338Y24259D01*
X-231301Y24237D01*
X-230697Y24000D01*
X-230693Y23992D01*
X-230650Y23931D01*
X-230614Y23865D01*
X-230592Y23847D01*
X-230579Y23829D01*
X-230542Y23806D01*
X-230485Y23759D01*
X-228429Y22572D01*
X-228358Y22548D01*
X-228290Y22518D01*
X-228262Y22516D01*
X-228241Y22509D01*
X-228197Y22512D01*
X-228124Y22508D01*
X-228116Y22509D01*
X-227608Y22104D01*
X-227580Y22090D01*
X-227546Y22062D01*
X-226984Y21738D01*
X-226982Y21730D01*
X-226965Y21696D01*
X-226964Y21691D01*
X-226960Y21687D01*
X-226948Y21663D01*
X-226922Y21593D01*
X-226903Y21572D01*
X-226893Y21552D01*
X-226859Y21523D01*
X-226811Y21469D01*
X-224954Y19988D01*
X-224887Y19954D01*
X-224825Y19914D01*
X-224797Y19908D01*
X-224777Y19898D01*
X-224733Y19895D01*
X-224662Y19880D01*
X-224653Y19879D01*
X-224212Y19403D01*
X-224186Y19385D01*
X-224157Y19352D01*
X-223649Y18947D01*
X-223648Y18939D01*
X-223625Y18868D01*
X-223609Y18795D01*
X-223594Y18771D01*
X-223587Y18750D01*
X-223558Y18717D01*
X-223518Y18656D01*
X-221903Y16915D01*
X-221842Y16872D01*
X-221786Y16822D01*
X-221760Y16812D01*
X-221742Y16799D01*
X-221699Y16790D01*
X-221630Y16764D01*
X-221622Y16763D01*
X-221256Y16226D01*
X-221233Y16204D01*
X-221210Y16168D01*
X-220768Y15692D01*
X-220768Y15683D01*
X-220756Y15609D01*
X-220751Y15535D01*
X-220739Y15509D01*
X-220736Y15487D01*
X-220712Y15450D01*
X-220682Y15384D01*
X-219344Y13422D01*
X-219291Y13369D01*
X-219242Y13312D01*
X-219218Y13298D01*
X-219202Y13283D01*
X-219161Y13267D01*
X-219097Y13232D01*
X-219089Y13229D01*
X-218807Y12644D01*
X-218788Y12619D01*
X-218770Y12579D01*
X-218404Y12043D01*
X-218405Y12035D01*
X-218404Y11960D01*
X-218411Y11885D01*
X-218403Y11858D01*
X-218403Y11836D01*
X-218385Y11795D01*
X-218365Y11725D01*
X-217335Y9586D01*
X-217289Y9526D01*
X-217250Y9462D01*
X-217228Y9445D01*
X-217214Y9428D01*
X-217176Y9406D01*
X-217118Y9361D01*
X-217111Y9357D01*
X-216919Y8737D01*
X-216908Y8715D01*
X-216907Y8711D01*
X-216904Y8707D01*
X-216892Y8667D01*
X-216610Y8082D01*
X-216613Y8074D01*
X-216623Y8000D01*
X-216641Y7927D01*
X-216637Y7899D01*
X-216640Y7877D01*
X-216628Y7835D01*
X-216619Y7762D01*
X-215919Y5494D01*
X-215883Y5428D01*
X-215854Y5359D01*
X-215834Y5338D01*
X-215824Y5319D01*
X-215789Y5292D01*
X-215738Y5239D01*
X-215732Y5234D01*
X-215635Y4592D01*
X-215624Y4562D01*
X-215618Y4519D01*
X-215427Y3898D01*
X-215431Y3891D01*
X-215452Y3819D01*
X-215480Y3750D01*
X-215481Y3722D01*
X-215487Y3701D01*
X-215482Y3657D01*
X-215483Y3584D01*
X-215129Y1236D01*
X-215103Y1165D01*
X-215085Y1093D01*
X-215069Y1070D01*
X-215061Y1049D01*
X-215031Y1017D01*
X-214989Y957D01*
X-214983Y951D01*
X-214983Y302D01*
X-214976Y271D01*
X-214977Y227D01*
X-214880Y-415D01*
X-214885Y-421D01*
X-214917Y-489D01*
X-214955Y-554D01*
X-214960Y-582D01*
X-214969Y-602D01*
X-214971Y-646D01*
X-214983Y-718D01*
X-214983Y-3092D01*
X-214968Y-3166D01*
X-214960Y-3240D01*
X-214948Y-3265D01*
X-214943Y-3287D01*
X-214918Y-3323D01*
X-214885Y-3389D01*
X-214880Y-3395D01*
X-214977Y-4037D01*
X-214976Y-4069D01*
X-214983Y-4112D01*
X-214983Y-4761D01*
X-214989Y-4767D01*
X-215030Y-4830D01*
X-215077Y-4888D01*
X-215086Y-4915D01*
X-215098Y-4933D01*
X-215106Y-4976D01*
X-215129Y-5046D01*
X-215483Y-7394D01*
X-215479Y-7469D01*
X-215483Y-7543D01*
X-215474Y-7570D01*
X-215473Y-7592D01*
X-215454Y-7632D01*
X-215431Y-7701D01*
X-215427Y-7708D01*
X-215618Y-8329D01*
X-215622Y-8361D01*
X-215635Y-8402D01*
X-215732Y-9044D01*
X-215738Y-9049D01*
X-215789Y-9105D01*
X-215844Y-9155D01*
X-215857Y-9180D01*
X-215872Y-9197D01*
X-215886Y-9238D01*
X-215919Y-9304D01*
X-216619Y-11572D01*
X-216626Y-11647D01*
X-216641Y-11720D01*
X-216636Y-11748D01*
X-216638Y-11770D01*
X-216625Y-11812D01*
X-216613Y-11884D01*
X-216610Y-11892D01*
X-216892Y-12477D01*
X-216900Y-12508D01*
X-216919Y-12547D01*
X-217111Y-13167D01*
X-217118Y-13171D01*
X-217176Y-13219D01*
X-217238Y-13260D01*
X-217255Y-13283D01*
X-217272Y-13297D01*
X-217292Y-13336D01*
X-217335Y-13396D01*
X-218365Y-15535D01*
X-218383Y-15608D01*
X-218409Y-15678D01*
X-218408Y-15707D01*
X-218414Y-15728D01*
X-218407Y-15772D01*
X-218405Y-15845D01*
X-218404Y-15853D01*
X-218770Y-16389D01*
X-218782Y-16419D01*
X-218807Y-16454D01*
X-219089Y-17039D01*
X-219097Y-17042D01*
X-219161Y-17080D01*
X-219229Y-17112D01*
X-219248Y-17132D01*
X-219267Y-17143D01*
X-219294Y-17179D01*
X-219302Y-17188D01*
X-219309Y-17192D01*
X-219313Y-17199D01*
X-219344Y-17232D01*
X-220682Y-19194D01*
X-220711Y-19263D01*
X-220747Y-19328D01*
X-220750Y-19357D01*
X-220759Y-19377D01*
X-220759Y-19421D01*
X-220768Y-19493D01*
X-220768Y-19502D01*
X-221210Y-19978D01*
X-221226Y-20005D01*
X-221256Y-20036D01*
X-221622Y-20573D01*
X-221630Y-20574D01*
X-221699Y-20603D01*
X-221771Y-20624D01*
X-221794Y-20641D01*
X-221814Y-20649D01*
X-221845Y-20681D01*
X-221903Y-20725D01*
X-223518Y-22466D01*
X-223557Y-22530D01*
X-223602Y-22590D01*
X-223610Y-22617D01*
X-223622Y-22636D01*
X-223628Y-22679D01*
X-223648Y-22749D01*
X-223649Y-22757D01*
X-224157Y-23162D01*
X-224172Y-23180D01*
X-224176Y-23183D01*
X-224180Y-23189D01*
X-224212Y-23213D01*
X-224653Y-23689D01*
X-224662Y-23690D01*
X-224735Y-23707D01*
X-224809Y-23718D01*
X-224833Y-23731D01*
X-224855Y-23737D01*
X-224890Y-23763D01*
X-224954Y-23798D01*
X-226811Y-25279D01*
X-226859Y-25336D01*
X-226912Y-25388D01*
X-226924Y-25414D01*
X-226938Y-25431D01*
X-226951Y-25473D01*
X-226982Y-25540D01*
X-226984Y-25548D01*
X-227546Y-25872D01*
X-227570Y-25894D01*
X-227608Y-25914D01*
X-228116Y-26319D01*
X-228124Y-26318D01*
X-228198Y-26325D01*
X-228273Y-26324D01*
X-228300Y-26334D01*
X-228322Y-26336D01*
X-228361Y-26357D01*
X-228429Y-26382D01*
X-230485Y-27569D01*
X-230542Y-27619D01*
X-230602Y-27663D01*
X-230618Y-27686D01*
X-230634Y-27701D01*
X-230653Y-27741D01*
X-230693Y-27802D01*
X-230697Y-27810D01*
X-231301Y-28047D01*
X-231323Y-28061D01*
X-231333Y-28063D01*
X-231343Y-28070D01*
X-231369Y-28079D01*
X-231931Y-28404D01*
X-231939Y-28402D01*
X-232014Y-28397D01*
X-232088Y-28385D01*
X-232115Y-28391D01*
X-232137Y-28390D01*
X-232179Y-28404D01*
X-232251Y-28419D01*
X-234461Y-29287D01*
X-234524Y-29328D01*
X-234590Y-29362D01*
X-234609Y-29383D01*
X-234628Y-29395D01*
X-234652Y-29431D01*
X-234701Y-29486D01*
X-234705Y-29493D01*
X-235339Y-29637D01*
X-235368Y-29651D01*
X-235410Y-29659D01*
X-236015Y-29897D01*
X-236022Y-29893D01*
X-236095Y-29878D01*
X-236167Y-29855D01*
X-236195Y-29856D01*
X-236216Y-29852D01*
X-236260Y-29860D01*
X-236333Y-29864D01*
X-238648Y-30393D01*
X-238716Y-30423D01*
X-238787Y-30447D01*
X-238809Y-30466D01*
X-238829Y-30475D01*
X-238859Y-30507D01*
X-238915Y-30554D01*
X-238920Y-30560D01*
X-239568Y-30608D01*
X-239599Y-30617D01*
X-239642Y-30619D01*
X-240275Y-30764D01*
X-240282Y-30760D01*
X-240352Y-30733D01*
X-240419Y-30700D01*
X-240447Y-30697D01*
X-240468Y-30690D01*
X-240512Y-30691D01*
X-240585Y-30685D01*
X-241536Y-30756D01*
X-241622Y-30780D01*
X-241709Y-30801D01*
X-241717Y-30807D01*
X-241728Y-30810D01*
X-241797Y-30866D01*
X-241869Y-30919D01*
X-241874Y-30928D01*
X-241883Y-30934D01*
X-241925Y-31013D01*
X-241971Y-31090D01*
X-241972Y-31101D01*
X-241977Y-31109D01*
X-241981Y-31150D01*
X-241998Y-31254D01*
X-241998Y-67495D01*
X-241983Y-67570D01*
X-241975Y-67645D01*
X-241963Y-67666D01*
X-241959Y-67690D01*
X-241916Y-67753D01*
X-241879Y-67819D01*
X-241860Y-67834D01*
X-241846Y-67854D01*
X-241782Y-67895D01*
X-241722Y-67942D01*
X-241696Y-67949D01*
X-241679Y-67961D01*
X-241635Y-67968D01*
X-241563Y-67990D01*
X-241315Y-68022D01*
X-239747Y-68224D01*
X-238031Y-68671D01*
X-238031Y-71364D01*
X-240637Y-70692D01*
X-240672Y-70690D01*
X-240719Y-70678D01*
X-243890Y-70408D01*
X-243919Y-70411D01*
X-243949Y-70406D01*
X-244017Y-70422D01*
X-244087Y-70430D01*
X-244113Y-70445D01*
X-244142Y-70452D01*
X-244199Y-70494D01*
X-244260Y-70529D01*
X-244278Y-70552D01*
X-244302Y-70570D01*
X-244338Y-70630D01*
X-244381Y-70687D01*
X-244388Y-70715D01*
X-244404Y-70741D01*
X-244420Y-70837D01*
X-244431Y-70879D01*
X-244429Y-70891D01*
X-244431Y-70905D01*
X-244431Y-89616D01*
X-260681Y-98972D01*
X-260703Y-98992D01*
X-260730Y-99004D01*
X-260777Y-99057D01*
X-260830Y-99104D01*
X-260843Y-99130D01*
X-260863Y-99152D01*
X-260886Y-99219D01*
X-260916Y-99283D01*
X-260918Y-99313D01*
X-260927Y-99340D01*
X-260922Y-99411D01*
X-260925Y-99482D01*
X-260915Y-99510D01*
X-260913Y-99539D01*
X-260872Y-99627D01*
X-260869Y-99638D01*
X-260866Y-99642D01*
X-260856Y-99668D01*
X-260848Y-99677D01*
X-260842Y-99689D01*
X-259029Y-102304D01*
X-259004Y-102329D01*
X-258976Y-102369D01*
X-256753Y-104645D01*
X-256724Y-104665D01*
X-256690Y-104700D01*
X-254117Y-106573D01*
X-254086Y-106588D01*
X-254046Y-106616D01*
X-251198Y-108035D01*
X-251164Y-108044D01*
X-251120Y-108066D01*
X-248075Y-108989D01*
X-248040Y-108992D01*
X-247993Y-109006D01*
X-244837Y-109409D01*
X-244802Y-109406D01*
X-244753Y-109413D01*
X-241574Y-109283D01*
X-241540Y-109275D01*
X-241491Y-109273D01*
X-238378Y-108615D01*
X-238346Y-108601D01*
X-238298Y-108591D01*
X-238031Y-108486D01*
X-238031Y-111191D01*
X-240489Y-111743D01*
X-243280Y-112006D01*
X-246082Y-111914D01*
X-248849Y-111468D01*
X-251538Y-110675D01*
X-254104Y-109548D01*
X-256508Y-108105D01*
X-258709Y-106370D01*
X-260673Y-104370D01*
X-261847Y-102823D01*
X-261905Y-102772D01*
X-261957Y-102717D01*
X-261979Y-102707D01*
X-261996Y-102692D01*
X-262069Y-102668D01*
X-262140Y-102637D01*
X-262163Y-102637D01*
X-262185Y-102629D01*
X-262262Y-102636D01*
X-262339Y-102635D01*
X-262363Y-102644D01*
X-262383Y-102646D01*
X-262422Y-102666D01*
X-262494Y-102693D01*
X-293758Y-120781D01*
X-293824Y-120840D01*
X-293893Y-120896D01*
X-293898Y-120906D01*
X-293906Y-120913D01*
X-293945Y-120993D01*
X-293986Y-121072D01*
X-293987Y-121083D01*
X-293992Y-121092D01*
X-293996Y-121181D01*
X-294004Y-121270D01*
X-294000Y-121281D01*
X-294001Y-121291D01*
X-293986Y-121329D01*
X-293957Y-121430D01*
X-293485Y-122408D01*
X-293440Y-122468D01*
X-293401Y-122532D01*
X-293378Y-122549D01*
X-293365Y-122567D01*
X-293327Y-122588D01*
X-293269Y-122633D01*
X-293261Y-122637D01*
X-293070Y-123257D01*
X-293054Y-123285D01*
X-293042Y-123327D01*
X-292760Y-123912D01*
X-292763Y-123919D01*
X-292773Y-123994D01*
X-292790Y-124067D01*
X-292787Y-124095D01*
X-292790Y-124116D01*
X-292778Y-124159D01*
X-292769Y-124231D01*
X-292069Y-126496D01*
X-292033Y-126561D01*
X-292003Y-126631D01*
X-291984Y-126651D01*
X-291973Y-126670D01*
X-291939Y-126698D01*
X-291888Y-126750D01*
X-291881Y-126755D01*
X-291784Y-127397D01*
X-291773Y-127427D01*
X-291767Y-127470D01*
X-291576Y-128091D01*
X-291579Y-128098D01*
X-291600Y-128170D01*
X-291629Y-128239D01*
X-291629Y-128267D01*
X-291635Y-128289D01*
X-291630Y-128332D01*
X-291631Y-128406D01*
X-291277Y-130749D01*
X-291251Y-130819D01*
X-291232Y-130892D01*
X-291216Y-130915D01*
X-291208Y-130936D01*
X-291178Y-130968D01*
X-291136Y-131027D01*
X-291130Y-131033D01*
X-291130Y-131683D01*
X-291123Y-131714D01*
X-291124Y-131757D01*
X-291027Y-132399D01*
X-291032Y-132406D01*
X-291063Y-132474D01*
X-291102Y-132538D01*
X-291106Y-132566D01*
X-291116Y-132586D01*
X-291117Y-132630D01*
X-291129Y-132702D01*
X-291128Y-135073D01*
X-291113Y-135146D01*
X-291105Y-135221D01*
X-291092Y-135246D01*
X-291088Y-135267D01*
X-291063Y-135304D01*
X-291030Y-135369D01*
X-291025Y-135375D01*
X-291122Y-136018D01*
X-291120Y-136050D01*
X-291127Y-136092D01*
X-291127Y-136742D01*
X-291133Y-136747D01*
X-291174Y-136810D01*
X-291221Y-136868D01*
X-291230Y-136895D01*
X-291242Y-136913D01*
X-291250Y-136957D01*
X-291273Y-137026D01*
X-291625Y-139370D01*
X-291621Y-139445D01*
X-291625Y-139520D01*
X-291616Y-139547D01*
X-291615Y-139569D01*
X-291595Y-139608D01*
X-291572Y-139678D01*
X-291569Y-139685D01*
X-291760Y-140306D01*
X-291763Y-140337D01*
X-291776Y-140379D01*
X-291873Y-141021D01*
X-291879Y-141026D01*
X-291929Y-141081D01*
X-291985Y-141132D01*
X-291998Y-141157D01*
X-292012Y-141173D01*
X-292027Y-141215D01*
X-292060Y-141280D01*
X-292757Y-143546D01*
X-292764Y-143620D01*
X-292779Y-143694D01*
X-292774Y-143722D01*
X-292776Y-143743D01*
X-292763Y-143785D01*
X-292751Y-143858D01*
X-292748Y-143865D01*
X-293030Y-144451D01*
X-293037Y-144481D01*
X-293057Y-144520D01*
X-293248Y-145141D01*
X-293255Y-145145D01*
X-293313Y-145192D01*
X-293375Y-145234D01*
X-293392Y-145257D01*
X-293409Y-145271D01*
X-293429Y-145310D01*
X-293471Y-145370D01*
X-294499Y-147506D01*
X-294517Y-147578D01*
X-294542Y-147649D01*
X-294542Y-147677D01*
X-294547Y-147698D01*
X-294541Y-147742D01*
X-294539Y-147815D01*
X-294538Y-147823D01*
X-294903Y-148360D01*
X-294915Y-148389D01*
X-294940Y-148425D01*
X-295222Y-149010D01*
X-295229Y-149013D01*
X-295294Y-149051D01*
X-295362Y-149083D01*
X-295381Y-149103D01*
X-295400Y-149114D01*
X-295426Y-149150D01*
X-295477Y-149203D01*
X-296811Y-151162D01*
X-296840Y-151231D01*
X-296876Y-151297D01*
X-296879Y-151325D01*
X-296888Y-151345D01*
X-296888Y-151389D01*
X-296897Y-151462D01*
X-296897Y-151470D01*
X-297338Y-151946D01*
X-297355Y-151974D01*
X-297385Y-152005D01*
X-297750Y-152542D01*
X-297758Y-152543D01*
X-297828Y-152571D01*
X-297900Y-152593D01*
X-297922Y-152610D01*
X-297942Y-152618D01*
X-297973Y-152650D01*
X-298031Y-152694D01*
X-299643Y-154433D01*
X-299682Y-154497D01*
X-299727Y-154557D01*
X-299734Y-154584D01*
X-299746Y-154602D01*
X-299752Y-154646D01*
X-299773Y-154716D01*
X-299773Y-154724D01*
X-300281Y-155130D01*
X-300301Y-155154D01*
X-300336Y-155181D01*
X-300777Y-155657D01*
X-300785Y-155657D01*
X-300858Y-155675D01*
X-300932Y-155685D01*
X-300957Y-155699D01*
X-300978Y-155704D01*
X-301014Y-155731D01*
X-301078Y-155766D01*
X-302930Y-157245D01*
X-302978Y-157302D01*
X-303032Y-157355D01*
X-303043Y-157380D01*
X-303057Y-157397D01*
X-303070Y-157440D01*
X-303101Y-157506D01*
X-303103Y-157514D01*
X-303665Y-157839D01*
X-303689Y-157860D01*
X-303727Y-157881D01*
X-304234Y-158286D01*
X-304242Y-158285D01*
X-304317Y-158292D01*
X-304392Y-158291D01*
X-304418Y-158301D01*
X-304440Y-158303D01*
X-304479Y-158324D01*
X-304548Y-158349D01*
X-306600Y-159536D01*
X-306656Y-159585D01*
X-306717Y-159629D01*
X-306732Y-159653D01*
X-306749Y-159668D01*
X-306768Y-159707D01*
X-306808Y-159769D01*
X-306811Y-159776D01*
X-307415Y-160014D01*
X-307442Y-160031D01*
X-307482Y-160046D01*
X-308045Y-160371D01*
X-308053Y-160369D01*
X-308128Y-160365D01*
X-308201Y-160353D01*
X-308229Y-160358D01*
X-308251Y-160357D01*
X-308293Y-160372D01*
X-308364Y-160387D01*
X-310570Y-161254D01*
X-310633Y-161295D01*
X-310700Y-161329D01*
X-310718Y-161350D01*
X-310737Y-161362D01*
X-310762Y-161399D01*
X-310810Y-161453D01*
X-310815Y-161460D01*
X-311448Y-161605D01*
X-311477Y-161618D01*
X-311519Y-161627D01*
X-312123Y-161865D01*
X-312131Y-161862D01*
X-312147Y-161858D01*
X-312160Y-161850D01*
X-312224Y-161840D01*
X-312276Y-161823D01*
X-312304Y-161825D01*
X-312325Y-161820D01*
X-312339Y-161823D01*
X-312342Y-161823D01*
X-312371Y-161828D01*
X-312442Y-161833D01*
X-314752Y-162361D01*
X-314820Y-162392D01*
X-314891Y-162416D01*
X-314913Y-162434D01*
X-314933Y-162443D01*
X-314963Y-162476D01*
X-315019Y-162523D01*
X-315025Y-162529D01*
X-315672Y-162578D01*
X-315703Y-162586D01*
X-315746Y-162589D01*
X-316379Y-162734D01*
X-316386Y-162729D01*
X-316456Y-162703D01*
X-316523Y-162670D01*
X-316552Y-162667D01*
X-316572Y-162659D01*
X-316616Y-162661D01*
X-316689Y-162655D01*
X-319052Y-162833D01*
X-319125Y-162854D01*
X-319198Y-162867D01*
X-319223Y-162881D01*
X-319244Y-162887D01*
X-319278Y-162915D01*
X-319341Y-162953D01*
X-319347Y-162958D01*
X-319995Y-162910D01*
X-320026Y-162914D01*
X-320069Y-162910D01*
X-320717Y-162959D01*
X-320723Y-162954D01*
X-320789Y-162917D01*
X-320850Y-162874D01*
X-320877Y-162867D01*
X-320897Y-162857D01*
X-320941Y-162852D01*
X-321011Y-162834D01*
X-323375Y-162659D01*
X-323449Y-162668D01*
X-323524Y-162670D01*
X-323550Y-162681D01*
X-323572Y-162684D01*
X-323610Y-162706D01*
X-323678Y-162734D01*
X-323685Y-162738D01*
X-324318Y-162594D01*
X-324350Y-162593D01*
X-324392Y-162583D01*
X-325040Y-162535D01*
X-325045Y-162529D01*
X-325104Y-162483D01*
X-325159Y-162431D01*
X-325185Y-162420D01*
X-325202Y-162407D01*
X-325245Y-162396D01*
X-325312Y-162368D01*
X-327623Y-161842D01*
X-327699Y-161840D01*
X-327773Y-161831D01*
X-327800Y-161838D01*
X-327822Y-161837D01*
X-327863Y-161853D01*
X-327934Y-161871D01*
X-327942Y-161874D01*
X-328546Y-161637D01*
X-328578Y-161632D01*
X-328618Y-161615D01*
X-329251Y-161471D01*
X-329255Y-161464D01*
X-329307Y-161410D01*
X-329353Y-161351D01*
X-329377Y-161337D01*
X-329393Y-161321D01*
X-329433Y-161303D01*
X-329496Y-161265D01*
X-331703Y-160401D01*
X-331776Y-160388D01*
X-331849Y-160368D01*
X-331877Y-160371D01*
X-331898Y-160367D01*
X-331941Y-160377D01*
X-332014Y-160384D01*
X-332022Y-160386D01*
X-332585Y-160061D01*
X-332615Y-160051D01*
X-332652Y-160029D01*
X-333257Y-159792D01*
X-333260Y-159785D01*
X-333303Y-159723D01*
X-333340Y-159658D01*
X-333362Y-159640D01*
X-333374Y-159622D01*
X-333412Y-159599D01*
X-333468Y-159552D01*
X-335521Y-158368D01*
X-335593Y-158344D01*
X-335661Y-158314D01*
X-335689Y-158312D01*
X-335710Y-158305D01*
X-335754Y-158309D01*
X-335827Y-158305D01*
X-335835Y-158306D01*
X-336343Y-157901D01*
X-336372Y-157886D01*
X-336405Y-157859D01*
X-336968Y-157534D01*
X-336970Y-157527D01*
X-337003Y-157460D01*
X-337030Y-157389D01*
X-337049Y-157368D01*
X-337058Y-157349D01*
X-337092Y-157320D01*
X-337141Y-157266D01*
X-338995Y-155789D01*
X-339061Y-155755D01*
X-339124Y-155714D01*
X-339152Y-155709D01*
X-339172Y-155699D01*
X-339216Y-155695D01*
X-339287Y-155681D01*
X-339296Y-155680D01*
X-339738Y-155204D01*
X-339764Y-155186D01*
X-339792Y-155154D01*
X-340300Y-154749D01*
X-340301Y-154741D01*
X-340324Y-154670D01*
X-340340Y-154596D01*
X-340356Y-154573D01*
X-340363Y-154552D01*
X-340391Y-154519D01*
X-340432Y-154457D01*
X-342045Y-152721D01*
X-342106Y-152677D01*
X-342162Y-152628D01*
X-342189Y-152618D01*
X-342206Y-152605D01*
X-342249Y-152595D01*
X-342318Y-152570D01*
X-342326Y-152569D01*
X-342692Y-152032D01*
X-342715Y-152010D01*
X-342739Y-151974D01*
X-343181Y-151498D01*
X-343181Y-151490D01*
X-343193Y-151416D01*
X-343197Y-151341D01*
X-343209Y-151315D01*
X-343213Y-151294D01*
X-343236Y-151257D01*
X-343267Y-151190D01*
X-343869Y-150308D01*
X-343933Y-150245D01*
X-343995Y-150181D01*
X-344005Y-150176D01*
X-344012Y-150169D01*
X-344095Y-150137D01*
X-344177Y-150101D01*
X-344188Y-150101D01*
X-344197Y-150097D01*
X-344287Y-150100D01*
X-344376Y-150099D01*
X-344387Y-150103D01*
X-344396Y-150103D01*
X-344433Y-150120D01*
X-344532Y-150157D01*
X-375565Y-168112D01*
X-375570Y-168116D01*
X-375576Y-168118D01*
X-375644Y-168182D01*
X-375714Y-168244D01*
X-375717Y-168249D01*
X-375721Y-168253D01*
X-375760Y-168341D01*
X-375800Y-168423D01*
X-375800Y-168429D01*
X-375803Y-168435D01*
X-375804Y-168529D01*
X-375809Y-168622D01*
X-375806Y-168628D01*
X-375807Y-168634D01*
X-375750Y-168790D01*
X-374886Y-170316D01*
X-373851Y-172900D01*
X-373173Y-175601D01*
X-372863Y-178368D01*
X-372927Y-181152D01*
X-372938Y-181223D01*
X-375589Y-181223D01*
X-375434Y-179416D01*
X-375436Y-179383D01*
G37*
%LPC*%
G36*
X-272664Y-189894D02*
X-272664Y-189894D01*
X-279018Y-184172D01*
X-282496Y-176360D01*
X-282496Y-167810D01*
X-279018Y-159998D01*
X-272664Y-154276D01*
X-264531Y-151634D01*
X-256028Y-152528D01*
X-248622Y-156803D01*
X-243596Y-163721D01*
X-241818Y-172085D01*
X-243596Y-180449D01*
X-248622Y-187367D01*
X-256028Y-191642D01*
X-264531Y-192536D01*
X-272664Y-189894D01*
G37*
%LPD*%
%LPC*%
G36*
X52456Y-190021D02*
X52456Y-190021D01*
X46102Y-184299D01*
X42624Y-176487D01*
X42624Y-167937D01*
X46102Y-160125D01*
X52456Y-154403D01*
X60589Y-151761D01*
X69092Y-152655D01*
X76498Y-156930D01*
X81524Y-163848D01*
X83302Y-172212D01*
X81524Y-180576D01*
X76498Y-187494D01*
X69092Y-191769D01*
X60589Y-192663D01*
X52456Y-190021D01*
G37*
%LPD*%
%LPC*%
G36*
X-272537Y148942D02*
X-272537Y148942D01*
X-278891Y154664D01*
X-282369Y162476D01*
X-282369Y171026D01*
X-278891Y178838D01*
X-272537Y184560D01*
X-264404Y187202D01*
X-255901Y186308D01*
X-248495Y182033D01*
X-243469Y175115D01*
X-241691Y166751D01*
X-243469Y158387D01*
X-248495Y151469D01*
X-255901Y147194D01*
X-264404Y146300D01*
X-272537Y148942D01*
G37*
%LPD*%
%LPC*%
G36*
X52202Y149069D02*
X52202Y149069D01*
X45848Y154791D01*
X42370Y162603D01*
X42370Y171153D01*
X45848Y178965D01*
X52202Y184687D01*
X60335Y187329D01*
X68838Y186435D01*
X76244Y182160D01*
X81270Y175242D01*
X83048Y166878D01*
X81270Y158514D01*
X76244Y151596D01*
X68838Y147321D01*
X60335Y146427D01*
X52202Y149069D01*
G37*
%LPD*%
G36*
X-243906Y-29402D02*
X-243906Y-29402D01*
X-243895Y-29403D01*
X-239871Y-29101D01*
X-239840Y-29093D01*
X-239797Y-29090D01*
X-235863Y-28192D01*
X-235834Y-28179D01*
X-235791Y-28170D01*
X-232035Y-26696D01*
X-232008Y-26679D01*
X-231968Y-26664D01*
X-228473Y-24646D01*
X-228449Y-24625D01*
X-228411Y-24604D01*
X-225256Y-22088D01*
X-225236Y-22063D01*
X-225201Y-22037D01*
X-222457Y-19079D01*
X-222440Y-19052D01*
X-222410Y-19020D01*
X-220137Y-15686D01*
X-220124Y-15657D01*
X-220100Y-15622D01*
X-218349Y-11986D01*
X-218341Y-11955D01*
X-218321Y-11916D01*
X-217132Y-8060D01*
X-217129Y-8029D01*
X-217115Y-7987D01*
X-216514Y-3997D01*
X-216515Y-3965D01*
X-216508Y-3923D01*
X-216508Y113D01*
X-216515Y144D01*
X-216514Y187D01*
X-217115Y4177D01*
X-217126Y4207D01*
X-217132Y4250D01*
X-218321Y8106D01*
X-218337Y8134D01*
X-218349Y8176D01*
X-220100Y11812D01*
X-220119Y11837D01*
X-220137Y11876D01*
X-222410Y15210D01*
X-222433Y15233D01*
X-222457Y15269D01*
X-225201Y18227D01*
X-225227Y18246D01*
X-225256Y18278D01*
X-228411Y20794D01*
X-228439Y20808D01*
X-228473Y20836D01*
X-231968Y22854D01*
X-231998Y22864D01*
X-232035Y22886D01*
X-235791Y24360D01*
X-235823Y24366D01*
X-235863Y24382D01*
X-239797Y25280D01*
X-239829Y25281D01*
X-239871Y25291D01*
X-243895Y25593D01*
X-243922Y25589D01*
X-243949Y25594D01*
X-244019Y25577D01*
X-244092Y25568D01*
X-244116Y25554D01*
X-244142Y25548D01*
X-244201Y25505D01*
X-244264Y25468D01*
X-244280Y25446D01*
X-244302Y25430D01*
X-244339Y25367D01*
X-244383Y25309D01*
X-244390Y25282D01*
X-244404Y25259D01*
X-244421Y25155D01*
X-244431Y25116D01*
X-244429Y25106D01*
X-244431Y25095D01*
X-244431Y-28905D01*
X-244426Y-28932D01*
X-244428Y-28959D01*
X-244406Y-29028D01*
X-244392Y-29100D01*
X-244376Y-29122D01*
X-244368Y-29148D01*
X-244320Y-29204D01*
X-244279Y-29264D01*
X-244256Y-29278D01*
X-244238Y-29299D01*
X-244173Y-29332D01*
X-244112Y-29371D01*
X-244085Y-29375D01*
X-244060Y-29387D01*
X-243956Y-29397D01*
X-243915Y-29404D01*
X-243906Y-29402D01*
G37*
G36*
X-320039Y-161371D02*
X-320039Y-161371D01*
X-319996Y-161375D01*
X-315976Y-161071D01*
X-315945Y-161062D01*
X-315902Y-161060D01*
X-311972Y-160160D01*
X-311943Y-160147D01*
X-311901Y-160138D01*
X-308150Y-158663D01*
X-308123Y-158646D01*
X-308082Y-158631D01*
X-304592Y-156613D01*
X-304569Y-156592D01*
X-304531Y-156571D01*
X-301381Y-154056D01*
X-301360Y-154031D01*
X-301326Y-154005D01*
X-298586Y-151048D01*
X-298569Y-151021D01*
X-298539Y-150990D01*
X-296271Y-147658D01*
X-296258Y-147628D01*
X-296233Y-147593D01*
X-294486Y-143960D01*
X-294479Y-143929D01*
X-294459Y-143891D01*
X-293273Y-140038D01*
X-293270Y-140006D01*
X-293257Y-139965D01*
X-292658Y-135978D01*
X-292660Y-135947D01*
X-292653Y-135904D01*
X-292655Y-131873D01*
X-292662Y-131842D01*
X-292661Y-131798D01*
X-293264Y-127813D01*
X-293275Y-127783D01*
X-293281Y-127740D01*
X-294471Y-123888D01*
X-294486Y-123861D01*
X-294499Y-123819D01*
X-296250Y-120188D01*
X-296266Y-120166D01*
X-296276Y-120141D01*
X-296326Y-120088D01*
X-296370Y-120030D01*
X-296394Y-120016D01*
X-296412Y-119997D01*
X-296479Y-119967D01*
X-296543Y-119931D01*
X-296570Y-119928D01*
X-296595Y-119917D01*
X-296668Y-119916D01*
X-296740Y-119907D01*
X-296766Y-119915D01*
X-296794Y-119915D01*
X-296892Y-119951D01*
X-296931Y-119963D01*
X-296939Y-119969D01*
X-296949Y-119973D01*
X-343649Y-146973D01*
X-343670Y-146991D01*
X-343694Y-147002D01*
X-343727Y-147038D01*
X-343744Y-147050D01*
X-343755Y-147066D01*
X-343798Y-147105D01*
X-343810Y-147129D01*
X-343828Y-147149D01*
X-343852Y-147218D01*
X-343884Y-147284D01*
X-343885Y-147311D01*
X-343894Y-147337D01*
X-343889Y-147410D01*
X-343893Y-147483D01*
X-343883Y-147508D01*
X-343881Y-147535D01*
X-343837Y-147631D01*
X-343823Y-147669D01*
X-343817Y-147676D01*
X-343812Y-147687D01*
X-341539Y-151016D01*
X-341516Y-151038D01*
X-341492Y-151074D01*
X-338749Y-154028D01*
X-338723Y-154046D01*
X-338694Y-154078D01*
X-335541Y-156590D01*
X-335512Y-156604D01*
X-335479Y-156632D01*
X-331987Y-158645D01*
X-331957Y-158655D01*
X-331919Y-158678D01*
X-328166Y-160148D01*
X-328135Y-160154D01*
X-328095Y-160170D01*
X-324164Y-161065D01*
X-324132Y-161065D01*
X-324090Y-161076D01*
X-320070Y-161375D01*
X-320039Y-161371D01*
G37*
G36*
X-297216Y115855D02*
X-297216Y115855D01*
X-297144Y115861D01*
X-297119Y115873D01*
X-297093Y115878D01*
X-297032Y115919D01*
X-296967Y115952D01*
X-296950Y115973D01*
X-296927Y115988D01*
X-296866Y116074D01*
X-296840Y116106D01*
X-296838Y116115D01*
X-296831Y116124D01*
X-295080Y119755D01*
X-295072Y119786D01*
X-295052Y119824D01*
X-293862Y123676D01*
X-293859Y123708D01*
X-293845Y123749D01*
X-293242Y127734D01*
X-293243Y127766D01*
X-293236Y127809D01*
X-293234Y131840D01*
X-293240Y131871D01*
X-293239Y131914D01*
X-293838Y135901D01*
X-293849Y135931D01*
X-293854Y135974D01*
X-295040Y139827D01*
X-295055Y139855D01*
X-295067Y139896D01*
X-296814Y143529D01*
X-296833Y143554D01*
X-296852Y143594D01*
X-299120Y146926D01*
X-299143Y146948D01*
X-299167Y146984D01*
X-301907Y149941D01*
X-301933Y149959D01*
X-301962Y149992D01*
X-305112Y152507D01*
X-305140Y152522D01*
X-305173Y152549D01*
X-308663Y154567D01*
X-308694Y154577D01*
X-308731Y154599D01*
X-312482Y156074D01*
X-312514Y156080D01*
X-312553Y156096D01*
X-316483Y156996D01*
X-316515Y156996D01*
X-316557Y157007D01*
X-320577Y157311D01*
X-320608Y157307D01*
X-320651Y157311D01*
X-324671Y157012D01*
X-324702Y157003D01*
X-324745Y157001D01*
X-328676Y156106D01*
X-328705Y156093D01*
X-328747Y156084D01*
X-332500Y154614D01*
X-332527Y154596D01*
X-332568Y154581D01*
X-336060Y152568D01*
X-336084Y152547D01*
X-336122Y152526D01*
X-339275Y150014D01*
X-339295Y149990D01*
X-339330Y149964D01*
X-342073Y147010D01*
X-342090Y146983D01*
X-342120Y146952D01*
X-344393Y143623D01*
X-344403Y143597D01*
X-344421Y143576D01*
X-344442Y143507D01*
X-344470Y143439D01*
X-344470Y143412D01*
X-344478Y143386D01*
X-344470Y143313D01*
X-344470Y143240D01*
X-344459Y143215D01*
X-344456Y143188D01*
X-344420Y143125D01*
X-344391Y143058D01*
X-344372Y143039D01*
X-344359Y143015D01*
X-344277Y142948D01*
X-344248Y142920D01*
X-344239Y142916D01*
X-344230Y142909D01*
X-297530Y115909D01*
X-297505Y115900D01*
X-297482Y115884D01*
X-297411Y115869D01*
X-297342Y115846D01*
X-297315Y115848D01*
X-297288Y115842D01*
X-297216Y115855D01*
G37*
%LPC*%
G36*
X-136141Y162686D02*
X-136141Y162686D01*
X-137034Y163579D01*
X-137034Y181353D01*
X-136141Y182246D01*
X-118367Y182246D01*
X-117474Y181353D01*
X-117474Y163579D01*
X-118367Y162686D01*
X-136141Y162686D01*
G37*
%LPD*%
%LPC*%
G36*
X-78399Y162686D02*
X-78399Y162686D01*
X-81994Y164175D01*
X-84745Y166926D01*
X-86234Y170521D01*
X-86234Y174411D01*
X-84745Y178006D01*
X-81994Y180757D01*
X-78399Y182246D01*
X-74509Y182246D01*
X-70914Y180757D01*
X-68163Y178006D01*
X-66674Y174411D01*
X-66674Y170521D01*
X-68163Y166926D01*
X-70914Y164175D01*
X-74509Y162686D01*
X-78399Y162686D01*
G37*
%LPD*%
%LPC*%
G36*
X-103799Y162686D02*
X-103799Y162686D01*
X-107394Y164175D01*
X-110145Y166926D01*
X-111634Y170521D01*
X-111634Y174411D01*
X-110145Y178006D01*
X-107394Y180757D01*
X-103799Y182246D01*
X-99909Y182246D01*
X-96314Y180757D01*
X-93563Y178006D01*
X-92074Y174411D01*
X-92074Y170521D01*
X-93563Y166926D01*
X-96314Y164175D01*
X-99909Y162686D01*
X-103799Y162686D01*
G37*
%LPD*%
%LPC*%
G36*
X67666Y76279D02*
X67666Y76279D01*
X64334Y77659D01*
X61784Y80209D01*
X60404Y83541D01*
X60404Y87147D01*
X61784Y90479D01*
X64334Y93029D01*
X67666Y94409D01*
X71272Y94409D01*
X74604Y93029D01*
X77154Y90479D01*
X78534Y87147D01*
X78534Y83541D01*
X77154Y80209D01*
X74604Y77659D01*
X71272Y76279D01*
X67666Y76279D01*
G37*
%LPD*%
%LPC*%
G36*
X67666Y-101521D02*
X67666Y-101521D01*
X64334Y-100141D01*
X61784Y-97591D01*
X60404Y-94259D01*
X60404Y-90653D01*
X61784Y-87321D01*
X64334Y-84771D01*
X67666Y-83391D01*
X71272Y-83391D01*
X74604Y-84771D01*
X77154Y-87321D01*
X78534Y-90653D01*
X78534Y-94259D01*
X77154Y-97591D01*
X74604Y-100141D01*
X71272Y-101521D01*
X67666Y-101521D01*
G37*
%LPD*%
%LPC*%
G36*
X67666Y50879D02*
X67666Y50879D01*
X64334Y52259D01*
X61784Y54809D01*
X60404Y58141D01*
X60404Y61747D01*
X61784Y65079D01*
X64334Y67629D01*
X67666Y69009D01*
X71272Y69009D01*
X74604Y67629D01*
X77154Y65079D01*
X78534Y61747D01*
X78534Y58141D01*
X77154Y54809D01*
X74604Y52259D01*
X71272Y50879D01*
X67666Y50879D01*
G37*
%LPD*%
%LPC*%
G36*
X67666Y-76121D02*
X67666Y-76121D01*
X64334Y-74741D01*
X61784Y-72191D01*
X60404Y-68859D01*
X60404Y-65253D01*
X61784Y-61921D01*
X64334Y-59371D01*
X67666Y-57991D01*
X71272Y-57991D01*
X74604Y-59371D01*
X77154Y-61921D01*
X78534Y-65253D01*
X78534Y-68859D01*
X77154Y-72191D01*
X74604Y-74741D01*
X71272Y-76121D01*
X67666Y-76121D01*
G37*
%LPD*%
%LPC*%
G36*
X67666Y25479D02*
X67666Y25479D01*
X64334Y26859D01*
X61784Y29409D01*
X60404Y32741D01*
X60404Y36347D01*
X61784Y39679D01*
X64334Y42229D01*
X67666Y43609D01*
X71272Y43609D01*
X74604Y42229D01*
X77154Y39679D01*
X78534Y36347D01*
X78534Y32741D01*
X77154Y29409D01*
X74604Y26859D01*
X71272Y25479D01*
X67666Y25479D01*
G37*
%LPD*%
%LPC*%
G36*
X67666Y-50721D02*
X67666Y-50721D01*
X64334Y-49341D01*
X61784Y-46791D01*
X60404Y-43459D01*
X60404Y-39853D01*
X61784Y-36521D01*
X64334Y-33971D01*
X67666Y-32591D01*
X71272Y-32591D01*
X74604Y-33971D01*
X77154Y-36521D01*
X78534Y-39853D01*
X78534Y-43459D01*
X77154Y-46791D01*
X74604Y-49341D01*
X71272Y-50721D01*
X67666Y-50721D01*
G37*
%LPD*%
%LPC*%
G36*
X42266Y-50721D02*
X42266Y-50721D01*
X38934Y-49341D01*
X36384Y-46791D01*
X35004Y-43459D01*
X35004Y-39853D01*
X36384Y-36521D01*
X38934Y-33971D01*
X42266Y-32591D01*
X45872Y-32591D01*
X49204Y-33971D01*
X51754Y-36521D01*
X53134Y-39853D01*
X53134Y-43459D01*
X51754Y-46791D01*
X49204Y-49341D01*
X45872Y-50721D01*
X42266Y-50721D01*
G37*
%LPD*%
%LPC*%
G36*
X67666Y-25321D02*
X67666Y-25321D01*
X64334Y-23941D01*
X61784Y-21391D01*
X60404Y-18059D01*
X60404Y-14453D01*
X61784Y-11121D01*
X64334Y-8571D01*
X67666Y-7191D01*
X71272Y-7191D01*
X74604Y-8571D01*
X77154Y-11121D01*
X78534Y-14453D01*
X78534Y-18059D01*
X77154Y-21391D01*
X74604Y-23941D01*
X71272Y-25321D01*
X67666Y-25321D01*
G37*
%LPD*%
%LPC*%
G36*
X42266Y-25321D02*
X42266Y-25321D01*
X38934Y-23941D01*
X36384Y-21391D01*
X35004Y-18059D01*
X35004Y-14453D01*
X36384Y-11121D01*
X38934Y-8571D01*
X42266Y-7191D01*
X45872Y-7191D01*
X49204Y-8571D01*
X51754Y-11121D01*
X53134Y-14453D01*
X53134Y-18059D01*
X51754Y-21391D01*
X49204Y-23941D01*
X45872Y-25321D01*
X42266Y-25321D01*
G37*
%LPD*%
%LPC*%
G36*
X42266Y79D02*
X42266Y79D01*
X38934Y1459D01*
X36384Y4009D01*
X35004Y7341D01*
X35004Y10947D01*
X36384Y14279D01*
X38934Y16829D01*
X42266Y18209D01*
X45872Y18209D01*
X49204Y16829D01*
X51754Y14279D01*
X53134Y10947D01*
X53134Y7341D01*
X51754Y4009D01*
X49204Y1459D01*
X45872Y79D01*
X42266Y79D01*
G37*
%LPD*%
%LPC*%
G36*
X67666Y79D02*
X67666Y79D01*
X64334Y1459D01*
X61784Y4009D01*
X60404Y7341D01*
X60404Y10947D01*
X61784Y14279D01*
X64334Y16829D01*
X67666Y18209D01*
X71272Y18209D01*
X74604Y16829D01*
X77154Y14279D01*
X78534Y10947D01*
X78534Y7341D01*
X77154Y4009D01*
X74604Y1459D01*
X71272Y79D01*
X67666Y79D01*
G37*
%LPD*%
%LPC*%
G36*
X-182026Y-12105D02*
X-182026Y-12105D01*
X-182919Y-11212D01*
X-182919Y-8538D01*
X-182919Y-8537D01*
X-182919Y-8536D01*
X-182920Y-8534D01*
X-182919Y-8530D01*
X-182939Y-8437D01*
X-182958Y-8344D01*
X-182961Y-8340D01*
X-182962Y-8336D01*
X-183017Y-8258D01*
X-183071Y-8180D01*
X-183074Y-8177D01*
X-183077Y-8174D01*
X-183158Y-8124D01*
X-183238Y-8073D01*
X-183243Y-8072D01*
X-183246Y-8070D01*
X-183340Y-8055D01*
X-183435Y-8039D01*
X-183439Y-8040D01*
X-183443Y-8040D01*
X-183535Y-8063D01*
X-183628Y-8086D01*
X-183631Y-8088D01*
X-183635Y-8089D01*
X-183771Y-8185D01*
X-185464Y-9879D01*
X-189440Y-9879D01*
X-192251Y-7068D01*
X-192251Y-3092D01*
X-189440Y-281D01*
X-185464Y-281D01*
X-183771Y-1975D01*
X-183767Y-1977D01*
X-183765Y-1980D01*
X-183685Y-2032D01*
X-183605Y-2084D01*
X-183601Y-2085D01*
X-183598Y-2087D01*
X-183504Y-2103D01*
X-183410Y-2121D01*
X-183406Y-2120D01*
X-183401Y-2121D01*
X-183310Y-2099D01*
X-183216Y-2078D01*
X-183212Y-2075D01*
X-183208Y-2074D01*
X-183132Y-2018D01*
X-183053Y-1963D01*
X-183051Y-1959D01*
X-183048Y-1957D01*
X-182999Y-1875D01*
X-182949Y-1793D01*
X-182949Y-1789D01*
X-182946Y-1786D01*
X-182919Y-1622D01*
X-182919Y1052D01*
X-182026Y1945D01*
X-170762Y1945D01*
X-169869Y1052D01*
X-169869Y-11212D01*
X-170762Y-12105D01*
X-182026Y-12105D01*
G37*
%LPD*%
%LPC*%
G36*
X45068Y86343D02*
X45068Y86343D01*
X45068Y95425D01*
X51943Y95425D01*
X52590Y95252D01*
X53169Y94917D01*
X53642Y94444D01*
X53977Y93865D01*
X54150Y93218D01*
X54150Y86343D01*
X45068Y86343D01*
G37*
%LPD*%
%LPC*%
G36*
X33988Y86343D02*
X33988Y86343D01*
X33988Y93218D01*
X34161Y93865D01*
X34496Y94444D01*
X34969Y94917D01*
X35548Y95252D01*
X36195Y95425D01*
X43070Y95425D01*
X43070Y86343D01*
X33988Y86343D01*
G37*
%LPD*%
%LPC*%
G36*
X45068Y75263D02*
X45068Y75263D01*
X45068Y84345D01*
X54150Y84345D01*
X54150Y77470D01*
X53977Y76823D01*
X53642Y76244D01*
X53169Y75771D01*
X52590Y75436D01*
X51943Y75263D01*
X45068Y75263D01*
G37*
%LPD*%
%LPC*%
G36*
X36195Y75263D02*
X36195Y75263D01*
X35548Y75436D01*
X34969Y75771D01*
X34496Y76244D01*
X34161Y76823D01*
X33988Y77470D01*
X33988Y84345D01*
X43070Y84345D01*
X43070Y75263D01*
X36195Y75263D01*
G37*
%LPD*%
%LPC*%
G36*
X-236033Y68349D02*
X-236033Y68349D01*
X-234572Y69002D01*
X-234543Y69022D01*
X-234498Y69042D01*
X-231850Y70806D01*
X-231825Y70831D01*
X-231785Y70858D01*
X-229468Y73039D01*
X-229448Y73068D01*
X-229412Y73101D01*
X-227491Y75638D01*
X-227476Y75670D01*
X-227447Y75709D01*
X-225976Y78530D01*
X-225966Y78564D01*
X-225943Y78608D01*
X-224964Y81635D01*
X-224960Y81670D01*
X-224945Y81716D01*
X-224484Y84865D01*
X-224486Y84900D01*
X-224479Y84948D01*
X-224549Y88129D01*
X-224557Y88164D01*
X-224558Y88212D01*
X-224728Y89096D01*
X-222104Y89096D01*
X-221903Y87580D01*
X-221899Y84689D01*
X-222273Y81822D01*
X-223018Y79029D01*
X-224121Y76357D01*
X-225564Y73851D01*
X-227321Y71556D01*
X-229362Y69509D01*
X-231654Y67746D01*
X-234156Y66298D01*
X-236033Y65518D01*
X-236033Y68349D01*
G37*
%LPD*%
%LPC*%
G36*
X-224728Y-92906D02*
X-224728Y-92906D01*
X-224558Y-92022D01*
X-224558Y-91987D01*
X-224549Y-91939D01*
X-224479Y-88758D01*
X-224485Y-88724D01*
X-224484Y-88675D01*
X-224945Y-85526D01*
X-224957Y-85493D01*
X-224964Y-85445D01*
X-225943Y-82418D01*
X-225961Y-82387D01*
X-225976Y-82340D01*
X-227447Y-79519D01*
X-227469Y-79492D01*
X-227491Y-79448D01*
X-229412Y-76911D01*
X-229438Y-76888D01*
X-229468Y-76849D01*
X-231785Y-74668D01*
X-231815Y-74650D01*
X-231850Y-74616D01*
X-234498Y-72852D01*
X-234531Y-72839D01*
X-234572Y-72812D01*
X-236033Y-72159D01*
X-236033Y-69334D01*
X-234433Y-69976D01*
X-232470Y-71071D01*
X-232470Y-71072D01*
X-231985Y-71342D01*
X-230117Y-72721D01*
X-229730Y-73007D01*
X-227704Y-74943D01*
X-225939Y-77121D01*
X-224464Y-79505D01*
X-223302Y-82056D01*
X-222473Y-84734D01*
X-221990Y-87495D01*
X-221860Y-90295D01*
X-222070Y-92906D01*
X-224728Y-92906D01*
G37*
%LPD*%
%LPC*%
G36*
X-194445Y44916D02*
X-194445Y44916D01*
X-194445Y50751D01*
X-194272Y51398D01*
X-193937Y51977D01*
X-193464Y52450D01*
X-192885Y52785D01*
X-192238Y52958D01*
X-185403Y52958D01*
X-185403Y44916D01*
X-194445Y44916D01*
G37*
%LPD*%
%LPC*%
G36*
X-189202Y-81360D02*
X-189202Y-81360D01*
X-189781Y-81025D01*
X-190254Y-80552D01*
X-190589Y-79973D01*
X-190762Y-79326D01*
X-190762Y-73491D01*
X-181720Y-73491D01*
X-181720Y-81533D01*
X-188555Y-81533D01*
X-189202Y-81360D01*
G37*
%LPD*%
%LPC*%
G36*
X-179722Y-81533D02*
X-179722Y-81533D01*
X-179722Y-73491D01*
X-170680Y-73491D01*
X-170680Y-79326D01*
X-170853Y-79973D01*
X-171188Y-80552D01*
X-171661Y-81025D01*
X-172240Y-81360D01*
X-172887Y-81533D01*
X-179722Y-81533D01*
G37*
%LPD*%
%LPC*%
G36*
X-183405Y44916D02*
X-183405Y44916D01*
X-183405Y52958D01*
X-176570Y52958D01*
X-175923Y52785D01*
X-175344Y52450D01*
X-174871Y51977D01*
X-174536Y51398D01*
X-174363Y50751D01*
X-174363Y44916D01*
X-183405Y44916D01*
G37*
%LPD*%
%LPC*%
G36*
X-190762Y-71493D02*
X-190762Y-71493D01*
X-190762Y-65658D01*
X-190589Y-65011D01*
X-190254Y-64432D01*
X-189781Y-63959D01*
X-189202Y-63624D01*
X-188555Y-63451D01*
X-181720Y-63451D01*
X-181720Y-71493D01*
X-190762Y-71493D01*
G37*
%LPD*%
%LPC*%
G36*
X-192238Y34876D02*
X-192238Y34876D01*
X-192885Y35049D01*
X-193464Y35384D01*
X-193937Y35857D01*
X-194272Y36436D01*
X-194445Y37083D01*
X-194445Y42918D01*
X-185403Y42918D01*
X-185403Y34876D01*
X-192238Y34876D01*
G37*
%LPD*%
%LPC*%
G36*
X-183405Y34876D02*
X-183405Y34876D01*
X-183405Y42918D01*
X-174363Y42918D01*
X-174363Y37083D01*
X-174536Y36436D01*
X-174871Y35857D01*
X-175344Y35384D01*
X-175923Y35049D01*
X-176570Y34876D01*
X-183405Y34876D01*
G37*
%LPD*%
%LPC*%
G36*
X-179722Y-71493D02*
X-179722Y-71493D01*
X-179722Y-63451D01*
X-172887Y-63451D01*
X-172240Y-63624D01*
X-171661Y-63959D01*
X-171188Y-64432D01*
X-170853Y-65011D01*
X-170680Y-65658D01*
X-170680Y-71493D01*
X-179722Y-71493D01*
G37*
%LPD*%
%LPC*%
G36*
X-61826Y173465D02*
X-61826Y173465D01*
X-61584Y174994D01*
X-61059Y176610D01*
X-60287Y178124D01*
X-59289Y179499D01*
X-58087Y180701D01*
X-56712Y181699D01*
X-55198Y182471D01*
X-53582Y182996D01*
X-52053Y183238D01*
X-52053Y173465D01*
X-61826Y173465D01*
G37*
%LPD*%
%LPC*%
G36*
X-50055Y173465D02*
X-50055Y173465D01*
X-50055Y183238D01*
X-48526Y182996D01*
X-46910Y182471D01*
X-45396Y181699D01*
X-44021Y180701D01*
X-42819Y179499D01*
X-41821Y178124D01*
X-41049Y176610D01*
X-40524Y174994D01*
X-40282Y173465D01*
X-50055Y173465D01*
G37*
%LPD*%
%LPC*%
G36*
X-53582Y161936D02*
X-53582Y161936D01*
X-55198Y162461D01*
X-56712Y163233D01*
X-58087Y164231D01*
X-59289Y165433D01*
X-60287Y166808D01*
X-61059Y168322D01*
X-61584Y169938D01*
X-61826Y171467D01*
X-52053Y171467D01*
X-52053Y161694D01*
X-53582Y161936D01*
G37*
%LPD*%
%LPC*%
G36*
X-50055Y171467D02*
X-50055Y171467D01*
X-40282Y171467D01*
X-40524Y169938D01*
X-41049Y168322D01*
X-41821Y166808D01*
X-42819Y165433D01*
X-44021Y164231D01*
X-45396Y163233D01*
X-46910Y162461D01*
X-48526Y161936D01*
X-50055Y161694D01*
X-50055Y171467D01*
G37*
%LPD*%
%LPC*%
G36*
X45068Y60943D02*
X45068Y60943D01*
X45068Y69992D01*
X46430Y69777D01*
X47939Y69286D01*
X49352Y68566D01*
X50636Y67633D01*
X51758Y66511D01*
X52691Y65227D01*
X53411Y63814D01*
X53902Y62305D01*
X54117Y60943D01*
X45068Y60943D01*
G37*
%LPD*%
%LPC*%
G36*
X45068Y-93455D02*
X45068Y-93455D01*
X54117Y-93455D01*
X53902Y-94817D01*
X53411Y-96326D01*
X52691Y-97739D01*
X51758Y-99023D01*
X50636Y-100145D01*
X49352Y-101078D01*
X47939Y-101798D01*
X46430Y-102289D01*
X45068Y-102504D01*
X45068Y-93455D01*
G37*
%LPD*%
%LPC*%
G36*
X45068Y35543D02*
X45068Y35543D01*
X45068Y44592D01*
X46430Y44377D01*
X47939Y43886D01*
X49352Y43166D01*
X50636Y42233D01*
X51758Y41111D01*
X52691Y39827D01*
X53411Y38414D01*
X53902Y36905D01*
X54117Y35543D01*
X45068Y35543D01*
G37*
%LPD*%
%LPC*%
G36*
X45068Y-68055D02*
X45068Y-68055D01*
X54117Y-68055D01*
X53902Y-69417D01*
X53411Y-70926D01*
X52691Y-72339D01*
X51758Y-73623D01*
X50636Y-74745D01*
X49352Y-75678D01*
X47939Y-76398D01*
X46430Y-76889D01*
X45068Y-77104D01*
X45068Y-68055D01*
G37*
%LPD*%
%LPC*%
G36*
X34021Y35543D02*
X34021Y35543D01*
X34236Y36905D01*
X34727Y38414D01*
X35447Y39827D01*
X36380Y41111D01*
X37502Y42233D01*
X38786Y43166D01*
X40199Y43886D01*
X41708Y44377D01*
X43070Y44592D01*
X43070Y35543D01*
X34021Y35543D01*
G37*
%LPD*%
%LPC*%
G36*
X34021Y60943D02*
X34021Y60943D01*
X34236Y62305D01*
X34727Y63814D01*
X35447Y65227D01*
X36380Y66511D01*
X37502Y67633D01*
X38786Y68566D01*
X40199Y69286D01*
X41708Y69777D01*
X43070Y69992D01*
X43070Y60943D01*
X34021Y60943D01*
G37*
%LPD*%
%LPC*%
G36*
X45068Y-91457D02*
X45068Y-91457D01*
X45068Y-82408D01*
X46430Y-82623D01*
X47939Y-83114D01*
X49352Y-83834D01*
X50636Y-84767D01*
X51758Y-85889D01*
X52691Y-87173D01*
X53411Y-88586D01*
X53902Y-90095D01*
X54117Y-91457D01*
X45068Y-91457D01*
G37*
%LPD*%
%LPC*%
G36*
X45068Y58945D02*
X45068Y58945D01*
X54117Y58945D01*
X53902Y57583D01*
X53411Y56074D01*
X52691Y54661D01*
X51758Y53377D01*
X50636Y52255D01*
X49352Y51322D01*
X47939Y50602D01*
X46430Y50111D01*
X45068Y49896D01*
X45068Y58945D01*
G37*
%LPD*%
%LPC*%
G36*
X45068Y-66057D02*
X45068Y-66057D01*
X45068Y-57008D01*
X46430Y-57223D01*
X47939Y-57714D01*
X49352Y-58434D01*
X50636Y-59367D01*
X51758Y-60489D01*
X52691Y-61773D01*
X53411Y-63186D01*
X53902Y-64695D01*
X54117Y-66057D01*
X45068Y-66057D01*
G37*
%LPD*%
%LPC*%
G36*
X41708Y-102289D02*
X41708Y-102289D01*
X40199Y-101798D01*
X38786Y-101078D01*
X37502Y-100145D01*
X36380Y-99023D01*
X35447Y-97739D01*
X34727Y-96326D01*
X34236Y-94817D01*
X34021Y-93455D01*
X43070Y-93455D01*
X43070Y-102504D01*
X41708Y-102289D01*
G37*
%LPD*%
%LPC*%
G36*
X45068Y33545D02*
X45068Y33545D01*
X54117Y33545D01*
X53902Y32183D01*
X53411Y30674D01*
X52691Y29261D01*
X51758Y27977D01*
X50636Y26855D01*
X49352Y25922D01*
X47939Y25202D01*
X46430Y24711D01*
X45068Y24496D01*
X45068Y33545D01*
G37*
%LPD*%
%LPC*%
G36*
X41708Y-76889D02*
X41708Y-76889D01*
X40199Y-76398D01*
X38786Y-75678D01*
X37502Y-74745D01*
X36380Y-73623D01*
X35447Y-72339D01*
X34727Y-70926D01*
X34236Y-69417D01*
X34021Y-68055D01*
X43070Y-68055D01*
X43070Y-77104D01*
X41708Y-76889D01*
G37*
%LPD*%
%LPC*%
G36*
X34021Y-66057D02*
X34021Y-66057D01*
X34236Y-64695D01*
X34727Y-63186D01*
X35447Y-61773D01*
X36380Y-60489D01*
X37502Y-59367D01*
X38786Y-58434D01*
X40199Y-57714D01*
X41708Y-57223D01*
X43070Y-57008D01*
X43070Y-66057D01*
X34021Y-66057D01*
G37*
%LPD*%
%LPC*%
G36*
X41708Y50111D02*
X41708Y50111D01*
X40199Y50602D01*
X38786Y51322D01*
X37502Y52255D01*
X36380Y53377D01*
X35447Y54661D01*
X34727Y56074D01*
X34236Y57583D01*
X34021Y58945D01*
X43070Y58945D01*
X43070Y49896D01*
X41708Y50111D01*
G37*
%LPD*%
%LPC*%
G36*
X41708Y24711D02*
X41708Y24711D01*
X40199Y25202D01*
X38786Y25922D01*
X37502Y26855D01*
X36380Y27977D01*
X35447Y29261D01*
X34727Y30674D01*
X34236Y32183D01*
X34021Y33545D01*
X43070Y33545D01*
X43070Y24496D01*
X41708Y24711D01*
G37*
%LPD*%
%LPC*%
G36*
X34021Y-91457D02*
X34021Y-91457D01*
X34236Y-90095D01*
X34727Y-88586D01*
X35447Y-87173D01*
X36380Y-85889D01*
X37502Y-84767D01*
X38786Y-83834D01*
X40199Y-83114D01*
X41708Y-82623D01*
X43070Y-82408D01*
X43070Y-91457D01*
X34021Y-91457D01*
G37*
%LPD*%
%LPC*%
G36*
X-236033Y-107697D02*
X-236033Y-107697D01*
X-235338Y-107423D01*
X-235309Y-107404D01*
X-235263Y-107386D01*
X-232539Y-105741D01*
X-232514Y-105717D01*
X-232472Y-105692D01*
X-230061Y-103616D01*
X-230039Y-103588D01*
X-230002Y-103556D01*
X-227971Y-101107D01*
X-227954Y-101076D01*
X-227923Y-101038D01*
X-226329Y-98284D01*
X-226318Y-98251D01*
X-226293Y-98209D01*
X-225180Y-95228D01*
X-225175Y-95193D01*
X-225158Y-95147D01*
X-225111Y-94904D01*
X-222467Y-94904D01*
X-222662Y-95832D01*
X-223206Y-97395D01*
X-223582Y-98480D01*
X-224391Y-100106D01*
X-224830Y-100990D01*
X-225901Y-102596D01*
X-226386Y-103322D01*
X-227705Y-104841D01*
X-228224Y-105438D01*
X-230315Y-107305D01*
X-232626Y-108892D01*
X-235119Y-110173D01*
X-236033Y-110505D01*
X-236033Y-107697D01*
G37*
%LPD*%
%LPC*%
G36*
X-225111Y91094D02*
X-225111Y91094D01*
X-225158Y91337D01*
X-225171Y91370D01*
X-225180Y91418D01*
X-226293Y94399D01*
X-226312Y94428D01*
X-226329Y94474D01*
X-227923Y97228D01*
X-227946Y97254D01*
X-227971Y97297D01*
X-230002Y99746D01*
X-230029Y99768D01*
X-230061Y99806D01*
X-232472Y101882D01*
X-232502Y101899D01*
X-232539Y101931D01*
X-235263Y103576D01*
X-235296Y103588D01*
X-235338Y103613D01*
X-236033Y103887D01*
X-236033Y106697D01*
X-234203Y105942D01*
X-233580Y105583D01*
X-231698Y104499D01*
X-230849Y103850D01*
X-229402Y102742D01*
X-227356Y100701D01*
X-225593Y98409D01*
X-224145Y95907D01*
X-223035Y93238D01*
X-222458Y91094D01*
X-225111Y91094D01*
G37*
%LPD*%
%LPC*%
G36*
X-75241Y48497D02*
X-75241Y48497D01*
X-75241Y53332D01*
X-75068Y53979D01*
X-74733Y54558D01*
X-74260Y55031D01*
X-73681Y55366D01*
X-73034Y55539D01*
X-68699Y55539D01*
X-68699Y48497D01*
X-75241Y48497D01*
G37*
%LPD*%
%LPC*%
G36*
X-50468Y27288D02*
X-50468Y27288D01*
X-50468Y31623D01*
X-50295Y32270D01*
X-49960Y32849D01*
X-49487Y33322D01*
X-48908Y33657D01*
X-48261Y33830D01*
X-43426Y33830D01*
X-43426Y27288D01*
X-50468Y27288D01*
G37*
%LPD*%
%LPC*%
G36*
X-164592Y-80676D02*
X-164592Y-80676D01*
X-165239Y-80503D01*
X-165818Y-80168D01*
X-166291Y-79695D01*
X-166626Y-79116D01*
X-166799Y-78469D01*
X-166799Y-73634D01*
X-160257Y-73634D01*
X-160257Y-80676D01*
X-164592Y-80676D01*
G37*
%LPD*%
%LPC*%
G36*
X-17154Y-15661D02*
X-17154Y-15661D01*
X-17801Y-15488D01*
X-18380Y-15153D01*
X-18853Y-14680D01*
X-19188Y-14101D01*
X-19361Y-13454D01*
X-19361Y-8619D01*
X-12819Y-8619D01*
X-12819Y-15661D01*
X-17154Y-15661D01*
G37*
%LPD*%
%LPC*%
G36*
X-149019Y55727D02*
X-149019Y55727D01*
X-149019Y60562D01*
X-148846Y61209D01*
X-148511Y61788D01*
X-148038Y62261D01*
X-147459Y62596D01*
X-146812Y62769D01*
X-142477Y62769D01*
X-142477Y55727D01*
X-149019Y55727D01*
G37*
%LPD*%
%LPC*%
G36*
X-170228Y39471D02*
X-170228Y39471D01*
X-170228Y44306D01*
X-170055Y44953D01*
X-169720Y45532D01*
X-169247Y46005D01*
X-168668Y46340D01*
X-168021Y46513D01*
X-163686Y46513D01*
X-163686Y39471D01*
X-170228Y39471D01*
G37*
%LPD*%
%LPC*%
G36*
X-32687Y27152D02*
X-32687Y27152D01*
X-32687Y31987D01*
X-32514Y32634D01*
X-32179Y33213D01*
X-31706Y33686D01*
X-31127Y34021D01*
X-30480Y34194D01*
X-26145Y34194D01*
X-26145Y27152D01*
X-32687Y27152D01*
G37*
%LPD*%
%LPC*%
G36*
X-30480Y18112D02*
X-30480Y18112D01*
X-31127Y18285D01*
X-31706Y18620D01*
X-32179Y19093D01*
X-32514Y19672D01*
X-32687Y20319D01*
X-32687Y25154D01*
X-26145Y25154D01*
X-26145Y18112D01*
X-30480Y18112D01*
G37*
%LPD*%
%LPC*%
G36*
X-168021Y30431D02*
X-168021Y30431D01*
X-168668Y30604D01*
X-169247Y30939D01*
X-169720Y31412D01*
X-170055Y31991D01*
X-170228Y32638D01*
X-170228Y37473D01*
X-163686Y37473D01*
X-163686Y30431D01*
X-168021Y30431D01*
G37*
%LPD*%
%LPC*%
G36*
X-73034Y39457D02*
X-73034Y39457D01*
X-73681Y39630D01*
X-74260Y39965D01*
X-74733Y40438D01*
X-75068Y41017D01*
X-75241Y41664D01*
X-75241Y46499D01*
X-68699Y46499D01*
X-68699Y39457D01*
X-73034Y39457D01*
G37*
%LPD*%
%LPC*%
G36*
X-146812Y46687D02*
X-146812Y46687D01*
X-147459Y46860D01*
X-148038Y47195D01*
X-148511Y47668D01*
X-148846Y48247D01*
X-149019Y48894D01*
X-149019Y53729D01*
X-142477Y53729D01*
X-142477Y46687D01*
X-146812Y46687D01*
G37*
%LPD*%
%LPC*%
G36*
X-140479Y55727D02*
X-140479Y55727D01*
X-140479Y62769D01*
X-136144Y62769D01*
X-135497Y62596D01*
X-134918Y62261D01*
X-134445Y61788D01*
X-134110Y61209D01*
X-133937Y60562D01*
X-133937Y55727D01*
X-140479Y55727D01*
G37*
%LPD*%
%LPC*%
G36*
X-66701Y48497D02*
X-66701Y48497D01*
X-66701Y55539D01*
X-62366Y55539D01*
X-61719Y55366D01*
X-61140Y55031D01*
X-60667Y54558D01*
X-60332Y53979D01*
X-60159Y53332D01*
X-60159Y48497D01*
X-66701Y48497D01*
G37*
%LPD*%
%LPC*%
G36*
X-24147Y27152D02*
X-24147Y27152D01*
X-24147Y34194D01*
X-19812Y34194D01*
X-19165Y34021D01*
X-18586Y33686D01*
X-18113Y33213D01*
X-17778Y32634D01*
X-17605Y31987D01*
X-17605Y27152D01*
X-24147Y27152D01*
G37*
%LPD*%
%LPC*%
G36*
X-10821Y-15661D02*
X-10821Y-15661D01*
X-10821Y-8619D01*
X-4279Y-8619D01*
X-4279Y-13454D01*
X-4452Y-14101D01*
X-4787Y-14680D01*
X-5260Y-15153D01*
X-5839Y-15488D01*
X-6486Y-15661D01*
X-10821Y-15661D01*
G37*
%LPD*%
%LPC*%
G36*
X-48261Y18748D02*
X-48261Y18748D01*
X-48908Y18921D01*
X-49487Y19256D01*
X-49960Y19729D01*
X-50295Y20308D01*
X-50468Y20955D01*
X-50468Y25290D01*
X-43426Y25290D01*
X-43426Y18748D01*
X-48261Y18748D01*
G37*
%LPD*%
%LPC*%
G36*
X-158259Y-80676D02*
X-158259Y-80676D01*
X-158259Y-73634D01*
X-151717Y-73634D01*
X-151717Y-78469D01*
X-151890Y-79116D01*
X-152225Y-79695D01*
X-152698Y-80168D01*
X-153277Y-80503D01*
X-153924Y-80676D01*
X-158259Y-80676D01*
G37*
%LPD*%
%LPC*%
G36*
X-161688Y39471D02*
X-161688Y39471D01*
X-161688Y46513D01*
X-157353Y46513D01*
X-156706Y46340D01*
X-156127Y46005D01*
X-155654Y45532D01*
X-155319Y44953D01*
X-155146Y44306D01*
X-155146Y39471D01*
X-161688Y39471D01*
G37*
%LPD*%
%LPC*%
G36*
X-166799Y-71636D02*
X-166799Y-71636D01*
X-166799Y-66801D01*
X-166626Y-66154D01*
X-166291Y-65575D01*
X-165818Y-65102D01*
X-165239Y-64767D01*
X-164592Y-64594D01*
X-160257Y-64594D01*
X-160257Y-71636D01*
X-166799Y-71636D01*
G37*
%LPD*%
%LPC*%
G36*
X-41428Y27288D02*
X-41428Y27288D01*
X-41428Y33830D01*
X-36593Y33830D01*
X-35946Y33657D01*
X-35367Y33322D01*
X-34894Y32849D01*
X-34559Y32270D01*
X-34386Y31623D01*
X-34386Y27288D01*
X-41428Y27288D01*
G37*
%LPD*%
%LPC*%
G36*
X-19361Y-6621D02*
X-19361Y-6621D01*
X-19361Y-1786D01*
X-19188Y-1139D01*
X-18853Y-560D01*
X-18380Y-87D01*
X-17801Y248D01*
X-17154Y421D01*
X-12819Y421D01*
X-12819Y-6621D01*
X-19361Y-6621D01*
G37*
%LPD*%
%LPC*%
G36*
X-158259Y-71636D02*
X-158259Y-71636D01*
X-158259Y-64594D01*
X-153924Y-64594D01*
X-153277Y-64767D01*
X-152698Y-65102D01*
X-152225Y-65575D01*
X-151890Y-66154D01*
X-151717Y-66801D01*
X-151717Y-71636D01*
X-158259Y-71636D01*
G37*
%LPD*%
%LPC*%
G36*
X-161688Y30431D02*
X-161688Y30431D01*
X-161688Y37473D01*
X-155146Y37473D01*
X-155146Y32638D01*
X-155319Y31991D01*
X-155654Y31412D01*
X-156127Y30939D01*
X-156706Y30604D01*
X-157353Y30431D01*
X-161688Y30431D01*
G37*
%LPD*%
%LPC*%
G36*
X-41428Y18748D02*
X-41428Y18748D01*
X-41428Y25290D01*
X-34386Y25290D01*
X-34386Y20955D01*
X-34559Y20308D01*
X-34894Y19729D01*
X-35367Y19256D01*
X-35946Y18921D01*
X-36593Y18748D01*
X-41428Y18748D01*
G37*
%LPD*%
%LPC*%
G36*
X-66701Y39457D02*
X-66701Y39457D01*
X-66701Y46499D01*
X-60159Y46499D01*
X-60159Y41664D01*
X-60332Y41017D01*
X-60667Y40438D01*
X-61140Y39965D01*
X-61719Y39630D01*
X-62366Y39457D01*
X-66701Y39457D01*
G37*
%LPD*%
%LPC*%
G36*
X-140479Y46687D02*
X-140479Y46687D01*
X-140479Y53729D01*
X-133937Y53729D01*
X-133937Y48894D01*
X-134110Y48247D01*
X-134445Y47668D01*
X-134918Y47195D01*
X-135497Y46860D01*
X-136144Y46687D01*
X-140479Y46687D01*
G37*
%LPD*%
%LPC*%
G36*
X-10821Y-6621D02*
X-10821Y-6621D01*
X-10821Y421D01*
X-6486Y421D01*
X-5839Y248D01*
X-5260Y-87D01*
X-4787Y-560D01*
X-4452Y-1139D01*
X-4279Y-1786D01*
X-4279Y-6621D01*
X-10821Y-6621D01*
G37*
%LPD*%
%LPC*%
G36*
X-59531Y-8605D02*
X-59531Y-8605D01*
X-60178Y-8432D01*
X-60757Y-8097D01*
X-61230Y-7624D01*
X-61565Y-7045D01*
X-61738Y-6398D01*
X-61738Y-5063D01*
X-53196Y-5063D01*
X-53196Y-8605D01*
X-59531Y-8605D01*
G37*
%LPD*%
%LPC*%
G36*
X-51198Y-8605D02*
X-51198Y-8605D01*
X-51198Y-5063D01*
X-42656Y-5063D01*
X-42656Y-6398D01*
X-42829Y-7045D01*
X-43164Y-7624D01*
X-43637Y-8097D01*
X-44216Y-8432D01*
X-44863Y-8605D01*
X-51198Y-8605D01*
G37*
%LPD*%
%LPC*%
G36*
X-51198Y-3065D02*
X-51198Y-3065D01*
X-51198Y477D01*
X-44863Y477D01*
X-44216Y304D01*
X-43637Y-31D01*
X-43164Y-504D01*
X-42829Y-1083D01*
X-42656Y-1730D01*
X-42656Y-3065D01*
X-51198Y-3065D01*
G37*
%LPD*%
%LPC*%
G36*
X44068Y34543D02*
X44068Y34543D01*
X44068Y34545D01*
X44070Y34545D01*
X44070Y34543D01*
X44068Y34543D01*
G37*
%LPD*%
%LPC*%
G36*
X44068Y-92457D02*
X44068Y-92457D01*
X44068Y-92455D01*
X44070Y-92455D01*
X44070Y-92457D01*
X44068Y-92457D01*
G37*
%LPD*%
%LPC*%
G36*
X44068Y-67057D02*
X44068Y-67057D01*
X44068Y-67055D01*
X44070Y-67055D01*
X44070Y-67057D01*
X44068Y-67057D01*
G37*
%LPD*%
%LPC*%
G36*
X-51055Y172465D02*
X-51055Y172465D01*
X-51055Y172467D01*
X-51053Y172467D01*
X-51053Y172465D01*
X-51055Y172465D01*
G37*
%LPD*%
%LPC*%
G36*
X44068Y85343D02*
X44068Y85343D01*
X44068Y85345D01*
X44070Y85345D01*
X44070Y85343D01*
X44068Y85343D01*
G37*
%LPD*%
%LPC*%
G36*
X44068Y59943D02*
X44068Y59943D01*
X44068Y59945D01*
X44070Y59945D01*
X44070Y59943D01*
X44068Y59943D01*
G37*
%LPD*%
%LPC*%
G36*
X-11821Y-7621D02*
X-11821Y-7621D01*
X-11821Y-7619D01*
X-11819Y-7619D01*
X-11819Y-7621D01*
X-11821Y-7621D01*
G37*
%LPD*%
%LPC*%
G36*
X-42428Y26288D02*
X-42428Y26288D01*
X-42428Y26290D01*
X-42426Y26290D01*
X-42426Y26288D01*
X-42428Y26288D01*
G37*
%LPD*%
%LPC*%
G36*
X-180722Y-72493D02*
X-180722Y-72493D01*
X-180722Y-72491D01*
X-180720Y-72491D01*
X-180720Y-72493D01*
X-180722Y-72493D01*
G37*
%LPD*%
%LPC*%
G36*
X-159259Y-72636D02*
X-159259Y-72636D01*
X-159259Y-72634D01*
X-159257Y-72634D01*
X-159257Y-72636D01*
X-159259Y-72636D01*
G37*
%LPD*%
%LPC*%
G36*
X-67701Y47497D02*
X-67701Y47497D01*
X-67701Y47499D01*
X-67699Y47499D01*
X-67699Y47497D01*
X-67701Y47497D01*
G37*
%LPD*%
%LPC*%
G36*
X-162688Y38471D02*
X-162688Y38471D01*
X-162688Y38473D01*
X-162686Y38473D01*
X-162686Y38471D01*
X-162688Y38471D01*
G37*
%LPD*%
%LPC*%
G36*
X-184405Y43916D02*
X-184405Y43916D01*
X-184405Y43918D01*
X-184403Y43918D01*
X-184403Y43916D01*
X-184405Y43916D01*
G37*
%LPD*%
%LPC*%
G36*
X-52198Y-4065D02*
X-52198Y-4065D01*
X-52198Y-4063D01*
X-52196Y-4063D01*
X-52196Y-4065D01*
X-52198Y-4065D01*
G37*
%LPD*%
%LPC*%
G36*
X-25147Y26152D02*
X-25147Y26152D01*
X-25147Y26154D01*
X-25145Y26154D01*
X-25145Y26152D01*
X-25147Y26152D01*
G37*
%LPD*%
%LPC*%
G36*
X-141479Y54727D02*
X-141479Y54727D01*
X-141479Y54729D01*
X-141477Y54729D01*
X-141477Y54727D01*
X-141479Y54727D01*
G37*
%LPD*%
D10*
X-127254Y172466D03*
D11*
X-101854Y172466D03*
X-76454Y172466D03*
X-51054Y172466D03*
D12*
X44069Y85344D03*
D13*
X69469Y85344D03*
X44069Y59944D03*
X69469Y59944D03*
X44069Y34544D03*
X69469Y34544D03*
X44069Y9144D03*
X69469Y9144D03*
X44069Y-16256D03*
X69469Y-16256D03*
X44069Y-41656D03*
X69469Y-41656D03*
X44069Y-67056D03*
X69469Y-67056D03*
X44069Y-92456D03*
X69469Y-92456D03*
D14*
X-199478Y-40092D02*
X-210478Y-40092D01*
X-210478Y-35092D01*
X-199478Y-35092D01*
X-199478Y-40092D01*
X-199478Y-35342D02*
X-210478Y-35342D01*
X-210605Y-57999D02*
X-199605Y-57999D01*
X-210605Y-57999D02*
X-210605Y-52999D01*
X-199605Y-52999D01*
X-199605Y-57999D01*
X-199605Y-53249D02*
X-210605Y-53249D01*
D15*
X-79246Y14302D02*
X-79246Y15552D01*
X-73496Y15552D01*
X-73496Y14302D01*
X-79246Y14302D01*
X-79246Y15489D02*
X-73496Y15489D01*
X-79246Y10552D02*
X-79246Y9302D01*
X-79246Y10552D02*
X-73496Y10552D01*
X-73496Y9302D01*
X-79246Y9302D01*
X-79246Y10489D02*
X-73496Y10489D01*
X-79246Y5552D02*
X-79246Y4302D01*
X-79246Y5552D02*
X-73496Y5552D01*
X-73496Y4302D01*
X-79246Y4302D01*
X-79246Y5489D02*
X-73496Y5489D01*
X-79246Y552D02*
X-79246Y-698D01*
X-79246Y552D02*
X-73496Y552D01*
X-73496Y-698D01*
X-79246Y-698D01*
X-79246Y489D02*
X-73496Y489D01*
X-79246Y-4448D02*
X-79246Y-5698D01*
X-79246Y-4448D02*
X-73496Y-4448D01*
X-73496Y-5698D01*
X-79246Y-5698D01*
X-79246Y-4511D02*
X-73496Y-4511D01*
X-79246Y-9448D02*
X-79246Y-10698D01*
X-79246Y-9448D02*
X-73496Y-9448D01*
X-73496Y-10698D01*
X-79246Y-10698D01*
X-79246Y-9511D02*
X-73496Y-9511D01*
X-79246Y-14448D02*
X-79246Y-15698D01*
X-79246Y-14448D02*
X-73496Y-14448D01*
X-73496Y-15698D01*
X-79246Y-15698D01*
X-79246Y-14511D02*
X-73496Y-14511D01*
X-79246Y-19448D02*
X-79246Y-20698D01*
X-79246Y-19448D02*
X-73496Y-19448D01*
X-73496Y-20698D01*
X-79246Y-20698D01*
X-79246Y-19511D02*
X-73496Y-19511D01*
X-79246Y-24448D02*
X-79246Y-25698D01*
X-79246Y-24448D02*
X-73496Y-24448D01*
X-73496Y-25698D01*
X-79246Y-25698D01*
X-79246Y-24511D02*
X-73496Y-24511D01*
X-79246Y-29448D02*
X-79246Y-30698D01*
X-79246Y-29448D02*
X-73496Y-29448D01*
X-73496Y-30698D01*
X-79246Y-30698D01*
X-79246Y-29511D02*
X-73496Y-29511D01*
X-79246Y-34448D02*
X-79246Y-35698D01*
X-79246Y-34448D02*
X-73496Y-34448D01*
X-73496Y-35698D01*
X-79246Y-35698D01*
X-79246Y-34511D02*
X-73496Y-34511D01*
X-79246Y-39448D02*
X-79246Y-40698D01*
X-79246Y-39448D02*
X-73496Y-39448D01*
X-73496Y-40698D01*
X-79246Y-40698D01*
X-79246Y-39511D02*
X-73496Y-39511D01*
X-82746Y-44198D02*
X-83996Y-44198D01*
X-82746Y-44198D02*
X-82746Y-49948D01*
X-83996Y-49948D01*
X-83996Y-44198D01*
X-83996Y-48761D02*
X-82746Y-48761D01*
X-82746Y-47574D02*
X-83996Y-47574D01*
X-83996Y-46387D02*
X-82746Y-46387D01*
X-82746Y-45200D02*
X-83996Y-45200D01*
X-87746Y-44198D02*
X-88996Y-44198D01*
X-87746Y-44198D02*
X-87746Y-49948D01*
X-88996Y-49948D01*
X-88996Y-44198D01*
X-88996Y-48761D02*
X-87746Y-48761D01*
X-87746Y-47574D02*
X-88996Y-47574D01*
X-88996Y-46387D02*
X-87746Y-46387D01*
X-87746Y-45200D02*
X-88996Y-45200D01*
X-92746Y-44198D02*
X-93996Y-44198D01*
X-92746Y-44198D02*
X-92746Y-49948D01*
X-93996Y-49948D01*
X-93996Y-44198D01*
X-93996Y-48761D02*
X-92746Y-48761D01*
X-92746Y-47574D02*
X-93996Y-47574D01*
X-93996Y-46387D02*
X-92746Y-46387D01*
X-92746Y-45200D02*
X-93996Y-45200D01*
X-97746Y-44198D02*
X-98996Y-44198D01*
X-97746Y-44198D02*
X-97746Y-49948D01*
X-98996Y-49948D01*
X-98996Y-44198D01*
X-98996Y-48761D02*
X-97746Y-48761D01*
X-97746Y-47574D02*
X-98996Y-47574D01*
X-98996Y-46387D02*
X-97746Y-46387D01*
X-97746Y-45200D02*
X-98996Y-45200D01*
X-102746Y-44198D02*
X-103996Y-44198D01*
X-102746Y-44198D02*
X-102746Y-49948D01*
X-103996Y-49948D01*
X-103996Y-44198D01*
X-103996Y-48761D02*
X-102746Y-48761D01*
X-102746Y-47574D02*
X-103996Y-47574D01*
X-103996Y-46387D02*
X-102746Y-46387D01*
X-102746Y-45200D02*
X-103996Y-45200D01*
X-107746Y-44198D02*
X-108996Y-44198D01*
X-107746Y-44198D02*
X-107746Y-49948D01*
X-108996Y-49948D01*
X-108996Y-44198D01*
X-108996Y-48761D02*
X-107746Y-48761D01*
X-107746Y-47574D02*
X-108996Y-47574D01*
X-108996Y-46387D02*
X-107746Y-46387D01*
X-107746Y-45200D02*
X-108996Y-45200D01*
X-112746Y-44198D02*
X-113996Y-44198D01*
X-112746Y-44198D02*
X-112746Y-49948D01*
X-113996Y-49948D01*
X-113996Y-44198D01*
X-113996Y-48761D02*
X-112746Y-48761D01*
X-112746Y-47574D02*
X-113996Y-47574D01*
X-113996Y-46387D02*
X-112746Y-46387D01*
X-112746Y-45200D02*
X-113996Y-45200D01*
X-117746Y-44198D02*
X-118996Y-44198D01*
X-117746Y-44198D02*
X-117746Y-49948D01*
X-118996Y-49948D01*
X-118996Y-44198D01*
X-118996Y-48761D02*
X-117746Y-48761D01*
X-117746Y-47574D02*
X-118996Y-47574D01*
X-118996Y-46387D02*
X-117746Y-46387D01*
X-117746Y-45200D02*
X-118996Y-45200D01*
X-122746Y-44198D02*
X-123996Y-44198D01*
X-122746Y-44198D02*
X-122746Y-49948D01*
X-123996Y-49948D01*
X-123996Y-44198D01*
X-123996Y-48761D02*
X-122746Y-48761D01*
X-122746Y-47574D02*
X-123996Y-47574D01*
X-123996Y-46387D02*
X-122746Y-46387D01*
X-122746Y-45200D02*
X-123996Y-45200D01*
X-127746Y-44198D02*
X-128996Y-44198D01*
X-127746Y-44198D02*
X-127746Y-49948D01*
X-128996Y-49948D01*
X-128996Y-44198D01*
X-128996Y-48761D02*
X-127746Y-48761D01*
X-127746Y-47574D02*
X-128996Y-47574D01*
X-128996Y-46387D02*
X-127746Y-46387D01*
X-127746Y-45200D02*
X-128996Y-45200D01*
X-132746Y-44198D02*
X-133996Y-44198D01*
X-132746Y-44198D02*
X-132746Y-49948D01*
X-133996Y-49948D01*
X-133996Y-44198D01*
X-133996Y-48761D02*
X-132746Y-48761D01*
X-132746Y-47574D02*
X-133996Y-47574D01*
X-133996Y-46387D02*
X-132746Y-46387D01*
X-132746Y-45200D02*
X-133996Y-45200D01*
X-137746Y-44198D02*
X-138996Y-44198D01*
X-137746Y-44198D02*
X-137746Y-49948D01*
X-138996Y-49948D01*
X-138996Y-44198D01*
X-138996Y-48761D02*
X-137746Y-48761D01*
X-137746Y-47574D02*
X-138996Y-47574D01*
X-138996Y-46387D02*
X-137746Y-46387D01*
X-137746Y-45200D02*
X-138996Y-45200D01*
X-142496Y-40698D02*
X-142496Y-39448D01*
X-142496Y-40698D02*
X-148246Y-40698D01*
X-148246Y-39448D01*
X-142496Y-39448D01*
X-142496Y-39511D02*
X-148246Y-39511D01*
X-142496Y-35698D02*
X-142496Y-34448D01*
X-142496Y-35698D02*
X-148246Y-35698D01*
X-148246Y-34448D01*
X-142496Y-34448D01*
X-142496Y-34511D02*
X-148246Y-34511D01*
X-142496Y-30698D02*
X-142496Y-29448D01*
X-142496Y-30698D02*
X-148246Y-30698D01*
X-148246Y-29448D01*
X-142496Y-29448D01*
X-142496Y-29511D02*
X-148246Y-29511D01*
X-142496Y-25698D02*
X-142496Y-24448D01*
X-142496Y-25698D02*
X-148246Y-25698D01*
X-148246Y-24448D01*
X-142496Y-24448D01*
X-142496Y-24511D02*
X-148246Y-24511D01*
X-142496Y-20698D02*
X-142496Y-19448D01*
X-142496Y-20698D02*
X-148246Y-20698D01*
X-148246Y-19448D01*
X-142496Y-19448D01*
X-142496Y-19511D02*
X-148246Y-19511D01*
X-142496Y-15698D02*
X-142496Y-14448D01*
X-142496Y-15698D02*
X-148246Y-15698D01*
X-148246Y-14448D01*
X-142496Y-14448D01*
X-142496Y-14511D02*
X-148246Y-14511D01*
X-142496Y-10698D02*
X-142496Y-9448D01*
X-142496Y-10698D02*
X-148246Y-10698D01*
X-148246Y-9448D01*
X-142496Y-9448D01*
X-142496Y-9511D02*
X-148246Y-9511D01*
X-142496Y-5698D02*
X-142496Y-4448D01*
X-142496Y-5698D02*
X-148246Y-5698D01*
X-148246Y-4448D01*
X-142496Y-4448D01*
X-142496Y-4511D02*
X-148246Y-4511D01*
X-142496Y-698D02*
X-142496Y552D01*
X-142496Y-698D02*
X-148246Y-698D01*
X-148246Y552D01*
X-142496Y552D01*
X-142496Y489D02*
X-148246Y489D01*
X-142496Y4302D02*
X-142496Y5552D01*
X-142496Y4302D02*
X-148246Y4302D01*
X-148246Y5552D01*
X-142496Y5552D01*
X-142496Y5489D02*
X-148246Y5489D01*
X-142496Y9302D02*
X-142496Y10552D01*
X-142496Y9302D02*
X-148246Y9302D01*
X-148246Y10552D01*
X-142496Y10552D01*
X-142496Y10489D02*
X-148246Y10489D01*
X-142496Y14302D02*
X-142496Y15552D01*
X-142496Y14302D02*
X-148246Y14302D01*
X-148246Y15552D01*
X-142496Y15552D01*
X-142496Y15489D02*
X-148246Y15489D01*
X-138996Y19052D02*
X-137746Y19052D01*
X-138996Y19052D02*
X-138996Y24802D01*
X-137746Y24802D01*
X-137746Y19052D01*
X-137746Y20239D02*
X-138996Y20239D01*
X-138996Y21426D02*
X-137746Y21426D01*
X-137746Y22613D02*
X-138996Y22613D01*
X-138996Y23800D02*
X-137746Y23800D01*
X-133996Y19052D02*
X-132746Y19052D01*
X-133996Y19052D02*
X-133996Y24802D01*
X-132746Y24802D01*
X-132746Y19052D01*
X-132746Y20239D02*
X-133996Y20239D01*
X-133996Y21426D02*
X-132746Y21426D01*
X-132746Y22613D02*
X-133996Y22613D01*
X-133996Y23800D02*
X-132746Y23800D01*
X-128996Y19052D02*
X-127746Y19052D01*
X-128996Y19052D02*
X-128996Y24802D01*
X-127746Y24802D01*
X-127746Y19052D01*
X-127746Y20239D02*
X-128996Y20239D01*
X-128996Y21426D02*
X-127746Y21426D01*
X-127746Y22613D02*
X-128996Y22613D01*
X-128996Y23800D02*
X-127746Y23800D01*
X-123996Y19052D02*
X-122746Y19052D01*
X-123996Y19052D02*
X-123996Y24802D01*
X-122746Y24802D01*
X-122746Y19052D01*
X-122746Y20239D02*
X-123996Y20239D01*
X-123996Y21426D02*
X-122746Y21426D01*
X-122746Y22613D02*
X-123996Y22613D01*
X-123996Y23800D02*
X-122746Y23800D01*
X-118996Y19052D02*
X-117746Y19052D01*
X-118996Y19052D02*
X-118996Y24802D01*
X-117746Y24802D01*
X-117746Y19052D01*
X-117746Y20239D02*
X-118996Y20239D01*
X-118996Y21426D02*
X-117746Y21426D01*
X-117746Y22613D02*
X-118996Y22613D01*
X-118996Y23800D02*
X-117746Y23800D01*
X-113996Y19052D02*
X-112746Y19052D01*
X-113996Y19052D02*
X-113996Y24802D01*
X-112746Y24802D01*
X-112746Y19052D01*
X-112746Y20239D02*
X-113996Y20239D01*
X-113996Y21426D02*
X-112746Y21426D01*
X-112746Y22613D02*
X-113996Y22613D01*
X-113996Y23800D02*
X-112746Y23800D01*
X-108996Y19052D02*
X-107746Y19052D01*
X-108996Y19052D02*
X-108996Y24802D01*
X-107746Y24802D01*
X-107746Y19052D01*
X-107746Y20239D02*
X-108996Y20239D01*
X-108996Y21426D02*
X-107746Y21426D01*
X-107746Y22613D02*
X-108996Y22613D01*
X-108996Y23800D02*
X-107746Y23800D01*
X-103996Y19052D02*
X-102746Y19052D01*
X-103996Y19052D02*
X-103996Y24802D01*
X-102746Y24802D01*
X-102746Y19052D01*
X-102746Y20239D02*
X-103996Y20239D01*
X-103996Y21426D02*
X-102746Y21426D01*
X-102746Y22613D02*
X-103996Y22613D01*
X-103996Y23800D02*
X-102746Y23800D01*
X-98996Y19052D02*
X-97746Y19052D01*
X-98996Y19052D02*
X-98996Y24802D01*
X-97746Y24802D01*
X-97746Y19052D01*
X-97746Y20239D02*
X-98996Y20239D01*
X-98996Y21426D02*
X-97746Y21426D01*
X-97746Y22613D02*
X-98996Y22613D01*
X-98996Y23800D02*
X-97746Y23800D01*
X-93996Y19052D02*
X-92746Y19052D01*
X-93996Y19052D02*
X-93996Y24802D01*
X-92746Y24802D01*
X-92746Y19052D01*
X-92746Y20239D02*
X-93996Y20239D01*
X-93996Y21426D02*
X-92746Y21426D01*
X-92746Y22613D02*
X-93996Y22613D01*
X-93996Y23800D02*
X-92746Y23800D01*
X-88996Y19052D02*
X-87746Y19052D01*
X-88996Y19052D02*
X-88996Y24802D01*
X-87746Y24802D01*
X-87746Y19052D01*
X-87746Y20239D02*
X-88996Y20239D01*
X-88996Y21426D02*
X-87746Y21426D01*
X-87746Y22613D02*
X-88996Y22613D01*
X-88996Y23800D02*
X-87746Y23800D01*
X-83996Y19052D02*
X-82746Y19052D01*
X-83996Y19052D02*
X-83996Y24802D01*
X-82746Y24802D01*
X-82746Y19052D01*
X-82746Y20239D02*
X-83996Y20239D01*
X-83996Y21426D02*
X-82746Y21426D01*
X-82746Y22613D02*
X-83996Y22613D01*
X-83996Y23800D02*
X-82746Y23800D01*
D16*
X-110871Y-12573D03*
D17*
X-387477Y179555D03*
X-237032Y90095D03*
X-237032Y-93905D03*
X-387350Y-182222D03*
X-316800Y136095D03*
X-237032Y-1905D03*
X-316600Y-139905D03*
D18*
X-52197Y7936D03*
X-52197Y-4064D03*
X-52197Y-16064D03*
D19*
X-25146Y9153D03*
X-25146Y26153D03*
X-67700Y47498D03*
X-84700Y47498D03*
D14*
X-85813Y73747D02*
X-96813Y73747D01*
X-85813Y73747D02*
X-85813Y68747D01*
X-96813Y68747D01*
X-96813Y73747D01*
X-96813Y73497D02*
X-85813Y73497D01*
X-8294Y23582D02*
X2706Y23582D01*
X2706Y18582D01*
X-8294Y18582D01*
X-8294Y23582D01*
X-8294Y23332D02*
X2706Y23332D01*
D19*
X-176394Y-5080D03*
X-159394Y-5080D03*
D20*
X-28829Y-47727D03*
X-28829Y-28727D03*
D21*
X-7620Y-47616D03*
X-7620Y-30616D03*
D20*
X-184404Y24917D03*
X-184404Y43917D03*
X-180721Y-53492D03*
X-180721Y-72492D03*
D19*
X-50673Y-47616D03*
X-50673Y-30616D03*
X-162687Y21472D03*
X-162687Y38472D03*
X-159258Y-55635D03*
X-159258Y-72635D03*
X-141478Y37728D03*
X-141478Y54728D03*
D21*
X-59427Y26289D03*
X-42427Y26289D03*
D19*
X-11820Y-7620D03*
X-28820Y-7620D03*
D22*
X-42291Y26153D02*
X-42427Y26289D01*
X-42291Y26153D02*
X-25146Y26153D01*
X-45466Y-4064D02*
X-52197Y-4064D01*
X-42291Y-889D02*
X-42291Y26153D01*
X-42291Y-889D02*
X-45466Y-4064D01*
X-151502Y-72635D02*
X-159258Y-72635D01*
X-133371Y-54504D02*
X-133371Y-47073D01*
X-133371Y-54504D02*
X-151502Y-72635D01*
D23*
X-187452Y9525D03*
D22*
X-180721Y-72492D02*
X-180578Y-72635D01*
X-110871Y-12573D02*
X-133371Y9927D01*
X-145371Y9927D01*
X-159258Y-72635D02*
X-180578Y-72635D01*
X-138371Y21927D02*
X-138371Y26983D01*
D23*
X-130810Y38227D03*
D22*
X-135426Y29688D02*
X-135666Y29688D01*
X-135426Y29688D02*
X-130810Y34304D01*
X-130810Y38227D01*
X-135666Y29688D02*
X-138371Y26983D01*
X-145371Y4927D02*
X-157327Y4927D01*
X-157861Y5461D01*
D23*
X-157861Y5461D03*
D22*
X-113371Y21927D02*
X-113371Y30186D01*
X-114935Y31750D01*
D23*
X-114935Y31750D03*
D22*
X-108371Y30369D02*
X-108371Y21927D01*
D23*
X-106863Y31877D03*
D22*
X-108371Y30369D01*
X-128371Y27966D02*
X-128371Y21927D01*
X-124714Y60325D02*
X-132842Y68453D01*
X-202438Y68453D01*
X-232410Y38481D01*
X-232410Y31496D01*
D23*
X-232410Y31496D03*
D22*
X-128371Y27966D02*
X-124714Y31623D01*
X-124714Y60325D01*
X-121158Y61798D02*
X-121158Y29388D01*
X-121158Y61798D02*
X-132004Y72644D01*
X-123371Y27175D02*
X-123371Y21927D01*
X-123371Y27175D02*
X-121158Y29388D01*
X-238224Y38382D02*
X-238224Y-713D01*
X-237032Y-1905D01*
X-203962Y72644D02*
X-132004Y72644D01*
X-203962Y72644D02*
X-238224Y38382D01*
D23*
X-35814Y-75946D03*
D22*
X-71527Y-30073D02*
X-76371Y-30073D01*
X-61515Y-40085D02*
X-61515Y-50866D01*
X-61515Y-40085D02*
X-71527Y-30073D01*
X-36435Y-75946D02*
X-35814Y-75946D01*
X-36435Y-75946D02*
X-61515Y-50866D01*
D23*
X-47371Y-75946D03*
D22*
X-72623Y-35073D02*
X-76371Y-35073D01*
X-66214Y-41482D02*
X-66214Y-53990D01*
X-47371Y-72833D02*
X-47371Y-75946D01*
X-66214Y-41482D02*
X-72623Y-35073D01*
X-66214Y-53990D02*
X-47371Y-72833D01*
D23*
X-58801Y-76073D03*
D22*
X-58801Y-70242D02*
X-76371Y-52672D01*
X-76371Y-40073D01*
X-58801Y-70242D02*
X-58801Y-76073D01*
X-145371Y-25073D02*
X-151203Y-25073D01*
X-154432Y-21844D01*
D23*
X-154432Y-21844D03*
D22*
X-145371Y-35073D02*
X-188108Y-35073D01*
X-193548Y-40513D02*
X-193548Y-46482D01*
D23*
X-193548Y-46482D03*
D22*
X-193548Y-40513D02*
X-188108Y-35073D01*
X-193548Y-46482D02*
X-202565Y-55499D01*
X-205105Y-55499D01*
X-197459Y-30073D02*
X-145371Y-30073D01*
X-197459Y-30073D02*
X-204978Y-37592D01*
D23*
X-197459Y-30073D03*
X-70612Y-76073D03*
D22*
X-70612Y-70119D02*
X-83371Y-57360D01*
X-83371Y-47073D01*
X-70612Y-70119D02*
X-70612Y-76073D01*
D23*
X-82423Y-76200D03*
D22*
X-88431Y-47133D02*
X-88371Y-47073D01*
X-88431Y-47133D02*
X-88431Y-61546D01*
X-82423Y-67554D02*
X-82423Y-76200D01*
X-82423Y-67554D02*
X-88431Y-61546D01*
D23*
X-94107Y-76200D03*
D22*
X-93371Y-75464D02*
X-93371Y-47073D01*
X-93371Y-75464D02*
X-94107Y-76200D01*
D23*
X-105791Y-76200D03*
D22*
X-98371Y-60779D02*
X-98371Y-47073D01*
X-105791Y-68199D02*
X-105791Y-76200D01*
X-105791Y-68199D02*
X-98371Y-60779D01*
D23*
X-117475Y-76200D03*
D22*
X-103371Y-56254D02*
X-103371Y-47073D01*
X-117475Y-70358D02*
X-117475Y-76200D01*
X-117475Y-70358D02*
X-103371Y-56254D01*
D23*
X-129286Y-76200D03*
D22*
X-108371Y-53253D02*
X-108371Y-47073D01*
X-129286Y-74168D02*
X-129286Y-76200D01*
X-129286Y-74168D02*
X-108371Y-53253D01*
D23*
X-140970Y-76200D03*
D22*
X-139522Y-76200D02*
X-113371Y-50049D01*
X-139522Y-76200D02*
X-140970Y-76200D01*
X-113371Y-50049D02*
X-113371Y-47073D01*
X-103371Y21927D02*
X-103371Y26169D01*
X-84700Y44840D02*
X-84700Y47498D01*
X-84700Y44840D02*
X-103371Y26169D01*
X-84700Y64634D02*
X-91313Y71247D01*
X-84700Y64634D02*
X-84700Y57531D01*
X-84700Y47498D01*
D23*
X-84700Y57531D03*
D22*
X-76371Y-15073D02*
X-68823Y-15073D01*
X-62022Y-21874D01*
X-44272Y-21874D02*
X-37196Y-14798D01*
X-44272Y-21874D02*
X-62022Y-21874D01*
X-32639Y9153D02*
X-25146Y9153D01*
X-32639Y9153D02*
X-37196Y4596D01*
X-37196Y-14798D01*
X-14986Y21082D02*
X-2794Y21082D01*
X-14986Y21082D02*
X-14986Y14859D01*
X-20692Y9153D02*
X-25146Y9153D01*
X-20692Y9153D02*
X-14986Y14859D01*
D23*
X-14986Y21082D03*
D22*
X-69970Y-5073D02*
X-76371Y-5073D01*
X-56961Y7936D02*
X-52197Y7936D01*
X-56961Y7936D02*
X-69970Y-5073D01*
X-68540Y-10073D02*
X-76371Y-10073D01*
X-68540Y-10073D02*
X-62549Y-16064D01*
X-52197Y-16064D01*
X-176394Y-5080D02*
X-187452Y-5080D01*
D23*
X-187452Y-5080D03*
D22*
X-159394Y-5080D02*
X-145378Y-5080D01*
X-145371Y-5073D01*
X-50562Y-47727D02*
X-28829Y-47727D01*
X-50562Y-47727D02*
X-50673Y-47616D01*
X-50673Y-45457D01*
X-71057Y-25073D01*
X-76371Y-25073D01*
X-28718Y-47616D02*
X-7620Y-47616D01*
X-28718Y-47616D02*
X-28829Y-47727D01*
X-146933Y-55635D02*
X-159258Y-55635D01*
X-146933Y-55635D02*
X-138371Y-47073D01*
X-161401Y-53492D02*
X-180721Y-53492D01*
X-161401Y-53492D02*
X-159258Y-55635D01*
X-7620Y-30616D02*
X6731Y-30616D01*
X21082Y-16265D01*
X21082Y26670D01*
X8509Y39243D01*
X-52324Y39243D01*
X-59427Y32140D01*
X-59427Y26289D01*
X-153679Y21472D02*
X-162687Y21472D01*
X-147134Y14927D02*
X-145371Y14927D01*
X-147134Y14927D02*
X-153679Y21472D01*
X-145371Y14927D02*
X-145371Y33835D01*
X-141478Y37728D01*
X-76371Y21800D02*
X-76371Y14927D01*
X-76371Y21800D02*
X-76327Y21844D01*
D23*
X-76327Y21844D03*
D22*
X-76498Y21927D02*
X-83371Y21927D01*
X-76498Y21927D02*
X-76371Y21800D01*
X-76327Y21844D02*
X-71882Y26289D01*
X-59427Y26289D01*
X-162687Y21472D02*
X-180959Y21472D01*
X-184404Y24917D01*
X-197460Y24917D01*
X-197485Y24892D01*
D23*
X-197485Y24892D03*
D22*
X-159258Y-44196D02*
X-159258Y-55635D01*
D23*
X-159258Y-44196D03*
D22*
X-76371Y-20073D02*
X-69208Y-20073D01*
X-58665Y-30616D01*
X-50673Y-30616D01*
X-30718Y-30616D01*
X-28829Y-28727D01*
X-28829Y-7629D01*
X-28820Y-7620D01*
M02*
