G04 EAGLE Gerber RS-274X export*
G75*
%MOMM*%
%FSLAX34Y34*%
%LPD*%
%INSilkscreen Bottom*%
%IPPOS*%
%AMOC8*
5,1,8,0,0,1.08239X$1,22.5*%
G01*
%ADD10C,0.076200*%
%ADD11C,0.203200*%
%ADD12C,0.152400*%
%ADD13C,0.101600*%
%ADD14C,0.127000*%
%ADD15C,0.254000*%


D10*
X24549Y91107D02*
X25905Y92463D01*
X28616Y92463D01*
X29972Y91107D01*
X29972Y85684D01*
X28616Y84328D01*
X25905Y84328D01*
X24549Y85684D01*
X24549Y88395D01*
X27260Y88395D01*
X21786Y84328D02*
X21786Y92463D01*
X16363Y84328D01*
X16363Y92463D01*
X13600Y92463D02*
X13600Y84328D01*
X9533Y84328D01*
X8177Y85684D01*
X8177Y91107D01*
X9533Y92463D01*
X13600Y92463D01*
X25778Y68968D02*
X24422Y67612D01*
X25778Y68968D02*
X28489Y68968D01*
X29845Y67612D01*
X29845Y62189D01*
X28489Y60833D01*
X25778Y60833D01*
X24422Y62189D01*
X24422Y64900D01*
X27133Y64900D01*
X21659Y60833D02*
X21659Y68968D01*
X16236Y60833D01*
X16236Y68968D01*
X13473Y68968D02*
X13473Y60833D01*
X9406Y60833D01*
X8050Y62189D01*
X8050Y67612D01*
X9406Y68968D01*
X13473Y68968D01*
X26032Y43568D02*
X24676Y42212D01*
X26032Y43568D02*
X28743Y43568D01*
X30099Y42212D01*
X30099Y36789D01*
X28743Y35433D01*
X26032Y35433D01*
X24676Y36789D01*
X24676Y39500D01*
X27387Y39500D01*
X21913Y35433D02*
X21913Y43568D01*
X16490Y35433D01*
X16490Y43568D01*
X13727Y43568D02*
X13727Y35433D01*
X9660Y35433D01*
X8304Y36789D01*
X8304Y42212D01*
X9660Y43568D01*
X13727Y43568D01*
X25905Y18422D02*
X28616Y18422D01*
X29972Y17066D01*
X29972Y11643D01*
X28616Y10287D01*
X25905Y10287D01*
X24549Y11643D01*
X24549Y17066D01*
X25905Y18422D01*
X21786Y18422D02*
X16363Y18422D01*
X21786Y18422D02*
X21786Y10287D01*
X16363Y10287D01*
X19075Y14354D02*
X21786Y14354D01*
X30099Y-9264D02*
X30099Y-17399D01*
X30099Y-9264D02*
X26032Y-9264D01*
X24676Y-10620D01*
X24676Y-13332D01*
X26032Y-14687D01*
X30099Y-14687D01*
X27387Y-14687D02*
X24676Y-17399D01*
X21913Y-11976D02*
X19202Y-9264D01*
X19202Y-17399D01*
X21913Y-17399D02*
X16490Y-17399D01*
X30099Y-34664D02*
X30099Y-42799D01*
X30099Y-34664D02*
X26032Y-34664D01*
X24676Y-36020D01*
X24676Y-38732D01*
X26032Y-40087D01*
X30099Y-40087D01*
X27387Y-40087D02*
X24676Y-42799D01*
X21913Y-42799D02*
X16490Y-42799D01*
X21913Y-42799D02*
X16490Y-37376D01*
X16490Y-36020D01*
X17846Y-34664D01*
X20557Y-34664D01*
X21913Y-36020D01*
X25905Y-60953D02*
X24549Y-62309D01*
X25905Y-60953D02*
X28616Y-60953D01*
X29972Y-62309D01*
X29972Y-67732D01*
X28616Y-69088D01*
X25905Y-69088D01*
X24549Y-67732D01*
X24549Y-65021D01*
X27260Y-65021D01*
X21786Y-69088D02*
X21786Y-60953D01*
X16363Y-69088D01*
X16363Y-60953D01*
X13600Y-60953D02*
X13600Y-69088D01*
X9533Y-69088D01*
X8177Y-67732D01*
X8177Y-62309D01*
X9533Y-60953D01*
X13600Y-60953D01*
X26159Y-85210D02*
X24803Y-86566D01*
X26159Y-85210D02*
X28870Y-85210D01*
X30226Y-86566D01*
X30226Y-91989D01*
X28870Y-93345D01*
X26159Y-93345D01*
X24803Y-91989D01*
X24803Y-89278D01*
X27514Y-89278D01*
X22040Y-93345D02*
X22040Y-85210D01*
X16617Y-93345D01*
X16617Y-85210D01*
X13854Y-85210D02*
X13854Y-93345D01*
X9787Y-93345D01*
X8431Y-91989D01*
X8431Y-86566D01*
X9787Y-85210D01*
X13854Y-85210D01*
X96431Y-88598D02*
X97787Y-87242D01*
X100498Y-87242D01*
X101854Y-88598D01*
X101854Y-94021D01*
X100498Y-95377D01*
X97787Y-95377D01*
X96431Y-94021D01*
X93668Y-95377D02*
X93668Y-87242D01*
X93668Y-95377D02*
X88245Y-95377D01*
X85482Y-95377D02*
X85482Y-87242D01*
X85482Y-92665D02*
X80059Y-87242D01*
X84127Y-91310D02*
X80059Y-95377D01*
X96431Y-63452D02*
X97787Y-62096D01*
X100498Y-62096D01*
X101854Y-63452D01*
X101854Y-64808D01*
X100498Y-66164D01*
X97787Y-66164D01*
X96431Y-67519D01*
X96431Y-68875D01*
X97787Y-70231D01*
X100498Y-70231D01*
X101854Y-68875D01*
X90957Y-70231D02*
X90957Y-62096D01*
X93668Y-62096D02*
X88245Y-62096D01*
X85482Y-62096D02*
X85482Y-70231D01*
X85482Y-62096D02*
X81415Y-62096D01*
X80059Y-63452D01*
X80059Y-64808D01*
X81415Y-66164D01*
X80059Y-67519D01*
X80059Y-68875D01*
X81415Y-70231D01*
X85482Y-70231D01*
X85482Y-66164D02*
X81415Y-66164D01*
X95923Y-13160D02*
X97279Y-11804D01*
X99990Y-11804D01*
X101346Y-13160D01*
X101346Y-18583D01*
X99990Y-19939D01*
X97279Y-19939D01*
X95923Y-18583D01*
X95923Y-15872D01*
X98634Y-15872D01*
X93160Y-14516D02*
X90449Y-11804D01*
X90449Y-19939D01*
X93160Y-19939D02*
X87737Y-19939D01*
X99441Y81788D02*
X99441Y87211D01*
X96729Y89923D01*
X94018Y87211D01*
X94018Y81788D01*
X94018Y85855D02*
X99441Y85855D01*
D11*
X26924Y-171564D02*
X26924Y-187325D01*
X16416Y-187325D01*
X10552Y-171564D02*
X45Y-171564D01*
X10552Y-171564D02*
X10552Y-187325D01*
X45Y-187325D01*
X5299Y-179444D02*
X10552Y-179444D01*
X-5819Y-171564D02*
X-5819Y-187325D01*
X-13700Y-187325D01*
X-16327Y-184698D01*
X-16327Y-174190D01*
X-13700Y-171564D01*
X-5819Y-171564D01*
X-38562Y-171564D02*
X-38562Y-187325D01*
X-43816Y-176817D02*
X-38562Y-171564D01*
X-43816Y-176817D02*
X-49070Y-171564D01*
X-49070Y-187325D01*
X-57561Y-176817D02*
X-62815Y-176817D01*
X-65441Y-179444D01*
X-65441Y-187325D01*
X-57561Y-187325D01*
X-54934Y-184698D01*
X-57561Y-182071D01*
X-65441Y-182071D01*
X-73932Y-184698D02*
X-73932Y-174190D01*
X-73932Y-184698D02*
X-76559Y-187325D01*
X-76559Y-176817D02*
X-71305Y-176817D01*
X-82220Y-176817D02*
X-82220Y-187325D01*
X-82220Y-182071D02*
X-87474Y-176817D01*
X-90100Y-176817D01*
X-95863Y-176817D02*
X-98490Y-176817D01*
X-98490Y-187325D01*
X-95863Y-187325D02*
X-101117Y-187325D01*
X-98490Y-171564D02*
X-98490Y-168937D01*
X-106777Y-176817D02*
X-117285Y-187325D01*
X-106777Y-187325D02*
X-117285Y-176817D01*
X-139520Y-171564D02*
X-139520Y-187325D01*
X-147401Y-187325D01*
X-150028Y-184698D01*
X-150028Y-174190D01*
X-147401Y-171564D01*
X-139520Y-171564D01*
X-155892Y-176817D02*
X-155892Y-187325D01*
X-155892Y-182071D02*
X-161146Y-176817D01*
X-163773Y-176817D01*
X-169535Y-176817D02*
X-172162Y-176817D01*
X-172162Y-187325D01*
X-169535Y-187325D02*
X-174789Y-187325D01*
X-172162Y-171564D02*
X-172162Y-168937D01*
X-180449Y-176817D02*
X-185703Y-187325D01*
X-190957Y-176817D01*
X-199448Y-187325D02*
X-204701Y-187325D01*
X-199448Y-187325D02*
X-196821Y-184698D01*
X-196821Y-179444D01*
X-199448Y-176817D01*
X-204701Y-176817D01*
X-207328Y-179444D01*
X-207328Y-182071D01*
X-196821Y-182071D01*
X-213192Y-187325D02*
X-213192Y-176817D01*
X-213192Y-182071D02*
X-218446Y-176817D01*
X-221073Y-176817D01*
D10*
X96304Y-38560D02*
X97660Y-37204D01*
X100371Y-37204D01*
X101727Y-38560D01*
X101727Y-43983D01*
X100371Y-45339D01*
X97660Y-45339D01*
X96304Y-43983D01*
X96304Y-41272D01*
X99015Y-41272D01*
X93541Y-45339D02*
X88118Y-45339D01*
X93541Y-45339D02*
X88118Y-39916D01*
X88118Y-38560D01*
X89474Y-37204D01*
X92185Y-37204D01*
X93541Y-38560D01*
X100838Y5969D02*
X100838Y14104D01*
X100838Y5969D02*
X96771Y5969D01*
X95415Y7325D01*
X95415Y12748D01*
X96771Y14104D01*
X100838Y14104D01*
X94653Y39672D02*
X96009Y41028D01*
X98720Y41028D01*
X100076Y39672D01*
X100076Y34249D01*
X98720Y32893D01*
X96009Y32893D01*
X94653Y34249D01*
X100076Y58293D02*
X100076Y66428D01*
X96009Y66428D01*
X94653Y65072D01*
X94653Y63716D01*
X96009Y62360D01*
X94653Y61005D01*
X94653Y59649D01*
X96009Y58293D01*
X100076Y58293D01*
X100076Y62360D02*
X96009Y62360D01*
D12*
X-235372Y128792D02*
X-238084Y126080D01*
X-235372Y128792D02*
X-229949Y128792D01*
X-227237Y126080D01*
X-227237Y115234D01*
X-229949Y112522D01*
X-235372Y112522D01*
X-238084Y115234D01*
X-238084Y120657D01*
X-232661Y120657D01*
X-243609Y112522D02*
X-243609Y128792D01*
X-254455Y112522D01*
X-254455Y128792D01*
X-259980Y128792D02*
X-259980Y112522D01*
X-268115Y112522D01*
X-270827Y115234D01*
X-270827Y126080D01*
X-268115Y128792D01*
X-259980Y128792D01*
X-234102Y-118858D02*
X-236814Y-121570D01*
X-234102Y-118858D02*
X-228679Y-118858D01*
X-225967Y-121570D01*
X-225967Y-132416D01*
X-228679Y-135128D01*
X-234102Y-135128D01*
X-236814Y-132416D01*
X-236814Y-126993D01*
X-231391Y-126993D01*
X-242339Y-135128D02*
X-242339Y-118858D01*
X-253185Y-135128D01*
X-253185Y-118858D01*
X-258710Y-118858D02*
X-258710Y-135128D01*
X-266845Y-135128D01*
X-269557Y-132416D01*
X-269557Y-121570D01*
X-266845Y-118858D01*
X-258710Y-118858D01*
X-331892Y-179818D02*
X-334604Y-182530D01*
X-331892Y-179818D02*
X-326469Y-179818D01*
X-323757Y-182530D01*
X-323757Y-193376D01*
X-326469Y-196088D01*
X-331892Y-196088D01*
X-334604Y-193376D01*
X-334604Y-187953D01*
X-329181Y-187953D01*
X-340129Y-196088D02*
X-340129Y-179818D01*
X-350975Y-196088D01*
X-350975Y-179818D01*
X-356500Y-179818D02*
X-356500Y-196088D01*
X-364635Y-196088D01*
X-367347Y-193376D01*
X-367347Y-182530D01*
X-364635Y-179818D01*
X-356500Y-179818D01*
X-334604Y184500D02*
X-331892Y187212D01*
X-326469Y187212D01*
X-323757Y184500D01*
X-323757Y173654D01*
X-326469Y170942D01*
X-331892Y170942D01*
X-334604Y173654D01*
X-334604Y179077D01*
X-329181Y179077D01*
X-340129Y170942D02*
X-340129Y187212D01*
X-350975Y170942D01*
X-350975Y187212D01*
X-356500Y187212D02*
X-356500Y170942D01*
X-364635Y170942D01*
X-367347Y173654D01*
X-367347Y184500D01*
X-364635Y187212D01*
X-356500Y187212D01*
X-66675Y-92445D02*
X-75149Y-105156D01*
X-66675Y-105156D02*
X-75149Y-92445D01*
X-79772Y-96682D02*
X-84009Y-92445D01*
X-84009Y-105156D01*
X-79772Y-105156D02*
X-88246Y-105156D01*
X-97106Y-94564D02*
X-101343Y-92445D01*
X-97106Y-94564D02*
X-92870Y-98801D01*
X-92870Y-103038D01*
X-94988Y-105156D01*
X-99225Y-105156D01*
X-101343Y-103038D01*
X-101343Y-100919D01*
X-99225Y-98801D01*
X-92870Y-98801D01*
X-105967Y-105156D02*
X-105967Y-92445D01*
X-112322Y-92445D01*
X-114441Y-94564D01*
X-114441Y-98801D01*
X-112322Y-100919D01*
X-105967Y-100919D01*
X-110204Y-100919D02*
X-114441Y-105156D01*
X-123301Y-94564D02*
X-127538Y-92445D01*
X-123301Y-94564D02*
X-119064Y-98801D01*
X-119064Y-103038D01*
X-121182Y-105156D01*
X-125419Y-105156D01*
X-127538Y-103038D01*
X-127538Y-100919D01*
X-125419Y-98801D01*
X-119064Y-98801D01*
X-132161Y-103038D02*
X-132161Y-94564D01*
X-134280Y-92445D01*
X-138517Y-92445D01*
X-140635Y-94564D01*
X-140635Y-103038D01*
X-138517Y-105156D01*
X-134280Y-105156D01*
X-132161Y-103038D01*
X-140635Y-94564D01*
D13*
X-102489Y66294D02*
X-102489Y79513D01*
X-109099Y79513D01*
X-111302Y77310D01*
X-111302Y75107D01*
X-109099Y72904D01*
X-111302Y70700D01*
X-111302Y68497D01*
X-109099Y66294D01*
X-102489Y66294D01*
X-102489Y72904D02*
X-109099Y72904D01*
D12*
X-195185Y-11407D02*
X-211455Y-11407D01*
X-195185Y-11407D02*
X-195185Y-3272D01*
X-197897Y-561D01*
X-203320Y-561D01*
X-206032Y-3272D01*
X-206032Y-11407D01*
X-200608Y4964D02*
X-195185Y10388D01*
X-211455Y10388D01*
X-211455Y15811D02*
X-211455Y4964D01*
D13*
X-222510Y-29834D02*
X-224713Y-32037D01*
X-222510Y-29834D02*
X-218103Y-29834D01*
X-215900Y-32037D01*
X-215900Y-40850D01*
X-218103Y-43053D01*
X-222510Y-43053D01*
X-224713Y-40850D01*
X-216027Y-47106D02*
X-216027Y-60325D01*
X-222637Y-60325D01*
X-224840Y-58122D01*
X-224840Y-49309D01*
X-222637Y-47106D01*
X-216027Y-47106D01*
D14*
X-80871Y22427D02*
X-75871Y17427D01*
X-145871Y-47563D02*
X-145871Y-47573D01*
X-145831Y22437D02*
X-145831Y22447D01*
X-141131Y22447D01*
X-141171Y-47563D02*
X-145871Y-47563D01*
X-145831Y17747D02*
X-145831Y22437D01*
X-145881Y-42873D02*
X-145881Y-47573D01*
X-80551Y-47573D02*
X-75851Y-47573D01*
X-75851Y-47583D02*
X-75851Y-42883D01*
X-71101Y15077D02*
X-71099Y15166D01*
X-71093Y15255D01*
X-71083Y15344D01*
X-71069Y15432D01*
X-71052Y15519D01*
X-71030Y15605D01*
X-71004Y15691D01*
X-70975Y15775D01*
X-70942Y15858D01*
X-70906Y15939D01*
X-70865Y16019D01*
X-70822Y16096D01*
X-70775Y16172D01*
X-70724Y16245D01*
X-70671Y16316D01*
X-70614Y16385D01*
X-70554Y16451D01*
X-70491Y16515D01*
X-70426Y16575D01*
X-70358Y16633D01*
X-70287Y16687D01*
X-70214Y16738D01*
X-70139Y16786D01*
X-70062Y16831D01*
X-69983Y16872D01*
X-69902Y16909D01*
X-69820Y16943D01*
X-69736Y16974D01*
X-69651Y17000D01*
X-69565Y17023D01*
X-69478Y17041D01*
X-69390Y17056D01*
X-69301Y17067D01*
X-69212Y17074D01*
X-69123Y17077D01*
X-69034Y17076D01*
X-68945Y17071D01*
X-68857Y17062D01*
X-68768Y17049D01*
X-68681Y17032D01*
X-68594Y17012D01*
X-68508Y16987D01*
X-68424Y16959D01*
X-68341Y16927D01*
X-68259Y16891D01*
X-68179Y16852D01*
X-68101Y16809D01*
X-68025Y16763D01*
X-67951Y16713D01*
X-67879Y16660D01*
X-67810Y16604D01*
X-67743Y16545D01*
X-67679Y16483D01*
X-67618Y16419D01*
X-67559Y16351D01*
X-67504Y16281D01*
X-67452Y16209D01*
X-67403Y16134D01*
X-67358Y16058D01*
X-67316Y15979D01*
X-67278Y15899D01*
X-67243Y15817D01*
X-67212Y15733D01*
X-67184Y15648D01*
X-67161Y15562D01*
X-67141Y15475D01*
X-67125Y15388D01*
X-67113Y15299D01*
X-67105Y15211D01*
X-67101Y15122D01*
X-67101Y15032D01*
X-67105Y14943D01*
X-67113Y14855D01*
X-67125Y14766D01*
X-67141Y14679D01*
X-67161Y14592D01*
X-67184Y14506D01*
X-67212Y14421D01*
X-67243Y14337D01*
X-67278Y14255D01*
X-67316Y14175D01*
X-67358Y14096D01*
X-67403Y14020D01*
X-67452Y13945D01*
X-67504Y13873D01*
X-67559Y13803D01*
X-67618Y13735D01*
X-67679Y13671D01*
X-67743Y13609D01*
X-67810Y13550D01*
X-67879Y13494D01*
X-67951Y13441D01*
X-68025Y13391D01*
X-68101Y13345D01*
X-68179Y13302D01*
X-68259Y13263D01*
X-68341Y13227D01*
X-68424Y13195D01*
X-68508Y13167D01*
X-68594Y13142D01*
X-68681Y13122D01*
X-68768Y13105D01*
X-68857Y13092D01*
X-68945Y13083D01*
X-69034Y13078D01*
X-69123Y13077D01*
X-69212Y13080D01*
X-69301Y13087D01*
X-69390Y13098D01*
X-69478Y13113D01*
X-69565Y13131D01*
X-69651Y13154D01*
X-69736Y13180D01*
X-69820Y13211D01*
X-69902Y13245D01*
X-69983Y13282D01*
X-70062Y13323D01*
X-70139Y13368D01*
X-70214Y13416D01*
X-70287Y13467D01*
X-70358Y13521D01*
X-70426Y13579D01*
X-70491Y13639D01*
X-70554Y13703D01*
X-70614Y13769D01*
X-70671Y13838D01*
X-70724Y13909D01*
X-70775Y13982D01*
X-70822Y14058D01*
X-70865Y14135D01*
X-70906Y14215D01*
X-70942Y14296D01*
X-70975Y14379D01*
X-71004Y14463D01*
X-71030Y14549D01*
X-71052Y14635D01*
X-71069Y14722D01*
X-71083Y14810D01*
X-71093Y14899D01*
X-71099Y14988D01*
X-71101Y15077D01*
D10*
X-77355Y31477D02*
X-77355Y39315D01*
X-77355Y31477D02*
X-78923Y29909D01*
X-82058Y29909D01*
X-83626Y31477D01*
X-83626Y39315D01*
X-86710Y36180D02*
X-89846Y39315D01*
X-89846Y29909D01*
X-92981Y29909D02*
X-86710Y29909D01*
D15*
X-62357Y13716D02*
X-62357Y-21844D01*
X-42037Y-21844D01*
X-42037Y13716D01*
X-62357Y13716D01*
D10*
X-67056Y-35681D02*
X-57650Y-41951D01*
X-57650Y-35681D02*
X-67056Y-41951D01*
X-60785Y-32596D02*
X-57650Y-29461D01*
X-67056Y-29461D01*
X-67056Y-32596D02*
X-67056Y-26326D01*
X-20058Y39247D02*
X-21626Y40815D01*
X-20058Y39247D02*
X-20058Y36112D01*
X-21626Y34544D01*
X-27896Y34544D01*
X-29464Y36112D01*
X-29464Y39247D01*
X-27896Y40815D01*
X-21626Y43899D02*
X-20058Y45467D01*
X-20058Y48602D01*
X-21626Y50170D01*
X-23193Y50170D01*
X-24761Y48602D01*
X-26329Y50170D01*
X-27896Y50170D01*
X-29464Y48602D01*
X-29464Y45467D01*
X-27896Y43899D01*
X-26329Y43899D01*
X-24761Y45467D01*
X-23193Y43899D01*
X-21626Y43899D01*
X-24761Y45467D02*
X-24761Y48602D01*
X-59568Y59939D02*
X-59568Y69345D01*
X-64271Y69345D01*
X-65839Y67777D01*
X-65839Y64642D01*
X-64271Y63074D01*
X-59568Y63074D01*
X-62703Y63074D02*
X-65839Y59939D01*
X-68923Y59939D02*
X-75194Y59939D01*
X-68923Y59939D02*
X-75194Y66210D01*
X-75194Y67777D01*
X-73626Y69345D01*
X-70491Y69345D01*
X-68923Y67777D01*
D13*
X0Y42937D02*
X0Y29718D01*
X0Y42937D02*
X-6610Y42937D01*
X-8813Y40734D01*
X-8813Y36328D01*
X-6610Y34124D01*
X0Y34124D01*
X-4406Y34124D02*
X-8813Y29718D01*
D10*
X-163911Y-14084D02*
X-163911Y-23490D01*
X-163911Y-14084D02*
X-168614Y-14084D01*
X-170181Y-15652D01*
X-170181Y-18787D01*
X-168614Y-20355D01*
X-163911Y-20355D01*
X-167046Y-20355D02*
X-170181Y-23490D01*
X-173266Y-15652D02*
X-174833Y-14084D01*
X-177969Y-14084D01*
X-179536Y-15652D01*
X-179536Y-17219D01*
X-177969Y-18787D01*
X-176401Y-18787D01*
X-177969Y-18787D02*
X-179536Y-20355D01*
X-179536Y-21922D01*
X-177969Y-23490D01*
X-174833Y-23490D01*
X-173266Y-21922D01*
D12*
X-39002Y-58382D02*
X-18872Y-58382D01*
D10*
X-25563Y-72765D02*
X-23995Y-74332D01*
X-23995Y-77468D01*
X-25563Y-79035D01*
X-31833Y-79035D01*
X-33401Y-77468D01*
X-33401Y-74332D01*
X-31833Y-72765D01*
X-33401Y-69680D02*
X-33401Y-63410D01*
X-33401Y-69680D02*
X-27130Y-63410D01*
X-25563Y-63410D01*
X-23995Y-64977D01*
X-23995Y-68113D01*
X-25563Y-69680D01*
X-12700Y-82930D02*
X-3294Y-82930D01*
X-3294Y-76659D01*
X-7997Y-79794D02*
X-7997Y-82930D01*
X-12700Y-73574D02*
X-3294Y-73574D01*
X-3294Y-68871D01*
X-4862Y-67304D01*
X-6429Y-67304D01*
X-7997Y-68871D01*
X-9565Y-67304D01*
X-11132Y-67304D01*
X-12700Y-68871D01*
X-12700Y-73574D01*
X-7997Y-73574D02*
X-7997Y-68871D01*
X-6429Y-64219D02*
X-3294Y-61084D01*
X-12700Y-61084D01*
X-12700Y-64219D02*
X-12700Y-57949D01*
D12*
X-174447Y14262D02*
X-194577Y14262D01*
D10*
X-178427Y59948D02*
X-179995Y61516D01*
X-178427Y59948D02*
X-178427Y56813D01*
X-179995Y55245D01*
X-186265Y55245D01*
X-187833Y56813D01*
X-187833Y59948D01*
X-186265Y61516D01*
X-187833Y69303D02*
X-178427Y69303D01*
X-183130Y64600D01*
X-183130Y70871D01*
D12*
X-190678Y-42837D02*
X-170548Y-42837D01*
D10*
X-179233Y-96514D02*
X-177665Y-98081D01*
X-177665Y-101217D01*
X-179233Y-102784D01*
X-185503Y-102784D01*
X-187071Y-101217D01*
X-187071Y-98081D01*
X-185503Y-96514D01*
X-177665Y-93429D02*
X-177665Y-87159D01*
X-179233Y-87159D01*
X-185503Y-93429D01*
X-187071Y-93429D01*
X-47026Y-67177D02*
X-45458Y-68744D01*
X-45458Y-71880D01*
X-47026Y-73447D01*
X-53296Y-73447D01*
X-54864Y-71880D01*
X-54864Y-68744D01*
X-53296Y-67177D01*
X-48593Y-64092D02*
X-45458Y-60957D01*
X-54864Y-60957D01*
X-54864Y-64092D02*
X-54864Y-57822D01*
X-157472Y51693D02*
X-159040Y53261D01*
X-157472Y51693D02*
X-157472Y48558D01*
X-159040Y46990D01*
X-165310Y46990D01*
X-166878Y48558D01*
X-166878Y51693D01*
X-165310Y53261D01*
X-159040Y56345D02*
X-157472Y57913D01*
X-157472Y61048D01*
X-159040Y62616D01*
X-160607Y62616D01*
X-162175Y61048D01*
X-162175Y59481D01*
X-162175Y61048D02*
X-163743Y62616D01*
X-165310Y62616D01*
X-166878Y61048D01*
X-166878Y57913D01*
X-165310Y56345D01*
X-156246Y-92958D02*
X-154678Y-94525D01*
X-154678Y-97661D01*
X-156246Y-99228D01*
X-162516Y-99228D01*
X-164084Y-97661D01*
X-164084Y-94525D01*
X-162516Y-92958D01*
X-154678Y-89873D02*
X-154678Y-83603D01*
X-154678Y-89873D02*
X-159381Y-89873D01*
X-157813Y-86738D01*
X-157813Y-85170D01*
X-159381Y-83603D01*
X-162516Y-83603D01*
X-164084Y-85170D01*
X-164084Y-88306D01*
X-162516Y-89873D01*
X-136644Y67187D02*
X-138212Y68755D01*
X-136644Y67187D02*
X-136644Y64052D01*
X-138212Y62484D01*
X-144482Y62484D01*
X-146050Y64052D01*
X-146050Y67187D01*
X-144482Y68755D01*
X-138212Y74975D02*
X-136644Y78110D01*
X-138212Y74975D02*
X-141347Y71839D01*
X-144482Y71839D01*
X-146050Y73407D01*
X-146050Y76542D01*
X-144482Y78110D01*
X-142915Y78110D01*
X-141347Y76542D01*
X-141347Y71839D01*
X-42593Y46446D02*
X-41025Y48014D01*
X-37890Y48014D01*
X-36322Y46446D01*
X-36322Y40176D01*
X-37890Y38608D01*
X-41025Y38608D01*
X-42593Y40176D01*
X-45677Y40176D02*
X-47245Y38608D01*
X-50380Y38608D01*
X-51948Y40176D01*
X-51948Y46446D01*
X-50380Y48014D01*
X-47245Y48014D01*
X-45677Y46446D01*
X-45677Y44879D01*
X-47245Y43311D01*
X-51948Y43311D01*
X12365Y-2146D02*
X12365Y-11552D01*
X12365Y-2146D02*
X7662Y-2146D01*
X6095Y-3714D01*
X6095Y-6849D01*
X7662Y-8417D01*
X12365Y-8417D01*
X9230Y-8417D02*
X6095Y-11552D01*
X-1693Y-11552D02*
X-1693Y-2146D01*
X3010Y-6849D01*
X-3260Y-6849D01*
M02*
