G04 EAGLE Gerber RS-274X export*
G75*
%MOMM*%
%FSLAX34Y34*%
%LPD*%
%INSilkscreen Bottom*%
%IPPOS*%
%AMOC8*
5,1,8,0,0,1.08239X$1,22.5*%
G01*
%ADD10C,0.076200*%
%ADD11C,0.203200*%
%ADD12R,0.014731X0.014731*%
%ADD13R,0.147319X0.014731*%
%ADD14R,0.265175X0.014731*%
%ADD15R,0.383031X0.014731*%
%ADD16R,0.515619X0.014731*%
%ADD17R,0.633475X0.014731*%
%ADD18R,0.751331X0.014731*%
%ADD19R,0.883919X0.014731*%
%ADD20R,1.001775X0.014731*%
%ADD21R,1.119631X0.014731*%
%ADD22R,1.134363X0.014731*%
%ADD23R,1.149094X0.014731*%
%ADD24R,1.163825X0.014731*%
%ADD25R,1.178556X0.014731*%
%ADD26R,1.193288X0.014731*%
%ADD27R,1.222756X0.014731*%
%ADD28R,1.237488X0.014731*%
%ADD29R,1.266950X0.014731*%
%ADD30R,1.281681X0.014731*%
%ADD31R,1.311144X0.014731*%
%ADD32R,1.325881X0.014731*%
%ADD33R,1.355344X0.014731*%
%ADD34R,1.370075X0.014731*%
%ADD35R,1.384806X0.014731*%
%ADD36R,1.399538X0.014731*%
%ADD37R,1.414275X0.014731*%
%ADD38R,1.443738X0.014731*%
%ADD39R,1.458469X0.014731*%
%ADD40R,1.487931X0.014731*%
%ADD41R,1.502663X0.014731*%
%ADD42R,1.517394X0.014731*%
%ADD43R,1.532125X0.014731*%
%ADD44R,1.546856X0.014731*%
%ADD45R,1.576319X0.014731*%
%ADD46R,1.605788X0.014731*%
%ADD47R,1.620519X0.014731*%
%ADD48R,1.649981X0.014731*%
%ADD49R,1.664713X0.014731*%
%ADD50R,1.694175X0.014731*%
%ADD51R,1.708913X0.014731*%
%ADD52R,1.738375X0.014731*%
%ADD53R,1.753106X0.014731*%
%ADD54R,1.767838X0.014731*%
%ADD55R,1.782569X0.014731*%
%ADD56R,1.797306X0.014731*%
%ADD57R,0.117856X0.014731*%
%ADD58R,1.826769X0.014731*%
%ADD59R,0.235713X0.014731*%
%ADD60R,0.353569X0.014731*%
%ADD61R,1.856231X0.014731*%
%ADD62R,0.486156X0.014731*%
%ADD63R,1.870963X0.014731*%
%ADD64R,0.604013X0.014731*%
%ADD65R,0.721869X0.014731*%
%ADD66R,1.885694X0.014731*%
%ADD67R,0.839719X0.014731*%
%ADD68R,0.972306X0.014731*%
%ADD69R,1.090169X0.014731*%
%ADD70R,1.208025X0.014731*%
%ADD71R,1.252219X0.014731*%
%ADD72R,1.296412X0.014731*%
%ADD73R,1.340612X0.014731*%
%ADD74R,1.826763X0.014731*%
%ADD75R,1.414269X0.014731*%
%ADD76R,1.812031X0.014731*%
%ADD77R,1.429000X0.014731*%
%ADD78R,1.458462X0.014731*%
%ADD79R,1.473200X0.014731*%
%ADD80R,1.723644X0.014731*%
%ADD81R,1.694181X0.014731*%
%ADD82R,1.679450X0.014731*%
%ADD83R,1.561594X0.014731*%
%ADD84R,1.576325X0.014731*%
%ADD85R,1.591056X0.014731*%
%ADD86R,1.635250X0.014731*%
%ADD87R,1.561588X0.014731*%
%ADD88R,1.443731X0.014731*%
%ADD89R,1.797300X0.014731*%
%ADD90R,1.841500X0.014731*%
%ADD91R,1.311150X0.014731*%
%ADD92R,1.296419X0.014731*%
%ADD93R,1.193294X0.014731*%
%ADD94R,0.957575X0.014731*%
%ADD95R,0.589281X0.014731*%
%ADD96R,0.471425X0.014731*%
%ADD97R,0.220975X0.014731*%
%ADD98R,1.812038X0.014731*%
%ADD99R,0.103119X0.014731*%
%ADD100R,0.029463X0.014731*%
%ADD101R,0.162050X0.014731*%
%ADD102R,0.397763X0.014731*%
%ADD103R,0.648206X0.014731*%
%ADD104R,1.679444X0.014731*%
%ADD105R,1.016506X0.014731*%
%ADD106R,1.104900X0.014731*%
%ADD107R,1.222750X0.014731*%
%ADD108R,1.429006X0.014731*%
%ADD109R,1.208019X0.014731*%
%ADD110R,0.987044X0.014731*%
%ADD111R,0.854456X0.014731*%
%ADD112R,0.618744X0.014731*%
%ADD113R,0.500888X0.014731*%
%ADD114R,0.368300X0.014731*%
%ADD115R,0.132587X0.014731*%
%ADD116R,1.664719X0.014731*%
%ADD117R,1.075438X0.014731*%
%ADD118R,0.942844X0.014731*%
%ADD119R,0.707131X0.014731*%
%ADD120R,0.456694X0.014731*%
%ADD121R,0.088388X0.014731*%
%ADD122C,0.101600*%
%ADD123C,0.152400*%


D10*
X-8090Y91234D02*
X-6734Y92590D01*
X-4023Y92590D01*
X-2667Y91234D01*
X-2667Y85811D01*
X-4023Y84455D01*
X-6734Y84455D01*
X-8090Y85811D01*
X-8090Y88522D01*
X-5379Y88522D01*
X-10853Y84455D02*
X-10853Y92590D01*
X-16276Y84455D01*
X-16276Y92590D01*
X-19039Y92590D02*
X-19039Y84455D01*
X-23106Y84455D01*
X-24462Y85811D01*
X-24462Y91234D01*
X-23106Y92590D01*
X-19039Y92590D01*
X-7623Y69095D02*
X-8979Y67739D01*
X-7623Y69095D02*
X-4912Y69095D01*
X-3556Y67739D01*
X-3556Y62316D01*
X-4912Y60960D01*
X-7623Y60960D01*
X-8979Y62316D01*
X-8979Y65027D01*
X-6268Y65027D01*
X-11742Y60960D02*
X-11742Y69095D01*
X-17165Y60960D01*
X-17165Y69095D01*
X-19928Y69095D02*
X-19928Y60960D01*
X-23995Y60960D01*
X-25351Y62316D01*
X-25351Y67739D01*
X-23995Y69095D01*
X-19928Y69095D01*
X-8258Y43695D02*
X-9614Y42339D01*
X-8258Y43695D02*
X-5547Y43695D01*
X-4191Y42339D01*
X-4191Y36916D01*
X-5547Y35560D01*
X-8258Y35560D01*
X-9614Y36916D01*
X-9614Y39627D01*
X-6903Y39627D01*
X-12377Y35560D02*
X-12377Y43695D01*
X-17800Y35560D01*
X-17800Y43695D01*
X-20563Y43695D02*
X-20563Y35560D01*
X-24630Y35560D01*
X-25986Y36916D01*
X-25986Y42339D01*
X-24630Y43695D01*
X-20563Y43695D01*
X-9147Y18549D02*
X-6436Y18549D01*
X-5080Y17193D01*
X-5080Y11770D01*
X-6436Y10414D01*
X-9147Y10414D01*
X-10503Y11770D01*
X-10503Y17193D01*
X-9147Y18549D01*
X-13266Y18549D02*
X-18689Y18549D01*
X-13266Y18549D02*
X-13266Y10414D01*
X-18689Y10414D01*
X-15977Y14481D02*
X-13266Y14481D01*
X-5461Y-9518D02*
X-5461Y-17653D01*
X-5461Y-9518D02*
X-9528Y-9518D01*
X-10884Y-10874D01*
X-10884Y-13586D01*
X-9528Y-14941D01*
X-5461Y-14941D01*
X-8173Y-14941D02*
X-10884Y-17653D01*
X-13647Y-12230D02*
X-16358Y-9518D01*
X-16358Y-17653D01*
X-13647Y-17653D02*
X-19070Y-17653D01*
X-5461Y-34283D02*
X-5461Y-42418D01*
X-5461Y-34283D02*
X-9528Y-34283D01*
X-10884Y-35639D01*
X-10884Y-38351D01*
X-9528Y-39706D01*
X-5461Y-39706D01*
X-8173Y-39706D02*
X-10884Y-42418D01*
X-13647Y-42418D02*
X-19070Y-42418D01*
X-13647Y-42418D02*
X-19070Y-36995D01*
X-19070Y-35639D01*
X-17714Y-34283D01*
X-15003Y-34283D01*
X-13647Y-35639D01*
X-9147Y-60826D02*
X-10503Y-62182D01*
X-9147Y-60826D02*
X-6436Y-60826D01*
X-5080Y-62182D01*
X-5080Y-67605D01*
X-6436Y-68961D01*
X-9147Y-68961D01*
X-10503Y-67605D01*
X-10503Y-64894D01*
X-7792Y-64894D01*
X-13266Y-68961D02*
X-13266Y-60826D01*
X-18689Y-68961D01*
X-18689Y-60826D01*
X-21452Y-60826D02*
X-21452Y-68961D01*
X-25519Y-68961D01*
X-26875Y-67605D01*
X-26875Y-62182D01*
X-25519Y-60826D01*
X-21452Y-60826D01*
X-8893Y-85083D02*
X-10249Y-86439D01*
X-8893Y-85083D02*
X-6182Y-85083D01*
X-4826Y-86439D01*
X-4826Y-91862D01*
X-6182Y-93218D01*
X-8893Y-93218D01*
X-10249Y-91862D01*
X-10249Y-89151D01*
X-7538Y-89151D01*
X-13012Y-93218D02*
X-13012Y-85083D01*
X-18435Y-93218D01*
X-18435Y-85083D01*
X-21198Y-85083D02*
X-21198Y-93218D01*
X-25265Y-93218D01*
X-26621Y-91862D01*
X-26621Y-86439D01*
X-25265Y-85083D01*
X-21198Y-85083D01*
X68618Y-87963D02*
X69974Y-86607D01*
X72685Y-86607D01*
X74041Y-87963D01*
X74041Y-93386D01*
X72685Y-94742D01*
X69974Y-94742D01*
X68618Y-93386D01*
X65855Y-94742D02*
X65855Y-86607D01*
X65855Y-94742D02*
X60432Y-94742D01*
X57669Y-94742D02*
X57669Y-86607D01*
X57669Y-92030D02*
X52246Y-86607D01*
X56314Y-90675D02*
X52246Y-94742D01*
X68618Y-62817D02*
X69974Y-61461D01*
X72685Y-61461D01*
X74041Y-62817D01*
X74041Y-64173D01*
X72685Y-65529D01*
X69974Y-65529D01*
X68618Y-66884D01*
X68618Y-68240D01*
X69974Y-69596D01*
X72685Y-69596D01*
X74041Y-68240D01*
X63144Y-69596D02*
X63144Y-61461D01*
X65855Y-61461D02*
X60432Y-61461D01*
X57669Y-61461D02*
X57669Y-69596D01*
X57669Y-61461D02*
X53602Y-61461D01*
X52246Y-62817D01*
X52246Y-64173D01*
X53602Y-65529D01*
X52246Y-66884D01*
X52246Y-68240D01*
X53602Y-69596D01*
X57669Y-69596D01*
X57669Y-65529D02*
X53602Y-65529D01*
X68110Y-12525D02*
X69466Y-11169D01*
X72177Y-11169D01*
X73533Y-12525D01*
X73533Y-17948D01*
X72177Y-19304D01*
X69466Y-19304D01*
X68110Y-17948D01*
X68110Y-15237D01*
X70821Y-15237D01*
X65347Y-13881D02*
X62636Y-11169D01*
X62636Y-19304D01*
X65347Y-19304D02*
X59924Y-19304D01*
X71628Y82423D02*
X71628Y87846D01*
X68916Y90558D01*
X66205Y87846D01*
X66205Y82423D01*
X66205Y86490D02*
X71628Y86490D01*
D11*
X50927Y118364D02*
X50927Y134125D01*
X50927Y118364D02*
X40419Y118364D01*
X34555Y134125D02*
X24048Y134125D01*
X34555Y134125D02*
X34555Y118364D01*
X24048Y118364D01*
X29302Y126245D02*
X34555Y126245D01*
X18184Y134125D02*
X18184Y118364D01*
X10303Y118364D01*
X7676Y120991D01*
X7676Y131499D01*
X10303Y134125D01*
X18184Y134125D01*
X-14559Y134125D02*
X-14559Y118364D01*
X-19813Y128872D02*
X-14559Y134125D01*
X-19813Y128872D02*
X-25067Y134125D01*
X-25067Y118364D01*
X-33558Y128872D02*
X-38812Y128872D01*
X-41438Y126245D01*
X-41438Y118364D01*
X-33558Y118364D01*
X-30931Y120991D01*
X-33558Y123618D01*
X-41438Y123618D01*
X-49929Y120991D02*
X-49929Y131499D01*
X-49929Y120991D02*
X-52556Y118364D01*
X-52556Y128872D02*
X-47302Y128872D01*
X-58217Y128872D02*
X-58217Y118364D01*
X-58217Y123618D02*
X-63471Y128872D01*
X-66097Y128872D01*
X-71860Y128872D02*
X-74487Y128872D01*
X-74487Y118364D01*
X-71860Y118364D02*
X-77114Y118364D01*
X-74487Y134125D02*
X-74487Y136752D01*
X-82774Y128872D02*
X-93282Y118364D01*
X-82774Y118364D02*
X-93282Y128872D01*
X-115517Y134125D02*
X-115517Y118364D01*
X-123398Y118364D01*
X-126025Y120991D01*
X-126025Y131499D01*
X-123398Y134125D01*
X-115517Y134125D01*
X-131889Y128872D02*
X-131889Y118364D01*
X-131889Y123618D02*
X-137143Y128872D01*
X-139770Y128872D01*
X-145532Y128872D02*
X-148159Y128872D01*
X-148159Y118364D01*
X-145532Y118364D02*
X-150786Y118364D01*
X-148159Y134125D02*
X-148159Y136752D01*
X-156446Y128872D02*
X-161700Y118364D01*
X-166954Y128872D01*
X-175445Y118364D02*
X-180698Y118364D01*
X-175445Y118364D02*
X-172818Y120991D01*
X-172818Y126245D01*
X-175445Y128872D01*
X-180698Y128872D01*
X-183325Y126245D01*
X-183325Y123618D01*
X-172818Y123618D01*
X-189189Y118364D02*
X-189189Y128872D01*
X-189189Y123618D02*
X-194443Y128872D01*
X-197070Y128872D01*
D10*
X68491Y-37925D02*
X69847Y-36569D01*
X72558Y-36569D01*
X73914Y-37925D01*
X73914Y-43348D01*
X72558Y-44704D01*
X69847Y-44704D01*
X68491Y-43348D01*
X68491Y-40637D01*
X71202Y-40637D01*
X65728Y-44704D02*
X60305Y-44704D01*
X65728Y-44704D02*
X60305Y-39281D01*
X60305Y-37925D01*
X61661Y-36569D01*
X64372Y-36569D01*
X65728Y-37925D01*
X73025Y6604D02*
X73025Y14739D01*
X73025Y6604D02*
X68958Y6604D01*
X67602Y7960D01*
X67602Y13383D01*
X68958Y14739D01*
X73025Y14739D01*
X66840Y40307D02*
X68196Y41663D01*
X70907Y41663D01*
X72263Y40307D01*
X72263Y34884D01*
X70907Y33528D01*
X68196Y33528D01*
X66840Y34884D01*
X72263Y58928D02*
X72263Y67063D01*
X68196Y67063D01*
X66840Y65707D01*
X66840Y64351D01*
X68196Y62995D01*
X66840Y61640D01*
X66840Y60284D01*
X68196Y58928D01*
X72263Y58928D01*
X72263Y62995D02*
X68196Y62995D01*
D12*
X-106241Y19837D03*
D13*
X-106756Y19985D03*
D14*
X-107345Y20132D03*
D15*
X-107787Y20279D03*
D16*
X-108303Y20427D03*
D17*
X-108745Y20574D03*
D18*
X-109334Y20721D03*
D19*
X-109850Y20869D03*
D20*
X-110292Y21016D03*
D21*
X-110734Y21163D03*
D22*
X-110807Y21311D03*
D23*
X-110734Y21458D03*
D24*
X-110660Y21605D03*
D25*
X-110734Y21753D03*
D26*
X-110660Y21900D03*
D27*
X-110660Y22047D03*
D28*
X-110587Y22195D03*
X-110587Y22342D03*
D29*
X-110587Y22489D03*
D30*
X-110513Y22637D03*
D31*
X-110513Y22784D03*
X-110513Y22931D03*
D32*
X-110439Y23078D03*
D33*
X-110439Y23226D03*
D34*
X-110366Y23373D03*
D35*
X-110439Y23520D03*
D36*
X-110366Y23668D03*
D37*
X-110292Y23815D03*
D38*
X-110292Y23962D03*
X-110292Y24110D03*
D39*
X-110218Y24257D03*
D40*
X-110218Y24404D03*
D41*
X-110145Y24552D03*
D42*
X-110218Y24699D03*
D43*
X-110145Y24846D03*
D44*
X-110071Y24994D03*
D45*
X-110071Y25141D03*
X-110071Y25288D03*
D46*
X-110071Y25436D03*
D47*
X-109997Y25583D03*
X-109997Y25730D03*
D48*
X-109997Y25878D03*
D49*
X-109924Y26025D03*
D50*
X-109924Y26172D03*
X-109924Y26320D03*
D51*
X-109850Y26467D03*
D52*
X-109850Y26614D03*
D53*
X-109776Y26761D03*
D54*
X-109850Y26909D03*
D55*
X-109776Y27056D03*
D56*
X-109703Y27203D03*
D57*
X-89225Y27203D03*
D58*
X-109703Y27351D03*
D59*
X-89814Y27351D03*
D58*
X-109703Y27498D03*
D60*
X-90256Y27498D03*
D61*
X-109703Y27645D03*
D62*
X-90772Y27645D03*
D63*
X-109629Y27793D03*
D64*
X-91214Y27793D03*
D63*
X-109629Y27940D03*
D65*
X-91803Y27940D03*
D66*
X-109703Y28087D03*
D67*
X-92245Y28087D03*
D66*
X-109703Y28235D03*
D68*
X-92761Y28235D03*
D63*
X-109776Y28382D03*
D69*
X-93203Y28382D03*
D66*
X-109850Y28529D03*
D21*
X-93350Y28529D03*
D66*
X-109850Y28677D03*
D23*
X-93350Y28677D03*
D66*
X-109997Y28824D03*
D24*
X-93276Y28824D03*
D66*
X-109997Y28971D03*
D25*
X-93203Y28971D03*
D63*
X-110071Y29119D03*
D26*
X-93276Y29119D03*
D66*
X-110145Y29266D03*
D70*
X-93203Y29266D03*
D66*
X-110145Y29413D03*
D28*
X-93203Y29413D03*
D66*
X-110292Y29561D03*
D71*
X-93129Y29561D03*
D66*
X-110292Y29708D03*
D71*
X-93129Y29708D03*
D63*
X-110366Y29855D03*
D30*
X-93129Y29855D03*
D66*
X-110439Y30003D03*
D72*
X-93055Y30003D03*
D66*
X-110439Y30150D03*
D32*
X-93055Y30150D03*
D66*
X-110587Y30297D03*
D32*
X-93055Y30297D03*
D66*
X-110587Y30444D03*
D73*
X-92982Y30444D03*
D63*
X-110660Y30592D03*
D34*
X-92982Y30592D03*
D61*
X-110587Y30739D03*
D35*
X-92908Y30739D03*
D61*
X-110587Y30886D03*
D36*
X-92982Y30886D03*
D74*
X-110587Y31034D03*
D75*
X-92908Y31034D03*
D76*
X-110513Y31181D03*
D77*
X-92834Y31181D03*
D55*
X-110513Y31328D03*
D78*
X-92834Y31328D03*
D55*
X-110513Y31476D03*
D78*
X-92834Y31476D03*
D54*
X-110439Y31623D03*
D79*
X-92761Y31623D03*
D52*
X-110439Y31770D03*
D41*
X-92761Y31770D03*
D80*
X-110366Y31918D03*
D41*
X-92761Y31918D03*
D51*
X-110439Y32065D03*
D43*
X-92761Y32065D03*
D81*
X-110366Y32212D03*
D44*
X-92687Y32212D03*
D82*
X-110292Y32360D03*
D83*
X-92613Y32360D03*
D48*
X-110292Y32507D03*
D84*
X-92687Y32507D03*
D48*
X-110292Y32654D03*
D85*
X-92613Y32654D03*
D86*
X-110218Y32802D03*
D47*
X-92613Y32802D03*
D46*
X-110218Y32949D03*
D86*
X-92540Y32949D03*
D46*
X-110218Y33096D03*
D86*
X-92540Y33096D03*
D84*
X-110218Y33244D03*
D49*
X-92540Y33244D03*
D87*
X-110145Y33391D03*
D82*
X-92466Y33391D03*
D44*
X-110071Y33538D03*
D51*
X-92466Y33538D03*
D43*
X-110145Y33686D03*
D51*
X-92466Y33686D03*
D42*
X-110071Y33833D03*
D80*
X-92392Y33833D03*
D40*
X-110071Y33980D03*
D53*
X-92392Y33980D03*
D79*
X-109997Y34127D03*
D54*
X-92319Y34127D03*
D79*
X-109997Y34275D03*
D55*
X-92392Y34275D03*
D88*
X-109997Y34422D03*
D89*
X-92319Y34422D03*
D77*
X-109924Y34569D03*
D76*
X-92245Y34569D03*
D36*
X-109924Y34717D03*
D90*
X-92245Y34717D03*
D36*
X-109924Y34864D03*
D90*
X-92245Y34864D03*
D35*
X-109850Y35011D03*
D63*
X-92245Y35011D03*
D33*
X-109850Y35159D03*
D66*
X-92172Y35159D03*
D73*
X-109776Y35306D03*
D63*
X-92245Y35306D03*
D32*
X-109850Y35453D03*
D66*
X-92319Y35453D03*
D91*
X-109776Y35601D03*
D66*
X-92319Y35601D03*
D92*
X-109703Y35748D03*
D63*
X-92392Y35748D03*
D29*
X-109703Y35895D03*
D66*
X-92466Y35895D03*
D29*
X-109703Y36043D03*
D66*
X-92466Y36043D03*
D71*
X-109629Y36190D03*
D66*
X-92613Y36190D03*
D27*
X-109629Y36337D03*
D66*
X-92613Y36337D03*
D70*
X-109555Y36485D03*
D63*
X-92687Y36485D03*
D93*
X-109629Y36632D03*
D66*
X-92761Y36632D03*
D25*
X-109555Y36779D03*
D66*
X-92761Y36779D03*
D24*
X-109482Y36927D03*
D66*
X-92908Y36927D03*
D23*
X-109555Y37074D03*
D66*
X-92908Y37074D03*
D22*
X-109482Y37221D03*
D63*
X-92982Y37221D03*
D69*
X-109555Y37369D03*
D66*
X-93055Y37369D03*
D94*
X-110071Y37516D03*
D66*
X-93055Y37516D03*
D67*
X-110660Y37663D03*
D66*
X-93203Y37663D03*
D65*
X-111102Y37810D03*
D66*
X-93203Y37810D03*
D95*
X-111618Y37958D03*
D61*
X-93203Y37958D03*
D96*
X-112060Y38105D03*
D90*
X-93129Y38105D03*
D60*
X-112649Y38252D03*
D90*
X-93129Y38252D03*
D97*
X-113165Y38400D03*
D98*
X-93129Y38400D03*
D99*
X-113607Y38547D03*
D56*
X-93055Y38547D03*
D100*
X-103810Y38694D03*
D55*
X-93129Y38694D03*
D101*
X-104325Y38842D03*
D54*
X-93055Y38842D03*
D14*
X-104841Y38989D03*
D53*
X-92982Y38989D03*
D102*
X-105357Y39136D03*
D80*
X-92982Y39136D03*
D16*
X-105799Y39284D03*
D80*
X-92982Y39284D03*
D103*
X-106314Y39431D03*
D81*
X-92982Y39431D03*
D18*
X-106830Y39578D03*
D104*
X-92908Y39578D03*
D19*
X-107345Y39726D03*
D49*
X-92834Y39726D03*
D105*
X-107861Y39873D03*
D48*
X-92908Y39873D03*
D106*
X-108303Y40020D03*
D86*
X-92834Y40020D03*
D22*
X-108303Y40168D03*
D47*
X-92761Y40168D03*
D23*
X-108229Y40315D03*
D85*
X-92761Y40315D03*
D24*
X-108156Y40462D03*
D85*
X-92761Y40462D03*
D25*
X-108229Y40610D03*
D87*
X-92761Y40610D03*
D26*
X-108156Y40757D03*
D44*
X-92687Y40757D03*
D107*
X-108156Y40904D03*
D43*
X-92613Y40904D03*
D28*
X-108082Y41052D03*
D42*
X-92687Y41052D03*
D28*
X-108082Y41199D03*
D41*
X-92613Y41199D03*
D29*
X-108082Y41346D03*
D79*
X-92613Y41346D03*
D30*
X-108008Y41493D03*
D39*
X-92540Y41493D03*
D31*
X-108008Y41641D03*
D39*
X-92540Y41641D03*
D31*
X-108008Y41788D03*
D108*
X-92540Y41788D03*
D32*
X-107935Y41935D03*
D75*
X-92466Y41935D03*
D33*
X-107935Y42083D03*
D35*
X-92466Y42083D03*
D34*
X-107861Y42230D03*
D35*
X-92466Y42230D03*
X-107935Y42377D03*
D34*
X-92392Y42377D03*
D36*
X-107861Y42525D03*
D73*
X-92392Y42525D03*
D75*
X-107787Y42672D03*
D73*
X-92392Y42672D03*
D38*
X-107787Y42819D03*
D91*
X-92392Y42819D03*
D38*
X-107787Y42967D03*
D72*
X-92319Y42967D03*
D79*
X-107787Y43114D03*
D30*
X-92245Y43114D03*
D40*
X-107714Y43261D03*
D29*
X-92319Y43261D03*
D41*
X-107640Y43409D03*
D71*
X-92245Y43409D03*
D42*
X-107714Y43556D03*
D27*
X-92245Y43556D03*
D43*
X-107640Y43703D03*
D109*
X-92172Y43703D03*
D87*
X-107640Y43851D03*
D109*
X-92172Y43851D03*
D45*
X-107566Y43998D03*
D25*
X-92172Y43998D03*
D45*
X-107566Y44145D03*
D24*
X-92098Y44145D03*
D46*
X-107566Y44293D03*
D23*
X-92024Y44293D03*
D47*
X-107493Y44440D03*
D22*
X-92098Y44440D03*
D47*
X-107493Y44587D03*
D106*
X-92098Y44587D03*
D48*
X-107493Y44735D03*
D110*
X-92540Y44735D03*
D49*
X-107419Y44882D03*
D111*
X-93055Y44882D03*
D50*
X-107419Y45029D03*
D18*
X-93571Y45029D03*
D50*
X-107419Y45176D03*
D112*
X-94087Y45176D03*
D51*
X-107345Y45324D03*
D113*
X-94529Y45324D03*
D52*
X-107345Y45471D03*
D114*
X-95044Y45471D03*
D53*
X-107272Y45618D03*
D14*
X-95560Y45618D03*
D54*
X-107345Y45766D03*
D115*
X-96075Y45766D03*
D55*
X-107272Y45913D03*
D12*
X-96517Y45913D03*
D56*
X-107198Y46060D03*
D58*
X-107198Y46208D03*
X-107198Y46355D03*
D61*
X-107198Y46502D03*
D63*
X-107124Y46650D03*
X-107124Y46797D03*
D66*
X-107198Y46944D03*
X-107198Y47092D03*
X-107345Y47239D03*
X-107345Y47386D03*
D63*
X-107419Y47534D03*
D66*
X-107493Y47681D03*
X-107493Y47828D03*
X-107640Y47976D03*
X-107640Y48123D03*
D63*
X-107714Y48270D03*
D66*
X-107787Y48418D03*
X-107787Y48565D03*
D63*
X-107861Y48712D03*
D66*
X-107935Y48859D03*
X-107935Y49007D03*
X-108082Y49154D03*
X-108082Y49301D03*
D63*
X-108156Y49449D03*
D61*
X-108082Y49596D03*
X-108082Y49743D03*
D74*
X-108082Y49891D03*
D76*
X-108008Y50038D03*
D55*
X-108008Y50185D03*
X-108008Y50333D03*
D54*
X-107935Y50480D03*
D52*
X-107935Y50627D03*
D80*
X-107861Y50775D03*
D51*
X-107935Y50922D03*
D81*
X-107861Y51069D03*
D82*
X-107787Y51217D03*
D116*
X-107861Y51364D03*
D48*
X-107787Y51511D03*
D47*
X-107787Y51659D03*
D46*
X-107714Y51806D03*
X-107714Y51953D03*
D84*
X-107714Y52101D03*
D87*
X-107640Y52248D03*
D43*
X-107640Y52395D03*
X-107640Y52542D03*
D42*
X-107566Y52690D03*
D40*
X-107566Y52837D03*
D79*
X-107493Y52984D03*
X-107493Y53132D03*
D88*
X-107493Y53279D03*
D77*
X-107419Y53426D03*
D36*
X-107419Y53574D03*
X-107419Y53721D03*
D35*
X-107345Y53868D03*
D33*
X-107345Y54016D03*
D73*
X-107272Y54163D03*
D32*
X-107345Y54310D03*
D91*
X-107272Y54458D03*
D92*
X-107198Y54605D03*
D29*
X-107198Y54752D03*
X-107198Y54900D03*
D28*
X-107198Y55047D03*
D27*
X-107124Y55194D03*
D70*
X-107051Y55342D03*
D93*
X-107124Y55489D03*
D25*
X-107051Y55636D03*
D23*
X-107051Y55784D03*
X-107051Y55931D03*
D22*
X-106977Y56078D03*
D117*
X-107124Y56225D03*
D118*
X-107640Y56373D03*
D67*
X-108156Y56520D03*
D119*
X-108671Y56667D03*
D95*
X-109113Y56815D03*
D120*
X-109629Y56962D03*
D60*
X-110145Y57109D03*
D97*
X-110660Y57257D03*
D121*
X-111176Y57404D03*
D122*
X-50165Y11985D02*
X-50165Y8044D01*
X-51478Y6731D01*
X-52792Y8044D01*
X-54105Y6731D01*
X-55419Y8044D01*
X-55419Y11985D01*
X-58351Y11985D02*
X-58351Y8044D01*
X-59664Y6731D01*
X-60978Y8044D01*
X-62291Y6731D01*
X-63605Y8044D01*
X-63605Y11985D01*
X-66537Y11985D02*
X-66537Y8044D01*
X-67850Y6731D01*
X-69163Y8044D01*
X-70477Y6731D01*
X-71790Y8044D01*
X-71790Y11985D01*
X-74722Y8044D02*
X-74722Y6731D01*
X-74722Y8044D02*
X-76036Y8044D01*
X-76036Y6731D01*
X-74722Y6731D01*
X-78815Y6731D02*
X-78815Y14612D01*
X-78815Y10671D02*
X-84069Y10671D01*
X-84069Y6731D02*
X-84069Y14612D01*
X-88314Y6731D02*
X-90941Y6731D01*
X-88314Y6731D02*
X-87001Y8044D01*
X-87001Y10671D01*
X-88314Y11985D01*
X-90941Y11985D01*
X-92255Y10671D01*
X-92255Y9358D01*
X-87001Y9358D01*
X-95187Y11985D02*
X-100441Y6731D01*
X-95187Y6731D02*
X-100441Y11985D01*
X-104686Y11985D02*
X-107313Y11985D01*
X-108626Y10671D01*
X-108626Y6731D01*
X-104686Y6731D01*
X-103373Y8044D01*
X-104686Y9358D01*
X-108626Y9358D01*
X-111558Y6731D02*
X-111558Y14612D01*
X-111558Y6731D02*
X-115499Y6731D01*
X-116812Y8044D01*
X-116812Y10671D01*
X-115499Y11985D01*
X-111558Y11985D01*
X-119744Y11985D02*
X-121058Y11985D01*
X-121058Y6731D01*
X-122371Y6731D02*
X-119744Y6731D01*
X-121058Y14612D02*
X-121058Y15925D01*
X-126515Y13298D02*
X-126515Y8044D01*
X-127828Y6731D01*
X-127828Y11985D02*
X-125201Y11985D01*
X-130659Y11985D02*
X-135912Y11985D01*
X-130659Y6731D01*
X-135912Y6731D01*
X-138844Y6731D02*
X-138844Y8044D01*
X-140158Y8044D01*
X-140158Y6731D01*
X-138844Y6731D01*
X-144251Y11985D02*
X-148191Y11985D01*
X-144251Y11985D02*
X-142937Y10671D01*
X-142937Y8044D01*
X-144251Y6731D01*
X-148191Y6731D01*
X-152436Y6731D02*
X-155063Y6731D01*
X-156377Y8044D01*
X-156377Y10671D01*
X-155063Y11985D01*
X-152436Y11985D01*
X-151123Y10671D01*
X-151123Y8044D01*
X-152436Y6731D01*
X-159309Y6731D02*
X-159309Y11985D01*
X-160622Y11985D01*
X-161936Y10671D01*
X-161936Y6731D01*
X-161936Y10671D02*
X-163249Y11985D01*
X-164563Y10671D01*
X-164563Y6731D01*
D123*
X-238084Y126080D02*
X-235372Y128792D01*
X-229949Y128792D01*
X-227237Y126080D01*
X-227237Y115234D01*
X-229949Y112522D01*
X-235372Y112522D01*
X-238084Y115234D01*
X-238084Y120657D01*
X-232661Y120657D01*
X-243609Y112522D02*
X-243609Y128792D01*
X-254455Y112522D01*
X-254455Y128792D01*
X-259980Y128792D02*
X-259980Y112522D01*
X-268115Y112522D01*
X-270827Y115234D01*
X-270827Y126080D01*
X-268115Y128792D01*
X-259980Y128792D01*
X-234102Y-118858D02*
X-236814Y-121570D01*
X-234102Y-118858D02*
X-228679Y-118858D01*
X-225967Y-121570D01*
X-225967Y-132416D01*
X-228679Y-135128D01*
X-234102Y-135128D01*
X-236814Y-132416D01*
X-236814Y-126993D01*
X-231391Y-126993D01*
X-242339Y-135128D02*
X-242339Y-118858D01*
X-253185Y-135128D01*
X-253185Y-118858D01*
X-258710Y-118858D02*
X-258710Y-135128D01*
X-266845Y-135128D01*
X-269557Y-132416D01*
X-269557Y-121570D01*
X-266845Y-118858D01*
X-258710Y-118858D01*
X-331892Y-179818D02*
X-334604Y-182530D01*
X-331892Y-179818D02*
X-326469Y-179818D01*
X-323757Y-182530D01*
X-323757Y-193376D01*
X-326469Y-196088D01*
X-331892Y-196088D01*
X-334604Y-193376D01*
X-334604Y-187953D01*
X-329181Y-187953D01*
X-340129Y-196088D02*
X-340129Y-179818D01*
X-350975Y-196088D01*
X-350975Y-179818D01*
X-356500Y-179818D02*
X-356500Y-196088D01*
X-364635Y-196088D01*
X-367347Y-193376D01*
X-367347Y-182530D01*
X-364635Y-179818D01*
X-356500Y-179818D01*
X-334604Y184500D02*
X-331892Y187212D01*
X-326469Y187212D01*
X-323757Y184500D01*
X-323757Y173654D01*
X-326469Y170942D01*
X-331892Y170942D01*
X-334604Y173654D01*
X-334604Y179077D01*
X-329181Y179077D01*
X-340129Y170942D02*
X-340129Y187212D01*
X-350975Y170942D01*
X-350975Y187212D01*
X-356500Y187212D02*
X-356500Y170942D01*
X-364635Y170942D01*
X-367347Y173654D01*
X-367347Y184500D01*
X-364635Y187212D01*
X-356500Y187212D01*
X26289Y-166994D02*
X17815Y-179705D01*
X26289Y-179705D02*
X17815Y-166994D01*
X13192Y-171231D02*
X8955Y-166994D01*
X8955Y-179705D01*
X13192Y-179705D02*
X4718Y-179705D01*
X-4142Y-169113D02*
X-8379Y-166994D01*
X-4142Y-169113D02*
X95Y-173350D01*
X95Y-177587D01*
X-2024Y-179705D01*
X-6261Y-179705D01*
X-8379Y-177587D01*
X-8379Y-175468D01*
X-6261Y-173350D01*
X95Y-173350D01*
X-13003Y-179705D02*
X-13003Y-166994D01*
X-19358Y-166994D01*
X-21477Y-169113D01*
X-21477Y-173350D01*
X-19358Y-175468D01*
X-13003Y-175468D01*
X-17240Y-175468D02*
X-21477Y-179705D01*
X-30337Y-169113D02*
X-34574Y-166994D01*
X-30337Y-169113D02*
X-26100Y-173350D01*
X-26100Y-177587D01*
X-28218Y-179705D01*
X-32455Y-179705D01*
X-34574Y-177587D01*
X-34574Y-175468D01*
X-32455Y-173350D01*
X-26100Y-173350D01*
X-39197Y-177587D02*
X-39197Y-169113D01*
X-41316Y-166994D01*
X-45553Y-166994D01*
X-47671Y-169113D01*
X-47671Y-177587D01*
X-45553Y-179705D01*
X-41316Y-179705D01*
X-39197Y-177587D01*
X-47671Y-169113D01*
X-179757Y-15651D02*
X-176792Y-12685D01*
X-170860Y-12685D01*
X-167894Y-15651D01*
X-167894Y-27514D01*
X-170860Y-30480D01*
X-176792Y-30480D01*
X-179757Y-27514D01*
X-167767Y-10033D02*
X-167767Y7762D01*
X-167767Y-10033D02*
X-176665Y-10033D01*
X-179630Y-7067D01*
X-179630Y4796D01*
X-176665Y7762D01*
X-167767Y7762D01*
X-51435Y-98283D02*
X-51435Y-116078D01*
X-51435Y-98283D02*
X-60333Y-98283D01*
X-63298Y-101249D01*
X-63298Y-107180D01*
X-60333Y-110146D01*
X-51435Y-110146D01*
X-57367Y-110146D02*
X-63298Y-116078D01*
M02*
