G04 EAGLE Gerber RS-274X export*
G75*
%MOMM*%
%FSLAX34Y34*%
%LPD*%
%INSilkscreen Bottom*%
%IPPOS*%
%AMOC8*
5,1,8,0,0,1.08239X$1,22.5*%
G01*
%ADD10C,0.076200*%
%ADD11C,0.203200*%
%ADD12C,0.101600*%
%ADD13R,0.014731X0.014731*%
%ADD14R,0.147319X0.014731*%
%ADD15R,0.265175X0.014731*%
%ADD16R,0.383031X0.014731*%
%ADD17R,0.515619X0.014731*%
%ADD18R,0.633475X0.014731*%
%ADD19R,0.751331X0.014731*%
%ADD20R,0.883919X0.014731*%
%ADD21R,1.001775X0.014731*%
%ADD22R,1.119631X0.014731*%
%ADD23R,1.134363X0.014731*%
%ADD24R,1.149094X0.014731*%
%ADD25R,1.163825X0.014731*%
%ADD26R,1.178556X0.014731*%
%ADD27R,1.193288X0.014731*%
%ADD28R,1.222756X0.014731*%
%ADD29R,1.237488X0.014731*%
%ADD30R,1.266950X0.014731*%
%ADD31R,1.281681X0.014731*%
%ADD32R,1.311144X0.014731*%
%ADD33R,1.325881X0.014731*%
%ADD34R,1.355344X0.014731*%
%ADD35R,1.370075X0.014731*%
%ADD36R,1.384806X0.014731*%
%ADD37R,1.399538X0.014731*%
%ADD38R,1.414275X0.014731*%
%ADD39R,1.443738X0.014731*%
%ADD40R,1.458469X0.014731*%
%ADD41R,1.487931X0.014731*%
%ADD42R,1.502663X0.014731*%
%ADD43R,1.517394X0.014731*%
%ADD44R,1.532125X0.014731*%
%ADD45R,1.546856X0.014731*%
%ADD46R,1.576319X0.014731*%
%ADD47R,1.605788X0.014731*%
%ADD48R,1.620519X0.014731*%
%ADD49R,1.649981X0.014731*%
%ADD50R,1.664713X0.014731*%
%ADD51R,1.694175X0.014731*%
%ADD52R,1.708913X0.014731*%
%ADD53R,1.738375X0.014731*%
%ADD54R,1.753106X0.014731*%
%ADD55R,1.767838X0.014731*%
%ADD56R,1.782569X0.014731*%
%ADD57R,1.797306X0.014731*%
%ADD58R,0.117856X0.014731*%
%ADD59R,1.826769X0.014731*%
%ADD60R,0.235713X0.014731*%
%ADD61R,0.353569X0.014731*%
%ADD62R,1.856231X0.014731*%
%ADD63R,0.486156X0.014731*%
%ADD64R,1.870963X0.014731*%
%ADD65R,0.604013X0.014731*%
%ADD66R,0.721869X0.014731*%
%ADD67R,1.885694X0.014731*%
%ADD68R,0.839719X0.014731*%
%ADD69R,0.972306X0.014731*%
%ADD70R,1.090169X0.014731*%
%ADD71R,1.208025X0.014731*%
%ADD72R,1.252219X0.014731*%
%ADD73R,1.296412X0.014731*%
%ADD74R,1.340612X0.014731*%
%ADD75R,1.826763X0.014731*%
%ADD76R,1.414269X0.014731*%
%ADD77R,1.812031X0.014731*%
%ADD78R,1.429000X0.014731*%
%ADD79R,1.458462X0.014731*%
%ADD80R,1.473200X0.014731*%
%ADD81R,1.723644X0.014731*%
%ADD82R,1.694181X0.014731*%
%ADD83R,1.679450X0.014731*%
%ADD84R,1.561594X0.014731*%
%ADD85R,1.576325X0.014731*%
%ADD86R,1.591056X0.014731*%
%ADD87R,1.635250X0.014731*%
%ADD88R,1.561588X0.014731*%
%ADD89R,1.443731X0.014731*%
%ADD90R,1.797300X0.014731*%
%ADD91R,1.841500X0.014731*%
%ADD92R,1.311150X0.014731*%
%ADD93R,1.296419X0.014731*%
%ADD94R,1.193294X0.014731*%
%ADD95R,0.957575X0.014731*%
%ADD96R,0.589281X0.014731*%
%ADD97R,0.471425X0.014731*%
%ADD98R,0.220975X0.014731*%
%ADD99R,1.812038X0.014731*%
%ADD100R,0.103119X0.014731*%
%ADD101R,0.029463X0.014731*%
%ADD102R,0.162050X0.014731*%
%ADD103R,0.397763X0.014731*%
%ADD104R,0.648206X0.014731*%
%ADD105R,1.679444X0.014731*%
%ADD106R,1.016506X0.014731*%
%ADD107R,1.104900X0.014731*%
%ADD108R,1.222750X0.014731*%
%ADD109R,1.429006X0.014731*%
%ADD110R,1.208019X0.014731*%
%ADD111R,0.987044X0.014731*%
%ADD112R,0.854456X0.014731*%
%ADD113R,0.618744X0.014731*%
%ADD114R,0.500888X0.014731*%
%ADD115R,0.368300X0.014731*%
%ADD116R,0.132587X0.014731*%
%ADD117R,1.664719X0.014731*%
%ADD118R,1.075438X0.014731*%
%ADD119R,0.942844X0.014731*%
%ADD120R,0.707131X0.014731*%
%ADD121R,0.456694X0.014731*%
%ADD122R,0.088388X0.014731*%
%ADD123C,0.152400*%
%ADD124C,0.127000*%


D10*
X96304Y90345D02*
X97660Y91701D01*
X100371Y91701D01*
X101727Y90345D01*
X101727Y84922D01*
X100371Y83566D01*
X97660Y83566D01*
X96304Y84922D01*
X96304Y87633D01*
X99015Y87633D01*
X93541Y83566D02*
X93541Y91701D01*
X88118Y83566D01*
X88118Y91701D01*
X85355Y91701D02*
X85355Y83566D01*
X81288Y83566D01*
X79932Y84922D01*
X79932Y90345D01*
X81288Y91701D01*
X85355Y91701D01*
X96771Y68206D02*
X95415Y66850D01*
X96771Y68206D02*
X99482Y68206D01*
X100838Y66850D01*
X100838Y61427D01*
X99482Y60071D01*
X96771Y60071D01*
X95415Y61427D01*
X95415Y64138D01*
X98126Y64138D01*
X92652Y60071D02*
X92652Y68206D01*
X87229Y60071D01*
X87229Y68206D01*
X84466Y68206D02*
X84466Y60071D01*
X80399Y60071D01*
X79043Y61427D01*
X79043Y66850D01*
X80399Y68206D01*
X84466Y68206D01*
X96136Y42806D02*
X94780Y41450D01*
X96136Y42806D02*
X98847Y42806D01*
X100203Y41450D01*
X100203Y36027D01*
X98847Y34671D01*
X96136Y34671D01*
X94780Y36027D01*
X94780Y38738D01*
X97491Y38738D01*
X92017Y34671D02*
X92017Y42806D01*
X86594Y34671D01*
X86594Y42806D01*
X83831Y42806D02*
X83831Y34671D01*
X79764Y34671D01*
X78408Y36027D01*
X78408Y41450D01*
X79764Y42806D01*
X83831Y42806D01*
X95247Y17660D02*
X97958Y17660D01*
X99314Y16304D01*
X99314Y10881D01*
X97958Y9525D01*
X95247Y9525D01*
X93891Y10881D01*
X93891Y16304D01*
X95247Y17660D01*
X91128Y17660D02*
X85705Y17660D01*
X91128Y17660D02*
X91128Y9525D01*
X85705Y9525D01*
X88417Y13592D02*
X91128Y13592D01*
X98933Y-10407D02*
X98933Y-18542D01*
X98933Y-10407D02*
X94866Y-10407D01*
X93510Y-11763D01*
X93510Y-14475D01*
X94866Y-15830D01*
X98933Y-15830D01*
X96221Y-15830D02*
X93510Y-18542D01*
X90747Y-13119D02*
X88036Y-10407D01*
X88036Y-18542D01*
X90747Y-18542D02*
X85324Y-18542D01*
X98933Y-35172D02*
X98933Y-43307D01*
X98933Y-35172D02*
X94866Y-35172D01*
X93510Y-36528D01*
X93510Y-39240D01*
X94866Y-40595D01*
X98933Y-40595D01*
X96221Y-40595D02*
X93510Y-43307D01*
X90747Y-43307D02*
X85324Y-43307D01*
X90747Y-43307D02*
X85324Y-37884D01*
X85324Y-36528D01*
X86680Y-35172D01*
X89391Y-35172D01*
X90747Y-36528D01*
X82547Y-59810D02*
X81191Y-61166D01*
X82547Y-59810D02*
X85258Y-59810D01*
X86614Y-61166D01*
X86614Y-66589D01*
X85258Y-67945D01*
X82547Y-67945D01*
X81191Y-66589D01*
X81191Y-63878D01*
X83902Y-63878D01*
X78428Y-67945D02*
X78428Y-59810D01*
X73005Y-67945D01*
X73005Y-59810D01*
X70242Y-59810D02*
X70242Y-67945D01*
X66175Y-67945D01*
X64819Y-66589D01*
X64819Y-61166D01*
X66175Y-59810D01*
X70242Y-59810D01*
X83563Y-84956D02*
X82207Y-86312D01*
X83563Y-84956D02*
X86274Y-84956D01*
X87630Y-86312D01*
X87630Y-91735D01*
X86274Y-93091D01*
X83563Y-93091D01*
X82207Y-91735D01*
X82207Y-89024D01*
X84918Y-89024D01*
X79444Y-93091D02*
X79444Y-84956D01*
X74021Y-93091D01*
X74021Y-84956D01*
X71258Y-84956D02*
X71258Y-93091D01*
X67191Y-93091D01*
X65835Y-91735D01*
X65835Y-86312D01*
X67191Y-84956D01*
X71258Y-84956D01*
X114719Y-86566D02*
X116075Y-85210D01*
X118786Y-85210D01*
X120142Y-86566D01*
X120142Y-91989D01*
X118786Y-93345D01*
X116075Y-93345D01*
X114719Y-91989D01*
X111956Y-93345D02*
X111956Y-85210D01*
X111956Y-93345D02*
X106533Y-93345D01*
X103770Y-93345D02*
X103770Y-85210D01*
X103770Y-90633D02*
X98347Y-85210D01*
X102415Y-89278D02*
X98347Y-93345D01*
X114719Y-61420D02*
X116075Y-60064D01*
X118786Y-60064D01*
X120142Y-61420D01*
X120142Y-62776D01*
X118786Y-64132D01*
X116075Y-64132D01*
X114719Y-65487D01*
X114719Y-66843D01*
X116075Y-68199D01*
X118786Y-68199D01*
X120142Y-66843D01*
X109245Y-68199D02*
X109245Y-60064D01*
X111956Y-60064D02*
X106533Y-60064D01*
X103770Y-60064D02*
X103770Y-68199D01*
X103770Y-60064D02*
X99703Y-60064D01*
X98347Y-61420D01*
X98347Y-62776D01*
X99703Y-64132D01*
X98347Y-65487D01*
X98347Y-66843D01*
X99703Y-68199D01*
X103770Y-68199D01*
X103770Y-64132D02*
X99703Y-64132D01*
X114211Y-11128D02*
X115567Y-9772D01*
X118278Y-9772D01*
X119634Y-11128D01*
X119634Y-16551D01*
X118278Y-17907D01*
X115567Y-17907D01*
X114211Y-16551D01*
X114211Y-13840D01*
X116922Y-13840D01*
X111448Y-12484D02*
X108737Y-9772D01*
X108737Y-17907D01*
X111448Y-17907D02*
X106025Y-17907D01*
X117729Y83820D02*
X117729Y89243D01*
X115017Y91955D01*
X112306Y89243D01*
X112306Y83820D01*
X112306Y87887D02*
X117729Y87887D01*
D11*
X122936Y-113525D02*
X122936Y-129286D01*
X112428Y-129286D01*
X106564Y-113525D02*
X96057Y-113525D01*
X106564Y-113525D02*
X106564Y-129286D01*
X96057Y-129286D01*
X101311Y-121405D02*
X106564Y-121405D01*
X90193Y-113525D02*
X90193Y-129286D01*
X82312Y-129286D01*
X79685Y-126659D01*
X79685Y-116151D01*
X82312Y-113525D01*
X90193Y-113525D01*
X57450Y-113525D02*
X57450Y-129286D01*
X52196Y-118778D02*
X57450Y-113525D01*
X52196Y-118778D02*
X46942Y-113525D01*
X46942Y-129286D01*
X38451Y-118778D02*
X33197Y-118778D01*
X30571Y-121405D01*
X30571Y-129286D01*
X38451Y-129286D01*
X41078Y-126659D01*
X38451Y-124032D01*
X30571Y-124032D01*
X22080Y-126659D02*
X22080Y-116151D01*
X22080Y-126659D02*
X19453Y-129286D01*
X19453Y-118778D02*
X24707Y-118778D01*
X13792Y-118778D02*
X13792Y-129286D01*
X13792Y-124032D02*
X8538Y-118778D01*
X5912Y-118778D01*
X149Y-118778D02*
X-2478Y-118778D01*
X-2478Y-129286D01*
X149Y-129286D02*
X-5105Y-129286D01*
X-2478Y-113525D02*
X-2478Y-110898D01*
X-10765Y-118778D02*
X-21273Y-129286D01*
X-10765Y-129286D02*
X-21273Y-118778D01*
X-43508Y-113525D02*
X-43508Y-129286D01*
X-51389Y-129286D01*
X-54016Y-126659D01*
X-54016Y-116151D01*
X-51389Y-113525D01*
X-43508Y-113525D01*
X-59880Y-118778D02*
X-59880Y-129286D01*
X-59880Y-124032D02*
X-65134Y-118778D01*
X-67761Y-118778D01*
X-73523Y-118778D02*
X-76150Y-118778D01*
X-76150Y-129286D01*
X-73523Y-129286D02*
X-78777Y-129286D01*
X-76150Y-113525D02*
X-76150Y-110898D01*
X-84437Y-118778D02*
X-89691Y-129286D01*
X-94945Y-118778D01*
X-103436Y-129286D02*
X-108689Y-129286D01*
X-103436Y-129286D02*
X-100809Y-126659D01*
X-100809Y-121405D01*
X-103436Y-118778D01*
X-108689Y-118778D01*
X-111316Y-121405D01*
X-111316Y-124032D01*
X-100809Y-124032D01*
X-117180Y-129286D02*
X-117180Y-118778D01*
X-117180Y-124032D02*
X-122434Y-118778D01*
X-125061Y-118778D01*
D10*
X114592Y-36528D02*
X115948Y-35172D01*
X118659Y-35172D01*
X120015Y-36528D01*
X120015Y-41951D01*
X118659Y-43307D01*
X115948Y-43307D01*
X114592Y-41951D01*
X114592Y-39240D01*
X117303Y-39240D01*
X111829Y-43307D02*
X106406Y-43307D01*
X111829Y-43307D02*
X106406Y-37884D01*
X106406Y-36528D01*
X107762Y-35172D01*
X110473Y-35172D01*
X111829Y-36528D01*
X119126Y8001D02*
X119126Y16136D01*
X119126Y8001D02*
X115059Y8001D01*
X113703Y9357D01*
X113703Y14780D01*
X115059Y16136D01*
X119126Y16136D01*
X112941Y41704D02*
X114297Y43060D01*
X117008Y43060D01*
X118364Y41704D01*
X118364Y36281D01*
X117008Y34925D01*
X114297Y34925D01*
X112941Y36281D01*
X118364Y60325D02*
X118364Y68460D01*
X114297Y68460D01*
X112941Y67104D01*
X112941Y65748D01*
X114297Y64392D01*
X112941Y63037D01*
X112941Y61681D01*
X114297Y60325D01*
X118364Y60325D01*
X118364Y64392D02*
X114297Y64392D01*
D12*
X216778Y24010D02*
X216778Y16129D01*
X216778Y24010D02*
X212837Y24010D01*
X211524Y22696D01*
X211524Y20069D01*
X212837Y18756D01*
X216778Y18756D01*
X214151Y18756D02*
X211524Y16129D01*
X203338Y16129D02*
X208592Y24010D01*
X203338Y24010D02*
X208592Y16129D01*
X214405Y3563D02*
X214405Y-4318D01*
X217032Y3563D02*
X211778Y3563D01*
X208846Y3563D02*
X203592Y-4318D01*
X208846Y-4318D02*
X203592Y3563D01*
X220645Y-14852D02*
X220645Y-20106D01*
X218018Y-22733D01*
X215392Y-20106D01*
X215392Y-14852D01*
X208519Y-14852D02*
X207206Y-16166D01*
X208519Y-14852D02*
X211146Y-14852D01*
X212460Y-16166D01*
X212460Y-21420D01*
X211146Y-22733D01*
X208519Y-22733D01*
X207206Y-21420D01*
X200333Y-14852D02*
X199020Y-16166D01*
X200333Y-14852D02*
X202960Y-14852D01*
X204274Y-16166D01*
X204274Y-21420D01*
X202960Y-22733D01*
X200333Y-22733D01*
X199020Y-21420D01*
X215519Y-36105D02*
X216832Y-34791D01*
X219459Y-34791D01*
X220772Y-36105D01*
X220772Y-41359D01*
X219459Y-42672D01*
X216832Y-42672D01*
X215519Y-41359D01*
X215519Y-38732D01*
X218145Y-38732D01*
X212587Y-42672D02*
X212587Y-34791D01*
X207333Y-42672D01*
X207333Y-34791D01*
X204401Y-34791D02*
X204401Y-42672D01*
X200460Y-42672D01*
X199147Y-41359D01*
X199147Y-36105D01*
X200460Y-34791D01*
X204401Y-34791D01*
X-163198Y-62477D02*
X-164512Y-63791D01*
X-163198Y-62477D02*
X-160571Y-62477D01*
X-159258Y-63791D01*
X-159258Y-69045D01*
X-160571Y-70358D01*
X-163198Y-70358D01*
X-164512Y-69045D01*
X-164512Y-66418D01*
X-161885Y-66418D01*
X-167444Y-65104D02*
X-167444Y-70358D01*
X-167444Y-67731D02*
X-170071Y-65104D01*
X-171384Y-65104D01*
X-175579Y-70358D02*
X-178206Y-70358D01*
X-179519Y-69045D01*
X-179519Y-66418D01*
X-178206Y-65104D01*
X-175579Y-65104D01*
X-174265Y-66418D01*
X-174265Y-69045D01*
X-175579Y-70358D01*
X-182451Y-65104D02*
X-185078Y-70358D01*
X-187705Y-65104D01*
X-191950Y-70358D02*
X-194577Y-70358D01*
X-191950Y-70358D02*
X-190637Y-69045D01*
X-190637Y-66418D01*
X-191950Y-65104D01*
X-194577Y-65104D01*
X-195891Y-66418D01*
X-195891Y-67731D01*
X-190637Y-67731D01*
X214122Y-60452D02*
X214122Y-52571D01*
X214122Y-60452D02*
X210182Y-60452D01*
X208868Y-59139D01*
X208868Y-53885D01*
X210182Y-52571D01*
X214122Y-52571D01*
X205936Y-52571D02*
X200682Y-52571D01*
X205936Y-52571D02*
X205936Y-60452D01*
X200682Y-60452D01*
X203309Y-56512D02*
X205936Y-56512D01*
X197750Y-60452D02*
X197750Y-52571D01*
X193810Y-52571D01*
X192497Y-53885D01*
X192497Y-55198D01*
X193810Y-56512D01*
X192497Y-57825D01*
X192497Y-59139D01*
X193810Y-60452D01*
X197750Y-60452D01*
X197750Y-56512D02*
X193810Y-56512D01*
X189565Y-59139D02*
X189565Y-52571D01*
X189565Y-59139D02*
X188251Y-60452D01*
X185624Y-60452D01*
X184311Y-59139D01*
X184311Y-52571D01*
X177439Y-52571D02*
X176125Y-53885D01*
X177439Y-52571D02*
X180065Y-52571D01*
X181379Y-53885D01*
X181379Y-59139D01*
X180065Y-60452D01*
X177439Y-60452D01*
X176125Y-59139D01*
X176125Y-56512D01*
X178752Y-56512D01*
D13*
X13139Y19837D03*
D14*
X12624Y19985D03*
D15*
X12035Y20132D03*
D16*
X11593Y20279D03*
D17*
X11077Y20427D03*
D18*
X10635Y20574D03*
D19*
X10046Y20721D03*
D20*
X9530Y20869D03*
D21*
X9088Y21016D03*
D22*
X8646Y21163D03*
D23*
X8573Y21311D03*
D24*
X8646Y21458D03*
D25*
X8720Y21605D03*
D26*
X8646Y21753D03*
D27*
X8720Y21900D03*
D28*
X8720Y22047D03*
D29*
X8794Y22195D03*
X8794Y22342D03*
D30*
X8794Y22489D03*
D31*
X8867Y22637D03*
D32*
X8867Y22784D03*
X8867Y22931D03*
D33*
X8941Y23078D03*
D34*
X8941Y23226D03*
D35*
X9015Y23373D03*
D36*
X8941Y23520D03*
D37*
X9014Y23668D03*
D38*
X9088Y23815D03*
D39*
X9088Y23962D03*
X9088Y24110D03*
D40*
X9162Y24257D03*
D41*
X9162Y24404D03*
D42*
X9235Y24552D03*
D43*
X9162Y24699D03*
D44*
X9235Y24846D03*
D45*
X9309Y24994D03*
D46*
X9309Y25141D03*
X9309Y25288D03*
D47*
X9309Y25436D03*
D48*
X9383Y25583D03*
X9383Y25730D03*
D49*
X9383Y25878D03*
D50*
X9456Y26025D03*
D51*
X9456Y26172D03*
X9456Y26320D03*
D52*
X9530Y26467D03*
D53*
X9530Y26614D03*
D54*
X9604Y26761D03*
D55*
X9530Y26909D03*
D56*
X9604Y27056D03*
D57*
X9677Y27203D03*
D58*
X30155Y27203D03*
D59*
X9677Y27351D03*
D60*
X29566Y27351D03*
D59*
X9677Y27498D03*
D61*
X29124Y27498D03*
D62*
X9677Y27645D03*
D63*
X28608Y27645D03*
D64*
X9751Y27793D03*
D65*
X28166Y27793D03*
D64*
X9751Y27940D03*
D66*
X27577Y27940D03*
D67*
X9677Y28087D03*
D68*
X27135Y28087D03*
D67*
X9677Y28235D03*
D69*
X26619Y28235D03*
D64*
X9604Y28382D03*
D70*
X26177Y28382D03*
D67*
X9530Y28529D03*
D22*
X26030Y28529D03*
D67*
X9530Y28677D03*
D24*
X26030Y28677D03*
D67*
X9383Y28824D03*
D25*
X26104Y28824D03*
D67*
X9383Y28971D03*
D26*
X26177Y28971D03*
D64*
X9309Y29119D03*
D27*
X26104Y29119D03*
D67*
X9235Y29266D03*
D71*
X26177Y29266D03*
D67*
X9235Y29413D03*
D29*
X26177Y29413D03*
D67*
X9088Y29561D03*
D72*
X26251Y29561D03*
D67*
X9088Y29708D03*
D72*
X26251Y29708D03*
D64*
X9015Y29855D03*
D31*
X26251Y29855D03*
D67*
X8941Y30003D03*
D73*
X26325Y30003D03*
D67*
X8941Y30150D03*
D33*
X26325Y30150D03*
D67*
X8794Y30297D03*
D33*
X26325Y30297D03*
D67*
X8794Y30444D03*
D74*
X26398Y30444D03*
D64*
X8720Y30592D03*
D35*
X26398Y30592D03*
D62*
X8794Y30739D03*
D36*
X26472Y30739D03*
D62*
X8794Y30886D03*
D37*
X26398Y30886D03*
D75*
X8794Y31034D03*
D76*
X26472Y31034D03*
D77*
X8867Y31181D03*
D78*
X26546Y31181D03*
D56*
X8867Y31328D03*
D79*
X26546Y31328D03*
D56*
X8867Y31476D03*
D79*
X26546Y31476D03*
D55*
X8941Y31623D03*
D80*
X26619Y31623D03*
D53*
X8941Y31770D03*
D42*
X26619Y31770D03*
D81*
X9015Y31918D03*
D42*
X26619Y31918D03*
D52*
X8941Y32065D03*
D44*
X26619Y32065D03*
D82*
X9015Y32212D03*
D45*
X26693Y32212D03*
D83*
X9088Y32360D03*
D84*
X26767Y32360D03*
D49*
X9088Y32507D03*
D85*
X26693Y32507D03*
D49*
X9088Y32654D03*
D86*
X26767Y32654D03*
D87*
X9162Y32802D03*
D48*
X26767Y32802D03*
D47*
X9162Y32949D03*
D87*
X26840Y32949D03*
D47*
X9162Y33096D03*
D87*
X26840Y33096D03*
D85*
X9162Y33244D03*
D50*
X26840Y33244D03*
D88*
X9235Y33391D03*
D83*
X26914Y33391D03*
D45*
X9309Y33538D03*
D52*
X26914Y33538D03*
D44*
X9235Y33686D03*
D52*
X26914Y33686D03*
D43*
X9309Y33833D03*
D81*
X26988Y33833D03*
D41*
X9309Y33980D03*
D54*
X26988Y33980D03*
D80*
X9383Y34127D03*
D55*
X27061Y34127D03*
D80*
X9383Y34275D03*
D56*
X26988Y34275D03*
D89*
X9383Y34422D03*
D90*
X27061Y34422D03*
D78*
X9456Y34569D03*
D77*
X27135Y34569D03*
D37*
X9456Y34717D03*
D91*
X27135Y34717D03*
D37*
X9456Y34864D03*
D91*
X27135Y34864D03*
D36*
X9530Y35011D03*
D64*
X27135Y35011D03*
D34*
X9530Y35159D03*
D67*
X27209Y35159D03*
D74*
X9604Y35306D03*
D64*
X27135Y35306D03*
D33*
X9530Y35453D03*
D67*
X27061Y35453D03*
D92*
X9604Y35601D03*
D67*
X27061Y35601D03*
D93*
X9677Y35748D03*
D64*
X26988Y35748D03*
D30*
X9677Y35895D03*
D67*
X26914Y35895D03*
D30*
X9677Y36043D03*
D67*
X26914Y36043D03*
D72*
X9751Y36190D03*
D67*
X26767Y36190D03*
D28*
X9751Y36337D03*
D67*
X26767Y36337D03*
D71*
X9825Y36485D03*
D64*
X26693Y36485D03*
D94*
X9751Y36632D03*
D67*
X26619Y36632D03*
D26*
X9825Y36779D03*
D67*
X26619Y36779D03*
D25*
X9898Y36927D03*
D67*
X26472Y36927D03*
D24*
X9825Y37074D03*
D67*
X26472Y37074D03*
D23*
X9898Y37221D03*
D64*
X26398Y37221D03*
D70*
X9825Y37369D03*
D67*
X26325Y37369D03*
D95*
X9309Y37516D03*
D67*
X26325Y37516D03*
D68*
X8720Y37663D03*
D67*
X26177Y37663D03*
D66*
X8278Y37810D03*
D67*
X26177Y37810D03*
D96*
X7762Y37958D03*
D62*
X26177Y37958D03*
D97*
X7320Y38105D03*
D91*
X26251Y38105D03*
D61*
X6731Y38252D03*
D91*
X26251Y38252D03*
D98*
X6215Y38400D03*
D99*
X26251Y38400D03*
D100*
X5773Y38547D03*
D57*
X26325Y38547D03*
D101*
X15570Y38694D03*
D56*
X26251Y38694D03*
D102*
X15055Y38842D03*
D55*
X26325Y38842D03*
D15*
X14539Y38989D03*
D54*
X26398Y38989D03*
D103*
X14023Y39136D03*
D81*
X26398Y39136D03*
D17*
X13581Y39284D03*
D81*
X26398Y39284D03*
D104*
X13066Y39431D03*
D82*
X26398Y39431D03*
D19*
X12550Y39578D03*
D105*
X26472Y39578D03*
D20*
X12035Y39726D03*
D50*
X26546Y39726D03*
D106*
X11519Y39873D03*
D49*
X26472Y39873D03*
D107*
X11077Y40020D03*
D87*
X26546Y40020D03*
D23*
X11077Y40168D03*
D48*
X26619Y40168D03*
D24*
X11151Y40315D03*
D86*
X26619Y40315D03*
D25*
X11224Y40462D03*
D86*
X26619Y40462D03*
D26*
X11151Y40610D03*
D88*
X26619Y40610D03*
D27*
X11224Y40757D03*
D45*
X26693Y40757D03*
D108*
X11224Y40904D03*
D44*
X26767Y40904D03*
D29*
X11298Y41052D03*
D43*
X26693Y41052D03*
D29*
X11298Y41199D03*
D42*
X26767Y41199D03*
D30*
X11298Y41346D03*
D80*
X26767Y41346D03*
D31*
X11372Y41493D03*
D40*
X26840Y41493D03*
D32*
X11372Y41641D03*
D40*
X26840Y41641D03*
D32*
X11372Y41788D03*
D109*
X26840Y41788D03*
D33*
X11445Y41935D03*
D76*
X26914Y41935D03*
D34*
X11445Y42083D03*
D36*
X26914Y42083D03*
D35*
X11519Y42230D03*
D36*
X26914Y42230D03*
X11445Y42377D03*
D35*
X26988Y42377D03*
D37*
X11519Y42525D03*
D74*
X26988Y42525D03*
D76*
X11593Y42672D03*
D74*
X26988Y42672D03*
D39*
X11593Y42819D03*
D92*
X26988Y42819D03*
D39*
X11593Y42967D03*
D73*
X27061Y42967D03*
D80*
X11593Y43114D03*
D31*
X27135Y43114D03*
D41*
X11666Y43261D03*
D30*
X27061Y43261D03*
D42*
X11740Y43409D03*
D72*
X27135Y43409D03*
D43*
X11666Y43556D03*
D28*
X27135Y43556D03*
D44*
X11740Y43703D03*
D110*
X27209Y43703D03*
D88*
X11740Y43851D03*
D110*
X27209Y43851D03*
D46*
X11814Y43998D03*
D26*
X27209Y43998D03*
D46*
X11814Y44145D03*
D25*
X27282Y44145D03*
D47*
X11814Y44293D03*
D24*
X27356Y44293D03*
D48*
X11887Y44440D03*
D23*
X27282Y44440D03*
D48*
X11887Y44587D03*
D107*
X27282Y44587D03*
D49*
X11887Y44735D03*
D111*
X26840Y44735D03*
D50*
X11961Y44882D03*
D112*
X26325Y44882D03*
D51*
X11961Y45029D03*
D19*
X25809Y45029D03*
D51*
X11961Y45176D03*
D113*
X25293Y45176D03*
D52*
X12035Y45324D03*
D114*
X24851Y45324D03*
D53*
X12035Y45471D03*
D115*
X24336Y45471D03*
D54*
X12108Y45618D03*
D15*
X23820Y45618D03*
D55*
X12035Y45766D03*
D116*
X23305Y45766D03*
D56*
X12108Y45913D03*
D13*
X22863Y45913D03*
D57*
X12182Y46060D03*
D59*
X12182Y46208D03*
X12182Y46355D03*
D62*
X12182Y46502D03*
D64*
X12256Y46650D03*
X12256Y46797D03*
D67*
X12182Y46944D03*
X12182Y47092D03*
X12035Y47239D03*
X12035Y47386D03*
D64*
X11961Y47534D03*
D67*
X11887Y47681D03*
X11887Y47828D03*
X11740Y47976D03*
X11740Y48123D03*
D64*
X11666Y48270D03*
D67*
X11593Y48418D03*
X11593Y48565D03*
D64*
X11519Y48712D03*
D67*
X11445Y48859D03*
X11445Y49007D03*
X11298Y49154D03*
X11298Y49301D03*
D64*
X11224Y49449D03*
D62*
X11298Y49596D03*
X11298Y49743D03*
D75*
X11298Y49891D03*
D77*
X11372Y50038D03*
D56*
X11372Y50185D03*
X11372Y50333D03*
D55*
X11445Y50480D03*
D53*
X11445Y50627D03*
D81*
X11519Y50775D03*
D52*
X11445Y50922D03*
D82*
X11519Y51069D03*
D83*
X11593Y51217D03*
D117*
X11519Y51364D03*
D49*
X11593Y51511D03*
D48*
X11593Y51659D03*
D47*
X11666Y51806D03*
X11666Y51953D03*
D85*
X11666Y52101D03*
D88*
X11740Y52248D03*
D44*
X11740Y52395D03*
X11740Y52542D03*
D43*
X11814Y52690D03*
D41*
X11814Y52837D03*
D80*
X11887Y52984D03*
X11887Y53132D03*
D89*
X11887Y53279D03*
D78*
X11961Y53426D03*
D37*
X11961Y53574D03*
X11961Y53721D03*
D36*
X12035Y53868D03*
D34*
X12035Y54016D03*
D74*
X12108Y54163D03*
D33*
X12035Y54310D03*
D92*
X12108Y54458D03*
D93*
X12182Y54605D03*
D30*
X12182Y54752D03*
X12182Y54900D03*
D29*
X12182Y55047D03*
D28*
X12256Y55194D03*
D71*
X12329Y55342D03*
D94*
X12256Y55489D03*
D26*
X12329Y55636D03*
D24*
X12329Y55784D03*
X12329Y55931D03*
D23*
X12403Y56078D03*
D118*
X12256Y56225D03*
D119*
X11740Y56373D03*
D68*
X11224Y56520D03*
D120*
X10709Y56667D03*
D96*
X10267Y56815D03*
D121*
X9751Y56962D03*
D61*
X9235Y57109D03*
D98*
X8720Y57257D03*
D122*
X8204Y57404D03*
D12*
X69215Y11985D02*
X69215Y8044D01*
X67902Y6731D01*
X66588Y8044D01*
X65275Y6731D01*
X63961Y8044D01*
X63961Y11985D01*
X61029Y11985D02*
X61029Y8044D01*
X59716Y6731D01*
X58402Y8044D01*
X57089Y6731D01*
X55775Y8044D01*
X55775Y11985D01*
X52843Y11985D02*
X52843Y8044D01*
X51530Y6731D01*
X50217Y8044D01*
X48903Y6731D01*
X47590Y8044D01*
X47590Y11985D01*
X44658Y8044D02*
X44658Y6731D01*
X44658Y8044D02*
X43344Y8044D01*
X43344Y6731D01*
X44658Y6731D01*
X40565Y6731D02*
X40565Y14612D01*
X40565Y10671D02*
X35311Y10671D01*
X35311Y6731D02*
X35311Y14612D01*
X31066Y6731D02*
X28439Y6731D01*
X31066Y6731D02*
X32379Y8044D01*
X32379Y10671D01*
X31066Y11985D01*
X28439Y11985D01*
X27125Y10671D01*
X27125Y9358D01*
X32379Y9358D01*
X24193Y11985D02*
X18939Y6731D01*
X24193Y6731D02*
X18939Y11985D01*
X14694Y11985D02*
X12067Y11985D01*
X10754Y10671D01*
X10754Y6731D01*
X14694Y6731D01*
X16007Y8044D01*
X14694Y9358D01*
X10754Y9358D01*
X7822Y6731D02*
X7822Y14612D01*
X7822Y6731D02*
X3881Y6731D01*
X2568Y8044D01*
X2568Y10671D01*
X3881Y11985D01*
X7822Y11985D01*
X-364Y11985D02*
X-1678Y11985D01*
X-1678Y6731D01*
X-2991Y6731D02*
X-364Y6731D01*
X-1678Y14612D02*
X-1678Y15925D01*
X-7135Y13298D02*
X-7135Y8044D01*
X-8448Y6731D01*
X-8448Y11985D02*
X-5821Y11985D01*
X-11279Y11985D02*
X-16532Y11985D01*
X-11279Y6731D01*
X-16532Y6731D01*
X-19464Y6731D02*
X-19464Y8044D01*
X-20778Y8044D01*
X-20778Y6731D01*
X-19464Y6731D01*
X-24871Y11985D02*
X-28811Y11985D01*
X-24871Y11985D02*
X-23557Y10671D01*
X-23557Y8044D01*
X-24871Y6731D01*
X-28811Y6731D01*
X-33056Y6731D02*
X-35683Y6731D01*
X-36997Y8044D01*
X-36997Y10671D01*
X-35683Y11985D01*
X-33056Y11985D01*
X-31743Y10671D01*
X-31743Y8044D01*
X-33056Y6731D01*
X-39929Y6731D02*
X-39929Y11985D01*
X-41242Y11985D01*
X-42556Y10671D01*
X-42556Y6731D01*
X-42556Y10671D02*
X-43869Y11985D01*
X-45183Y10671D01*
X-45183Y6731D01*
D123*
X-235372Y128792D02*
X-238084Y126080D01*
X-235372Y128792D02*
X-229949Y128792D01*
X-227237Y126080D01*
X-227237Y115234D01*
X-229949Y112522D01*
X-235372Y112522D01*
X-238084Y115234D01*
X-238084Y120657D01*
X-232661Y120657D01*
X-243609Y112522D02*
X-243609Y128792D01*
X-254455Y112522D01*
X-254455Y128792D01*
X-259980Y128792D02*
X-259980Y112522D01*
X-268115Y112522D01*
X-270827Y115234D01*
X-270827Y126080D01*
X-268115Y128792D01*
X-259980Y128792D01*
X-234102Y-118858D02*
X-236814Y-121570D01*
X-234102Y-118858D02*
X-228679Y-118858D01*
X-225967Y-121570D01*
X-225967Y-132416D01*
X-228679Y-135128D01*
X-234102Y-135128D01*
X-236814Y-132416D01*
X-236814Y-126993D01*
X-231391Y-126993D01*
X-242339Y-135128D02*
X-242339Y-118858D01*
X-253185Y-135128D01*
X-253185Y-118858D01*
X-258710Y-118858D02*
X-258710Y-135128D01*
X-266845Y-135128D01*
X-269557Y-132416D01*
X-269557Y-121570D01*
X-266845Y-118858D01*
X-258710Y-118858D01*
X-331892Y-179818D02*
X-334604Y-182530D01*
X-331892Y-179818D02*
X-326469Y-179818D01*
X-323757Y-182530D01*
X-323757Y-193376D01*
X-326469Y-196088D01*
X-331892Y-196088D01*
X-334604Y-193376D01*
X-334604Y-187953D01*
X-329181Y-187953D01*
X-340129Y-196088D02*
X-340129Y-179818D01*
X-350975Y-196088D01*
X-350975Y-179818D01*
X-356500Y-179818D02*
X-356500Y-196088D01*
X-364635Y-196088D01*
X-367347Y-193376D01*
X-367347Y-182530D01*
X-364635Y-179818D01*
X-356500Y-179818D01*
X-334604Y184500D02*
X-331892Y187212D01*
X-326469Y187212D01*
X-323757Y184500D01*
X-323757Y173654D01*
X-326469Y170942D01*
X-331892Y170942D01*
X-334604Y173654D01*
X-334604Y179077D01*
X-329181Y179077D01*
X-340129Y170942D02*
X-340129Y187212D01*
X-350975Y170942D01*
X-350975Y187212D01*
X-356500Y187212D02*
X-356500Y170942D01*
X-364635Y170942D01*
X-367347Y173654D01*
X-367347Y184500D01*
X-364635Y187212D01*
X-356500Y187212D01*
X123317Y-138673D02*
X114843Y-151384D01*
X123317Y-151384D02*
X114843Y-138673D01*
X110220Y-142910D02*
X105983Y-138673D01*
X105983Y-151384D01*
X110220Y-151384D02*
X101746Y-151384D01*
X92886Y-140792D02*
X88649Y-138673D01*
X92886Y-140792D02*
X97123Y-145029D01*
X97123Y-149266D01*
X95004Y-151384D01*
X90767Y-151384D01*
X88649Y-149266D01*
X88649Y-147147D01*
X90767Y-145029D01*
X97123Y-145029D01*
X84025Y-151384D02*
X84025Y-138673D01*
X77670Y-138673D01*
X75551Y-140792D01*
X75551Y-145029D01*
X77670Y-147147D01*
X84025Y-147147D01*
X79788Y-147147D02*
X75551Y-151384D01*
X66691Y-140792D02*
X62454Y-138673D01*
X66691Y-140792D02*
X70928Y-145029D01*
X70928Y-149266D01*
X68810Y-151384D01*
X64573Y-151384D01*
X62454Y-149266D01*
X62454Y-147147D01*
X64573Y-145029D01*
X70928Y-145029D01*
X57831Y-149266D02*
X57831Y-140792D01*
X55712Y-138673D01*
X51475Y-138673D01*
X49357Y-140792D01*
X49357Y-149266D01*
X51475Y-151384D01*
X55712Y-151384D01*
X57831Y-149266D01*
X49357Y-140792D01*
D124*
X-188214Y16383D02*
X-188212Y16570D01*
X-188205Y16757D01*
X-188193Y16944D01*
X-188177Y17130D01*
X-188157Y17316D01*
X-188132Y17501D01*
X-188102Y17686D01*
X-188068Y17870D01*
X-188029Y18053D01*
X-187986Y18235D01*
X-187938Y18415D01*
X-187886Y18595D01*
X-187829Y18773D01*
X-187769Y18950D01*
X-187703Y19125D01*
X-187634Y19299D01*
X-187560Y19471D01*
X-187482Y19641D01*
X-187400Y19809D01*
X-187314Y19975D01*
X-187224Y20139D01*
X-187130Y20300D01*
X-187032Y20460D01*
X-186930Y20616D01*
X-186824Y20771D01*
X-186714Y20922D01*
X-186601Y21071D01*
X-186484Y21217D01*
X-186364Y21360D01*
X-186240Y21500D01*
X-186113Y21637D01*
X-185982Y21771D01*
X-185848Y21902D01*
X-185711Y22029D01*
X-185571Y22153D01*
X-185428Y22273D01*
X-185282Y22390D01*
X-185133Y22503D01*
X-184982Y22613D01*
X-184827Y22719D01*
X-184671Y22821D01*
X-184511Y22919D01*
X-184350Y23013D01*
X-184186Y23103D01*
X-184020Y23189D01*
X-183852Y23271D01*
X-183682Y23349D01*
X-183510Y23423D01*
X-183336Y23492D01*
X-183161Y23558D01*
X-182984Y23618D01*
X-182806Y23675D01*
X-182626Y23727D01*
X-182446Y23775D01*
X-182264Y23818D01*
X-182081Y23857D01*
X-181897Y23891D01*
X-181712Y23921D01*
X-181527Y23946D01*
X-181341Y23966D01*
X-181155Y23982D01*
X-180968Y23994D01*
X-180781Y24001D01*
X-180594Y24003D01*
X-180407Y24001D01*
X-180220Y23994D01*
X-180033Y23982D01*
X-179847Y23966D01*
X-179661Y23946D01*
X-179476Y23921D01*
X-179291Y23891D01*
X-179107Y23857D01*
X-178924Y23818D01*
X-178742Y23775D01*
X-178562Y23727D01*
X-178382Y23675D01*
X-178204Y23618D01*
X-178027Y23558D01*
X-177852Y23492D01*
X-177678Y23423D01*
X-177506Y23349D01*
X-177336Y23271D01*
X-177168Y23189D01*
X-177002Y23103D01*
X-176838Y23013D01*
X-176677Y22919D01*
X-176517Y22821D01*
X-176361Y22719D01*
X-176206Y22613D01*
X-176055Y22503D01*
X-175906Y22390D01*
X-175760Y22273D01*
X-175617Y22153D01*
X-175477Y22029D01*
X-175340Y21902D01*
X-175206Y21771D01*
X-175075Y21637D01*
X-174948Y21500D01*
X-174824Y21360D01*
X-174704Y21217D01*
X-174587Y21071D01*
X-174474Y20922D01*
X-174364Y20771D01*
X-174258Y20616D01*
X-174156Y20460D01*
X-174058Y20300D01*
X-173964Y20139D01*
X-173874Y19975D01*
X-173788Y19809D01*
X-173706Y19641D01*
X-173628Y19471D01*
X-173554Y19299D01*
X-173485Y19125D01*
X-173419Y18950D01*
X-173359Y18773D01*
X-173302Y18595D01*
X-173250Y18415D01*
X-173202Y18235D01*
X-173159Y18053D01*
X-173120Y17870D01*
X-173086Y17686D01*
X-173056Y17501D01*
X-173031Y17316D01*
X-173011Y17130D01*
X-172995Y16944D01*
X-172983Y16757D01*
X-172976Y16570D01*
X-172974Y16383D01*
X-172976Y16196D01*
X-172983Y16009D01*
X-172995Y15822D01*
X-173011Y15636D01*
X-173031Y15450D01*
X-173056Y15265D01*
X-173086Y15080D01*
X-173120Y14896D01*
X-173159Y14713D01*
X-173202Y14531D01*
X-173250Y14351D01*
X-173302Y14171D01*
X-173359Y13993D01*
X-173419Y13816D01*
X-173485Y13641D01*
X-173554Y13467D01*
X-173628Y13295D01*
X-173706Y13125D01*
X-173788Y12957D01*
X-173874Y12791D01*
X-173964Y12627D01*
X-174058Y12466D01*
X-174156Y12306D01*
X-174258Y12150D01*
X-174364Y11995D01*
X-174474Y11844D01*
X-174587Y11695D01*
X-174704Y11549D01*
X-174824Y11406D01*
X-174948Y11266D01*
X-175075Y11129D01*
X-175206Y10995D01*
X-175340Y10864D01*
X-175477Y10737D01*
X-175617Y10613D01*
X-175760Y10493D01*
X-175906Y10376D01*
X-176055Y10263D01*
X-176206Y10153D01*
X-176361Y10047D01*
X-176517Y9945D01*
X-176677Y9847D01*
X-176838Y9753D01*
X-177002Y9663D01*
X-177168Y9577D01*
X-177336Y9495D01*
X-177506Y9417D01*
X-177678Y9343D01*
X-177852Y9274D01*
X-178027Y9208D01*
X-178204Y9148D01*
X-178382Y9091D01*
X-178562Y9039D01*
X-178742Y8991D01*
X-178924Y8948D01*
X-179107Y8909D01*
X-179291Y8875D01*
X-179476Y8845D01*
X-179661Y8820D01*
X-179847Y8800D01*
X-180033Y8784D01*
X-180220Y8772D01*
X-180407Y8765D01*
X-180594Y8763D01*
X-180781Y8765D01*
X-180968Y8772D01*
X-181155Y8784D01*
X-181341Y8800D01*
X-181527Y8820D01*
X-181712Y8845D01*
X-181897Y8875D01*
X-182081Y8909D01*
X-182264Y8948D01*
X-182446Y8991D01*
X-182626Y9039D01*
X-182806Y9091D01*
X-182984Y9148D01*
X-183161Y9208D01*
X-183336Y9274D01*
X-183510Y9343D01*
X-183682Y9417D01*
X-183852Y9495D01*
X-184020Y9577D01*
X-184186Y9663D01*
X-184350Y9753D01*
X-184511Y9847D01*
X-184671Y9945D01*
X-184827Y10047D01*
X-184982Y10153D01*
X-185133Y10263D01*
X-185282Y10376D01*
X-185428Y10493D01*
X-185571Y10613D01*
X-185711Y10737D01*
X-185848Y10864D01*
X-185982Y10995D01*
X-186113Y11129D01*
X-186240Y11266D01*
X-186364Y11406D01*
X-186484Y11549D01*
X-186601Y11695D01*
X-186714Y11844D01*
X-186824Y11995D01*
X-186930Y12150D01*
X-187032Y12306D01*
X-187130Y12466D01*
X-187224Y12627D01*
X-187314Y12791D01*
X-187400Y12957D01*
X-187482Y13125D01*
X-187560Y13295D01*
X-187634Y13467D01*
X-187703Y13641D01*
X-187769Y13816D01*
X-187829Y13993D01*
X-187886Y14171D01*
X-187938Y14351D01*
X-187986Y14531D01*
X-188029Y14713D01*
X-188068Y14896D01*
X-188102Y15080D01*
X-188132Y15265D01*
X-188157Y15450D01*
X-188177Y15636D01*
X-188193Y15822D01*
X-188205Y16009D01*
X-188212Y16196D01*
X-188214Y16383D01*
D12*
X-149526Y18378D02*
X-148212Y19692D01*
X-145585Y19692D01*
X-144272Y18378D01*
X-144272Y13124D01*
X-145585Y11811D01*
X-148212Y11811D01*
X-149526Y13124D01*
X-149526Y15751D01*
X-146899Y15751D01*
X-152458Y11811D02*
X-152458Y19692D01*
X-157712Y11811D01*
X-157712Y19692D01*
X-160644Y19692D02*
X-160644Y11811D01*
X-164584Y11811D01*
X-165897Y13124D01*
X-165897Y18378D01*
X-164584Y19692D01*
X-160644Y19692D01*
D124*
X-188214Y-44577D02*
X-188212Y-44390D01*
X-188205Y-44203D01*
X-188193Y-44016D01*
X-188177Y-43830D01*
X-188157Y-43644D01*
X-188132Y-43459D01*
X-188102Y-43274D01*
X-188068Y-43090D01*
X-188029Y-42907D01*
X-187986Y-42725D01*
X-187938Y-42545D01*
X-187886Y-42365D01*
X-187829Y-42187D01*
X-187769Y-42010D01*
X-187703Y-41835D01*
X-187634Y-41661D01*
X-187560Y-41489D01*
X-187482Y-41319D01*
X-187400Y-41151D01*
X-187314Y-40985D01*
X-187224Y-40821D01*
X-187130Y-40660D01*
X-187032Y-40500D01*
X-186930Y-40344D01*
X-186824Y-40189D01*
X-186714Y-40038D01*
X-186601Y-39889D01*
X-186484Y-39743D01*
X-186364Y-39600D01*
X-186240Y-39460D01*
X-186113Y-39323D01*
X-185982Y-39189D01*
X-185848Y-39058D01*
X-185711Y-38931D01*
X-185571Y-38807D01*
X-185428Y-38687D01*
X-185282Y-38570D01*
X-185133Y-38457D01*
X-184982Y-38347D01*
X-184827Y-38241D01*
X-184671Y-38139D01*
X-184511Y-38041D01*
X-184350Y-37947D01*
X-184186Y-37857D01*
X-184020Y-37771D01*
X-183852Y-37689D01*
X-183682Y-37611D01*
X-183510Y-37537D01*
X-183336Y-37468D01*
X-183161Y-37402D01*
X-182984Y-37342D01*
X-182806Y-37285D01*
X-182626Y-37233D01*
X-182446Y-37185D01*
X-182264Y-37142D01*
X-182081Y-37103D01*
X-181897Y-37069D01*
X-181712Y-37039D01*
X-181527Y-37014D01*
X-181341Y-36994D01*
X-181155Y-36978D01*
X-180968Y-36966D01*
X-180781Y-36959D01*
X-180594Y-36957D01*
X-180407Y-36959D01*
X-180220Y-36966D01*
X-180033Y-36978D01*
X-179847Y-36994D01*
X-179661Y-37014D01*
X-179476Y-37039D01*
X-179291Y-37069D01*
X-179107Y-37103D01*
X-178924Y-37142D01*
X-178742Y-37185D01*
X-178562Y-37233D01*
X-178382Y-37285D01*
X-178204Y-37342D01*
X-178027Y-37402D01*
X-177852Y-37468D01*
X-177678Y-37537D01*
X-177506Y-37611D01*
X-177336Y-37689D01*
X-177168Y-37771D01*
X-177002Y-37857D01*
X-176838Y-37947D01*
X-176677Y-38041D01*
X-176517Y-38139D01*
X-176361Y-38241D01*
X-176206Y-38347D01*
X-176055Y-38457D01*
X-175906Y-38570D01*
X-175760Y-38687D01*
X-175617Y-38807D01*
X-175477Y-38931D01*
X-175340Y-39058D01*
X-175206Y-39189D01*
X-175075Y-39323D01*
X-174948Y-39460D01*
X-174824Y-39600D01*
X-174704Y-39743D01*
X-174587Y-39889D01*
X-174474Y-40038D01*
X-174364Y-40189D01*
X-174258Y-40344D01*
X-174156Y-40500D01*
X-174058Y-40660D01*
X-173964Y-40821D01*
X-173874Y-40985D01*
X-173788Y-41151D01*
X-173706Y-41319D01*
X-173628Y-41489D01*
X-173554Y-41661D01*
X-173485Y-41835D01*
X-173419Y-42010D01*
X-173359Y-42187D01*
X-173302Y-42365D01*
X-173250Y-42545D01*
X-173202Y-42725D01*
X-173159Y-42907D01*
X-173120Y-43090D01*
X-173086Y-43274D01*
X-173056Y-43459D01*
X-173031Y-43644D01*
X-173011Y-43830D01*
X-172995Y-44016D01*
X-172983Y-44203D01*
X-172976Y-44390D01*
X-172974Y-44577D01*
X-172976Y-44764D01*
X-172983Y-44951D01*
X-172995Y-45138D01*
X-173011Y-45324D01*
X-173031Y-45510D01*
X-173056Y-45695D01*
X-173086Y-45880D01*
X-173120Y-46064D01*
X-173159Y-46247D01*
X-173202Y-46429D01*
X-173250Y-46609D01*
X-173302Y-46789D01*
X-173359Y-46967D01*
X-173419Y-47144D01*
X-173485Y-47319D01*
X-173554Y-47493D01*
X-173628Y-47665D01*
X-173706Y-47835D01*
X-173788Y-48003D01*
X-173874Y-48169D01*
X-173964Y-48333D01*
X-174058Y-48494D01*
X-174156Y-48654D01*
X-174258Y-48810D01*
X-174364Y-48965D01*
X-174474Y-49116D01*
X-174587Y-49265D01*
X-174704Y-49411D01*
X-174824Y-49554D01*
X-174948Y-49694D01*
X-175075Y-49831D01*
X-175206Y-49965D01*
X-175340Y-50096D01*
X-175477Y-50223D01*
X-175617Y-50347D01*
X-175760Y-50467D01*
X-175906Y-50584D01*
X-176055Y-50697D01*
X-176206Y-50807D01*
X-176361Y-50913D01*
X-176517Y-51015D01*
X-176677Y-51113D01*
X-176838Y-51207D01*
X-177002Y-51297D01*
X-177168Y-51383D01*
X-177336Y-51465D01*
X-177506Y-51543D01*
X-177678Y-51617D01*
X-177852Y-51686D01*
X-178027Y-51752D01*
X-178204Y-51812D01*
X-178382Y-51869D01*
X-178562Y-51921D01*
X-178742Y-51969D01*
X-178924Y-52012D01*
X-179107Y-52051D01*
X-179291Y-52085D01*
X-179476Y-52115D01*
X-179661Y-52140D01*
X-179847Y-52160D01*
X-180033Y-52176D01*
X-180220Y-52188D01*
X-180407Y-52195D01*
X-180594Y-52197D01*
X-180781Y-52195D01*
X-180968Y-52188D01*
X-181155Y-52176D01*
X-181341Y-52160D01*
X-181527Y-52140D01*
X-181712Y-52115D01*
X-181897Y-52085D01*
X-182081Y-52051D01*
X-182264Y-52012D01*
X-182446Y-51969D01*
X-182626Y-51921D01*
X-182806Y-51869D01*
X-182984Y-51812D01*
X-183161Y-51752D01*
X-183336Y-51686D01*
X-183510Y-51617D01*
X-183682Y-51543D01*
X-183852Y-51465D01*
X-184020Y-51383D01*
X-184186Y-51297D01*
X-184350Y-51207D01*
X-184511Y-51113D01*
X-184671Y-51015D01*
X-184827Y-50913D01*
X-184982Y-50807D01*
X-185133Y-50697D01*
X-185282Y-50584D01*
X-185428Y-50467D01*
X-185571Y-50347D01*
X-185711Y-50223D01*
X-185848Y-50096D01*
X-185982Y-49965D01*
X-186113Y-49831D01*
X-186240Y-49694D01*
X-186364Y-49554D01*
X-186484Y-49411D01*
X-186601Y-49265D01*
X-186714Y-49116D01*
X-186824Y-48965D01*
X-186930Y-48810D01*
X-187032Y-48654D01*
X-187130Y-48494D01*
X-187224Y-48333D01*
X-187314Y-48169D01*
X-187400Y-48003D01*
X-187482Y-47835D01*
X-187560Y-47665D01*
X-187634Y-47493D01*
X-187703Y-47319D01*
X-187769Y-47144D01*
X-187829Y-46967D01*
X-187886Y-46789D01*
X-187938Y-46609D01*
X-187986Y-46429D01*
X-188029Y-46247D01*
X-188068Y-46064D01*
X-188102Y-45880D01*
X-188132Y-45695D01*
X-188157Y-45510D01*
X-188177Y-45324D01*
X-188193Y-45138D01*
X-188205Y-44951D01*
X-188212Y-44764D01*
X-188214Y-44577D01*
D12*
X-147153Y-45720D02*
X-147153Y-37839D01*
X-144526Y-37839D02*
X-149780Y-37839D01*
X-152712Y-37839D02*
X-157966Y-45720D01*
X-152712Y-45720D02*
X-157966Y-37839D01*
D124*
X-188214Y-24257D02*
X-188212Y-24070D01*
X-188205Y-23883D01*
X-188193Y-23696D01*
X-188177Y-23510D01*
X-188157Y-23324D01*
X-188132Y-23139D01*
X-188102Y-22954D01*
X-188068Y-22770D01*
X-188029Y-22587D01*
X-187986Y-22405D01*
X-187938Y-22225D01*
X-187886Y-22045D01*
X-187829Y-21867D01*
X-187769Y-21690D01*
X-187703Y-21515D01*
X-187634Y-21341D01*
X-187560Y-21169D01*
X-187482Y-20999D01*
X-187400Y-20831D01*
X-187314Y-20665D01*
X-187224Y-20501D01*
X-187130Y-20340D01*
X-187032Y-20180D01*
X-186930Y-20024D01*
X-186824Y-19869D01*
X-186714Y-19718D01*
X-186601Y-19569D01*
X-186484Y-19423D01*
X-186364Y-19280D01*
X-186240Y-19140D01*
X-186113Y-19003D01*
X-185982Y-18869D01*
X-185848Y-18738D01*
X-185711Y-18611D01*
X-185571Y-18487D01*
X-185428Y-18367D01*
X-185282Y-18250D01*
X-185133Y-18137D01*
X-184982Y-18027D01*
X-184827Y-17921D01*
X-184671Y-17819D01*
X-184511Y-17721D01*
X-184350Y-17627D01*
X-184186Y-17537D01*
X-184020Y-17451D01*
X-183852Y-17369D01*
X-183682Y-17291D01*
X-183510Y-17217D01*
X-183336Y-17148D01*
X-183161Y-17082D01*
X-182984Y-17022D01*
X-182806Y-16965D01*
X-182626Y-16913D01*
X-182446Y-16865D01*
X-182264Y-16822D01*
X-182081Y-16783D01*
X-181897Y-16749D01*
X-181712Y-16719D01*
X-181527Y-16694D01*
X-181341Y-16674D01*
X-181155Y-16658D01*
X-180968Y-16646D01*
X-180781Y-16639D01*
X-180594Y-16637D01*
X-180407Y-16639D01*
X-180220Y-16646D01*
X-180033Y-16658D01*
X-179847Y-16674D01*
X-179661Y-16694D01*
X-179476Y-16719D01*
X-179291Y-16749D01*
X-179107Y-16783D01*
X-178924Y-16822D01*
X-178742Y-16865D01*
X-178562Y-16913D01*
X-178382Y-16965D01*
X-178204Y-17022D01*
X-178027Y-17082D01*
X-177852Y-17148D01*
X-177678Y-17217D01*
X-177506Y-17291D01*
X-177336Y-17369D01*
X-177168Y-17451D01*
X-177002Y-17537D01*
X-176838Y-17627D01*
X-176677Y-17721D01*
X-176517Y-17819D01*
X-176361Y-17921D01*
X-176206Y-18027D01*
X-176055Y-18137D01*
X-175906Y-18250D01*
X-175760Y-18367D01*
X-175617Y-18487D01*
X-175477Y-18611D01*
X-175340Y-18738D01*
X-175206Y-18869D01*
X-175075Y-19003D01*
X-174948Y-19140D01*
X-174824Y-19280D01*
X-174704Y-19423D01*
X-174587Y-19569D01*
X-174474Y-19718D01*
X-174364Y-19869D01*
X-174258Y-20024D01*
X-174156Y-20180D01*
X-174058Y-20340D01*
X-173964Y-20501D01*
X-173874Y-20665D01*
X-173788Y-20831D01*
X-173706Y-20999D01*
X-173628Y-21169D01*
X-173554Y-21341D01*
X-173485Y-21515D01*
X-173419Y-21690D01*
X-173359Y-21867D01*
X-173302Y-22045D01*
X-173250Y-22225D01*
X-173202Y-22405D01*
X-173159Y-22587D01*
X-173120Y-22770D01*
X-173086Y-22954D01*
X-173056Y-23139D01*
X-173031Y-23324D01*
X-173011Y-23510D01*
X-172995Y-23696D01*
X-172983Y-23883D01*
X-172976Y-24070D01*
X-172974Y-24257D01*
X-172976Y-24444D01*
X-172983Y-24631D01*
X-172995Y-24818D01*
X-173011Y-25004D01*
X-173031Y-25190D01*
X-173056Y-25375D01*
X-173086Y-25560D01*
X-173120Y-25744D01*
X-173159Y-25927D01*
X-173202Y-26109D01*
X-173250Y-26289D01*
X-173302Y-26469D01*
X-173359Y-26647D01*
X-173419Y-26824D01*
X-173485Y-26999D01*
X-173554Y-27173D01*
X-173628Y-27345D01*
X-173706Y-27515D01*
X-173788Y-27683D01*
X-173874Y-27849D01*
X-173964Y-28013D01*
X-174058Y-28174D01*
X-174156Y-28334D01*
X-174258Y-28490D01*
X-174364Y-28645D01*
X-174474Y-28796D01*
X-174587Y-28945D01*
X-174704Y-29091D01*
X-174824Y-29234D01*
X-174948Y-29374D01*
X-175075Y-29511D01*
X-175206Y-29645D01*
X-175340Y-29776D01*
X-175477Y-29903D01*
X-175617Y-30027D01*
X-175760Y-30147D01*
X-175906Y-30264D01*
X-176055Y-30377D01*
X-176206Y-30487D01*
X-176361Y-30593D01*
X-176517Y-30695D01*
X-176677Y-30793D01*
X-176838Y-30887D01*
X-177002Y-30977D01*
X-177168Y-31063D01*
X-177336Y-31145D01*
X-177506Y-31223D01*
X-177678Y-31297D01*
X-177852Y-31366D01*
X-178027Y-31432D01*
X-178204Y-31492D01*
X-178382Y-31549D01*
X-178562Y-31601D01*
X-178742Y-31649D01*
X-178924Y-31692D01*
X-179107Y-31731D01*
X-179291Y-31765D01*
X-179476Y-31795D01*
X-179661Y-31820D01*
X-179847Y-31840D01*
X-180033Y-31856D01*
X-180220Y-31868D01*
X-180407Y-31875D01*
X-180594Y-31877D01*
X-180781Y-31875D01*
X-180968Y-31868D01*
X-181155Y-31856D01*
X-181341Y-31840D01*
X-181527Y-31820D01*
X-181712Y-31795D01*
X-181897Y-31765D01*
X-182081Y-31731D01*
X-182264Y-31692D01*
X-182446Y-31649D01*
X-182626Y-31601D01*
X-182806Y-31549D01*
X-182984Y-31492D01*
X-183161Y-31432D01*
X-183336Y-31366D01*
X-183510Y-31297D01*
X-183682Y-31223D01*
X-183852Y-31145D01*
X-184020Y-31063D01*
X-184186Y-30977D01*
X-184350Y-30887D01*
X-184511Y-30793D01*
X-184671Y-30695D01*
X-184827Y-30593D01*
X-184982Y-30487D01*
X-185133Y-30377D01*
X-185282Y-30264D01*
X-185428Y-30147D01*
X-185571Y-30027D01*
X-185711Y-29903D01*
X-185848Y-29776D01*
X-185982Y-29645D01*
X-186113Y-29511D01*
X-186240Y-29374D01*
X-186364Y-29234D01*
X-186484Y-29091D01*
X-186601Y-28945D01*
X-186714Y-28796D01*
X-186824Y-28645D01*
X-186930Y-28490D01*
X-187032Y-28334D01*
X-187130Y-28174D01*
X-187224Y-28013D01*
X-187314Y-27849D01*
X-187400Y-27683D01*
X-187482Y-27515D01*
X-187560Y-27345D01*
X-187634Y-27173D01*
X-187703Y-26999D01*
X-187769Y-26824D01*
X-187829Y-26647D01*
X-187886Y-26469D01*
X-187938Y-26289D01*
X-187986Y-26109D01*
X-188029Y-25927D01*
X-188068Y-25744D01*
X-188102Y-25560D01*
X-188132Y-25375D01*
X-188157Y-25190D01*
X-188177Y-25004D01*
X-188193Y-24818D01*
X-188205Y-24631D01*
X-188212Y-24444D01*
X-188214Y-24257D01*
D12*
X-143891Y-26162D02*
X-143891Y-18281D01*
X-147831Y-18281D01*
X-149145Y-19595D01*
X-149145Y-22222D01*
X-147831Y-23535D01*
X-143891Y-23535D01*
X-146518Y-23535D02*
X-149145Y-26162D01*
X-157331Y-26162D02*
X-152077Y-18281D01*
X-157331Y-18281D02*
X-152077Y-26162D01*
D124*
X-188214Y-3937D02*
X-188212Y-3750D01*
X-188205Y-3563D01*
X-188193Y-3376D01*
X-188177Y-3190D01*
X-188157Y-3004D01*
X-188132Y-2819D01*
X-188102Y-2634D01*
X-188068Y-2450D01*
X-188029Y-2267D01*
X-187986Y-2085D01*
X-187938Y-1905D01*
X-187886Y-1725D01*
X-187829Y-1547D01*
X-187769Y-1370D01*
X-187703Y-1195D01*
X-187634Y-1021D01*
X-187560Y-849D01*
X-187482Y-679D01*
X-187400Y-511D01*
X-187314Y-345D01*
X-187224Y-181D01*
X-187130Y-20D01*
X-187032Y140D01*
X-186930Y296D01*
X-186824Y451D01*
X-186714Y602D01*
X-186601Y751D01*
X-186484Y897D01*
X-186364Y1040D01*
X-186240Y1180D01*
X-186113Y1317D01*
X-185982Y1451D01*
X-185848Y1582D01*
X-185711Y1709D01*
X-185571Y1833D01*
X-185428Y1953D01*
X-185282Y2070D01*
X-185133Y2183D01*
X-184982Y2293D01*
X-184827Y2399D01*
X-184671Y2501D01*
X-184511Y2599D01*
X-184350Y2693D01*
X-184186Y2783D01*
X-184020Y2869D01*
X-183852Y2951D01*
X-183682Y3029D01*
X-183510Y3103D01*
X-183336Y3172D01*
X-183161Y3238D01*
X-182984Y3298D01*
X-182806Y3355D01*
X-182626Y3407D01*
X-182446Y3455D01*
X-182264Y3498D01*
X-182081Y3537D01*
X-181897Y3571D01*
X-181712Y3601D01*
X-181527Y3626D01*
X-181341Y3646D01*
X-181155Y3662D01*
X-180968Y3674D01*
X-180781Y3681D01*
X-180594Y3683D01*
X-180407Y3681D01*
X-180220Y3674D01*
X-180033Y3662D01*
X-179847Y3646D01*
X-179661Y3626D01*
X-179476Y3601D01*
X-179291Y3571D01*
X-179107Y3537D01*
X-178924Y3498D01*
X-178742Y3455D01*
X-178562Y3407D01*
X-178382Y3355D01*
X-178204Y3298D01*
X-178027Y3238D01*
X-177852Y3172D01*
X-177678Y3103D01*
X-177506Y3029D01*
X-177336Y2951D01*
X-177168Y2869D01*
X-177002Y2783D01*
X-176838Y2693D01*
X-176677Y2599D01*
X-176517Y2501D01*
X-176361Y2399D01*
X-176206Y2293D01*
X-176055Y2183D01*
X-175906Y2070D01*
X-175760Y1953D01*
X-175617Y1833D01*
X-175477Y1709D01*
X-175340Y1582D01*
X-175206Y1451D01*
X-175075Y1317D01*
X-174948Y1180D01*
X-174824Y1040D01*
X-174704Y897D01*
X-174587Y751D01*
X-174474Y602D01*
X-174364Y451D01*
X-174258Y296D01*
X-174156Y140D01*
X-174058Y-20D01*
X-173964Y-181D01*
X-173874Y-345D01*
X-173788Y-511D01*
X-173706Y-679D01*
X-173628Y-849D01*
X-173554Y-1021D01*
X-173485Y-1195D01*
X-173419Y-1370D01*
X-173359Y-1547D01*
X-173302Y-1725D01*
X-173250Y-1905D01*
X-173202Y-2085D01*
X-173159Y-2267D01*
X-173120Y-2450D01*
X-173086Y-2634D01*
X-173056Y-2819D01*
X-173031Y-3004D01*
X-173011Y-3190D01*
X-172995Y-3376D01*
X-172983Y-3563D01*
X-172976Y-3750D01*
X-172974Y-3937D01*
X-172976Y-4124D01*
X-172983Y-4311D01*
X-172995Y-4498D01*
X-173011Y-4684D01*
X-173031Y-4870D01*
X-173056Y-5055D01*
X-173086Y-5240D01*
X-173120Y-5424D01*
X-173159Y-5607D01*
X-173202Y-5789D01*
X-173250Y-5969D01*
X-173302Y-6149D01*
X-173359Y-6327D01*
X-173419Y-6504D01*
X-173485Y-6679D01*
X-173554Y-6853D01*
X-173628Y-7025D01*
X-173706Y-7195D01*
X-173788Y-7363D01*
X-173874Y-7529D01*
X-173964Y-7693D01*
X-174058Y-7854D01*
X-174156Y-8014D01*
X-174258Y-8170D01*
X-174364Y-8325D01*
X-174474Y-8476D01*
X-174587Y-8625D01*
X-174704Y-8771D01*
X-174824Y-8914D01*
X-174948Y-9054D01*
X-175075Y-9191D01*
X-175206Y-9325D01*
X-175340Y-9456D01*
X-175477Y-9583D01*
X-175617Y-9707D01*
X-175760Y-9827D01*
X-175906Y-9944D01*
X-176055Y-10057D01*
X-176206Y-10167D01*
X-176361Y-10273D01*
X-176517Y-10375D01*
X-176677Y-10473D01*
X-176838Y-10567D01*
X-177002Y-10657D01*
X-177168Y-10743D01*
X-177336Y-10825D01*
X-177506Y-10903D01*
X-177678Y-10977D01*
X-177852Y-11046D01*
X-178027Y-11112D01*
X-178204Y-11172D01*
X-178382Y-11229D01*
X-178562Y-11281D01*
X-178742Y-11329D01*
X-178924Y-11372D01*
X-179107Y-11411D01*
X-179291Y-11445D01*
X-179476Y-11475D01*
X-179661Y-11500D01*
X-179847Y-11520D01*
X-180033Y-11536D01*
X-180220Y-11548D01*
X-180407Y-11555D01*
X-180594Y-11557D01*
X-180781Y-11555D01*
X-180968Y-11548D01*
X-181155Y-11536D01*
X-181341Y-11520D01*
X-181527Y-11500D01*
X-181712Y-11475D01*
X-181897Y-11445D01*
X-182081Y-11411D01*
X-182264Y-11372D01*
X-182446Y-11329D01*
X-182626Y-11281D01*
X-182806Y-11229D01*
X-182984Y-11172D01*
X-183161Y-11112D01*
X-183336Y-11046D01*
X-183510Y-10977D01*
X-183682Y-10903D01*
X-183852Y-10825D01*
X-184020Y-10743D01*
X-184186Y-10657D01*
X-184350Y-10567D01*
X-184511Y-10473D01*
X-184671Y-10375D01*
X-184827Y-10273D01*
X-184982Y-10167D01*
X-185133Y-10057D01*
X-185282Y-9944D01*
X-185428Y-9827D01*
X-185571Y-9707D01*
X-185711Y-9583D01*
X-185848Y-9456D01*
X-185982Y-9325D01*
X-186113Y-9191D01*
X-186240Y-9054D01*
X-186364Y-8914D01*
X-186484Y-8771D01*
X-186601Y-8625D01*
X-186714Y-8476D01*
X-186824Y-8325D01*
X-186930Y-8170D01*
X-187032Y-8014D01*
X-187130Y-7854D01*
X-187224Y-7693D01*
X-187314Y-7529D01*
X-187400Y-7363D01*
X-187482Y-7195D01*
X-187560Y-7025D01*
X-187634Y-6853D01*
X-187703Y-6679D01*
X-187769Y-6504D01*
X-187829Y-6327D01*
X-187886Y-6149D01*
X-187938Y-5969D01*
X-187986Y-5789D01*
X-188029Y-5607D01*
X-188068Y-5424D01*
X-188102Y-5240D01*
X-188132Y-5055D01*
X-188157Y-4870D01*
X-188177Y-4684D01*
X-188193Y-4498D01*
X-188205Y-4311D01*
X-188212Y-4124D01*
X-188214Y-3937D01*
D12*
X-144272Y-4612D02*
X-144272Y642D01*
X-144272Y-4612D02*
X-146899Y-7239D01*
X-149526Y-4612D01*
X-149526Y642D01*
X-156398Y642D02*
X-157712Y-672D01*
X-156398Y642D02*
X-153771Y642D01*
X-152458Y-672D01*
X-152458Y-5926D01*
X-153771Y-7239D01*
X-156398Y-7239D01*
X-157712Y-5926D01*
X-164584Y642D02*
X-165897Y-672D01*
X-164584Y642D02*
X-161957Y642D01*
X-160644Y-672D01*
X-160644Y-5926D01*
X-161957Y-7239D01*
X-164584Y-7239D01*
X-165897Y-5926D01*
D124*
X182499Y21590D02*
X182501Y21777D01*
X182508Y21964D01*
X182520Y22151D01*
X182536Y22337D01*
X182556Y22523D01*
X182581Y22708D01*
X182611Y22893D01*
X182645Y23077D01*
X182684Y23260D01*
X182727Y23442D01*
X182775Y23622D01*
X182827Y23802D01*
X182884Y23980D01*
X182944Y24157D01*
X183010Y24332D01*
X183079Y24506D01*
X183153Y24678D01*
X183231Y24848D01*
X183313Y25016D01*
X183399Y25182D01*
X183489Y25346D01*
X183583Y25507D01*
X183681Y25667D01*
X183783Y25823D01*
X183889Y25978D01*
X183999Y26129D01*
X184112Y26278D01*
X184229Y26424D01*
X184349Y26567D01*
X184473Y26707D01*
X184600Y26844D01*
X184731Y26978D01*
X184865Y27109D01*
X185002Y27236D01*
X185142Y27360D01*
X185285Y27480D01*
X185431Y27597D01*
X185580Y27710D01*
X185731Y27820D01*
X185886Y27926D01*
X186042Y28028D01*
X186202Y28126D01*
X186363Y28220D01*
X186527Y28310D01*
X186693Y28396D01*
X186861Y28478D01*
X187031Y28556D01*
X187203Y28630D01*
X187377Y28699D01*
X187552Y28765D01*
X187729Y28825D01*
X187907Y28882D01*
X188087Y28934D01*
X188267Y28982D01*
X188449Y29025D01*
X188632Y29064D01*
X188816Y29098D01*
X189001Y29128D01*
X189186Y29153D01*
X189372Y29173D01*
X189558Y29189D01*
X189745Y29201D01*
X189932Y29208D01*
X190119Y29210D01*
X190306Y29208D01*
X190493Y29201D01*
X190680Y29189D01*
X190866Y29173D01*
X191052Y29153D01*
X191237Y29128D01*
X191422Y29098D01*
X191606Y29064D01*
X191789Y29025D01*
X191971Y28982D01*
X192151Y28934D01*
X192331Y28882D01*
X192509Y28825D01*
X192686Y28765D01*
X192861Y28699D01*
X193035Y28630D01*
X193207Y28556D01*
X193377Y28478D01*
X193545Y28396D01*
X193711Y28310D01*
X193875Y28220D01*
X194036Y28126D01*
X194196Y28028D01*
X194352Y27926D01*
X194507Y27820D01*
X194658Y27710D01*
X194807Y27597D01*
X194953Y27480D01*
X195096Y27360D01*
X195236Y27236D01*
X195373Y27109D01*
X195507Y26978D01*
X195638Y26844D01*
X195765Y26707D01*
X195889Y26567D01*
X196009Y26424D01*
X196126Y26278D01*
X196239Y26129D01*
X196349Y25978D01*
X196455Y25823D01*
X196557Y25667D01*
X196655Y25507D01*
X196749Y25346D01*
X196839Y25182D01*
X196925Y25016D01*
X197007Y24848D01*
X197085Y24678D01*
X197159Y24506D01*
X197228Y24332D01*
X197294Y24157D01*
X197354Y23980D01*
X197411Y23802D01*
X197463Y23622D01*
X197511Y23442D01*
X197554Y23260D01*
X197593Y23077D01*
X197627Y22893D01*
X197657Y22708D01*
X197682Y22523D01*
X197702Y22337D01*
X197718Y22151D01*
X197730Y21964D01*
X197737Y21777D01*
X197739Y21590D01*
X197737Y21403D01*
X197730Y21216D01*
X197718Y21029D01*
X197702Y20843D01*
X197682Y20657D01*
X197657Y20472D01*
X197627Y20287D01*
X197593Y20103D01*
X197554Y19920D01*
X197511Y19738D01*
X197463Y19558D01*
X197411Y19378D01*
X197354Y19200D01*
X197294Y19023D01*
X197228Y18848D01*
X197159Y18674D01*
X197085Y18502D01*
X197007Y18332D01*
X196925Y18164D01*
X196839Y17998D01*
X196749Y17834D01*
X196655Y17673D01*
X196557Y17513D01*
X196455Y17357D01*
X196349Y17202D01*
X196239Y17051D01*
X196126Y16902D01*
X196009Y16756D01*
X195889Y16613D01*
X195765Y16473D01*
X195638Y16336D01*
X195507Y16202D01*
X195373Y16071D01*
X195236Y15944D01*
X195096Y15820D01*
X194953Y15700D01*
X194807Y15583D01*
X194658Y15470D01*
X194507Y15360D01*
X194352Y15254D01*
X194196Y15152D01*
X194036Y15054D01*
X193875Y14960D01*
X193711Y14870D01*
X193545Y14784D01*
X193377Y14702D01*
X193207Y14624D01*
X193035Y14550D01*
X192861Y14481D01*
X192686Y14415D01*
X192509Y14355D01*
X192331Y14298D01*
X192151Y14246D01*
X191971Y14198D01*
X191789Y14155D01*
X191606Y14116D01*
X191422Y14082D01*
X191237Y14052D01*
X191052Y14027D01*
X190866Y14007D01*
X190680Y13991D01*
X190493Y13979D01*
X190306Y13972D01*
X190119Y13970D01*
X189932Y13972D01*
X189745Y13979D01*
X189558Y13991D01*
X189372Y14007D01*
X189186Y14027D01*
X189001Y14052D01*
X188816Y14082D01*
X188632Y14116D01*
X188449Y14155D01*
X188267Y14198D01*
X188087Y14246D01*
X187907Y14298D01*
X187729Y14355D01*
X187552Y14415D01*
X187377Y14481D01*
X187203Y14550D01*
X187031Y14624D01*
X186861Y14702D01*
X186693Y14784D01*
X186527Y14870D01*
X186363Y14960D01*
X186202Y15054D01*
X186042Y15152D01*
X185886Y15254D01*
X185731Y15360D01*
X185580Y15470D01*
X185431Y15583D01*
X185285Y15700D01*
X185142Y15820D01*
X185002Y15944D01*
X184865Y16071D01*
X184731Y16202D01*
X184600Y16336D01*
X184473Y16473D01*
X184349Y16613D01*
X184229Y16756D01*
X184112Y16902D01*
X183999Y17051D01*
X183889Y17202D01*
X183783Y17357D01*
X183681Y17513D01*
X183583Y17673D01*
X183489Y17834D01*
X183399Y17998D01*
X183313Y18164D01*
X183231Y18332D01*
X183153Y18502D01*
X183079Y18674D01*
X183010Y18848D01*
X182944Y19023D01*
X182884Y19200D01*
X182827Y19378D01*
X182775Y19558D01*
X182727Y19738D01*
X182684Y19920D01*
X182645Y20103D01*
X182611Y20287D01*
X182581Y20472D01*
X182556Y20657D01*
X182536Y20843D01*
X182520Y21029D01*
X182508Y21216D01*
X182501Y21403D01*
X182499Y21590D01*
X182499Y1270D02*
X182501Y1457D01*
X182508Y1644D01*
X182520Y1831D01*
X182536Y2017D01*
X182556Y2203D01*
X182581Y2388D01*
X182611Y2573D01*
X182645Y2757D01*
X182684Y2940D01*
X182727Y3122D01*
X182775Y3302D01*
X182827Y3482D01*
X182884Y3660D01*
X182944Y3837D01*
X183010Y4012D01*
X183079Y4186D01*
X183153Y4358D01*
X183231Y4528D01*
X183313Y4696D01*
X183399Y4862D01*
X183489Y5026D01*
X183583Y5187D01*
X183681Y5347D01*
X183783Y5503D01*
X183889Y5658D01*
X183999Y5809D01*
X184112Y5958D01*
X184229Y6104D01*
X184349Y6247D01*
X184473Y6387D01*
X184600Y6524D01*
X184731Y6658D01*
X184865Y6789D01*
X185002Y6916D01*
X185142Y7040D01*
X185285Y7160D01*
X185431Y7277D01*
X185580Y7390D01*
X185731Y7500D01*
X185886Y7606D01*
X186042Y7708D01*
X186202Y7806D01*
X186363Y7900D01*
X186527Y7990D01*
X186693Y8076D01*
X186861Y8158D01*
X187031Y8236D01*
X187203Y8310D01*
X187377Y8379D01*
X187552Y8445D01*
X187729Y8505D01*
X187907Y8562D01*
X188087Y8614D01*
X188267Y8662D01*
X188449Y8705D01*
X188632Y8744D01*
X188816Y8778D01*
X189001Y8808D01*
X189186Y8833D01*
X189372Y8853D01*
X189558Y8869D01*
X189745Y8881D01*
X189932Y8888D01*
X190119Y8890D01*
X190306Y8888D01*
X190493Y8881D01*
X190680Y8869D01*
X190866Y8853D01*
X191052Y8833D01*
X191237Y8808D01*
X191422Y8778D01*
X191606Y8744D01*
X191789Y8705D01*
X191971Y8662D01*
X192151Y8614D01*
X192331Y8562D01*
X192509Y8505D01*
X192686Y8445D01*
X192861Y8379D01*
X193035Y8310D01*
X193207Y8236D01*
X193377Y8158D01*
X193545Y8076D01*
X193711Y7990D01*
X193875Y7900D01*
X194036Y7806D01*
X194196Y7708D01*
X194352Y7606D01*
X194507Y7500D01*
X194658Y7390D01*
X194807Y7277D01*
X194953Y7160D01*
X195096Y7040D01*
X195236Y6916D01*
X195373Y6789D01*
X195507Y6658D01*
X195638Y6524D01*
X195765Y6387D01*
X195889Y6247D01*
X196009Y6104D01*
X196126Y5958D01*
X196239Y5809D01*
X196349Y5658D01*
X196455Y5503D01*
X196557Y5347D01*
X196655Y5187D01*
X196749Y5026D01*
X196839Y4862D01*
X196925Y4696D01*
X197007Y4528D01*
X197085Y4358D01*
X197159Y4186D01*
X197228Y4012D01*
X197294Y3837D01*
X197354Y3660D01*
X197411Y3482D01*
X197463Y3302D01*
X197511Y3122D01*
X197554Y2940D01*
X197593Y2757D01*
X197627Y2573D01*
X197657Y2388D01*
X197682Y2203D01*
X197702Y2017D01*
X197718Y1831D01*
X197730Y1644D01*
X197737Y1457D01*
X197739Y1270D01*
X197737Y1083D01*
X197730Y896D01*
X197718Y709D01*
X197702Y523D01*
X197682Y337D01*
X197657Y152D01*
X197627Y-33D01*
X197593Y-217D01*
X197554Y-400D01*
X197511Y-582D01*
X197463Y-762D01*
X197411Y-942D01*
X197354Y-1120D01*
X197294Y-1297D01*
X197228Y-1472D01*
X197159Y-1646D01*
X197085Y-1818D01*
X197007Y-1988D01*
X196925Y-2156D01*
X196839Y-2322D01*
X196749Y-2486D01*
X196655Y-2647D01*
X196557Y-2807D01*
X196455Y-2963D01*
X196349Y-3118D01*
X196239Y-3269D01*
X196126Y-3418D01*
X196009Y-3564D01*
X195889Y-3707D01*
X195765Y-3847D01*
X195638Y-3984D01*
X195507Y-4118D01*
X195373Y-4249D01*
X195236Y-4376D01*
X195096Y-4500D01*
X194953Y-4620D01*
X194807Y-4737D01*
X194658Y-4850D01*
X194507Y-4960D01*
X194352Y-5066D01*
X194196Y-5168D01*
X194036Y-5266D01*
X193875Y-5360D01*
X193711Y-5450D01*
X193545Y-5536D01*
X193377Y-5618D01*
X193207Y-5696D01*
X193035Y-5770D01*
X192861Y-5839D01*
X192686Y-5905D01*
X192509Y-5965D01*
X192331Y-6022D01*
X192151Y-6074D01*
X191971Y-6122D01*
X191789Y-6165D01*
X191606Y-6204D01*
X191422Y-6238D01*
X191237Y-6268D01*
X191052Y-6293D01*
X190866Y-6313D01*
X190680Y-6329D01*
X190493Y-6341D01*
X190306Y-6348D01*
X190119Y-6350D01*
X189932Y-6348D01*
X189745Y-6341D01*
X189558Y-6329D01*
X189372Y-6313D01*
X189186Y-6293D01*
X189001Y-6268D01*
X188816Y-6238D01*
X188632Y-6204D01*
X188449Y-6165D01*
X188267Y-6122D01*
X188087Y-6074D01*
X187907Y-6022D01*
X187729Y-5965D01*
X187552Y-5905D01*
X187377Y-5839D01*
X187203Y-5770D01*
X187031Y-5696D01*
X186861Y-5618D01*
X186693Y-5536D01*
X186527Y-5450D01*
X186363Y-5360D01*
X186202Y-5266D01*
X186042Y-5168D01*
X185886Y-5066D01*
X185731Y-4960D01*
X185580Y-4850D01*
X185431Y-4737D01*
X185285Y-4620D01*
X185142Y-4500D01*
X185002Y-4376D01*
X184865Y-4249D01*
X184731Y-4118D01*
X184600Y-3984D01*
X184473Y-3847D01*
X184349Y-3707D01*
X184229Y-3564D01*
X184112Y-3418D01*
X183999Y-3269D01*
X183889Y-3118D01*
X183783Y-2963D01*
X183681Y-2807D01*
X183583Y-2647D01*
X183489Y-2486D01*
X183399Y-2322D01*
X183313Y-2156D01*
X183231Y-1988D01*
X183153Y-1818D01*
X183079Y-1646D01*
X183010Y-1472D01*
X182944Y-1297D01*
X182884Y-1120D01*
X182827Y-942D01*
X182775Y-762D01*
X182727Y-582D01*
X182684Y-400D01*
X182645Y-217D01*
X182611Y-33D01*
X182581Y152D01*
X182556Y337D01*
X182536Y523D01*
X182520Y709D01*
X182508Y896D01*
X182501Y1083D01*
X182499Y1270D01*
X182499Y-39370D02*
X182501Y-39183D01*
X182508Y-38996D01*
X182520Y-38809D01*
X182536Y-38623D01*
X182556Y-38437D01*
X182581Y-38252D01*
X182611Y-38067D01*
X182645Y-37883D01*
X182684Y-37700D01*
X182727Y-37518D01*
X182775Y-37338D01*
X182827Y-37158D01*
X182884Y-36980D01*
X182944Y-36803D01*
X183010Y-36628D01*
X183079Y-36454D01*
X183153Y-36282D01*
X183231Y-36112D01*
X183313Y-35944D01*
X183399Y-35778D01*
X183489Y-35614D01*
X183583Y-35453D01*
X183681Y-35293D01*
X183783Y-35137D01*
X183889Y-34982D01*
X183999Y-34831D01*
X184112Y-34682D01*
X184229Y-34536D01*
X184349Y-34393D01*
X184473Y-34253D01*
X184600Y-34116D01*
X184731Y-33982D01*
X184865Y-33851D01*
X185002Y-33724D01*
X185142Y-33600D01*
X185285Y-33480D01*
X185431Y-33363D01*
X185580Y-33250D01*
X185731Y-33140D01*
X185886Y-33034D01*
X186042Y-32932D01*
X186202Y-32834D01*
X186363Y-32740D01*
X186527Y-32650D01*
X186693Y-32564D01*
X186861Y-32482D01*
X187031Y-32404D01*
X187203Y-32330D01*
X187377Y-32261D01*
X187552Y-32195D01*
X187729Y-32135D01*
X187907Y-32078D01*
X188087Y-32026D01*
X188267Y-31978D01*
X188449Y-31935D01*
X188632Y-31896D01*
X188816Y-31862D01*
X189001Y-31832D01*
X189186Y-31807D01*
X189372Y-31787D01*
X189558Y-31771D01*
X189745Y-31759D01*
X189932Y-31752D01*
X190119Y-31750D01*
X190306Y-31752D01*
X190493Y-31759D01*
X190680Y-31771D01*
X190866Y-31787D01*
X191052Y-31807D01*
X191237Y-31832D01*
X191422Y-31862D01*
X191606Y-31896D01*
X191789Y-31935D01*
X191971Y-31978D01*
X192151Y-32026D01*
X192331Y-32078D01*
X192509Y-32135D01*
X192686Y-32195D01*
X192861Y-32261D01*
X193035Y-32330D01*
X193207Y-32404D01*
X193377Y-32482D01*
X193545Y-32564D01*
X193711Y-32650D01*
X193875Y-32740D01*
X194036Y-32834D01*
X194196Y-32932D01*
X194352Y-33034D01*
X194507Y-33140D01*
X194658Y-33250D01*
X194807Y-33363D01*
X194953Y-33480D01*
X195096Y-33600D01*
X195236Y-33724D01*
X195373Y-33851D01*
X195507Y-33982D01*
X195638Y-34116D01*
X195765Y-34253D01*
X195889Y-34393D01*
X196009Y-34536D01*
X196126Y-34682D01*
X196239Y-34831D01*
X196349Y-34982D01*
X196455Y-35137D01*
X196557Y-35293D01*
X196655Y-35453D01*
X196749Y-35614D01*
X196839Y-35778D01*
X196925Y-35944D01*
X197007Y-36112D01*
X197085Y-36282D01*
X197159Y-36454D01*
X197228Y-36628D01*
X197294Y-36803D01*
X197354Y-36980D01*
X197411Y-37158D01*
X197463Y-37338D01*
X197511Y-37518D01*
X197554Y-37700D01*
X197593Y-37883D01*
X197627Y-38067D01*
X197657Y-38252D01*
X197682Y-38437D01*
X197702Y-38623D01*
X197718Y-38809D01*
X197730Y-38996D01*
X197737Y-39183D01*
X197739Y-39370D01*
X197737Y-39557D01*
X197730Y-39744D01*
X197718Y-39931D01*
X197702Y-40117D01*
X197682Y-40303D01*
X197657Y-40488D01*
X197627Y-40673D01*
X197593Y-40857D01*
X197554Y-41040D01*
X197511Y-41222D01*
X197463Y-41402D01*
X197411Y-41582D01*
X197354Y-41760D01*
X197294Y-41937D01*
X197228Y-42112D01*
X197159Y-42286D01*
X197085Y-42458D01*
X197007Y-42628D01*
X196925Y-42796D01*
X196839Y-42962D01*
X196749Y-43126D01*
X196655Y-43287D01*
X196557Y-43447D01*
X196455Y-43603D01*
X196349Y-43758D01*
X196239Y-43909D01*
X196126Y-44058D01*
X196009Y-44204D01*
X195889Y-44347D01*
X195765Y-44487D01*
X195638Y-44624D01*
X195507Y-44758D01*
X195373Y-44889D01*
X195236Y-45016D01*
X195096Y-45140D01*
X194953Y-45260D01*
X194807Y-45377D01*
X194658Y-45490D01*
X194507Y-45600D01*
X194352Y-45706D01*
X194196Y-45808D01*
X194036Y-45906D01*
X193875Y-46000D01*
X193711Y-46090D01*
X193545Y-46176D01*
X193377Y-46258D01*
X193207Y-46336D01*
X193035Y-46410D01*
X192861Y-46479D01*
X192686Y-46545D01*
X192509Y-46605D01*
X192331Y-46662D01*
X192151Y-46714D01*
X191971Y-46762D01*
X191789Y-46805D01*
X191606Y-46844D01*
X191422Y-46878D01*
X191237Y-46908D01*
X191052Y-46933D01*
X190866Y-46953D01*
X190680Y-46969D01*
X190493Y-46981D01*
X190306Y-46988D01*
X190119Y-46990D01*
X189932Y-46988D01*
X189745Y-46981D01*
X189558Y-46969D01*
X189372Y-46953D01*
X189186Y-46933D01*
X189001Y-46908D01*
X188816Y-46878D01*
X188632Y-46844D01*
X188449Y-46805D01*
X188267Y-46762D01*
X188087Y-46714D01*
X187907Y-46662D01*
X187729Y-46605D01*
X187552Y-46545D01*
X187377Y-46479D01*
X187203Y-46410D01*
X187031Y-46336D01*
X186861Y-46258D01*
X186693Y-46176D01*
X186527Y-46090D01*
X186363Y-46000D01*
X186202Y-45906D01*
X186042Y-45808D01*
X185886Y-45706D01*
X185731Y-45600D01*
X185580Y-45490D01*
X185431Y-45377D01*
X185285Y-45260D01*
X185142Y-45140D01*
X185002Y-45016D01*
X184865Y-44889D01*
X184731Y-44758D01*
X184600Y-44624D01*
X184473Y-44487D01*
X184349Y-44347D01*
X184229Y-44204D01*
X184112Y-44058D01*
X183999Y-43909D01*
X183889Y-43758D01*
X183783Y-43603D01*
X183681Y-43447D01*
X183583Y-43287D01*
X183489Y-43126D01*
X183399Y-42962D01*
X183313Y-42796D01*
X183231Y-42628D01*
X183153Y-42458D01*
X183079Y-42286D01*
X183010Y-42112D01*
X182944Y-41937D01*
X182884Y-41760D01*
X182827Y-41582D01*
X182775Y-41402D01*
X182727Y-41222D01*
X182684Y-41040D01*
X182645Y-40857D01*
X182611Y-40673D01*
X182581Y-40488D01*
X182556Y-40303D01*
X182536Y-40117D01*
X182520Y-39931D01*
X182508Y-39744D01*
X182501Y-39557D01*
X182499Y-39370D01*
X182499Y-19050D02*
X182501Y-18863D01*
X182508Y-18676D01*
X182520Y-18489D01*
X182536Y-18303D01*
X182556Y-18117D01*
X182581Y-17932D01*
X182611Y-17747D01*
X182645Y-17563D01*
X182684Y-17380D01*
X182727Y-17198D01*
X182775Y-17018D01*
X182827Y-16838D01*
X182884Y-16660D01*
X182944Y-16483D01*
X183010Y-16308D01*
X183079Y-16134D01*
X183153Y-15962D01*
X183231Y-15792D01*
X183313Y-15624D01*
X183399Y-15458D01*
X183489Y-15294D01*
X183583Y-15133D01*
X183681Y-14973D01*
X183783Y-14817D01*
X183889Y-14662D01*
X183999Y-14511D01*
X184112Y-14362D01*
X184229Y-14216D01*
X184349Y-14073D01*
X184473Y-13933D01*
X184600Y-13796D01*
X184731Y-13662D01*
X184865Y-13531D01*
X185002Y-13404D01*
X185142Y-13280D01*
X185285Y-13160D01*
X185431Y-13043D01*
X185580Y-12930D01*
X185731Y-12820D01*
X185886Y-12714D01*
X186042Y-12612D01*
X186202Y-12514D01*
X186363Y-12420D01*
X186527Y-12330D01*
X186693Y-12244D01*
X186861Y-12162D01*
X187031Y-12084D01*
X187203Y-12010D01*
X187377Y-11941D01*
X187552Y-11875D01*
X187729Y-11815D01*
X187907Y-11758D01*
X188087Y-11706D01*
X188267Y-11658D01*
X188449Y-11615D01*
X188632Y-11576D01*
X188816Y-11542D01*
X189001Y-11512D01*
X189186Y-11487D01*
X189372Y-11467D01*
X189558Y-11451D01*
X189745Y-11439D01*
X189932Y-11432D01*
X190119Y-11430D01*
X190306Y-11432D01*
X190493Y-11439D01*
X190680Y-11451D01*
X190866Y-11467D01*
X191052Y-11487D01*
X191237Y-11512D01*
X191422Y-11542D01*
X191606Y-11576D01*
X191789Y-11615D01*
X191971Y-11658D01*
X192151Y-11706D01*
X192331Y-11758D01*
X192509Y-11815D01*
X192686Y-11875D01*
X192861Y-11941D01*
X193035Y-12010D01*
X193207Y-12084D01*
X193377Y-12162D01*
X193545Y-12244D01*
X193711Y-12330D01*
X193875Y-12420D01*
X194036Y-12514D01*
X194196Y-12612D01*
X194352Y-12714D01*
X194507Y-12820D01*
X194658Y-12930D01*
X194807Y-13043D01*
X194953Y-13160D01*
X195096Y-13280D01*
X195236Y-13404D01*
X195373Y-13531D01*
X195507Y-13662D01*
X195638Y-13796D01*
X195765Y-13933D01*
X195889Y-14073D01*
X196009Y-14216D01*
X196126Y-14362D01*
X196239Y-14511D01*
X196349Y-14662D01*
X196455Y-14817D01*
X196557Y-14973D01*
X196655Y-15133D01*
X196749Y-15294D01*
X196839Y-15458D01*
X196925Y-15624D01*
X197007Y-15792D01*
X197085Y-15962D01*
X197159Y-16134D01*
X197228Y-16308D01*
X197294Y-16483D01*
X197354Y-16660D01*
X197411Y-16838D01*
X197463Y-17018D01*
X197511Y-17198D01*
X197554Y-17380D01*
X197593Y-17563D01*
X197627Y-17747D01*
X197657Y-17932D01*
X197682Y-18117D01*
X197702Y-18303D01*
X197718Y-18489D01*
X197730Y-18676D01*
X197737Y-18863D01*
X197739Y-19050D01*
X197737Y-19237D01*
X197730Y-19424D01*
X197718Y-19611D01*
X197702Y-19797D01*
X197682Y-19983D01*
X197657Y-20168D01*
X197627Y-20353D01*
X197593Y-20537D01*
X197554Y-20720D01*
X197511Y-20902D01*
X197463Y-21082D01*
X197411Y-21262D01*
X197354Y-21440D01*
X197294Y-21617D01*
X197228Y-21792D01*
X197159Y-21966D01*
X197085Y-22138D01*
X197007Y-22308D01*
X196925Y-22476D01*
X196839Y-22642D01*
X196749Y-22806D01*
X196655Y-22967D01*
X196557Y-23127D01*
X196455Y-23283D01*
X196349Y-23438D01*
X196239Y-23589D01*
X196126Y-23738D01*
X196009Y-23884D01*
X195889Y-24027D01*
X195765Y-24167D01*
X195638Y-24304D01*
X195507Y-24438D01*
X195373Y-24569D01*
X195236Y-24696D01*
X195096Y-24820D01*
X194953Y-24940D01*
X194807Y-25057D01*
X194658Y-25170D01*
X194507Y-25280D01*
X194352Y-25386D01*
X194196Y-25488D01*
X194036Y-25586D01*
X193875Y-25680D01*
X193711Y-25770D01*
X193545Y-25856D01*
X193377Y-25938D01*
X193207Y-26016D01*
X193035Y-26090D01*
X192861Y-26159D01*
X192686Y-26225D01*
X192509Y-26285D01*
X192331Y-26342D01*
X192151Y-26394D01*
X191971Y-26442D01*
X191789Y-26485D01*
X191606Y-26524D01*
X191422Y-26558D01*
X191237Y-26588D01*
X191052Y-26613D01*
X190866Y-26633D01*
X190680Y-26649D01*
X190493Y-26661D01*
X190306Y-26668D01*
X190119Y-26670D01*
X189932Y-26668D01*
X189745Y-26661D01*
X189558Y-26649D01*
X189372Y-26633D01*
X189186Y-26613D01*
X189001Y-26588D01*
X188816Y-26558D01*
X188632Y-26524D01*
X188449Y-26485D01*
X188267Y-26442D01*
X188087Y-26394D01*
X187907Y-26342D01*
X187729Y-26285D01*
X187552Y-26225D01*
X187377Y-26159D01*
X187203Y-26090D01*
X187031Y-26016D01*
X186861Y-25938D01*
X186693Y-25856D01*
X186527Y-25770D01*
X186363Y-25680D01*
X186202Y-25586D01*
X186042Y-25488D01*
X185886Y-25386D01*
X185731Y-25280D01*
X185580Y-25170D01*
X185431Y-25057D01*
X185285Y-24940D01*
X185142Y-24820D01*
X185002Y-24696D01*
X184865Y-24569D01*
X184731Y-24438D01*
X184600Y-24304D01*
X184473Y-24167D01*
X184349Y-24027D01*
X184229Y-23884D01*
X184112Y-23738D01*
X183999Y-23589D01*
X183889Y-23438D01*
X183783Y-23283D01*
X183681Y-23127D01*
X183583Y-22967D01*
X183489Y-22806D01*
X183399Y-22642D01*
X183313Y-22476D01*
X183231Y-22308D01*
X183153Y-22138D01*
X183079Y-21966D01*
X183010Y-21792D01*
X182944Y-21617D01*
X182884Y-21440D01*
X182827Y-21262D01*
X182775Y-21082D01*
X182727Y-20902D01*
X182684Y-20720D01*
X182645Y-20537D01*
X182611Y-20353D01*
X182581Y-20168D01*
X182556Y-19983D01*
X182536Y-19797D01*
X182520Y-19611D01*
X182508Y-19424D01*
X182501Y-19237D01*
X182499Y-19050D01*
D123*
X-76462Y-12304D02*
X-79427Y-15270D01*
X-76462Y-12304D02*
X-70530Y-12304D01*
X-67564Y-15270D01*
X-67564Y-27133D01*
X-70530Y-30099D01*
X-76462Y-30099D01*
X-79427Y-27133D01*
X-67818Y-8509D02*
X-67818Y9286D01*
X-67818Y-8509D02*
X-76716Y-8509D01*
X-79681Y-5543D01*
X-79681Y6320D01*
X-76716Y9286D01*
X-67818Y9286D01*
X77978Y126492D02*
X77978Y144287D01*
X69080Y144287D01*
X66115Y141321D01*
X66115Y135390D01*
X69080Y132424D01*
X77978Y132424D01*
X72046Y132424D02*
X66115Y126492D01*
M02*
