G04 EAGLE Gerber RS-274X export*
G75*
%MOMM*%
%FSLAX34Y34*%
%LPD*%
%INSolderpaste Top*%
%IPPOS*%
%AMOC8*
5,1,8,0,0,1.08239X$1,22.5*%
G01*
%ADD10C,0.317500*%
%ADD11R,2.032000X1.016000*%
%ADD12C,0.124994*%
%ADD13R,5.699988X5.699988*%
%ADD14R,1.399997X0.400000*%


D10*
X-116903Y63183D02*
X-116903Y60007D01*
X-120079Y60007D01*
X-120079Y63183D01*
X-116903Y63183D01*
X-116903Y63023D02*
X-120079Y63023D01*
X-116903Y68897D02*
X-116903Y72073D01*
X-116903Y68897D02*
X-120079Y68897D01*
X-120079Y72073D01*
X-116903Y72073D01*
X-116903Y71913D02*
X-120079Y71913D01*
X-29020Y22543D02*
X-25844Y22543D01*
X-25844Y19367D01*
X-29020Y19367D01*
X-29020Y22543D01*
X-29020Y22383D02*
X-25844Y22383D01*
X-34734Y22543D02*
X-37910Y22543D01*
X-34734Y22543D02*
X-34734Y19367D01*
X-37910Y19367D01*
X-37910Y22543D01*
X-37910Y22383D02*
X-34734Y22383D01*
X-28893Y33084D02*
X-25717Y33084D01*
X-25717Y29908D01*
X-28893Y29908D01*
X-28893Y33084D01*
X-28893Y32924D02*
X-25717Y32924D01*
X-34607Y33084D02*
X-37783Y33084D01*
X-34607Y33084D02*
X-34607Y29908D01*
X-37783Y29908D01*
X-37783Y33084D01*
X-37783Y32924D02*
X-34607Y32924D01*
X-28893Y43498D02*
X-25717Y43498D01*
X-25717Y40322D01*
X-28893Y40322D01*
X-28893Y43498D01*
X-28893Y43338D02*
X-25717Y43338D01*
X-34607Y43498D02*
X-37783Y43498D01*
X-34607Y43498D02*
X-34607Y40322D01*
X-37783Y40322D01*
X-37783Y43498D01*
X-37783Y43338D02*
X-34607Y43338D01*
X-52134Y68897D02*
X-52134Y72073D01*
X-48958Y72073D01*
X-48958Y68897D01*
X-52134Y68897D01*
X-52134Y71913D02*
X-48958Y71913D01*
X-52134Y63183D02*
X-52134Y60007D01*
X-52134Y63183D02*
X-48958Y63183D01*
X-48958Y60007D01*
X-52134Y60007D01*
X-52134Y63023D02*
X-48958Y63023D01*
X-63056Y68897D02*
X-63056Y72073D01*
X-59880Y72073D01*
X-59880Y68897D01*
X-63056Y68897D01*
X-63056Y71913D02*
X-59880Y71913D01*
X-63056Y63183D02*
X-63056Y60007D01*
X-63056Y63183D02*
X-59880Y63183D01*
X-59880Y60007D01*
X-63056Y60007D01*
X-63056Y63023D02*
X-59880Y63023D01*
X-74359Y68897D02*
X-74359Y72073D01*
X-71183Y72073D01*
X-71183Y68897D01*
X-74359Y68897D01*
X-74359Y71913D02*
X-71183Y71913D01*
X-74359Y63183D02*
X-74359Y60007D01*
X-74359Y63183D02*
X-71183Y63183D01*
X-71183Y60007D01*
X-74359Y60007D01*
X-74359Y63023D02*
X-71183Y63023D01*
X-85789Y68897D02*
X-85789Y72073D01*
X-82613Y72073D01*
X-82613Y68897D01*
X-85789Y68897D01*
X-85789Y71913D02*
X-82613Y71913D01*
X-85789Y63183D02*
X-85789Y60007D01*
X-85789Y63183D02*
X-82613Y63183D01*
X-82613Y60007D01*
X-85789Y60007D01*
X-85789Y63023D02*
X-82613Y63023D01*
X-105473Y63183D02*
X-105473Y60007D01*
X-108649Y60007D01*
X-108649Y63183D01*
X-105473Y63183D01*
X-105473Y63023D02*
X-108649Y63023D01*
X-105473Y68897D02*
X-105473Y72073D01*
X-105473Y68897D02*
X-108649Y68897D01*
X-108649Y72073D01*
X-105473Y72073D01*
X-105473Y71913D02*
X-108649Y71913D01*
X-94043Y63183D02*
X-94043Y60007D01*
X-97219Y60007D01*
X-97219Y63183D01*
X-94043Y63183D01*
X-94043Y63023D02*
X-97219Y63023D01*
X-94043Y68897D02*
X-94043Y72073D01*
X-94043Y68897D02*
X-97219Y68897D01*
X-97219Y72073D01*
X-94043Y72073D01*
X-94043Y71913D02*
X-97219Y71913D01*
D11*
X-75565Y-130302D03*
X-75565Y-104902D03*
X-164465Y-104902D03*
X-164465Y-130302D03*
D10*
X-93917Y-67373D02*
X-90741Y-67373D01*
X-90741Y-70549D01*
X-93917Y-70549D01*
X-93917Y-67373D01*
X-93917Y-67533D02*
X-90741Y-67533D01*
X-99631Y-67373D02*
X-102807Y-67373D01*
X-99631Y-67373D02*
X-99631Y-70549D01*
X-102807Y-70549D01*
X-102807Y-67373D01*
X-102807Y-67533D02*
X-99631Y-67533D01*
X-82741Y-70422D02*
X-79565Y-70422D01*
X-82741Y-70422D02*
X-82741Y-67246D01*
X-79565Y-67246D01*
X-79565Y-70422D01*
X-79565Y-67406D02*
X-82741Y-67406D01*
X-73851Y-70422D02*
X-70675Y-70422D01*
X-73851Y-70422D02*
X-73851Y-67246D01*
X-70675Y-67246D01*
X-70675Y-70422D01*
X-70675Y-67406D02*
X-73851Y-67406D01*
X-133414Y2603D02*
X-133414Y5779D01*
X-130238Y5779D01*
X-130238Y2603D01*
X-133414Y2603D01*
X-133414Y5619D02*
X-130238Y5619D01*
X-133414Y-3111D02*
X-133414Y-6287D01*
X-133414Y-3111D02*
X-130238Y-3111D01*
X-130238Y-6287D01*
X-133414Y-6287D01*
X-133414Y-3271D02*
X-130238Y-3271D01*
D12*
X-49366Y-28145D02*
X-49366Y-29395D01*
X-55116Y-29395D01*
X-55116Y-28145D01*
X-49366Y-28145D01*
X-49366Y-28208D02*
X-55116Y-28208D01*
X-49366Y-24395D02*
X-49366Y-23145D01*
X-49366Y-24395D02*
X-55116Y-24395D01*
X-55116Y-23145D01*
X-49366Y-23145D01*
X-49366Y-23208D02*
X-55116Y-23208D01*
X-49366Y-19395D02*
X-49366Y-18145D01*
X-49366Y-19395D02*
X-55116Y-19395D01*
X-55116Y-18145D01*
X-49366Y-18145D01*
X-49366Y-18208D02*
X-55116Y-18208D01*
X-49366Y-14395D02*
X-49366Y-13145D01*
X-49366Y-14395D02*
X-55116Y-14395D01*
X-55116Y-13145D01*
X-49366Y-13145D01*
X-49366Y-13208D02*
X-55116Y-13208D01*
X-49366Y-9395D02*
X-49366Y-8145D01*
X-49366Y-9395D02*
X-55116Y-9395D01*
X-55116Y-8145D01*
X-49366Y-8145D01*
X-49366Y-8208D02*
X-55116Y-8208D01*
X-49366Y-4395D02*
X-49366Y-3145D01*
X-49366Y-4395D02*
X-55116Y-4395D01*
X-55116Y-3145D01*
X-49366Y-3145D01*
X-49366Y-3208D02*
X-55116Y-3208D01*
X-49366Y605D02*
X-49366Y1855D01*
X-49366Y605D02*
X-55116Y605D01*
X-55116Y1855D01*
X-49366Y1855D01*
X-49366Y1792D02*
X-55116Y1792D01*
X-49366Y5605D02*
X-49366Y6855D01*
X-49366Y5605D02*
X-55116Y5605D01*
X-55116Y6855D01*
X-49366Y6855D01*
X-49366Y6792D02*
X-55116Y6792D01*
X-49366Y10605D02*
X-49366Y11855D01*
X-49366Y10605D02*
X-55116Y10605D01*
X-55116Y11855D01*
X-49366Y11855D01*
X-49366Y11792D02*
X-55116Y11792D01*
X-49366Y15605D02*
X-49366Y16855D01*
X-49366Y15605D02*
X-55116Y15605D01*
X-55116Y16855D01*
X-49366Y16855D01*
X-49366Y16792D02*
X-55116Y16792D01*
X-49366Y20605D02*
X-49366Y21855D01*
X-49366Y20605D02*
X-55116Y20605D01*
X-55116Y21855D01*
X-49366Y21855D01*
X-49366Y21792D02*
X-55116Y21792D01*
X-49366Y25605D02*
X-49366Y26855D01*
X-49366Y25605D02*
X-55116Y25605D01*
X-55116Y26855D01*
X-49366Y26855D01*
X-49366Y26792D02*
X-55116Y26792D01*
X-58616Y36105D02*
X-59866Y36105D01*
X-58616Y36105D02*
X-58616Y30355D01*
X-59866Y30355D01*
X-59866Y36105D01*
X-59866Y31542D02*
X-58616Y31542D01*
X-58616Y32729D02*
X-59866Y32729D01*
X-59866Y33916D02*
X-58616Y33916D01*
X-58616Y35103D02*
X-59866Y35103D01*
X-63616Y36105D02*
X-64866Y36105D01*
X-63616Y36105D02*
X-63616Y30355D01*
X-64866Y30355D01*
X-64866Y36105D01*
X-64866Y31542D02*
X-63616Y31542D01*
X-63616Y32729D02*
X-64866Y32729D01*
X-64866Y33916D02*
X-63616Y33916D01*
X-63616Y35103D02*
X-64866Y35103D01*
X-68616Y36105D02*
X-69866Y36105D01*
X-68616Y36105D02*
X-68616Y30355D01*
X-69866Y30355D01*
X-69866Y36105D01*
X-69866Y31542D02*
X-68616Y31542D01*
X-68616Y32729D02*
X-69866Y32729D01*
X-69866Y33916D02*
X-68616Y33916D01*
X-68616Y35103D02*
X-69866Y35103D01*
X-73616Y36105D02*
X-74866Y36105D01*
X-73616Y36105D02*
X-73616Y30355D01*
X-74866Y30355D01*
X-74866Y36105D01*
X-74866Y31542D02*
X-73616Y31542D01*
X-73616Y32729D02*
X-74866Y32729D01*
X-74866Y33916D02*
X-73616Y33916D01*
X-73616Y35103D02*
X-74866Y35103D01*
X-78616Y36105D02*
X-79866Y36105D01*
X-78616Y36105D02*
X-78616Y30355D01*
X-79866Y30355D01*
X-79866Y36105D01*
X-79866Y31542D02*
X-78616Y31542D01*
X-78616Y32729D02*
X-79866Y32729D01*
X-79866Y33916D02*
X-78616Y33916D01*
X-78616Y35103D02*
X-79866Y35103D01*
X-83616Y36105D02*
X-84866Y36105D01*
X-83616Y36105D02*
X-83616Y30355D01*
X-84866Y30355D01*
X-84866Y36105D01*
X-84866Y31542D02*
X-83616Y31542D01*
X-83616Y32729D02*
X-84866Y32729D01*
X-84866Y33916D02*
X-83616Y33916D01*
X-83616Y35103D02*
X-84866Y35103D01*
X-88616Y36105D02*
X-89866Y36105D01*
X-88616Y36105D02*
X-88616Y30355D01*
X-89866Y30355D01*
X-89866Y36105D01*
X-89866Y31542D02*
X-88616Y31542D01*
X-88616Y32729D02*
X-89866Y32729D01*
X-89866Y33916D02*
X-88616Y33916D01*
X-88616Y35103D02*
X-89866Y35103D01*
X-93616Y36105D02*
X-94866Y36105D01*
X-93616Y36105D02*
X-93616Y30355D01*
X-94866Y30355D01*
X-94866Y36105D01*
X-94866Y31542D02*
X-93616Y31542D01*
X-93616Y32729D02*
X-94866Y32729D01*
X-94866Y33916D02*
X-93616Y33916D01*
X-93616Y35103D02*
X-94866Y35103D01*
X-98616Y36105D02*
X-99866Y36105D01*
X-98616Y36105D02*
X-98616Y30355D01*
X-99866Y30355D01*
X-99866Y36105D01*
X-99866Y31542D02*
X-98616Y31542D01*
X-98616Y32729D02*
X-99866Y32729D01*
X-99866Y33916D02*
X-98616Y33916D01*
X-98616Y35103D02*
X-99866Y35103D01*
X-103616Y36105D02*
X-104866Y36105D01*
X-103616Y36105D02*
X-103616Y30355D01*
X-104866Y30355D01*
X-104866Y36105D01*
X-104866Y31542D02*
X-103616Y31542D01*
X-103616Y32729D02*
X-104866Y32729D01*
X-104866Y33916D02*
X-103616Y33916D01*
X-103616Y35103D02*
X-104866Y35103D01*
X-108616Y36105D02*
X-109866Y36105D01*
X-108616Y36105D02*
X-108616Y30355D01*
X-109866Y30355D01*
X-109866Y36105D01*
X-109866Y31542D02*
X-108616Y31542D01*
X-108616Y32729D02*
X-109866Y32729D01*
X-109866Y33916D02*
X-108616Y33916D01*
X-108616Y35103D02*
X-109866Y35103D01*
X-113616Y36105D02*
X-114866Y36105D01*
X-113616Y36105D02*
X-113616Y30355D01*
X-114866Y30355D01*
X-114866Y36105D01*
X-114866Y31542D02*
X-113616Y31542D01*
X-113616Y32729D02*
X-114866Y32729D01*
X-114866Y33916D02*
X-113616Y33916D01*
X-113616Y35103D02*
X-114866Y35103D01*
X-124116Y26855D02*
X-124116Y25605D01*
X-124116Y26855D02*
X-118366Y26855D01*
X-118366Y25605D01*
X-124116Y25605D01*
X-124116Y26792D02*
X-118366Y26792D01*
X-124116Y21855D02*
X-124116Y20605D01*
X-124116Y21855D02*
X-118366Y21855D01*
X-118366Y20605D01*
X-124116Y20605D01*
X-124116Y21792D02*
X-118366Y21792D01*
X-124116Y16855D02*
X-124116Y15605D01*
X-124116Y16855D02*
X-118366Y16855D01*
X-118366Y15605D01*
X-124116Y15605D01*
X-124116Y16792D02*
X-118366Y16792D01*
X-124116Y11855D02*
X-124116Y10605D01*
X-124116Y11855D02*
X-118366Y11855D01*
X-118366Y10605D01*
X-124116Y10605D01*
X-124116Y11792D02*
X-118366Y11792D01*
X-124116Y6855D02*
X-124116Y5605D01*
X-124116Y6855D02*
X-118366Y6855D01*
X-118366Y5605D01*
X-124116Y5605D01*
X-124116Y6792D02*
X-118366Y6792D01*
X-124116Y1855D02*
X-124116Y605D01*
X-124116Y1855D02*
X-118366Y1855D01*
X-118366Y605D01*
X-124116Y605D01*
X-124116Y1792D02*
X-118366Y1792D01*
X-124116Y-3145D02*
X-124116Y-4395D01*
X-124116Y-3145D02*
X-118366Y-3145D01*
X-118366Y-4395D01*
X-124116Y-4395D01*
X-124116Y-3208D02*
X-118366Y-3208D01*
X-124116Y-8145D02*
X-124116Y-9395D01*
X-124116Y-8145D02*
X-118366Y-8145D01*
X-118366Y-9395D01*
X-124116Y-9395D01*
X-124116Y-8208D02*
X-118366Y-8208D01*
X-124116Y-13145D02*
X-124116Y-14395D01*
X-124116Y-13145D02*
X-118366Y-13145D01*
X-118366Y-14395D01*
X-124116Y-14395D01*
X-124116Y-13208D02*
X-118366Y-13208D01*
X-124116Y-18145D02*
X-124116Y-19395D01*
X-124116Y-18145D02*
X-118366Y-18145D01*
X-118366Y-19395D01*
X-124116Y-19395D01*
X-124116Y-18208D02*
X-118366Y-18208D01*
X-124116Y-23145D02*
X-124116Y-24395D01*
X-124116Y-23145D02*
X-118366Y-23145D01*
X-118366Y-24395D01*
X-124116Y-24395D01*
X-124116Y-23208D02*
X-118366Y-23208D01*
X-124116Y-28145D02*
X-124116Y-29395D01*
X-124116Y-28145D02*
X-118366Y-28145D01*
X-118366Y-29395D01*
X-124116Y-29395D01*
X-124116Y-28208D02*
X-118366Y-28208D01*
X-114866Y-38645D02*
X-113616Y-38645D01*
X-114866Y-38645D02*
X-114866Y-32895D01*
X-113616Y-32895D01*
X-113616Y-38645D01*
X-113616Y-37458D02*
X-114866Y-37458D01*
X-114866Y-36271D02*
X-113616Y-36271D01*
X-113616Y-35084D02*
X-114866Y-35084D01*
X-114866Y-33897D02*
X-113616Y-33897D01*
X-109866Y-38645D02*
X-108616Y-38645D01*
X-109866Y-38645D02*
X-109866Y-32895D01*
X-108616Y-32895D01*
X-108616Y-38645D01*
X-108616Y-37458D02*
X-109866Y-37458D01*
X-109866Y-36271D02*
X-108616Y-36271D01*
X-108616Y-35084D02*
X-109866Y-35084D01*
X-109866Y-33897D02*
X-108616Y-33897D01*
X-104866Y-38645D02*
X-103616Y-38645D01*
X-104866Y-38645D02*
X-104866Y-32895D01*
X-103616Y-32895D01*
X-103616Y-38645D01*
X-103616Y-37458D02*
X-104866Y-37458D01*
X-104866Y-36271D02*
X-103616Y-36271D01*
X-103616Y-35084D02*
X-104866Y-35084D01*
X-104866Y-33897D02*
X-103616Y-33897D01*
X-99866Y-38645D02*
X-98616Y-38645D01*
X-99866Y-38645D02*
X-99866Y-32895D01*
X-98616Y-32895D01*
X-98616Y-38645D01*
X-98616Y-37458D02*
X-99866Y-37458D01*
X-99866Y-36271D02*
X-98616Y-36271D01*
X-98616Y-35084D02*
X-99866Y-35084D01*
X-99866Y-33897D02*
X-98616Y-33897D01*
X-94866Y-38645D02*
X-93616Y-38645D01*
X-94866Y-38645D02*
X-94866Y-32895D01*
X-93616Y-32895D01*
X-93616Y-38645D01*
X-93616Y-37458D02*
X-94866Y-37458D01*
X-94866Y-36271D02*
X-93616Y-36271D01*
X-93616Y-35084D02*
X-94866Y-35084D01*
X-94866Y-33897D02*
X-93616Y-33897D01*
X-89866Y-38645D02*
X-88616Y-38645D01*
X-89866Y-38645D02*
X-89866Y-32895D01*
X-88616Y-32895D01*
X-88616Y-38645D01*
X-88616Y-37458D02*
X-89866Y-37458D01*
X-89866Y-36271D02*
X-88616Y-36271D01*
X-88616Y-35084D02*
X-89866Y-35084D01*
X-89866Y-33897D02*
X-88616Y-33897D01*
X-84866Y-38645D02*
X-83616Y-38645D01*
X-84866Y-38645D02*
X-84866Y-32895D01*
X-83616Y-32895D01*
X-83616Y-38645D01*
X-83616Y-37458D02*
X-84866Y-37458D01*
X-84866Y-36271D02*
X-83616Y-36271D01*
X-83616Y-35084D02*
X-84866Y-35084D01*
X-84866Y-33897D02*
X-83616Y-33897D01*
X-79866Y-38645D02*
X-78616Y-38645D01*
X-79866Y-38645D02*
X-79866Y-32895D01*
X-78616Y-32895D01*
X-78616Y-38645D01*
X-78616Y-37458D02*
X-79866Y-37458D01*
X-79866Y-36271D02*
X-78616Y-36271D01*
X-78616Y-35084D02*
X-79866Y-35084D01*
X-79866Y-33897D02*
X-78616Y-33897D01*
X-74866Y-38645D02*
X-73616Y-38645D01*
X-74866Y-38645D02*
X-74866Y-32895D01*
X-73616Y-32895D01*
X-73616Y-38645D01*
X-73616Y-37458D02*
X-74866Y-37458D01*
X-74866Y-36271D02*
X-73616Y-36271D01*
X-73616Y-35084D02*
X-74866Y-35084D01*
X-74866Y-33897D02*
X-73616Y-33897D01*
X-69866Y-38645D02*
X-68616Y-38645D01*
X-69866Y-38645D02*
X-69866Y-32895D01*
X-68616Y-32895D01*
X-68616Y-38645D01*
X-68616Y-37458D02*
X-69866Y-37458D01*
X-69866Y-36271D02*
X-68616Y-36271D01*
X-68616Y-35084D02*
X-69866Y-35084D01*
X-69866Y-33897D02*
X-68616Y-33897D01*
X-64866Y-38645D02*
X-63616Y-38645D01*
X-64866Y-38645D02*
X-64866Y-32895D01*
X-63616Y-32895D01*
X-63616Y-38645D01*
X-63616Y-37458D02*
X-64866Y-37458D01*
X-64866Y-36271D02*
X-63616Y-36271D01*
X-63616Y-35084D02*
X-64866Y-35084D01*
X-64866Y-33897D02*
X-63616Y-33897D01*
X-59866Y-38645D02*
X-58616Y-38645D01*
X-59866Y-38645D02*
X-59866Y-32895D01*
X-58616Y-32895D01*
X-58616Y-38645D01*
X-58616Y-37458D02*
X-59866Y-37458D01*
X-59866Y-36271D02*
X-58616Y-36271D01*
X-58616Y-35084D02*
X-59866Y-35084D01*
X-59866Y-33897D02*
X-58616Y-33897D01*
D13*
X-86741Y-1270D03*
D14*
X-31623Y-192D03*
X-31623Y-12192D03*
X-31623Y-24192D03*
M02*
