G04 EAGLE Gerber RS-274X export*
G75*
%MOMM*%
%FSLAX34Y34*%
%LPD*%
%INSoldermask Top*%
%IPPOS*%
%AMOC8*
5,1,8,0,0,1.08239X$1,22.5*%
G01*
%ADD10C,3.001600*%
%ADD11C,0.419859*%
%ADD12R,1.752600X1.752600*%
%ADD13C,1.752600*%
%ADD14R,2.133600X1.117600*%
%ADD15R,1.609600X1.609600*%
%ADD16C,1.609600*%
%ADD17C,0.605878*%
%ADD18C,0.225016*%
%ADD19R,5.801588X5.801588*%
%ADD20C,1.101600*%
%ADD21C,0.152400*%
%ADD22R,1.501597X0.501600*%

G36*
X-243906Y-29402D02*
X-243906Y-29402D01*
X-243895Y-29403D01*
X-239871Y-29101D01*
X-239840Y-29093D01*
X-239797Y-29090D01*
X-235863Y-28192D01*
X-235834Y-28179D01*
X-235791Y-28170D01*
X-232035Y-26696D01*
X-232008Y-26679D01*
X-231968Y-26664D01*
X-228473Y-24646D01*
X-228449Y-24625D01*
X-228411Y-24604D01*
X-225256Y-22088D01*
X-225236Y-22063D01*
X-225201Y-22037D01*
X-222457Y-19079D01*
X-222440Y-19052D01*
X-222410Y-19020D01*
X-220137Y-15686D01*
X-220124Y-15657D01*
X-220100Y-15622D01*
X-218349Y-11986D01*
X-218341Y-11955D01*
X-218321Y-11916D01*
X-217132Y-8060D01*
X-217129Y-8029D01*
X-217115Y-7987D01*
X-216514Y-3997D01*
X-216515Y-3965D01*
X-216508Y-3923D01*
X-216508Y113D01*
X-216515Y144D01*
X-216514Y187D01*
X-217115Y4177D01*
X-217126Y4207D01*
X-217132Y4250D01*
X-218321Y8106D01*
X-218337Y8134D01*
X-218349Y8176D01*
X-220100Y11812D01*
X-220119Y11837D01*
X-220137Y11876D01*
X-222410Y15210D01*
X-222433Y15233D01*
X-222457Y15269D01*
X-225201Y18227D01*
X-225227Y18246D01*
X-225256Y18278D01*
X-228411Y20794D01*
X-228439Y20808D01*
X-228473Y20836D01*
X-231968Y22854D01*
X-231998Y22864D01*
X-232035Y22886D01*
X-235791Y24360D01*
X-235823Y24366D01*
X-235863Y24382D01*
X-239797Y25280D01*
X-239829Y25281D01*
X-239871Y25291D01*
X-243895Y25593D01*
X-243922Y25589D01*
X-243949Y25594D01*
X-244019Y25577D01*
X-244092Y25568D01*
X-244116Y25554D01*
X-244142Y25548D01*
X-244201Y25505D01*
X-244264Y25468D01*
X-244280Y25446D01*
X-244302Y25430D01*
X-244339Y25367D01*
X-244383Y25309D01*
X-244390Y25282D01*
X-244404Y25259D01*
X-244421Y25155D01*
X-244431Y25116D01*
X-244429Y25106D01*
X-244431Y25095D01*
X-244431Y-28905D01*
X-244426Y-28932D01*
X-244428Y-28959D01*
X-244406Y-29028D01*
X-244392Y-29100D01*
X-244376Y-29122D01*
X-244368Y-29148D01*
X-244320Y-29204D01*
X-244279Y-29264D01*
X-244256Y-29278D01*
X-244238Y-29299D01*
X-244173Y-29332D01*
X-244112Y-29371D01*
X-244085Y-29375D01*
X-244060Y-29387D01*
X-243956Y-29397D01*
X-243915Y-29404D01*
X-243906Y-29402D01*
G37*
G36*
X-320039Y-161371D02*
X-320039Y-161371D01*
X-319996Y-161375D01*
X-315976Y-161071D01*
X-315945Y-161062D01*
X-315902Y-161060D01*
X-311972Y-160160D01*
X-311943Y-160147D01*
X-311901Y-160138D01*
X-308150Y-158663D01*
X-308123Y-158646D01*
X-308082Y-158631D01*
X-304592Y-156613D01*
X-304569Y-156592D01*
X-304531Y-156571D01*
X-301381Y-154056D01*
X-301360Y-154031D01*
X-301326Y-154005D01*
X-298586Y-151048D01*
X-298569Y-151021D01*
X-298539Y-150990D01*
X-296271Y-147658D01*
X-296258Y-147628D01*
X-296233Y-147593D01*
X-294486Y-143960D01*
X-294479Y-143929D01*
X-294459Y-143891D01*
X-293273Y-140038D01*
X-293270Y-140006D01*
X-293257Y-139965D01*
X-292658Y-135978D01*
X-292660Y-135947D01*
X-292653Y-135904D01*
X-292655Y-131873D01*
X-292662Y-131842D01*
X-292661Y-131798D01*
X-293264Y-127813D01*
X-293275Y-127783D01*
X-293281Y-127740D01*
X-294471Y-123888D01*
X-294486Y-123861D01*
X-294499Y-123819D01*
X-296250Y-120188D01*
X-296266Y-120166D01*
X-296276Y-120141D01*
X-296326Y-120088D01*
X-296370Y-120030D01*
X-296394Y-120016D01*
X-296412Y-119997D01*
X-296479Y-119967D01*
X-296543Y-119931D01*
X-296570Y-119928D01*
X-296595Y-119917D01*
X-296668Y-119916D01*
X-296740Y-119907D01*
X-296766Y-119915D01*
X-296794Y-119915D01*
X-296892Y-119951D01*
X-296931Y-119963D01*
X-296939Y-119969D01*
X-296949Y-119973D01*
X-343649Y-146973D01*
X-343670Y-146991D01*
X-343694Y-147002D01*
X-343727Y-147038D01*
X-343744Y-147050D01*
X-343755Y-147066D01*
X-343798Y-147105D01*
X-343810Y-147129D01*
X-343828Y-147149D01*
X-343852Y-147218D01*
X-343884Y-147284D01*
X-343885Y-147311D01*
X-343894Y-147337D01*
X-343889Y-147410D01*
X-343893Y-147483D01*
X-343883Y-147508D01*
X-343881Y-147535D01*
X-343837Y-147631D01*
X-343823Y-147669D01*
X-343817Y-147676D01*
X-343812Y-147687D01*
X-341539Y-151016D01*
X-341516Y-151038D01*
X-341492Y-151074D01*
X-338749Y-154028D01*
X-338723Y-154046D01*
X-338694Y-154078D01*
X-335541Y-156590D01*
X-335512Y-156604D01*
X-335479Y-156632D01*
X-331987Y-158645D01*
X-331957Y-158655D01*
X-331919Y-158678D01*
X-328166Y-160148D01*
X-328135Y-160154D01*
X-328095Y-160170D01*
X-324164Y-161065D01*
X-324132Y-161065D01*
X-324090Y-161076D01*
X-320070Y-161375D01*
X-320039Y-161371D01*
G37*
G36*
X-297216Y115601D02*
X-297216Y115601D01*
X-297144Y115607D01*
X-297119Y115619D01*
X-297093Y115624D01*
X-297032Y115665D01*
X-296967Y115698D01*
X-296950Y115719D01*
X-296927Y115734D01*
X-296866Y115820D01*
X-296840Y115852D01*
X-296838Y115861D01*
X-296831Y115870D01*
X-295080Y119501D01*
X-295072Y119532D01*
X-295052Y119570D01*
X-293862Y123422D01*
X-293859Y123454D01*
X-293845Y123495D01*
X-293242Y127480D01*
X-293243Y127512D01*
X-293236Y127555D01*
X-293234Y131586D01*
X-293240Y131617D01*
X-293239Y131660D01*
X-293838Y135647D01*
X-293849Y135677D01*
X-293854Y135720D01*
X-295040Y139573D01*
X-295055Y139601D01*
X-295067Y139642D01*
X-296814Y143275D01*
X-296833Y143300D01*
X-296852Y143340D01*
X-299120Y146672D01*
X-299143Y146694D01*
X-299167Y146730D01*
X-301907Y149687D01*
X-301933Y149705D01*
X-301962Y149738D01*
X-305112Y152253D01*
X-305140Y152268D01*
X-305173Y152295D01*
X-308663Y154313D01*
X-308694Y154323D01*
X-308731Y154345D01*
X-312482Y155820D01*
X-312514Y155826D01*
X-312553Y155842D01*
X-316483Y156742D01*
X-316515Y156742D01*
X-316557Y156753D01*
X-320577Y157057D01*
X-320608Y157053D01*
X-320651Y157057D01*
X-324671Y156758D01*
X-324702Y156749D01*
X-324745Y156747D01*
X-328676Y155852D01*
X-328705Y155839D01*
X-328747Y155830D01*
X-332500Y154360D01*
X-332527Y154342D01*
X-332568Y154327D01*
X-336060Y152314D01*
X-336084Y152293D01*
X-336122Y152272D01*
X-339275Y149760D01*
X-339295Y149736D01*
X-339330Y149710D01*
X-342073Y146756D01*
X-342090Y146729D01*
X-342120Y146698D01*
X-344393Y143369D01*
X-344403Y143343D01*
X-344421Y143322D01*
X-344442Y143253D01*
X-344470Y143185D01*
X-344470Y143158D01*
X-344478Y143132D01*
X-344470Y143059D01*
X-344470Y142986D01*
X-344459Y142961D01*
X-344456Y142934D01*
X-344420Y142871D01*
X-344391Y142804D01*
X-344372Y142785D01*
X-344359Y142761D01*
X-344277Y142694D01*
X-344248Y142666D01*
X-344239Y142662D01*
X-344230Y142655D01*
X-297530Y115655D01*
X-297505Y115646D01*
X-297482Y115630D01*
X-297411Y115615D01*
X-297342Y115592D01*
X-297315Y115594D01*
X-297288Y115588D01*
X-297216Y115601D01*
G37*
G36*
X-241574Y-109283D02*
X-241574Y-109283D01*
X-241540Y-109275D01*
X-241491Y-109273D01*
X-238378Y-108615D01*
X-238346Y-108601D01*
X-238298Y-108591D01*
X-235338Y-107423D01*
X-235309Y-107404D01*
X-235263Y-107386D01*
X-232539Y-105741D01*
X-232514Y-105717D01*
X-232472Y-105692D01*
X-230061Y-103616D01*
X-230039Y-103588D01*
X-230002Y-103556D01*
X-227971Y-101107D01*
X-227954Y-101076D01*
X-227923Y-101038D01*
X-226329Y-98284D01*
X-226318Y-98251D01*
X-226293Y-98209D01*
X-225180Y-95228D01*
X-225175Y-95193D01*
X-225158Y-95147D01*
X-224558Y-92022D01*
X-224558Y-91987D01*
X-224549Y-91939D01*
X-224479Y-88758D01*
X-224485Y-88724D01*
X-224484Y-88675D01*
X-224945Y-85526D01*
X-224957Y-85493D01*
X-224964Y-85445D01*
X-225943Y-82418D01*
X-225961Y-82387D01*
X-225976Y-82340D01*
X-227447Y-79519D01*
X-227469Y-79492D01*
X-227491Y-79448D01*
X-229412Y-76911D01*
X-229438Y-76888D01*
X-229468Y-76849D01*
X-231785Y-74668D01*
X-231815Y-74650D01*
X-231850Y-74616D01*
X-234498Y-72852D01*
X-234531Y-72839D01*
X-234572Y-72812D01*
X-237477Y-71514D01*
X-237501Y-71509D01*
X-237520Y-71498D01*
X-237538Y-71495D01*
X-237556Y-71487D01*
X-240637Y-70692D01*
X-240672Y-70690D01*
X-240719Y-70678D01*
X-243890Y-70408D01*
X-243919Y-70411D01*
X-243949Y-70406D01*
X-244017Y-70422D01*
X-244087Y-70430D01*
X-244113Y-70445D01*
X-244142Y-70452D01*
X-244199Y-70494D01*
X-244260Y-70529D01*
X-244278Y-70552D01*
X-244302Y-70570D01*
X-244338Y-70630D01*
X-244381Y-70687D01*
X-244388Y-70715D01*
X-244404Y-70741D01*
X-244420Y-70837D01*
X-244431Y-70879D01*
X-244429Y-70891D01*
X-244431Y-70905D01*
X-244431Y-89616D01*
X-260681Y-98972D01*
X-260703Y-98992D01*
X-260730Y-99004D01*
X-260777Y-99057D01*
X-260830Y-99104D01*
X-260843Y-99130D01*
X-260863Y-99152D01*
X-260886Y-99219D01*
X-260916Y-99283D01*
X-260918Y-99313D01*
X-260927Y-99340D01*
X-260922Y-99411D01*
X-260925Y-99482D01*
X-260915Y-99510D01*
X-260913Y-99539D01*
X-260872Y-99627D01*
X-260869Y-99638D01*
X-260866Y-99642D01*
X-260856Y-99668D01*
X-260848Y-99677D01*
X-260842Y-99689D01*
X-259029Y-102304D01*
X-259004Y-102329D01*
X-258976Y-102369D01*
X-256753Y-104645D01*
X-256724Y-104665D01*
X-256690Y-104700D01*
X-254117Y-106573D01*
X-254086Y-106588D01*
X-254046Y-106616D01*
X-251198Y-108035D01*
X-251164Y-108044D01*
X-251120Y-108066D01*
X-248075Y-108989D01*
X-248040Y-108992D01*
X-247993Y-109006D01*
X-244837Y-109409D01*
X-244802Y-109406D01*
X-244753Y-109413D01*
X-241574Y-109283D01*
G37*
G36*
X-243904Y66599D02*
X-243904Y66599D01*
X-243890Y66598D01*
X-240719Y66868D01*
X-240686Y66878D01*
X-240637Y66882D01*
X-237556Y67677D01*
X-237524Y67692D01*
X-237477Y67704D01*
X-234572Y69002D01*
X-234543Y69022D01*
X-234498Y69042D01*
X-231850Y70806D01*
X-231825Y70831D01*
X-231785Y70858D01*
X-229468Y73039D01*
X-229448Y73068D01*
X-229412Y73101D01*
X-227491Y75638D01*
X-227476Y75670D01*
X-227447Y75709D01*
X-225976Y78530D01*
X-225966Y78564D01*
X-225943Y78608D01*
X-224964Y81635D01*
X-224960Y81670D01*
X-224945Y81716D01*
X-224484Y84865D01*
X-224486Y84900D01*
X-224479Y84948D01*
X-224549Y88129D01*
X-224557Y88164D01*
X-224558Y88212D01*
X-225158Y91337D01*
X-225171Y91370D01*
X-225180Y91418D01*
X-226293Y94399D01*
X-226312Y94428D01*
X-226329Y94474D01*
X-227923Y97228D01*
X-227946Y97254D01*
X-227971Y97297D01*
X-230002Y99746D01*
X-230029Y99768D01*
X-230061Y99806D01*
X-232472Y101882D01*
X-232502Y101899D01*
X-232539Y101931D01*
X-235263Y103576D01*
X-235296Y103588D01*
X-235338Y103613D01*
X-238298Y104781D01*
X-238332Y104787D01*
X-238378Y104805D01*
X-241491Y105463D01*
X-241526Y105463D01*
X-241574Y105473D01*
X-244753Y105603D01*
X-244788Y105597D01*
X-244837Y105599D01*
X-247993Y105196D01*
X-248026Y105185D01*
X-248075Y105179D01*
X-251120Y104256D01*
X-251151Y104239D01*
X-251198Y104225D01*
X-254046Y102806D01*
X-254074Y102785D01*
X-254117Y102763D01*
X-256690Y100890D01*
X-256713Y100864D01*
X-256753Y100835D01*
X-258976Y98559D01*
X-258995Y98529D01*
X-259029Y98494D01*
X-260842Y95879D01*
X-260854Y95852D01*
X-260873Y95830D01*
X-260893Y95762D01*
X-260921Y95697D01*
X-260921Y95667D01*
X-260929Y95639D01*
X-260921Y95569D01*
X-260922Y95498D01*
X-260910Y95471D01*
X-260907Y95441D01*
X-260872Y95380D01*
X-260845Y95314D01*
X-260824Y95294D01*
X-260809Y95268D01*
X-260734Y95206D01*
X-260703Y95176D01*
X-260692Y95171D01*
X-260681Y95162D01*
X-244431Y85806D01*
X-244431Y67095D01*
X-244425Y67066D01*
X-244428Y67036D01*
X-244406Y66969D01*
X-244392Y66900D01*
X-244375Y66876D01*
X-244366Y66847D01*
X-244319Y66794D01*
X-244279Y66736D01*
X-244254Y66720D01*
X-244234Y66698D01*
X-244171Y66667D01*
X-244112Y66629D01*
X-244082Y66624D01*
X-244055Y66611D01*
X-243958Y66603D01*
X-243915Y66596D01*
X-243904Y66599D01*
G37*
G36*
X-379761Y162822D02*
X-379761Y162822D01*
X-379757Y162821D01*
X-379642Y162856D01*
X-379529Y162889D01*
X-379526Y162891D01*
X-379521Y162893D01*
X-379424Y162962D01*
X-379327Y163030D01*
X-379324Y163033D01*
X-379321Y163035D01*
X-379216Y163166D01*
X-377662Y165596D01*
X-377649Y165626D01*
X-377604Y165706D01*
X-376467Y168356D01*
X-376459Y168388D01*
X-376427Y168474D01*
X-375737Y171274D01*
X-375734Y171307D01*
X-375717Y171397D01*
X-375491Y174272D01*
X-375494Y174304D01*
X-375491Y174396D01*
X-375736Y177270D01*
X-375744Y177301D01*
X-375757Y177392D01*
X-376466Y180188D01*
X-376479Y180218D01*
X-376507Y180305D01*
X-377661Y182948D01*
X-377679Y182976D01*
X-377720Y183057D01*
X-379290Y185477D01*
X-379311Y185501D01*
X-379366Y185575D01*
X-381308Y187707D01*
X-381333Y187728D01*
X-381399Y187792D01*
X-383662Y189580D01*
X-383691Y189595D01*
X-383765Y189648D01*
X-386289Y191044D01*
X-386320Y191055D01*
X-386403Y191095D01*
X-389120Y192061D01*
X-389152Y192067D01*
X-389240Y192093D01*
X-392078Y192604D01*
X-392111Y192604D01*
X-392202Y192616D01*
X-395086Y192658D01*
X-395111Y192654D01*
X-395136Y192657D01*
X-395232Y192636D01*
X-395329Y192622D01*
X-395352Y192610D01*
X-395377Y192605D01*
X-395461Y192555D01*
X-395548Y192510D01*
X-395566Y192492D01*
X-395588Y192479D01*
X-395652Y192404D01*
X-395720Y192334D01*
X-395731Y192311D01*
X-395748Y192292D01*
X-395785Y192201D01*
X-395827Y192113D01*
X-395830Y192087D01*
X-395840Y192064D01*
X-395858Y191897D01*
X-395858Y172466D01*
X-395848Y172401D01*
X-395847Y172335D01*
X-395828Y172280D01*
X-395819Y172223D01*
X-395788Y172165D01*
X-395766Y172103D01*
X-395731Y172057D01*
X-395703Y172006D01*
X-395656Y171961D01*
X-395615Y171908D01*
X-395549Y171859D01*
X-395525Y171837D01*
X-395507Y171828D01*
X-395481Y171808D01*
X-380241Y162918D01*
X-380237Y162917D01*
X-380233Y162914D01*
X-380122Y162873D01*
X-380011Y162830D01*
X-380007Y162830D01*
X-380003Y162829D01*
X-379883Y162825D01*
X-379765Y162820D01*
X-379761Y162822D01*
G37*
G36*
X-391948Y-197569D02*
X-391948Y-197569D01*
X-391916Y-197563D01*
X-391824Y-197557D01*
X-388986Y-197046D01*
X-388955Y-197035D01*
X-388866Y-197014D01*
X-386149Y-196048D01*
X-386120Y-196032D01*
X-386035Y-195997D01*
X-383511Y-194601D01*
X-383486Y-194581D01*
X-383408Y-194533D01*
X-381145Y-192745D01*
X-381123Y-192721D01*
X-381054Y-192660D01*
X-379112Y-190528D01*
X-379094Y-190501D01*
X-379036Y-190430D01*
X-377466Y-188010D01*
X-377453Y-187981D01*
X-377407Y-187901D01*
X-376253Y-185258D01*
X-376244Y-185227D01*
X-376212Y-185141D01*
X-375503Y-182345D01*
X-375500Y-182313D01*
X-375482Y-182223D01*
X-375237Y-179349D01*
X-375240Y-179316D01*
X-375237Y-179225D01*
X-375463Y-176350D01*
X-375471Y-176318D01*
X-375483Y-176227D01*
X-376173Y-173427D01*
X-376186Y-173397D01*
X-376213Y-173309D01*
X-377350Y-170659D01*
X-377368Y-170631D01*
X-377408Y-170549D01*
X-378962Y-168119D01*
X-378964Y-168116D01*
X-378966Y-168112D01*
X-379046Y-168024D01*
X-379126Y-167936D01*
X-379130Y-167934D01*
X-379132Y-167931D01*
X-379236Y-167873D01*
X-379340Y-167815D01*
X-379344Y-167814D01*
X-379348Y-167812D01*
X-379465Y-167791D01*
X-379581Y-167768D01*
X-379586Y-167769D01*
X-379590Y-167768D01*
X-379707Y-167785D01*
X-379825Y-167801D01*
X-379829Y-167803D01*
X-379833Y-167803D01*
X-379987Y-167871D01*
X-395227Y-176761D01*
X-395277Y-176803D01*
X-395334Y-176837D01*
X-395372Y-176881D01*
X-395416Y-176918D01*
X-395451Y-176974D01*
X-395494Y-177024D01*
X-395516Y-177078D01*
X-395546Y-177127D01*
X-395561Y-177191D01*
X-395586Y-177252D01*
X-395595Y-177334D01*
X-395602Y-177366D01*
X-395601Y-177386D01*
X-395604Y-177419D01*
X-395604Y-196850D01*
X-395600Y-196875D01*
X-395603Y-196901D01*
X-395580Y-196996D01*
X-395565Y-197093D01*
X-395553Y-197115D01*
X-395547Y-197140D01*
X-395495Y-197224D01*
X-395449Y-197310D01*
X-395431Y-197328D01*
X-395418Y-197349D01*
X-395342Y-197412D01*
X-395271Y-197480D01*
X-395248Y-197490D01*
X-395228Y-197507D01*
X-395137Y-197542D01*
X-395048Y-197583D01*
X-395023Y-197586D01*
X-394999Y-197595D01*
X-394832Y-197611D01*
X-391948Y-197569D01*
G37*
D10*
X-262418Y166823D03*
X-262418Y-172267D03*
X62702Y-172267D03*
X62702Y166823D03*
D11*
X-116907Y63179D02*
X-116907Y60011D01*
X-120075Y60011D01*
X-120075Y63179D01*
X-116907Y63179D01*
X-116907Y68901D02*
X-116907Y72069D01*
X-116907Y68901D02*
X-120075Y68901D01*
X-120075Y72069D01*
X-116907Y72069D01*
X-29016Y22539D02*
X-25848Y22539D01*
X-25848Y19371D01*
X-29016Y19371D01*
X-29016Y22539D01*
X-34738Y22539D02*
X-37906Y22539D01*
X-34738Y22539D02*
X-34738Y19371D01*
X-37906Y19371D01*
X-37906Y22539D01*
X-28889Y33080D02*
X-25721Y33080D01*
X-25721Y29912D01*
X-28889Y29912D01*
X-28889Y33080D01*
X-34611Y33080D02*
X-37779Y33080D01*
X-34611Y33080D02*
X-34611Y29912D01*
X-37779Y29912D01*
X-37779Y33080D01*
X-28889Y43494D02*
X-25721Y43494D01*
X-25721Y40326D01*
X-28889Y40326D01*
X-28889Y43494D01*
X-34611Y43494D02*
X-37779Y43494D01*
X-34611Y43494D02*
X-34611Y40326D01*
X-37779Y40326D01*
X-37779Y43494D01*
X-52130Y68901D02*
X-52130Y72069D01*
X-48962Y72069D01*
X-48962Y68901D01*
X-52130Y68901D01*
X-52130Y63179D02*
X-52130Y60011D01*
X-52130Y63179D02*
X-48962Y63179D01*
X-48962Y60011D01*
X-52130Y60011D01*
X-63052Y68901D02*
X-63052Y72069D01*
X-59884Y72069D01*
X-59884Y68901D01*
X-63052Y68901D01*
X-63052Y63179D02*
X-63052Y60011D01*
X-63052Y63179D02*
X-59884Y63179D01*
X-59884Y60011D01*
X-63052Y60011D01*
X-74355Y68901D02*
X-74355Y72069D01*
X-71187Y72069D01*
X-71187Y68901D01*
X-74355Y68901D01*
X-74355Y63179D02*
X-74355Y60011D01*
X-74355Y63179D02*
X-71187Y63179D01*
X-71187Y60011D01*
X-74355Y60011D01*
X-85785Y68901D02*
X-85785Y72069D01*
X-82617Y72069D01*
X-82617Y68901D01*
X-85785Y68901D01*
X-85785Y63179D02*
X-85785Y60011D01*
X-85785Y63179D02*
X-82617Y63179D01*
X-82617Y60011D01*
X-85785Y60011D01*
X-105477Y60011D02*
X-105477Y63179D01*
X-105477Y60011D02*
X-108645Y60011D01*
X-108645Y63179D01*
X-105477Y63179D01*
X-105477Y68901D02*
X-105477Y72069D01*
X-105477Y68901D02*
X-108645Y68901D01*
X-108645Y72069D01*
X-105477Y72069D01*
X-94047Y63179D02*
X-94047Y60011D01*
X-97215Y60011D01*
X-97215Y63179D01*
X-94047Y63179D01*
X-94047Y68901D02*
X-94047Y72069D01*
X-94047Y68901D02*
X-97215Y68901D01*
X-97215Y72069D01*
X-94047Y72069D01*
D12*
X-79883Y-173736D03*
D13*
X-105283Y-173736D03*
X-130683Y-173736D03*
X-156083Y-173736D03*
D14*
X-75565Y-130302D03*
X-75565Y-104902D03*
X-164465Y-104902D03*
X-164465Y-130302D03*
D11*
X-93913Y-67377D02*
X-90745Y-67377D01*
X-90745Y-70545D01*
X-93913Y-70545D01*
X-93913Y-67377D01*
X-99635Y-67377D02*
X-102803Y-67377D01*
X-99635Y-67377D02*
X-99635Y-70545D01*
X-102803Y-70545D01*
X-102803Y-67377D01*
X-82737Y-70418D02*
X-79569Y-70418D01*
X-82737Y-70418D02*
X-82737Y-67250D01*
X-79569Y-67250D01*
X-79569Y-70418D01*
X-73847Y-70418D02*
X-70679Y-70418D01*
X-73847Y-70418D02*
X-73847Y-67250D01*
X-70679Y-67250D01*
X-70679Y-70418D01*
D15*
X12954Y86995D03*
D16*
X38354Y86995D03*
X12954Y61595D03*
X38354Y61595D03*
X12954Y36195D03*
X38354Y36195D03*
X12954Y10795D03*
X38354Y10795D03*
X12954Y-14605D03*
X38354Y-14605D03*
X12954Y-40005D03*
X38354Y-40005D03*
X12954Y-65405D03*
X38354Y-65405D03*
X12954Y-90805D03*
X38354Y-90805D03*
D11*
X-133410Y2607D02*
X-133410Y5775D01*
X-130242Y5775D01*
X-130242Y2607D01*
X-133410Y2607D01*
X-133410Y-3115D02*
X-133410Y-6283D01*
X-133410Y-3115D02*
X-130242Y-3115D01*
X-130242Y-6283D01*
X-133410Y-6283D01*
D17*
X-151239Y-24831D02*
X-162197Y-24831D01*
X-162197Y-19873D01*
X-151239Y-19873D01*
X-151239Y-24831D01*
X-151366Y-6924D02*
X-162324Y-6924D01*
X-162324Y-1966D01*
X-151366Y-1966D01*
X-151366Y-6924D01*
X-44214Y-110302D02*
X-33256Y-110302D01*
X-44214Y-110302D02*
X-44214Y-105344D01*
X-33256Y-105344D01*
X-33256Y-110302D01*
D18*
X-49358Y-29403D02*
X-49358Y-28137D01*
X-49358Y-29403D02*
X-55124Y-29403D01*
X-55124Y-28137D01*
X-49358Y-28137D01*
X-49358Y-24403D02*
X-49358Y-23137D01*
X-49358Y-24403D02*
X-55124Y-24403D01*
X-55124Y-23137D01*
X-49358Y-23137D01*
X-49358Y-19403D02*
X-49358Y-18137D01*
X-49358Y-19403D02*
X-55124Y-19403D01*
X-55124Y-18137D01*
X-49358Y-18137D01*
X-49358Y-14403D02*
X-49358Y-13137D01*
X-49358Y-14403D02*
X-55124Y-14403D01*
X-55124Y-13137D01*
X-49358Y-13137D01*
X-49358Y-9403D02*
X-49358Y-8137D01*
X-49358Y-9403D02*
X-55124Y-9403D01*
X-55124Y-8137D01*
X-49358Y-8137D01*
X-49358Y-4403D02*
X-49358Y-3137D01*
X-49358Y-4403D02*
X-55124Y-4403D01*
X-55124Y-3137D01*
X-49358Y-3137D01*
X-49358Y597D02*
X-49358Y1863D01*
X-49358Y597D02*
X-55124Y597D01*
X-55124Y1863D01*
X-49358Y1863D01*
X-49358Y5597D02*
X-49358Y6863D01*
X-49358Y5597D02*
X-55124Y5597D01*
X-55124Y6863D01*
X-49358Y6863D01*
X-49358Y10597D02*
X-49358Y11863D01*
X-49358Y10597D02*
X-55124Y10597D01*
X-55124Y11863D01*
X-49358Y11863D01*
X-49358Y15597D02*
X-49358Y16863D01*
X-49358Y15597D02*
X-55124Y15597D01*
X-55124Y16863D01*
X-49358Y16863D01*
X-49358Y20597D02*
X-49358Y21863D01*
X-49358Y20597D02*
X-55124Y20597D01*
X-55124Y21863D01*
X-49358Y21863D01*
X-49358Y25597D02*
X-49358Y26863D01*
X-49358Y25597D02*
X-55124Y25597D01*
X-55124Y26863D01*
X-49358Y26863D01*
X-58608Y36113D02*
X-59874Y36113D01*
X-58608Y36113D02*
X-58608Y30347D01*
X-59874Y30347D01*
X-59874Y36113D01*
X-59874Y32484D02*
X-58608Y32484D01*
X-58608Y34621D02*
X-59874Y34621D01*
X-63608Y36113D02*
X-64874Y36113D01*
X-63608Y36113D02*
X-63608Y30347D01*
X-64874Y30347D01*
X-64874Y36113D01*
X-64874Y32484D02*
X-63608Y32484D01*
X-63608Y34621D02*
X-64874Y34621D01*
X-68608Y36113D02*
X-69874Y36113D01*
X-68608Y36113D02*
X-68608Y30347D01*
X-69874Y30347D01*
X-69874Y36113D01*
X-69874Y32484D02*
X-68608Y32484D01*
X-68608Y34621D02*
X-69874Y34621D01*
X-73608Y36113D02*
X-74874Y36113D01*
X-73608Y36113D02*
X-73608Y30347D01*
X-74874Y30347D01*
X-74874Y36113D01*
X-74874Y32484D02*
X-73608Y32484D01*
X-73608Y34621D02*
X-74874Y34621D01*
X-78608Y36113D02*
X-79874Y36113D01*
X-78608Y36113D02*
X-78608Y30347D01*
X-79874Y30347D01*
X-79874Y36113D01*
X-79874Y32484D02*
X-78608Y32484D01*
X-78608Y34621D02*
X-79874Y34621D01*
X-83608Y36113D02*
X-84874Y36113D01*
X-83608Y36113D02*
X-83608Y30347D01*
X-84874Y30347D01*
X-84874Y36113D01*
X-84874Y32484D02*
X-83608Y32484D01*
X-83608Y34621D02*
X-84874Y34621D01*
X-88608Y36113D02*
X-89874Y36113D01*
X-88608Y36113D02*
X-88608Y30347D01*
X-89874Y30347D01*
X-89874Y36113D01*
X-89874Y32484D02*
X-88608Y32484D01*
X-88608Y34621D02*
X-89874Y34621D01*
X-93608Y36113D02*
X-94874Y36113D01*
X-93608Y36113D02*
X-93608Y30347D01*
X-94874Y30347D01*
X-94874Y36113D01*
X-94874Y32484D02*
X-93608Y32484D01*
X-93608Y34621D02*
X-94874Y34621D01*
X-98608Y36113D02*
X-99874Y36113D01*
X-98608Y36113D02*
X-98608Y30347D01*
X-99874Y30347D01*
X-99874Y36113D01*
X-99874Y32484D02*
X-98608Y32484D01*
X-98608Y34621D02*
X-99874Y34621D01*
X-103608Y36113D02*
X-104874Y36113D01*
X-103608Y36113D02*
X-103608Y30347D01*
X-104874Y30347D01*
X-104874Y36113D01*
X-104874Y32484D02*
X-103608Y32484D01*
X-103608Y34621D02*
X-104874Y34621D01*
X-108608Y36113D02*
X-109874Y36113D01*
X-108608Y36113D02*
X-108608Y30347D01*
X-109874Y30347D01*
X-109874Y36113D01*
X-109874Y32484D02*
X-108608Y32484D01*
X-108608Y34621D02*
X-109874Y34621D01*
X-113608Y36113D02*
X-114874Y36113D01*
X-113608Y36113D02*
X-113608Y30347D01*
X-114874Y30347D01*
X-114874Y36113D01*
X-114874Y32484D02*
X-113608Y32484D01*
X-113608Y34621D02*
X-114874Y34621D01*
X-124124Y26863D02*
X-124124Y25597D01*
X-124124Y26863D02*
X-118358Y26863D01*
X-118358Y25597D01*
X-124124Y25597D01*
X-124124Y21863D02*
X-124124Y20597D01*
X-124124Y21863D02*
X-118358Y21863D01*
X-118358Y20597D01*
X-124124Y20597D01*
X-124124Y16863D02*
X-124124Y15597D01*
X-124124Y16863D02*
X-118358Y16863D01*
X-118358Y15597D01*
X-124124Y15597D01*
X-124124Y11863D02*
X-124124Y10597D01*
X-124124Y11863D02*
X-118358Y11863D01*
X-118358Y10597D01*
X-124124Y10597D01*
X-124124Y6863D02*
X-124124Y5597D01*
X-124124Y6863D02*
X-118358Y6863D01*
X-118358Y5597D01*
X-124124Y5597D01*
X-124124Y1863D02*
X-124124Y597D01*
X-124124Y1863D02*
X-118358Y1863D01*
X-118358Y597D01*
X-124124Y597D01*
X-124124Y-3137D02*
X-124124Y-4403D01*
X-124124Y-3137D02*
X-118358Y-3137D01*
X-118358Y-4403D01*
X-124124Y-4403D01*
X-124124Y-8137D02*
X-124124Y-9403D01*
X-124124Y-8137D02*
X-118358Y-8137D01*
X-118358Y-9403D01*
X-124124Y-9403D01*
X-124124Y-13137D02*
X-124124Y-14403D01*
X-124124Y-13137D02*
X-118358Y-13137D01*
X-118358Y-14403D01*
X-124124Y-14403D01*
X-124124Y-18137D02*
X-124124Y-19403D01*
X-124124Y-18137D02*
X-118358Y-18137D01*
X-118358Y-19403D01*
X-124124Y-19403D01*
X-124124Y-23137D02*
X-124124Y-24403D01*
X-124124Y-23137D02*
X-118358Y-23137D01*
X-118358Y-24403D01*
X-124124Y-24403D01*
X-124124Y-28137D02*
X-124124Y-29403D01*
X-124124Y-28137D02*
X-118358Y-28137D01*
X-118358Y-29403D01*
X-124124Y-29403D01*
X-114874Y-38653D02*
X-113608Y-38653D01*
X-114874Y-38653D02*
X-114874Y-32887D01*
X-113608Y-32887D01*
X-113608Y-38653D01*
X-113608Y-36516D02*
X-114874Y-36516D01*
X-114874Y-34379D02*
X-113608Y-34379D01*
X-109874Y-38653D02*
X-108608Y-38653D01*
X-109874Y-38653D02*
X-109874Y-32887D01*
X-108608Y-32887D01*
X-108608Y-38653D01*
X-108608Y-36516D02*
X-109874Y-36516D01*
X-109874Y-34379D02*
X-108608Y-34379D01*
X-104874Y-38653D02*
X-103608Y-38653D01*
X-104874Y-38653D02*
X-104874Y-32887D01*
X-103608Y-32887D01*
X-103608Y-38653D01*
X-103608Y-36516D02*
X-104874Y-36516D01*
X-104874Y-34379D02*
X-103608Y-34379D01*
X-99874Y-38653D02*
X-98608Y-38653D01*
X-99874Y-38653D02*
X-99874Y-32887D01*
X-98608Y-32887D01*
X-98608Y-38653D01*
X-98608Y-36516D02*
X-99874Y-36516D01*
X-99874Y-34379D02*
X-98608Y-34379D01*
X-94874Y-38653D02*
X-93608Y-38653D01*
X-94874Y-38653D02*
X-94874Y-32887D01*
X-93608Y-32887D01*
X-93608Y-38653D01*
X-93608Y-36516D02*
X-94874Y-36516D01*
X-94874Y-34379D02*
X-93608Y-34379D01*
X-89874Y-38653D02*
X-88608Y-38653D01*
X-89874Y-38653D02*
X-89874Y-32887D01*
X-88608Y-32887D01*
X-88608Y-38653D01*
X-88608Y-36516D02*
X-89874Y-36516D01*
X-89874Y-34379D02*
X-88608Y-34379D01*
X-84874Y-38653D02*
X-83608Y-38653D01*
X-84874Y-38653D02*
X-84874Y-32887D01*
X-83608Y-32887D01*
X-83608Y-38653D01*
X-83608Y-36516D02*
X-84874Y-36516D01*
X-84874Y-34379D02*
X-83608Y-34379D01*
X-79874Y-38653D02*
X-78608Y-38653D01*
X-79874Y-38653D02*
X-79874Y-32887D01*
X-78608Y-32887D01*
X-78608Y-38653D01*
X-78608Y-36516D02*
X-79874Y-36516D01*
X-79874Y-34379D02*
X-78608Y-34379D01*
X-74874Y-38653D02*
X-73608Y-38653D01*
X-74874Y-38653D02*
X-74874Y-32887D01*
X-73608Y-32887D01*
X-73608Y-38653D01*
X-73608Y-36516D02*
X-74874Y-36516D01*
X-74874Y-34379D02*
X-73608Y-34379D01*
X-69874Y-38653D02*
X-68608Y-38653D01*
X-69874Y-38653D02*
X-69874Y-32887D01*
X-68608Y-32887D01*
X-68608Y-38653D01*
X-68608Y-36516D02*
X-69874Y-36516D01*
X-69874Y-34379D02*
X-68608Y-34379D01*
X-64874Y-38653D02*
X-63608Y-38653D01*
X-64874Y-38653D02*
X-64874Y-32887D01*
X-63608Y-32887D01*
X-63608Y-38653D01*
X-63608Y-36516D02*
X-64874Y-36516D01*
X-64874Y-34379D02*
X-63608Y-34379D01*
X-59874Y-38653D02*
X-58608Y-38653D01*
X-59874Y-38653D02*
X-59874Y-32887D01*
X-58608Y-32887D01*
X-58608Y-38653D01*
X-58608Y-36516D02*
X-59874Y-36516D01*
X-59874Y-34379D02*
X-58608Y-34379D01*
D19*
X-86741Y-1270D03*
D20*
X-387477Y179555D03*
X-237032Y90095D03*
X-237032Y-93905D03*
X-387350Y-182222D03*
X-316800Y136095D03*
X-237032Y-1905D03*
X-316600Y-139905D03*
D21*
X-394970Y-177419D02*
X-394970Y-196850D01*
X-394541Y-196874D01*
X-394111Y-196887D01*
X-393681Y-196890D01*
X-393251Y-196882D01*
X-392822Y-196864D01*
X-392393Y-196835D01*
X-391964Y-196796D01*
X-391537Y-196746D01*
X-391112Y-196686D01*
X-390687Y-196616D01*
X-390265Y-196535D01*
X-389845Y-196444D01*
X-389427Y-196343D01*
X-389011Y-196232D01*
X-388599Y-196111D01*
X-388189Y-195980D01*
X-387783Y-195838D01*
X-387381Y-195687D01*
X-386982Y-195526D01*
X-386587Y-195356D01*
X-386196Y-195176D01*
X-385811Y-194986D01*
X-385429Y-194788D01*
X-385053Y-194580D01*
X-384682Y-194362D01*
X-384316Y-194136D01*
X-383956Y-193901D01*
X-383602Y-193658D01*
X-383253Y-193405D01*
X-382911Y-193145D01*
X-382576Y-192876D01*
X-382247Y-192599D01*
X-381925Y-192314D01*
X-381610Y-192022D01*
X-381302Y-191721D01*
X-381001Y-191414D01*
X-380708Y-191099D01*
X-380423Y-190777D01*
X-380146Y-190448D01*
X-379877Y-190113D01*
X-379616Y-189771D01*
X-379364Y-189423D01*
X-379120Y-189069D01*
X-378884Y-188709D01*
X-378658Y-188343D01*
X-378440Y-187972D01*
X-378232Y-187596D01*
X-378033Y-187215D01*
X-377843Y-186829D01*
X-377663Y-186439D01*
X-377492Y-186044D01*
X-377331Y-185646D01*
X-377179Y-185243D01*
X-377038Y-184837D01*
X-376906Y-184428D01*
X-376785Y-184015D01*
X-376673Y-183600D01*
X-376572Y-183182D01*
X-376481Y-182762D01*
X-376400Y-182340D01*
X-376329Y-181916D01*
X-376269Y-181490D01*
X-376219Y-181063D01*
X-376179Y-180635D01*
X-376150Y-180206D01*
X-376132Y-179776D01*
X-376123Y-179346D01*
X-376126Y-178916D01*
X-376138Y-178486D01*
X-376162Y-178057D01*
X-376195Y-177628D01*
X-376240Y-177200D01*
X-376294Y-176774D01*
X-376359Y-176349D01*
X-376434Y-175925D01*
X-376520Y-175504D01*
X-376615Y-175085D01*
X-376721Y-174668D01*
X-376837Y-174254D01*
X-376963Y-173843D01*
X-377099Y-173435D01*
X-377245Y-173030D01*
X-377401Y-172630D01*
X-377566Y-172233D01*
X-377741Y-171840D01*
X-377926Y-171452D01*
X-378120Y-171068D01*
X-378323Y-170689D01*
X-378535Y-170315D01*
X-378757Y-169946D01*
X-378987Y-169583D01*
X-379226Y-169226D01*
X-379474Y-168874D01*
X-379730Y-168529D01*
X-394970Y-177419D01*
X-395224Y172593D02*
X-395224Y191770D01*
X-394795Y191796D01*
X-394366Y191811D01*
X-393937Y191816D01*
X-393508Y191811D01*
X-393079Y191795D01*
X-392650Y191768D01*
X-392222Y191731D01*
X-391796Y191684D01*
X-391370Y191627D01*
X-390946Y191559D01*
X-390524Y191480D01*
X-390104Y191392D01*
X-389686Y191293D01*
X-389271Y191185D01*
X-388858Y191066D01*
X-388449Y190937D01*
X-388043Y190798D01*
X-387640Y190649D01*
X-387241Y190491D01*
X-386846Y190323D01*
X-386455Y190145D01*
X-386069Y189958D01*
X-385687Y189761D01*
X-385310Y189556D01*
X-384938Y189341D01*
X-384572Y189117D01*
X-384211Y188884D01*
X-383856Y188643D01*
X-383507Y188393D01*
X-383164Y188135D01*
X-382828Y187868D01*
X-382498Y187593D01*
X-382175Y187311D01*
X-381858Y187020D01*
X-381550Y186722D01*
X-381248Y186417D01*
X-380954Y186104D01*
X-380667Y185784D01*
X-380389Y185457D01*
X-380118Y185124D01*
X-379856Y184784D01*
X-379602Y184438D01*
X-379357Y184086D01*
X-379120Y183728D01*
X-378892Y183364D01*
X-378673Y182995D01*
X-378463Y182620D01*
X-378262Y182241D01*
X-378070Y181856D01*
X-377888Y181468D01*
X-377716Y181075D01*
X-377553Y180677D01*
X-377399Y180276D01*
X-377256Y179872D01*
X-377122Y179464D01*
X-376999Y179053D01*
X-376885Y178639D01*
X-376781Y178222D01*
X-376688Y177803D01*
X-376605Y177382D01*
X-376532Y176959D01*
X-376470Y176534D01*
X-376418Y176108D01*
X-376376Y175680D01*
X-376345Y175252D01*
X-376324Y174823D01*
X-376313Y174394D01*
X-376313Y173965D01*
X-376324Y173536D01*
X-376345Y173107D01*
X-376376Y172679D01*
X-376418Y172252D01*
X-376470Y171825D01*
X-376532Y171401D01*
X-376605Y170978D01*
X-376688Y170556D01*
X-376782Y170137D01*
X-376885Y169721D01*
X-376999Y169307D01*
X-377122Y168895D01*
X-377256Y168487D01*
X-377399Y168083D01*
X-377553Y167682D01*
X-377716Y167285D01*
X-377889Y166892D01*
X-378071Y166503D01*
X-378262Y166119D01*
X-378463Y165739D01*
X-378673Y165365D01*
X-378892Y164996D01*
X-379120Y164632D01*
X-379357Y164274D01*
X-379603Y163921D01*
X-379857Y163575D01*
X-379857Y163576D02*
X-395224Y172593D01*
D22*
X-31623Y-192D03*
X-31623Y-12192D03*
X-31623Y-24192D03*
M02*
