G04 EAGLE Gerber RS-274X export*
G75*
%MOMM*%
%FSLAX34Y34*%
%LPD*%
%INSolderpaste Top*%
%IPPOS*%
%AMOC8*
5,1,8,0,0,1.08239X$1,22.5*%
G01*
%ADD10C,0.317500*%
%ADD11R,2.032000X1.016000*%
%ADD12R,0.800000X0.800000*%


D10*
X-142558Y-90361D02*
X-142558Y-87185D01*
X-139382Y-87185D01*
X-139382Y-90361D01*
X-142558Y-90361D01*
X-142558Y-87345D02*
X-139382Y-87345D01*
X-142558Y-96075D02*
X-142558Y-99251D01*
X-142558Y-96075D02*
X-139382Y-96075D01*
X-139382Y-99251D01*
X-142558Y-99251D01*
X-142558Y-96235D02*
X-139382Y-96235D01*
X-34226Y-96202D02*
X-34226Y-99378D01*
X-37402Y-99378D01*
X-37402Y-96202D01*
X-34226Y-96202D01*
X-34226Y-96362D02*
X-37402Y-96362D01*
X-34226Y-90488D02*
X-34226Y-87312D01*
X-34226Y-90488D02*
X-37402Y-90488D01*
X-37402Y-87312D01*
X-34226Y-87312D01*
X-34226Y-87472D02*
X-37402Y-87472D01*
X-45783Y-96202D02*
X-45783Y-99378D01*
X-48959Y-99378D01*
X-48959Y-96202D01*
X-45783Y-96202D01*
X-45783Y-96362D02*
X-48959Y-96362D01*
X-45783Y-90488D02*
X-45783Y-87312D01*
X-45783Y-90488D02*
X-48959Y-90488D01*
X-48959Y-87312D01*
X-45783Y-87312D01*
X-45783Y-87472D02*
X-48959Y-87472D01*
X-57213Y-96202D02*
X-57213Y-99378D01*
X-60389Y-99378D01*
X-60389Y-96202D01*
X-57213Y-96202D01*
X-57213Y-96362D02*
X-60389Y-96362D01*
X-57213Y-90488D02*
X-57213Y-87312D01*
X-57213Y-90488D02*
X-60389Y-90488D01*
X-60389Y-87312D01*
X-57213Y-87312D01*
X-57213Y-87472D02*
X-60389Y-87472D01*
X-69024Y-96202D02*
X-69024Y-99378D01*
X-72200Y-99378D01*
X-72200Y-96202D01*
X-69024Y-96202D01*
X-69024Y-96362D02*
X-72200Y-96362D01*
X-69024Y-90488D02*
X-69024Y-87312D01*
X-69024Y-90488D02*
X-72200Y-90488D01*
X-72200Y-87312D01*
X-69024Y-87312D01*
X-69024Y-87472D02*
X-72200Y-87472D01*
X-80835Y-96202D02*
X-80835Y-99378D01*
X-84011Y-99378D01*
X-84011Y-96202D01*
X-80835Y-96202D01*
X-80835Y-96362D02*
X-84011Y-96362D01*
X-80835Y-90488D02*
X-80835Y-87312D01*
X-80835Y-90488D02*
X-84011Y-90488D01*
X-84011Y-87312D01*
X-80835Y-87312D01*
X-80835Y-87472D02*
X-84011Y-87472D01*
X-92519Y-96202D02*
X-92519Y-99378D01*
X-95695Y-99378D01*
X-95695Y-96202D01*
X-92519Y-96202D01*
X-92519Y-96362D02*
X-95695Y-96362D01*
X-92519Y-90488D02*
X-92519Y-87312D01*
X-92519Y-90488D02*
X-95695Y-90488D01*
X-95695Y-87312D01*
X-92519Y-87312D01*
X-92519Y-87472D02*
X-95695Y-87472D01*
X-104203Y-96202D02*
X-104203Y-99378D01*
X-107379Y-99378D01*
X-107379Y-96202D01*
X-104203Y-96202D01*
X-104203Y-96362D02*
X-107379Y-96362D01*
X-104203Y-90488D02*
X-104203Y-87312D01*
X-104203Y-90488D02*
X-107379Y-90488D01*
X-107379Y-87312D01*
X-104203Y-87312D01*
X-104203Y-87472D02*
X-107379Y-87472D01*
X-130874Y-87312D02*
X-130874Y-90488D01*
X-130874Y-87312D02*
X-127698Y-87312D01*
X-127698Y-90488D01*
X-130874Y-90488D01*
X-130874Y-87472D02*
X-127698Y-87472D01*
X-130874Y-96202D02*
X-130874Y-99378D01*
X-130874Y-96202D02*
X-127698Y-96202D01*
X-127698Y-99378D01*
X-130874Y-99378D01*
X-130874Y-96362D02*
X-127698Y-96362D01*
X-119063Y-90488D02*
X-119063Y-87312D01*
X-115887Y-87312D01*
X-115887Y-90488D01*
X-119063Y-90488D01*
X-119063Y-87472D02*
X-115887Y-87472D01*
X-119063Y-96202D02*
X-119063Y-99378D01*
X-119063Y-96202D02*
X-115887Y-96202D01*
X-115887Y-99378D01*
X-119063Y-99378D01*
X-119063Y-96362D02*
X-115887Y-96362D01*
D11*
X-125095Y129286D03*
X-125095Y103886D03*
X-36195Y103886D03*
X-36195Y129286D03*
D10*
X-105346Y40449D02*
X-108522Y40449D01*
X-108522Y43625D01*
X-105346Y43625D01*
X-105346Y40449D01*
X-105346Y43465D02*
X-108522Y43465D01*
X-99632Y40449D02*
X-96456Y40449D01*
X-99632Y40449D02*
X-99632Y43625D01*
X-96456Y43625D01*
X-96456Y40449D01*
X-96456Y43465D02*
X-99632Y43465D01*
X-113347Y53785D02*
X-116523Y53785D01*
X-113347Y53785D02*
X-113347Y50609D01*
X-116523Y50609D01*
X-116523Y53785D01*
X-116523Y53625D02*
X-113347Y53625D01*
X-122237Y53785D02*
X-125413Y53785D01*
X-122237Y53785D02*
X-122237Y50609D01*
X-125413Y50609D01*
X-125413Y53785D01*
X-125413Y53625D02*
X-122237Y53625D01*
X-130238Y-26861D02*
X-133414Y-26861D01*
X-133414Y-23685D01*
X-130238Y-23685D01*
X-130238Y-26861D01*
X-130238Y-23845D02*
X-133414Y-23845D01*
X-124524Y-26861D02*
X-121348Y-26861D01*
X-124524Y-26861D02*
X-124524Y-23685D01*
X-121348Y-23685D01*
X-121348Y-26861D01*
X-121348Y-23845D02*
X-124524Y-23845D01*
D12*
X-177165Y-5087D03*
X-177165Y9913D03*
M02*
