G04 EAGLE Gerber RS-274X export*
G75*
%MOMM*%
%FSLAX34Y34*%
%LPD*%
%INSoldermask Top*%
%IPPOS*%
%AMOC8*
5,1,8,0,0,1.08239X$1,22.5*%
G01*
%ADD10C,3.001600*%
%ADD11C,0.419859*%
%ADD12C,0.388509*%
%ADD13R,2.841600X1.111600*%
%ADD14R,3.101600X1.601600*%
%ADD15R,1.117600X1.244600*%
%ADD16R,1.401600X0.401600*%
%ADD17R,0.401600X1.401600*%
%ADD18R,1.752600X1.752600*%
%ADD19C,1.752600*%
%ADD20R,2.133600X1.117600*%
%ADD21R,1.625600X1.117600*%
%ADD22R,1.609600X1.609600*%
%ADD23C,1.609600*%
%ADD24R,1.901600X1.871600*%
%ADD25R,1.879600X2.133600*%
%ADD26R,1.244600X1.244600*%
%ADD27C,1.244600*%
%ADD28C,1.101600*%
%ADD29C,0.605878*%

G36*
X-246364Y-113442D02*
X-246364Y-113442D01*
X-246330Y-113434D01*
X-246281Y-113432D01*
X-243168Y-112774D01*
X-243136Y-112760D01*
X-243088Y-112750D01*
X-240128Y-111582D01*
X-240099Y-111563D01*
X-240053Y-111545D01*
X-237329Y-109900D01*
X-237304Y-109876D01*
X-237262Y-109851D01*
X-234851Y-107775D01*
X-234829Y-107747D01*
X-234792Y-107715D01*
X-232761Y-105266D01*
X-232744Y-105235D01*
X-232713Y-105197D01*
X-231119Y-102443D01*
X-231108Y-102410D01*
X-231083Y-102368D01*
X-229970Y-99387D01*
X-229965Y-99352D01*
X-229948Y-99306D01*
X-229348Y-96181D01*
X-229348Y-96146D01*
X-229339Y-96098D01*
X-229269Y-92917D01*
X-229275Y-92883D01*
X-229274Y-92834D01*
X-229735Y-89685D01*
X-229747Y-89652D01*
X-229754Y-89604D01*
X-230733Y-86577D01*
X-230751Y-86546D01*
X-230766Y-86499D01*
X-232237Y-83678D01*
X-232259Y-83651D01*
X-232281Y-83607D01*
X-234202Y-81070D01*
X-234228Y-81047D01*
X-234258Y-81008D01*
X-236575Y-78827D01*
X-236605Y-78809D01*
X-236640Y-78775D01*
X-239288Y-77011D01*
X-239321Y-76998D01*
X-239362Y-76971D01*
X-242267Y-75673D01*
X-242291Y-75668D01*
X-242310Y-75657D01*
X-242328Y-75654D01*
X-242346Y-75646D01*
X-245427Y-74851D01*
X-245462Y-74849D01*
X-245509Y-74837D01*
X-248680Y-74567D01*
X-248709Y-74570D01*
X-248739Y-74565D01*
X-248807Y-74581D01*
X-248877Y-74589D01*
X-248903Y-74604D01*
X-248932Y-74611D01*
X-248989Y-74653D01*
X-249050Y-74688D01*
X-249068Y-74711D01*
X-249092Y-74729D01*
X-249128Y-74789D01*
X-249171Y-74846D01*
X-249178Y-74874D01*
X-249194Y-74900D01*
X-249210Y-74996D01*
X-249221Y-75038D01*
X-249219Y-75050D01*
X-249221Y-75064D01*
X-249221Y-93775D01*
X-265471Y-103131D01*
X-265493Y-103151D01*
X-265520Y-103163D01*
X-265567Y-103216D01*
X-265620Y-103263D01*
X-265633Y-103289D01*
X-265653Y-103311D01*
X-265676Y-103378D01*
X-265706Y-103442D01*
X-265708Y-103472D01*
X-265717Y-103499D01*
X-265712Y-103570D01*
X-265715Y-103641D01*
X-265705Y-103669D01*
X-265703Y-103698D01*
X-265662Y-103786D01*
X-265659Y-103797D01*
X-265656Y-103801D01*
X-265646Y-103827D01*
X-265638Y-103836D01*
X-265632Y-103848D01*
X-263819Y-106463D01*
X-263794Y-106488D01*
X-263766Y-106528D01*
X-261543Y-108804D01*
X-261514Y-108824D01*
X-261480Y-108859D01*
X-258907Y-110732D01*
X-258876Y-110747D01*
X-258836Y-110775D01*
X-255988Y-112194D01*
X-255954Y-112203D01*
X-255910Y-112225D01*
X-252865Y-113148D01*
X-252830Y-113151D01*
X-252783Y-113165D01*
X-249627Y-113568D01*
X-249592Y-113565D01*
X-249543Y-113572D01*
X-246364Y-113442D01*
G37*
G36*
X-248694Y66440D02*
X-248694Y66440D01*
X-248680Y66439D01*
X-245509Y66709D01*
X-245476Y66719D01*
X-245427Y66723D01*
X-242346Y67518D01*
X-242314Y67533D01*
X-242267Y67545D01*
X-239362Y68843D01*
X-239333Y68863D01*
X-239288Y68883D01*
X-236640Y70647D01*
X-236615Y70672D01*
X-236575Y70699D01*
X-234258Y72880D01*
X-234238Y72909D01*
X-234202Y72942D01*
X-232281Y75479D01*
X-232266Y75511D01*
X-232237Y75550D01*
X-230766Y78371D01*
X-230756Y78405D01*
X-230733Y78449D01*
X-229754Y81476D01*
X-229750Y81511D01*
X-229735Y81557D01*
X-229274Y84706D01*
X-229276Y84741D01*
X-229269Y84789D01*
X-229339Y87970D01*
X-229347Y88005D01*
X-229348Y88053D01*
X-229948Y91178D01*
X-229961Y91211D01*
X-229970Y91259D01*
X-231083Y94240D01*
X-231102Y94269D01*
X-231119Y94315D01*
X-232713Y97069D01*
X-232736Y97095D01*
X-232761Y97138D01*
X-234792Y99587D01*
X-234819Y99609D01*
X-234851Y99647D01*
X-237262Y101723D01*
X-237292Y101740D01*
X-237329Y101772D01*
X-240053Y103417D01*
X-240086Y103429D01*
X-240128Y103454D01*
X-243088Y104622D01*
X-243122Y104628D01*
X-243168Y104646D01*
X-246281Y105304D01*
X-246316Y105304D01*
X-246364Y105314D01*
X-249543Y105444D01*
X-249578Y105438D01*
X-249627Y105440D01*
X-252783Y105037D01*
X-252816Y105026D01*
X-252865Y105020D01*
X-255910Y104097D01*
X-255941Y104080D01*
X-255988Y104066D01*
X-258836Y102647D01*
X-258864Y102626D01*
X-258907Y102604D01*
X-261480Y100731D01*
X-261503Y100705D01*
X-261543Y100676D01*
X-263766Y98400D01*
X-263785Y98370D01*
X-263819Y98335D01*
X-265632Y95720D01*
X-265644Y95693D01*
X-265663Y95671D01*
X-265683Y95603D01*
X-265711Y95538D01*
X-265711Y95508D01*
X-265719Y95480D01*
X-265711Y95410D01*
X-265712Y95339D01*
X-265700Y95312D01*
X-265697Y95282D01*
X-265662Y95221D01*
X-265635Y95155D01*
X-265614Y95135D01*
X-265599Y95109D01*
X-265524Y95047D01*
X-265493Y95017D01*
X-265482Y95012D01*
X-265471Y95003D01*
X-249221Y85647D01*
X-249221Y66936D01*
X-249215Y66907D01*
X-249218Y66877D01*
X-249196Y66810D01*
X-249182Y66741D01*
X-249165Y66717D01*
X-249156Y66688D01*
X-249109Y66635D01*
X-249069Y66577D01*
X-249044Y66561D01*
X-249024Y66539D01*
X-248961Y66508D01*
X-248902Y66470D01*
X-248872Y66465D01*
X-248845Y66452D01*
X-248748Y66444D01*
X-248705Y66437D01*
X-248694Y66440D01*
G37*
G36*
X-324700Y-156485D02*
X-324700Y-156485D01*
X-324666Y-156477D01*
X-324618Y-156476D01*
X-321858Y-155939D01*
X-321826Y-155926D01*
X-321778Y-155917D01*
X-319144Y-154933D01*
X-319115Y-154915D01*
X-319070Y-154898D01*
X-316634Y-153494D01*
X-316608Y-153471D01*
X-316566Y-153447D01*
X-314394Y-151662D01*
X-314372Y-151635D01*
X-314335Y-151604D01*
X-312487Y-149485D01*
X-312470Y-149455D01*
X-312438Y-149419D01*
X-310964Y-147025D01*
X-310952Y-146992D01*
X-310926Y-146951D01*
X-309866Y-144347D01*
X-309860Y-144313D01*
X-309841Y-144269D01*
X-309224Y-141526D01*
X-309224Y-141491D01*
X-309213Y-141444D01*
X-309056Y-138637D01*
X-309061Y-138602D01*
X-309060Y-138583D01*
X-309058Y-138571D01*
X-309059Y-138566D01*
X-309058Y-138554D01*
X-309365Y-135759D01*
X-309376Y-135726D01*
X-309381Y-135678D01*
X-310144Y-132972D01*
X-310159Y-132941D01*
X-310172Y-132895D01*
X-311370Y-130351D01*
X-311388Y-130328D01*
X-311398Y-130301D01*
X-311447Y-130249D01*
X-311489Y-130192D01*
X-311514Y-130177D01*
X-311534Y-130156D01*
X-311600Y-130127D01*
X-311661Y-130092D01*
X-311690Y-130088D01*
X-311716Y-130076D01*
X-311788Y-130075D01*
X-311858Y-130066D01*
X-311886Y-130074D01*
X-311915Y-130074D01*
X-312009Y-130108D01*
X-312050Y-130120D01*
X-312058Y-130127D01*
X-312071Y-130131D01*
X-341571Y-147131D01*
X-341593Y-147151D01*
X-341620Y-147163D01*
X-341667Y-147216D01*
X-341720Y-147263D01*
X-341733Y-147289D01*
X-341752Y-147311D01*
X-341776Y-147378D01*
X-341806Y-147442D01*
X-341808Y-147472D01*
X-341817Y-147499D01*
X-341812Y-147570D01*
X-341813Y-147582D01*
X-341814Y-147591D01*
X-341813Y-147594D01*
X-341815Y-147641D01*
X-341805Y-147668D01*
X-341803Y-147698D01*
X-341774Y-147760D01*
X-341768Y-147784D01*
X-341756Y-147800D01*
X-341746Y-147827D01*
X-341738Y-147836D01*
X-341733Y-147848D01*
X-340132Y-150160D01*
X-340107Y-150184D01*
X-340080Y-150224D01*
X-338121Y-152241D01*
X-338092Y-152260D01*
X-338059Y-152295D01*
X-335795Y-153962D01*
X-335763Y-153976D01*
X-335724Y-154005D01*
X-333217Y-155277D01*
X-333183Y-155286D01*
X-333140Y-155308D01*
X-330458Y-156149D01*
X-330423Y-156153D01*
X-330377Y-156167D01*
X-327593Y-156556D01*
X-327558Y-156554D01*
X-327510Y-156560D01*
X-324700Y-156485D01*
G37*
G36*
X-311955Y121950D02*
X-311955Y121950D01*
X-311884Y121956D01*
X-311859Y121970D01*
X-311830Y121975D01*
X-311771Y122015D01*
X-311708Y122048D01*
X-311690Y122070D01*
X-311665Y122087D01*
X-311608Y122169D01*
X-311581Y122201D01*
X-311578Y122212D01*
X-311570Y122223D01*
X-310372Y124767D01*
X-310364Y124801D01*
X-310344Y124844D01*
X-309581Y127550D01*
X-309578Y127585D01*
X-309565Y127631D01*
X-309258Y130426D01*
X-309261Y130461D01*
X-309256Y130509D01*
X-309413Y133316D01*
X-309422Y133349D01*
X-309424Y133398D01*
X-310041Y136141D01*
X-310056Y136172D01*
X-310066Y136219D01*
X-311126Y138823D01*
X-311145Y138852D01*
X-311164Y138897D01*
X-312638Y141291D01*
X-312662Y141316D01*
X-312687Y141357D01*
X-314535Y143476D01*
X-314563Y143497D01*
X-314594Y143534D01*
X-316766Y145319D01*
X-316797Y145336D01*
X-316834Y145366D01*
X-319270Y146770D01*
X-319303Y146781D01*
X-319344Y146805D01*
X-321978Y147789D01*
X-322013Y147794D01*
X-322058Y147811D01*
X-324818Y148348D01*
X-324852Y148348D01*
X-324900Y148357D01*
X-327710Y148432D01*
X-327744Y148426D01*
X-327793Y148428D01*
X-330577Y148039D01*
X-330610Y148028D01*
X-330658Y148021D01*
X-333340Y147180D01*
X-333371Y147163D01*
X-333417Y147149D01*
X-335924Y145877D01*
X-335952Y145855D01*
X-335995Y145834D01*
X-338259Y144167D01*
X-338282Y144141D01*
X-338321Y144113D01*
X-340280Y142096D01*
X-340299Y142067D01*
X-340332Y142032D01*
X-341933Y139720D01*
X-341944Y139693D01*
X-341963Y139671D01*
X-341983Y139603D01*
X-342011Y139537D01*
X-342011Y139508D01*
X-342019Y139480D01*
X-342011Y139410D01*
X-342012Y139339D01*
X-342000Y139312D01*
X-341997Y139283D01*
X-341962Y139221D01*
X-341935Y139155D01*
X-341914Y139135D01*
X-341900Y139109D01*
X-341823Y139046D01*
X-341792Y139016D01*
X-341782Y139012D01*
X-341771Y139003D01*
X-312271Y122003D01*
X-312244Y121994D01*
X-312220Y121978D01*
X-312150Y121963D01*
X-312083Y121940D01*
X-312054Y121943D01*
X-312025Y121937D01*
X-311955Y121950D01*
G37*
G36*
X-248695Y-21560D02*
X-248695Y-21560D01*
X-248681Y-21562D01*
X-245883Y-21330D01*
X-245849Y-21320D01*
X-245801Y-21316D01*
X-243080Y-20627D01*
X-243048Y-20612D01*
X-243002Y-20600D01*
X-240430Y-19472D01*
X-240402Y-19452D01*
X-240358Y-19433D01*
X-238007Y-17897D01*
X-237983Y-17873D01*
X-237942Y-17847D01*
X-235877Y-15945D01*
X-235864Y-15928D01*
X-235852Y-15919D01*
X-235841Y-15903D01*
X-235821Y-15884D01*
X-234096Y-13669D01*
X-234081Y-13638D01*
X-234051Y-13600D01*
X-232715Y-11130D01*
X-232705Y-11097D01*
X-232682Y-11055D01*
X-231770Y-8399D01*
X-231766Y-8365D01*
X-231750Y-8319D01*
X-231288Y-5550D01*
X-231289Y-5515D01*
X-231281Y-5468D01*
X-231281Y-2660D01*
X-231288Y-2626D01*
X-231288Y-2578D01*
X-231750Y191D01*
X-231762Y224D01*
X-231770Y271D01*
X-232682Y2927D01*
X-232699Y2957D01*
X-232715Y3002D01*
X-234051Y5472D01*
X-234073Y5498D01*
X-234096Y5541D01*
X-235821Y7756D01*
X-235847Y7779D01*
X-235877Y7817D01*
X-237942Y9719D01*
X-237972Y9737D01*
X-238007Y9769D01*
X-240358Y11305D01*
X-240390Y11318D01*
X-240430Y11344D01*
X-243002Y12472D01*
X-243035Y12479D01*
X-243080Y12499D01*
X-245801Y13188D01*
X-245836Y13190D01*
X-245883Y13202D01*
X-248681Y13434D01*
X-248710Y13430D01*
X-248739Y13435D01*
X-248808Y13419D01*
X-248878Y13410D01*
X-248904Y13396D01*
X-248932Y13389D01*
X-248989Y13347D01*
X-249051Y13312D01*
X-249069Y13288D01*
X-249092Y13271D01*
X-249128Y13210D01*
X-249171Y13153D01*
X-249179Y13125D01*
X-249194Y13100D01*
X-249210Y13002D01*
X-249221Y12961D01*
X-249219Y12950D01*
X-249221Y12936D01*
X-249221Y-21064D01*
X-249215Y-21093D01*
X-249218Y-21122D01*
X-249196Y-21189D01*
X-249182Y-21259D01*
X-249165Y-21283D01*
X-249156Y-21311D01*
X-249109Y-21364D01*
X-249069Y-21423D01*
X-249045Y-21439D01*
X-249025Y-21461D01*
X-248961Y-21492D01*
X-248902Y-21530D01*
X-248873Y-21535D01*
X-248847Y-21547D01*
X-248747Y-21556D01*
X-248705Y-21563D01*
X-248695Y-21560D01*
G37*
G36*
X-398783Y-204283D02*
X-398783Y-204283D01*
X-398750Y-204274D01*
X-398703Y-204270D01*
X-395884Y-203573D01*
X-395853Y-203558D01*
X-395807Y-203547D01*
X-393138Y-202402D01*
X-393110Y-202383D01*
X-393066Y-202364D01*
X-390618Y-200801D01*
X-390594Y-200778D01*
X-390554Y-200752D01*
X-388391Y-198813D01*
X-388371Y-198786D01*
X-388336Y-198754D01*
X-386517Y-196490D01*
X-386501Y-196460D01*
X-386471Y-196423D01*
X-385043Y-193894D01*
X-385033Y-193862D01*
X-385009Y-193820D01*
X-384011Y-191093D01*
X-384006Y-191059D01*
X-383989Y-191015D01*
X-383446Y-188162D01*
X-383446Y-188128D01*
X-383437Y-188081D01*
X-383364Y-185178D01*
X-383370Y-185144D01*
X-383369Y-185097D01*
X-383767Y-182220D01*
X-383778Y-182188D01*
X-383785Y-182141D01*
X-384644Y-179367D01*
X-384656Y-179346D01*
X-384657Y-179343D01*
X-384661Y-179337D01*
X-384675Y-179292D01*
X-385973Y-176694D01*
X-385994Y-176667D01*
X-386015Y-176624D01*
X-387718Y-174271D01*
X-387778Y-174216D01*
X-387834Y-174156D01*
X-387851Y-174149D01*
X-387864Y-174137D01*
X-387941Y-174109D01*
X-388016Y-174076D01*
X-388034Y-174076D01*
X-388051Y-174070D01*
X-388133Y-174075D01*
X-388215Y-174074D01*
X-388234Y-174080D01*
X-388250Y-174081D01*
X-388290Y-174101D01*
X-388371Y-174131D01*
X-404871Y-183631D01*
X-404930Y-183683D01*
X-404992Y-183729D01*
X-405004Y-183748D01*
X-405020Y-183763D01*
X-405054Y-183833D01*
X-405094Y-183900D01*
X-405098Y-183925D01*
X-405106Y-183942D01*
X-405108Y-183987D01*
X-405121Y-184064D01*
X-405111Y-203774D01*
X-405094Y-203859D01*
X-405081Y-203946D01*
X-405074Y-203956D01*
X-405072Y-203969D01*
X-405022Y-204041D01*
X-404977Y-204115D01*
X-404966Y-204122D01*
X-404959Y-204133D01*
X-404886Y-204180D01*
X-404815Y-204230D01*
X-404801Y-204234D01*
X-404791Y-204240D01*
X-404749Y-204247D01*
X-404654Y-204272D01*
X-401760Y-204513D01*
X-401726Y-204509D01*
X-401678Y-204514D01*
X-398783Y-204283D01*
G37*
G36*
X-388101Y165947D02*
X-388101Y165947D01*
X-388019Y165948D01*
X-388002Y165955D01*
X-387984Y165956D01*
X-387911Y165994D01*
X-387836Y166027D01*
X-387822Y166041D01*
X-387808Y166048D01*
X-387779Y166083D01*
X-387718Y166143D01*
X-386015Y168496D01*
X-386001Y168527D01*
X-385973Y168566D01*
X-384675Y171164D01*
X-384666Y171197D01*
X-384644Y171239D01*
X-383785Y174013D01*
X-383781Y174047D01*
X-383767Y174092D01*
X-383369Y176969D01*
X-383371Y177003D01*
X-383364Y177050D01*
X-383437Y179953D01*
X-383445Y179987D01*
X-383446Y180034D01*
X-383989Y182887D01*
X-384002Y182919D01*
X-384011Y182965D01*
X-385009Y185692D01*
X-385027Y185722D01*
X-385043Y185766D01*
X-386471Y188295D01*
X-386494Y188321D01*
X-386517Y188362D01*
X-388336Y190626D01*
X-388362Y190648D01*
X-388391Y190685D01*
X-390554Y192624D01*
X-390583Y192642D01*
X-390618Y192673D01*
X-393066Y194236D01*
X-393098Y194248D01*
X-393138Y194274D01*
X-395807Y195419D01*
X-395840Y195426D01*
X-395884Y195445D01*
X-398703Y196142D01*
X-398737Y196144D01*
X-398783Y196155D01*
X-401678Y196386D01*
X-401712Y196382D01*
X-401760Y196385D01*
X-404654Y196144D01*
X-404737Y196119D01*
X-404822Y196099D01*
X-404832Y196091D01*
X-404844Y196088D01*
X-404912Y196033D01*
X-404982Y195981D01*
X-404989Y195970D01*
X-404999Y195962D01*
X-405039Y195885D01*
X-405083Y195810D01*
X-405086Y195796D01*
X-405091Y195786D01*
X-405095Y195743D01*
X-405111Y195646D01*
X-405121Y175936D01*
X-405106Y175860D01*
X-405097Y175782D01*
X-405086Y175763D01*
X-405082Y175741D01*
X-405038Y175677D01*
X-404999Y175609D01*
X-404980Y175593D01*
X-404969Y175577D01*
X-404935Y175556D01*
X-404932Y175552D01*
X-404923Y175546D01*
X-404871Y175503D01*
X-388371Y166003D01*
X-388294Y165977D01*
X-388217Y165946D01*
X-388199Y165946D01*
X-388182Y165940D01*
X-388101Y165947D01*
G37*
D10*
X-262418Y166823D03*
X-262418Y-176077D03*
X182082Y-176077D03*
X182082Y166823D03*
D11*
X79435Y-41589D02*
X76267Y-41589D01*
X76267Y-38421D01*
X79435Y-38421D01*
X79435Y-41589D01*
X85157Y-41589D02*
X88325Y-41589D01*
X85157Y-41589D02*
X85157Y-38421D01*
X88325Y-38421D01*
X88325Y-41589D01*
X78927Y-2346D02*
X78927Y822D01*
X78927Y-2346D02*
X75759Y-2346D01*
X75759Y822D01*
X78927Y822D01*
X78927Y6544D02*
X78927Y9712D01*
X78927Y6544D02*
X75759Y6544D01*
X75759Y9712D01*
X78927Y9712D01*
X-38795Y68901D02*
X-38795Y72069D01*
X-35627Y72069D01*
X-35627Y68901D01*
X-38795Y68901D01*
X-38795Y63179D02*
X-38795Y60011D01*
X-38795Y63179D02*
X-35627Y63179D01*
X-35627Y60011D01*
X-38795Y60011D01*
X58353Y-82871D02*
X58353Y-86039D01*
X55185Y-86039D01*
X55185Y-82871D01*
X58353Y-82871D01*
X58353Y-77149D02*
X58353Y-73981D01*
X58353Y-77149D02*
X55185Y-77149D01*
X55185Y-73981D01*
X58353Y-73981D01*
X45653Y-82871D02*
X45653Y-86039D01*
X42485Y-86039D01*
X42485Y-82871D01*
X45653Y-82871D01*
X45653Y-77149D02*
X45653Y-73981D01*
X45653Y-77149D02*
X42485Y-77149D01*
X42485Y-73981D01*
X45653Y-73981D01*
X-43247Y-61909D02*
X-43247Y-58741D01*
X-43247Y-61909D02*
X-46415Y-61909D01*
X-46415Y-58741D01*
X-43247Y-58741D01*
X-43247Y-53019D02*
X-43247Y-49851D01*
X-43247Y-53019D02*
X-46415Y-53019D01*
X-46415Y-49851D01*
X-43247Y-49851D01*
X105096Y-38294D02*
X108264Y-38294D01*
X108264Y-41462D01*
X105096Y-41462D01*
X105096Y-38294D01*
X99374Y-38294D02*
X96206Y-38294D01*
X99374Y-38294D02*
X99374Y-41462D01*
X96206Y-41462D01*
X96206Y-38294D01*
X95190Y-4766D02*
X98358Y-4766D01*
X98358Y-7934D01*
X95190Y-7934D01*
X95190Y-4766D01*
X89468Y-4766D02*
X86300Y-4766D01*
X89468Y-4766D02*
X89468Y-7934D01*
X86300Y-7934D01*
X86300Y-4766D01*
X119955Y117154D02*
X123123Y117154D01*
X123123Y113986D01*
X119955Y113986D01*
X119955Y117154D01*
X114233Y117154D02*
X111065Y117154D01*
X114233Y117154D02*
X114233Y113986D01*
X111065Y113986D01*
X111065Y117154D01*
X119955Y128584D02*
X123123Y128584D01*
X123123Y125416D01*
X119955Y125416D01*
X119955Y128584D01*
X114233Y128584D02*
X111065Y128584D01*
X114233Y128584D02*
X114233Y125416D01*
X111065Y125416D01*
X111065Y128584D01*
X89468Y68266D02*
X86300Y68266D01*
X86300Y71434D01*
X89468Y71434D01*
X89468Y68266D01*
X95190Y68266D02*
X98358Y68266D01*
X95190Y68266D02*
X95190Y71434D01*
X98358Y71434D01*
X98358Y68266D01*
X89468Y79696D02*
X86300Y79696D01*
X86300Y82864D01*
X89468Y82864D01*
X89468Y79696D01*
X95190Y79696D02*
X98358Y79696D01*
X95190Y79696D02*
X95190Y82864D01*
X98358Y82864D01*
X98358Y79696D01*
D12*
X-5935Y-117025D02*
X-5935Y-119957D01*
X-5935Y-117025D02*
X-3003Y-117025D01*
X-3003Y-119957D01*
X-5935Y-119957D01*
X-15285Y-119957D02*
X-15285Y-117025D01*
X-12353Y-117025D01*
X-12353Y-119957D01*
X-15285Y-119957D01*
X-6062Y-108146D02*
X-6062Y-105214D01*
X-3130Y-105214D01*
X-3130Y-108146D01*
X-6062Y-108146D01*
X-15412Y-108146D02*
X-15412Y-105214D01*
X-12480Y-105214D01*
X-12480Y-108146D01*
X-15412Y-108146D01*
D13*
X-109109Y-32286D03*
X-109109Y-12286D03*
X-109109Y7714D03*
X-109109Y27714D03*
D14*
X-184109Y-56286D03*
X-184109Y51714D03*
D15*
X-132461Y118110D03*
X-123571Y97790D03*
X-141351Y97790D03*
X-93091Y118110D03*
X-84201Y97790D03*
X-101981Y97790D03*
D11*
X-124400Y134553D02*
X-127568Y134553D01*
X-124400Y134553D02*
X-124400Y131385D01*
X-127568Y131385D01*
X-127568Y134553D01*
X-133290Y134553D02*
X-136458Y134553D01*
X-133290Y134553D02*
X-133290Y131385D01*
X-136458Y131385D01*
X-136458Y134553D01*
X7687Y-120075D02*
X10855Y-120075D01*
X7687Y-120075D02*
X7687Y-116907D01*
X10855Y-116907D01*
X10855Y-120075D01*
X16577Y-120075D02*
X19745Y-120075D01*
X16577Y-120075D02*
X16577Y-116907D01*
X19745Y-116907D01*
X19745Y-120075D01*
X95190Y-27626D02*
X98358Y-27626D01*
X98358Y-30794D01*
X95190Y-30794D01*
X95190Y-27626D01*
X89468Y-27626D02*
X86300Y-27626D01*
X89468Y-27626D02*
X89468Y-30794D01*
X86300Y-30794D01*
X86300Y-27626D01*
X-12125Y68901D02*
X-12125Y72069D01*
X-8957Y72069D01*
X-8957Y68901D01*
X-12125Y68901D01*
X-12125Y63179D02*
X-12125Y60011D01*
X-12125Y63179D02*
X-8957Y63179D01*
X-8957Y60011D01*
X-12125Y60011D01*
X7560Y-108264D02*
X10728Y-108264D01*
X7560Y-108264D02*
X7560Y-105096D01*
X10728Y-105096D01*
X10728Y-108264D01*
X16450Y-108264D02*
X19618Y-108264D01*
X16450Y-108264D02*
X16450Y-105096D01*
X19618Y-105096D01*
X19618Y-108264D01*
X-134052Y77156D02*
X-137220Y77156D01*
X-137220Y80324D01*
X-134052Y80324D01*
X-134052Y77156D01*
X-128330Y77156D02*
X-125162Y77156D01*
X-128330Y77156D02*
X-128330Y80324D01*
X-125162Y80324D01*
X-125162Y77156D01*
X-89341Y134426D02*
X-86173Y134426D01*
X-86173Y131258D01*
X-89341Y131258D01*
X-89341Y134426D01*
X-95063Y134426D02*
X-98231Y134426D01*
X-95063Y134426D02*
X-95063Y131258D01*
X-98231Y131258D01*
X-98231Y134426D01*
X86300Y6544D02*
X89468Y6544D01*
X86300Y6544D02*
X86300Y9712D01*
X89468Y9712D01*
X89468Y6544D01*
X95190Y6544D02*
X98358Y6544D01*
X95190Y6544D02*
X95190Y9712D01*
X98358Y9712D01*
X98358Y6544D01*
X-89602Y80324D02*
X-92770Y80324D01*
X-89602Y80324D02*
X-89602Y77156D01*
X-92770Y77156D01*
X-92770Y80324D01*
X-98492Y80324D02*
X-101660Y80324D01*
X-98492Y80324D02*
X-98492Y77156D01*
X-101660Y77156D01*
X-101660Y80324D01*
X16951Y-93031D02*
X16951Y-96199D01*
X13783Y-96199D01*
X13783Y-93031D01*
X16951Y-93031D01*
X16951Y-87309D02*
X16951Y-84141D01*
X16951Y-87309D02*
X13783Y-87309D01*
X13783Y-84141D01*
X16951Y-84141D01*
D16*
X56319Y-33850D03*
X56319Y-28850D03*
X56319Y-23850D03*
X56319Y-18850D03*
X56319Y-13850D03*
X56319Y-8850D03*
X56319Y-3850D03*
X56319Y1150D03*
X56319Y6150D03*
X56319Y11150D03*
X56319Y16150D03*
X56319Y21150D03*
D17*
X39819Y37650D03*
X34819Y37650D03*
X29819Y37650D03*
X24819Y37650D03*
X19819Y37650D03*
X14819Y37650D03*
X9819Y37650D03*
X4819Y37650D03*
X-181Y37650D03*
X-5181Y37650D03*
X-10181Y37650D03*
X-15181Y37650D03*
D16*
X-31681Y21150D03*
X-31681Y16150D03*
X-31681Y11150D03*
X-31681Y6150D03*
X-31681Y1150D03*
X-31681Y-3850D03*
X-31681Y-8850D03*
X-31681Y-13850D03*
X-31681Y-18850D03*
X-31681Y-23850D03*
X-31681Y-28850D03*
X-31681Y-33850D03*
D17*
X-15181Y-50350D03*
X-10181Y-50350D03*
X-5181Y-50350D03*
X-181Y-50350D03*
X4819Y-50350D03*
X9819Y-50350D03*
X14819Y-50350D03*
X19819Y-50350D03*
X24819Y-50350D03*
X29819Y-50350D03*
X34819Y-50350D03*
X39819Y-50350D03*
D15*
X89789Y118110D03*
X98679Y97790D03*
X80899Y97790D03*
D11*
X2473Y63179D02*
X2473Y60011D01*
X-695Y60011D01*
X-695Y63179D01*
X2473Y63179D01*
X2473Y68901D02*
X2473Y72069D01*
X2473Y68901D02*
X-695Y68901D01*
X-695Y72069D01*
X2473Y72069D01*
X95190Y20634D02*
X98358Y20634D01*
X98358Y17466D01*
X95190Y17466D01*
X95190Y20634D01*
X89468Y20634D02*
X86300Y20634D01*
X89468Y20634D02*
X89468Y17466D01*
X86300Y17466D01*
X86300Y20634D01*
X95190Y32064D02*
X98358Y32064D01*
X98358Y28896D01*
X95190Y28896D01*
X95190Y32064D01*
X89468Y32064D02*
X86300Y32064D01*
X89468Y32064D02*
X89468Y28896D01*
X86300Y28896D01*
X86300Y32064D01*
X95190Y43494D02*
X98358Y43494D01*
X98358Y40326D01*
X95190Y40326D01*
X95190Y43494D01*
X89468Y43494D02*
X86300Y43494D01*
X89468Y43494D02*
X89468Y40326D01*
X86300Y40326D01*
X86300Y43494D01*
X67250Y68901D02*
X67250Y72069D01*
X70418Y72069D01*
X70418Y68901D01*
X67250Y68901D01*
X67250Y63179D02*
X67250Y60011D01*
X67250Y63179D02*
X70418Y63179D01*
X70418Y60011D01*
X67250Y60011D01*
X56328Y68901D02*
X56328Y72069D01*
X59496Y72069D01*
X59496Y68901D01*
X56328Y68901D01*
X56328Y63179D02*
X56328Y60011D01*
X56328Y63179D02*
X59496Y63179D01*
X59496Y60011D01*
X56328Y60011D01*
X45025Y68901D02*
X45025Y72069D01*
X48193Y72069D01*
X48193Y68901D01*
X45025Y68901D01*
X45025Y63179D02*
X45025Y60011D01*
X45025Y63179D02*
X48193Y63179D01*
X48193Y60011D01*
X45025Y60011D01*
X33595Y68901D02*
X33595Y72069D01*
X36763Y72069D01*
X36763Y68901D01*
X33595Y68901D01*
X33595Y63179D02*
X33595Y60011D01*
X33595Y63179D02*
X36763Y63179D01*
X36763Y60011D01*
X33595Y60011D01*
X13903Y60011D02*
X13903Y63179D01*
X13903Y60011D02*
X10735Y60011D01*
X10735Y63179D01*
X13903Y63179D01*
X13903Y68901D02*
X13903Y72069D01*
X13903Y68901D02*
X10735Y68901D01*
X10735Y72069D01*
X13903Y72069D01*
X25333Y63179D02*
X25333Y60011D01*
X22165Y60011D01*
X22165Y63179D01*
X25333Y63179D01*
X25333Y68901D02*
X25333Y72069D01*
X25333Y68901D02*
X22165Y68901D01*
X22165Y72069D01*
X25333Y72069D01*
D18*
X39497Y-173736D03*
D19*
X14097Y-173736D03*
X-11303Y-173736D03*
X-36703Y-173736D03*
D20*
X-94488Y-135001D03*
X-94488Y-109601D03*
X-183388Y-109601D03*
X-183388Y-135001D03*
D11*
X-112328Y-87189D02*
X-109160Y-87189D01*
X-109160Y-90357D01*
X-112328Y-90357D01*
X-112328Y-87189D01*
X-118050Y-87189D02*
X-121218Y-87189D01*
X-118050Y-87189D02*
X-118050Y-90357D01*
X-121218Y-90357D01*
X-121218Y-87189D01*
X-62163Y-93278D02*
X-58995Y-93278D01*
X-62163Y-93278D02*
X-62163Y-90110D01*
X-58995Y-90110D01*
X-58995Y-93278D01*
X-53273Y-93278D02*
X-50105Y-93278D01*
X-53273Y-93278D02*
X-53273Y-90110D01*
X-50105Y-90110D01*
X-50105Y-93278D01*
D21*
X-16891Y105410D03*
X54229Y105410D03*
D11*
X95190Y-16196D02*
X98358Y-16196D01*
X98358Y-19364D01*
X95190Y-19364D01*
X95190Y-16196D01*
X89468Y-16196D02*
X86300Y-16196D01*
X89468Y-16196D02*
X89468Y-19364D01*
X86300Y-19364D01*
X86300Y-16196D01*
D22*
X132334Y86995D03*
D23*
X157734Y86995D03*
X132334Y61595D03*
X157734Y61595D03*
X132334Y36195D03*
X157734Y36195D03*
X132334Y10795D03*
X157734Y10795D03*
X132334Y-14605D03*
X157734Y-14605D03*
X132334Y-40005D03*
X157734Y-40005D03*
X132334Y-65405D03*
X157734Y-65405D03*
X132334Y-90805D03*
X157734Y-90805D03*
D18*
X31750Y158750D03*
D19*
X6350Y158750D03*
X-19050Y158750D03*
D24*
X109320Y158750D03*
X68480Y158750D03*
D11*
X-47057Y42859D02*
X-47057Y39691D01*
X-50225Y39691D01*
X-50225Y42859D01*
X-47057Y42859D01*
X-47057Y48581D02*
X-47057Y51749D01*
X-47057Y48581D02*
X-50225Y48581D01*
X-50225Y51749D01*
X-47057Y51749D01*
X-35627Y42859D02*
X-35627Y39691D01*
X-38795Y39691D01*
X-38795Y42859D01*
X-35627Y42859D01*
X-35627Y48581D02*
X-35627Y51749D01*
X-35627Y48581D02*
X-38795Y48581D01*
X-38795Y51749D01*
X-35627Y51749D01*
D25*
X106680Y-115570D03*
X63500Y-115570D03*
D26*
X-21456Y-92075D03*
D27*
X-36456Y-92075D03*
D28*
X-241822Y89936D03*
X-394462Y180126D03*
X-394462Y-190794D03*
X-241822Y-98064D03*
X-241822Y-4064D03*
D29*
X-61105Y-24577D02*
X-50147Y-24577D01*
X-61105Y-24577D02*
X-61105Y-19619D01*
X-50147Y-19619D01*
X-50147Y-24577D01*
X-50274Y-6670D02*
X-61232Y-6670D01*
X-61232Y-1712D01*
X-50274Y-1712D01*
X-50274Y-6670D01*
X45321Y130871D02*
X56279Y130871D01*
X45321Y130871D02*
X45321Y135829D01*
X56279Y135829D01*
X56279Y130871D01*
M02*
